<?xml version="1.0" standalone="no"?>
<!DOCTYPE svg PUBLIC "-//W3C//DTD SVG 1.1//EN" "http://www.w3.org/Graphics/SVG/1.1/DTD/svg11.dtd" >
<svg xmlns="http://www.w3.org/2000/svg">
<metadata>
Created by FontPrep 20130207 at Tue May 17 16:56:59 2016
 By Mauricio A Duran D
</metadata>
<defs>
<font id="7a2ef6f2ac068f2e003413b224ba591a" horiz-adv-x='1024' >
  <font-face 
    font-family="Aller-Light"
    font-weight="400"
    font-stretch="normal"
    units-per-em="2048"
    panose-1="2 0 5 3 0 0 0 2 0 4"
    ascent="1638"
    descent="-410"
    x-height="1044"
    cap-height="1477"
    bbox="-348 -512 2945 1958"
    underline-thickness="102"
    underline-position="-102"
    unicode-range="U+0020-FB04"
  />
<missing-glyph horiz-adv-x="1024" 
 />
    <glyph glyph-name="ff" unicode="ff" horiz-adv-x="1343" 
d="M322 -4q-44 0 -68 4v930h-178q-4 20 -4 57t4 57h178v82q0 193 85 289t269 96q65 0 148 -20q-5 -47 -33 -115q-201 45 -276 -36q-58 -62 -58 -220v-76h492v93q0 193 85 289t269 96q81 0 139 -17q-6 -61 -22 -116q-63 14 -116 14q-114 0 -167 -57t-53 -216v-86h287
q4 -20 4 -57t-4 -57h-287v-930q-70 -12 -135 0v930h-492v-930q-23 -4 -67 -4z" />
    <glyph glyph-name="fi" unicode="fi" horiz-adv-x="1189" 
d="M322 -4q-44 0 -68 4v930h-178q-4 20 -4 57t4 57h178v93q0 383 401 385q127 0 256 -43q0 -43 -34 -117q-71 25 -112 34t-105 9q-141 0 -205 -57t-66 -218v-86h621v-1044q-24 -4 -68 -4t-68 4v930h-485v-930q-23 -4 -67 -4z" />
    <glyph glyph-name="fl" unicode="fl" horiz-adv-x="1226" 
d="M322 -4q-44 0 -68 4v930h-178q-4 20 -4 57t4 57h178v93q0 193 100 289t312 96q139 0 305 -37v-1243q0 -128 84 -143q23 -3 56 -3t73 10q14 -35 20 -106q-98 -34 -217 -9q-151 32 -151 220v1180q-74 16 -159 16t-135 -11t-84 -42q-67 -61 -69 -224v-86h266q4 -20 4 -57
t-4 -57h-266v-930q-23 -4 -67 -4z" />
    <glyph glyph-name="ffi" unicode="ffi" horiz-adv-x="1816" 
d="M389 1120v-76h492v93q0 383 401 385q124 0 256 -43q0 -47 -35 -117q-74 25 -113 34t-103 9q-142 0 -207 -57q-64 -57 -64 -218v-86h620v-1044q-68 -11 -135 0v930h-485v-930q-70 -12 -135 0v930h-492v-930q-23 -4 -67 -4t-68 4v930h-178q-4 20 -4 57t4 57h178v82
q0 193 85 289t269 96q65 0 148 -20q-5 -47 -33 -115q-201 45 -276 -36q-58 -62 -58 -220z" />
    <glyph glyph-name="ffl" unicode="ffl" horiz-adv-x="1853" 
d="M881 930h-492v-930q-23 -4 -67 -4t-68 4v930h-178q-4 20 -4 57t4 57h178v82q0 193 85 289t269 96q65 0 148 -20q-5 -47 -33 -115q-201 45 -276 -36q-58 -62 -58 -220v-76h492v93q0 193 100 289t311 96q139 0 305 -37v-1243q0 -128 84 -143q23 -3 56 -3t73 10
q15 -38 21 -106q-98 -34 -217 -9q-149 31 -152 220v1180q-74 16 -158 16t-135 -11t-85 -42q-68 -62 -68 -224v-86h266q4 -20 4 -57t-4 -57h-266v-930q-70 -12 -135 0v930z" />
    <glyph glyph-name=".notdef" horiz-adv-x="1024" 
 />
    <glyph glyph-name=".null" horiz-adv-x="0" 
 />
    <glyph glyph-name="nonmarkingreturn" horiz-adv-x="1024" 
 />
    <glyph glyph-name="space" unicode=" " horiz-adv-x="512" 
 />
    <glyph glyph-name="exclam" unicode="!" horiz-adv-x="579" 
d="M197 87q0 44 6 87q43 6 87 6t87 -6q6 -43 6 -87t-6 -87q-43 -6 -87 -6t-87 6q-6 43 -6 87zM291 1477q36 0 78 -4l-9 -1053q-32 -4 -63 -4t-66 4l-8 1053q32 4 68 4z" />
    <glyph glyph-name="quotedbl" unicode="&#x22;" horiz-adv-x="845" 
d="M223 1477q41 0 72 -4v-551q-28 -4 -71 -4q-42 0 -70 4v551q28 4 69 4zM621 1477q41 0 71 -4v-551q-28 -4 -69 -4q-42 0 -72 4v551q29 4 70 4z" />
    <glyph glyph-name="numbersign" unicode="#" horiz-adv-x="1507" 
d="M991 555l35 406h-426l-33 -406h424zM147 496q0 30 5 59h280l35 406h-272q-13 59 0 116h282l29 338q18 4 43 4h49q24 0 41 -2l-29 -340h424l29 338q18 4 44 4h50q24 0 41 -2l-29 -340h258q5 -30 5 -60t-5 -56h-268l-35 -406h258q4 -25 4 -55t-4 -64h-268l-31 -377
q-33 -4 -65 -4t-66 4l31 377h-424l-31 -377q-32 -4 -68 -4t-71 4l33 377h-270q-5 30 -5 60z" />
    <glyph glyph-name="dollar" unicode="$" 
d="M358 1110q0 -141 181 -219q55 -25 129 -55q200 -79 278 -149q115 -104 115 -278q-1 -173 -103 -281t-282 -138v-232q-30 -6 -58 -6t-59 6v219q-12 -2 -20 -2h-19q-176 0 -350 58q9 68 37 131q29 -8 59 -18q107 -37 282 -39q175 -1 266 82t91 206t-64 185q-64 61 -260 136
t-255 127q-60 52 -88 112q-29 60 -29 153q0 142 89 236t261 120v185q27 6 57 6t60 -6v-176q164 0 307 -43q-9 -73 -29 -123q-125 41 -287 42q-161 1 -235 -66t-74 -173z" />
    <glyph glyph-name="percent" unicode="%" horiz-adv-x="2150" 
d="M655 0q-20 -4 -48 -4h-56q-28 0 -45 4l991 1448q32 4 69 4t79 -4zM463 1356q-234 0 -234 -318q1 -154 55 -236t177 -81q233 0 233 317q0 154 -54 236t-177 82zM838 1038q0 -92 -24 -172q-50 -165 -187 -229q-72 -33 -166 -33t-165 33q-139 64 -186 229q-24 80 -24 172
q0 187 96 311t281 124q184 0 279 -122q96 -123 96 -313zM1661 731q-234 0 -234 -317q1 -154 55 -236t177 -82q233 0 233 318q0 154 -54 236t-177 81zM2036 415q0 -190 -96 -314q-96 -123 -281 -122t-280 121t-95 311t96 314t280 123q183 0 280 -122q96 -121 96 -311z" />
    <glyph glyph-name="ampersand" unicode="&#x26;" horiz-adv-x="1556" 
d="M1130 809h-466q-168 0 -272 -114t-102 -266q1 -151 103 -235t295 -83q355 0 420 248q18 73 22 153v297zM620 1382q-144 0 -218 -68t-74 -169q0 -211 295 -211h507v186l127 123h9v-309h256q4 -28 4 -60t-4 -65h-256v-340q0 -240 -159 -367t-410 -127t-405 109
q-155 109 -155 334q0 134 75 258q75 125 196 172q-222 81 -224 309q0 171 121 256q121 84 305 84q128 0 232 -33q-6 -58 -33 -108q-112 26 -189 26z" />
    <glyph glyph-name="quotesingle" unicode="'" horiz-adv-x="448" 
d="M223 1477q41 0 72 -4v-551q-28 -4 -71 -4q-42 0 -70 4v551q28 4 69 4z" />
    <glyph glyph-name="parenleft" unicode="(" horiz-adv-x="593" 
d="M492 -342q-32 -4 -68 -4t-66 4q-172 260 -233 666q-23 145 -23 299q0 283 76 546t180 420q32 4 64 4t70 -4q-100 -179 -146 -319q-107 -322 -107 -652q1 -330 101 -625q52 -155 152 -335z" />
    <glyph glyph-name="parenright" unicode=")" horiz-adv-x="593" 
d="M102 1589q36 4 68 4t66 -4q171 -258 233 -667q23 -145 23 -299q0 -282 -76 -544t-180 -421q-28 -4 -65 -4t-69 4q100 180 146 318q107 319 107 650q-1 330 -101 627q-52 156 -152 336z" />
    <glyph glyph-name="asterisk" unicode="*" horiz-adv-x="995" 
d="M879 1255q30 -54 30 -98l-237 -88q-25 55 -41 119zM547 942q45 43 100 76l141 -215q-42 -42 -83 -60zM383 1014q51 -27 102 -72l-159 -201q-53 25 -84 62zM393 1186q-10 -61 -37 -119l-239 90q6 53 33 98zM516 1479q24 0 53 -6l11 -254q-20 -5 -49 -5h-45q-15 0 -31 5
l12 254q25 6 49 6z" />
    <glyph glyph-name="plus" unicode="+" 
d="M1038 718q0 -34 -4 -67h-352v-379q-18 -4 -43 -4h-49q-24 0 -41 4v379h-352q-4 15 -4 33v68q0 16 4 32h352v379q32 4 63 4t70 -4v-379h352q4 -32 4 -66z" />
    <glyph glyph-name="comma" unicode="," horiz-adv-x="419" 
d="M172 174q32 4 68 4t73 -4l-110 -405q-25 -5 -57 -5h-51q-17 0 -34 5z" />
    <glyph glyph-name="hyphen" unicode="-" horiz-adv-x="722" 
d="M635 584q0 -48 -4 -70h-539q-4 20 -4 70t4 67h539q4 -19 4 -67z" />
    <glyph glyph-name="period" unicode="." horiz-adv-x="419" 
d="M117 87q0 44 6 87q43 6 87 6t87 -6q6 -43 6 -87t-6 -87q-43 -6 -87 -6t-87 6q-6 43 -6 87z" />
    <glyph glyph-name="slash" unicode="/" horiz-adv-x="841" 
d="M667 1479q32 0 68 -6l-499 -1473q-31 -6 -65 -6t-65 6l498 1473q31 6 63 6z" />
    <glyph glyph-name="zero" unicode="0" 
d="M614 1202q-170 0 -263 -137t-93 -411t92 -412t263 -138t263 138t93 411q0 274 -92 412q-93 137 -263 137zM111 655q0 305 131 490q131 186 371 186t373 -187q132 -186 132 -490q0 -303 -131 -490t-372 -188t-373 187q-131 187 -131 492z" />
    <glyph glyph-name="one" unicode="1" 
d="M293 62q0 46 4 61h315v1003l-329 -161q-26 29 -54 100l512 262h11v-1204h292q7 -56 7 -70t-7 -53h-747q-4 16 -4 62z" />
    <glyph glyph-name="two" unicode="2" 
d="M522 1204q-104 0 -183 -26t-140 -56q-17 46 -37 121q186 91 358 90q320 0 415 -210q32 -71 32 -152q-1 -81 -19 -144q-50 -172 -284 -415l-265 -281h625q4 -33 4 -67t-4 -64h-893l-10 27l399 426q161 174 205 242q93 142 92 255q0 254 -295 254z" />
    <glyph glyph-name="three" unicode="3" 
d="M885 332q0 128 -85 198t-245 70q-105 0 -180 -16l-15 24l392 574h-582q-4 16 -4 30v65q0 17 4 34h809l8 -17l-403 -581q10 2 23 2h24q197 0 308 -130q93 -109 92 -247q-2 -257 -163 -379q-161 -121 -401 -121q-140 0 -278 40q-44 13 -76 30q18 59 57 123q122 -60 297 -60
q418 0 418 361z" />
    <glyph glyph-name="four" unicode="4" 
d="M815 285v436q37 6 70 6t67 -6v-436h219q13 -74 0 -129h-219v-279q-18 -4 -44 -4h-51q-25 0 -42 4v279h-704l-15 20l615 1178q48 -8 118 -47l-518 -1022h504z" />
    <glyph glyph-name="five" unicode="5" 
d="M569 774q202 0 330 -119q127 -119 127 -323q0 -250 -169 -379q-150 -115 -390 -115q-190 0 -317 58q14 71 47 122q108 -45 274 -47q406 0 406 357q0 220 -185 294q-70 28 -156 28t-251 -27l-15 14l27 674h668q4 -17 4 -31v-65q0 -17 -4 -33h-541l-14 -420q61 12 159 12z
" />
    <glyph glyph-name="six" unicode="6" 
d="M307 436q0 -166 84 -248t234 -82t246 93t96 258q0 92 -26 157q-74 187 -295 187q-136 0 -237 -99q-102 -100 -102 -266zM442 868q100 64 257 64t285 -118t128 -347t-149 -367q-139 -125 -328 -125q-232 0 -352 131q-133 148 -133 457q0 376 178 620q200 275 579 316
q10 -30 11 -71q2 -42 0 -52q-251 -27 -406 -182t-207 -401q-4 -23 -8 -43t-6 -43q51 98 151 161z" />
    <glyph glyph-name="seven" unicode="7" 
d="M141 1241q0 35 6 70h947l6 -6l-639 -1459q-85 20 -129 62l565 1274h-752q-4 24 -4 59z" />
    <glyph glyph-name="eight" unicode="8" 
d="M614 1352q-141 0 -213 -64q-71 -64 -71 -169q0 -106 81 -172t203 -99q195 52 260 168q25 43 25 100q0 108 -72 172t-213 64zM276 381q0 -129 85 -204t253 -75t253 76t85 205q0 182 -206 280q-62 30 -132 52q-338 -108 -338 -334zM1110 367q0 -202 -156 -302
q-137 -90 -340 -90t-340 90q-155 102 -155 302q0 163 113 276q82 81 231 137q-277 112 -277 355q0 147 119 242q119 96 308 96q190 0 311 -96q120 -96 118 -242q0 -244 -276 -355q153 -62 217 -124q127 -125 127 -289z" />
    <glyph glyph-name="nine" unicode="9" 
d="M926 864q0 166 -84 248t-232 82t-246 -92t-98 -258q0 -92 26 -158q73 -186 295 -186q137 0 238 99t101 265zM1083 731q0 -371 -178 -613q-200 -274 -579 -317q-13 40 -13 78q0 37 2 45q250 27 405 182t208 402q4 23 8 43t6 43q-51 -98 -151 -162t-238 -63
q-176 0 -304 117t-128 348q0 230 144 361q144 130 333 130q109 0 199 -31q286 -99 286 -563z" />
    <glyph glyph-name="colon" unicode=":" horiz-adv-x="419" 
d="M117 87q0 44 6 87q43 6 87 6t87 -6q6 -43 6 -87t-6 -87q-43 -6 -87 -6t-87 6q-6 43 -6 87zM117 964q0 44 6 87q43 6 87 6t87 -6q6 -43 6 -87t-6 -87q-43 -6 -87 -6t-87 6q-6 43 -6 87z" />
    <glyph glyph-name="semicolon" unicode=";" horiz-adv-x="454" 
d="M172 174q32 4 68 4t73 -4l-110 -405q-25 -5 -57 -5h-51q-17 0 -34 5zM152 964q0 44 6 87q43 6 87 6t87 -6q6 -43 6 -87t-6 -87q-43 -6 -87 -6t-87 6q-6 43 -6 87z" />
    <glyph glyph-name="less" unicode="&#x3c;" 
d="M1040 1066q0 -42 -6 -67l-710 -286l710 -279q8 -31 8 -81t-8 -70l-856 354q-8 29 -8 77t8 74l856 355q6 -35 6 -77z" />
    <glyph glyph-name="equal" unicode="=" 
d="M1055 528q0 -50 -4 -69h-873q-4 19 -4 69t4 70h873q4 -20 4 -70zM1055 902q0 -49 -4 -71h-873q-4 20 -4 70t4 70h873q4 -20 4 -69z" />
    <glyph glyph-name="greater" unicode="&#x3e;" 
d="M172 358q0 42 6 68l711 287l-711 278q-8 31 -8 81t8 71l856 -355q8 -28 8 -76t-8 -75l-856 -354q-6 33 -6 75z" />
    <glyph glyph-name="question" unicode="?" horiz-adv-x="993" 
d="M367 91q0 44 6 87q43 6 87 6t87 -6q6 -43 6 -87t-6 -87q-43 -6 -87 -6t-87 6q-6 43 -6 87zM454 416q-36 0 -67 4v317l70 23q291 91 291 311q0 139 -98 210t-257 71q-96 0 -153 -14t-113 -33q-16 38 -39 122q155 50 326 52q240 0 362 -109t123 -294q0 -185 -151 -309
q-104 -85 -222 -118v-229q-36 -4 -72 -4z" />
    <glyph glyph-name="at" unicode="@" horiz-adv-x="2091" 
d="M1821 809q0 275 -161 419t-454 144q-221 0 -394 -80t-292 -211t-180 -299t-61 -340q0 -328 180 -493q164 -152 442 -152q173 0 340 58q23 -61 31 -109q-155 -65 -406 -65q-320 0 -527 193q-206 193 -206 558q0 259 116 495q195 396 630 523q154 45 326 45q342 0 548 -176
q205 -176 205 -510q0 -269 -146 -478q-146 -210 -389 -210q-137 0 -223 55q-108 -72 -293 -74q-147 0 -231 90t-84 229q0 138 47 257q95 240 317 339q109 48 230 48t268 -41l-158 -758q40 -32 135 -34q173 -3 288 190q102 171 102 387zM1166 942q-74 0 -154 -37
q-163 -76 -234 -259q-35 -92 -35 -202q1 -110 51 -164t155 -54t208 53l133 649q-50 14 -124 14z" />
    <glyph glyph-name="A" unicode="A" horiz-adv-x="1232" 
d="M877 506l-265 819l-260 -819h525zM1192 0q-24 -4 -73 -4t-79 4l-122 375h-607l-116 -375q-32 -4 -81 -4t-73 4l491 1473q28 4 85 4t83 -4z" />
    <glyph glyph-name="B" unicode="B" horiz-adv-x="1202" 
d="M950 403q0 160 -106 234t-287 76h-209v-598q183 -25 335 3q161 30 231 142q36 57 36 143zM526 1372q-91 0 -178 -12v-514h195q167 0 243 74t76 188t-81 190q-81 74 -255 74zM512 1495q500 0 500 -383q0 -118 -69 -206t-171 -118q224 -28 302 -220q28 -68 28 -172
t-44 -184q-130 -237 -546 -237q-130 0 -305 25v1473q220 22 305 22z" />
    <glyph glyph-name="C" unicode="C" horiz-adv-x="1265" 
d="M803 -25q-305 0 -489 196q-183 196 -183 555t181 565t491 206q193 0 340 -49q-7 -61 -33 -121q-114 34 -179 39q-65 6 -156 6t-187 -44t-164 -128q-143 -177 -142 -481t150 -460q149 -157 385 -157q186 0 307 66q38 -74 47 -119q-144 -72 -368 -74z" />
    <glyph glyph-name="D" unicode="D" horiz-adv-x="1431" 
d="M1153 745q0 317 -163 465t-451 150q-133 0 -191 -10v-1227q112 -12 222 -12q110 1 224 31q359 96 359 603zM553 1495q372 0 560 -196q187 -196 187 -560q0 -764 -753 -764q-178 0 -340 25v1473q159 22 346 22z" />
    <glyph glyph-name="E" unicode="E" horiz-adv-x="1105" 
d="M1018 66q0 -40 -4 -66h-807v1473h788q4 -24 4 -64t-4 -66h-647v-497h520q4 -24 4 -64t-4 -65h-520v-588h666q4 -23 4 -63z" />
    <glyph glyph-name="F" unicode="F" horiz-adv-x="1028" 
d="M276 -4q-44 0 -69 4v1473h723q4 -24 4 -64t-4 -66h-582v-497h504q4 -24 4 -64t-4 -65h-504v-717q-28 -4 -72 -4z" />
    <glyph glyph-name="G" unicode="G" horiz-adv-x="1413" 
d="M1162 764q41 0 71 -4v-717q-122 -63 -410 -68q-308 0 -499 195t-191 555q0 359 191 566q191 206 487 206q195 0 354 -51q-7 -64 -32 -125q-143 51 -287 51q-399 0 -521 -377q-40 -121 -40 -277q0 -299 153 -455q153 -157 391 -157q174 0 263 31v623q28 4 70 4z" />
    <glyph glyph-name="H" unicode="H" horiz-adv-x="1421" 
d="M277 1477q42 0 71 -4v-627h725v627q28 4 70 4t71 -4v-1473q-24 -4 -68 -4t-73 4v717h-725v-717q-28 -4 -72 -4t-69 4v1473q28 4 70 4z" />
    <glyph glyph-name="I" unicode="I" horiz-adv-x="555" 
d="M277 1477q42 0 71 -4v-1473q-28 -4 -72 -4t-69 4v1473q28 4 70 4z" />
    <glyph glyph-name="J" unicode="J" horiz-adv-x="788" 
d="M453 1348h-271q-4 20 -4 62t4 63h410v-1180q0 -168 -106 -250q-85 -66 -208 -67t-217 26q6 57 35 125q179 -53 283 13q72 48 74 171v1037z" />
    <glyph glyph-name="K" unicode="K" horiz-adv-x="1214" 
d="M1194 0q-46 -4 -88 -4t-80 4l-582 754l519 719q32 4 69 4t84 -4l-504 -705zM277 1477q42 0 71 -4v-1473q-28 -4 -72 -4t-69 4v1473q28 4 70 4z" />
    <glyph glyph-name="L" unicode="L" horiz-adv-x="1017" 
d="M275 1477q44 0 73 -4v-1344h629q4 -23 4 -63t-4 -66h-770v1473q24 4 68 4z" />
    <glyph glyph-name="M" unicode="M" horiz-adv-x="1669" 
d="M246 -4q-44 0 -70 4l72 1473q24 4 87 4t91 -4l412 -981l407 981q24 4 86 4t90 -4l72 -1473q-29 -4 -73 -4t-68 4l-56 1253l-405 -948q-14 -4 -35 -4h-42q-21 0 -36 4l-401 950l-60 -1255q-27 -4 -71 -4z" />
    <glyph glyph-name="N" unicode="N" horiz-adv-x="1409" 
d="M207 1473q28 4 78 4q49 0 75 -4l705 -1233v1233q27 4 67 4t70 -4v-1473q-24 -4 -76 -4t-77 4l-705 1223v-1223q-28 -4 -70 -4t-67 4v1473z" />
    <glyph glyph-name="O" unicode="O" horiz-adv-x="1478" 
d="M739 104q119 0 205 46q256 138 256 587q0 448 -256 585q-86 46 -205 46q-229 0 -345 -171q-117 -171 -115 -460q0 -453 255 -586q86 -47 205 -47zM1348 737q0 -343 -155 -552q-155 -210 -455 -210t-453 209q-154 209 -154 551q0 343 155 552q155 210 455 210t456 -214
q151 -203 151 -546z" />
    <glyph glyph-name="P" unicode="P" horiz-adv-x="1134" 
d="M276 -4q-44 0 -69 4v1473q20 2 57 7t125 11t169 6q81 -1 179 -25q318 -79 318 -421q0 -247 -155 -365q-155 -117 -390 -117q-81 0 -162 9v-578q-28 -4 -72 -4zM506 700q68 0 140 12q155 27 223 157q36 69 36 171t-27 161q-78 167 -368 167q-94 0 -162 -10v-649
q90 -9 158 -9z" />
    <glyph glyph-name="Q" unicode="Q" horiz-adv-x="1478" 
d="M739 104q119 0 205 46q256 138 256 587q0 448 -256 585q-86 46 -205 46q-229 0 -345 -171q-117 -171 -115 -460q0 -453 255 -586q86 -47 205 -47zM1348 737q0 -343 -155 -552q-155 -210 -455 -210t-453 209q-154 209 -154 551q0 343 155 552q155 210 455 210t456 -214
q151 -203 151 -546zM1354 -147q0 -74 -25 -127l-444 88q0 56 26 123z" />
    <glyph glyph-name="R" unicode="R" horiz-adv-x="1202" 
d="M504 1497q360 0 482 -226q46 -85 46 -189t-28 -171q-80 -185 -306 -270l-16 -6l469 -635q-20 -4 -51 -4h-60q-30 0 -51 4l-516 682v8l45 12q249 64 332 220q31 57 31 135q-1 159 -99 239t-266 80q-83 0 -168 -10v-1366q-28 -4 -70 -4t-71 4v1479q203 18 297 18z" />
    <glyph glyph-name="S" unicode="S" horiz-adv-x="1107" 
d="M609 1374q-158 0 -232 -70t-74 -173q0 -104 76 -163t192 -104q117 -45 192 -82q243 -120 243 -362q0 -212 -146 -329q-146 -116 -395 -116q-176 0 -350 58q8 60 37 131q30 -8 60 -18t95 -25q65 -14 164 -14q100 -1 171 23q208 70 208 276q0 121 -68 186q-68 66 -257 137
t-251 127q-63 54 -92 116t-28 154q0 166 119 269q120 102 350 102q144 0 250 -29q34 -8 55 -14q-8 -62 -29 -123q-132 43 -290 43z" />
    <glyph glyph-name="T" unicode="T" horiz-adv-x="1013" 
d="M506 -4q-44 0 -70 4v1346h-395q-4 24 -4 62t4 65h932q4 -23 4 -63t-4 -64h-395v-1346q-28 -4 -72 -4z" />
    <glyph glyph-name="U" unicode="U" horiz-adv-x="1384" 
d="M260 1477q42 0 72 -4v-889q0 -371 198 -448q68 -26 162 -25q186 0 274 108q87 109 87 365v889q27 4 69 4t72 -4v-908q0 -295 -121 -442t-381 -147t-381 146q-121 148 -121 443v908q28 4 70 4z" />
    <glyph glyph-name="V" unicode="V" horiz-adv-x="1263" 
d="M63 1473q24 4 79 4t83 -4l412 -1334l405 1334q32 4 83 4t75 -4l-483 -1473q-28 -4 -85 -4t-85 4z" />
    <glyph glyph-name="W" unicode="W" horiz-adv-x="1886" 
d="M74 1473q24 4 80 4t84 -4l284 -1315l338 1315q24 4 85 4t89 -4l336 -1315l289 1315q31 4 81 4t72 -4l-356 -1473q-28 -4 -92 -4t-92 4l-330 1282l-328 -1282q-28 -4 -92 -4t-92 4z" />
    <glyph glyph-name="X" unicode="X" horiz-adv-x="1210" 
d="M1159 0q-35 -4 -75 -4t-76 4l-396 776l340 697q32 4 68 4t82 -4l-342 -689zM104 1473q46 4 84 4t70 -4l338 -697l-393 -776q-17 -4 -37 -4h-37q-40 0 -78 4l395 772z" />
    <glyph glyph-name="Y" unicode="Y" horiz-adv-x="1175" 
d="M49 1473q24 4 79 4t83 -4l385 -779l379 779q33 4 81 4t70 -4l-462 -926v-547q-28 -4 -72 -4t-70 4v547z" />
    <glyph glyph-name="Z" unicode="Z" horiz-adv-x="1136" 
d="M143 1407q0 44 4 66h936l11 -15l-840 -1329h772q4 -19 4 -63t-4 -66h-987l-10 16l833 1327h-715q-4 20 -4 64z" />
    <glyph glyph-name="bracketleft" unicode="[" horiz-adv-x="616" 
d="M512 -286q0 -32 -4 -58h-406v1876h406q4 -28 4 -62t-4 -55h-268v-1644h268q4 -25 4 -57z" />
    <glyph glyph-name="backslash" unicode="\" horiz-adv-x="841" 
d="M658 -6q-34 0 -64 6l-500 1473q37 6 69 6t62 -6l498 -1473q-31 -6 -65 -6z" />
    <glyph glyph-name="bracketright" unicode="]" horiz-adv-x="616" 
d="M109 -344q-5 14 -5 58t5 57h268v1644h-268q-5 12 -5 43v45q0 14 5 29h405v-1876h-405z" />
    <glyph glyph-name="asciicircum" unicode="^" horiz-adv-x="1128" 
d="M555 1479q47 0 90 -6l336 -711h-135l-285 608l-280 -608h-136l336 711q27 6 74 6z" />
    <glyph glyph-name="underscore" unicode="_" horiz-adv-x="1036" 
d="M1036 -106q0 -28 -6 -56h-1020q-8 25 -8 57t8 56h1020q6 -29 6 -57z" />
    <glyph glyph-name="grave" unicode="`" horiz-adv-x="1024" 
d="M380 1485h59q24 0 46 -4l240 -267q-37 -6 -76 -6t-76 6l-276 267q47 4 83 4z" />
    <glyph glyph-name="a" unicode="a" horiz-adv-x="1050" 
d="M540 641q93 0 216 -14v63q0 260 -252 260q-149 0 -271 -39q-24 43 -24 119q129 39 310 39q372 0 372 -360v-691q-212 -41 -386 -42q-173 -1 -283 75t-109 246q0 82 31 146q97 198 396 198zM248 301q0 -207 277 -207q118 0 231 23v391q-123 14 -187 14q-153 0 -237 -57
t-84 -164z" />
    <glyph glyph-name="b" unicode="b" horiz-adv-x="1208" 
d="M248 1509q44 0 67 -4v-606q43 66 124 118t193 52q218 1 335 -129q116 -130 115 -394q0 -264 -150 -417q-150 -154 -432 -154q-171 0 -320 56v1474q24 4 68 4zM938 547q0 399 -299 399q-204 0 -292 -175q-32 -65 -32 -163v-483q91 -31 192 -31q196 0 314 115
q117 116 117 338z" />
    <glyph glyph-name="c" unicode="c" horiz-adv-x="983" 
d="M254 116q-133 140 -133 392t132 406q132 155 376 155q159 0 260 -37q0 -63 -23 -117q-102 35 -216 35q-293 0 -365 -256q-23 -78 -23 -172q0 -221 106 -324t285 -104q115 0 219 37q20 -41 33 -113q-117 -41 -262 -43q-256 1 -389 141z" />
    <glyph glyph-name="d" unicode="d" horiz-adv-x="1198" 
d="M268 504q0 -406 389 -408q144 0 226 25v784q-110 43 -221 43t-182 -33q-212 -99 -212 -411zM951 1509q44 0 67 -4v-1480q-151 -48 -309 -49t-256 26q-203 56 -284 250q-42 100 -42 242q0 270 141 425q140 150 373 150q141 0 242 -37v473q24 4 68 4z" />
    <glyph glyph-name="e" unicode="e" horiz-adv-x="1132" 
d="M881 614q0 225 -158 308q-55 29 -133 28q-143 0 -223 -88t-97 -248h611zM1016 621q0 -79 -4 -119h-746q0 -209 96 -307t289 -99q135 0 275 49q19 -43 24 -114q-118 -54 -283 -55t-263 39q-282 115 -281 501q0 238 115 395q115 158 352 158q201 0 316 -132q54 -61 82 -149
t28 -167z" />
    <glyph glyph-name="f" unicode="f" horiz-adv-x="716" 
d="M322 -4q-44 0 -68 4v930h-178q-4 20 -4 57t4 57h178v93q0 193 85 289t269 96q79 0 140 -17q-6 -55 -23 -116q-63 14 -115 14q-114 0 -168 -57q-53 -57 -53 -216v-86h287q4 -20 4 -57t-4 -57h-287v-930q-23 -4 -67 -4z" />
    <glyph glyph-name="g" unicode="g" horiz-adv-x="1097" 
d="M276 705q0 -105 62 -179t196 -74t197 74q63 72 63 178t-62 180q-64 72 -197 72t-196 -72t-63 -179zM215 -221q0 -166 291 -166q190 0 297 64q106 65 106 149t-53 117t-174 34l-254 5q-96 2 -154 -54t-59 -149zM276 215q0 -106 177 -106l266 -5q180 -4 257 -74t77 -188
q0 -158 -156 -255t-395 -97q-420 0 -420 272q0 78 45 150t117 106q-94 60 -93 148t38 141q38 53 102 96q-158 99 -158 302q0 159 107 262q107 102 278 102q172 0 281 -78q133 53 270 53q8 -30 8 -68t-8 -69h-195q60 -93 60 -192q0 -98 -31 -166q-61 -134 -212 -184
q-73 -25 -159 -25t-151 22q-57 -36 -81 -70t-24 -77z" />
    <glyph glyph-name="h" unicode="h" horiz-adv-x="1171" 
d="M248 1509q44 0 67 -4v-647q45 83 134 147t213 64q350 0 350 -410v-659q-24 -4 -68 -4t-67 4v618q1 174 -57 250t-167 76q-150 0 -244 -109t-94 -309v-526q-23 -4 -67 -4t-68 4v1505q24 4 68 4z" />
    <glyph glyph-name="i" unicode="i" horiz-adv-x="559" 
d="M176 1300q-4 36 -4 88t4 85q36 4 88 4t84 -4q4 -31 4 -83t-4 -90q-32 -4 -84 -4t-88 4zM312 -4q-44 0 -68 4v930h-131q-4 20 -4 57t4 57h266v-1044q-23 -4 -67 -4z" />
    <glyph glyph-name="j" unicode="j" horiz-adv-x="569" 
d="M186 1300q-4 36 -4 88t4 85q36 4 88 4t84 -4q4 -31 4 -83t-4 -90q-32 -4 -84 -4t-88 4zM389 -88q0 -282 -283 -287q-109 0 -174 29q13 74 31 110q47 -20 119 -20t103 16q68 36 69 138v1032h-131q-4 20 -4 57t4 57h266v-1132z" />
    <glyph glyph-name="k" unicode="k" horiz-adv-x="1028" 
d="M924 -6q-40 0 -84 6l-439 539l375 505q77 14 158 0l-373 -491l440 -553q-37 -6 -77 -6zM248 1509q44 0 67 -4v-1505q-23 -4 -67 -4t-68 4v1505q24 4 68 4z" />
    <glyph glyph-name="l" unicode="l" horiz-adv-x="571" 
d="M248 1509q44 0 67 -4v-1263q0 -128 84 -143q23 -3 56 -3t73 10q15 -38 21 -106q-52 -18 -113 -18t-104 9q-149 31 -152 220v1294q24 4 68 4z" />
    <glyph glyph-name="m" unicode="m" horiz-adv-x="1712" 
d="M248 -4q-44 0 -68 4v1044q40 5 67 5t56 -5q8 -74 8 -180q65 141 204 188q49 17 111 17q164 0 233 -115q22 -35 40 -77q61 88 108 123q91 69 201 69q182 0 263 -104t81 -299v-666q-67 -11 -135 0v618q0 326 -217 326q-126 0 -195 -95t-69 -237v-612q-24 -4 -68 -4t-67 4
v645q0 311 -195 309q-127 0 -209 -120t-82 -310v-524q-23 -4 -67 -4z" />
    <glyph glyph-name="n" unicode="n" horiz-adv-x="1171" 
d="M248 -4q-44 0 -68 4v1044q40 5 67 5t56 -5q8 -74 8 -188q76 140 232 194q57 19 125 19q344 0 344 -410v-659q-24 -4 -68 -4t-67 4v618q-1 174 -55 250t-163 76q-148 0 -246 -114t-98 -314v-516q-23 -4 -67 -4z" />
    <glyph glyph-name="o" unicode="o" horiz-adv-x="1175" 
d="M588 -25q-117 0 -205 42t-146 116t-87 174t-29 215t29 215t87 174t146 116t205 42t204 -42t145 -116t88 -174t30 -215t-30 -215t-88 -174t-145 -116t-204 -42zM588 94q164 0 245 115t81 313t-81 314q-81 114 -245 114t-245 -114t-81 -314t81 -314t245 -114z" />
    <glyph glyph-name="p" unicode="p" horiz-adv-x="1206" 
d="M938 547q0 401 -299 401q-205 0 -292 -177q-32 -65 -32 -163v-475q97 -37 204 -37q201 0 310 113t109 338zM180 1044q30 5 66 5t57 -5l12 -143q43 66 124 117t193 51q218 1 335 -129q116 -130 115 -394t-146 -417q-145 -154 -410 -154q-112 0 -211 33v-491q-23 -4 -67 -4
t-68 4v1527z" />
    <glyph glyph-name="q" unicode="q" horiz-adv-x="1196" 
d="M679 950q-202 0 -308 -130q-105 -130 -105 -333t103 -298t259 -95q155 0 253 35v801q-101 20 -202 20zM125 486q0 269 150 426t399 157q189 0 342 -47v-1505q-24 -4 -68 -4t-67 4v489q-102 -29 -220 -30q-383 -3 -495 269q-41 99 -41 241z" />
    <glyph glyph-name="r" unicode="r" horiz-adv-x="716" 
d="M248 -4q-44 0 -68 4v1044q40 5 67 5t56 -5q8 -74 8 -178q97 179 310 181h21q11 0 26 -3q6 -34 6 -66t-6 -63q-24 3 -45 3q-139 0 -223 -88t-85 -293v-537q-23 -4 -67 -4z" />
    <glyph glyph-name="s" unicode="s" horiz-adv-x="925" 
d="M672 274q0 68 -22 104q-41 68 -159 107t-170 61q-178 72 -178 242q0 125 91 203t269 78t283 -45q-10 -59 -28 -117q-132 43 -253 43q-120 0 -172 -44t-52 -116t56 -108t134 -60t134 -46q208 -80 208 -277q0 -145 -111 -235q-111 -89 -298 -89q-186 0 -291 45
q12 62 39 123q107 -43 242 -44q134 -1 206 53t72 122z" />
    <glyph glyph-name="t" unicode="t" horiz-adv-x="694" 
d="M649 987q0 -37 -4 -57h-283v-680q0 -127 98 -149q28 -5 78 -5t103 19q14 -53 21 -115q-74 -23 -182 -23q-108 1 -180 63t-73 204v686h-178q-4 20 -4 57t4 57h178v197l127 125h8v-322h283q4 -20 4 -57z" />
    <glyph glyph-name="u" unicode="u" horiz-adv-x="1177" 
d="M244 1049q43 0 63 -5v-587q0 -211 82 -286t235 -76t238 26v923q30 5 73 5t62 -5v-1017q-316 -83 -541 -33q-175 37 -247 215q-37 92 -37 240v595q29 5 72 5z" />
    <glyph glyph-name="v" unicode="v" horiz-adv-x="1067" 
d="M53 1044q30 5 83 5t73 -5l330 -903l335 903q30 5 74 5t66 -5l-416 -1044q-32 -6 -64 -6t-65 6z" />
    <glyph glyph-name="w" unicode="w" horiz-adv-x="1540" 
d="M68 1044q30 5 78 5q49 0 69 -5l231 -888l259 888q41 5 67 5h44q17 0 34 -5l258 -876l231 876q30 5 71 5t63 -5l-302 -1044q-37 -6 -73 -6t-70 6l-252 864l-264 -864q-37 -6 -74 -6t-69 6z" />
    <glyph glyph-name="x" unicode="x" horiz-adv-x="1003" 
d="M884 -6q-38 0 -71 6l-303 545l262 499q86 12 150 0l-267 -489l308 -555q-41 -6 -79 -6zM118 -6q-38 0 -77 6l311 545l-274 499q78 13 153 0l263 -499l-304 -545q-34 -6 -72 -6z" />
    <glyph glyph-name="y" unicode="y" horiz-adv-x="1054" 
d="M280 -393q64 1 100 29t62 106l84 254h-39q-55 0 -77 4l-377 1044q30 5 83 5t72 -5l347 -1015l339 1015q30 5 74 5t66 -5l-459 -1353q-66 -203 -258 -203q-86 0 -166 25q0 63 31 114q54 -20 118 -20z" />
    <glyph glyph-name="z" unicode="z" horiz-adv-x="952" 
d="M121 987q0 37 4 57h754l8 -26l-608 -903h575q4 -21 4 -57t-4 -58h-784l-7 33l609 897h-547q-4 20 -4 57z" />
    <glyph glyph-name="braceleft" unicode="{" horiz-adv-x="811" 
d="M707 -291q0 -32 -5 -53q-212 0 -296 100t-84 310v157q0 207 -118 302q-42 34 -102 67v8q126 70 172 147t48 222v157q0 210 85 310t295 100q5 -35 5 -66t-5 -49q-158 0 -205 -82q-42 -69 -42 -268v-22q0 -206 -36 -302q-36 -95 -138 -151q103 -59 138 -151q34 -92 36 -302
v-22q0 -200 42 -268q50 -82 205 -82q5 -30 5 -62z" />
    <glyph glyph-name="bar" unicode="|" horiz-adv-x="669" 
d="M335 1593q41 0 68 -4v-1933q-28 -4 -70 -4t-67 4v1933q28 4 69 4z" />
    <glyph glyph-name="braceright" unicode="}" horiz-adv-x="811" 
d="M104 1478q0 32 5 58q211 0 295 -100t85 -310v-157q0 -145 49 -223q49 -79 171 -146v-8q-125 -70 -171 -145q-47 -75 -49 -224v-157q0 -210 -85 -310t-295 -100q-5 30 -5 62t5 53q82 0 130 19q93 37 109 172q8 67 8 159v22q0 206 35 300t139 153q-104 59 -138 151t-36 302
v22q0 201 -43 268q-51 82 -204 82q-5 25 -5 57z" />
    <glyph glyph-name="asciitilde" unicode="~" horiz-adv-x="978" 
d="M319 809q-110 0 -198 -86q-47 33 -72 92q62 78 192 112q38 9 88 9t133 -28t129 -42q46 -12 93 -12q96 0 178 80q41 -38 68 -109q-111 -98 -244 -98q-70 -1 -150 27t-127 42q-46 14 -90 13z" />
    <glyph glyph-name="uni00A0" unicode="&#xa0;" horiz-adv-x="0" 
 />
    <glyph glyph-name="exclamdown" unicode="&#xa1;" horiz-adv-x="579" 
d="M383 964q0 -44 -6 -87q-94 -13 -174 0q-6 43 -6 87t6 87q43 6 87 6t87 -6q6 -43 6 -87zM288 -426q-36 0 -77 4l8 1053q32 4 64 4t65 -4l8 -1053q-32 -4 -68 -4z" />
    <glyph glyph-name="cent" unicode="&#xa2;" 
d="M773 950q-293 0 -365 -256q-23 -78 -23 -172q0 -221 105 -324t286 -104q121 0 219 37q20 -41 33 -113q-99 -34 -227 -43v-217q-51 -14 -117 0v222q-217 22 -329 160q-111 138 -111 371t112 381t328 173v242q57 12 117 0v-240q123 -7 211 -35q0 -63 -23 -117
q-103 35 -216 35z" />
    <glyph glyph-name="sterling" unicode="&#xa3;" 
d="M1061 66q0 -40 -4 -66h-811l-6 20l47 48q139 139 139 395q0 68 -29 186h-172q-4 21 -4 57t4 58h144q-37 146 -37 253q0 325 239 424q82 34 221 34t259 -50q-6 -51 -33 -118q-98 43 -213 44t-170 -24q-155 -70 -158 -301q0 -113 39 -262h432q4 -20 4 -56t-4 -59h-405
q26 -138 26 -223q1 -86 -25 -172t-65 -125h578q4 -23 4 -63z" />
    <glyph glyph-name="currency" unicode="&#xa4;" 
d="M311 723q0 -131 87 -223t214 -91q128 1 217 92q88 91 87 222q-1 132 -89 222q-88 91 -215 90t-214 -91t-87 -221zM178 719q0 143 88 264l-172 172q30 65 94 90l170 -172q117 82 259 81t251 -83l174 174q56 -31 93 -86l-174 -176q88 -118 88 -261t-86 -257l167 -168
q-29 -53 -83 -92l-175 170q-111 -86 -261 -85t-259 85l-168 -166q-66 30 -90 92l166 164q-82 111 -82 254z" />
    <glyph glyph-name="yen" unicode="&#xa5;" 
d="M618 -4q-44 0 -69 4v322h-406q-8 24 -8 58t8 60h406v207h-406q-8 25 -8 59t8 60h334l-401 682q24 4 79 4t83 -4l385 -655l378 655q32 4 80 4t72 -4l-393 -682h338q6 -28 6 -58t-6 -61h-408v-207h408q6 -28 6 -58t-6 -60h-408v-322q-28 -4 -72 -4z" />
    <glyph glyph-name="brokenbar" unicode="&#xa6;" horiz-adv-x="669" 
d="M334 340q40 0 69 -4v-680q-28 -4 -70 -4t-67 4v680q28 4 68 4zM335 1593q41 0 68 -4v-680q-28 -4 -70 -4t-67 4v680q28 4 69 4z" />
    <glyph glyph-name="section" unicode="&#xa7;" horiz-adv-x="1136" 
d="M764 508q92 78 92 184q0 82 -162 131l-254 82q-59 21 -84 33q-80 -80 -80 -148t38 -105q38 -36 116 -64l264 -86q14 -5 30 -11t40 -16zM478 88q159 0 246 48t87 133t-132 139q-38 14 -79 26l-213 70q-207 68 -235 182q-31 115 21 210q32 58 75 108q-62 62 -63 180
t117 203t304 83q106 0 178 -16t144 -39q0 -53 -35 -117q-57 23 -119 40q-62 18 -172 18t-192 -42t-82 -125t49 -116q49 -34 141 -61l260 -80q92 -29 154 -82q62 -54 61 -146t-33 -153t-77 -111q67 -72 67 -157t-32 -139q-102 -170 -441 -173q-190 0 -336 58q18 79 37 116
q141 -57 300 -57z" />
    <glyph glyph-name="dieresis" unicode="&#xa8;" horiz-adv-x="1024" 
d="M707 1436q43 0 84 -6q6 -44 6 -88t-6 -87q-41 -6 -84 -6t-82 6q-13 93 0 175q39 6 82 6zM227 1342q0 44 6 88q39 6 82 6t84 -6q13 -94 0 -175q-41 -6 -84 -6t-82 6q-6 43 -6 87z" />
    <glyph glyph-name="copyright" unicode="&#xa9;" horiz-adv-x="1769" 
d="M885 -27q-171 1 -311 59q-281 117 -394 400q-55 139 -55 302q0 331 210 545q99 101 239 159t310 59q340 0 550 -216q209 -216 210 -544q1 -329 -209 -546q-99 -101 -239 -159t-311 -59zM887 94q284 0 451 184t167 458q0 273 -169 456q-170 184 -452 184q-283 0 -451 -184
q-169 -184 -169 -458t169 -457q170 -183 454 -183zM925 299q-199 0 -306 119t-107 312q0 194 110 321q110 125 289 125q104 0 203 -29q-8 -68 -29 -109q-82 23 -167 23q-139 0 -207 -90t-68 -243q0 -152 74 -234t207 -82q87 0 163 39q22 -40 43 -103q-101 -49 -205 -49z" />
    <glyph glyph-name="ordfeminine" unicode="&#xaa;" horiz-adv-x="1024" 
d="M487 1135q106 0 172 -11v39q0 101 -53 147t-162 46t-215 -33q-20 32 -20 113q103 30 257 30q318 0 318 -288v-549q-195 -33 -341 -33q-316 0 -316 258q0 135 100 208t260 73zM488 1022q-99 0 -169 -43t-69 -121q0 -128 147 -146q41 -5 114 -5t148 14v291q-72 10 -171 10z
" />
    <glyph glyph-name="guillemotleft" unicode="&#xab;" horiz-adv-x="1230" 
d="M550 88q-40 0 -79 6l-358 453l358 452q80 13 156 0l-351 -448l351 -457q-37 -6 -77 -6zM1046 88q-40 0 -79 6l-359 453l359 452q79 13 155 0l-350 -448l350 -457q-36 -6 -76 -6z" />
    <glyph glyph-name="logicalnot" unicode="&#xac;" 
d="M176 676q0 50 4 69h840v-557q-20 -4 -70 -4t-69 4v418h-701q-4 20 -4 70z" />
    <glyph glyph-name="uni00AD" unicode="&#xad;" horiz-adv-x="722" 
d="M635 584q0 -48 -4 -70h-539q-4 20 -4 70t4 67h539q4 -19 4 -67z" />
    <glyph glyph-name="registered" unicode="&#xae;" horiz-adv-x="1769" 
d="M885 -27q-171 1 -311 59q-281 117 -394 400q-55 139 -55 302q0 331 210 545q99 101 239 159t310 59q340 0 550 -216q209 -216 210 -544q1 -329 -209 -546q-99 -101 -239 -159t-311 -59zM887 94q284 0 451 184t167 458q0 273 -169 456q-170 184 -452 184q-283 0 -451 -184
q-169 -184 -169 -458t169 -457q170 -183 454 -183zM1245 354q-29 -4 -53 -4h-46q-23 0 -38 2l-270 369l47 18q159 64 159 172q0 66 -54 101t-114 35t-106 -7v-688q-20 -4 -60 -4t-61 4v791q94 12 175 12q156 0 238 -50q105 -64 103 -192q0 -152 -159 -231z" />
    <glyph glyph-name="macron" unicode="&#xaf;" horiz-adv-x="1024" 
d="M797 1346q0 -38 -4 -56h-562q-4 16 -4 54t4 59h562q4 -19 4 -57z" />
    <glyph glyph-name="degree" unicode="&#xb0;" horiz-adv-x="745" 
d="M207 1196q0 -78 48 -129t124 -51t124 51t48 129t-48 129t-124 51t-124 -51t-48 -129zM585 1403q87 -85 87 -206t-87 -207t-205 -85q-119 0 -207 84q-87 85 -87 206t87 207t205 85q119 0 207 -84z" />
    <glyph glyph-name="plusminus" unicode="&#xb1;" 
d="M1038 718q0 -34 -4 -67h-352v-379q-18 -4 -43 -4h-49q-24 0 -41 4v379h-352q-4 15 -4 33v68q0 16 4 32h352v379q32 4 63 4t70 -4v-379h352q4 -32 4 -66zM1055 74q0 -48 -4 -70h-873q-4 20 -4 70t4 69h873q4 -21 4 -69z" />
    <glyph glyph-name="twosuperior" unicode="&#xb2;" horiz-adv-x="921" 
d="M421 1448q134 0 217 -62t83 -164q0 -104 -46 -189t-140 -177l-117 -115h356v-112h-610l-6 16l254 256q176 176 176 303t-193 127q-77 0 -176 -31q-10 20 -26 111q94 37 228 37z" />
    <glyph glyph-name="threesuperior" unicode="&#xb3;" horiz-adv-x="921" 
d="M768 874q0 -52 -28 -104q-86 -163 -339 -166q-110 0 -227 31l31 110q153 -48 280 -21q87 18 125 84q18 32 18 75q1 116 -126 148q-37 9 -68 9h-45q-14 0 -33 -4l-8 13l195 292h-314v107h498l10 -21l-207 -303q63 -6 109 -29q129 -69 129 -221z" />
    <glyph glyph-name="acute" unicode="&#xb4;" horiz-adv-x="1024" 
d="M375 1208q-39 0 -76 6l240 267q23 4 47 4h45q52 0 96 -4l-276 -267q-37 -6 -76 -6z" />
    <glyph glyph-name="mu" unicode="&#xb5;" horiz-adv-x="1245" 
d="M253 1049q43 0 62 -5v-548q0 -188 67 -294t224 -106q204 0 292 177q32 65 32 163v608q30 5 72 5t63 -5v-1044q-23 -4 -47 -4h-44q-19 0 -32 4q-8 68 -12 143q-43 -67 -124 -117t-210 -51q-186 0 -281 138v-596q-23 -4 -67 -4t-68 4v1527q30 5 73 5z" />
    <glyph glyph-name="paragraph" unicode="&#xb6;" horiz-adv-x="1126" 
d="M881 1485q73 0 127 -12v-1473q-54 -12 -127 -12v1497zM709 -12q-75 0 -127 12v641h-27q-202 0 -328 100q-125 100 -125 299q0 244 137 344q137 101 470 101v-1497z" />
    <glyph glyph-name="periodcentered" unicode="&#xb7;" horiz-adv-x="419" 
d="M117 566q0 44 6 87q43 6 87 6t87 -6q6 -43 6 -87t-6 -87q-43 -6 -87 -6t-87 6q-6 43 -6 87z" />
    <glyph glyph-name="cedilla" unicode="&#xb8;" horiz-adv-x="1024" 
d="M455 -213q-35 0 -107 -12l-10 8l100 266h119l-72 -174q9 2 19 2h20q104 0 154 -49t51 -136q0 -87 -76 -136q-76 -50 -185 -50t-169 27q0 66 23 100q70 -24 127 -24q151 0 151 96q0 82 -145 82z" />
    <glyph glyph-name="onesuperior" unicode="&#xb9;" horiz-adv-x="921" 
d="M791 678q0 -26 -5 -49h-553q-6 27 -6 55t6 55h218v547l-220 -90q-28 25 -49 98l377 162h25v-717h202q5 -35 5 -61z" />
    <glyph glyph-name="ordmasculine" unicode="&#xba;" horiz-adv-x="1024" 
d="M139 1038q0 189 99 312q98 123 276 123t276 -120q97 -120 97 -312t-98 -315q-98 -122 -276 -122q-177 0 -276 123q-98 122 -98 311zM513 725q120 0 178 84q59 84 59 231q0 148 -58 232t-179 84q-120 0 -178 -84q-59 -84 -59 -232t58 -232t179 -83z" />
    <glyph glyph-name="guillemotright" unicode="&#xbb;" 
d="M187 88q-40 0 -78 6l350 449l-350 456q79 13 155 0l359 -452l-359 -453q-37 -6 -77 -6zM681 88q-40 0 -79 6l350 449l-350 456q80 13 156 0l358 -452l-358 -453q-37 -6 -77 -6z" />
    <glyph glyph-name="onequarter" unicode="&#xbc;" horiz-adv-x="2150" 
d="M743 684q0 -27 -4 -55h-553q-6 27 -6 55t6 55h217v547l-219 -90q-28 25 -49 98l377 162h25v-717h202q4 -28 4 -55zM682 0q-20 -4 -48 -4h-57q-28 0 -45 4l992 1448q32 4 68 4t79 -4zM1800 0q-26 0 -63 4v168h-434l-13 16l342 664q59 -10 117 -37l-272 -528h260v176
q31 6 59 6t62 -6v-176h106q6 -23 6 -61t-6 -54h-106v-168q-32 -4 -58 -4z" />
    <glyph glyph-name="onehalf" unicode="&#xbd;" horiz-adv-x="2150" 
d="M743 684q0 -27 -4 -55h-553q-6 27 -6 55t6 55h217v547l-219 -90q-28 25 -49 98l377 162h25v-717h202q4 -28 4 -55zM1613 823q134 0 217 -61q83 -60 83 -164t-46 -189t-141 -178l-116 -114h356v-113h-610l-6 16l254 256q176 176 176 304t-193 127q-68 0 -176 -31
q-7 15 -27 110q95 37 229 37zM645 0q-20 -4 -48 -4h-57q-28 0 -44 4l991 1448q32 4 69 4t78 -4z" />
    <glyph glyph-name="threequarters" unicode="&#xbe;" horiz-adv-x="2150" 
d="M762 874q0 -52 -28 -104q-86 -163 -339 -166q-110 0 -227 31l31 110q153 -48 280 -21q87 18 125 84q18 32 18 75q1 116 -126 148q-37 9 -68 9h-45q-14 0 -33 -4l-8 13l195 292h-314v107h498l10 -21l-207 -303q63 -6 109 -29q129 -69 129 -221zM1821 18q-25 0 -56 5v167
h-434l-12 17l342 663q59 -10 117 -36l-273 -529h260v176q31 6 59 6t62 -6v-176h107q6 -23 6 -61t-6 -54h-107v-167q-40 -5 -65 -5zM596 -4q-28 0 -45 4l991 1448q32 4 69 4t79 -4l-990 -1448q-20 -4 -48 -4h-56z" />
    <glyph glyph-name="questiondown" unicode="&#xbf;" horiz-adv-x="993" 
d="M668 964q0 -44 -6 -87q-94 -13 -175 0q-6 43 -6 87t6 87q43 6 87 6t88 -6q6 -43 6 -87zM580 639q36 0 67 -4v-318l-69 -22q-198 -60 -266 -193q-26 -51 -25 -118q0 -139 98 -210t256 -71q95 0 153 14t113 33q17 -40 39 -123q-158 -51 -325 -51q-240 0 -363 109t-123 295
t152 308q103 84 221 118v229q36 4 72 4z" />
    <glyph glyph-name="Agrave" unicode="&#xc0;" horiz-adv-x="1232" 
d="M877 506l-265 819l-260 -819h525zM1192 0q-24 -4 -73 -4t-79 4l-122 375h-607l-116 -375q-32 -4 -81 -4t-73 4l491 1473q28 4 85 4t83 -4zM425 1827q52 0 99 -6l228 -228q-37 -6 -80 -6t-80 6l-264 228q45 6 97 6z" />
    <glyph glyph-name="Aacute" unicode="&#xc1;" horiz-adv-x="1232" 
d="M877 506l-265 819l-260 -819h525zM1192 0q-24 -4 -73 -4t-79 4l-122 375h-607l-116 -375q-32 -4 -81 -4t-73 4l491 1473q28 4 85 4t83 -4zM538 1587q-43 0 -79 6l227 228q45 6 97 6t100 -6l-265 -228q-37 -6 -80 -6z" />
    <glyph glyph-name="Acircumflex" unicode="&#xc2;" horiz-adv-x="1232" 
d="M877 506l-265 819l-260 -819h525zM1192 0q-24 -4 -73 -4t-79 4l-122 375h-607l-116 -375q-32 -4 -81 -4t-73 4l491 1473q28 4 85 4t83 -4zM944 1593q-27 -6 -78 -6t-88 6l-162 144l-163 -144q-49 -6 -95 -6t-75 6l258 228q37 6 73 6t78 -6z" />
    <glyph glyph-name="Atilde" unicode="&#xc3;" horiz-adv-x="1232" 
d="M877 506l-265 819l-260 -819h525zM1192 0q-24 -4 -73 -4t-79 4l-122 375h-607l-116 -375q-32 -4 -81 -4t-73 4l491 1473q28 4 85 4t83 -4zM799 1620q-62 0 -177 55q-44 20 -85 38t-84 18q-43 -1 -72 -19t-64 -49q-35 41 -51 90q92 98 189 96q65 0 145 -40t122 -57t83 -17
t69 17t64 52q30 -42 51 -94q-96 -90 -190 -90z" />
    <glyph glyph-name="Adieresis" unicode="&#xc4;" horiz-adv-x="1232" 
d="M877 506l-265 819l-260 -819h525zM1192 0q-24 -4 -73 -4t-79 4l-122 375h-607l-116 -375q-32 -4 -81 -4t-73 4l491 1473q28 4 85 4t83 -4zM735 1704q0 45 6 92q39 6 85 6t94 -6q6 -47 6 -92t-6 -90q-48 -6 -94 -6t-85 6q-6 45 -6 90zM307 1704q0 45 6 92q45 6 91 6t88 -6
q6 -47 6 -92t-6 -90q-42 -6 -88 -6t-91 6q-6 45 -6 90z" />
    <glyph glyph-name="Aring" unicode="&#xc5;" horiz-adv-x="1232" 
d="M614 1823q-59 0 -90 -39q-30 -39 -30 -98t30 -99q31 -39 90 -39t91 39q31 39 31 99t-31 98q-32 39 -91 39zM877 506l-265 819l-260 -819h525zM1192 0q-24 -4 -73 -4t-79 4l-122 375h-607l-116 -375q-32 -4 -81 -4t-73 4l489 1466q-70 25 -110 83t-39 122q0 170 137 227
q43 19 95 19q103 0 168 -66t66 -153q1 -88 -39 -146t-108 -84z" />
    <glyph glyph-name="AE" unicode="&#xc6;" horiz-adv-x="1835" 
d="M936 1354h-8l-500 -848h508v848zM1747 66q0 -40 -4 -66h-807v377h-584l-221 -377q-47 -6 -88 -6t-78 6l895 1473h864q10 -62 0 -130h-647v-538h520q5 -30 5 -69t-5 -60h-520v-547h666q4 -23 4 -63z" />
    <glyph glyph-name="Ccedilla" unicode="&#xc7;" horiz-adv-x="1265" 
d="M780 -121h19q104 0 155 -50q52 -50 52 -137t-77 -136q-77 -50 -187 -50t-169 27q0 66 23 102q70 -24 127 -24q153 0 151 94q0 82 -145 82q-34 0 -106 -12l-11 8l76 201q-258 37 -408 228q-149 191 -149 509q0 364 181 570t491 206q193 0 340 -49q-7 -61 -33 -121
q-114 34 -179 39q-65 6 -156 6t-187 -44t-164 -128q-143 -177 -142 -481t150 -460q149 -157 385 -157q186 0 307 66q38 -74 47 -119q-144 -72 -370 -74l-39 -98q10 2 18 2z" />
    <glyph glyph-name="Egrave" unicode="&#xc8;" horiz-adv-x="1105" 
d="M1018 66q0 -40 -4 -66h-807v1473h788q4 -24 4 -64t-4 -66h-647v-497h520q4 -24 4 -64t-4 -65h-520v-588h666q4 -23 4 -63zM410 1827q52 0 100 -6l227 -228q-37 -6 -79 -6t-80 6l-265 228q45 6 97 6z" />
    <glyph glyph-name="Eacute" unicode="&#xc9;" horiz-adv-x="1105" 
d="M1018 66q0 -40 -4 -66h-807v1473h788q4 -24 4 -64t-4 -66h-647v-497h520q4 -24 4 -64t-4 -65h-520v-588h666q4 -23 4 -63zM530 1587q-43 0 -79 6l227 228q45 6 97 6t99 -6l-264 -228q-37 -6 -80 -6z" />
    <glyph glyph-name="Ecircumflex" unicode="&#xca;" horiz-adv-x="1105" 
d="M1018 66q0 -40 -4 -66h-807v1473h788q4 -24 4 -64t-4 -66h-647v-497h520q4 -24 4 -64t-4 -65h-520v-588h666q4 -23 4 -63zM926 1593q-27 -6 -78 -6t-88 6l-162 144l-164 -144q-49 -6 -95 -6t-75 6l258 228q37 6 74 6t78 -6z" />
    <glyph glyph-name="Edieresis" unicode="&#xcb;" horiz-adv-x="1105" 
d="M1018 66q0 -40 -4 -66h-807v1473h788q4 -24 4 -64t-4 -66h-647v-497h520q4 -24 4 -64t-4 -65h-520v-588h666q4 -23 4 -63zM719 1704q0 45 6 92q39 6 85 6t93 -6q6 -47 6 -92t-6 -90q-47 -6 -93 -6t-85 6q-6 45 -6 90zM291 1704q0 45 6 92q45 6 91 6t87 -6q6 -47 6 -92
t-6 -90q-41 -6 -87 -6t-91 6q-6 45 -6 90z" />
    <glyph glyph-name="Igrave" unicode="&#xcc;" horiz-adv-x="555" 
d="M277 1477q42 0 71 -4v-1473q-28 -4 -72 -4t-69 4v1473q28 4 70 4zM103 1827q52 0 100 -6l227 -228q-37 -6 -80 -6t-80 6l-264 228q45 6 97 6z" />
    <glyph glyph-name="Iacute" unicode="&#xcd;" horiz-adv-x="555" 
d="M277 1477q42 0 71 -4v-1473q-28 -4 -72 -4t-69 4v1473q28 4 70 4zM211 1587q-43 0 -80 6l227 228q46 6 98 6t99 -6l-264 -228q-37 -6 -80 -6z" />
    <glyph glyph-name="Icircumflex" unicode="&#xce;" horiz-adv-x="555" 
d="M277 1477q42 0 71 -4v-1473q-28 -4 -72 -4t-69 4v1473q28 4 70 4zM610 1593q-27 -6 -78 -6t-88 6l-161 144l-164 -144q-49 -6 -95 -6t-75 6l258 228q37 6 74 6t77 -6z" />
    <glyph glyph-name="Idieresis" unicode="&#xcf;" horiz-adv-x="555" 
d="M277 1477q42 0 71 -4v-1473q-28 -4 -72 -4t-69 4v1473q28 4 70 4zM491 1802q46 0 93 -6q6 -47 6 -92t-6 -90q-47 -6 -93 -6t-85 6q-13 96 0 182q39 6 85 6zM-29 1704q0 45 6 92q45 6 91 6t88 -6q6 -47 6 -92t-6 -90q-42 -6 -88 -6t-91 6q-6 45 -6 90z" />
    <glyph glyph-name="Eth" unicode="&#xd0;" horiz-adv-x="1462" 
d="M379 799h366q5 -25 5 -61t-5 -52h-366v-563q111 -12 221 -12q110 1 224 31q360 96 360 603q0 317 -163 465t-452 150q-132 0 -190 -10v-551zM43 740q0 38 4 59h191v674q159 22 346 22q370 0 559 -196q188 -196 188 -560q0 -764 -753 -764q-178 0 -340 25v686h-191
q-4 16 -4 54z" />
    <glyph glyph-name="Ntilde" unicode="&#xd1;" horiz-adv-x="1409" 
d="M207 1473q28 4 78 4q49 0 75 -4l705 -1233v1233q27 4 67 4t70 -4v-1473q-24 -4 -76 -4t-77 4l-705 1223v-1223q-28 -4 -70 -4t-67 4v1473zM877 1620q-63 0 -178 55q-45 20 -85 38t-83 18q-43 -1 -72 -19t-64 -49q-35 41 -51 90q92 98 188 96q66 0 146 -40t122 -57t83 -17
t69 17t64 52q23 -33 51 -94q-96 -90 -190 -90z" />
    <glyph glyph-name="Ograve" unicode="&#xd2;" horiz-adv-x="1478" 
d="M739 104q119 0 205 46q256 138 256 587q0 448 -256 585q-86 46 -205 46q-229 0 -345 -171q-117 -171 -115 -460q0 -453 255 -586q86 -47 205 -47zM1348 737q0 -343 -155 -552q-155 -210 -455 -210t-453 209q-154 209 -154 551q0 343 155 552q155 210 455 210t456 -214
q151 -203 151 -546zM540 1827q52 0 99 -6l227 -228q-38 -6 -80 -6t-79 6l-265 228q46 6 98 6z" />
    <glyph glyph-name="Oacute" unicode="&#xd3;" horiz-adv-x="1478" 
d="M739 104q119 0 205 46q256 138 256 587q0 448 -256 585q-86 46 -205 46q-229 0 -345 -171q-117 -171 -115 -460q0 -453 255 -586q86 -47 205 -47zM1348 737q0 -343 -155 -552q-155 -210 -455 -210t-453 209q-154 209 -154 551q0 343 155 552q155 210 455 210t456 -214
q151 -203 151 -546zM649 1587q-43 0 -80 6l228 228q45 6 97 6t99 -6l-264 -228q-37 -6 -80 -6z" />
    <glyph glyph-name="Ocircumflex" unicode="&#xd4;" horiz-adv-x="1478" 
d="M739 104q119 0 205 46q256 138 256 587q0 448 -256 585q-86 46 -205 46q-229 0 -345 -171q-117 -171 -115 -460q0 -453 255 -586q86 -47 205 -47zM1348 737q0 -343 -155 -552q-155 -210 -455 -210t-453 209q-154 209 -154 551q0 343 155 552q155 210 455 210t456 -214
q151 -203 151 -546zM1069 1593q-27 -6 -78 -6q-52 0 -88 6l-162 144l-163 -144q-49 -6 -95 -6t-75 6l258 228q38 6 74 6t77 -6z" />
    <glyph glyph-name="Otilde" unicode="&#xd5;" horiz-adv-x="1478" 
d="M739 104q119 0 205 46q256 138 256 587q0 448 -256 585q-86 46 -205 46q-229 0 -345 -171q-117 -171 -115 -460q0 -453 255 -586q86 -47 205 -47zM1348 737q0 -343 -155 -552q-155 -210 -455 -210t-453 209q-154 209 -154 551q0 343 155 552q155 210 455 210t456 -214
q151 -203 151 -546zM911 1620q-62 0 -177 55q-44 20 -85 38t-84 18q-43 -1 -71 -19t-64 -49q-35 41 -51 90q92 98 188 96q63 0 145 -40q81 -40 123 -57t83 -17q40 0 68 17t65 52q23 -33 51 -94q-96 -90 -191 -90z" />
    <glyph glyph-name="Odieresis" unicode="&#xd6;" horiz-adv-x="1478" 
d="M739 104q119 0 205 46q256 138 256 587q0 448 -256 585q-86 46 -205 46q-229 0 -345 -171q-117 -171 -115 -460q0 -453 255 -586q86 -47 205 -47zM1348 737q0 -343 -155 -552q-155 -210 -455 -210t-453 209q-154 209 -154 551q0 343 155 552q155 210 455 210t456 -214
q151 -203 151 -546zM858 1704q0 45 6 92q39 6 85 6t93 -6q13 -100 0 -182q-47 -6 -93 -6t-85 6q-6 45 -6 90zM430 1704q0 45 6 92q45 6 91 6t87 -6q13 -100 0 -182q-41 -6 -87 -6t-91 6q-6 45 -6 90z" />
    <glyph glyph-name="multiply" unicode="&#xd7;" 
d="M520 739l-262 265q39 51 94 94l262 -264l265 262q55 -43 94 -95l-262 -262l262 -262q-43 -57 -94 -94l-263 262l-266 -264q-51 39 -94 94z" />
    <glyph glyph-name="Oslash" unicode="&#xd8;" horiz-adv-x="1478" 
d="M739 1368q-229 0 -345 -171q-117 -171 -116 -444q1 -272 84 -427l676 925q-117 117 -299 117zM739 104q228 0 344 172q117 172 117 449t-90 430l-676 -928q115 -123 305 -123zM272 201q-141 200 -141 538t155 548t453 210q229 0 381 -133l80 109q37 6 72 6t69 -6
l-141 -195q148 -200 148 -542t-154 -550q-154 -209 -455 -211q-234 0 -389 138l-82 -113q-36 -6 -70 -6t-71 6z" />
    <glyph glyph-name="Ugrave" unicode="&#xd9;" horiz-adv-x="1384" 
d="M260 1477q42 0 72 -4v-889q0 -371 198 -448q68 -26 162 -25q186 0 274 108q87 109 87 365v889q27 4 69 4t72 -4v-908q0 -295 -121 -442t-381 -147t-381 146q-121 148 -121 443v908q28 4 70 4zM505 1827q52 0 99 -6l227 -228q-37 -6 -79 -6t-80 6l-264 228q45 6 97 6z" />
    <glyph glyph-name="Uacute" unicode="&#xda;" horiz-adv-x="1384" 
d="M260 1477q42 0 72 -4v-889q0 -371 198 -448q68 -26 162 -25q186 0 274 108q87 109 87 365v889q27 4 69 4t72 -4v-908q0 -295 -121 -442t-381 -147t-381 146q-121 148 -121 443v908q28 4 70 4zM651 1587q-43 0 -80 6l228 228q45 6 97 6t99 -6l-264 -228q-37 -6 -80 -6z
" />
    <glyph glyph-name="Ucircumflex" unicode="&#xdb;" horiz-adv-x="1384" 
d="M260 1477q42 0 72 -4v-889q0 -371 198 -448q68 -26 162 -25q186 0 274 108q87 109 87 365v889q27 4 69 4t72 -4v-908q0 -295 -121 -442t-381 -147t-381 146q-121 148 -121 443v908q28 4 70 4zM1022 1593q-27 -6 -78 -6t-88 6l-162 144l-164 -144q-48 -6 -94 -6t-76 6
l258 228q37 6 74 6t78 -6z" />
    <glyph glyph-name="Udieresis" unicode="&#xdc;" horiz-adv-x="1384" 
d="M260 1477q42 0 72 -4v-889q0 -371 198 -448q68 -26 162 -25q186 0 274 108q87 109 87 365v889q27 4 69 4t72 -4v-908q0 -295 -121 -442t-381 -147t-381 146q-121 148 -121 443v908q28 4 70 4zM811 1704q0 45 6 92q39 6 85 6t93 -6q6 -47 6 -92t-6 -90q-47 -6 -93 -6
t-85 6q-6 45 -6 90zM383 1704q0 45 6 92q45 6 91 6t87 -6q6 -47 6 -92t-6 -90q-41 -6 -87 -6t-91 6q-6 45 -6 90z" />
    <glyph glyph-name="Yacute" unicode="&#xdd;" horiz-adv-x="1175" 
d="M49 1473q24 4 79 4t83 -4l385 -779l379 779q33 4 81 4t70 -4l-462 -926v-547q-28 -4 -72 -4t-70 4v547zM557 1587q-43 0 -80 6l228 228q45 6 97 6t99 -6l-264 -228q-37 -6 -80 -6z" />
    <glyph glyph-name="Thorn" unicode="&#xde;" horiz-adv-x="1177" 
d="M501 420q179 0 274 62q130 85 130 287t-130 287q-95 62 -275 62q-47 0 -152 -10v-680q80 -8 153 -8zM529 1249q90 -1 189 -27q209 -56 293 -233q44 -92 44 -221q0 -243 -155 -362t-390 -117q-72 0 -162 8v-297q-28 -4 -72 -4t-69 4v1473q27 4 71 4q43 0 70 -4v-232
q91 8 181 8z" />
    <glyph glyph-name="germandbls" unicode="&#xdf;" horiz-adv-x="1120" 
d="M248 -4q-44 0 -68 4v1028q0 244 74 358q87 134 289 134q166 0 253 -83t87 -225q0 -96 -29 -162q-28 -66 -64 -116q-36 -51 -65 -99q-29 -47 -29 -101t25 -86t61 -60t80 -56q43 -28 80 -64q88 -84 86 -202q0 -146 -89 -217q-89 -72 -229 -73t-257 51q13 61 39 118
q119 -48 176 -48q110 -1 156 29q61 37 63 132q0 57 -34 106t-129 103q-163 97 -163 252q0 74 30 130t64 109q35 52 65 112t30 148t-56 136t-138 49q-149 0 -200 -91q-39 -71 -41 -290v-1022q-23 -4 -67 -4z" />
    <glyph glyph-name="agrave" unicode="&#xe0;" horiz-adv-x="1050" 
d="M540 641q93 0 216 -14v63q0 260 -252 260q-149 0 -271 -39q-24 43 -24 119q129 39 310 39q372 0 372 -360v-691q-212 -41 -386 -42q-173 -1 -283 75t-109 246q0 82 31 146q97 198 396 198zM248 301q0 -207 277 -207q118 0 231 23v391q-123 14 -187 14q-153 0 -237 -57
t-84 -164zM310 1485h60q24 0 46 -4l239 -267q-37 -6 -75 -6t-76 6l-277 267q46 4 83 4z" />
    <glyph glyph-name="aacute" unicode="&#xe1;" horiz-adv-x="1050" 
d="M540 641q93 0 216 -14v63q0 260 -252 260q-149 0 -271 -39q-24 43 -24 119q129 39 310 39q372 0 372 -360v-691q-212 -41 -386 -42q-173 -1 -283 75t-109 246q0 82 31 146q97 198 396 198zM248 301q0 -207 277 -207q118 0 231 23v391q-123 14 -187 14q-153 0 -237 -57
t-84 -164zM428 1208q-39 0 -76 6l240 267q22 4 46 4h46q52 0 96 -4l-276 -267q-37 -6 -76 -6z" />
    <glyph glyph-name="acircumflex" unicode="&#xe2;" horiz-adv-x="1050" 
d="M540 641q93 0 216 -14v63q0 260 -252 260q-149 0 -271 -39q-24 43 -24 119q129 39 310 39q372 0 372 -360v-691q-212 -41 -386 -42q-173 -1 -283 75t-109 246q0 82 31 146q97 198 396 198zM248 301q0 -207 277 -207q118 0 231 23v391q-123 14 -187 14q-153 0 -237 -57
t-84 -164zM846 1214q-35 -6 -82 -6t-76 6l-170 189l-170 -189q-35 -6 -80 -6t-78 6l240 265q30 6 89 6t89 -6z" />
    <glyph glyph-name="atilde" unicode="&#xe3;" horiz-adv-x="1050" 
d="M540 641q93 0 216 -14v63q0 260 -252 260q-149 0 -271 -39q-24 43 -24 119q129 39 310 39q372 0 372 -360v-691q-212 -41 -386 -42q-173 -1 -283 75t-109 246q0 82 31 146q97 198 396 198zM248 301q0 -207 277 -207q118 0 231 23v391q-123 14 -187 14q-153 0 -237 -57
t-84 -164zM184 1356q81 92 166 92q84 0 178 -52q37 -20 74 -36t88 -16t125 65q33 -47 49 -98q-84 -90 -178 -88q-69 0 -163 52q-37 19 -73 35t-78 17q-42 0 -71 -16t-68 -49q-35 47 -49 94z" />
    <glyph glyph-name="adieresis" unicode="&#xe4;" horiz-adv-x="1050" 
d="M540 641q93 0 216 -14v63q0 260 -252 260q-149 0 -271 -39q-24 43 -24 119q129 39 310 39q372 0 372 -360v-691q-212 -41 -386 -42q-173 -1 -283 75t-109 246q0 82 31 146q97 198 396 198zM248 301q0 -207 277 -207q118 0 231 23v391q-123 14 -187 14q-153 0 -237 -57
t-84 -164zM637 1342q0 44 6 88q39 6 82 6t84 -6q6 -44 6 -88t-6 -87q-41 -6 -84 -6t-82 6q-6 43 -6 87zM246 1342q0 44 6 88q39 6 82 6t84 -6q6 -44 6 -88t-6 -87q-41 -6 -84 -6t-82 6q-6 43 -6 87z" />
    <glyph glyph-name="aring" unicode="&#xe5;" horiz-adv-x="1050" 
d="M540 641q93 0 216 -14v63q0 260 -252 260q-149 0 -271 -39q-24 43 -24 119q129 39 310 39q372 0 372 -360v-691q-212 -41 -386 -42q-173 -1 -283 75t-109 246q0 82 31 146q97 198 396 198zM248 301q0 -207 277 -207q118 0 231 23v391q-123 14 -187 14q-153 0 -237 -57
t-84 -164zM538 1534q-106 0 -106 -118t106 -118t105 118q1 118 -105 118zM330 1416q0 88 56 148t152 60t151 -60q56 -60 56 -148t-55 -147q-55 -61 -152 -61q-96 0 -152 60t-56 148z" />
    <glyph glyph-name="ae" unicode="&#xe6;" horiz-adv-x="1738" 
d="M1487 616q0 139 -73 237q-73 99 -217 98t-224 -88t-96 -247h610zM496 94q204 0 313 84q-64 96 -66 287l-2 41q-105 12 -184 12q-154 0 -238 -55t-83 -162q0 -207 260 -207zM506 -25q-406 0 -406 322q0 82 32 145q99 195 405 195q103 0 208 -12v65q0 135 -64 198
q-65 62 -202 62t-258 -39q-24 43 -24 119q129 39 277 39t230 -46t134 -151q53 90 144 144q92 54 204 53q112 0 192 -35q159 -70 216 -246q28 -86 28 -165t-4 -119h-746q0 -325 210 -386q73 -22 191 -22t259 49q19 -43 24 -114q-118 -54 -336 -55t-341 108q-63 -43 -167 -76
t-206 -33z" />
    <glyph glyph-name="ccedilla" unicode="&#xe7;" horiz-adv-x="983" 
d="M597 -123h19q104 0 154 -49t51 -136q0 -87 -76 -136q-76 -50 -185 -50t-169 27q0 66 23 100q70 -24 127 -24q151 0 151 96q0 82 -145 82q-32 0 -107 -12l-10 8l76 205q-385 71 -385 534q0 237 132 392t376 155q159 0 260 -37q0 -63 -23 -117q-102 35 -216 35
q-293 0 -365 -256q-23 -78 -23 -172q0 -221 106 -324t285 -104q115 0 219 37q20 -41 33 -113q-117 -41 -262 -43h-25l-40 -100q10 2 19 2z" />
    <glyph glyph-name="egrave" unicode="&#xe8;" horiz-adv-x="1132" 
d="M881 614q0 225 -158 308q-55 29 -133 28q-143 0 -223 -88t-97 -248h611zM1016 621q0 -79 -4 -119h-746q0 -209 96 -307t289 -99q135 0 275 49q19 -43 24 -114q-118 -54 -283 -55t-263 39q-282 115 -281 501q0 238 115 395q115 158 352 158q201 0 316 -132q54 -61 82 -149
t28 -167zM404 1485h60q24 0 46 -4l240 -267q-37 -6 -76 -6t-76 6l-276 267q46 4 82 4z" />
    <glyph glyph-name="eacute" unicode="&#xe9;" horiz-adv-x="1132" 
d="M881 614q0 225 -158 308q-55 29 -133 28q-143 0 -223 -88t-97 -248h611zM1016 621q0 -79 -4 -119h-746q0 -209 96 -307t289 -99q135 0 275 49q19 -43 24 -114q-118 -54 -283 -55t-263 39q-282 115 -281 501q0 238 115 395q115 158 352 158q201 0 316 -132q54 -61 82 -149
t28 -167zM508 1208q-39 0 -76 6l240 267q22 4 46 4h46q52 0 96 -4l-276 -267q-37 -6 -76 -6z" />
    <glyph glyph-name="ecircumflex" unicode="&#xea;" horiz-adv-x="1132" 
d="M881 614q0 225 -158 308q-55 29 -133 28q-143 0 -223 -88t-97 -248h611zM1016 621q0 -79 -4 -119h-746q0 -209 96 -307t289 -99q135 0 275 49q19 -43 24 -114q-118 -54 -283 -55t-263 39q-282 115 -281 501q0 238 115 395q115 158 352 158q201 0 316 -132q54 -61 82 -149
t28 -167zM911 1214q-35 -6 -81 -6t-76 6l-170 189l-170 -189q-34 -6 -80 -6q-45 0 -78 6l240 265q30 6 89 6t89 -6z" />
    <glyph glyph-name="edieresis" unicode="&#xeb;" horiz-adv-x="1132" 
d="M881 614q0 225 -158 308q-55 29 -133 28q-143 0 -223 -88t-97 -248h611zM1016 621q0 -79 -4 -119h-746q0 -209 96 -307t289 -99q135 0 275 49q19 -43 24 -114q-118 -54 -283 -55t-263 39q-282 115 -281 501q0 238 115 395q115 158 352 158q201 0 316 -132q54 -61 82 -149
t28 -167zM686 1342q0 44 6 88q39 6 82 6t84 -6q6 -44 6 -88t-6 -87q-41 -6 -84 -6t-82 6q-6 43 -6 87zM295 1342q0 44 6 88q39 6 82 6t84 -6q6 -44 6 -88t-6 -87q-41 -6 -84 -6t-82 6q-6 43 -6 87z" />
    <glyph glyph-name="igrave" unicode="&#xec;" horiz-adv-x="559" 
d="M312 -4q-44 0 -68 4v930h-131q-4 20 -4 57t4 57h266v-1044q-23 -4 -67 -4zM113 1485h60q24 0 46 -4l240 -267q-37 -6 -76 -6t-76 6l-276 267q45 4 82 4z" />
    <glyph glyph-name="iacute" unicode="&#xed;" horiz-adv-x="559" 
d="M312 -4q-44 0 -68 4v930h-131q-4 20 -4 57t4 57h266v-1044q-23 -4 -67 -4zM184 1208q-39 0 -75 6l239 267q22 4 46 4h46q51 0 97 -4l-277 -267q-37 -6 -76 -6z" />
    <glyph glyph-name="icircumflex" unicode="&#xee;" horiz-adv-x="559" 
d="M312 -4q-44 0 -68 4v930h-131q-4 20 -4 57t4 57h266v-1044q-23 -4 -67 -4zM610 1214q-35 -6 -81 -6t-76 6l-170 189l-170 -189q-34 -6 -80 -6q-45 0 -78 6l240 265q30 6 89 6t89 -6z" />
    <glyph glyph-name="idieresis" unicode="&#xef;" horiz-adv-x="559" 
d="M312 -4q-44 0 -68 4v930h-131q-4 20 -4 57t4 57h266v-1044q-23 -4 -67 -4zM389 1342q0 44 6 88q39 6 82 6t84 -6q6 -44 6 -88t-6 -87q-41 -6 -84 -6t-82 6q-6 43 -6 87zM-2 1342q0 44 6 88q39 6 82 6t84 -6q6 -44 6 -88t-6 -87q-41 -6 -84 -6t-82 6q-6 43 -6 87z" />
    <glyph glyph-name="eth" unicode="&#xf0;" horiz-adv-x="1204" 
d="M274 494q0 -186 80 -290t249 -104t248 104t79 290q0 378 -328 378q-152 0 -240 -96t-88 -282zM332 1395q-2 10 -2 49t14 65q207 -23 354 -112l193 114q23 -16 39 -44t28 -50l-159 -94q285 -260 285 -767q0 -262 -118 -422q-116 -160 -358 -159q-242 0 -364 139
q-123 139 -123 370t120 374t343 141q76 -1 156 -23t132 -67q19 -19 39 -41q-35 140 -97 236t-128 149l-213 -129q-35 32 -61 97l166 100q-80 42 -246 74z" />
    <glyph glyph-name="ntilde" unicode="&#xf1;" horiz-adv-x="1171" 
d="M248 -4q-44 0 -68 4v1044q40 5 67 5t56 -5q8 -74 8 -188q76 140 232 194q57 19 125 19q344 0 344 -410v-659q-24 -4 -68 -4t-67 4v618q-1 174 -55 250t-163 76q-148 0 -246 -114t-98 -314v-516q-23 -4 -67 -4zM424 1448q70 0 166 -52q37 -20 74 -36t88 -16t125 65
q33 -47 49 -98q-84 -90 -167 -89t-174 53q-36 19 -73 35t-79 17q-43 0 -71 -16t-67 -49q-35 47 -49 94q81 92 178 92z" />
    <glyph glyph-name="ograve" unicode="&#xf2;" horiz-adv-x="1175" 
d="M588 -25q-117 0 -205 42t-146 116t-87 174t-29 215t29 215t87 174t146 116t205 42t204 -42t145 -116t88 -174t30 -215t-30 -215t-88 -174t-145 -116t-204 -42zM588 94q164 0 245 115t81 313t-81 314q-81 114 -245 114t-245 -114t-81 -314t81 -314t245 -114zM402 1485h60
q24 0 46 -4l240 -267q-37 -6 -76 -6t-76 6l-277 267q46 4 83 4z" />
    <glyph glyph-name="oacute" unicode="&#xf3;" horiz-adv-x="1175" 
d="M588 -25q-117 0 -205 42t-146 116t-87 174t-29 215t29 215t87 174t146 116t205 42t204 -42t145 -116t88 -174t30 -215t-30 -215t-88 -174t-145 -116t-204 -42zM588 94q164 0 245 115t81 313t-81 314q-81 114 -245 114t-245 -114t-81 -314t81 -314t245 -114zM489 1208
q-39 0 -75 6l239 267q23 4 47 4h45q53 0 97 -4l-277 -267q-37 -6 -76 -6z" />
    <glyph glyph-name="ocircumflex" unicode="&#xf4;" horiz-adv-x="1175" 
d="M588 -25q-117 0 -205 42t-146 116t-87 174t-29 215t29 215t87 174t146 116t205 42t204 -42t145 -116t88 -174t30 -215t-30 -215t-88 -174t-145 -116t-204 -42zM588 94q164 0 245 115t81 313t-81 314q-81 114 -245 114t-245 -114t-81 -314t81 -314t245 -114zM915 1214
q-35 -6 -81 -6t-76 6l-170 189l-170 -189q-35 -6 -80 -6t-78 6l240 265q30 6 89 6t89 -6z" />
    <glyph glyph-name="otilde" unicode="&#xf5;" horiz-adv-x="1175" 
d="M588 -25q-117 0 -205 42t-146 116t-87 174t-29 215t29 215t87 174t146 116t205 42t204 -42t145 -116t88 -174t30 -215t-30 -215t-88 -174t-145 -116t-204 -42zM588 94q164 0 245 115t81 313t-81 314q-81 114 -245 114t-245 -114t-81 -314t81 -314t245 -114zM426 1448
q70 0 166 -52q37 -20 74 -36t88 -16t125 65q33 -47 49 -98q-84 -90 -178 -88q-69 0 -163 52q-36 19 -73 35t-79 17q-43 0 -71 -16t-67 -49q-35 47 -49 94q81 92 178 92z" />
    <glyph glyph-name="odieresis" unicode="&#xf6;" horiz-adv-x="1175" 
d="M588 -25q-117 0 -205 42t-146 116t-87 174t-29 215t29 215t87 174t146 116t205 42t204 -42t145 -116t88 -174t30 -215t-30 -215t-88 -174t-145 -116t-204 -42zM588 94q164 0 245 115t81 313t-81 314q-81 114 -245 114t-245 -114t-81 -314t81 -314t245 -114zM694 1342
q0 44 6 88q39 6 82 6t84 -6q6 -44 6 -88t-6 -87q-41 -6 -84 -6t-82 6q-6 43 -6 87zM303 1342q0 44 6 88q39 6 82 6t84 -6q6 -44 6 -88t-6 -87q-41 -6 -84 -6t-82 6q-6 43 -6 87z" />
    <glyph glyph-name="divide" unicode="&#xf7;" 
d="M1055 722q0 -49 -4 -71h-873q-4 20 -4 70t4 70h873q4 -20 4 -69zM485 386q0 50 34 86t84 36t86 -36t36 -86t-36 -84t-86 -34t-84 34t-34 84zM485 1058q0 50 34 86t84 36t86 -36t36 -86t-36 -84t-86 -34t-84 34t-34 84z" />
    <glyph glyph-name="oslash" unicode="&#xf8;" horiz-adv-x="1175" 
d="M588 94q164 0 245 115t80 313q0 147 -47 252l-479 -612q76 -68 201 -68zM262 534q0 -188 62 -294l487 620q-88 92 -223 90q-164 0 -245 -114t-81 -302zM238 131q-117 147 -117 389q0 243 120 396t347 153q182 0 301 -108l65 83q62 15 125 0l-125 -157q100 -147 100 -375
t-120 -383q-121 -154 -346 -154q-168 0 -279 86l-49 -61q-30 -6 -64 -6t-61 6z" />
    <glyph glyph-name="ugrave" unicode="&#xf9;" horiz-adv-x="1177" 
d="M244 1049q43 0 63 -5v-587q0 -211 82 -286t235 -76t238 26v923q30 5 73 5t62 -5v-1017q-316 -83 -541 -33q-175 37 -247 215q-37 92 -37 240v595q29 5 72 5zM382 1485h59q24 0 46 -4l240 -267q-37 -6 -76 -6t-76 6l-276 267q47 4 83 4z" />
    <glyph glyph-name="uacute" unicode="&#xfa;" horiz-adv-x="1177" 
d="M244 1049q43 0 63 -5v-587q0 -211 82 -286t235 -76t238 26v923q30 5 73 5t62 -5v-1017q-316 -83 -541 -33q-175 37 -247 215q-37 92 -37 240v595q29 5 72 5zM540 1208q-39 0 -75 6l240 267q23 4 47 4h45q52 0 96 -4l-277 -267q-37 -6 -76 -6z" />
    <glyph glyph-name="ucircumflex" unicode="&#xfb;" horiz-adv-x="1177" 
d="M244 1049q43 0 63 -5v-587q0 -211 82 -286t235 -76t238 26v923q30 5 73 5t62 -5v-1017q-316 -83 -541 -33q-175 37 -247 215q-37 92 -37 240v595q29 5 72 5zM915 1214q-35 -6 -81 -6t-76 6l-170 189l-170 -189q-35 -6 -80 -6t-78 6l240 265q30 6 89 6t89 -6z" />
    <glyph glyph-name="udieresis" unicode="&#xfc;" horiz-adv-x="1177" 
d="M244 1049q43 0 63 -5v-587q0 -211 82 -286t235 -76t238 26v923q30 5 73 5t62 -5v-1017q-316 -83 -541 -33q-175 37 -247 215q-37 92 -37 240v595q29 5 72 5zM705 1342q0 44 6 88q39 6 82 6t84 -6q6 -44 6 -88t-6 -87q-41 -6 -84 -6t-82 6q-6 43 -6 87zM313 1342
q0 44 6 88q39 6 82 6t84 -6q13 -94 0 -175q-41 -6 -84 -6t-82 6q-6 43 -6 87z" />
    <glyph glyph-name="yacute" unicode="&#xfd;" horiz-adv-x="1054" 
d="M280 -393q64 1 100 29t62 106l84 254h-39q-55 0 -77 4l-377 1044q30 5 83 5t72 -5l347 -1015l339 1015q30 5 74 5t66 -5l-459 -1353q-66 -203 -258 -203q-86 0 -166 25q0 63 31 114q54 -20 118 -20zM456 1208q-38 0 -75 6l240 267q23 4 47 4h45q52 0 96 -4l-277 -267
q-38 -6 -76 -6z" />
    <glyph glyph-name="thorn" unicode="&#xfe;" horiz-adv-x="1206" 
d="M938 547q0 401 -299 401q-205 0 -292 -177q-32 -65 -32 -163v-475q97 -37 204 -37q201 0 310 113t109 338zM248 1509q44 0 67 -4v-604q43 66 124 117t193 51q218 1 335 -129q116 -130 115 -394t-146 -417q-145 -154 -410 -154q-112 0 -211 33v-491q-23 -4 -67 -4t-68 4
v1988q24 4 68 4z" />
    <glyph glyph-name="ydieresis" unicode="&#xff;" horiz-adv-x="1054" 
d="M280 -393q64 1 100 29t62 106l84 254h-39q-55 0 -77 4l-377 1044q30 5 83 5t72 -5l347 -1015l339 1015q30 5 74 5t66 -5l-459 -1353q-66 -203 -258 -203q-86 0 -166 25q0 63 31 114q54 -20 118 -20zM633 1342q0 44 6 88q39 6 82 6t84 -6q6 -44 6 -88t-6 -87
q-41 -6 -84 -6t-82 6q-6 43 -6 87zM242 1342q0 44 6 88q39 6 82 6t84 -6q6 -44 6 -88t-6 -87q-41 -6 -84 -6t-82 6q-6 43 -6 87z" />
    <glyph glyph-name="Amacron" unicode="&#x100;" horiz-adv-x="1232" 
d="M877 506l-265 819l-260 -819h525zM1192 0q-24 -4 -73 -4t-79 4l-122 375h-607l-116 -375q-32 -4 -81 -4t-73 4l491 1473q28 4 85 4t83 -4zM942 1692q0 -38 -4 -56h-643q-4 16 -4 54t4 59h643q4 -19 4 -57z" />
    <glyph glyph-name="amacron" unicode="&#x101;" horiz-adv-x="1050" 
d="M540 641q93 0 216 -14v63q0 260 -252 260q-149 0 -271 -39q-24 43 -24 119q129 39 310 39q372 0 372 -360v-691q-212 -41 -386 -42q-173 -1 -283 75t-109 246q0 82 31 146q97 198 396 198zM248 301q0 -207 277 -207q118 0 231 23v391q-123 14 -187 14q-153 0 -237 -57
t-84 -164zM807 1346q0 -38 -4 -56h-561q-4 16 -4 54t4 59h561q4 -19 4 -57z" />
    <glyph glyph-name="Abreve" unicode="&#x102;" horiz-adv-x="1232" 
d="M877 506l-265 819l-260 -819h525zM1192 0q-24 -4 -73 -4t-79 4l-122 375h-607l-116 -375q-32 -4 -81 -4t-73 4l491 1473q28 4 85 4t83 -4zM416 1631q-115 61 -129 190q33 6 67 6t70 -6q8 -53 52 -90t140 -37t141 37q44 37 52 90q33 6 71 6t66 -6q-14 -129 -129 -190
q-87 -46 -200 -46q-114 0 -201 46z" />
    <glyph glyph-name="abreve" unicode="&#x103;" horiz-adv-x="1050" 
d="M540 641q93 0 216 -14v63q0 260 -252 260q-149 0 -271 -39q-24 43 -24 119q129 39 310 39q372 0 372 -360v-691q-212 -41 -386 -42q-173 -1 -283 75t-109 246q0 82 31 146q97 198 396 198zM248 301q0 -207 277 -207q118 0 231 23v391q-123 14 -187 14q-153 0 -237 -57
t-84 -164zM541 1208q-180 0 -277 134q-37 52 -49 137q31 6 69 6t72 -6q9 -72 41 -103q59 -57 145 -57q87 0 130 44t53 116q33 6 72 6t69 -6q-21 -149 -133 -218q-83 -53 -192 -53z" />
    <glyph glyph-name="Aogonek" unicode="&#x104;" horiz-adv-x="1232" 
d="M877 506l-265 819l-260 -819h525zM874 -301q0 43 17 102t64 114q47 56 85 85l-122 375h-607l-116 -375q-32 -4 -81 -4t-73 4l491 1473q28 4 85 4t83 -4l492 -1473q-47 -25 -93 -82q-81 -103 -81 -168q0 -129 137 -129q63 0 111 17q18 -46 24 -113q-64 -19 -138 -20
q-192 -2 -256 112q-22 39 -22 82z" />
    <glyph glyph-name="aogonek" unicode="&#x105;" horiz-adv-x="1050" 
d="M248 301q0 -207 277 -207q118 0 231 23v391q-123 14 -187 14q-153 0 -237 -57t-84 -164zM540 641q93 0 216 -14v63q0 260 -252 260q-149 0 -271 -39q-24 43 -24 119q129 39 310 39q372 0 372 -360v-691l-39 -10q-96 -25 -155 -107q-60 -82 -60 -149q0 -135 133 -135
q57 0 107 16q16 -41 22 -108q-58 -19 -128 -20q-185 -3 -249 112q-20 39 -20 96t35 133t100 136q-59 -6 -115 -7q-190 0 -300 76t-109 246q0 82 31 146q97 198 396 198z" />
    <glyph glyph-name="Cacute" unicode="&#x106;" horiz-adv-x="1265" 
d="M803 -25q-305 0 -489 196q-183 196 -183 555t181 565t491 206q193 0 340 -49q-7 -61 -33 -121q-114 34 -179 39q-65 6 -156 6t-187 -44t-164 -128q-143 -177 -142 -481t150 -460q149 -157 385 -157q186 0 307 66q38 -74 47 -119q-144 -72 -368 -74zM690 1587q-43 0 -80 6
l228 228q45 6 97 6t99 -6l-264 -228q-37 -6 -80 -6z" />
    <glyph glyph-name="cacute" unicode="&#x107;" horiz-adv-x="983" 
d="M254 116q-133 140 -133 392t132 406q132 155 376 155q159 0 260 -37q0 -63 -23 -117q-102 35 -216 35q-293 0 -365 -256q-23 -78 -23 -172q0 -221 106 -324t285 -104q115 0 219 37q20 -41 33 -113q-117 -41 -262 -43q-256 1 -389 141zM524 1208q-39 0 -75 6l239 267
q22 4 46 4h46q51 0 97 -4l-277 -267q-37 -6 -76 -6z" />
    <glyph glyph-name="Ccircumflex" unicode="&#x108;" horiz-adv-x="1265" 
d="M803 -25q-305 0 -489 196q-183 196 -183 555t181 565t491 206q193 0 340 -49q-7 -61 -33 -121q-114 34 -179 39q-65 6 -156 6t-187 -44t-164 -128q-143 -177 -142 -481t150 -460q149 -157 385 -157q186 0 307 66q38 -74 47 -119q-144 -72 -368 -74zM1114 1593
q-27 -6 -78 -6q-52 0 -88 6l-162 144l-163 -144q-49 -6 -95 -6t-75 6l258 228q37 6 73 6t78 -6z" />
    <glyph glyph-name="ccircumflex" unicode="&#x109;" horiz-adv-x="983" 
d="M254 116q-133 140 -133 392t132 406q132 155 376 155q159 0 260 -37q0 -63 -23 -117q-102 35 -216 35q-293 0 -365 -256q-23 -78 -23 -172q0 -221 106 -324t285 -104q115 0 219 37q20 -41 33 -113q-117 -41 -262 -43q-256 1 -389 141zM928 1214q-36 -6 -82 -6t-76 6
l-170 189l-170 -189q-34 -6 -80 -6q-45 0 -78 6l240 265q30 6 89 6t89 -6z" />
    <glyph glyph-name="Cdotaccent" unicode="&#x10a;" horiz-adv-x="1265" 
d="M803 -25q-305 0 -489 196q-183 196 -183 555t181 565t491 206q193 0 340 -49q-7 -61 -33 -121q-114 34 -179 39q-65 6 -156 6t-187 -44t-164 -128q-143 -177 -142 -481t150 -460q149 -157 385 -157q186 0 307 66q38 -74 47 -119q-144 -72 -368 -74zM702 1616q-8 42 -8 92
t8 94q41 8 92 8t95 -8q8 -42 8 -92t-8 -94q-41 -8 -91 -8t-96 8z" />
    <glyph glyph-name="cdotaccent" unicode="&#x10b;" horiz-adv-x="983" 
d="M254 116q-133 140 -133 392t132 406q132 155 376 155q159 0 260 -37q0 -63 -23 -117q-102 35 -216 35q-293 0 -365 -256q-23 -78 -23 -172q0 -221 106 -324t285 -104q115 0 219 37q20 -41 33 -113q-117 -41 -262 -43q-256 1 -389 141zM518 1249q-8 41 -8 92t8 95
q41 8 91 8t96 -8q8 -41 8 -92t-8 -95q-41 -8 -91 -8t-96 8z" />
    <glyph glyph-name="Ccaron" unicode="&#x10c;" horiz-adv-x="1265" 
d="M803 -25q-305 0 -489 196q-183 196 -183 555t181 565t491 206q193 0 340 -49q-7 -61 -33 -121q-114 34 -179 39q-65 6 -156 6t-187 -44t-164 -128q-143 -177 -142 -481t150 -460q149 -157 385 -157q186 0 307 66q38 -74 47 -119q-144 -72 -368 -74zM479 1821q27 6 78 6
q52 0 88 -6l162 -144l164 144q49 6 95 6t75 -6l-258 -228q-37 -6 -75 -6t-77 6z" />
    <glyph glyph-name="ccaron" unicode="&#x10d;" horiz-adv-x="983" 
d="M254 116q-133 140 -133 392t132 406q132 155 376 155q159 0 260 -37q0 -63 -23 -117q-102 35 -216 35q-293 0 -365 -256q-23 -78 -23 -172q0 -221 106 -324t285 -104q115 0 219 37q20 -41 33 -113q-117 -41 -262 -43q-256 1 -389 141zM299 1479q33 6 81 6t77 -6l170 -189
l170 189q35 6 79 6t78 -6l-239 -265q-30 -6 -89 -6t-89 6z" />
    <glyph glyph-name="Dcaron" unicode="&#x10e;" horiz-adv-x="1431" 
d="M1153 745q0 317 -163 465t-451 150q-133 0 -191 -10v-1227q112 -12 222 -12q110 1 224 31q359 96 359 603zM553 1495q372 0 560 -196q187 -196 187 -560q0 -764 -753 -764q-178 0 -340 25v1473q159 22 346 22zM264 1821q27 6 79 6t87 -6l162 -144l164 144q49 6 95 6
t75 -6l-258 -228q-37 -6 -75 -6t-77 6z" />
    <glyph glyph-name="dcaron" unicode="&#x10f;" horiz-adv-x="1275" 
d="M268 504q0 -406 389 -408q144 0 226 25v784q-110 43 -221 43t-182 -33q-212 -99 -212 -411zM951 1509q44 0 67 -4v-1480q-151 -48 -309 -49t-256 26q-203 56 -284 250q-42 100 -42 242q0 270 141 425q140 150 373 150q141 0 242 -37v473q24 4 68 4zM1247 1509q43 0 76 -4
l-14 -413q-69 -12 -129 0v413q24 4 67 4z" />
    <glyph glyph-name="Dcroat" unicode="&#x110;" horiz-adv-x="1462" 
d="M379 799h366q5 -25 5 -61t-5 -52h-366v-563q111 -12 221 -12q110 1 224 31q360 96 360 603q0 317 -163 465t-452 150q-132 0 -190 -10v-551zM43 740q0 38 4 59h191v674q159 22 346 22q370 0 559 -196q188 -196 188 -560q0 -764 -753 -764q-178 0 -340 25v686h-191
q-4 16 -4 54z" />
    <glyph glyph-name="dcroat" unicode="&#x111;" horiz-adv-x="1222" 
d="M268 504q0 -406 389 -408q144 0 226 25v784q-110 43 -221 43t-182 -33q-212 -99 -212 -411zM654 1069q128 0 229 -37v172h-324q-4 16 -4 54t4 59h324v188q24 4 68 4t67 -4v-188h170q4 -19 4 -57t-4 -56h-170v-1179q-151 -48 -309 -49t-256 26q-203 56 -284 250
q-42 100 -42 242q0 270 141 425q140 150 386 150z" />
    <glyph glyph-name="Emacron" unicode="&#x112;" horiz-adv-x="1105" 
d="M1018 66q0 -40 -4 -66h-807v1473h788q4 -24 4 -64t-4 -66h-647v-497h520q4 -24 4 -64t-4 -65h-520v-588h666q4 -23 4 -63zM920 1688q0 -36 -5 -52h-643q-4 16 -4 54t4 59h643q5 -25 5 -61z" />
    <glyph glyph-name="emacron" unicode="&#x113;" horiz-adv-x="1132" 
d="M881 614q0 225 -158 308q-55 29 -133 28q-143 0 -223 -88t-97 -248h611zM1016 621q0 -79 -4 -119h-746q0 -209 96 -307t289 -99q135 0 275 49q19 -43 24 -114q-118 -54 -283 -55t-263 39q-282 115 -281 501q0 238 115 395q115 158 352 158q201 0 316 -132q54 -61 82 -149
t28 -167zM864 1346q0 -38 -4 -56h-561q-4 16 -4 54t4 59h561q4 -19 4 -57z" />
    <glyph glyph-name="Ebreve" unicode="&#x114;" horiz-adv-x="1105" 
d="M1018 66q0 -40 -4 -66h-807v1473h788q4 -24 4 -64t-4 -66h-647v-497h520q4 -24 4 -64t-4 -65h-520v-588h666q4 -23 4 -63zM410 1631q-115 61 -129 190q33 6 67 6t70 -6q8 -53 52 -90t140 -37t141 37q44 37 52 90q33 6 71 6t66 -6q-14 -129 -129 -190q-87 -46 -201 -46
t-200 46z" />
    <glyph glyph-name="ebreve" unicode="&#x115;" horiz-adv-x="1132" 
d="M881 614q0 225 -158 308q-55 29 -133 28q-143 0 -223 -88t-97 -248h611zM1016 621q0 -79 -4 -119h-746q0 -209 96 -307t289 -99q135 0 275 49q19 -43 24 -114q-118 -54 -283 -55t-263 39q-282 115 -281 501q0 238 115 395q115 158 352 158q201 0 316 -132q54 -61 82 -149
t28 -167zM588 1208q-180 0 -277 134q-37 52 -49 137q31 6 69 6t72 -6q9 -72 41 -103q59 -57 145 -57q87 0 130 44t53 116q33 6 72 6t69 -6q-21 -149 -133 -218q-83 -53 -192 -53z" />
    <glyph glyph-name="Edotaccent" unicode="&#x116;" horiz-adv-x="1105" 
d="M1018 66q0 -40 -4 -66h-807v1473h788q4 -24 4 -64t-4 -66h-647v-497h520q4 -24 4 -64t-4 -65h-520v-588h666q4 -23 4 -63zM518 1616q-8 42 -8 92t8 94q41 8 91 8t96 -8q8 -42 8 -92t-8 -94q-41 -8 -91 -8t-96 8z" />
    <glyph glyph-name="edotaccent" unicode="&#x117;" horiz-adv-x="1132" 
d="M881 614q0 225 -158 308q-55 29 -133 28q-143 0 -223 -88t-97 -248h611zM1016 621q0 -79 -4 -119h-746q0 -209 96 -307t289 -99q135 0 275 49q19 -43 24 -114q-118 -54 -283 -55t-263 39q-282 115 -281 501q0 238 115 395q115 158 352 158q201 0 316 -132q54 -61 82 -149
t28 -167zM504 1249q-8 41 -8 92t8 95q41 8 92 8t94 -8q8 -41 8 -92t-8 -95q-40 -8 -90 -8t-96 8z" />
    <glyph glyph-name="Eogonek" unicode="&#x118;" horiz-adv-x="1105" 
d="M600 -301q0 43 16 101t64 115q47 56 86 85h-559v1473h788q4 -24 4 -64t-4 -66h-647v-497h520q4 -24 4 -64t-4 -65h-520v-588h666q4 -23 4 -63t-4 -66h-107q-67 -53 -115 -125t-48 -131q-1 -123 137 -123q64 0 110 17q20 -49 25 -113q-64 -19 -138 -20q-193 -2 -256 112
q-22 39 -22 82z" />
    <glyph glyph-name="eogonek" unicode="&#x119;" horiz-adv-x="1132" 
d="M881 614q0 225 -158 308q-55 29 -133 28q-143 0 -223 -88t-97 -248h611zM1016 621q0 -79 -4 -119h-746q0 -209 96 -307t289 -99q135 0 275 49q19 -43 24 -112l-41 -15q-61 -22 -125 -77q-38 -37 -66 -93t-28 -110q0 -53 33 -87t95 -34t112 16q16 -41 22 -108
q-58 -19 -128 -20q-185 -3 -249 112q-20 39 -20 95t34 131t95 134q-10 -2 -22 -2h-25q-261 0 -388 147q-126 147 -126 389t115 400t352 158q201 0 316 -132q54 -61 82 -149t28 -167z" />
    <glyph glyph-name="Ecaron" unicode="&#x11a;" horiz-adv-x="1105" 
d="M1018 66q0 -40 -4 -66h-807v1473h788q4 -24 4 -64t-4 -66h-647v-497h520q4 -24 4 -64t-4 -65h-520v-588h666q4 -23 4 -63zM297 1821q27 6 79 6t87 -6l162 -144l163 144q49 6 94 6t76 -6l-258 -228q-36 -6 -74 -6t-77 6z" />
    <glyph glyph-name="ecaron" unicode="&#x11b;" horiz-adv-x="1132" 
d="M881 614q0 225 -158 308q-55 29 -133 28q-143 0 -223 -88t-97 -248h611zM1016 621q0 -79 -4 -119h-746q0 -209 96 -307t289 -99q135 0 275 49q19 -43 24 -114q-118 -54 -283 -55t-263 39q-282 115 -281 501q0 238 115 395q115 158 352 158q201 0 316 -132q54 -61 82 -149
t28 -167zM262 1479q32 6 80 6t78 -6l170 -189l170 189q34 6 79 6q44 0 79 -6l-240 -265q-30 -6 -89 -6t-89 6z" />
    <glyph glyph-name="Gcircumflex" unicode="&#x11c;" horiz-adv-x="1413" 
d="M1162 764q41 0 71 -4v-717q-122 -63 -410 -68q-308 0 -499 195t-191 555q0 359 191 566q191 206 487 206q195 0 354 -51q-7 -64 -32 -125q-143 51 -287 51q-399 0 -521 -377q-40 -121 -40 -277q0 -299 153 -455q153 -157 391 -157q174 0 263 31v623q28 4 70 4zM1141 1593
q-27 -6 -78 -6q-52 0 -88 6l-162 144l-164 -144q-49 -6 -95 -6t-75 6l258 228q37 6 74 6t78 -6z" />
    <glyph glyph-name="gcircumflex" unicode="&#x11d;" horiz-adv-x="1097" 
d="M276 705q0 -105 62 -179t196 -74t197 74q63 72 63 178t-62 180q-64 72 -197 72t-196 -72t-63 -179zM215 -221q0 -166 291 -166q190 0 297 64q106 65 106 149t-53 117t-174 34l-254 5q-96 2 -154 -54t-59 -149zM276 215q0 -106 177 -106l266 -5q180 -4 257 -74t77 -188
q0 -158 -156 -255t-395 -97q-420 0 -420 272q0 78 45 150t117 106q-94 60 -93 148t38 141q38 53 102 96q-158 99 -158 302q0 159 107 262q107 102 278 102q172 0 281 -78q133 53 270 53q8 -30 8 -68t-8 -69h-195q60 -93 60 -192q0 -98 -31 -166q-61 -134 -212 -184
q-73 -25 -159 -25t-151 22q-57 -36 -81 -70t-24 -77zM866 1214q-35 -6 -81 -6t-76 6l-170 189l-170 -189q-35 -6 -80 -6t-78 6l240 265q30 6 89 6t89 -6z" />
    <glyph glyph-name="Gbreve" unicode="&#x11e;" horiz-adv-x="1413" 
d="M1162 764q41 0 71 -4v-717q-122 -63 -410 -68q-308 0 -499 195t-191 555q0 359 191 566q191 206 487 206q195 0 354 -51q-7 -64 -32 -125q-143 51 -287 51q-399 0 -521 -377q-40 -121 -40 -277q0 -299 153 -455q153 -157 391 -157q174 0 263 31v623q28 4 70 4zM584 1631
q-115 61 -129 190q33 6 67 6t70 -6q8 -53 52 -90t140 -37t141 37q44 37 52 90q33 6 71 6t66 -6q-14 -129 -129 -190q-87 -46 -201 -46t-200 46z" />
    <glyph glyph-name="gbreve" unicode="&#x11f;" horiz-adv-x="1097" 
d="M276 705q0 -105 62 -179t196 -74t197 74q63 72 63 178t-62 180q-64 72 -197 72t-196 -72t-63 -179zM215 -221q0 -166 291 -166q190 0 297 64q106 65 106 149t-53 117t-174 34l-254 5q-96 2 -154 -54t-59 -149zM276 215q0 -106 177 -106l266 -5q180 -4 257 -74t77 -188
q0 -158 -156 -255t-395 -97q-420 0 -420 272q0 78 45 150t117 106q-94 60 -93 148t38 141q38 53 102 96q-158 99 -158 302q0 159 107 262q107 102 278 102q172 0 281 -78q133 53 270 53q8 -30 8 -68t-8 -69h-195q60 -93 60 -192q0 -98 -31 -166q-61 -134 -212 -184
q-73 -25 -159 -25t-151 22q-57 -36 -81 -70t-24 -77zM545 1208q-180 0 -277 134q-37 52 -49 137q31 6 69 6t72 -6q9 -72 41 -103q59 -57 145 -57q87 0 130 44t53 116q33 6 72 6t69 -6q-21 -149 -133 -218q-83 -53 -192 -53z" />
    <glyph glyph-name="Gdotaccent" unicode="&#x120;" horiz-adv-x="1413" 
d="M1162 764q41 0 71 -4v-717q-122 -63 -410 -68q-308 0 -499 195t-191 555q0 359 191 566q191 206 487 206q195 0 354 -51q-7 -64 -32 -125q-143 51 -287 51q-399 0 -521 -377q-40 -121 -40 -277q0 -299 153 -455q153 -157 391 -157q174 0 263 31v623q28 4 70 4zM719 1616
q-8 42 -8 92t8 94q41 8 91 8t95 -8q8 -42 8 -92t-8 -94q-41 -8 -91 -8q-49 0 -95 8z" />
    <glyph glyph-name="gdotaccent" unicode="&#x121;" horiz-adv-x="1097" 
d="M276 705q0 -105 62 -179t196 -74t197 74q63 72 63 178t-62 180q-64 72 -197 72t-196 -72t-63 -179zM215 -221q0 -166 291 -166q190 0 297 64q106 65 106 149t-53 117t-174 34l-254 5q-96 2 -154 -54t-59 -149zM276 215q0 -106 177 -106l266 -5q180 -4 257 -74t77 -188
q0 -158 -156 -255t-395 -97q-420 0 -420 272q0 78 45 150t117 106q-94 60 -93 148t38 141q38 53 102 96q-158 99 -158 302q0 159 107 262q107 102 278 102q172 0 281 -78q133 53 270 53q8 -30 8 -68t-8 -69h-195q60 -93 60 -192q0 -98 -31 -166q-61 -134 -212 -184
q-73 -25 -159 -25t-151 22q-57 -36 -81 -70t-24 -77zM438 1249q-8 41 -8 92t8 95q41 8 92 8t95 -8q8 -41 8 -92t-8 -95q-41 -8 -91 -8t-96 8z" />
    <glyph glyph-name="Gcommaaccent" unicode="&#x122;" horiz-adv-x="1413" 
d="M1162 764q41 0 71 -4v-717q-122 -63 -410 -68q-308 0 -499 195t-191 555q0 359 191 566q191 206 487 206q195 0 354 -51q-7 -64 -32 -125q-143 51 -287 51q-399 0 -521 -377q-40 -121 -40 -277q0 -299 153 -455q153 -157 391 -157q174 0 263 31v623q28 4 70 4zM765 -498
q-34 0 -67 6l95 361q24 6 74 6t85 -6l-118 -361q-35 -6 -69 -6z" />
    <glyph glyph-name="gcommaaccent" unicode="&#x123;" horiz-adv-x="1097" 
d="M276 705q0 -105 62 -179t196 -74t197 74q63 72 63 178t-62 180q-64 72 -197 72t-196 -72t-63 -179zM215 -221q0 -166 291 -166q190 0 297 64q106 65 106 149t-53 117t-174 34l-254 5q-96 2 -154 -54t-59 -149zM276 215q0 -106 177 -106l266 -5q180 -4 257 -74t77 -188
q0 -158 -156 -255t-395 -97q-420 0 -420 272q0 78 45 150t117 106q-94 60 -93 148t38 141q38 53 102 96q-158 99 -158 302q0 159 107 262q107 102 278 102q172 0 281 -78q133 53 270 53q8 -30 8 -68t-8 -69h-195q60 -93 60 -192q0 -98 -31 -166q-61 -134 -212 -184
q-73 -25 -159 -25t-151 22q-57 -36 -81 -70t-24 -77zM521 1176q-36 0 -87 6l164 301q36 4 74 4t80 -4l-154 -301q-41 -6 -77 -6z" />
    <glyph glyph-name="Hcircumflex" unicode="&#x124;" horiz-adv-x="1421" 
d="M277 1477q42 0 71 -4v-627h725v627q28 4 70 4t71 -4v-1473q-24 -4 -68 -4t-73 4v717h-725v-717q-28 -4 -72 -4t-69 4v1473q28 4 70 4zM1040 1593q-27 -6 -78 -6t-88 6l-161 144l-164 -144q-49 -6 -95 -6t-75 6l258 228q37 6 74 6t77 -6z" />
    <glyph glyph-name="hcircumflex" unicode="&#x125;" horiz-adv-x="1171" 
d="M248 1509q44 0 67 -4v-647q45 83 134 147t213 64q350 0 350 -410v-659q-24 -4 -68 -4t-67 4v618q1 174 -57 250t-167 76q-150 0 -244 -109t-94 -309v-526q-23 -4 -67 -4t-68 4v1505q24 4 68 4zM498 1839q37 0 77 -6l252 -227q-12 -3 -64 -5q-52 -3 -101 5l-162 143
l-164 -143q-105 -13 -170 0l258 227q37 6 74 6z" />
    <glyph glyph-name="Hbar" unicode="&#x126;" horiz-adv-x="1482" 
d="M1104 846v252h-725v-252h725zM306 -4q-44 0 -68 4v1098h-191q-4 16 -4 54t4 58h191v263q28 4 69 4t72 -4v-263h725v263q28 4 70 4q41 0 71 -4v-263h191q4 -20 4 -58t-4 -54h-191v-1098q-23 -4 -67 -4t-74 4v717h-725v-717q-29 -4 -73 -4z" />
    <glyph glyph-name="hbar" unicode="&#x127;" horiz-adv-x="1196" 
d="M272 -4q-44 0 -67 4v1204h-170q-4 16 -4 54t4 59h170v188q24 4 68 4t67 -4v-188h324q4 -19 4 -57t-4 -56h-324v-346q76 140 226 193q54 18 120 18q350 0 350 -410v-659q-24 -4 -68 -4t-67 4v618q0 174 -57 250t-166 76q-149 0 -244 -108q-94 -108 -94 -310v-526
q-24 -4 -68 -4z" />
    <glyph glyph-name="Itilde" unicode="&#x128;" horiz-adv-x="555" 
d="M277 1477q42 0 71 -4v-1473q-28 -4 -72 -4t-69 4v1473q28 4 70 4zM453 1620q-60 0 -141 38q-82 38 -122 55q-40 18 -83 18q-43 -1 -72 -19t-64 -49q-35 41 -51 90q92 98 189 96q65 0 145 -40t122 -57t83 -17t69 17t64 52q30 -42 51 -94q-96 -90 -190 -90z" />
    <glyph glyph-name="itilde" unicode="&#x129;" horiz-adv-x="559" 
d="M312 -4q-44 0 -68 4v930h-131q-4 20 -4 57t4 57h266v-1044q-23 -4 -67 -4zM121 1448q70 0 166 -52q37 -20 73 -36t89 -16q52 0 124 65q33 -47 50 -98q-84 -90 -179 -88q-71 0 -162 52q-36 19 -73 35t-79 17q-42 0 -70 -16t-68 -49q-35 47 -49 94q81 92 178 92z" />
    <glyph glyph-name="Imacron" unicode="&#x12a;" horiz-adv-x="555" 
d="M277 1477q42 0 71 -4v-1473q-28 -4 -72 -4t-69 4v1473q28 4 70 4zM606 1692q0 -38 -4 -56h-643q-4 16 -4 54t4 59h643q4 -19 4 -57z" />
    <glyph glyph-name="imacron" unicode="&#x12b;" horiz-adv-x="559" 
d="M312 -4q-44 0 -68 4v930h-131q-4 20 -4 57t4 57h266v-1044q-23 -4 -67 -4zM567 1346q0 -38 -4 -56h-561q-4 16 -4 54t4 59h561q4 -19 4 -57z" />
    <glyph glyph-name="Ibreve" unicode="&#x12c;" horiz-adv-x="555" 
d="M277 1477q42 0 71 -4v-1473q-28 -4 -72 -4t-69 4v1473q28 4 70 4zM80 1631q-115 61 -129 190q33 6 67 6t70 -6q8 -53 52 -90t140 -37t141 37q44 37 52 90q33 6 72 6t65 -6q-14 -129 -129 -190q-87 -46 -201 -46q-113 0 -200 46z" />
    <glyph glyph-name="ibreve" unicode="&#x12d;" horiz-adv-x="559" 
d="M312 -4q-44 0 -68 4v930h-131q-4 20 -4 57t4 57h266v-1044q-23 -4 -67 -4zM283 1208q-180 0 -277 134q-37 52 -49 137q31 6 69 6t72 -6q14 -111 105 -147q33 -13 80 -13t79 13q90 36 105 147q33 6 72 6t69 -6q-21 -149 -133 -218q-83 -53 -192 -53z" />
    <glyph glyph-name="Iogonek" unicode="&#x12e;" horiz-adv-x="555" 
d="M277 1477q42 0 71 -4v-1473q-68 -53 -116 -125t-48 -131q0 -123 138 -123q64 0 110 17q20 -49 25 -113q-64 -19 -138 -20q-191 -2 -257 112q-38 66 -13 154q40 141 158 229v1473q28 4 70 4z" />
    <glyph glyph-name="iogonek" unicode="&#x12f;" horiz-adv-x="559" 
d="M199 1473q33 4 79 4t78 -4q4 -32 4 -79t-4 -79q-32 -4 -78 -4t-79 4q-4 32 -4 79t4 79zM86 -301q0 126 91 235q30 37 67 66v930h-131q-4 20 -4 57t4 57h266v-1044q-61 -51 -109 -123t-49 -132q0 -60 33 -94t95 -34t112 16q16 -41 22 -108q-58 -19 -128 -20
q-185 -3 -249 112q-20 39 -20 82z" />
    <glyph glyph-name="Idotaccent" unicode="&#x130;" horiz-adv-x="555" 
d="M277 1477q42 0 71 -4v-1473q-28 -4 -72 -4t-69 4v1473q28 4 70 4zM188 1616q-8 42 -8 92t8 94q41 8 92 8t95 -8q8 -42 8 -92t-8 -94q-41 -8 -91 -8t-96 8z" />
    <glyph glyph-name="dotlessi" unicode="&#x131;" horiz-adv-x="559" 
d="M312 -4q-44 0 -68 4v930h-131q-4 20 -4 57t4 57h266v-1044q-23 -4 -67 -4z" />
    <glyph glyph-name="IJ" unicode="&#x132;" horiz-adv-x="1329" 
d="M277 1477q42 0 71 -4v-1473q-28 -4 -72 -4t-69 4v1473q28 4 70 4zM993 311v1037h-270q-4 20 -4 62t4 63h410v-1180q0 -168 -106 -250q-85 -66 -208 -67t-217 26q6 57 35 125q179 -53 283 13q73 49 73 171z" />
    <glyph glyph-name="ij" unicode="&#x133;" horiz-adv-x="1128" 
d="M176 1300q-4 36 -4 88t4 85q36 4 88 4t84 -4q4 -31 4 -83t-4 -90q-32 -4 -84 -4t-88 4zM312 -4q-44 0 -68 4v930h-131q-4 20 -4 57t4 57h266v-1044q-23 -4 -67 -4zM745 1300q-4 36 -4 88t4 85q36 4 89 4q52 0 84 -4q4 -31 4 -83t-4 -90q-32 -4 -84 -4q-53 0 -89 4z
M948 -88q0 -281 -282 -287q-112 0 -174 29q13 77 30 110q47 -20 93 -20q98 0 133 18q65 34 65 136v1032h-131q-4 20 -4 57t4 57h266v-1132z" />
    <glyph glyph-name="Jcircumflex" unicode="&#x134;" horiz-adv-x="788" 
d="M453 1348h-271q-4 20 -4 62t4 63h410v-1180q0 -168 -106 -250q-85 -66 -208 -67t-217 26q6 57 35 125q179 -53 283 13q72 48 74 171v1037zM735 1593q-27 -6 -79 -6t-87 6l-161 144l-164 -144q-49 -6 -95 -6t-75 6l258 228q37 6 74 6t77 -6z" />
    <glyph glyph-name="jcircumflex" unicode="&#x135;" horiz-adv-x="569" 
d="M389 -88q0 -282 -283 -287q-109 0 -174 29q13 74 31 110q47 -20 119 -20t103 16q67 36 69 138v1032h-131q-4 20 -4 57t4 57h266v-1132zM596 1214q-35 -6 -82 -6t-76 6l-170 189l-170 -189q-35 -6 -80 -6t-77 6l239 265q30 6 89 6t89 -6z" />
    <glyph glyph-name="Kcommaaccent" unicode="&#x136;" horiz-adv-x="1214" 
d="M1194 0q-46 -4 -88 -4t-80 4l-582 754l519 719q32 4 69 4t84 -4l-504 -705zM277 1477q42 0 71 -4v-1473q-28 -4 -72 -4t-69 4v1473q28 4 70 4zM590 -498q-34 0 -66 6l94 361q24 6 75 6t85 -6l-119 -361q-35 -6 -69 -6z" />
    <glyph glyph-name="kcommaaccent" unicode="&#x137;" horiz-adv-x="1028" 
d="M924 -6q-40 0 -84 6l-439 539l375 505q77 14 158 0l-373 -491l440 -553q-37 -6 -77 -6zM248 1509q44 0 67 -4v-1505q-23 -4 -67 -4t-68 4v1505q24 4 68 4zM475 -498q-31 0 -63 6l94 361q33 6 71 6t72 -6l-108 -361q-35 -6 -66 -6z" />
    <glyph glyph-name="kgreenlandic" unicode="&#x138;" horiz-adv-x="1048" 
d="M974 -6q-50 0 -93 6l-480 532l416 512q95 17 164 0l-410 -499l480 -545q-27 -6 -77 -6zM248 1055q44 0 67 -4v-1051q-23 -4 -67 -4t-68 4v1051q24 4 68 4z" />
    <glyph glyph-name="Lacute" unicode="&#x139;" horiz-adv-x="1017" 
d="M275 1477q44 0 73 -4v-1344h629q4 -23 4 -63t-4 -66h-770v1473q24 4 68 4zM252 1587q-43 0 -80 6l227 228q45 6 97 6t100 -6l-264 -228q-37 -6 -80 -6z" />
    <glyph glyph-name="lacute" unicode="&#x13a;" horiz-adv-x="571" 
d="M248 1509q44 0 67 -4v-1263q0 -128 84 -143q23 -3 56 -3t73 10q15 -38 21 -106q-52 -18 -113 -18t-104 9q-149 31 -152 220v1294q24 4 68 4zM194 1587q-43 0 -79 6l227 228q45 6 97 6t100 -6l-265 -228q-37 -6 -80 -6z" />
    <glyph glyph-name="Lcommaaccent" unicode="&#x13b;" horiz-adv-x="1017" 
d="M275 1477q44 0 73 -4v-1344h629q4 -23 4 -63t-4 -66h-770v1473q24 4 68 4zM506 -498q-34 0 -66 6l95 361q24 6 74 6t85 -6l-119 -361q-35 -6 -69 -6z" />
    <glyph glyph-name="lcommaaccent" unicode="&#x13c;" horiz-adv-x="571" 
d="M248 1509q44 0 67 -4v-1263q0 -128 84 -143q23 -3 56 -3t73 10q15 -38 21 -106q-52 -18 -113 -18t-104 9q-149 31 -152 220v1294q24 4 68 4zM305 -498q-31 0 -63 6l94 361q33 6 71 6t72 -6l-108 -361q-35 -6 -66 -6z" />
    <glyph glyph-name="Lcaron" unicode="&#x13d;" horiz-adv-x="1017" 
d="M275 1477q44 0 73 -4v-1344h629q4 -23 4 -63t-4 -66h-770v1473q24 4 68 4zM605 1481q43 0 77 -4l-14 -414q-35 -6 -64 -6t-65 6v414q23 4 66 4z" />
    <glyph glyph-name="lcaron" unicode="&#x13e;" horiz-adv-x="614" 
d="M248 1509q44 0 67 -4v-1263q0 -128 84 -143q23 -3 56 -3t73 10q15 -38 21 -106q-52 -18 -113 -18t-104 9q-149 31 -152 220v1294q24 4 68 4zM570 1509q42 0 77 -4l-14 -413q-69 -12 -129 0v413q24 4 66 4z" />
    <glyph glyph-name="Ldot" unicode="&#x13f;" horiz-adv-x="1017" 
d="M275 1477q44 0 73 -4v-1344h629q4 -23 4 -63t-4 -66h-770v1473q24 4 68 4zM696 804q0 44 6 87q43 6 87 6t88 -6q6 -43 6 -87t-6 -87q-43 -6 -87 -6t-88 6q-6 43 -6 87z" />
    <glyph glyph-name="ldot" unicode="&#x140;" horiz-adv-x="653" 
d="M248 1509q44 0 67 -4v-1263q0 -128 84 -143q23 -3 56 -3t73 10q15 -38 21 -106q-52 -18 -113 -18t-104 9q-149 31 -152 220v1294q24 4 68 4zM581 897q44 0 87 -6q6 -43 6 -87t-6 -87q-43 -6 -87 -6t-87 6q-13 94 0 174q43 6 87 6z" />
    <glyph glyph-name="Lslash" unicode="&#x141;" horiz-adv-x="1017" 
d="M72 469q-11 50 -11 83q0 34 11 64l135 95v762q24 4 68 4t73 -4v-664l273 190q8 -31 8 -71t-8 -78l-273 -188v-533h629q4 -23 4 -63t-4 -66h-770v563z" />
    <glyph glyph-name="lslash" unicode="&#x142;" horiz-adv-x="571" 
d="M248 1509q44 0 67 -4v-592l152 107q8 -31 8 -68t-8 -73l-152 -107v-530q0 -128 84 -143q23 -3 56 -3t73 10q15 -38 21 -106q-52 -18 -113 -18t-104 9q-149 31 -152 220v469l-121 -84q-10 45 -10 77t10 62l121 84v686q24 4 68 4z" />
    <glyph glyph-name="Nacute" unicode="&#x143;" horiz-adv-x="1409" 
d="M207 1473q28 4 78 4q49 0 75 -4l705 -1233v1233q27 4 67 4t70 -4v-1473q-24 -4 -76 -4t-77 4l-705 1223v-1223q-28 -4 -70 -4t-67 4v1473zM690 1587q-43 0 -80 6l228 228q45 6 97 6t99 -6l-264 -228q-37 -6 -80 -6z" />
    <glyph glyph-name="nacute" unicode="&#x144;" horiz-adv-x="1171" 
d="M248 -4q-44 0 -68 4v1044q40 5 67 5t56 -5q8 -74 8 -188q76 140 232 194q57 19 125 19q344 0 344 -410v-659q-24 -4 -68 -4t-67 4v618q-1 174 -55 250t-163 76q-148 0 -246 -114t-98 -314v-516q-23 -4 -67 -4zM549 1208q-39 0 -76 6l240 267q23 4 47 4h45q52 0 96 -4
l-276 -267q-37 -6 -76 -6z" />
    <glyph glyph-name="Ncommaaccent" unicode="&#x145;" horiz-adv-x="1409" 
d="M207 1473q28 4 78 4q49 0 75 -4l705 -1233v1233q27 4 67 4t70 -4v-1473q-24 -4 -76 -4t-77 4l-705 1223v-1223q-28 -4 -70 -4t-67 4v1473zM640 -498q-34 0 -67 6l95 361q24 6 74 6t85 -6l-118 -361q-35 -6 -69 -6z" />
    <glyph glyph-name="ncommaaccent" unicode="&#x146;" horiz-adv-x="1171" 
d="M248 -4q-44 0 -68 4v1044q40 5 67 5t56 -5q8 -74 8 -188q76 140 232 194q57 19 125 19q344 0 344 -410v-659q-24 -4 -68 -4t-67 4v618q-1 174 -55 250t-163 76q-148 0 -246 -114t-98 -314v-516q-23 -4 -67 -4zM518 -498q-31 0 -63 6l94 361q33 6 71 6t72 -6l-108 -361
q-35 -6 -66 -6z" />
    <glyph glyph-name="Ncaron" unicode="&#x147;" horiz-adv-x="1409" 
d="M207 1473q28 4 78 4q49 0 75 -4l705 -1233v1233q27 4 67 4t70 -4v-1473q-24 -4 -76 -4t-77 4l-705 1223v-1223q-28 -4 -70 -4t-67 4v1473zM399 1821q27 6 79 6t87 -6l162 -144l164 144q49 6 95 6t75 -6l-258 -228q-37 -6 -75 -6t-77 6z" />
    <glyph glyph-name="ncaron" unicode="&#x148;" horiz-adv-x="1171" 
d="M248 -4q-44 0 -68 4v1044q40 5 67 5t56 -5q8 -74 8 -188q76 140 232 194q57 19 125 19q344 0 344 -410v-659q-24 -4 -68 -4t-67 4v618q-1 174 -55 250t-163 76q-148 0 -246 -114t-98 -314v-516q-23 -4 -67 -4zM289 1479q33 6 80 6t77 -6l170 -189l170 189q34 6 79 6
q44 0 79 -6l-239 -265q-30 -6 -89 -6t-90 6z" />
    <glyph glyph-name="napostrophe" unicode="&#x149;" horiz-adv-x="1171" 
d="M248 -4q-44 0 -68 4v1044q40 5 67 5t56 -5q8 -74 8 -188q76 140 232 194q57 19 125 19q344 0 344 -410v-659q-24 -4 -68 -4t-67 4v618q-1 174 -55 250t-163 76q-148 0 -246 -114t-98 -314v-516q-23 -4 -67 -4zM54 1157h-27q-30 0 -64 4l84 344l72 4q52 0 82 -6l-113 -342
q-20 -4 -34 -4z" />
    <glyph glyph-name="Eng" unicode="&#x14a;" horiz-adv-x="1409" 
d="M207 1473q28 4 78 4q49 0 75 -4l705 -1233v1233q27 4 67 4t70 -4v-1508q0 -167 -96 -242t-246 -75q-97 0 -188 26q6 57 35 125q74 -22 137 -22q221 0 221 207v12l-721 1227v-1223q-28 -4 -70 -4t-67 4v1473z" />
    <glyph glyph-name="eng" unicode="&#x14b;" horiz-adv-x="1171" 
d="M1012 -88q0 -281 -283 -287q-109 0 -174 29q14 78 31 110q47 -20 119 -20t103 16q67 36 69 138v720q-1 174 -55 250t-163 76q-148 0 -246 -114t-98 -314v-516q-23 -4 -67 -4t-68 4v1044q40 5 67 5t56 -5q8 -74 8 -188q76 140 232 194q57 19 125 19q344 0 344 -410v-747z
" />
    <glyph glyph-name="Omacron" unicode="&#x14c;" horiz-adv-x="1478" 
d="M739 104q119 0 205 46q256 138 256 587q0 448 -256 585q-86 46 -205 46q-229 0 -345 -171q-117 -171 -115 -460q0 -453 255 -586q86 -47 205 -47zM1348 737q0 -343 -155 -552q-155 -210 -455 -210t-453 209q-154 209 -154 551q0 343 155 552q155 210 455 210t456 -214
q151 -203 151 -546zM1065 1692q0 -38 -4 -56h-643q-4 16 -4 54t4 59h643q4 -19 4 -57z" />
    <glyph glyph-name="omacron" unicode="&#x14d;" horiz-adv-x="1175" 
d="M588 -25q-117 0 -205 42t-146 116t-87 174t-29 215t29 215t87 174t146 116t205 42t204 -42t145 -116t88 -174t30 -215t-30 -215t-88 -174t-145 -116t-204 -42zM588 94q164 0 245 115t81 313t-81 314q-81 114 -245 114t-245 -114t-81 -314t81 -314t245 -114zM872 1346
q0 -38 -4 -56h-561q-4 16 -4 54t4 59h561q4 -19 4 -57z" />
    <glyph glyph-name="Obreve" unicode="&#x14e;" horiz-adv-x="1478" 
d="M739 104q119 0 205 46q256 138 256 587q0 448 -256 585q-86 46 -205 46q-229 0 -345 -171q-117 -171 -115 -460q0 -453 255 -586q86 -47 205 -47zM1348 737q0 -343 -155 -552q-155 -210 -455 -210t-453 209q-154 209 -154 551q0 343 155 552q155 210 455 210t456 -214
q151 -203 151 -546zM539 1631q-115 61 -129 190q32 6 66 6t71 -6q8 -53 52 -90t140 -37t141 37q44 37 52 90q33 6 71 6t66 -6q-14 -129 -129 -190q-86 -46 -200 -46t-201 46z" />
    <glyph glyph-name="obreve" unicode="&#x14f;" horiz-adv-x="1175" 
d="M588 -25q-117 0 -205 42t-146 116t-87 174t-29 215t29 215t87 174t146 116t205 42t204 -42t145 -116t88 -174t30 -215t-30 -215t-88 -174t-145 -116t-204 -42zM588 94q164 0 245 115t81 313t-81 314q-81 114 -245 114t-245 -114t-81 -314t81 -314t245 -114zM588 1208
q-180 0 -277 134q-37 52 -49 137q31 6 69 6t72 -6q9 -72 41 -103q59 -57 145 -57q87 0 130 44t53 116q33 6 72 6t69 -6q-21 -149 -133 -218q-83 -53 -192 -53z" />
    <glyph glyph-name="Ohungarumlaut" unicode="&#x150;" horiz-adv-x="1478" 
d="M739 104q119 0 205 46q256 138 256 587q0 448 -256 585q-86 46 -205 46q-229 0 -345 -171q-117 -171 -115 -460q0 -453 255 -586q86 -47 205 -47zM1348 737q0 -343 -155 -552q-155 -210 -455 -210t-453 209q-154 209 -154 551q0 343 155 552q155 210 455 210t456 -214
q151 -203 151 -546zM897 1585q-41 0 -78 6l209 234q24 4 48 4h46q51 0 97 -4l-244 -234q-37 -6 -78 -6zM510 1585q-41 0 -78 6l209 234q23 4 47 4h47q52 0 96 -4l-243 -234q-37 -6 -78 -6z" />
    <glyph glyph-name="ohungarumlaut" unicode="&#x151;" horiz-adv-x="1175" 
d="M588 -25q-117 0 -205 42t-146 116t-87 174t-29 215t29 215t87 174t146 116t205 42t204 -42t145 -116t88 -174t30 -215t-30 -215t-88 -174t-145 -116t-204 -42zM588 94q164 0 245 115t81 313t-81 314q-81 114 -245 114t-245 -114t-81 -314t81 -314t245 -114zM717 1208
q-39 0 -76 6l240 267q23 4 47 4h45q52 0 96 -4l-276 -267q-37 -6 -76 -6zM358 1208q-39 0 -75 6l239 267q22 4 46 4h46q53 0 97 -4l-277 -267q-37 -6 -76 -6z" />
    <glyph glyph-name="OE" unicode="&#x152;" horiz-adv-x="1873" 
d="M756 1368q-235 0 -360 -170q-124 -170 -124 -461q0 -290 118 -461t349 -172q152 0 236 25v1214q-94 25 -219 25zM1786 66q0 -40 -4 -66h-776q-107 -22 -264 -24q-302 -2 -464 213q-153 201 -153 545t163 553q163 210 462 210q154 0 247 -24h766q4 -24 4 -64t-4 -66h-647
v-497h520q4 -24 4 -64t-4 -65h-520v-588h666q4 -23 4 -63z" />
    <glyph glyph-name="oe" unicode="&#x153;" horiz-adv-x="1923" 
d="M1671 614q0 236 -158 309q-55 26 -133 25q-143 0 -223 -87t-96 -247h610zM590 94q164 0 245 115t81 313t-81 314q-81 114 -245 114t-245 -114t-81 -314t81 -314t245 -114zM1057 502q0 -209 96 -307t289 -99q134 0 274 49q20 -45 25 -114q-118 -54 -300 -55
q-349 -2 -460 253q-55 -117 -153 -185t-226 -69q-129 0 -217 42t-146 116t-87 174t-29 215q0 241 120 394t347 153q141 -1 241 -65t154 -177q110 244 395 242q199 0 317 -140q132 -159 105 -427h-745z" />
    <glyph glyph-name="Racute" unicode="&#x154;" horiz-adv-x="1202" 
d="M504 1497q360 0 482 -226q46 -85 46 -189t-28 -171q-80 -185 -306 -270l-16 -6l469 -635q-20 -4 -51 -4h-60q-30 0 -51 4l-516 682v8l45 12q249 64 332 220q31 57 31 135q-1 159 -99 239t-266 80q-83 0 -168 -10v-1366q-28 -4 -70 -4t-71 4v1479q203 18 297 18zM520 1587
q-43 0 -80 6l228 228q45 6 97 6t99 -6l-264 -228q-37 -6 -80 -6z" />
    <glyph glyph-name="racute" unicode="&#x155;" horiz-adv-x="716" 
d="M248 -4q-44 0 -68 4v1044q40 5 67 5t56 -5q8 -74 8 -178q97 179 310 181h21q11 0 26 -3q6 -34 6 -66t-6 -63q-24 3 -45 3q-139 0 -223 -88t-85 -293v-537q-23 -4 -67 -4zM327 1208q-39 0 -75 6l240 267q22 4 46 4h46q52 0 96 -4l-277 -267q-37 -6 -76 -6z" />
    <glyph glyph-name="Rcommaaccent" unicode="&#x156;" horiz-adv-x="1202" 
d="M504 1497q360 0 482 -226q46 -85 46 -189t-28 -171q-80 -185 -306 -270l-16 -6l469 -635q-20 -4 -51 -4h-60q-30 0 -51 4l-516 682v8l45 12q249 64 332 220q31 57 31 135q-1 159 -99 239t-266 80q-83 0 -168 -10v-1366q-28 -4 -70 -4t-71 4v1479q203 18 297 18zM576 -498
q-30 0 -64 6l94 361q33 6 71 6t73 -6l-109 -361q-35 -6 -65 -6z" />
    <glyph glyph-name="rcommaaccent" unicode="&#x157;" horiz-adv-x="716" 
d="M248 -4q-44 0 -68 4v1044q40 5 67 5t56 -5q8 -74 8 -178q97 179 310 181h21q11 0 26 -3q6 -34 6 -66t-6 -63q-24 3 -45 3q-139 0 -223 -88t-85 -293v-537q-23 -4 -67 -4zM150 -498q-30 0 -64 6l94 361q33 6 71 6t73 -6l-109 -361q-35 -6 -65 -6z" />
    <glyph glyph-name="Rcaron" unicode="&#x158;" horiz-adv-x="1202" 
d="M504 1497q360 0 482 -226q46 -85 46 -189t-28 -171q-80 -185 -306 -270l-16 -6l469 -635q-20 -4 -51 -4h-60q-30 0 -51 4l-516 682v8l45 12q249 64 332 220q31 57 31 135q-1 159 -99 239t-266 80q-83 0 -168 -10v-1366q-28 -4 -70 -4t-71 4v1479q203 18 297 18zM223 1821
q27 6 79 6q51 0 87 -6l162 -144l164 144q49 6 95 6t75 -6l-258 -228q-37 -6 -75 -6t-77 6z" />
    <glyph glyph-name="rcaron" unicode="&#x159;" horiz-adv-x="716" 
d="M248 -4q-44 0 -68 4v1044q40 5 67 5t56 -5q8 -74 8 -178q97 179 310 181h21q11 0 26 -3q6 -34 6 -66t-6 -63q-24 3 -45 3q-139 0 -223 -88t-85 -293v-537q-23 -4 -67 -4zM98 1479q33 6 81 6t77 -6l170 -189l170 189q35 6 79 6t79 -6l-240 -265q-30 -6 -89 -6t-89 6z" />
    <glyph glyph-name="Sacute" unicode="&#x15a;" horiz-adv-x="1107" 
d="M609 1374q-158 0 -232 -70t-74 -173q0 -104 76 -163t192 -104q117 -45 192 -82q243 -120 243 -362q0 -212 -146 -329q-146 -116 -395 -116q-176 0 -350 58q8 60 37 131q30 -8 60 -18t95 -25q65 -14 164 -14q100 -1 171 23q208 70 208 276q0 121 -68 186q-68 66 -257 137
t-251 127q-63 54 -92 116t-28 154q0 166 119 269q120 102 350 102q144 0 250 -29q34 -8 55 -14q-8 -62 -29 -123q-132 43 -290 43zM526 1587q-43 0 -80 6l228 228q45 6 97 6t99 -6l-264 -228q-37 -6 -80 -6z" />
    <glyph glyph-name="sacute" unicode="&#x15b;" horiz-adv-x="925" 
d="M672 274q0 68 -22 104q-41 68 -159 107t-170 61q-178 72 -178 242q0 125 91 203t269 78t283 -45q-10 -59 -28 -117q-132 43 -253 43q-120 0 -172 -44t-52 -116t56 -108t134 -60t134 -46q208 -80 208 -277q0 -145 -111 -235q-111 -89 -298 -89q-186 0 -291 45
q12 62 39 123q107 -43 242 -44q134 -1 206 53t72 122zM416 1208q-39 0 -76 6l240 267q22 4 46 4h46q52 0 96 -4l-276 -267q-37 -6 -76 -6z" />
    <glyph glyph-name="Scircumflex" unicode="&#x15c;" horiz-adv-x="1107" 
d="M609 1374q-158 0 -232 -70t-74 -173q0 -104 76 -163t192 -104q117 -45 192 -82q243 -120 243 -362q0 -212 -146 -329q-146 -116 -395 -116q-176 0 -350 58q8 60 37 131q30 -8 60 -18t95 -25q65 -14 164 -14q100 -1 171 23q208 70 208 276q0 121 -68 186q-68 66 -257 137
t-251 127q-63 54 -92 116t-28 154q0 166 119 269q120 102 350 102q144 0 250 -29q34 -8 55 -14q-8 -62 -29 -123q-132 43 -290 43zM901 1593q-27 -6 -79 -6q-51 0 -87 6l-162 144l-163 -144q-48 -6 -94 -6t-76 6l258 228q38 6 74 6t77 -6z" />
    <glyph glyph-name="scircumflex" unicode="&#x15d;" horiz-adv-x="925" 
d="M672 274q0 68 -22 104q-41 68 -159 107t-170 61q-178 72 -178 242q0 125 91 203t269 78t283 -45q-10 -59 -28 -117q-132 43 -253 43q-120 0 -172 -44t-52 -116t56 -108t134 -60t134 -46q208 -80 208 -277q0 -145 -111 -235q-111 -89 -298 -89q-186 0 -291 45
q12 62 39 123q107 -43 242 -44q134 -1 206 53t72 122zM807 1214q-35 -6 -82 -6t-76 6l-170 189l-170 -189q-35 -6 -80 -6t-77 6l239 265q30 6 89 6t89 -6z" />
    <glyph glyph-name="Scedilla" unicode="&#x15e;" horiz-adv-x="1107" 
d="M528 -213q-34 0 -106 -12l-10 8l71 192h-18q-176 0 -350 58q8 60 37 131q30 -8 60 -18t95 -25q65 -14 164 -14q100 -1 171 23q208 70 208 276q0 121 -68 186q-68 66 -257 137t-251 127q-63 54 -92 116t-28 154q0 166 119 269q120 102 350 102q144 0 250 -29q34 -8 55 -14
q-8 -62 -29 -123q-132 43 -290 43t-232 -70t-74 -173q0 -104 76 -163t192 -104q117 -45 192 -82q243 -120 243 -362q0 -182 -106 -294t-296 -140l-45 -111q9 2 19 2h20q104 0 154 -49t51 -136q0 -87 -76 -136q-76 -50 -185 -50t-169 27q0 65 22 100q70 -24 127 -24
q152 0 152 96q0 82 -146 82z" />
    <glyph glyph-name="scedilla" unicode="&#x15f;" horiz-adv-x="927" 
d="M672 274q0 68 -22 104q-41 68 -159 107t-170 61q-178 72 -178 242q0 125 91 203t269 78t283 -45q-10 -59 -28 -117q-132 43 -253 43q-120 0 -172 -44t-52 -116t56 -108t134 -60t134 -46q208 -80 208 -277q0 -129 -84 -212t-225 -103l-43 -109q10 2 19 2h20q104 0 154 -49
t50 -136t-75 -136q-76 -50 -186 -50t-169 27q0 64 23 100q70 -24 127 -24q153 0 151 96q0 82 -145 82q-34 0 -106 -12l-11 8l72 192q-172 4 -272 45q12 62 39 123q107 -43 242 -44q134 -1 206 53t72 122z" />
    <glyph glyph-name="Scaron" unicode="&#x160;" horiz-adv-x="1107" 
d="M609 1374q-158 0 -232 -70t-74 -173q0 -104 76 -163t192 -104q117 -45 192 -82q243 -120 243 -362q0 -212 -146 -329q-146 -116 -395 -116q-176 0 -350 58q8 60 37 131q30 -8 60 -18t95 -25q65 -14 164 -14q100 -1 171 23q208 70 208 276q0 121 -68 186q-68 66 -257 137
t-251 127q-63 54 -92 116t-28 154q0 166 119 269q120 102 350 102q144 0 250 -29q34 -8 55 -14q-8 -62 -29 -123q-132 43 -290 43zM268 1821q26 6 78 6q51 0 88 -6l162 -144l164 144q48 6 94 6t76 -6l-258 -228q-37 -6 -75 -6t-77 6z" />
    <glyph glyph-name="scaron" unicode="&#x161;" horiz-adv-x="925" 
d="M672 274q0 68 -22 104q-41 68 -159 107t-170 61q-178 72 -178 242q0 125 91 203t269 78t283 -45q-10 -59 -28 -117q-132 43 -253 43q-120 0 -172 -44t-52 -116t56 -108t134 -60t134 -46q208 -80 208 -277q0 -145 -111 -235q-111 -89 -298 -89q-186 0 -291 45
q12 62 39 123q107 -43 242 -44q134 -1 206 53t72 122zM162 1479q33 6 80 6t77 -6l170 -189l170 189q35 6 79 6q45 0 79 -6l-239 -265q-30 -6 -90 -6q-59 0 -89 6z" />
    <glyph glyph-name="Tcommaaccent" unicode="&#x162;" horiz-adv-x="1013" 
d="M506 -4q-44 0 -70 4v1346h-395q-4 24 -4 62t4 65h932q4 -23 4 -63t-4 -64h-395v-1346q-28 -4 -72 -4zM406 -498q-34 0 -66 6l94 361q24 6 75 6t85 -6l-119 -361q-35 -6 -69 -6z" />
    <glyph glyph-name="tcommaaccent" unicode="&#x163;" horiz-adv-x="694" 
d="M649 987q0 -37 -4 -57h-283v-680q0 -127 98 -149q28 -5 78 -5t103 19q14 -53 21 -115q-74 -23 -182 -23q-108 1 -180 63t-73 204v686h-178q-4 20 -4 57t4 57h178v197l127 125h8v-322h283q4 -20 4 -57zM378 -498q-30 0 -63 6l95 361q33 6 71 6t72 -6l-109 -361
q-36 -6 -66 -6z" />
    <glyph glyph-name="Tcaron" unicode="&#x164;" horiz-adv-x="1013" 
d="M506 -4q-44 0 -70 4v1346h-395q-4 24 -4 62t4 65h932q4 -23 4 -63t-4 -64h-395v-1346q-28 -4 -72 -4zM182 1821q27 6 78 6q52 0 88 -6l162 -144l164 144q49 6 94 6t76 -6l-258 -228q-37 -6 -75 -6t-77 6z" />
    <glyph glyph-name="tcaron" unicode="&#x165;" horiz-adv-x="694" 
d="M649 987q0 -37 -4 -57h-283v-680q0 -127 98 -149q28 -5 78 -5t103 19q14 -53 21 -115q-74 -23 -182 -23q-108 1 -180 63t-73 204v686h-178q-4 20 -4 57t4 57h178v197l127 125h8v-322h283q4 -20 4 -57zM612 1509q43 0 76 -4l-14 -331q-69 -12 -129 0v331q24 4 67 4z" />
    <glyph glyph-name="Tbar" unicode="&#x166;" horiz-adv-x="1013" 
d="M506 -4q-44 0 -70 4v684h-286q-5 20 -5 57t5 56h286v549h-395q-4 24 -4 62t4 65h932q4 -23 4 -63t-4 -64h-395v-549h284q4 -19 4 -57t-4 -56h-284v-684q-28 -4 -72 -4z" />
    <glyph glyph-name="tbar" unicode="&#x167;" horiz-adv-x="694" 
d="M649 576q0 -36 -4 -58h-283v-268q0 -127 98 -149q28 -5 78 -5t103 19q14 -53 21 -115q-74 -23 -182 -23q-108 1 -180 63t-73 204v274h-178q-4 20 -4 56t4 59h178v297h-178q-4 20 -4 57t4 57h178v197l127 125h8v-322h283q4 -20 4 -57t-4 -57h-283v-297h283q4 -21 4 -57z
" />
    <glyph glyph-name="Utilde" unicode="&#x168;" horiz-adv-x="1384" 
d="M260 1477q42 0 72 -4v-889q0 -371 198 -448q68 -26 162 -25q186 0 274 108q87 109 87 365v889q27 4 69 4t72 -4v-908q0 -295 -121 -442t-381 -147t-381 146q-121 148 -121 443v908q28 4 70 4zM864 1620q-62 0 -177 55q-44 20 -85 38t-84 18q-43 -1 -72 -19t-63 -49
q-35 41 -51 90q92 98 188 96q65 0 145 -40t122 -57t83 -17t69 17t65 52q23 -33 51 -94q-96 -90 -191 -90z" />
    <glyph glyph-name="utilde" unicode="&#x169;" horiz-adv-x="1177" 
d="M244 1049q43 0 63 -5v-587q0 -211 82 -286t235 -76t238 26v923q30 5 73 5t62 -5v-1017q-316 -83 -541 -33q-175 37 -247 215q-37 92 -37 240v595q29 5 72 5zM426 1448q70 0 166 -52q37 -20 74 -36t88 -16t125 65q33 -47 49 -98q-84 -90 -178 -88q-69 0 -163 52
q-36 19 -73 35t-79 17q-43 0 -71 -16t-67 -49q-35 47 -49 94q81 92 178 92z" />
    <glyph glyph-name="Umacron" unicode="&#x16a;" horiz-adv-x="1384" 
d="M260 1477q42 0 72 -4v-889q0 -371 198 -448q68 -26 162 -25q186 0 274 108q87 109 87 365v889q27 4 69 4t72 -4v-908q0 -295 -121 -442t-381 -147t-381 146q-121 148 -121 443v908q28 4 70 4zM1018 1692q0 -38 -4 -56h-643q-4 16 -4 54t4 59h643q4 -19 4 -57z" />
    <glyph glyph-name="umacron" unicode="&#x16b;" horiz-adv-x="1177" 
d="M244 1049q43 0 63 -5v-587q0 -211 82 -286t235 -76t238 26v923q30 5 73 5t62 -5v-1017q-316 -83 -541 -33q-175 37 -247 215q-37 92 -37 240v595q29 5 72 5zM872 1346q0 -38 -4 -56h-561q-4 16 -4 54t4 59h561q4 -19 4 -57z" />
    <glyph glyph-name="Ubreve" unicode="&#x16c;" horiz-adv-x="1384" 
d="M260 1477q42 0 72 -4v-889q0 -371 198 -448q68 -26 162 -25q186 0 274 108q87 109 87 365v889q27 4 69 4t72 -4v-908q0 -295 -121 -442t-381 -147t-381 146q-121 148 -121 443v908q28 4 70 4zM500 1631q-115 61 -129 190q33 6 67 6t70 -6q8 -53 52 -90t140 -37t141 37
q44 37 52 90q33 6 71 6t66 -6q-14 -129 -129 -190q-87 -46 -200 -46q-114 0 -201 46z" />
    <glyph glyph-name="ubreve" unicode="&#x16d;" horiz-adv-x="1177" 
d="M244 1049q43 0 63 -5v-587q0 -211 82 -286t235 -76t238 26v923q30 5 73 5t62 -5v-1017q-316 -83 -541 -33q-175 37 -247 215q-37 92 -37 240v595q29 5 72 5zM588 1208q-180 0 -277 134q-37 52 -49 137q31 6 69 6t72 -6q9 -72 41 -103q59 -57 145 -57q87 0 130 44t53 116
q33 6 72 6t69 -6q-21 -149 -133 -218q-83 -53 -192 -53z" />
    <glyph glyph-name="Uring" unicode="&#x16e;" horiz-adv-x="1384" 
d="M260 1477q42 0 72 -4v-889q0 -371 198 -448q68 -26 162 -25q186 0 274 108q87 109 87 365v889q27 4 69 4t72 -4v-908q0 -295 -121 -442t-381 -147t-381 146q-121 148 -121 443v908q28 4 70 4zM698 1958q102 0 167 -66t66 -166t-66 -165q-67 -66 -169 -66q-102 -1 -167 65
q-64 66 -64 168q-1 102 65 166t168 64zM698 1864q-59 0 -90 -39q-30 -39 -30 -99t30 -98q30 -39 90 -39q59 0 90 39t31 98q0 58 -31 98t-90 40z" />
    <glyph glyph-name="uring" unicode="&#x16f;" horiz-adv-x="1177" 
d="M244 1049q43 0 63 -5v-587q0 -211 82 -286t235 -76t238 26v923q30 5 73 5t62 -5v-1017q-316 -83 -541 -33q-175 37 -247 215q-37 92 -37 240v595q29 5 72 5zM594 1534q-106 0 -105 -118q0 -118 107 -118t105 118q-1 118 -107 118zM387 1416q0 88 56 148q55 60 151 60
t152 -60t56 -148t-54 -147q-54 -61 -152 -61t-154 60t-55 148z" />
    <glyph glyph-name="Uhungarumlaut" unicode="&#x170;" horiz-adv-x="1384" 
d="M260 1477q42 0 72 -4v-889q0 -371 198 -448q68 -26 162 -25q186 0 274 108q87 109 87 365v889q27 4 69 4t72 -4v-908q0 -295 -121 -442t-381 -147t-381 146q-121 148 -121 443v908q28 4 70 4zM874 1585q-41 0 -77 6l209 234q24 4 48 4h46q52 0 96 -4l-244 -234
q-37 -6 -78 -6zM487 1585q-41 0 -77 6l208 234q23 4 48 4h47q52 0 96 -4l-244 -234q-37 -6 -78 -6z" />
    <glyph glyph-name="uhungarumlaut" unicode="&#x171;" horiz-adv-x="1177" 
d="M244 1049q43 0 63 -5v-587q0 -211 82 -286t235 -76t238 26v923q30 5 73 5t62 -5v-1017q-316 -83 -541 -33q-175 37 -247 215q-37 92 -37 240v595q29 5 72 5zM758 1208q-39 0 -76 6l240 267q22 4 46 4h46q52 0 96 -4l-276 -267q-37 -6 -76 -6zM399 1208q-39 0 -75 6
l239 267q23 4 47 4h45q53 0 97 -4l-277 -267q-37 -6 -76 -6z" />
    <glyph glyph-name="Uogonek" unicode="&#x172;" horiz-adv-x="1384" 
d="M260 1477q42 0 72 -4v-889q0 -371 198 -448q68 -26 162 -25q186 0 274 108q87 109 87 365v889q27 4 69 4t72 -4v-908q0 -256 -90 -399t-283 -178q-61 -53 -103 -121t-42 -125t34 -89t100 -32t114 17q18 -46 24 -113q-64 -19 -138 -20q-192 -2 -256 112q-22 39 -22 95
t35 130t101 133q-248 9 -363 155t-115 435v908q28 4 70 4z" />
    <glyph glyph-name="uogonek" unicode="&#x173;" horiz-adv-x="1177" 
d="M244 1049q43 0 63 -5v-587q0 -211 82 -286t235 -76t238 26v923q30 5 73 5t62 -5v-1017l-34 -11q-100 -30 -159 -115q-59 -84 -60 -150q-2 -134 133 -134q58 0 106 16q14 -35 23 -108q-58 -19 -129 -20q-70 -1 -114 11q-152 43 -155 193q0 61 35 137t100 136
q-296 -34 -434 82q-137 115 -137 385v595q29 5 72 5z" />
    <glyph glyph-name="Wcircumflex" unicode="&#x174;" horiz-adv-x="1886" 
d="M74 1473q24 4 80 4t84 -4l284 -1315l338 1315q24 4 85 4t89 -4l336 -1315l289 1315q31 4 81 4t72 -4l-356 -1473q-28 -4 -92 -4t-92 4l-330 1282l-328 -1282q-28 -4 -92 -4t-92 4zM780 1593q-48 -6 -94 -6t-76 6l258 228q37 6 74 6t78 -6l252 -228q-27 -6 -79 -6t-87 6
l-162 144z" />
    <glyph glyph-name="wcircumflex" unicode="&#x175;" horiz-adv-x="1540" 
d="M68 1044q30 5 78 5q49 0 69 -5l231 -888l259 888q41 5 67 5h44q17 0 34 -5l258 -876l231 876q30 5 71 5t63 -5l-302 -1044q-37 -6 -73 -6t-70 6l-252 864l-264 -864q-37 -6 -74 -6t-69 6zM1098 1214q-36 -6 -82 -6t-76 6l-170 189l-170 -189q-35 -6 -80 -6t-78 6l240 265
q30 6 89 6t89 -6z" />
    <glyph glyph-name="Ycircumflex" unicode="&#x176;" horiz-adv-x="1175" 
d="M49 1473q24 4 79 4t83 -4l385 -779l379 779q33 4 81 4t70 -4l-462 -926v-547q-28 -4 -72 -4t-70 4v547zM932 1593q-27 -6 -78 -6t-88 6l-162 144l-164 -144q-48 -6 -94 -6t-76 6l258 228q37 6 74 6t78 -6z" />
    <glyph glyph-name="ycircumflex" unicode="&#x177;" horiz-adv-x="1054" 
d="M280 -393q64 1 100 29t62 106l84 254h-39q-55 0 -77 4l-377 1044q30 5 83 5t72 -5l347 -1015l339 1015q30 5 74 5t66 -5l-459 -1353q-66 -203 -258 -203q-86 0 -166 25q0 63 31 114q54 -20 118 -20zM852 1214q-35 -6 -82 -6t-76 6l-170 189l-170 -189q-35 -6 -80 -6
t-77 6l239 265q30 6 89 6t89 -6z" />
    <glyph glyph-name="Ydieresis" unicode="&#x178;" horiz-adv-x="1175" 
d="M49 1473q24 4 79 4t83 -4l385 -779l379 779q33 4 81 4t70 -4l-462 -926v-547q-28 -4 -72 -4t-70 4v547zM715 1704q0 45 6 92q39 6 85 6t93 -6q6 -47 6 -92t-6 -90q-47 -6 -93 -6t-85 6q-6 45 -6 90zM287 1704q0 45 6 92q45 6 91 6t87 -6q6 -47 6 -92t-6 -90
q-41 -6 -87 -6t-91 6q-6 45 -6 90z" />
    <glyph glyph-name="Zacute" unicode="&#x179;" horiz-adv-x="1136" 
d="M143 1407q0 44 4 66h936l11 -15l-840 -1329h772q4 -19 4 -63t-4 -66h-987l-10 16l833 1327h-715q-4 20 -4 64zM579 1587q-43 0 -79 6l227 228q45 6 97 6t100 -6l-265 -228q-37 -6 -80 -6z" />
    <glyph glyph-name="zacute" unicode="&#x17a;" horiz-adv-x="952" 
d="M121 987q0 37 4 57h754l8 -26l-608 -903h575q4 -21 4 -57t-4 -58h-784l-7 33l609 897h-547q-4 20 -4 57zM436 1208q-39 0 -76 6l240 267q22 4 46 4h46q52 0 96 -4l-276 -267q-37 -6 -76 -6z" />
    <glyph glyph-name="Zdotaccent" unicode="&#x17b;" horiz-adv-x="1136" 
d="M143 1407q0 44 4 66h936l11 -15l-840 -1329h772q4 -19 4 -63t-4 -66h-987l-10 16l833 1327h-715q-4 20 -4 64zM520 1616q-8 42 -8 92t8 94q41 8 91 8t96 -8q8 -42 8 -92t-8 -94q-41 -8 -91 -8t-96 8z" />
    <glyph glyph-name="zdotaccent" unicode="&#x17c;" horiz-adv-x="952" 
d="M121 987q0 37 4 57h754l8 -26l-608 -903h575q4 -21 4 -57t-4 -58h-784l-7 33l609 897h-547q-4 20 -4 57zM438 1249q-8 41 -8 92t8 95q41 8 92 8t95 -8q8 -41 8 -92t-8 -95q-41 -8 -91 -8t-96 8z" />
    <glyph glyph-name="Zcaron" unicode="&#x17d;" horiz-adv-x="1136" 
d="M143 1407q0 44 4 66h936l11 -15l-840 -1329h772q4 -19 4 -63t-4 -66h-987l-10 16l833 1327h-715q-4 20 -4 64zM311 1821q27 6 78 6q52 0 88 -6l162 -144l164 144q49 6 94 6t76 -6l-258 -228q-37 -6 -75 -6t-77 6z" />
    <glyph glyph-name="zcaron" unicode="&#x17e;" horiz-adv-x="952" 
d="M121 987q0 37 4 57h754l8 -26l-608 -903h575q4 -21 4 -57t-4 -58h-784l-7 33l609 897h-547q-4 20 -4 57zM197 1479q33 6 80 6t77 -6l170 -189l170 189q34 6 79 6q44 0 79 -6l-240 -265q-30 -6 -89 -6t-89 6z" />
    <glyph glyph-name="longs" unicode="&#x17f;" horiz-adv-x="716" 
d="M322 -4q-44 0 -68 4v1137q0 193 85 289t269 96q79 0 140 -17q-6 -55 -23 -116q-63 14 -115 14q-114 0 -168 -57q-53 -57 -53 -216v-1130q-23 -4 -67 -4z" />
    <glyph glyph-name="florin" unicode="&#x192;" 
d="M375 874q0 36 4 58h201l26 155q30 198 106 292q77 94 249 94q68 0 139 -17q-7 -64 -23 -117q-68 15 -117 15q-105 0 -149 -56t-70 -217l-24 -149h262q4 -20 4 -56t-4 -59h-281l-114 -715q-35 -203 -109 -294t-246 -91q-78 0 -139 17q7 65 23 116q63 -14 114 -14
q107 0 152 56t70 217l112 708h-182q-4 21 -4 57z" />
    <glyph glyph-name="Scommaaccent" unicode="&#x218;" horiz-adv-x="1107" 
d="M609 1374q-158 0 -232 -70t-74 -173q0 -104 76 -163t192 -104q117 -45 192 -82q243 -120 243 -362q0 -212 -146 -329q-146 -116 -395 -116q-176 0 -350 58q8 60 37 131q30 -8 60 -18t95 -25q65 -14 164 -14q100 -1 171 23q208 70 208 276q0 121 -68 186q-68 66 -257 137
t-251 127q-63 54 -92 116t-28 154q0 166 119 269q120 102 350 102q144 0 250 -29q34 -8 55 -14q-8 -62 -29 -123q-132 43 -290 43zM477 -498q-31 0 -63 6l94 361q33 6 71 6t72 -6l-108 -361q-35 -6 -66 -6z" />
    <glyph glyph-name="scommaaccent" unicode="&#x219;" horiz-adv-x="925" 
d="M672 274q0 68 -22 104q-41 68 -159 107t-170 61q-178 72 -178 242q0 125 91 203t269 78t283 -45q-10 -59 -28 -117q-132 43 -253 43q-120 0 -172 -44t-52 -116t56 -108t134 -60t134 -46q208 -80 208 -277q0 -145 -111 -235q-111 -89 -298 -89q-186 0 -291 45
q12 62 39 123q107 -43 242 -44q134 -1 206 53t72 122zM395 -498q-31 0 -63 6l94 361q33 6 71 6t72 -6l-108 -361q-35 -6 -66 -6z" />
    <glyph glyph-name="uni021A" unicode="&#x21a;" horiz-adv-x="1013" 
d="M506 -4q-44 0 -70 4v1346h-395q-4 24 -4 62t4 65h932q4 -23 4 -63t-4 -64h-395v-1346q-28 -4 -72 -4zM402 -498q-34 0 -66 6l94 361q24 6 75 6t85 -6l-119 -361q-35 -6 -69 -6z" />
    <glyph glyph-name="uni021B" unicode="&#x21b;" horiz-adv-x="694" 
d="M649 987q0 -37 -4 -57h-283v-680q0 -127 98 -149q28 -5 78 -5t103 19q14 -53 21 -115q-74 -23 -182 -23q-108 1 -180 63t-73 204v686h-178q-4 20 -4 57t4 57h178v197l127 125h8v-322h283q4 -20 4 -57zM356 -498q-31 0 -63 6l94 361q33 6 71 6q39 0 72 -6l-108 -361
q-35 -6 -66 -6z" />
    <glyph glyph-name="dotlessj" unicode="&#x237;" horiz-adv-x="569" 
d="M389 -88q0 -282 -283 -287q-109 0 -174 29q13 74 31 110q47 -20 119 -20t103 16q67 36 69 138v1032h-131q-4 20 -4 57t4 57h266v-1132z" />
    <glyph glyph-name="apostrophe" unicode="&#x2bc;" horiz-adv-x="595" 
d="M268 1157h-28q-30 0 -64 4l84 344l72 4q52 0 82 -6l-113 -342q-19 -4 -33 -4z" />
    <glyph glyph-name="circumflex" unicode="&#x2c6;" horiz-adv-x="1019" 
d="M838 1214q-36 -6 -82 -6t-76 6l-170 189l-170 -189q-34 -6 -80 -6q-45 0 -78 6l240 265q30 6 89 6t89 -6z" />
    <glyph glyph-name="caron" unicode="&#x2c7;" horiz-adv-x="1019" 
d="M182 1479q32 6 80 6t78 -6l170 -189l170 189q35 6 79 6t79 -6l-240 -265q-30 -6 -89 -6t-89 6z" />
    <glyph glyph-name="uni02C9" unicode="&#x2c9;" horiz-adv-x="1024" 
d="M797 1346q0 -38 -4 -56h-562q-4 16 -4 54t4 59h562q4 -19 4 -57z" />
    <glyph glyph-name="breve" unicode="&#x2d8;" horiz-adv-x="1019" 
d="M510 1208q-180 0 -277 134q-37 52 -49 137q31 6 69 6t73 -6q9 -73 41 -104q58 -56 144 -56q87 0 130 44t53 116q33 6 72 6t70 -6q-21 -148 -134 -218q-83 -53 -192 -53z" />
    <glyph glyph-name="dotaccent" unicode="&#x2d9;" horiz-adv-x="628" 
d="M221 1249q-8 41 -8 92t8 95q41 8 91 8t96 -8q8 -41 8 -92t-8 -95q-41 -8 -91 -8t-96 8z" />
    <glyph glyph-name="ring" unicode="&#x2da;" horiz-adv-x="1032" 
d="M518 1534q-106 0 -106 -118t106 -118t105 118q1 118 -105 118zM309 1416q1 88 57 148t151 60t151 -60t57 -148q0 -88 -55 -147q-54 -61 -152 -61t-154 60t-55 148z" />
    <glyph glyph-name="ogonek" unicode="&#x2db;" horiz-adv-x="1024" 
d="M449 -255q0 -128 133 -128q58 0 106 16q14 -35 23 -108q-58 -19 -129 -20q-70 -1 -114 11q-152 43 -155 193q0 116 91 225q30 37 67 66h135q-61 -51 -109 -123t-48 -132z" />
    <glyph glyph-name="tilde" unicode="&#x2dc;" horiz-adv-x="1024" 
d="M350 1448q70 0 166 -52q37 -20 74 -36t88 -16t125 65q33 -47 49 -98q-84 -90 -178 -88q-69 0 -163 52q-36 19 -73 35t-79 17q-43 0 -71 -16t-67 -49q-35 47 -49 94q81 92 178 92z" />
    <glyph glyph-name="hungarumlaut" unicode="&#x2dd;" horiz-adv-x="1024" 
d="M553 1208q-39 0 -76 6l240 267q23 4 47 4h45q52 0 96 -4l-276 -267q-37 -6 -76 -6zM194 1208q-39 0 -75 6l239 267q22 4 46 4h47q52 0 96 -4l-277 -267q-37 -6 -76 -6z" />
    <glyph glyph-name="Omega" unicode="&#x3a9;" horiz-adv-x="1480" 
d="M70 64q0 44 4 65h286q-109 131 -174 303q-66 172 -66 345q1 342 161 531q159 189 449 189q289 0 448 -188t159 -525q-1 -180 -67 -352t-172 -303h286q5 -25 5 -68t-5 -61h-526l-10 23q131 118 237 336q105 217 105 425q0 281 -119 433q-119 151 -342 151t-342 -152
t-119 -432q0 -221 104 -432t238 -329l-10 -23h-526q-4 20 -4 64z" />
    <glyph glyph-name="pi" unicode="&#x3c0;" horiz-adv-x="1441" 
d="M385 930h-14q-140 0 -230 -76q-39 39 -59 86q106 106 307 104h944q4 -20 4 -57t-4 -57h-262v-639q0 -103 38 -149q39 -46 103 -46t117 19q14 -53 21 -115q-74 -23 -182 -23t-170 83t-62 225v645h-416v-930q-68 -11 -135 0v930z" />
    <glyph glyph-name="Wgrave" unicode="&#x1e80;" horiz-adv-x="1886" 
d="M74 1473q24 4 80 4t84 -4l284 -1315l338 1315q24 4 85 4t89 -4l336 -1315l289 1315q31 4 81 4t72 -4l-356 -1473q-28 -4 -92 -4t-92 4l-330 1282l-328 -1282q-28 -4 -92 -4t-92 4zM732 1827q52 0 99 -6l228 -228q-37 -6 -80 -6t-80 6l-264 228q45 6 97 6z" />
    <glyph glyph-name="wgrave" unicode="&#x1e81;" horiz-adv-x="1540" 
d="M68 1044q30 5 78 5q49 0 69 -5l231 -888l259 888q41 5 67 5h44q17 0 34 -5l258 -876l231 876q30 5 71 5t63 -5l-302 -1044q-37 -6 -73 -6t-70 6l-252 864l-264 -864q-37 -6 -74 -6t-69 6zM568 1485h60q24 0 46 -4l239 -267q-37 -6 -75 -6t-76 6l-277 267q46 4 83 4z" />
    <glyph glyph-name="Wacute" unicode="&#x1e82;" horiz-adv-x="1886" 
d="M74 1473q24 4 80 4t84 -4l284 -1315l338 1315q24 4 85 4t89 -4l336 -1315l289 1315q31 4 81 4t72 -4l-356 -1473q-28 -4 -92 -4t-92 4l-330 1282l-328 -1282q-28 -4 -92 -4t-92 4zM833 1587q-43 0 -79 6l227 228q45 6 97 6t100 -6l-265 -228q-37 -6 -80 -6z" />
    <glyph glyph-name="wacute" unicode="&#x1e83;" horiz-adv-x="1540" 
d="M68 1044q30 5 78 5q49 0 69 -5l231 -888l259 888q41 5 67 5h44q17 0 34 -5l258 -876l231 876q30 5 71 5t63 -5l-302 -1044q-37 -6 -73 -6t-70 6l-252 864l-264 -864q-37 -6 -74 -6t-69 6zM641 1208q-39 0 -76 6l240 267q23 4 47 4h45q52 0 96 -4l-276 -267q-37 -6 -76 -6
z" />
    <glyph glyph-name="Wdieresis" unicode="&#x1e84;" horiz-adv-x="1886" 
d="M74 1473q24 4 80 4t84 -4l284 -1315l338 1315q24 4 85 4t89 -4l336 -1315l289 1315q31 4 81 4t72 -4l-356 -1473q-28 -4 -92 -4t-92 4l-330 1282l-328 -1282q-28 -4 -92 -4t-92 4zM1061 1704q0 45 6 92q39 6 85 6t93 -6q6 -47 6 -92t-6 -90q-47 -6 -93 -6t-85 6
q-6 45 -6 90zM633 1704q0 45 6 92q45 6 91 6t87 -6q6 -47 6 -92t-6 -90q-41 -6 -87 -6t-91 6q-6 45 -6 90z" />
    <glyph glyph-name="wdieresis" unicode="&#x1e85;" horiz-adv-x="1540" 
d="M68 1044q30 5 78 5q49 0 69 -5l231 -888l259 888q41 5 67 5h44q17 0 34 -5l258 -876l231 876q30 5 71 5t63 -5l-302 -1044q-37 -6 -73 -6t-70 6l-252 864l-264 -864q-37 -6 -74 -6t-69 6zM877 1342q0 44 6 88q39 6 82 6t84 -6q6 -44 6 -88t-6 -87q-41 -6 -84 -6t-82 6
q-6 43 -6 87zM574 1436q42 0 83 -6q13 -94 0 -175q-41 -6 -83 -6t-82 6q-13 93 0 175q40 6 82 6z" />
    <glyph glyph-name="Ygrave" unicode="&#x1ef2;" horiz-adv-x="1175" 
d="M49 1473q24 4 79 4t83 -4l385 -779l379 779q33 4 81 4t70 -4l-462 -926v-547q-28 -4 -72 -4t-70 4v547zM427 1827q52 0 99 -6l228 -228q-37 -6 -80 -6t-80 6l-264 228q45 6 97 6z" />
    <glyph glyph-name="ygrave" unicode="&#x1ef3;" horiz-adv-x="1054" 
d="M280 -393q64 1 100 29t62 106l84 254h-39q-55 0 -77 4l-377 1044q30 5 83 5t72 -5l347 -1015l339 1015q30 5 74 5t66 -5l-459 -1353q-66 -203 -258 -203q-86 0 -166 25q0 63 31 114q54 -20 118 -20zM334 1485h60q24 0 46 -4l240 -267q-37 -6 -76 -6t-76 6l-276 267
q45 4 82 4z" />
    <glyph glyph-name="endash" unicode="&#x2013;" horiz-adv-x="1024" 
d="M1028 582q0 -42 -4 -68h-1024q-4 28 -4 68t4 69h1024q4 -27 4 -69z" />
    <glyph glyph-name="emdash" unicode="&#x2014;" horiz-adv-x="2048" 
d="M2052 582q0 -42 -4 -68h-2048q-4 28 -4 68t4 69h2048q4 -27 4 -69z" />
    <glyph glyph-name="quoteleft" unicode="&#x2018;" horiz-adv-x="456" 
d="M102 1473q36 4 72 4t70 -4l110 -406q-16 -4 -42 -4h-52t-47 4z" />
    <glyph glyph-name="quoteright" unicode="&#x2019;" horiz-adv-x="456" 
d="M213 1473q36 4 70 4q33 0 71 -4l-110 -406q-20 -4 -46 -4h-53q-26 0 -43 4z" />
    <glyph glyph-name="quotesinglbase" unicode="&#x201a;" horiz-adv-x="456" 
d="M213 174q32 4 68 4t73 -4l-110 -405q-25 -5 -57 -5h-51q-17 0 -34 5z" />
    <glyph glyph-name="quotedblleft" unicode="&#x201c;" horiz-adv-x="829" 
d="M102 1473q36 4 73 4t69 -4l110 -406q-16 -4 -42 -4h-52t-47 4zM475 1473q36 4 73 4q36 0 68 -4l111 -406q-16 -4 -42 -4h-52q-26 0 -47 4z" />
    <glyph glyph-name="quotedblright" unicode="&#x201d;" horiz-adv-x="829" 
d="M213 1473q32 4 68 4t73 -4l-110 -406q-20 -4 -46 -4h-53q-26 0 -43 4zM616 1067q-20 -4 -46 -4h-52t-43 4l111 406q32 4 68 4t73 -4z" />
    <glyph glyph-name="quotedblbase" unicode="&#x201e;" horiz-adv-x="829" 
d="M213 174q32 4 68 4t73 -4l-110 -405q-25 -5 -57 -5h-51q-17 0 -34 5zM509 -236q-17 0 -34 5l111 405q32 4 68 4t73 -4l-111 -405q-25 -5 -57 -5h-50z" />
    <glyph glyph-name="dagger" unicode="&#x2020;" horiz-adv-x="919" 
d="M393 795h-287q-4 19 -4 63t4 66h287v549q24 4 67 4t66 -4v-549h287q4 -20 4 -64t-4 -65h-287v-1139q-24 -4 -66 -4q-41 0 -67 4v1139z" />
    <glyph glyph-name="daggerdbl" unicode="&#x2021;" horiz-adv-x="919" 
d="M393 135h-287q-4 21 -4 65t4 64h287v592h-287q-4 20 -4 64t4 65h287v488q24 4 67 4t66 -4v-488h287q4 -19 4 -63t-4 -66h-287v-592h287q4 -20 4 -64t-4 -65h-287v-479q-24 -4 -66 -4q-41 0 -67 4v479z" />
    <glyph glyph-name="bullet" unicode="&#x2022;" horiz-adv-x="768" 
d="M154 777q0 97 66 163t163 67q95 1 163 -67t68 -163q0 -96 -67 -163t-163 -67t-163 67t-67 163z" />
    <glyph glyph-name="ellipsis" unicode="&#x2026;" horiz-adv-x="1353" 
d="M117 87q0 44 6 87q43 6 87 6t87 -6q6 -43 6 -87t-6 -87q-43 -6 -87 -6t-87 6q-6 43 -6 87zM584 87q0 44 6 87q43 6 87 6t87 -6q6 -43 6 -87t-6 -87q-43 -6 -87 -6t-87 6q-6 43 -6 87zM1051 87q0 44 6 87q43 6 87 6t87 -6q6 -43 6 -87t-6 -87q-43 -6 -87 -6t-87 6
q-6 43 -6 87z" />
    <glyph glyph-name="perthousand" unicode="&#x2030;" horiz-adv-x="3059" 
d="M655 0q-20 -4 -48 -4h-56q-28 0 -45 4l991 1448q32 4 69 4t79 -4zM463 1356q-234 0 -234 -318q1 -154 55 -236t177 -81q233 0 233 317q0 154 -54 236t-177 82zM838 1038q0 -92 -24 -172q-50 -165 -187 -229q-72 -33 -166 -33t-165 33q-139 64 -186 229q-24 80 -24 172
q0 187 96 311t281 124q184 0 279 -122q96 -123 96 -313zM1661 731q-234 0 -234 -317q1 -154 55 -236t177 -82q233 0 233 318q0 154 -54 236t-177 81zM2036 415q0 -190 -96 -314q-96 -123 -281 -122t-280 121t-95 311t96 314t280 123q183 0 280 -122q96 -121 96 -311z
M2570 731q-233 0 -233 -317q0 -154 54 -236t177 -82q232 0 234 318q0 154 -54 236t-178 81zM2945 415q0 -190 -96 -314q-96 -123 -281 -122t-280 122t-95 311q0 191 97 314q98 122 280 122q183 0 279 -122q96 -121 96 -311z" />
    <glyph glyph-name="guilsinglleft" unicode="&#x2039;" horiz-adv-x="735" 
d="M550 88q-40 0 -79 6l-358 453l358 452q80 13 156 0l-351 -448l351 -457q-37 -6 -77 -6z" />
    <glyph glyph-name="guilsinglright" unicode="&#x203a;" horiz-adv-x="735" 
d="M187 88q-40 0 -78 6l350 449l-350 456q79 13 155 0l359 -452l-359 -453q-37 -6 -77 -6z" />
    <glyph glyph-name="fraction" unicode="&#x2044;" horiz-adv-x="450" 
d="M-199 0q-20 -4 -48 -4h-56q-28 0 -45 4l991 1448q32 4 69 4t79 -4z" />
    <glyph glyph-name="zerosuperior" unicode="&#x2070;" horiz-adv-x="921" 
d="M463 1356q-234 0 -234 -318q1 -154 55 -236t177 -81q233 0 233 317q0 154 -54 236t-177 82zM838 1038q0 -92 -24 -172q-50 -165 -187 -229q-72 -33 -166 -33t-165 33q-139 64 -186 229q-24 80 -24 172q0 187 96 311t281 124q184 0 279 -122q96 -123 96 -313z" />
    <glyph glyph-name="foursuperior" unicode="&#x2074;" horiz-adv-x="921" 
d="M623 625q-25 0 -64 4v168h-434l-12 16l342 664q59 -10 116 -37l-272 -529h260v176q61 12 121 0v-176h106q6 -23 6 -61t-6 -53h-106v-168q-32 -4 -57 -4z" />
    <glyph glyph-name="fivesuperior" unicode="&#x2075;" horiz-adv-x="921" 
d="M430 1161q147 0 235 -69q87 -70 87 -205t-108 -208t-255 -74q-148 -1 -242 36q9 73 35 115q86 -35 195 -35t175 39q67 39 69 137q0 63 -50 109q-50 47 -174 49q-60 0 -161 -21l-19 15l21 399h477q2 -8 2 -22v-25q0 -36 -6 -62h-357l-10 -190q48 12 86 12z" />
    <glyph glyph-name="sixsuperior" unicode="&#x2076;" horiz-adv-x="921" 
d="M480 1065q-85 0 -135 -45t-50 -130t49 -130t134 -45t138 44t54 134q0 172 -190 172zM728 1103q77 -73 77 -205t-95 -211t-240 -80q-146 -1 -232 87t-86 276t127 339q127 150 360 172q10 -40 10 -103q-129 -16 -224 -86t-134 -217q70 70 126 85t107 16q127 0 204 -73z" />
    <glyph glyph-name="sevensuperior" unicode="&#x2077;" horiz-adv-x="921" 
d="M195 1335q-5 12 -5 56t5 57h598l6 -6l-381 -828q-35 4 -64 20t-61 32l321 669h-419z" />
    <glyph glyph-name="eightsuperior" unicode="&#x2078;" horiz-adv-x="921" 
d="M639 1268q0 42 -40 74t-120 32t-119 -33q-38 -33 -38 -73t20 -73q20 -34 66 -52q47 -18 75 -27q25 8 53 19q103 37 103 133zM287 842q0 -59 50 -97t144 -38t145 38q50 39 50 87t-22 86q-34 57 -171 98q-196 -42 -196 -174zM338 1069q-141 74 -141 212q0 83 79 138
q80 55 205 55t203 -54q78 -56 78 -148q0 -139 -139 -203q88 -45 117 -79q63 -72 64 -145t-28 -117q-82 -124 -297 -124q-214 0 -294 123q-27 43 -27 118t54 135t126 89z" />
    <glyph glyph-name="ninesuperior" unicode="&#x2079;" horiz-adv-x="921" 
d="M266 1186q0 -172 190 -172q85 0 135 45t50 130t-49 130t-134 45q-84 0 -138 -44t-54 -134zM412 903q-127 0 -204 73t-77 205t95 211t240 80q146 0 232 -88t86 -276t-129 -340q-129 -151 -358 -170q-10 40 -10 102q129 16 224 86t134 218q-69 -69 -125 -85
q-57 -16 -108 -16z" />
    <glyph glyph-name="zeroinferior" unicode="&#x2080;" horiz-adv-x="921" 
d="M463 731q-234 0 -234 -317q1 -154 55 -236t177 -82q233 0 233 318q0 154 -54 236t-177 81zM838 414q0 -190 -97 -313t-280 -122q-184 1 -280 121q-95 120 -95 311t96 314t281 123q184 0 279 -122q96 -122 96 -312z" />
    <glyph glyph-name="oneinferior" unicode="&#x2081;" horiz-adv-x="921" 
d="M791 54q0 -26 -5 -50h-553q-6 26 -6 54t6 57h218v547l-220 -91q-28 26 -49 99l377 161h25v-716h202q5 -35 5 -61z" />
    <glyph glyph-name="twoinferior" unicode="&#x2082;" horiz-adv-x="921" 
d="M421 823q134 0 217 -61q83 -60 83 -164t-46 -189t-140 -178l-117 -114h356v-113h-610l-6 16l254 256q176 176 176 304t-193 127q-68 0 -176 -31q-10 20 -26 110q94 37 228 37z" />
    <glyph glyph-name="threeinferior" unicode="&#x2083;" horiz-adv-x="921" 
d="M768 250q0 -52 -28 -105q-87 -165 -339 -165q-107 0 -227 30l31 111q101 -31 169 -31t111 9q87 18 125 84q18 32 18 75q1 113 -126 149q-37 9 -68 9h-45q-14 0 -33 -4l-8 12l195 293h-314v106h498l10 -20l-207 -303q63 -6 109 -30q129 -68 129 -220z" />
    <glyph glyph-name="fourinferior" unicode="&#x2084;" horiz-adv-x="921" 
d="M622 0q-26 0 -63 4v168h-434l-12 16l342 664q59 -10 116 -37l-272 -528h260v176q31 6 59 6t62 -6v-176h106q6 -23 6 -61t-6 -54h-106v-168q-32 -4 -58 -4z" />
    <glyph glyph-name="fiveinferior" unicode="&#x2085;" horiz-adv-x="921" 
d="M664 467q88 -70 88 -205t-109 -208q-109 -74 -255 -74q-147 0 -241 36q9 75 35 115q86 -35 195 -35t175 39q67 39 68 141t-112 140q-42 14 -104 14t-168 -20l-19 14l21 399h477q2 -8 2 -22v-25q0 -37 -6 -61h-357l-10 -191q46 11 86 13q146 0 234 -70z" />
    <glyph glyph-name="sixinferior" unicode="&#x2086;" horiz-adv-x="921" 
d="M480 440q-85 0 -135 -45t-50 -130t49 -130t134 -45t138 44t54 134q0 172 -190 172zM524 551q127 0 204 -73t77 -205t-96 -211q-96 -80 -240 -80q-145 0 -231 88t-86 276t128 339q128 152 359 171q10 -40 10 -102q-129 -16 -224 -86t-134 -217q67 67 125 84q57 16 108 16z
" />
    <glyph glyph-name="seveninferior" unicode="&#x2087;" horiz-adv-x="921" 
d="M195 711q-5 12 -5 56t5 56h598l6 -6l-381 -827q-35 4 -64 19t-61 32l321 670h-419z" />
    <glyph glyph-name="eightinferior" unicode="&#x2088;" horiz-adv-x="921" 
d="M479 750q-80 0 -119 -33q-38 -33 -38 -73t19 -73q28 -47 142 -79q77 24 102 44q54 40 54 94t-40 87t-120 33zM287 217q0 -59 50 -97t144 -38t145 39q50 39 50 87q0 80 -57 121t-136 62q-196 -42 -196 -174zM338 444q-141 74 -141 212q0 83 79 139q80 55 205 55t203 -55
t78 -148q0 -139 -139 -203q89 -46 118 -80q62 -72 63 -145q1 -126 -103 -187q-85 -52 -218 -52q-217 0 -298 122q-27 43 -27 118t54 135t126 89z" />
    <glyph glyph-name="nineinferior" unicode="&#x2089;" horiz-adv-x="921" 
d="M266 561q0 -172 190 -172q85 0 135 45t50 130t-49 130t-134 45q-84 0 -138 -44t-54 -134zM412 279q-127 1 -204 73t-77 204t95 211t240 80q146 1 232 -87t86 -277t-125 -333q-132 -156 -362 -177q-10 40 -10 103q129 16 224 86t134 217q-70 -70 -126 -85t-107 -15z" />
    <glyph glyph-name="Euro" unicode="&#x20ac;" 
d="M49 562q0 34 8 61h142q-2 19 -2 41v45q0 64 4 120h-144q-8 25 -8 59t8 60h160q47 256 202 390t408 135q190 0 340 -50q-6 -57 -32 -120q-107 42 -301 44q-380 2 -463 -399h596q6 -28 6 -58t-6 -61h-615q-4 -59 -4 -101v-63q0 -22 2 -42h617q6 -29 6 -59t-6 -60h-600
q78 -400 475 -402q186 0 307 66q38 -74 47 -119q-144 -72 -384 -73q-240 -2 -398 132t-201 396h-156q-8 24 -8 58z" />
    <glyph glyph-name="afii61289" unicode="&#x2113;" horiz-adv-x="933" 
d="M211 895q0 406 169 491q54 27 126 27q104 0 172 -77t67 -218q0 -186 -98 -353t-278 -335v-41q0 -220 97 -257q30 -11 80 -11t110 34t94 81l40 -40q20 -20 41 -38q-118 -176 -319 -176q-299 0 -299 342q-27 -20 -51 -36t-49 -36q-16 38 -52 90q74 51 150 119v434z
M494 1294q-48 0 -87 -68q-38 -68 -38 -222v-412q241 267 239 524q0 98 -33 138t-81 40z" />
    <glyph glyph-name="trademark" unicode="&#x2122;" horiz-adv-x="1730" 
d="M1574 623h-39q-15 0 -30 4l-32 602l-224 -441q-24 -4 -42 -4t-44 4l-215 439l-28 -598q-24 -6 -49 -6h-41q-15 0 -31 4l39 821q32 4 67 4t68 -4l239 -492l238 492q32 4 66 4q35 0 69 -4l37 -819q-24 -6 -48 -6zM396 623h-41q-15 0 -29 4v706h-256q-14 56 0 115h630
q7 -28 7 -56t-7 -59h-256v-704q-24 -6 -48 -6z" />
    <glyph glyph-name="uni2126" unicode="&#x2126;" horiz-adv-x="1480" 
d="M70 64q0 44 4 65h286q-109 131 -174 303q-66 172 -66 345q1 342 161 531q159 189 449 189q289 0 448 -188t159 -525q-1 -180 -67 -352t-172 -303h286q5 -25 5 -68t-5 -61h-526l-10 23q131 118 237 336q105 217 105 425q0 281 -119 433q-119 151 -342 151t-342 -152
t-119 -432q0 -221 104 -432t238 -329l-10 -23h-526q-4 20 -4 64z" />
    <glyph glyph-name="estimated" unicode="&#x212e;" horiz-adv-x="1325" 
d="M281 563q0 -14 12 -14h725q14 0 14 14v268q0 39 -24 70q-147 143 -352 142q-204 -1 -347 -142q-28 -33 -28 -70v-268zM657 0q-247 0 -422 157q-176 157 -176 379t177 379q177 156 421 156q125 0 235 -43t190 -118q172 -162 171 -388h-960q-12 0 -12 -16v-264
q0 -35 28 -70q0 -4 4 -4q139 -135 356 -135t371 176h86q-171 -209 -469 -209z" />
    <glyph glyph-name="onethird" unicode="&#x2153;" horiz-adv-x="2150" 
d="M784 684q0 -27 -4 -55h-553q-6 27 -6 55t6 55h217v547l-219 -90q-28 25 -49 98l377 162h25v-717h202q4 -28 4 -55zM1974 250q0 -52 -28 -105t-76 -90q-99 -75 -262 -75q-108 0 -228 30l31 111q100 -31 199 -31t162 44t63 128q0 111 -127 145q-37 9 -68 9h-45
q-14 0 -32 -4l-9 12l195 293h-313v106h497l11 -20l-207 -303q63 -6 108 -30q129 -68 129 -220zM684 0q-20 -4 -48 -4h-57q-28 0 -44 4l991 1448q32 4 68 4t79 -4z" />
    <glyph glyph-name="twothirds" unicode="&#x2154;" horiz-adv-x="2150" 
d="M402 1448q134 0 218 -62t82 -164q0 -104 -46 -189t-140 -177l-117 -115h357v-112h-611l-6 16l254 256q176 176 176 303t-192 127q-80 0 -176 -31q-11 23 -27 111q94 37 228 37zM684 0q-20 -4 -48 -4h-57q-28 0 -44 4l991 1448q32 4 68 4t79 -4zM2015 250q1 -52 -27 -105
t-77 -90q-99 -75 -262 -75q-108 0 -228 30l31 111q100 -31 199 -31t162 44t63 128q0 111 -127 145q-37 9 -68 9h-45q-14 0 -32 -4l-9 12l195 293h-313v106h497l11 -20l-207 -303q63 -6 108 -30q129 -68 129 -220z" />
    <glyph glyph-name="onefifth" unicode="&#x2155;" horiz-adv-x="2150" 
d="M768 684q0 -27 -4 -55h-553q-6 27 -6 55t6 55h217v547l-219 -90q-32 28 -49 98l377 162h24v-717h203q4 -28 4 -55zM696 0q-20 -4 -48 -4h-56q-28 0 -45 4l991 1448q32 4 69 4t79 -4zM1908 467q88 -70 87 -205q0 -135 -109 -208q-109 -74 -255 -74t-240 36q9 77 34 115
q86 -35 195 -35t175 39q67 39 69 137q0 63 -35 96q-64 62 -189 62q-55 0 -161 -20l-19 14l21 399h477q2 -8 2 -22v-25q0 -37 -6 -61h-357l-10 -191q46 11 86 13q147 0 235 -70z" />
    <glyph glyph-name="twofifths" unicode="&#x2156;" horiz-adv-x="2150" 
d="M410 1448q134 0 218 -62t83 -164q0 -104 -46 -189t-141 -177l-116 -115h356v-112h-610l-7 16l254 256q80 80 128 160t49 137q0 133 -193 133q-77 0 -176 -31q-7 14 -27 111q94 37 228 37zM686 0q-20 -4 -48 -4h-57q-28 0 -44 4l991 1448q32 4 69 4t78 -4zM1920 467
q87 -70 87 -205t-109 -208q-109 -74 -255 -74t-240 36q9 77 35 115q86 -35 194 -35t170 37q74 42 74 144t-113 139q-43 14 -105 14t-167 -20l-18 14l20 399h477q2 -8 2 -22v-25q0 -37 -6 -61h-356l-11 -191q46 11 87 13q147 0 234 -70z" />
    <glyph glyph-name="threefifths" unicode="&#x2157;" horiz-adv-x="2150" 
d="M610 883q0 117 -127 148q-37 9 -67 9h-45q-14 0 -33 -4l-8 13l194 292h-313v107h498l10 -21l-207 -303q120 -11 178 -81q58 -69 59 -144q2 -139 -100 -216t-240 -78t-253 30l30 110q154 -48 281 -21q87 18 125 84q18 32 18 75zM645 0q-20 -4 -48 -4h-57q-28 0 -44 4
l991 1448q32 4 69 4t78 -4zM1912 467q88 -70 87 -205q0 -135 -109 -208q-109 -74 -255 -74t-240 36q9 77 35 115q86 -35 194 -35t175 39t68 142t-112 139q-43 14 -105 14q-61 0 -167 -20l-19 14l21 399h477q2 -8 2 -22v-25q0 -37 -6 -61h-356l-11 -191q46 11 86 13
q147 0 235 -70z" />
    <glyph glyph-name="fourfifths" unicode="&#x2158;" horiz-adv-x="2150" 
d="M631 625q-25 0 -64 4v168h-434l-12 16l342 664q59 -10 117 -37l-273 -529h260v176q62 12 121 0v-176h107q6 -23 6 -61t-6 -53h-107v-168q-32 -4 -57 -4zM692 0q-20 -4 -48 -4h-56q-28 0 -45 4l991 1448q32 4 68 4t79 -4zM1942 467q88 -70 88 -205t-109 -208
q-109 -74 -255 -74q-147 0 -241 36q9 75 35 115q86 -35 195 -35t176 39t67 142q0 102 -112 139q-43 14 -104 14t-169 -20l-18 14l21 399h477q2 -8 2 -22v-25q0 -37 -6 -61h-357l-10 -191q46 11 86 13q146 0 234 -70z" />
    <glyph glyph-name="onesixth" unicode="&#x2159;" horiz-adv-x="2150" 
d="M741 684q0 -27 -4 -55h-553q-6 27 -6 55t6 55h217v547l-219 -90q-28 25 -49 98l377 162h25v-717h202q4 -28 4 -55zM688 0q-20 -4 -48 -4h-57q-28 0 -44 4l991 1448q32 4 69 4t78 -4zM1676 440q-85 0 -135 -45t-50 -130t49 -130t134 -45t138 44t54 134q0 172 -190 172z
M1720 551q127 0 204 -73t77 -205t-96 -211q-96 -80 -240 -80q-145 0 -231 88t-86 276t129 340q129 151 358 170q10 -40 10 -102q-129 -16 -224 -86t-134 -217q67 67 125 84q57 16 108 16z" />
    <glyph glyph-name="fivesixths" unicode="&#x215a;" horiz-adv-x="2150" 
d="M397 1161q147 0 235 -69q87 -70 87 -205t-108 -208t-255 -74t-241 36q9 76 35 115q86 -35 194 -35t175 39t68 141t-112 139q-95 31 -272 -6l-19 15l21 399h477q2 -8 2 -22v-25q0 -36 -6 -62h-356l-11 -190q48 12 86 12zM643 0q-20 -4 -48 -4h-57q-28 0 -44 4l991 1448
q32 4 68 4t79 -4zM1882 268q0 172 -189 172q-85 0 -135 -45t-50 -130t48 -130t134 -45t139 44t53 134zM1737 551q127 0 203 -73t77 -206q0 -133 -96 -211q-96 -79 -239 -79q-144 0 -231 88t-87 275t129 340q129 152 358 171q11 -44 11 -102q-288 -36 -359 -303q68 68 125 84
q58 16 109 16z" />
    <glyph glyph-name="oneeighth" unicode="&#x215b;" horiz-adv-x="2150" 
d="M741 684q0 -27 -4 -55h-553q-6 27 -6 55t6 55h217v547l-219 -90q-28 25 -49 98l377 162h25v-717h202q4 -28 4 -55zM680 0q-20 -4 -48 -4h-57q-28 0 -45 4l992 1448q32 4 68 4q37 0 79 -4zM1675 750q-80 0 -119 -33q-38 -33 -38 -73t19 -73q28 -47 142 -79q77 24 102 44
q54 40 54 94t-40 87t-120 33zM1483 217q0 -59 50 -97t144 -38t145 39q50 39 50 87q0 80 -57 121t-136 62q-196 -42 -196 -174zM1534 444q-141 74 -141 212q0 82 80 138q81 56 205 56t202 -55t78 -148q0 -139 -139 -203q89 -46 118 -80q62 -72 63 -145q1 -126 -103 -187
q-85 -52 -218 -52q-217 0 -298 122q-27 43 -27 118t54 135t126 89z" />
    <glyph glyph-name="threeeighths" unicode="&#x215c;" horiz-adv-x="2150" 
d="M723 874q0 -52 -28 -104q-86 -163 -339 -166q-110 0 -227 31l31 110q153 -48 280 -21q87 18 125 84q19 32 19 75q1 116 -127 148q-37 9 -68 9h-45q-14 0 -33 -4l-8 13l195 292h-314v107h498l10 -21l-207 -303q63 -6 109 -29q129 -69 129 -221zM623 0q-20 -4 -48 -4h-57
q-28 0 -45 4l991 1448q32 4 69 4t79 -4zM1679 750q-81 0 -119 -33t-38 -73t19 -73q28 -47 142 -79q77 24 102 44q54 40 54 94t-40 87t-120 33zM1487 217q0 -59 50 -97t144 -38t145 39q50 39 50 87t-16 76q-40 70 -177 107q-196 -42 -196 -174zM1538 444q-141 74 -141 212
q0 82 80 138q81 56 205 56t202 -55t78 -148q0 -139 -139 -203q89 -46 119 -79q63 -72 63 -146q0 -125 -103 -187q-85 -52 -219 -52q-217 0 -298 122q-27 43 -27 118t54 135t126 89z" />
    <glyph glyph-name="fiveeighths" unicode="&#x215d;" horiz-adv-x="2150" 
d="M397 1161q147 0 235 -69q87 -70 87 -205t-108 -208t-255 -74t-241 36q9 76 35 115q86 -35 194 -35t175 39t68 141t-112 139q-95 31 -272 -6l-19 15l21 399h477q2 -8 2 -22v-25q0 -36 -6 -62h-356l-11 -190q48 12 86 12zM625 0q-20 -4 -48 -4h-57q-28 0 -45 4l991 1448
q32 4 69 4t79 -4zM1851 629q1 55 -39 88t-120 33t-119 -33t-39 -73t19 -73q29 -48 143 -79q75 24 103 46q52 36 52 91zM1694 82q94 0 144 39t50 87t-16 76q-39 69 -176 107q-194 -42 -197 -174q1 -59 51 -97t144 -38zM1550 444q-141 74 -141 212q0 82 80 138t205 56
q124 0 202 -55t78 -148q0 -139 -139 -203q89 -46 119 -79q63 -72 63 -146q0 -127 -103 -187q-85 -52 -218 -52q-220 0 -298 122q-28 43 -28 118t54 135t126 89z" />
    <glyph glyph-name="seveneighths" unicode="&#x215e;" horiz-adv-x="2150" 
d="M137 1360v61q0 14 4 27h598l6 -6l-380 -828q-35 4 -64 20t-61 32l321 669h-420q-4 11 -4 25zM549 0q-20 -4 -48 -4h-57q-28 0 -45 4l992 1448q32 4 68 4t79 -4zM1671 750q-80 0 -119 -33t-39 -73t20 -73q29 -47 142 -79q74 24 101 43q55 40 55 95q0 54 -40 87t-120 33z
M1479 217q0 -59 50 -97t144 -38t145 39q50 39 50 87q0 80 -57 121t-136 62q-196 -42 -196 -174zM1530 444q-141 74 -141 212q0 83 79 139q80 55 205 55t203 -55t78 -148q0 -139 -139 -203q89 -46 118 -80q62 -72 63 -145q1 -126 -103 -187q-85 -52 -218 -52q-217 0 -298 122
q-27 43 -27 118t54 135t126 89z" />
    <glyph glyph-name="partialdiff" unicode="&#x2202;" horiz-adv-x="1239" 
d="M985 758q-133 76 -331 77t-286 -101q-89 -102 -89 -286t107 -277q76 -66 201 -68q123 -1 197 41q144 82 183 313q18 113 18 256v45zM569 1473q287 0 432 -209q131 -189 130 -540t-118 -539q-130 -208 -431 -209t-413 246q-42 94 -42 232q0 253 149 382t355 129
q207 0 346 -76q-30 309 -231 416q-77 41 -187 41q-167 0 -307 -78q-39 75 -39 114q147 91 356 91z" />
    <glyph glyph-name="Delta" unicode="&#x2206;" horiz-adv-x="1177" 
d="M973 131l-385 1169l-377 -1169h762zM508 1448q28 4 84 4t84 -4l491 -1448h-1151z" />
    <glyph glyph-name="product" unicode="&#x220f;" horiz-adv-x="1507" 
d="M307 1321h-252q-4 25 -4 63t4 64h1397q4 -24 4 -62t-4 -65h-252v-1692q-24 -4 -67 -4t-74 4v1692h-610v-1692q-28 -4 -72 -4t-70 4v1692z" />
    <glyph glyph-name="summation" unicode="&#x2211;" horiz-adv-x="1124" 
d="M1038 1384q0 -44 -4 -65h-727l400 -756l-428 -807h780q4 -20 4 -64t-4 -65h-987l-11 17l488 919l-461 871l10 14h936q4 -20 4 -64z" />
    <glyph glyph-name="minus" unicode="&#x2212;" 
d="M1055 722q0 -49 -4 -71h-873q-4 20 -4 70t4 70h873q4 -20 4 -69z" />
    <glyph glyph-name="uni2215" unicode="&#x2215;" horiz-adv-x="841" 
d="M667 1479q32 0 68 -6l-499 -1473q-31 -6 -65 -6t-65 6l498 1473q31 6 63 6z" />
    <glyph glyph-name="uni2219" unicode="&#x2219;" horiz-adv-x="419" 
d="M117 566q0 44 6 87q43 6 87 6t87 -6q6 -43 6 -87t-6 -87q-43 -6 -87 -6t-87 6q-6 43 -6 87z" />
    <glyph glyph-name="radical" unicode="&#x221a;" 
d="M111 780q0 44 4 66h260l262 -696l473 1294q24 4 70 4t71 -4l-555 -1444q-32 -6 -64 -6t-65 6l-293 717h-159q-4 19 -4 63z" />
    <glyph glyph-name="infinity" unicode="&#x221e;" horiz-adv-x="1638" 
d="M1186 911q140 -1 238 -99t98 -252t-100 -254t-242 -101q-175 0 -371 256q-157 -213 -294 -246q-43 -10 -97 -10q-54 1 -114 25t-106 70q-100 100 -100 255t101 256t241 100q82 0 170 -58t201 -198q187 256 375 256zM1184 326q92 0 150 64t59 169t-59 167t-142 62
t-126 -32q-84 -59 -181 -199q147 -198 238 -223q30 -8 61 -8zM436 788q-92 0 -150 -63t-58 -167t58 -168q60 -64 142 -64t126 31q83 58 179 200q-143 193 -238 222q-30 9 -59 9z" />
    <glyph glyph-name="integral" unicode="&#x222b;" horiz-adv-x="716" 
d="M525 1354q-112 0 -171 -58q-58 -58 -47 -215l74 -1179q12 -193 -79 -289t-275 -96q-73 0 -140 16q6 57 23 117q201 -45 284 38q63 63 52 220l-74 1179q-12 193 79 289t275 97q69 0 140 -17q-5 -54 -23 -117q-68 15 -118 15z" />
    <glyph glyph-name="approxequal" unicode="&#x2248;" 
d="M444 528q-110 0 -198 -86q-47 34 -72 93q38 47 115 84q77 36 144 36t187 -40t202 -41t165 79q40 -37 68 -108q-112 -99 -244 -99q-62 0 -147 28q-84 28 -130 40q-46 14 -90 14zM444 872q-110 0 -198 -86q-47 34 -72 93q38 47 115 84q77 36 144 36q67 -1 188 -41
q120 -40 202 -40t164 79q40 -37 68 -108q-113 -100 -244 -98q-65 0 -148 27q-83 26 -129 40t-90 14z" />
    <glyph glyph-name="notequal" unicode="&#x2260;" 
d="M1055 902q0 -49 -4 -71h-310l-114 -237h424q4 -20 4 -70t-4 -69h-492l-137 -287q-32 -4 -62 -4q-31 0 -69 4l137 287h-250q-4 19 -4 69t4 70h316l114 237h-430q-4 20 -4 70t4 70h498l137 284q61 8 133 0l-137 -284h242q4 -20 4 -69z" />
    <glyph glyph-name="lessequal" unicode="&#x2264;" 
d="M1055 74q0 -48 -4 -70h-873q-4 20 -4 70t4 69h873q4 -21 4 -69zM1040 1064q0 -42 -6 -67l-710 -286l710 -279q8 -31 8 -81t-8 -70l-856 354q-8 29 -8 77t8 74l856 355q6 -35 6 -77z" />
    <glyph glyph-name="greaterequal" unicode="&#x2265;" 
d="M1055 74q0 -48 -4 -70h-873q-4 20 -4 70t4 69h873q4 -21 4 -69zM172 356q0 42 6 68l711 287l-711 278q-8 31 -8 81t8 71l856 -355q8 -28 8 -76t-8 -75l-856 -354q-6 33 -6 75z" />
    <glyph glyph-name="lozenge" unicode="&#x25ca;" horiz-adv-x="1046" 
d="M522 1493q32 0 66 -6l397 -744l-397 -743q-31 -6 -64 -6t-65 6l-398 743l398 744q31 6 63 6zM846 743l-322 603l-325 -603l321 -602z" />
    <glyph glyph-name="oneseventh" unicode="&#xf506;" horiz-adv-x="2150" 
d="M743 684q0 -27 -4 -55h-553q-6 27 -6 55t6 55h217v547l-219 -90q-28 25 -49 98l377 162h25v-717h202q4 -28 4 -55zM631 0q-20 -4 -48 -4h-57q-28 0 -45 4l992 1448q32 4 68 4t79 -4zM1409 735v62q0 14 4 26h598l6 -6l-381 -827q-36 4 -64 19t-61 32l322 670h-420
q-4 10 -4 24z" />
    <glyph glyph-name="twosevenths" unicode="&#xf507;" horiz-adv-x="2150" 
d="M386 1448q134 0 217 -62t83 -164q0 -104 -46 -189t-140 -177l-117 -115h356v-112h-610l-6 16l254 256q176 176 176 303t-193 127q-77 0 -176 -31q-10 20 -26 111q94 37 228 37zM664 0q-20 -4 -48 -4h-57q-28 0 -45 4l991 1448q32 4 69 4t79 -4zM1421 735v62q0 14 4 26
h598l7 -6l-381 -827q-35 4 -64 19t-61 32l321 670h-420q-4 10 -4 24z" />
    <glyph glyph-name="threesevenths" unicode="&#xf508;" horiz-adv-x="2150" 
d="M725 874q0 -52 -28 -104q-86 -163 -339 -166q-110 0 -227 31l31 110q153 -48 280 -21q87 18 125 84q19 32 19 75q1 116 -127 148q-37 9 -68 9h-45q-14 0 -33 -4l-8 13l195 292h-314v107h498l10 -21l-207 -303q63 -6 109 -29q129 -69 129 -221zM608 0q-20 -4 -48 -4h-56
q-28 0 -45 4l991 1448q32 4 70 4t77 -4zM1413 735v62q0 14 4 26h598l6 -6l-381 -827q-36 4 -64 19t-60 32l321 670h-420q-4 10 -4 24z" />
    <glyph glyph-name="foursevenths" unicode="&#xf509;" horiz-adv-x="2150" 
d="M610 625q-26 0 -63 4v168h-434l-13 16l342 664q59 -10 117 -37l-272 -529h260v176q61 12 121 0v-176h106q6 -23 6 -61t-6 -53h-106v-168q-32 -4 -58 -4zM655 0q-20 -4 -48 -4h-56q-28 0 -45 4l991 1448q32 4 69 4t79 -4zM1444 735v62q0 14 4 26h598l6 -6l-381 -827
q-35 4 -63 19t-62 32l322 670h-420q-4 10 -4 24z" />
    <glyph glyph-name="fivesevenths" unicode="&#xf50a;" horiz-adv-x="2150" 
d="M430 1161q147 0 235 -69q87 -70 87 -205t-108 -208t-255 -74q-148 -1 -242 36q9 73 35 115q86 -35 195 -35t175 39q67 39 69 137q0 63 -50 109q-50 47 -174 49q-60 0 -161 -21l-19 15l21 399h477q2 -8 2 -22v-25q0 -36 -6 -62h-357l-10 -190q48 12 86 12zM608 0
q-20 -4 -48 -4h-56q-28 0 -45 4l991 1448q32 4 70 4t77 -4zM1432 711q-5 12 -5 56t5 56h598l6 -6l-381 -827q-35 4 -64 19t-61 32l321 670h-419z" />
    <glyph glyph-name="sixsevenths" unicode="&#xf50b;" horiz-adv-x="2150" 
d="M639 893q0 172 -189 172q-86 0 -136 -45t-50 -130t49 -130t135 -45t138 44q53 44 53 134zM698 1103q76 -73 76 -205t-95 -211t-239 -80q-145 -1 -232 87t-87 276t128 339t359 172q10 -40 10 -103q-129 -16 -224 -86t-134 -217q70 70 126 85t108 16q128 0 204 -73zM625 0
q-20 -4 -48 -4h-57q-28 0 -45 4l991 1448q32 4 69 4t79 -4zM1430 711q-5 12 -5 56t5 56h598l6 -6l-381 -827q-35 4 -64 19t-61 32l321 670h-419z" />
    <glyph glyph-name="oneninth" unicode="&#xf50c;" horiz-adv-x="2150" 
d="M752 684q0 -27 -4 -55h-553q-13 58 0 110h217v547l-219 -90q-29 26 -50 98l377 162h25v-717h203q4 -28 4 -55zM653 0q-20 -4 -48 -4h-56q-28 0 -45 4l991 1448q32 4 70 4t77 -4zM1473 561q0 -172 189 -172q85 0 135 45t50 130t-49 130t-134 45t-138 -44t-53 -134z
M1414 352q-77 72 -77 204t95 211q95 78 240 80q145 1 232 -87t87 -276t-128 -339t-360 -172q-10 40 -10 103q129 16 224 86t134 217q-45 -45 -75 -62q-65 -38 -175 -38q-110 1 -187 73z" />
    <glyph glyph-name="twoninths" unicode="&#xf50d;" horiz-adv-x="2150" 
d="M394 1448q134 0 217 -62t83 -164q0 -104 -46 -189t-140 -177l-117 -115h357v-112h-611l-6 16l254 256q176 176 176 303t-192 127q-80 0 -176 -31q-11 23 -27 111q94 37 228 37zM680 0q-20 -4 -48 -4h-57q-28 0 -45 4l992 1448q32 4 68 4q37 0 79 -4zM1485 561
q0 -172 189 -172q85 0 135 45q51 45 51 130t-50 130t-134 45q-85 0 -138 -44t-53 -134zM1630 279q-127 1 -204 73q-76 72 -76 205t95 211t239 79q145 1 232 -87t87 -276t-128 -339t-359 -172q-11 44 -11 103q129 16 225 86q95 70 134 217q-70 -70 -145 -90q-38 -10 -89 -10z
" />
    <glyph glyph-name="fourninths" unicode="&#xf50e;" horiz-adv-x="2150" 
d="M618 625q-25 0 -63 4v168h-434l-12 16l342 664q59 -10 116 -37l-272 -529h260v176q61 12 121 0v-176h106q6 -23 6 -61t-6 -53h-106v-168q-32 -4 -58 -4zM674 0q-20 -4 -48 -4h-57q-28 0 -45 4l992 1448q32 4 68 4t79 -4zM1697 389q85 0 135 45t50 130t-49 130t-134 45
t-138 -44t-54 -134q0 -172 190 -172zM1653 279q-127 1 -204 73t-77 204t95 211q95 78 240 80q145 1 231 -87t87 -277q0 -189 -128 -339t-359 -171q-10 40 -10 103q129 16 224 86t134 217q-70 -70 -126 -85t-107 -15z" />
    <glyph glyph-name="fiveninths" unicode="&#xf50f;" horiz-adv-x="2150" 
d="M408 1161q147 1 234 -69t87 -205t-108 -208t-255 -74t-241 36q9 76 35 115q86 -35 194 -35t170 37q74 42 74 144q0 101 -113 138q-95 31 -272 -6l-18 15l20 399h477q2 -8 2 -22v-25q0 -36 -6 -62h-356l-10 -190q48 12 86 12zM629 0q-20 -4 -48 -4h-57q-28 0 -45 4
l991 1448q32 4 69 4t79 -4zM1489 561q0 -172 189 -172q85 0 136 45q50 45 50 130t-49 130t-135 45t-138 -44q-53 -44 -53 -134zM1634 279q-128 1 -204 73t-76 205t95 211t239 79q145 1 232 -87t87 -276t-128 -339t-359 -172q-11 44 -11 103q129 16 225 86q95 70 134 217
q-70 -70 -145 -90q-38 -10 -89 -10z" />
    <glyph glyph-name="sevenninths" unicode="&#xf510;" horiz-adv-x="2150" 
d="M152 1335q-5 12 -5 56t5 57h598l6 -6l-381 -828q-35 4 -64 20t-61 32l321 669h-419zM555 0q-20 -4 -48 -4h-57q-28 0 -44 4l991 1448q33 4 69 4t78 -4zM1658 389q85 0 135 45t50 130t-49 130t-134 45t-138 -44t-54 -134q0 -172 190 -172zM1410 352q-77 72 -77 204t95 211
q95 78 240 80q145 1 232 -87t87 -276t-128 -339t-360 -172q-10 40 -10 103q129 16 224 86t134 217q-45 -45 -76 -62q-66 -38 -175 -38q-109 1 -186 73z" />
    <glyph glyph-name="eightninths" unicode="&#xf511;" horiz-adv-x="2150" 
d="M612 1268q0 42 -40 74t-119 32q-80 0 -119 -33t-39 -73t20 -73q20 -34 66 -52q47 -18 76 -27q25 8 52 19q103 37 103 133zM455 707q94 1 144 39t50 86t-22 87q-32 55 -170 97q-90 -19 -127 -49q-70 -56 -70 -120t50 -103q51 -37 145 -37zM311 1069q-141 74 -141 212
q0 83 80 138t205 55t203 -54q78 -56 77 -148q0 -139 -139 -203q87 -45 117 -79q65 -72 65 -145q0 -74 -28 -118q-83 -123 -298 -123t-293 123q-28 43 -28 118t54 135t126 89zM641 0q-20 -4 -48 -4h-57q-28 0 -44 4l991 1448q32 4 68 4t79 -4zM1485 561q0 -172 189 -172
q85 0 135 45q51 45 51 130t-50 130t-134 45q-85 0 -138 -44t-53 -134zM1630 279q-127 1 -204 73q-76 72 -76 205t95 211t239 79q145 1 232 -87t87 -276t-128 -339t-359 -172q-11 44 -11 103q129 16 225 86q95 70 134 217q-70 -70 -145 -90q-38 -10 -89 -10z" />
    <glyph glyph-name="a.smcp" unicode="&#xf605;" horiz-adv-x="1036" 
d="M737 377l-223 612l-223 -612h446zM440 1116q24 6 78 6t78 -6l424 -1116l-62 -6q-45 0 -81 6l-97 260h-530l-94 -260q-41 -6 -74 -6t-66 6z" />
    <glyph glyph-name="b.smcp" unicode="&#xf606;" horiz-adv-x="1067" 
d="M479 100q171 0 264 50t93 161q0 112 -97 169q-79 48 -213 48h-192v-419q54 -9 145 -9zM485 1020q-117 0 -151 -6v-367h176q116 0 188 50q72 49 72 145t-84 137t-201 41zM905 847q0 -139 -122 -218q-34 -23 -70 -31q100 -14 181 -86t81 -203q0 -161 -132 -244t-324 -83
t-318 18v1116q93 15 227 16q238 2 358 -72q119 -74 119 -213z" />
    <glyph glyph-name="c.smcp" unicode="&#xf607;" horiz-adv-x="1042" 
d="M694 -18q-276 0 -423 152q-146 152 -146 420q0 269 146 428t397 159q150 0 264 -39q-7 -64 -31 -115q-111 33 -227 33q-205 0 -305 -123q-101 -123 -101 -346t110 -336t308 -113q128 0 225 45q33 -57 41 -112q-107 -53 -258 -53z" />
    <glyph glyph-name="d.smcp" unicode="&#xf608;" 
d="M963 556q0 124 -37 208q-72 162 -251 218q-85 26 -186 26t-153 -9v-882q51 -8 150 -10q333 -5 439 238q38 87 38 211zM522 1133q108 0 223 -39t195 -113q164 -152 164 -429t-165 -425q-165 -147 -456 -145q-174 0 -282 18v1116q213 17 321 17z" />
    <glyph glyph-name="e.smcp" unicode="&#xf609;" horiz-adv-x="1019" 
d="M201 0v1116h698q6 -18 6 -59t-6 -64h-563v-338h473q4 -29 4 -63t-4 -60h-473v-409h577q9 -64 0 -123h-712z" />
    <glyph glyph-name="f.smcp" unicode="&#xf60a;" horiz-adv-x="987" 
d="M813 586q0 -34 -4 -60h-473v-526q-35 -6 -69 -6t-66 6v1116h698q6 -18 6 -59t-6 -64h-563v-344h473q4 -29 4 -63z" />
    <glyph glyph-name="g.smcp" unicode="&#xf60b;" horiz-adv-x="1155" 
d="M940 989q-119 31 -240 31q-214 0 -324 -123t-110 -346t119 -336t330 -113q99 0 170 19v450q31 4 65 4q33 0 68 -4v-536q-111 -53 -283 -53t-277 40t-179 114q-154 153 -154 421t155 426t414 158q154 0 279 -39q-8 -61 -33 -113z" />
    <glyph glyph-name="h.smcp" unicode="&#xf60c;" horiz-adv-x="1255" 
d="M265 1122q40 0 71 -6v-465h584v465q32 6 68 6t67 -6v-1116q-31 -6 -68 -6t-67 6v526h-584v-526q-30 -6 -72 -6t-63 6v1116q24 6 64 6z" />
    <glyph glyph-name="i.smcp" unicode="&#xf60d;" horiz-adv-x="536" 
d="M265 1122q40 0 71 -6v-1116q-30 -6 -72 -6t-63 6v1116q24 6 64 6z" />
    <glyph glyph-name="j.smcp" unicode="&#xf60e;" horiz-adv-x="724" 
d="M408 995h-258q-5 15 -5 45v49q0 17 5 27h391v-856q0 -137 -84 -208q-84 -70 -200 -70q-117 0 -175 20q0 59 24 117q178 -39 255 21q46 36 47 139v716z" />
    <glyph glyph-name="k.smcp" unicode="&#xf60f;" horiz-adv-x="1089" 
d="M1059 0q-60 -6 -97 -6t-69 6l-473 563l432 553q30 6 62 6t52 -2t44 -4l-430 -543zM266 1122q34 0 70 -6v-1116q-35 -6 -70 -6t-65 6v1116q31 6 65 6z" />
    <glyph glyph-name="l.smcp" unicode="&#xf610;" horiz-adv-x="919" 
d="M262 1122q41 0 72 -6v-993h549q6 -29 6 -63t-6 -60h-682v1116q20 6 61 6z" />
    <glyph glyph-name="m.smcp" unicode="&#xf611;" horiz-adv-x="1456" 
d="M1210 -6q-42 0 -65 6l-45 905l-340 -676q-28 -6 -54 -6t-51 6l-336 682l-40 -911q-31 -6 -67 -6t-60 6l53 1116q25 6 71 6t86 -6l355 -719l352 719q18 6 73 6q56 0 77 -6l57 -1116q-24 -6 -66 -6z" />
    <glyph glyph-name="n.smcp" unicode="&#xf612;" horiz-adv-x="1275" 
d="M1029 1122q28 0 46 -6v-1116q-21 -6 -62 -6t-67 6l-618 893v-893q-31 -6 -64 -6t-63 6v1116q24 6 61 6t72 -6l616 -897v897q51 6 79 6z" />
    <glyph glyph-name="o.smcp" unicode="&#xf613;" horiz-adv-x="1253" 
d="M626 1018q-166 0 -262 -124t-96 -336t98 -336t261 -124q162 0 261 124t98 337t-98 336q-96 123 -262 123zM125 560q0 259 136 420t367 161t366 -162q136 -162 135 -421t-136 -421t-366 -162q-117 0 -210 43q-188 87 -257 307q-35 109 -35 235z" />
    <glyph glyph-name="p.smcp" unicode="&#xf614;" horiz-adv-x="1036" 
d="M489 1135q199 1 328 -89q129 -89 129 -281t-141 -292t-342 -98q-63 0 -127 6v-381q-37 -6 -73 -6t-62 6v1116q205 19 288 19zM455 498q354 0 354 270q0 129 -88 187t-250 59q-83 0 -135 -8v-504q74 -4 119 -4z" />
    <glyph glyph-name="q.smcp" unicode="&#xf615;" horiz-adv-x="1253" 
d="M626 1018q-166 0 -262 -124t-96 -336t98 -336t261 -124q162 0 261 124t98 337t-98 336q-96 123 -262 123zM125 560q0 259 136 420t367 161t366 -162q136 -162 135 -421t-136 -421t-366 -162q-117 0 -210 43q-188 87 -257 307q-35 109 -35 235zM782 -168q6 66 29 119
l383 -74q-4 -71 -23 -119z" />
    <glyph glyph-name="r.smcp" unicode="&#xf616;" horiz-adv-x="1050" 
d="M457 1137q307 0 414 -171q40 -65 40 -151q0 -244 -249 -348l-25 -10l373 -457q-20 -4 -50 -4h-58q-29 0 -50 4l-414 498v8l51 14q198 56 260 167q26 46 25 108q0 113 -84 169t-225 56q-59 0 -129 -10v-1010q-31 -6 -67 -6t-68 6v1118q166 19 256 19z" />
    <glyph glyph-name="s.smcp" unicode="&#xf617;" horiz-adv-x="950" 
d="M401 100q101 0 154 16q145 45 145 184q0 138 -170 206l-188 76q-119 47 -163 108t-44 173t97 195t269 83t300 -56q-6 -57 -29 -114q-122 53 -251 53q-128 0 -186 -46q-59 -46 -59 -122t42 -110t114 -60l152 -59q260 -97 260 -305q0 -154 -114 -250q-114 -95 -297 -95
t-333 64q3 41 31 123q169 -64 270 -64z" />
    <glyph glyph-name="t.smcp" unicode="&#xf618;" horiz-adv-x="950" 
d="M460 -6q-32 0 -52 6v995h-379q-4 27 -4 61t4 60h893q4 -24 4 -58t-4 -63h-379v-995q-51 -6 -83 -6z" />
    <glyph glyph-name="u.smcp" unicode="&#xf619;" horiz-adv-x="1210" 
d="M230 1122q38 0 73 -6v-653q0 -357 303 -357q143 0 222 83t79 274v653q33 6 67 6t68 -6v-676q0 -223 -112 -341q-112 -117 -325 -117t-325 118t-112 340v676q24 6 62 6z" />
    <glyph glyph-name="v.smcp" unicode="&#xf61a;" horiz-adv-x="1128" 
d="M55 1116q42 6 81 6t63 -6l368 -979l361 979q37 6 78 6t67 -6l-434 -1116q-23 -6 -77 -6t-81 6z" />
    <glyph glyph-name="w.smcp" unicode="&#xf61b;" horiz-adv-x="1574" 
d="M68 1116q42 6 82 6q39 0 63 -6l236 -969l268 969q24 6 73 6t74 -6l271 -975l237 975q31 6 66 6t71 -6l-301 -1116q-24 -6 -82 -6t-82 6l-262 911l-260 -911q-54 -6 -95 -6t-65 6z" />
    <glyph glyph-name="x.smcp" unicode="&#xf61c;" horiz-adv-x="1064" 
d="M896 1120h46q16 0 35 -4l-291 -522l338 -596q-20 -4 -40 -4h-40q-35 0 -72 6l-329 582l280 532q45 6 73 6zM126 1120h36q50 0 84 -6l280 -532l-329 -582q-37 -6 -65 -6h-47q-19 0 -40 4l340 584l-295 534q18 4 36 4z" />
    <glyph glyph-name="y.smcp" unicode="&#xf61d;" horiz-adv-x="999" 
d="M117 1122q37 0 78 -6l315 -584l305 584q33 6 69 6t72 -6l-385 -710v-406q-35 -6 -69 -6t-66 6v406l-393 710q37 6 74 6z" />
    <glyph glyph-name="z.smcp" unicode="&#xf61e;" horiz-adv-x="940" 
d="M119 1053q0 43 6 63h766l8 -12l-633 -983h586q4 -23 4 -61t-4 -60h-795l-10 12l633 983h-555q-6 15 -6 58z" />
    <glyph glyph-name="ae.smcp" unicode="&#xf61f;" horiz-adv-x="1634" 
d="M815 377v616h-8l-399 -616h407zM1532 60q0 -34 -4 -60h-713v260h-483l-168 -260q-41 -6 -78 -6t-70 6l734 1116h763q7 -22 7 -62t-7 -61h-563v-338h473q4 -29 4 -63t-4 -60h-473v-409h578q4 -29 4 -63z" />
    <glyph glyph-name="eng.smcp" unicode="&#xf620;" horiz-adv-x="1275" 
d="M1029 1122q28 0 46 -6v-1210q0 -139 -83 -208t-202 -70t-174 20q0 64 25 110q63 -14 136 -14t123 38t50 142v74l-622 895v-893q-31 -6 -64 -6t-63 6v1116q24 6 61 6t72 -6l616 -897v897q51 6 79 6z" />
    <glyph glyph-name="oe.smcp" unicode="&#xf621;" horiz-adv-x="1619" 
d="M1518 55q0 -33 -5 -55h-686q-94 -23 -205 -24q-112 -1 -205 42q-188 87 -257 307q-35 109 -35 235q0 259 136 420t366 161q111 0 204 -25h668q6 -18 6 -59t-6 -64h-563v-338h473q4 -29 4 -63t-4 -60h-473v-409h577q5 -35 5 -68zM637 1018q-176 0 -273 -124
q-96 -124 -96 -336t98 -336t261 -124q117 0 174 21v876q-70 23 -164 23z" />
    <glyph glyph-name="eth.smcp" unicode="&#xf622;" horiz-adv-x="1243" 
d="M503 1008q-101 0 -153 -9v-360h281q4 -19 4 -57t-4 -56h-281v-409q51 -8 151 -10q335 -5 438 238q38 87 38 211q0 230 -133 341t-341 111zM66 580q0 38 4 59h145v477q213 17 321 17q109 0 224 -39q114 -39 194 -113q164 -152 164 -429t-165 -425q-165 -147 -455 -145
q-175 0 -283 18v526h-145q-4 16 -4 54z" />
    <glyph glyph-name="hbar.smcp" unicode="&#xf623;" horiz-adv-x="1296" 
d="M940 651v170h-584v-170h584zM284 -6q-41 0 -63 6v821h-145q-4 15 -4 53t4 60h145v182q25 6 65 6t70 -6v-182h584v182q31 6 68 6t67 -6v-182h146q4 -20 4 -58t-4 -55h-146v-821q-31 -6 -67 -6t-68 6v526h-584v-526q-31 -6 -72 -6z" />
    <glyph glyph-name="ij.smcp" unicode="&#xf624;" horiz-adv-x="1222" 
d="M265 1122q40 0 71 -6v-1116q-30 -6 -72 -6t-63 6v1116q24 6 64 6zM905 279v716h-258q-4 13 -4 29v65q0 17 4 27h391v-856q0 -139 -84 -209q-84 -69 -201 -69t-173 20q0 59 24 117q178 -39 255 21q46 36 46 139z" />
    <glyph glyph-name="idotaccent.smcp" unicode="&#xf625;" horiz-adv-x="536" 
d="M265 1122q40 0 71 -6v-1116q-30 -6 -72 -6t-63 6v1116q24 6 64 6zM180 1278q-8 42 -8 92t8 94q88 17 187 0q8 -42 8 -92t-8 -94q-41 -8 -91 -8t-96 8z" />
    <glyph glyph-name="dotlessi.smcp" unicode="&#xf626;" horiz-adv-x="536" 
d="M265 1122q40 0 71 -6v-1116q-30 -6 -72 -6t-63 6v1116q24 6 64 6z" />
    <glyph glyph-name="oslash.smcp" unicode="&#xf627;" horiz-adv-x="1253" 
d="M640 98q150 0 248 124q99 124 97 337q0 172 -65 285l-519 -662q89 -84 239 -84zM627 1018q-167 0 -263 -124t-96 -316q0 -193 66 -308l518 662q-90 86 -225 86zM189 -6q-38 0 -68 6l123 158q-119 156 -119 408t136 414q136 161 366 161q184 0 307 -105l61 78q23 10 65 10
t73 -8l-125 -158q122 -161 121 -410q-1 -248 -136 -411q-135 -162 -366 -162q-180 0 -308 103l-61 -78q-31 -6 -69 -6z" />
    <glyph glyph-name="thorn.smcp" unicode="&#xf628;" horiz-adv-x="1036" 
d="M263 -6q-36 0 -62 6v1116q24 6 61 6t74 -6v-160q182 17 288 -11q322 -85 322 -376q0 -195 -139 -294t-344 -99q-63 0 -127 6v-182q-37 -6 -73 -6zM455 299q354 0 354 270q0 142 -92 206q-92 63 -262 65q-47 0 -119 -4v-533q74 -4 119 -4z" />
    <glyph glyph-name="tbar.smcp" unicode="&#xf629;" horiz-adv-x="950" 
d="M460 -6q-32 0 -52 6v522h-224q-4 16 -4 54t4 59h224v360h-379q-4 27 -4 61t4 60h893q4 -24 4 -58t-4 -63h-379v-360h223q4 -19 4 -57t-4 -56h-223v-522q-51 -6 -83 -6z" />
    <glyph glyph-name="kgreenlandic.smcp" unicode="&#xf62a;" horiz-adv-x="1089" 
d="M1059 0q-60 -6 -97 -6t-69 6l-473 563l432 553q30 6 62 6t52 -2t44 -4l-430 -543zM266 1122q34 0 70 -6v-1116q-35 -6 -70 -6t-65 6v1116q31 6 65 6z" />
    <glyph glyph-name="lslash.smcp" unicode="&#xf62b;" horiz-adv-x="919" 
d="M57 387q0 43 6 66l138 96v567q21 6 61 6q41 0 72 -6v-475l207 145q8 -24 8 -62t-8 -62l-207 -146v-393h549q6 -29 6 -63t-6 -60h-682v422l-138 -96q-6 18 -6 61z" />
    <glyph glyph-name="ampersand.smcp" unicode="&#xf62c;" horiz-adv-x="1308" 
d="M928 598h-353q-125 0 -203 -79t-77 -190q0 -112 76 -173q77 -62 201 -62q212 -1 289 88q60 68 67 207v209zM519 1028q-93 0 -143 -48t-50 -117q0 -148 217 -148h385v135l102 98h29v-233h196q8 -48 0 -117h-196v-244q0 -185 -127 -282t-340 -97q-308 0 -410 187
q-35 66 -35 133q0 163 121 287q37 37 80 59q-164 75 -164 233q0 130 97 196q97 67 228 68t216 -26q-9 -75 -27 -106q-86 22 -179 22z" />
    <glyph glyph-name="germandbls.smcp" unicode="&#xf637;" horiz-adv-x="1884" 
d="M401 100q101 0 154 16q145 45 145 184q0 138 -170 206l-188 76q-119 47 -163 108t-44 173t97 195t269 83t300 -56q-6 -57 -29 -114q-122 53 -251 53q-128 0 -186 -46q-59 -46 -59 -122t42 -110t114 -60l152 -59q260 -97 260 -305q0 -154 -114 -250q-114 -95 -297 -95
t-333 64q3 41 31 123q169 -64 270 -64zM1489 117q145 44 145 182t-170 207l-188 76q-119 47 -163 108t-44 173t97 195t268 83t301 -56q-6 -57 -29 -114q-122 53 -251 53q-128 0 -186 -46q-59 -46 -59 -122t42 -110t114 -60l152 -59q260 -97 260 -305q0 -154 -114 -250
q-114 -95 -297 -95t-333 64q3 41 31 123q262 -99 424 -47z" />
    <glyph glyph-name="euro.smcp" unicode="&#xf638;" horiz-adv-x="1124" 
d="M209 500v88q0 23 4 45h-98q-17 52 0 100h116q47 185 183 287t315 102q180 0 287 -39q-7 -63 -31 -114q-107 32 -244 32q-137 1 -232 -69t-132 -199h524q6 -29 6 -49t-6 -51h-545q-4 -45 -4 -79v-54q0 -20 4 -39h545q6 -29 6 -49t-6 -52h-526q80 -256 395 -258
q128 0 225 45q33 -57 41 -112q-108 -53 -299 -53q-192 0 -327 98t-181 280h-114q-17 52 0 101h98q-4 19 -4 39z" />
    <glyph glyph-name="dollar.smcp" unicode="&#xf639;" horiz-adv-x="905" 
d="M111 838q0 104 74 181q75 77 218 95v170q27 6 57 6t60 -6v-166q162 -10 254 -53q-6 -57 -29 -115q-119 52 -249 53t-189 -45t-59 -115q0 -70 47 -108q47 -37 156 -76l51 -18q155 -56 209 -102q55 -46 81 -95t25 -118q0 -129 -74 -217t-223 -117v-176q-30 -6 -58 -6t-59 6
v166h-8q-174 0 -321 63q3 45 30 123q160 -60 291 -62q274 0 279 201q0 78 -60 125t-196 96l-41 15q-131 44 -179 91q-49 46 -68 92t-19 112z" />
    <glyph glyph-name="cent.smcp" unicode="&#xf63a;" horiz-adv-x="899" 
d="M569 106q77 0 179 33q29 -51 40 -104q-84 -39 -182 -45v-174q-30 -6 -58 -6t-59 6v176q-168 20 -261 134t-93 299t94 301t260 138v168q27 6 57 6t60 -6v-166q99 -8 166 -28q-7 -59 -35 -115q-89 28 -174 29q-147 0 -220 -86t-73 -244t78 -237t221 -79z" />
    <glyph glyph-name="sterling.smcp" unicode="&#xf63b;" horiz-adv-x="985" 
d="M889 66q0 -40 -4 -66h-750l-6 27q10 1 36 29q62 65 93 149q31 83 31 143t-17 144h-114q-4 20 -4 55t4 55h96q-12 68 -12 143q0 168 76 262q94 117 284 115q132 0 250 -49q-6 -56 -33 -119q-103 45 -215 45q-223 0 -223 -241q0 -80 12 -156h385q4 -20 4 -55t-4 -55h-366
q14 -91 14 -154q0 -121 -68 -209h527q4 -23 4 -63z" />
    <glyph glyph-name="yen.smcp" unicode="&#xf63c;" horiz-adv-x="999" 
d="M115 1110q39 0 80 -6l311 -475l309 475q32 4 67 4t74 -4l-317 -475h266q6 -29 6 -49t-6 -52h-334v-172h334q6 -30 6 -50t-6 -50h-334v-256q-35 -6 -69 -6t-66 6v256h-317q-8 26 -8 50t8 50h317v172h-317q-8 25 -8 50t8 51h248l-324 475q33 6 72 6z" />
    <glyph glyph-name="florin.smcp" unicode="&#xf63d;" horiz-adv-x="862" 
d="M721 630q0 -34 -4 -57h-240l-53 -399q-25 -194 -102 -289q-77 -96 -252 -96q-73 0 -140 16q6 57 23 117q63 -14 115 -14q107 0 151 52t70 220l53 393h-184q-4 21 -4 55t4 56h198l9 53q26 200 104 294q78 93 250 91q75 0 139 -16q-6 -62 -22 -117q-195 43 -266 -38
q-46 -53 -70 -220l-6 -47h223q4 -20 4 -54z" />
    <glyph glyph-name="exclam.smcp" unicode="&#xf63e;" horiz-adv-x="579" 
d="M201 83q0 40 6 83q43 6 83 6t83 -6q6 -43 6 -83t-6 -83q-43 -6 -83 -6t-83 6q-6 43 -6 83zM293 1120q38 0 72 -4l-9 -778q-28 -4 -62 -4t-58 4l-9 778q28 4 66 4z" />
    <glyph glyph-name="question.smcp" unicode="&#xf63f;" horiz-adv-x="897" 
d="M311 83q0 40 6 83q43 6 83 6t83 -6q6 -43 6 -83t-6 -83q-43 -6 -83 -6t-83 6q-6 43 -6 83zM400 336q-36 0 -62 4v238l61 16q107 31 151 66q44 34 66 72t21 93q0 97 -76 147t-197 50t-229 -43q-25 36 -37 108q121 50 294 51q174 1 279 -80t105 -227t-124 -243
q-87 -68 -185 -90v-158q-31 -4 -67 -4z" />
    <glyph glyph-name="ordfeminine.smcp" unicode="&#xf640;" horiz-adv-x="1024" 
d="M545 741l-111 273l-106 -273h217zM743 526q-32 -4 -61 -4t-57 4l-54 127h-278l-53 -127q-36 -6 -60 -6t-51 6l250 590q24 4 52 4t61 -4z" />
    <glyph glyph-name="ordmasculine.smcp" unicode="&#xf641;" horiz-adv-x="790" 
d="M395 496q-138 0 -214 89q-77 89 -78 230t77 233q78 91 215 91q138 0 215 -89q78 -89 78 -231q0 -224 -166 -299q-55 -24 -127 -24zM395 592q88 0 132 60t44 166t-44 166t-132 60t-132 -60t-44 -166t44 -166t132 -60z" />
    <glyph glyph-name="questiondown.smcp" unicode="&#xf642;" horiz-adv-x="897" 
d="M608 1033q0 -40 -6 -83q-43 -6 -83 -6t-83 6q-6 43 -6 83t6 83q43 6 83 6t83 -6q6 -43 6 -83zM571 94q97 0 213 43q28 -40 37 -108q-121 -50 -294 -51t-278 80t-105 227t123 243q87 68 186 90v146q31 4 67 4t62 -4v-225l-62 -17q-109 -32 -152 -66q-87 -69 -85 -165
q0 -197 288 -197z" />
    <glyph glyph-name="exclamdown.smcp" unicode="&#xf643;" horiz-adv-x="579" 
d="M379 1031q0 -40 -6 -83q-43 -6 -83 -6t-83 6q-6 43 -6 83t6 83q43 6 83 6t83 -6q6 -43 6 -83zM286 -6q-37 0 -71 4l8 758q28 4 62 4q33 0 59 -4l8 -758q-28 -4 -66 -4z" />
    <glyph glyph-name="abreve.smcp" unicode="&#xf644;" horiz-adv-x="1036" 
d="M737 377l-223 612l-223 -612h446zM440 1116q24 6 78 6t78 -6l424 -1116l-62 -6q-45 0 -81 6l-97 260h-530l-94 -260q-41 -6 -74 -6t-66 6zM518 1247q-194 0 -286 118q-36 46 -44 118q33 6 67 6t71 -6q8 -53 52 -90t140 -37t140 37t53 90q33 6 71 6t66 -6
q-14 -129 -129 -190q-87 -46 -201 -46z" />
    <glyph glyph-name="amacron.smcp" unicode="&#xf645;" horiz-adv-x="1036" 
d="M737 377l-223 612l-223 -612h446zM440 1116q24 6 78 6t78 -6l424 -1116l-62 -6q-45 0 -81 6l-97 260h-530l-94 -260q-41 -6 -74 -6t-66 6zM838 1354q0 -38 -4 -56h-644q-4 16 -4 54t4 59h644q4 -19 4 -57z" />
    <glyph glyph-name="aogonek.smcp" unicode="&#xf646;" horiz-adv-x="1036" 
d="M737 377l-223 612l-223 -612h446zM156 0q-41 -6 -74 -6t-66 6l424 1116q24 6 78 6t78 -6l424 -1116q-70 -53 -118 -125t-48 -131q0 -123 137 -123q63 0 111 17q18 -46 24 -113q-64 -19 -138 -20q-190 -2 -256 112q-38 66 -13 154q40 141 158 229l-97 260h-530z" />
    <glyph glyph-name="agrave.smcp" unicode="&#xf647;" horiz-adv-x="1036" 
d="M737 377l-223 612l-223 -612h446zM440 1116q24 6 78 6t78 -6l424 -1116l-62 -6q-45 0 -81 6l-97 260h-530l-94 -260q-41 -6 -74 -6t-66 6zM380 1489q52 0 99 -6l228 -228q-37 -6 -80 -6t-80 6l-264 228q45 6 97 6z" />
    <glyph glyph-name="aacute.smcp" unicode="&#xf648;" horiz-adv-x="1036" 
d="M737 377l-223 612l-223 -612h446zM440 1116q24 6 78 6t78 -6l424 -1116l-62 -6q-45 0 -81 6l-97 260h-530l-94 -260q-41 -6 -74 -6t-66 6zM385 1249q-43 0 -80 6l227 228q46 6 98 6t99 -6l-264 -228q-37 -6 -80 -6z" />
    <glyph glyph-name="acircumflex.smcp" unicode="&#xf649;" horiz-adv-x="1036" 
d="M737 377l-223 612l-223 -612h446zM440 1116q24 6 78 6t78 -6l424 -1116l-62 -6q-45 0 -81 6l-97 260h-530l-94 -260q-41 -6 -74 -6t-66 6zM840 1255q-26 -6 -78 -6t-88 6l-162 144l-164 -144q-49 -6 -95 -6t-75 6l258 228q37 6 74 6t78 -6z" />
    <glyph glyph-name="atilde.smcp" unicode="&#xf64a;" horiz-adv-x="1036" 
d="M737 377l-223 612l-223 -612h446zM440 1116q24 6 78 6t78 -6l424 -1116l-62 -6q-45 0 -81 6l-97 260h-530l-94 -260q-41 -6 -74 -6t-66 6zM684 1282q-62 0 -177 55q-44 20 -85 38t-84 18q-43 -1 -72 -19t-63 -49q-35 41 -51 90q92 98 188 96q65 0 145 -40t122 -57t83 -17
t69 17t64 52q30 -42 51 -94q-96 -90 -190 -90z" />
    <glyph glyph-name="adieresis.smcp" unicode="&#xf64b;" horiz-adv-x="1036" 
d="M737 377l-223 612l-223 -612h446zM440 1116q24 6 78 6t78 -6l424 -1116l-62 -6q-45 0 -81 6l-97 260h-530l-94 -260q-41 -6 -74 -6t-66 6zM631 1366q0 45 6 92q39 6 85 6t93 -6q6 -47 6 -92t-6 -90q-47 -6 -93 -6t-85 6q-6 45 -6 90zM203 1366q0 45 6 92q45 6 91 6t87 -6
q6 -47 6 -92t-6 -90q-41 -6 -87 -6t-91 6q-6 45 -6 90z" />
    <glyph glyph-name="aring.smcp" unicode="&#xf64c;" horiz-adv-x="1036" 
d="M516 1464q-59 0 -90 -39t-31 -98t31 -98t90 -39t90 39t31 98t-31 98t-90 39zM737 377l-223 612l-223 -612h446zM283 1312q0 116 65 181t166 65q102 1 168 -65t67 -155t-40 -147t-111 -83l422 -1108l-62 -6q-45 0 -81 6l-97 260h-530l-94 -260q-41 -6 -74 -6t-66 6
l420 1106q-72 23 -112 83q-40 59 -41 123z" />
    <glyph glyph-name="cacute.smcp" unicode="&#xf64d;" horiz-adv-x="1042" 
d="M694 -18q-276 0 -423 152q-146 152 -146 420q0 269 146 428t397 159q150 0 264 -39q-7 -64 -31 -115q-111 33 -227 33q-205 0 -305 -123q-101 -123 -101 -346t110 -336t308 -113q128 0 225 45q33 -57 41 -112q-107 -53 -258 -53zM567 1249q-43 0 -80 6l228 228q45 6 97 6
t99 -6l-264 -228q-37 -6 -80 -6z" />
    <glyph glyph-name="ccaron.smcp" unicode="&#xf64e;" horiz-adv-x="1042" 
d="M694 -18q-276 0 -423 152q-146 152 -146 420q0 269 146 428t397 159q150 0 264 -39q-7 -64 -31 -115q-111 33 -227 33q-205 0 -305 -123q-101 -123 -101 -346t110 -336t308 -113q128 0 225 45q33 -57 41 -112q-107 -53 -258 -53zM332 1483q27 6 79 6q51 0 87 -6l161 -144
l164 144q49 6 94 6t76 -6l-258 -228q-37 -6 -75 -6t-76 6z" />
    <glyph glyph-name="cdotaccent.smcp" unicode="&#xf64f;" horiz-adv-x="1042" 
d="M694 -18q-276 0 -423 152q-146 152 -146 420q0 269 146 428t397 159q150 0 264 -39q-7 -64 -31 -115q-111 33 -227 33q-205 0 -305 -123q-101 -123 -101 -346t110 -336t308 -113q128 0 225 45q33 -57 41 -112q-107 -53 -258 -53zM569 1278q-8 42 -8 92t8 94q90 18 187 0
q8 -42 8 -92t-8 -94q-41 -8 -91 -8t-96 8z" />
    <glyph glyph-name="ccircumflex.smcp" unicode="&#xf650;" horiz-adv-x="1042" 
d="M694 -18q-276 0 -423 152q-146 152 -146 420q0 269 146 428t397 159q150 0 264 -39q-7 -64 -31 -115q-111 33 -227 33q-205 0 -305 -123q-101 -123 -101 -346t110 -336t308 -113q128 0 225 45q33 -57 41 -112q-107 -53 -258 -53zM991 1255q-27 -6 -79 -6q-51 0 -87 6
l-161 144l-164 -144q-48 -6 -94 -6t-76 6l258 228q37 6 74 6t77 -6z" />
    <glyph glyph-name="ccedilla.smcp" unicode="&#xf651;" horiz-adv-x="1042" 
d="M686 102q128 0 225 45q33 -57 41 -112q-98 -48 -264 -53l-41 -105q11 2 19 2h18q104 0 156 -50t51 -137q0 -87 -77 -136q-77 -50 -186 -50t-169 27q0 67 22 102q70 -24 127 -24q152 0 152 94q0 82 -146 82q-34 0 -106 -12l-10 8l75 205q-213 29 -331 176t-117 403
q0 256 146 415t397 159q150 0 264 -39q-7 -64 -31 -115q-111 33 -227 33q-205 0 -305 -123q-101 -123 -101 -346t110 -336t308 -113z" />
    <glyph glyph-name="dcaron.smcp" unicode="&#xf652;" 
d="M963 556q0 124 -37 208q-72 162 -251 218q-85 26 -186 26t-153 -9v-882q51 -8 150 -10q333 -5 439 238q38 87 38 211zM522 1133q108 0 223 -39t195 -113q164 -152 164 -429t-165 -425q-165 -147 -456 -145q-174 0 -282 18v1116q213 17 321 17zM238 1483q27 6 78 6t87 -6
l162 -144l164 144q49 6 94 6t76 -6l-258 -228q-37 -6 -75 -6t-77 6z" />
    <glyph glyph-name="dcroat.smcp" unicode="&#xf653;" horiz-adv-x="1243" 
d="M503 1008q-101 0 -153 -9v-360h281q4 -19 4 -57t-4 -56h-281v-409q51 -8 151 -10q335 -5 438 238q38 87 38 211q0 230 -133 341t-341 111zM66 580q0 38 4 59h145v477q213 17 321 17q109 0 224 -39q114 -39 194 -113q164 -152 164 -429t-165 -425q-165 -147 -455 -145
q-175 0 -283 18v526h-145q-4 16 -4 54z" />
    <glyph glyph-name="egrave.smcp" unicode="&#xf654;" horiz-adv-x="1019" 
d="M201 0v1116h698q6 -18 6 -59t-6 -64h-563v-338h473q4 -29 4 -63t-4 -60h-473v-409h577q9 -64 0 -123h-712zM378 1489q52 0 99 -6l228 -228q-37 -6 -80 -6t-80 6l-264 228q45 6 97 6z" />
    <glyph glyph-name="eacute.smcp" unicode="&#xf655;" horiz-adv-x="1019" 
d="M201 0v1116h698q6 -18 6 -59t-6 -64h-563v-338h473q4 -29 4 -63t-4 -60h-473v-409h577q9 -64 0 -123h-712zM489 1249q-43 0 -79 6l227 228q45 6 97 6t100 -6l-265 -228q-37 -6 -80 -6z" />
    <glyph glyph-name="ecircumflex.smcp" unicode="&#xf656;" horiz-adv-x="1019" 
d="M201 0v1116h698q6 -18 6 -59t-6 -64h-563v-338h473q4 -29 4 -63t-4 -60h-473v-409h577q9 -64 0 -123h-712zM877 1255q-27 -6 -79 -6t-87 6l-162 144l-164 -144q-49 -6 -95 -6t-75 6l258 228q37 6 74 6t78 -6z" />
    <glyph glyph-name="edieresis.smcp" unicode="&#xf657;" horiz-adv-x="1019" 
d="M201 0v1116h698q6 -18 6 -59t-6 -64h-563v-338h473q4 -29 4 -63t-4 -60h-473v-409h577q9 -64 0 -123h-712zM666 1366q0 45 6 92q39 6 85 6t93 -6q6 -47 6 -92t-6 -90q-47 -6 -93 -6t-85 6q-6 45 -6 90zM238 1366q0 45 6 92q45 6 91 6t87 -6q6 -47 6 -92t-6 -90
q-41 -6 -87 -6t-91 6q-6 45 -6 90z" />
    <glyph glyph-name="ecaron.smcp" unicode="&#xf658;" horiz-adv-x="1019" 
d="M201 0v1116h698q6 -18 6 -59t-6 -64h-563v-338h473q4 -29 4 -63t-4 -60h-473v-409h577q9 -64 0 -123h-712zM219 1483q27 6 79 6t87 -6l162 -144l164 144q49 6 95 6t75 -6l-258 -228q-37 -6 -75 -6t-77 6z" />
    <glyph glyph-name="edotaccent.smcp" unicode="&#xf659;" horiz-adv-x="1019" 
d="M201 0v1116h698q6 -18 6 -59t-6 -64h-563v-338h473q4 -29 4 -63t-4 -60h-473v-409h577q9 -64 0 -123h-712zM459 1278q-8 42 -8 92t8 94q90 18 186 0q8 -42 8 -92t-8 -94q-41 -8 -91 -8t-95 8z" />
    <glyph glyph-name="emacron.smcp" unicode="&#xf65a;" horiz-adv-x="1019" 
d="M201 0v1116h698q6 -18 6 -59t-6 -64h-563v-338h473q4 -29 4 -63t-4 -60h-473v-409h577q9 -64 0 -123h-712zM866 1354q0 -38 -4 -56h-643q-4 16 -4 54t4 59h643q4 -19 4 -57z" />
    <glyph glyph-name="eogonek.smcp" unicode="&#xf65b;" horiz-adv-x="999" 
d="M201 0v1116h698q6 -18 6 -59t-6 -64h-563v-338h473q4 -29 4 -63t-4 -60h-473v-409h577q9 -64 0 -123h-114q-68 -53 -116 -125t-48 -131q0 -123 137 -123q63 0 111 17q18 -46 24 -113q-64 -19 -138 -20q-192 -2 -256 112q-38 66 -13 154q39 140 157 229h-456z" />
    <glyph glyph-name="ebreve.smcp" unicode="&#xf65c;" horiz-adv-x="1019" 
d="M201 0v1116h698q6 -18 6 -59t-6 -64h-563v-338h473q4 -29 4 -63t-4 -60h-473v-409h577q9 -64 0 -123h-712zM344 1293q-115 61 -129 190q33 6 67 6t70 -6q8 -53 52 -90t140 -37t141 37q44 37 52 90q33 6 71 6t66 -6q-14 -129 -129 -190q-87 -46 -200 -46q-114 0 -201 46z
" />
    <glyph glyph-name="gbreve.smcp" unicode="&#xf65d;" horiz-adv-x="1155" 
d="M940 989q-119 31 -240 31q-214 0 -324 -123t-110 -346t119 -336t330 -113q99 0 170 19v450q31 4 65 4q33 0 68 -4v-536q-111 -53 -283 -53t-277 40t-179 114q-154 153 -154 421t155 426t414 158q154 0 279 -39q-8 -61 -33 -113zM631 1247q-194 0 -286 118q-36 46 -44 118
q33 6 67 6t70 -6q8 -53 52 -90t140 -37t141 37q44 37 52 90q33 6 71 6t67 -6q-14 -129 -130 -190q-87 -46 -200 -46z" />
    <glyph glyph-name="gcommaaccent.smcp" unicode="&#xf65e;" horiz-adv-x="1155" 
d="M940 989q-119 31 -240 31q-214 0 -324 -123t-110 -346t119 -336t330 -113q99 0 170 19v450q31 4 65 4q33 0 68 -4v-536q-111 -53 -283 -53t-277 40t-179 114q-154 153 -154 421t155 426t414 158q154 0 279 -39q-8 -61 -33 -113zM609 -498q-34 0 -66 6l94 361q24 6 75 6
t85 -6l-119 -361q-35 -6 -69 -6z" />
    <glyph glyph-name="gdotaccent.smcp" unicode="&#xf65f;" horiz-adv-x="1155" 
d="M940 989q-119 31 -240 31q-214 0 -324 -123t-110 -346t119 -336t330 -113q99 0 170 19v450q31 4 65 4q33 0 68 -4v-536q-111 -53 -283 -53t-277 40t-179 114q-154 153 -154 421t155 426t414 158q154 0 279 -39q-8 -61 -33 -113zM596 1278q-8 42 -8 92t8 94q90 18 186 0
q18 -90 0 -186q-40 -8 -90 -8t-96 8z" />
    <glyph glyph-name="gcircumflex.smcp" unicode="&#xf660;" horiz-adv-x="1155" 
d="M940 989q-119 31 -240 31q-214 0 -324 -123t-110 -346t119 -336t330 -113q99 0 170 19v450q31 4 65 4q33 0 68 -4v-536q-111 -53 -283 -53t-277 40t-179 114q-154 153 -154 421t155 426t414 158q154 0 279 -39q-8 -61 -33 -113zM1004 1255q-27 -6 -78 -6t-88 6l-162 144
l-164 -144q-49 -6 -94 -6t-76 6l258 228q37 6 74 6t78 -6z" />
    <glyph glyph-name="hcircumflex.smcp" unicode="&#xf661;" horiz-adv-x="1255" 
d="M265 1122q40 0 71 -6v-465h584v465q32 6 68 6t67 -6v-1116q-31 -6 -68 -6t-67 6v526h-584v-526q-30 -6 -72 -6t-63 6v1116q24 6 64 6zM956 1255q-27 -6 -78 -6t-87 6l-162 144l-164 -144q-49 -6 -95 -6t-75 6l258 228q37 6 74 6t78 -6z" />
    <glyph glyph-name="igrave.smcp" unicode="&#xf662;" horiz-adv-x="536" 
d="M265 1122q40 0 71 -6v-1116q-30 -6 -72 -6t-63 6v1116q24 6 64 6zM156 1489q52 0 100 -6l227 -228q-37 -6 -79 -6t-80 6l-265 228q45 6 97 6z" />
    <glyph glyph-name="iacute.smcp" unicode="&#xf663;" horiz-adv-x="536" 
d="M265 1122q40 0 71 -6v-1116q-30 -6 -72 -6t-63 6v1116q24 6 64 6zM139 1249q-43 0 -80 6l228 228q45 6 97 6t99 -6l-264 -228q-37 -6 -80 -6z" />
    <glyph glyph-name="icircumflex.smcp" unicode="&#xf664;" horiz-adv-x="536" 
d="M265 1122q40 0 71 -6v-1116q-30 -6 -72 -6t-63 6v1116q24 6 64 6zM602 1255q-27 -6 -78 -6t-88 6l-162 144l-163 -144q-49 -6 -94 -6t-76 6l258 228q37 6 73 6t78 -6z" />
    <glyph glyph-name="idieresis.smcp" unicode="&#xf665;" horiz-adv-x="536" 
d="M265 1122q40 0 71 -6v-1116q-30 -6 -72 -6t-63 6v1116q24 6 64 6zM391 1366q0 45 6 92q39 6 85 6t93 -6q13 -100 0 -182q-47 -6 -93 -6t-85 6q-6 45 -6 90zM-37 1366q0 45 6 92q45 6 91 6t87 -6q13 -100 0 -182q-41 -6 -87 -6t-91 6q-6 45 -6 90z" />
    <glyph glyph-name="imacron.smcp" unicode="&#xf666;" horiz-adv-x="536" 
d="M265 1122q40 0 71 -6v-1116q-30 -6 -72 -6t-63 6v1116q24 6 64 6zM598 1354q0 -38 -4 -56h-643q-4 16 -4 54t4 59h643q4 -19 4 -57z" />
    <glyph glyph-name="iogonek.smcp" unicode="&#xf667;" horiz-adv-x="536" 
d="M265 1122q40 0 71 -6v-1116q-62 -53 -110 -125t-48 -131q0 -123 137 -123q65 0 111 17q16 -40 25 -113q-64 -19 -138 -20q-191 -2 -257 112q-38 66 -13 154q40 141 158 229v1116q24 6 64 6z" />
    <glyph glyph-name="itilde.smcp" unicode="&#xf668;" horiz-adv-x="536" 
d="M265 1122q40 0 71 -6v-1116q-30 -6 -72 -6t-63 6v1116q24 6 64 6zM444 1282q-62 0 -177 55q-44 20 -85 38t-84 18q-44 -1 -72 -19t-63 -49q-35 41 -51 90q92 98 188 96q63 0 145 -40q81 -40 123 -57t83 -17t69 17t64 52q23 -33 51 -94q-96 -90 -191 -90z" />
    <glyph glyph-name="ibreve.smcp" unicode="&#xf669;" horiz-adv-x="536" 
d="M265 1122q40 0 71 -6v-1116q-30 -6 -72 -6t-63 6v1116q24 6 64 6zM72 1293q-115 61 -129 190q33 6 67 6t70 -6q8 -53 52 -90t140 -37t141 37q44 37 52 90q33 6 71 6t66 -6q-14 -129 -129 -190q-87 -46 -201 -46q-113 0 -200 46z" />
    <glyph glyph-name="jcircumflex.smcp" unicode="&#xf66a;" horiz-adv-x="692" 
d="M373 279v716h-258q-4 13 -4 29v65q0 17 4 27h391v-856q0 -137 -84 -208q-84 -70 -200 -70q-117 0 -175 20q0 59 25 117q176 -39 255 21q46 36 46 139zM633 1255q-27 -6 -79 -6t-87 6l-162 144l-164 -144q-49 -6 -94 -6t-76 6l258 228q37 6 74 6t78 -6z" />
    <glyph glyph-name="kcommaaccent.smcp" unicode="&#xf66b;" horiz-adv-x="1089" 
d="M1059 0q-60 -6 -97 -6t-69 6l-473 563l432 553q30 6 62 6t52 -2t44 -4l-430 -543zM266 1122q34 0 70 -6v-1116q-35 -6 -70 -6t-65 6v1116q31 6 65 6zM509 -498q-34 0 -67 6l95 361q24 6 74 6t85 -6l-118 -361q-35 -6 -69 -6z" />
    <glyph glyph-name="lacute.smcp" unicode="&#xf66c;" horiz-adv-x="919" 
d="M262 1122q41 0 72 -6v-993h549q6 -29 6 -63t-6 -60h-682v1116q20 6 61 6zM250 1249q-43 0 -80 6l227 228q45 6 97 6t100 -6l-264 -228q-37 -6 -80 -6z" />
    <glyph glyph-name="lcaron.smcp" unicode="&#xf66d;" horiz-adv-x="919" 
d="M262 1122q41 0 72 -6v-993h549q6 -29 6 -63t-6 -60h-682v1116q20 6 61 6zM604 1126q42 0 76 -4l-14 -413q-69 -12 -129 0v413q25 4 67 4z" />
    <glyph glyph-name="lcommaaccent.smcp" unicode="&#xf66e;" horiz-adv-x="919" 
d="M262 1122q41 0 72 -6v-993h549q6 -29 6 -63t-6 -60h-682v1116q20 6 61 6zM468 -498q-34 0 -67 6l95 361q24 6 74 6t85 -6l-118 -361q-35 -6 -69 -6z" />
    <glyph glyph-name="ldot.smcp" unicode="&#xf66f;" horiz-adv-x="919" 
d="M262 1122q41 0 72 -6v-993h549q6 -29 6 -63t-6 -60h-682v1116q20 6 61 6zM627 632q0 44 6 87q43 6 87 6t87 -6q6 -43 6 -87t-6 -87q-43 -6 -87 -6t-87 6q-6 43 -6 87z" />
    <glyph glyph-name="nacute.smcp" unicode="&#xf670;" horiz-adv-x="1275" 
d="M1029 1122q28 0 46 -6v-1116q-21 -6 -62 -6t-67 6l-618 893v-893q-31 -6 -64 -6t-63 6v1116q24 6 61 6t72 -6l616 -897v897q51 6 79 6zM606 1249q-43 0 -80 6l228 228q45 6 97 6t99 -6l-264 -228q-37 -6 -80 -6z" />
    <glyph glyph-name="napostrophe.smcp" unicode="&#xf671;" horiz-adv-x="1355" 
d="M1108 1122q27 0 47 -6v-1116q-21 -6 -62 -6t-67 6l-618 893v-893q-31 -6 -64 -6t-63 6v1116q24 6 61 6t72 -6l616 -897v897q51 6 78 6zM76 1116h-29q-31 0 -63 4l84 344l71 4q52 0 82 -6l-112 -342q-19 -4 -33 -4z" />
    <glyph glyph-name="ntilde.smcp" unicode="&#xf672;" horiz-adv-x="1275" 
d="M1029 1122q28 0 46 -6v-1116q-21 -6 -62 -6t-67 6l-618 893v-893q-31 -6 -64 -6t-63 6v1116q24 6 61 6t72 -6l616 -897v897q51 6 79 6zM809 1282q-62 0 -177 55q-44 20 -85 38t-84 18q-43 -1 -72 -19t-63 -49q-35 41 -52 90q92 98 189 96q65 0 145 -40t122 -57t83 -17
t69 17t64 52q30 -42 51 -94q-96 -90 -190 -90z" />
    <glyph glyph-name="ncaron.smcp" unicode="&#xf673;" horiz-adv-x="1275" 
d="M1029 1122q28 0 46 -6v-1116q-21 -6 -62 -6t-67 6l-618 893v-893q-31 -6 -64 -6t-63 6v1116q24 6 61 6t72 -6l616 -897v897q51 6 79 6zM332 1483q27 6 79 6q51 0 87 -6l161 -144l164 144q49 6 94 6t76 -6l-258 -228q-37 -6 -75 -6t-76 6z" />
    <glyph glyph-name="ncommaaccent.smcp" unicode="&#xf674;" horiz-adv-x="1275" 
d="M1029 1122q28 0 46 -6v-1116q-21 -6 -62 -6t-67 6l-618 893v-893q-31 -6 -64 -6t-63 6v1116q24 6 61 6t72 -6l616 -897v897q51 6 79 6zM560 -498q-34 0 -66 6l94 361q24 6 75 6t85 -6l-119 -361q-35 -6 -69 -6z" />
    <glyph glyph-name="ograve.smcp" unicode="&#xf675;" horiz-adv-x="1253" 
d="M626 1018q-166 0 -262 -124t-96 -336t98 -336t261 -124q162 0 261 124t98 337t-98 336q-96 123 -262 123zM125 560q0 259 136 420t367 161t366 -162q136 -162 135 -421t-136 -421t-366 -162q-117 0 -210 43q-188 87 -257 307q-35 109 -35 235zM480 1489q52 0 100 -6
l227 -228q-37 -6 -80 -6t-80 6l-264 228q45 6 97 6z" />
    <glyph glyph-name="oacute.smcp" unicode="&#xf676;" horiz-adv-x="1253" 
d="M626 1018q-166 0 -262 -124t-96 -336t98 -336t261 -124q162 0 261 124t98 337t-98 336q-96 123 -262 123zM125 560q0 259 136 420t367 161t366 -162q136 -162 135 -421t-136 -421t-366 -162q-117 0 -210 43q-188 87 -257 307q-35 109 -35 235zM518 1249q-43 0 -80 6
l228 228q45 6 97 6t99 -6l-264 -228q-37 -6 -80 -6z" />
    <glyph glyph-name="ocircumflex.smcp" unicode="&#xf677;" horiz-adv-x="1253" 
d="M626 1018q-166 0 -262 -124t-96 -336t98 -336t261 -124q162 0 261 124t98 337t-98 336q-96 123 -262 123zM125 560q0 259 136 420t367 161t366 -162q136 -162 135 -421t-136 -421t-366 -162q-117 0 -210 43q-188 87 -257 307q-35 109 -35 235zM956 1255q-27 -6 -78 -6
t-87 6l-162 144l-164 -144q-49 -6 -95 -6t-75 6l258 228q37 6 74 6t78 -6z" />
    <glyph glyph-name="otilde.smcp" unicode="&#xf678;" horiz-adv-x="1253" 
d="M626 1018q-166 0 -262 -124t-96 -336t98 -336t261 -124q162 0 261 124t98 337t-98 336q-96 123 -262 123zM125 560q0 259 136 420t367 161t366 -162q136 -162 135 -421t-136 -421t-366 -162q-117 0 -210 43q-188 87 -257 307q-35 109 -35 235zM799 1282q-62 0 -177 55
q-44 20 -85 38t-84 18q-43 -1 -72 -19t-64 -49q-35 41 -51 90q92 98 189 96q65 0 145 -40t122 -57t83 -17t69 17t64 52q30 -42 51 -94q-96 -90 -190 -90z" />
    <glyph glyph-name="odieresis.smcp" unicode="&#xf679;" horiz-adv-x="1253" 
d="M626 1018q-166 0 -262 -124t-96 -336t98 -336t261 -124q162 0 261 124t98 337t-98 336q-96 123 -262 123zM125 560q0 259 136 420t367 161t366 -162q136 -162 135 -421t-136 -421t-366 -162q-117 0 -210 43q-188 87 -257 307q-35 109 -35 235zM837 1464q46 0 93 -6
q6 -47 6 -92t-6 -90q-47 -6 -93 -6t-85 6q-13 96 0 182q39 6 85 6zM415 1464q46 0 87 -6q6 -47 6 -92t-6 -90q-41 -6 -87 -6t-91 6q-13 96 0 182q45 6 91 6z" />
    <glyph glyph-name="ohungarumlaut.smcp" unicode="&#xf67a;" horiz-adv-x="1253" 
d="M626 1018q-166 0 -262 -124t-96 -336t98 -336t261 -124q162 0 261 124t98 337t-98 336q-96 123 -262 123zM125 560q0 259 136 420t367 161t366 -162q136 -162 135 -421t-136 -421t-366 -162q-117 0 -210 43q-188 87 -257 307q-35 109 -35 235zM782 1247q-41 0 -77 6
l208 234q23 4 48 4h47q52 0 96 -4l-244 -234q-37 -6 -78 -6zM395 1247q-41 0 -78 6l209 234q24 4 48 4h47q52 0 96 -4l-244 -234q-37 -6 -78 -6z" />
    <glyph glyph-name="omacron.smcp" unicode="&#xf67b;" horiz-adv-x="1253" 
d="M626 1018q-166 0 -262 -124t-96 -336t98 -336t261 -124q162 0 261 124t98 337t-98 336q-96 123 -262 123zM125 560q0 259 136 420t367 161t366 -162q136 -162 135 -421t-136 -421t-366 -162q-117 0 -210 43q-188 87 -257 307q-35 109 -35 235zM952 1354q0 -38 -4 -56
h-643q-4 16 -4 54t4 59h643q4 -19 4 -57z" />
    <glyph glyph-name="obreve.smcp" unicode="&#xf67c;" horiz-adv-x="1253" 
d="M626 1018q-166 0 -262 -124t-96 -336t98 -336t261 -124q162 0 261 124t98 337t-98 336q-96 123 -262 123zM125 560q0 259 136 420t367 161t366 -162q136 -162 135 -421t-136 -421t-366 -162q-117 0 -210 43q-188 87 -257 307q-35 109 -35 235zM426 1293q-115 61 -129 190
q33 6 67 6t70 -6q8 -53 52 -90t140 -37t141 37q44 37 52 90q33 6 71 6t66 -6q-14 -129 -129 -190q-87 -46 -201 -46t-200 46z" />
    <glyph glyph-name="racute.smcp" unicode="&#xf67d;" horiz-adv-x="1050" 
d="M457 1137q307 0 414 -171q40 -65 40 -151q0 -244 -249 -348l-25 -10l373 -457q-20 -4 -50 -4h-58q-29 0 -50 4l-414 498v8l51 14q198 56 260 167q26 46 25 108q0 113 -84 169t-225 56q-59 0 -129 -10v-1010q-31 -6 -67 -6t-68 6v1118q166 19 256 19zM428 1249
q-43 0 -80 6l227 228q45 6 97 6t100 -6l-264 -228q-37 -6 -80 -6z" />
    <glyph glyph-name="rcaron.smcp" unicode="&#xf67e;" horiz-adv-x="1050" 
d="M457 1137q307 0 414 -171q40 -65 40 -151q0 -244 -249 -348l-25 -10l373 -457q-20 -4 -50 -4h-58q-29 0 -50 4l-414 498v8l51 14q198 56 260 167q26 46 25 108q0 113 -84 169t-225 56q-59 0 -129 -10v-1010q-31 -6 -67 -6t-68 6v1118q166 19 256 19zM170 1483q27 6 79 6
q51 0 87 -6l162 -144l164 144q49 6 94 6t75 -6l-258 -228q-37 -6 -75 -6t-76 6z" />
    <glyph glyph-name="rcommaaccent.smcp" unicode="&#xf67f;" horiz-adv-x="1050" 
d="M457 1137q307 0 414 -171q40 -65 40 -151q0 -244 -249 -348l-25 -10l373 -457q-20 -4 -50 -4h-58q-29 0 -50 4l-414 498v8l51 14q198 56 260 167q26 46 25 108q0 113 -84 169t-225 56q-59 0 -129 -10v-1010q-31 -6 -67 -6t-68 6v1118q166 19 256 19zM498 -498
q-34 0 -66 6l94 361q24 6 75 6t85 -6l-119 -361q-35 -6 -69 -6z" />
    <glyph glyph-name="sacute.smcp" unicode="&#xf680;" horiz-adv-x="950" 
d="M401 100q101 0 154 16q145 45 145 184q0 138 -170 206l-188 76q-119 47 -163 108t-44 173t97 195t269 83t300 -56q-6 -57 -29 -114q-122 53 -251 53q-128 0 -186 -46q-59 -46 -59 -122t42 -110t114 -60l152 -59q260 -97 260 -305q0 -154 -114 -250q-114 -95 -297 -95
t-333 64q3 41 31 123q169 -64 270 -64zM395 1249q-43 0 -80 6l228 228q45 6 97 6t99 -6l-264 -228q-37 -6 -80 -6z" />
    <glyph glyph-name="scommaaccent.smcp" unicode="&#xf681;" horiz-adv-x="950" 
d="M401 100q101 0 154 16q145 45 145 184q0 138 -170 206l-188 76q-119 47 -163 108t-44 173t97 195t269 83t300 -56q-6 -57 -29 -114q-122 53 -251 53q-128 0 -186 -46q-59 -46 -59 -122t42 -110t114 -60l152 -59q260 -97 260 -305q0 -154 -114 -250q-114 -95 -297 -95
t-333 64q3 41 31 123q169 -64 270 -64zM408 -498q-34 0 -66 6l94 361q24 6 75 6t85 -6l-119 -361q-35 -6 -69 -6z" />
    <glyph glyph-name="scedilla.smcp" unicode="&#xf682;" horiz-adv-x="950" 
d="M401 100q101 0 154 16q145 45 145 184q0 138 -170 206l-188 76q-119 47 -163 108t-44 173t97 195t269 83t300 -56q-6 -57 -29 -114q-122 53 -251 53q-128 0 -186 -46q-59 -46 -59 -122t42 -110t114 -60l152 -59q260 -97 260 -305q0 -134 -90 -228t-265 -112l-40 -105
q10 2 18 2h18q103 0 155 -50t52 -137t-77 -136q-77 -50 -186 -50t-169 27q0 68 23 102q70 -24 127 -24q151 0 151 94q0 82 -145 82q-35 0 -107 -12l-10 8l74 197q-151 8 -273 61q3 41 31 123q169 -64 270 -64z" />
    <glyph glyph-name="scaron.smcp" unicode="&#xf683;" horiz-adv-x="950" 
d="M401 100q101 0 154 16q145 45 145 184q0 138 -170 206l-188 76q-119 47 -163 108t-44 173t97 195t269 83t300 -56q-6 -57 -29 -114q-122 53 -251 53q-128 0 -186 -46q-59 -46 -59 -122t42 -110t114 -60l152 -59q260 -97 260 -305q0 -154 -114 -250q-114 -95 -297 -95
t-333 64q3 41 31 123q169 -64 270 -64zM168 1483q27 6 79 6t87 -6l162 -144l163 144q49 6 94 6t76 -6l-258 -228q-37 -6 -75 -6t-76 6z" />
    <glyph glyph-name="scircumflex.smcp" unicode="&#xf684;" horiz-adv-x="950" 
d="M401 100q101 0 154 16q145 45 145 184q0 138 -170 206l-188 76q-119 47 -163 108t-44 173t97 195t269 83t300 -56q-6 -57 -29 -114q-122 53 -251 53q-128 0 -186 -46q-59 -46 -59 -122t42 -110t114 -60l152 -59q260 -97 260 -305q0 -154 -114 -250q-114 -95 -297 -95
t-333 64q3 41 31 123q169 -64 270 -64zM809 1255q-27 -6 -78 -6t-88 6l-162 144l-164 -144q-49 -6 -94 -6t-76 6l259 228q38 6 74 6t77 -6z" />
    <glyph glyph-name="tcaron.smcp" unicode="&#xf685;" horiz-adv-x="950" 
d="M460 -6q-32 0 -52 6v995h-379q-4 27 -4 61t4 60h893q4 -24 4 -58t-4 -63h-379v-995q-51 -6 -83 -6zM150 1483q27 6 78 6t87 -6l162 -144l164 144q49 6 95 6t75 -6l-258 -228q-37 -6 -75 -6t-77 6z" />
    <glyph glyph-name="uni021B.smcp" unicode="&#xf686;" horiz-adv-x="950" 
d="M460 -6q-32 0 -52 6v995h-379q-4 27 -4 61t4 60h893q4 -24 4 -58t-4 -63h-379v-995q-51 -6 -83 -6zM374 -498q-34 0 -67 6l94 361q24 6 75 6t85 -6l-119 -361q-34 -6 -68 -6z" />
    <glyph glyph-name="tcommaaccent.smcp" unicode="&#xf687;" horiz-adv-x="950" 
d="M460 -6q-32 0 -52 6v995h-379q-4 27 -4 61t4 60h893q4 -24 4 -58t-4 -63h-379v-995q-51 -6 -83 -6zM372 -498q-34 0 -67 6l94 361q24 6 75 6t85 -6l-119 -361q-34 -6 -68 -6z" />
    <glyph glyph-name="uhungarumlaut.smcp" unicode="&#xf688;" horiz-adv-x="1210" 
d="M230 1122q38 0 73 -6v-653q0 -357 303 -357q143 0 222 83t79 274v653q33 6 67 6t68 -6v-676q0 -223 -112 -341q-112 -117 -325 -117t-325 118t-112 340v676q24 6 62 6zM774 1247q-41 0 -78 6l209 234q23 4 47 4h47q53 0 97 -4l-244 -234q-37 -6 -78 -6zM387 1247
q-41 0 -78 6l209 234q24 4 48 4h46q53 0 97 -4l-244 -234q-37 -6 -78 -6z" />
    <glyph glyph-name="ugrave.smcp" unicode="&#xf689;" horiz-adv-x="1210" 
d="M230 1122q38 0 73 -6v-653q0 -357 303 -357q143 0 222 83t79 274v653q33 6 67 6t68 -6v-676q0 -223 -112 -341q-112 -117 -325 -117t-325 118t-112 340v676q24 6 62 6zM423 1489q52 0 99 -6l228 -228q-37 -6 -80 -6t-80 6l-264 228q45 6 97 6z" />
    <glyph glyph-name="uacute.smcp" unicode="&#xf68a;" horiz-adv-x="1210" 
d="M230 1122q38 0 73 -6v-653q0 -357 303 -357q143 0 222 83t79 274v653q33 6 67 6t68 -6v-676q0 -223 -112 -341q-112 -117 -325 -117t-325 118t-112 340v676q24 6 62 6zM551 1249q-43 0 -80 6l227 228q46 6 98 6t99 -6l-264 -228q-37 -6 -80 -6z" />
    <glyph glyph-name="ucircumflex.smcp" unicode="&#xf68b;" horiz-adv-x="1210" 
d="M230 1122q38 0 73 -6v-653q0 -357 303 -357q143 0 222 83t79 274v653q33 6 67 6t68 -6v-676q0 -223 -112 -341q-112 -117 -325 -117t-325 118t-112 340v676q24 6 62 6zM938 1255q-26 -6 -78 -6q-51 0 -88 6l-162 144l-164 -144q-49 -6 -94 -6t-76 6l259 228q37 6 73 6
t78 -6z" />
    <glyph glyph-name="udieresis.smcp" unicode="&#xf68c;" horiz-adv-x="1210" 
d="M230 1122q38 0 73 -6v-653q0 -357 303 -357q143 0 222 83t79 274v653q33 6 67 6t68 -6v-676q0 -223 -112 -341q-112 -117 -325 -117t-325 118t-112 340v676q24 6 62 6zM723 1366q0 45 6 92q39 6 85 6t93 -6q6 -47 6 -92t-6 -90q-47 -6 -93 -6t-85 6q-6 45 -6 90z
M295 1366q0 45 6 92q45 6 91 6t87 -6q6 -47 6 -92t-6 -90q-41 -6 -87 -6t-91 6q-6 45 -6 90z" />
    <glyph glyph-name="umacron.smcp" unicode="&#xf68d;" horiz-adv-x="1210" 
d="M230 1122q38 0 73 -6v-653q0 -357 303 -357q143 0 222 83t79 274v653q33 6 67 6t68 -6v-676q0 -223 -112 -341q-112 -117 -325 -117t-325 118t-112 340v676q24 6 62 6zM930 1354q0 -38 -4 -56h-643q-4 16 -4 54t4 59h643q4 -19 4 -57z" />
    <glyph glyph-name="uogonek.smcp" unicode="&#xf68e;" horiz-adv-x="1210" 
d="M230 1122q38 0 73 -6v-653q0 -357 303 -357q143 0 222 83t79 274v653q33 6 67 6t68 -6v-676q0 -367 -286 -440q-68 -53 -116 -125t-48 -131q0 -123 137 -123q63 0 111 17q18 -46 24 -113q-64 -19 -138 -20q-192 -2 -256 112q-51 91 16 229q38 76 106 136q-207 4 -316 122
t-108 336v676q24 6 62 6z" />
    <glyph glyph-name="uring.smcp" unicode="&#xf68f;" horiz-adv-x="1210" 
d="M230 1122q38 0 73 -6v-653q0 -357 303 -357q143 0 222 83t79 274v653q33 6 67 6t68 -6v-676q0 -223 -112 -341q-112 -117 -325 -117t-325 118t-112 340v676q24 6 62 6zM604 1620q102 0 167 -66t66 -166t-65 -164q-66 -65 -168 -66q-102 -2 -168 64t-65 168q-1 102 65 166
t168 64zM604 1526q-59 0 -90 -39t-31 -98t31 -99t90 -39q59 0 90 39q31 38 31 98t-31 99t-90 39z" />
    <glyph glyph-name="utilde.smcp" unicode="&#xf690;" horiz-adv-x="1210" 
d="M230 1122q38 0 73 -6v-653q0 -357 303 -357q143 0 222 83t79 274v653q33 6 67 6t68 -6v-676q0 -223 -112 -341q-112 -117 -325 -117t-325 118t-112 340v676q24 6 62 6zM776 1282q-62 0 -177 55q-44 20 -85 38t-84 18q-43 -1 -72 -19t-63 -49q-35 41 -51 90q92 98 188 96
q65 0 145 -40t122 -57t83 -17t69 17t64 52q26 -38 52 -94q-96 -90 -191 -90z" />
    <glyph glyph-name="ubreve.smcp" unicode="&#xf691;" horiz-adv-x="1210" 
d="M230 1122q38 0 73 -6v-653q0 -357 303 -357q143 0 222 83t79 274v653q33 6 67 6t68 -6v-676q0 -223 -112 -341q-112 -117 -325 -117t-325 118t-112 340v676q24 6 62 6zM604 1247q-194 0 -286 118q-36 46 -44 118q33 6 67 6t71 -6q8 -53 52 -90t140 -37t140 37t53 90
q33 6 71 6t66 -6q-14 -129 -129 -190q-87 -46 -201 -46z" />
    <glyph glyph-name="wgrave.smcp" unicode="&#xf692;" horiz-adv-x="1574" 
d="M68 1116q42 6 82 6q39 0 63 -6l236 -969l268 969q24 6 73 6t74 -6l271 -975l237 975q31 6 66 6t71 -6l-301 -1116q-24 -6 -82 -6t-82 6l-262 911l-260 -911q-54 -6 -95 -6t-65 6zM668 1489q52 0 100 -6l227 -228q-37 -6 -79 -6t-80 6l-265 228q45 6 97 6z" />
    <glyph glyph-name="wacute.smcp" unicode="&#xf693;" horiz-adv-x="1574" 
d="M68 1116q42 6 82 6q39 0 63 -6l236 -969l268 969q24 6 73 6t74 -6l271 -975l237 975q31 6 66 6t71 -6l-301 -1116q-24 -6 -82 -6t-82 6l-262 911l-260 -911q-54 -6 -95 -6t-65 6zM651 1249q-43 0 -80 6l228 228q45 6 97 6t99 -6l-264 -228q-37 -6 -80 -6z" />
    <glyph glyph-name="wcircumflex.smcp" unicode="&#xf694;" horiz-adv-x="1574" 
d="M68 1116q42 6 82 6q39 0 63 -6l236 -969l268 969q24 6 73 6t74 -6l271 -975l237 975q31 6 66 6t71 -6l-301 -1116q-24 -6 -82 -6t-82 6l-262 911l-260 -911q-54 -6 -95 -6t-65 6zM1114 1255q-26 -6 -78 -6t-88 6l-162 144l-163 -144q-49 -6 -95 -6t-75 6l258 228
q37 6 73 6t78 -6z" />
    <glyph glyph-name="wdieresis.smcp" unicode="&#xf695;" horiz-adv-x="1574" 
d="M68 1116q42 6 82 6q39 0 63 -6l236 -969l268 969q24 6 73 6t74 -6l271 -975l237 975q31 6 66 6t71 -6l-301 -1116q-24 -6 -82 -6t-82 6l-262 911l-260 -911q-54 -6 -95 -6t-65 6zM903 1366q0 45 6 92q39 6 85 6t93 -6q13 -100 0 -182q-47 -6 -93 -6t-85 6q-6 45 -6 90z
M475 1366q0 45 6 92q45 6 91 6t87 -6q13 -100 0 -182q-41 -6 -87 -6t-91 6q-6 45 -6 90z" />
    <glyph glyph-name="ygrave.smcp" unicode="&#xf696;" horiz-adv-x="999" 
d="M117 1122q37 0 78 -6l315 -584l305 584q33 6 69 6t72 -6l-385 -710v-406q-35 -6 -69 -6t-66 6v406l-393 710q37 6 74 6zM374 1489q52 0 99 -6l227 -228q-38 -6 -80 -6t-79 6l-265 228q46 6 98 6z" />
    <glyph glyph-name="yacute.smcp" unicode="&#xf697;" horiz-adv-x="999" 
d="M117 1122q37 0 78 -6l315 -584l305 584q33 6 69 6t72 -6l-385 -710v-406q-35 -6 -69 -6t-66 6v406l-393 710q37 6 74 6zM422 1249q-43 0 -80 6l227 228q45 6 97 6t100 -6l-264 -228q-37 -6 -80 -6z" />
    <glyph glyph-name="ycircumflex.smcp" unicode="&#xf698;" horiz-adv-x="999" 
d="M117 1122q37 0 78 -6l315 -584l305 584q33 6 69 6t72 -6l-385 -710v-406q-35 -6 -69 -6t-66 6v406l-393 710q37 6 74 6zM834 1255q-27 -6 -79 -6t-87 6l-162 144l-164 -144q-49 -6 -94 -6t-76 6l258 228q37 6 74 6t78 -6z" />
    <glyph glyph-name="ydieresis.smcp" unicode="&#xf699;" horiz-adv-x="999" 
d="M117 1122q37 0 78 -6l315 -584l305 584q33 6 69 6t72 -6l-385 -710v-406q-35 -6 -69 -6t-66 6v406l-393 710q37 6 74 6zM623 1366q0 45 6 92q39 6 85 6t93 -6q6 -47 6 -92t-6 -90q-47 -6 -93 -6t-85 6q-6 45 -6 90zM195 1366q0 45 6 92q45 6 91 6t87 -6q6 -47 6 -92
t-6 -90q-41 -6 -87 -6t-91 6q-6 45 -6 90z" />
    <glyph glyph-name="zdotaccent.smcp" unicode="&#xf69a;" horiz-adv-x="940" 
d="M119 1053q0 43 6 63h766l8 -12l-633 -983h586q4 -23 4 -61t-4 -60h-795l-10 12l633 983h-555q-6 15 -6 58zM598 1464q8 -42 8 -92t-8 -94q-41 -8 -90 -8t-96 8q-18 90 0 186q90 18 186 0z" />
    <glyph glyph-name="zacute.smcp" unicode="&#xf69b;" horiz-adv-x="940" 
d="M119 1053q0 43 6 63h766l8 -12l-633 -983h586q4 -23 4 -61t-4 -60h-795l-10 12l633 983h-555q-6 15 -6 58zM428 1249q-43 0 -80 6l227 228q45 6 97 6t100 -6l-264 -228q-37 -6 -80 -6z" />
    <glyph glyph-name="zcaron.smcp" unicode="&#xf69d;" horiz-adv-x="940" 
d="M119 1053q0 43 6 63h766l8 -12l-633 -983h586q4 -23 4 -61t-4 -60h-795l-10 12l633 983h-555q-6 15 -6 58zM186 1483q27 6 79 6t87 -6l162 -144l164 144q49 6 94 6t76 -6l-258 -228q-37 -6 -75 -6t-77 6z" />
    <glyph glyph-name="percent.smcp" unicode="&#xf69e;" horiz-adv-x="1959" 
d="M1538 578q-92 0 -140 -66t-48 -185q0 -118 46 -185q46 -66 140 -66q190 1 190 251q0 251 -188 251zM1858 326q0 -74 -20 -138q-42 -130 -161 -185q-59 -28 -139 -28q-149 1 -234 99t-85 252q0 240 180 324q59 28 139 28q149 0 235 -99q85 -99 85 -253zM610 788
q0 254 -188 252q-92 0 -140 -66t-49 -185q1 -119 47 -185t140 -66t142 66q48 64 48 184zM741 788q0 -154 -84 -252t-234 -98t-235 98q-84 98 -86 252q0 241 181 325q59 28 139 28t139 -28q117 -56 160 -186q20 -65 20 -139zM1374 1141q39 0 76 -6l-782 -1143q-24 -4 -62 -4
t-76 6l781 1143q24 4 63 4z" />
    <glyph glyph-name="perthousand.smcp" unicode="&#xf69f;" horiz-adv-x="2742" 
d="M2320 578q-92 0 -140 -66t-48 -185q0 -118 46 -185q46 -66 140 -66q191 1 191 251q0 251 -189 251zM2556 74q-84 -99 -236 -99q-151 0 -235 99t-84 255q0 155 81 246q88 103 238 103q151 0 236 -99q84 -99 84 -253t-84 -252zM1538 578q-92 0 -140 -66t-48 -185
q0 -118 46 -185q46 -66 140 -66q190 1 190 251q0 251 -188 251zM1858 326q0 -74 -20 -138q-42 -130 -161 -185q-59 -28 -139 -28q-149 1 -234 99t-85 252q0 240 180 324q59 28 139 28q149 0 235 -99q85 -99 85 -253zM610 788q0 254 -188 252q-92 0 -140 -66t-49 -185
q1 -119 47 -185t140 -66t142 66q48 64 48 184zM741 788q0 -154 -84 -252t-234 -98t-235 98q-84 98 -86 252q0 241 181 325q59 28 139 28t139 -28q117 -56 160 -186q20 -65 20 -139zM1374 1141q39 0 76 -6l-782 -1143q-24 -4 -62 -4t-76 6l781 1143q24 4 63 4z" />
    <glyph glyph-name="slash.smcp" unicode="&#xf6a0;" horiz-adv-x="675" 
d="M146 -6q-32 0 -64 6l377 1116q32 4 67 4t68 -4l-379 -1116q-37 -6 -69 -6z" />
    <glyph glyph-name="backslash.smcp" unicode="&#xf6a1;" horiz-adv-x="675" 
d="M82 1116q32 4 66 4t69 -4l377 -1116q-35 -6 -66 -6t-67 6z" />
    <glyph glyph-name="at.smcp" unicode="&#xf6a2;" horiz-adv-x="1413" 
d="M508 467q0 -148 146 -148q72 0 139 35l79 426q-61 10 -102 10q-41 1 -92 -26t-89 -72q-83 -98 -81 -225zM96 461q0 119 42 239q91 260 356 380q137 62 343 62t345 -117q139 -118 139 -339q0 -184 -83 -318q-96 -157 -257 -157q-74 0 -147 51q-90 -56 -206 -56
q-116 1 -186 61q-70 61 -70 169q1 206 128 338q126 133 301 133q104 0 205 -28l-95 -531q27 -26 77 -26t92 34q83 68 111 207q13 63 13 123q0 164 -103 256t-290 92q-270 0 -430 -168t-160 -401q0 -189 114 -286t288 -95q120 0 235 39q25 -39 25 -105q-94 -41 -300 -42
q-205 -1 -346 124q-141 126 -141 361z" />
    <glyph glyph-name="parenleft.smcp" unicode="&#xf6a3;" horiz-adv-x="557" 
d="M467 -70q-19 -4 -57 -4t-68 4q-62 86 -101 213q-69 225 -69 418q0 280 110 526q30 68 60 111q24 4 61 4t64 -4q-163 -296 -165 -619q-1 -322 121 -566q28 -54 44 -83z" />
    <glyph glyph-name="parenright.smcp" unicode="&#xf6a4;" horiz-adv-x="557" 
d="M90 1198q24 4 62 4t63 -4q61 -85 101 -215q69 -228 69 -422q0 -279 -110 -521q-30 -67 -60 -110q-29 -4 -67 -4t-58 4q66 120 97 209q69 202 69 422q0 304 -122 553q-28 55 -44 84z" />
    <glyph glyph-name="braceleft.smcp" unicode="&#xf6a5;" horiz-adv-x="593" 
d="M530 1144q0 -24 -4 -52q-104 0 -142 -50t-38 -165v-15q0 -126 -27 -194t-77 -107q54 -33 79 -101t25 -196v-16q0 -113 38 -164t142 -51q6 -31 6 -56t-6 -51q-154 0 -226 71t-73 216v102q0 87 -36 141t-113 103v8q78 45 114 99t35 143v104q0 287 299 287q4 -32 4 -56z" />
    <glyph glyph-name="braceright.smcp" unicode="&#xf6a6;" horiz-adv-x="593" 
d="M367 913v-104q-1 -90 35 -143t114 -99v-8q-78 -49 -114 -102t-35 -142v-102q0 -145 -73 -216t-226 -71q-12 54 0 107q104 0 142 51t38 164v16q0 187 56 254q19 25 48 43q-53 39 -79 107t-25 194v15q0 115 -38 165t-142 50q-7 49 0 108q299 0 299 -287z" />
    <glyph glyph-name="bracketleft.smcp" unicode="&#xf6a7;" horiz-adv-x="651" 
d="M590 -14q0 -32 -4 -58h-416v1270h416q4 -24 4 -56t-4 -55h-287v-1050h287q4 -19 4 -51z" />
    <glyph glyph-name="bracketright.smcp" unicode="&#xf6a8;" horiz-adv-x="651" 
d="M61 1144q0 32 5 54h415v-1270h-415q-5 30 -5 60t5 49h286v1050h-286q-5 25 -5 57z" />
    <glyph glyph-name="asterisk.smcp" unicode="&#xf6a9;" horiz-adv-x="995" 
d="M879 1145q30 -54 30 -98l-237 -89q-23 52 -41 119zM547 831q45 43 100 76l141 -215q-43 -43 -83 -59zM383 903q51 -27 102 -72l-159 -200q-53 25 -84 61zM393 1075q-10 -61 -37 -119l-239 91q6 53 33 98zM516 1368q24 0 53 -6l11 -254q-16 -4 -39 -4h-47q-23 0 -39 4
l12 254q25 6 49 6z" />
    <glyph glyph-name="quoteleft.smcp" unicode="&#xf6aa;" horiz-adv-x="456" 
d="M102 1116q36 4 72 4t70 -4l110 -405q-16 -4 -42 -4h-52t-47 4z" />
    <glyph glyph-name="quoteright.smcp" unicode="&#xf6ab;" horiz-adv-x="456" 
d="M248 1118h35q33 0 71 -4l-110 -405q-20 -4 -46 -4h-53q-26 0 -43 4l111 405q17 4 35 4z" />
    <glyph glyph-name="quotedblleft.smcp" unicode="&#xf6ac;" horiz-adv-x="829" 
d="M102 1116q36 4 72 4t70 -4l110 -405q-16 -4 -42 -4h-52t-47 4zM475 1116q36 4 73 4q36 0 68 -4l111 -405q-16 -4 -42 -4h-52q-26 0 -47 4z" />
    <glyph glyph-name="quotedblright.smcp" unicode="&#xf6ad;" horiz-adv-x="829" 
d="M248 1118h35q33 0 71 -4l-110 -405q-20 -4 -46 -4h-53q-26 0 -43 4l111 405q17 4 35 4zM622 1118h33q34 0 72 -4l-111 -405q-20 -4 -46 -4h-52t-43 4l111 405q18 4 36 4z" />
    <glyph glyph-name="zero.alt" unicode="&#xf800;" horiz-adv-x="1306" 
d="M652 104q187 0 300 138t113 411t-113 411t-299 138t-300 -138q-113 -138 -113 -410t112 -412q112 -138 300 -138zM652 -25q-132 1 -235 51t-176 140t-111 215t-38 272q0 304 152 491t410 187q259 0 411 -189t149 -489q0 -147 -38 -272q-80 -255 -288 -355
q-104 -50 -236 -51z" />
    <glyph glyph-name="one.alt" unicode="&#xf801;" horiz-adv-x="948" 
d="M467 123v1003l-330 -161q-29 32 -53 100l512 262h10v-1204h293q6 -48 6 -60t-6 -63h-747q-4 16 -4 64t4 59h315z" />
    <glyph glyph-name="two.alt" unicode="&#xf802;" horiz-adv-x="1015" 
d="M932 64q0 -34 -4 -64h-893l-10 27l399 426q161 174 205 242q92 140 92 255q0 254 -295 254q-104 0 -183 -26t-141 -56q-13 36 -36 121q186 91 358 90q320 0 415 -210q31 -71 31 -152t-18 -144q-36 -124 -152 -265q-57 -71 -133 -150l-264 -281h625q4 -33 4 -67z" />
    <glyph glyph-name="three.alt" unicode="&#xf803;" horiz-adv-x="1048" 
d="M379 -29q418 0 418 361q0 128 -85 198t-245 70q-105 0 -180 -16l-15 24l392 574h-582q-4 16 -4 30v65q0 17 4 34h809l8 -17l-403 -581q10 2 23 2h24q197 0 308 -130q93 -109 92 -247q-2 -257 -163 -379q-161 -121 -401 -121q-140 0 -278 40q-44 13 -76 30q18 59 57 123
q122 -60 297 -60z" />
    <glyph glyph-name="four.alt" unicode="&#xf804;" horiz-adv-x="1204" 
d="M795 285v436q37 6 69 6t68 -6v-436h219q6 -35 6 -67t-6 -62h-219v-279q-18 -4 -44 -4h-51q-26 0 -42 4v279h-705l-14 20l614 1178q46 -7 119 -47l-518 -1022h504z" />
    <glyph glyph-name="five.alt" unicode="&#xf805;" horiz-adv-x="1081" 
d="M504 774q201 0 329 -118q128 -119 128 -324q0 -248 -160 -371t-400 -123q-190 0 -317 58q14 71 47 122q108 -45 275 -47q405 0 405 357q0 219 -184 294q-116 46 -304 17l-104 -16l-14 14l26 674h668q4 -17 4 -31v-65q0 -17 -4 -33h-541l-14 -420q62 12 160 12z" />
    <glyph glyph-name="six.alt" unicode="&#xf806;" horiz-adv-x="1179" 
d="M274 436q0 -166 84 -248t234 -82t246 93t96 258q0 92 -26 157q-74 187 -295 187q-136 0 -237 -99q-102 -100 -102 -266zM887 1423q0 -37 -2 -47q-251 -27 -406 -182t-207 -401q-4 -23 -8 -43t-6 -43q52 98 152 161q100 64 256 64t285 -118q128 -118 128 -347t-149 -367
q-139 -125 -328 -125q-232 0 -352 131q-133 148 -133 457q0 376 178 620q200 275 579 316q13 -39 13 -76z" />
    <glyph glyph-name="seven.alt" unicode="&#xf807;" horiz-adv-x="995" 
d="M25 1182q-11 65 2 129h946l6 -6l-639 -1459q-85 20 -129 62l565 1274h-751z" />
    <glyph glyph-name="eight.alt" unicode="&#xf808;" horiz-adv-x="1183" 
d="M596 1352q-141 0 -213 -64t-72 -168q0 -105 80 -172t205 -100q118 31 202 98q83 67 83 173q0 105 -72 169t-213 64zM258 381q0 -129 85 -204t253 -75t253 76t85 205q0 182 -206 280q-62 30 -132 52q-338 -108 -338 -334zM1024 1135q0 -244 -276 -355q151 -61 215 -123
q65 -63 97 -131t32 -166t-43 -174t-113 -122t-159 -67q-89 -22 -181 -22t-181 22q-190 47 -272 188q-43 75 -43 175q0 245 226 365q61 33 118 55q-279 113 -276 355q0 147 119 242q119 96 309 96t309 -96q119 -95 119 -242z" />
    <glyph glyph-name="nine.alt" unicode="&#xf809;" horiz-adv-x="1179" 
d="M819 1112q-84 82 -231 82t-247 -91q-99 -95 -97 -259q0 -92 25 -158q73 -186 295 -186q136 0 238 99q103 99 102 265t-85 248zM1061 731q0 -371 -178 -613q-200 -273 -580 -317q-12 37 -12 67v40q0 8 2 16q247 26 403 181t209 403q4 23 8 43t7 43q-52 -98 -152 -162
t-257 -63q-157 0 -275 109q-138 127 -138 357t145 360t332 130q231 0 353 -131q133 -148 133 -463z" />
    <glyph glyph-name="zero.sups" unicode="&#xf80a;" horiz-adv-x="921" 
d="M463 1602q-234 0 -234 -318q1 -154 55 -236t177 -81q233 0 233 317q0 154 -54 236t-177 82zM838 1284q0 -92 -24 -172q-50 -165 -187 -229q-72 -33 -166 -33t-165 33q-139 64 -186 229q-24 80 -24 172q0 188 96 311t281 123q184 0 279 -122q96 -123 96 -312z" />
    <glyph glyph-name="one.sups" unicode="&#xf80b;" horiz-adv-x="921" 
d="M791 924q0 -26 -5 -50h-553q-6 27 -6 55t6 56h218v547l-220 -90q-28 25 -49 98l377 162h25v-717h202q5 -35 5 -61z" />
    <glyph glyph-name="two.sups" unicode="&#xf80c;" horiz-adv-x="921" 
d="M421 1694q134 0 217 -62t83 -164q0 -104 -46 -189t-140 -177l-117 -115h356v-113h-610l-6 17l254 256q176 176 176 303t-193 127q-77 0 -176 -31q-11 21 -26 111q94 37 228 37z" />
    <glyph glyph-name="three.sups" unicode="&#xf80d;" horiz-adv-x="921" 
d="M768 1120q0 -51 -28 -104q-56 -106 -192 -147q-67 -19 -162 -19t-212 31l31 110q153 -48 280 -21q88 18 125 84q18 32 18 75q1 112 -126 148q-37 9 -68 9h-45q-14 0 -33 -4l-8 12l195 293h-314v107h498l10 -21l-207 -303q63 -6 109 -30q129 -69 129 -220z" />
    <glyph glyph-name="four.sups" unicode="&#xf80e;" horiz-adv-x="921" 
d="M623 870q-25 0 -64 4v168h-434l-12 17l342 663q59 -10 116 -36l-272 -529h260v176q31 6 59 6t62 -6v-176h106q6 -23 6 -61t-6 -54h-106v-168q-32 -4 -57 -4z" />
    <glyph glyph-name="five.sups" unicode="&#xf80f;" horiz-adv-x="921" 
d="M430 1407q146 1 234 -69t88 -205t-109 -209t-256 -74q-146 0 -240 37q9 73 35 114q129 -52 282 -26q154 26 157 168q0 63 -50 110t-174 47q-55 0 -161 -20l-19 14l21 400h477q2 -8 2 -22v-25q0 -36 -6 -62h-357l-10 -190q48 12 86 12z" />
    <glyph glyph-name="six.sups" unicode="&#xf810;" horiz-adv-x="921" 
d="M480 1311q-85 0 -135 -45t-50 -130t49 -130t134 -45t138 44t54 134q0 172 -190 172zM524 1421q127 -1 204 -73t77 -204t-96 -212t-240 -80q-145 0 -231 88t-86 277t128 339t359 170q10 -40 10 -102q-129 -16 -224 -86t-134 -217q67 67 125 84q57 16 108 16z" />
    <glyph glyph-name="seven.sups" unicode="&#xf811;" horiz-adv-x="921" 
d="M195 1581q-5 12 -5 56t5 57h598l6 -6l-381 -828q-35 4 -64 20t-61 31l321 670h-419z" />
    <glyph glyph-name="eight.sups" unicode="&#xf812;" horiz-adv-x="921" 
d="M479 1620q-80 0 -119 -33q-38 -33 -38 -73t19 -73q28 -47 142 -79q77 24 102 44q54 40 54 94t-40 87t-120 33zM287 1087q0 -59 50 -97t144 -38t145 39q50 39 50 87t-22 86q-34 57 -171 98q-196 -42 -196 -175zM338 1315q-141 74 -141 212q0 83 79 138q80 55 205 55
t203 -55t78 -147q0 -139 -139 -203q88 -45 117 -79q63 -72 64 -146t-28 -117q-83 -123 -297 -123t-294 123q-27 43 -27 117t54 136q54 60 126 89z" />
    <glyph glyph-name="nine.sups" unicode="&#xf813;" horiz-adv-x="921" 
d="M266 1432q0 -172 190 -172q85 0 135 45t50 130t-49 130t-134 45q-84 0 -138 -44t-54 -134zM412 1149q-127 0 -204 73t-77 204t96 212q96 80 240 80q145 0 231 -88t86 -276t-129 -340q-129 -151 -358 -170q-10 40 -10 102q129 16 224 86t134 217q-67 -67 -125 -84
q-57 -16 -108 -16z" />
    <glyph glyph-name="zero.sinf" unicode="&#xf814;" horiz-adv-x="921" 
d="M463 485q-234 0 -234 -317q1 -154 55 -236t177 -82q233 0 233 318q0 154 -54 236t-177 81zM838 168q0 -92 -24 -172q-50 -165 -187 -229q-72 -33 -166 -33t-165 33q-139 64 -186 229q-24 80 -24 172q0 188 96 311t281 123q184 0 279 -122q96 -123 96 -312z" />
    <glyph glyph-name="one.sinf" unicode="&#xf815;" horiz-adv-x="921" 
d="M791 -192q0 -26 -5 -50h-553q-6 27 -6 55t6 56h218v547l-220 -90q-28 25 -49 98l377 162h25v-717h202q5 -35 5 -61z" />
    <glyph glyph-name="two.sinf" unicode="&#xf816;" horiz-adv-x="921" 
d="M721 352q0 -104 -46 -189t-140 -177l-117 -115h356v-113h-610l-6 17l254 256q176 176 176 303t-193 127q-77 0 -176 -31q-11 21 -26 111q89 35 226 36q136 1 219 -61q83 -60 83 -164z" />
    <glyph glyph-name="three.sinf" unicode="&#xf817;" horiz-adv-x="921" 
d="M768 4q0 -52 -28 -104q-57 -106 -192 -147q-66 -19 -160 -19t-214 30l31 111q101 -31 169 -31q252 0 255 172q0 110 -127 145q-37 9 -68 9h-45q-14 0 -33 -4l-8 12l195 293h-314v107h498l10 -21l-207 -303q63 -6 109 -30q129 -68 129 -220z" />
    <glyph glyph-name="four.sinf" unicode="&#xf818;" horiz-adv-x="921" 
d="M623 -246q-25 0 -64 4v168h-434l-12 17l342 663q59 -10 116 -37l-272 -528h260v176q31 6 59 6t62 -6v-176h106q6 -23 6 -61t-6 -54h-106v-168q-32 -4 -57 -4z" />
    <glyph glyph-name="five.sinf" unicode="&#xf819;" horiz-adv-x="921" 
d="M430 291q146 1 234 -69t88 -204t-109 -209t-255 -75q-147 0 -241 37q9 73 35 114q86 -35 161 -35t122 8q153 28 156 169q0 63 -50 110t-174 47q-55 0 -161 -20l-19 14l21 400h477q2 -8 2 -22v-26q0 -36 -6 -61h-357l-10 -190q48 12 86 12z" />
    <glyph glyph-name="six.sinf" unicode="&#xf81a;" horiz-adv-x="921" 
d="M480 195q-85 0 -135 -45q-50 -44 -50 -130t49 -131t134 -45t138 44t54 135q0 172 -190 172zM524 305q127 0 204 -73t77 -204t-96 -212q-96 -80 -240 -80q-145 0 -231 88t-86 276t128 339q128 152 359 171q10 -40 10 -102q-129 -16 -224 -86t-134 -217q67 67 125 84
q57 16 108 16z" />
    <glyph glyph-name="seven.sinf" unicode="&#xf81b;" horiz-adv-x="921" 
d="M195 465q-5 12 -5 56t5 57h598l6 -7l-381 -827q-35 4 -64 19t-61 32l321 670h-419z" />
    </font>
</defs>
</svg>
