<?xml version="1.0" standalone="no"?>
<!DOCTYPE svg PUBLIC "-//W3C//DTD SVG 1.1//EN" "http://www.w3.org/Graphics/SVG/1.1/DTD/svg11.dtd" >
<svg xmlns="http://www.w3.org/2000/svg">
<metadata>
Created by FontPrep 20130207 at Tue May 17 16:57:03 2016
 By Mauricio A Duran D
</metadata>
<defs>
<font id="f15a8bc315d132553b25930dab95faa8" horiz-adv-x='1024' >
  <font-face 
    font-family="Aller"
    font-weight="400"
    font-stretch="normal"
    units-per-em="2048"
    panose-1="2 0 5 3 3 0 0 2 0 4"
    ascent="1638"
    descent="-410"
    x-height="1051"
    cap-height="1481"
    bbox="-375 -510 2955.04 1972"
    underline-thickness="102"
    underline-position="-102"
    unicode-range="U+0020-FB04"
  />
<missing-glyph horiz-adv-x="1024" 
 />
    <glyph glyph-name="ff" unicode="ff" horiz-adv-x="1402" 
d="M236 891h-173q-8 33 -8 79t8 81h173v63q0 195 96 296t278 101q96 0 178 -24q-9 -77 -51 -164q-48 16 -99 16q-52 0 -88 -9q-109 -27 -112 -222v-57h443v73q0 195 97 296t284 102q98 0 163 -21q-7 -89 -30 -164q-75 15 -117 15q-96 0 -145 -49t-50 -185v-67h269
q6 -41 6 -82t-6 -78h-269v-891q-46 -8 -102 -8t-100 8v891h-443v-891q-103 -18 -202 0v891z" />
    <glyph glyph-name="fi" unicode="fi" horiz-adv-x="1234" 
d="M236 891h-173q-8 33 -8 79t8 81h173v73q0 195 115 296q116 101 319 102q152 0 299 -49q0 -83 -49 -166q-105 43 -196 44t-136 -9q-147 -31 -150 -224v-67h633v-1051q-47 -8 -101 -8q-55 0 -100 8v891h-432v-891q-103 -18 -202 0v891z" />
    <glyph glyph-name="fl" unicode="fl" horiz-adv-x="1296" 
d="M335 -6q-66 0 -99 6v889h-175q-6 39 -6 80t6 82h175v73q0 195 118 296q119 101 348 102q139 0 345 -37v-1108q0 -211 71 -222q25 -5 66 -5t71 8q21 -61 21 -156q-50 -16 -132 -16t-134 15q-164 47 -164 333v1005q-66 15 -138 15q-138 0 -204 -49t-68 -187v-67h250
q6 -43 6 -84t-6 -78h-250v-889q-35 -6 -101 -6z" />
    <glyph glyph-name="ffi" unicode="ffi" horiz-adv-x="1873" 
d="M638 1339q-52 0 -88 -9q-109 -27 -112 -222v-57h443v73q0 195 115 296q116 101 319 102q152 0 299 -49q0 -77 -47 -166q-109 43 -199 44t-135 -9q-147 -31 -150 -224v-67h633v-1051q-46 -8 -101 -8t-99 8v891h-433v-891q-46 -8 -102 -8t-100 8v891h-443v-891
q-103 -18 -202 0v891h-173q-8 33 -8 79t8 81h173v63q0 195 96 296t278 101q96 0 178 -24q-8 -70 -51 -164q-47 16 -99 16z" />
    <glyph glyph-name="ffl" unicode="ffl" horiz-adv-x="1941" 
d="M980 -6q-66 0 -99 6v889h-445v-889q-34 -6 -101 -6q-66 0 -99 6v889h-175q-6 39 -6 80t6 82h175v61q0 195 96 296t278 101q103 0 178 -22q-13 -86 -51 -164q-80 16 -115 16q-36 0 -72 -10q-111 -31 -114 -223v-55h445v73q0 195 118 296q119 101 349 102q138 0 344 -37
v-1108q0 -211 71 -222q25 -5 65 -5t73 8q20 -58 20 -156q-46 -16 -130 -16q-83 0 -136 15q-164 46 -164 333v1005q-66 15 -138 15q-138 0 -204 -49t-68 -187v-67h250q6 -43 6 -84t-6 -78h-250v-889q-35 -6 -101 -6z" />
    <glyph glyph-name=".notdef" horiz-adv-x="1024" 
 />
    <glyph glyph-name=".null" horiz-adv-x="0" 
 />
    <glyph glyph-name="nonmarkingreturn" horiz-adv-x="1024" 
 />
    <glyph glyph-name="space" unicode=" " horiz-adv-x="485" 
 />
    <glyph glyph-name="exclam" unicode="!" horiz-adv-x="593" 
d="M182 229q65 9 122 9q56 0 108 -9q8 -57 8 -115t-8 -114q-58 -8 -115 -8t-115 8q-8 58 -8 116t8 113zM298 1481q54 0 112 -8l-13 -1031q-47 -8 -99 -8t-93 8l-15 1031q54 8 108 8z" />
    <glyph glyph-name="quotedbl" unicode="&#x22;" horiz-adv-x="860" 
d="M631 1481q53 0 96 -8v-562q-47 -6 -98 -6t-97 6v562q46 8 99 8zM230 1481q52 0 96 -8v-562q-46 -6 -98 -6t-97 6v562q47 8 99 8z" />
    <glyph glyph-name="numbersign" unicode="#" horiz-adv-x="1505" 
d="M936 590l29 338h-351l-26 -338h348zM1366 511q0 -47 -8 -83h-252l-31 -369q-47 -6 -92 -6t-88 6l29 369h-349l-28 -369q-49 -6 -94 -6t-95 6l31 369h-254q-6 38 -6 82t8 80h266l29 338h-254q-8 33 -8 79t8 80h266l29 326q38 6 78 6h61q20 0 43 -4l-26 -328h348l29 326
q38 6 78 6h62q22 0 44 -4l-29 -328h240q6 -37 6 -79t-6 -80h-252l-29 -338h238q8 -32 8 -79z" />
    <glyph glyph-name="dollar" unicode="$" 
d="M636 -250q-37 0 -75 8v219q-10 -2 -16 -2h-13q-195 0 -378 64q7 79 47 180q69 -23 143 -40t178 -17q168 0 250 66t82 177q0 112 -70 166q-35 29 -88 53t-125 54l-98 41q-137 56 -208 135q-72 79 -72 233t95 254t273 125v199q31 8 71 8t73 -8v-190q188 -9 311 -56
q-10 -86 -45 -170q-140 51 -293 51q-270 0 -268 -200q0 -93 72 -149q48 -37 200 -99l78 -33q168 -70 234 -141q91 -97 90 -264q-1 -166 -100 -276t-279 -144v-236q-32 -8 -69 -8z" />
    <glyph glyph-name="percent" unicode="%" horiz-adv-x="2150" 
d="M1470 1450q50 8 104 8t103 -8l-989 -1448q-58 -8 -108 -8t-99 8zM1376 721q98 125 285 125t287 -123t100 -311t-100 -311q-100 -124 -287 -124q-186 0 -289 128q-94 116 -94 304q0 187 98 312zM1663 125q197 0 197 287q0 135 -46 210t-151 74q-197 0 -197 -284
q0 -137 46 -212t151 -75zM90 1037q0 185 99 311q99 125 285 125q187 0 288 -125t98 -310q0 -294 -215 -399q-72 -35 -170 -35t-171 35q-214 103 -214 398zM672 1038q0 135 -46 210t-151 75q-196 0 -196 -285q0 -137 46 -212t150 -74q197 0 197 286z" />
    <glyph glyph-name="ampersand" unicode="&#x26;" horiz-adv-x="1558" 
d="M664 160q144 0 220 30q77 30 120 82q75 89 75 258v244h-415q-147 0 -233 -95q-87 -95 -87 -232t88 -212t232 -75zM640 1333q-83 0 -129 -17q-132 -49 -132 -179q0 -89 58 -141t188 -52h446l189 258h16v-258h266q8 -34 8 -80t-8 -86h-266v-303q0 -245 -163 -373
q-163 -127 -420 -127t-416 109q-158 109 -158 334q0 141 75 256t187 162q-209 93 -209 307q0 171 124 263q124 93 316 91q140 0 256 -41q-4 -92 -45 -153q-100 30 -183 30z" />
    <glyph glyph-name="quotesingle" unicode="'" horiz-adv-x="456" 
d="M230 1481q52 0 96 -8v-562q-46 -6 -98 -6t-97 6v562q47 8 99 8z" />
    <glyph glyph-name="parenleft" unicode="(" horiz-adv-x="653" 
d="M551 -342q-45 -8 -107 -8t-94 8q-166 247 -226 658q-22 144 -22 306q0 293 72 551q72 257 176 416q32 8 95 8t106 -8q-244 -419 -244 -965t244 -966z" />
    <glyph glyph-name="parenright" unicode=")" horiz-adv-x="653" 
d="M102 -342q244 420 244 966t-244 965q46 8 107 8q62 0 94 -8q170 -272 226 -659q22 -145 22 -307q0 -292 -71 -546q-71 -255 -177 -419q-32 -8 -93 -8q-62 0 -108 8z" />
    <glyph glyph-name="asterisk" unicode="*" horiz-adv-x="993" 
d="M793 762q-28 -31 -103 -76l-170 207q63 59 129 92zM874 1247q33 -57 41 -121l-249 -98q-35 70 -48 152zM303 686q-68 38 -102 76l143 223q63 -31 129 -92zM375 1180q-12 -82 -47 -152l-250 98q8 63 41 121zM495 1200q-48 0 -77 6l16 267q31 6 62 6t65 -6l17 -267
q-35 -6 -83 -6z" />
    <glyph glyph-name="plus" unicode="+" 
d="M610 250q-47 0 -86 8v371h-340q-8 41 -8 91t8 91h340v373q46 8 89 8t94 -8v-373h337q9 -52 9 -97t-9 -85h-337v-371q-50 -8 -97 -8z" />
    <glyph glyph-name="comma" unicode="," horiz-adv-x="436" 
d="M236 -231q-44 -7 -104 -7t-91 7l121 456q110 18 203 0z" />
    <glyph glyph-name="hyphen" unicode="-" horiz-adv-x="739" 
d="M643 572q0 -56 -8 -91h-531q-8 35 -8 91t8 96h531q8 -40 8 -96z" />
    <glyph glyph-name="period" unicode="." horiz-adv-x="493" 
d="M133 229q65 9 121 9t106 -9q11 -80 11 -124t-11 -105q-58 -8 -114 -8t-113 8q-10 72 -10 116q0 43 10 113z" />
    <glyph glyph-name="slash" unicode="/" horiz-adv-x="839" 
d="M569 1473q51 8 99 8q49 0 100 -8l-500 -1473q-50 -8 -99 -8t-97 8z" />
    <glyph glyph-name="zero" unicode="0" 
d="M616 1161q-141 0 -221 -125t-80 -379q0 -253 80 -377t221 -124t220 124q78 124 78 378t-78 378q-79 125 -220 125zM618 1341q128 0 226 -51q290 -152 291 -633q0 -306 -134 -493t-384 -188t-383 184q-134 185 -134 494t134 498t384 189z" />
    <glyph glyph-name="one" unicode="1" 
d="M778 1331v-1157h293q6 -47 6 -88t-6 -86h-801q-8 41 -8 87t8 87h308v881l-297 -135q-41 50 -78 151l545 260h30z" />
    <glyph glyph-name="two" unicode="2" 
d="M1049 82q0 -46 -9 -82h-911l-12 27l401 469q138 164 176 223q76 120 76 223t-70 160t-183 57q-113 -1 -181 -23t-131 -51q-46 119 -51 172q72 31 158 58t198 27q222 -1 348 -98q127 -96 127 -288q0 -137 -76 -266t-215 -287l-196 -223h542q9 -52 9 -98z" />
    <glyph glyph-name="three" unicode="3" 
d="M838 338q0 127 -84 188q-84 62 -203 62t-182 -17l-17 29l342 539h-526q-8 41 -8 89t8 93h829l15 -25l-373 -567q6 2 14 2h17q181 0 279 -116q97 -116 96 -253q-2 -254 -163 -383t-413 -129q-200 0 -371 68q10 76 64 172q144 -59 301 -59q261 0 345 165q30 58 30 142z" />
    <glyph glyph-name="four" unicode="4" 
d="M782 160h-698l-16 22l600 1176q90 -8 178 -68l-477 -950h413v389q50 8 100 8t99 -8v-389h188q9 -52 9 -98t-9 -82h-188v-281q-41 -6 -101 -6t-98 6v281z" />
    <glyph glyph-name="five" unicode="5" 
d="M831 340q0 280 -345 278q-108 0 -216 -36l-20 18q14 408 29 721h696q6 -34 6 -92q0 -57 -6 -90h-512l-12 -365q59 12 151 12q199 0 322 -116t123 -320q0 -245 -169 -379q-157 -121 -419 -121q-187 0 -330 60q11 82 57 172q134 -49 273 -49q372 0 372 307z" />
    <glyph glyph-name="six" unicode="6" 
d="M644 766q-125 0 -207 -84q-81 -84 -81 -231q0 -148 73 -224q73 -75 199 -75t209 82t83 227q0 82 -22 139q-64 166 -254 166zM637 -25q-502 0 -502 603q0 369 188 614q204 268 592 299q29 -88 9 -172q-245 -23 -391 -176t-187 -395q45 78 132 134q88 56 194 56
q314 0 424 -259q37 -89 37 -211q0 -232 -149 -362q-148 -131 -347 -131z" />
    <glyph glyph-name="seven" unicode="7" 
d="M135 1228q0 49 8 93h973l8 -14l-622 -1459q-117 25 -191 86l525 1205h-693q-8 40 -8 89z" />
    <glyph glyph-name="eight" unicode="8" 
d="M854 1104q0 92 -60 147t-180 55t-179 -54q-60 -56 -60 -148q0 -175 239 -246q240 69 240 246zM903 395q0 162 -175 253q-53 28 -114 46q-200 -59 -266 -194q-23 -47 -22 -105q0 -115 74 -181t215 -64q142 0 215 66t73 179zM815 780q308 -134 305 -403q0 -206 -157 -310
q-139 -92 -349 -92t-348 92q-157 105 -157 318t196 339q53 34 107 56q-98 47 -167 130t-69 208q0 159 125 257t312 98q188 0 314 -99t126 -256q0 -127 -69 -209t-169 -129z" />
    <glyph glyph-name="nine" unicode="9" 
d="M597 547q127 0 207 84q81 84 81 230q0 147 -73 223t-199 77q-126 0 -209 -79q-82 -79 -82 -231t79 -235q69 -69 196 -69zM1106 745q0 -378 -187 -624q-204 -268 -593 -299q-31 75 -9 174q244 20 397 177q154 158 179 392q-43 -78 -130 -135t-195 -57q-314 0 -423 259
q-37 89 -37 211q1 231 150 364t346 130q502 0 502 -592z" />
    <glyph glyph-name="colon" unicode=":" horiz-adv-x="493" 
d="M133 825q-10 72 -10 115q0 42 10 115q58 8 115 8q56 0 112 -8q11 -80 11 -123t-11 -107q-58 -8 -114 -8t-113 8zM133 229q65 9 121 9t106 -9q11 -80 11 -124t-11 -105q-58 -8 -114 -8t-113 8q-10 72 -10 116q0 43 10 113z" />
    <glyph glyph-name="semicolon" unicode=";" horiz-adv-x="532" 
d="M254 -231q-44 -7 -104 -7t-91 7l121 456q111 18 203 0zM170 825q-10 72 -10 115q0 42 10 115q58 8 115 8q56 0 112 -8q9 -67 10 -108t-10 -122q-58 -8 -114 -8q-55 0 -113 8z" />
    <glyph glyph-name="less" unicode="&#x3c;" 
d="M1047 1159q10 -57 10 -105t-8 -89l-672 -260l672 -250q8 -45 8 -105t-10 -100l-852 346q-27 115 0 217z" />
    <glyph glyph-name="equal" unicode="=" 
d="M1057 906q0 -55 -8 -91h-869q-6 27 -6 91t6 95h869q8 -40 8 -95zM1057 515q0 -55 -8 -91h-869q-6 28 -6 92t6 94h869q8 -40 8 -95z" />
    <glyph glyph-name="greater" unicode="&#x3e;" 
d="M182 250q-8 58 -8 106t8 88l670 261l-670 249q-10 38 -10 94t10 111l854 -346q4 -27 12 -83t-12 -134z" />
    <glyph glyph-name="question" unicode="?" horiz-adv-x="999" 
d="M354 229q80 11 123 11t107 -11q8 -59 8 -115t-8 -112q-54 -8 -119 -8t-111 8q-8 58 -8 114t8 113zM468 430q-52 0 -95 8v332q246 63 309 191q23 47 23 112q0 103 -78 163t-224 60q-92 0 -148 -13t-116 -36q-38 82 -51 170q140 46 217 51q78 6 125 7q242 0 366 -110
t124 -290t-141 -304q-95 -85 -212 -122v-211q-47 -8 -99 -8z" />
    <glyph glyph-name="at" unicode="@" horiz-adv-x="2076" 
d="M774 467q0 -203 184 -203q90 0 175 39l112 590q-54 12 -115 12t-130 -34q-68 -34 -118 -93q-108 -128 -108 -311zM115 438q1 184 65 372t199 340q135 153 343 249t515 96t517 -178t210 -512q0 -270 -156 -480t-399 -210q-143 0 -225 63q-125 -74 -281 -75
q-157 -1 -245 86q-87 87 -87 233t47 263q47 118 127 203t188 133t209 48q177 0 322 -47l-147 -731q34 -27 114 -27t146 50q132 100 181 303q24 95 24 188q0 260 -154 395t-432 135q-213 -1 -379 -75q-165 -74 -279 -199t-173 -285t-59 -325q-1 -311 171 -466
q157 -143 422 -143q193 0 348 58q33 -80 45 -144q-150 -70 -397 -69q-340 0 -551 183q-229 201 -229 568z" />
    <glyph glyph-name="A" unicode="A" horiz-adv-x="1263" 
d="M401 522h449l-225 752zM1229 0q-49 -8 -111 -8t-110 8l-103 340h-559l-100 -340q-54 -8 -112 -8t-101 8l479 1473q54 8 118 8t122 -8z" />
    <glyph glyph-name="B" unicode="B" horiz-adv-x="1218" 
d="M555 1331q-112 0 -166 -8v-465h150q139 0 213 60t74 180q0 119 -80 176q-79 57 -191 57zM549 154q361 0 358 262q0 270 -346 270h-172v-524q58 -8 160 -8zM512 1495q522 0 522 -383q0 -124 -68 -211t-167 -113q129 -14 229 -108q100 -95 98 -272q0 -226 -175 -336
q-154 -97 -425 -97q-139 0 -344 25v1473q112 22 330 22z" />
    <glyph glyph-name="C" unicode="C" horiz-adv-x="1265" 
d="M1104 1270q-140 45 -285 45q-223 0 -347 -152t-124 -434t129 -426q129 -143 357 -143q162 0 286 55q45 -88 58 -170q-158 -68 -344 -69q-187 0 -315 52q-257 105 -351 386q-47 139 -47 314q0 176 47 318q95 287 350 397q127 54 303 54t332 -55q-6 -70 -49 -172z" />
    <glyph glyph-name="D" unicode="D" horiz-adv-x="1431" 
d="M1092 739q0 295 -141 433q-141 137 -394 137q-121 0 -166 -9v-1128q72 -10 177 -10q104 0 203 28q321 90 321 549zM543 1495q387 0 578 -197q191 -198 191 -574q1 -747 -777 -749q-183 0 -353 25v1473q192 22 361 22z" />
    <glyph glyph-name="E" unicode="E" horiz-adv-x="1097" 
d="M1012 86q0 -56 -6 -86h-826v1473h809q6 -41 6 -97t-6 -86h-600v-422h479q18 -91 0 -182h-479v-504h617q6 -40 6 -96z" />
    <glyph glyph-name="F" unicode="F" horiz-adv-x="1032" 
d="M282 -8q-58 0 -102 8v1473h770q8 -39 8 -91t-8 -92h-561v-432h469q8 -46 8 -93t-8 -91h-469v-674q-49 -8 -107 -8z" />
    <glyph glyph-name="G" unicode="G" horiz-adv-x="1394" 
d="M1138 770q56 0 101 -8v-719q-150 -63 -416 -68q-330 0 -516 200t-186 553q0 352 190 561q190 208 496 208q212 0 358 -57q-6 -70 -49 -172q-144 46 -272 46q-356 2 -465 -336q-35 -110 -35 -253q0 -275 133 -419t357 -144q114 0 198 24v576q50 8 106 8z" />
    <glyph glyph-name="H" unicode="H" horiz-adv-x="1404" 
d="M285 1481q55 0 104 -8v-607h627v607q46 8 102 8t107 -8v-1473q-45 -8 -105 -8t-104 8v682h-627v-682q-49 -8 -107 -8t-102 8v1473q50 8 105 8z" />
    <glyph glyph-name="I" unicode="I" horiz-adv-x="569" 
d="M285 1481q55 0 104 -8v-1473q-49 -8 -107 -8t-102 8v1473q50 8 105 8z" />
    <glyph glyph-name="J" unicode="J" horiz-adv-x="811" 
d="M90 178q83 -20 150 -20t109 26q83 51 83 178v928h-258q-8 40 -8 90t8 93h467v-1063q0 -345 -229 -413q-74 -22 -163 -22t-192 25q0 81 33 178z" />
    <glyph glyph-name="K" unicode="K" horiz-adv-x="1230" 
d="M285 1481q55 0 104 -8v-1473q-49 -8 -107 -8t-102 8v1473q50 8 105 8zM1210 0q-66 -8 -122 -8t-115 8l-522 748l473 725q58 8 109 8q52 0 118 -8l-467 -707z" />
    <glyph glyph-name="L" unicode="L" horiz-adv-x="1013" 
d="M283 1481q56 0 104 -8v-1289h578q6 -34 6 -88q0 -53 -6 -96h-785v1473q47 8 103 8z" />
    <glyph glyph-name="M" unicode="M" horiz-adv-x="1671" 
d="M251 -8q-51 0 -95 8l65 1473q50 8 120 8t116 -8l381 -922l383 922q40 8 111 8q70 0 114 -8l70 -1473q-50 -8 -104 -8t-99 8l-47 1145l-361 -840q-41 -6 -82 -6t-80 6l-348 846l-47 -1151q-46 -8 -97 -8z" />
    <glyph glyph-name="N" unicode="N" horiz-adv-x="1392" 
d="M180 1473q46 8 97 8t96 -8l641 -1106v1106q50 8 102 8t96 -8v-1473q-46 -8 -97 -8t-95 8l-643 1100v-1100q-45 -8 -101 -8t-96 8v1473z" />
    <glyph glyph-name="O" unicode="O" horiz-adv-x="1492" 
d="M1147 734q0 421 -222 539q-75 40 -177 40t-178 -40q-222 -118 -222 -538q0 -267 98 -424q100 -155 302 -155q298 0 374 338q25 106 25 240zM1218 1281q150 -197 150 -544t-150 -548q-163 -214 -471 -214t-465 207t-157 552q0 344 159 554q159 209 465 209t469 -216z" />
    <glyph glyph-name="P" unicode="P" horiz-adv-x="1159" 
d="M518 707q239 0 317 156q29 61 29 151q-1 242 -205 289q-63 14 -138 14t-132 -6v-596q66 -8 129 -8zM493 1497q142 -1 243 -23q213 -48 300 -224q45 -91 45 -231q0 -262 -175 -388q-146 -105 -384 -105q-80 0 -133 6v-532q-49 -6 -111 -6t-98 6v1475q171 22 313 22z" />
    <glyph glyph-name="Q" unicode="Q" horiz-adv-x="1482" 
d="M1141 734q0 419 -222 539q-75 40 -177 40t-178 -40q-222 -118 -222 -538q0 -267 98 -424q100 -155 301 -155q296 0 375 338q25 106 25 240zM119 735q0 342 152 546q165 216 472 216t468 -216q151 -198 151 -545t-157 -554t-464 -207q-161 1 -277 57q-232 112 -307 398
q-38 139 -38 305zM1382 -133q-5 -112 -34 -182l-471 88q7 93 36 176z" />
    <glyph glyph-name="R" unicode="R" horiz-adv-x="1222" 
d="M273 -6q-51 0 -89 6v1475q45 4 82 8q130 14 248 14q373 0 505 -230q50 -87 50 -193t-27 -173q-72 -177 -262 -268l-24 -12l428 -621q-56 -6 -118 -6t-118 6l-471 682v8q242 57 334 204q35 56 35 136q0 147 -87 219t-235 72q-57 0 -131 -8v-1313q-69 -6 -120 -6z" />
    <glyph glyph-name="S" unicode="S" horiz-adv-x="1116" 
d="M471 162q162 0 245 68t83 182q0 113 -70 173q-51 44 -209 107l-117 47q-132 56 -181 113q-48 58 -68 114t-21 134q0 186 127 292t336 105q209 0 362 -57q-10 -86 -45 -170q-146 53 -292 53q-269 0 -269 -209q0 -113 131 -182q39 -20 82 -37l115 -45q175 -70 260 -161
q86 -90 86 -259q0 -211 -145 -333t-408 -122q-196 0 -379 64q5 62 49 184q166 -61 328 -61z" />
    <glyph glyph-name="T" unicode="T" horiz-adv-x="1077" 
d="M1034 1382q0 -52 -8 -92h-383v-1290q-47 -6 -103 -6t-106 6v1290h-383q-8 40 -8 90t8 93h975q8 -39 8 -91z" />
    <glyph glyph-name="U" unicode="U" horiz-adv-x="1380" 
d="M271 1479q56 0 104 -6v-836q0 -258 71 -366q71 -109 244 -108q172 1 242 107t72 367v836q51 6 106 6t104 -6v-873q0 -310 -122 -468q-122 -157 -402 -157q-410 0 -496 361q-28 117 -28 264v873q49 6 105 6z" />
    <glyph glyph-name="V" unicode="V" horiz-adv-x="1288" 
d="M45 1473q46 8 113 8t118 -8l373 -1260l371 1260q55 6 121 6t102 -6l-479 -1473q-54 -8 -119 -8t-123 8z" />
    <glyph glyph-name="W" unicode="W" horiz-adv-x="1886" 
d="M55 1473q46 8 114 8t118 -8l252 -1227l303 1227q50 8 113 8t106 -8l305 -1240l256 1240q46 8 106 8t103 -8l-354 -1473q-50 -8 -119 -8t-125 8l-291 1153l-295 -1153q-57 -8 -123 -8t-114 8z" />
    <glyph glyph-name="X" unicode="X" horiz-adv-x="1247" 
d="M1010 1477h55q46 0 78 -7l-307 -694l366 -776q-61 -6 -109 -6t-112 6l-350 770l293 700q23 2 43 4t43 3zM211 1477q57 0 111 -7l292 -700l-350 -770q-59 -6 -109 -6t-112 6l365 770l-308 700q54 7 111 7z" />
    <glyph glyph-name="Y" unicode="Y" horiz-adv-x="1212" 
d="M37 1473q54 8 120 8q65 0 113 -8l344 -732l340 732q54 8 111 8t111 -8l-461 -934v-539q-55 -8 -111 -8t-100 8v539z" />
    <glyph glyph-name="Z" unicode="Z" horiz-adv-x="1159" 
d="M133 1378q0 52 8 95h957l14 -19l-743 -1272h690q8 -36 8 -91t-8 -91h-998l-12 18l742 1272h-650q-8 36 -8 88z" />
    <glyph glyph-name="bracketleft" unicode="[" horiz-adv-x="653" 
d="M551 -260q0 -42 -8 -84h-441v1900h441q8 -46 8 -86t-8 -79h-240v-1569h240q8 -40 8 -82z" />
    <glyph glyph-name="backslash" unicode="\" horiz-adv-x="843" 
d="M764 0q-50 -8 -100 -8t-99 8l-499 1473q46 8 101 8t99 -8z" />
    <glyph glyph-name="bracketright" unicode="]" horiz-adv-x="653" 
d="M102 1467q0 42 9 89h440v-1900h-440q-19 92 0 166h239v1567h-239q-9 36 -9 78z" />
    <glyph glyph-name="asciicircum" unicode="^" horiz-adv-x="1126" 
d="M915 748h-62q-24 0 -46 4l-250 548l-240 -548q-23 -4 -47 -4h-47q-56 0 -98 6l332 719q51 8 103 8q53 0 110 -8l327 -719q-43 -6 -82 -6z" />
    <glyph glyph-name="underscore" unicode="_" horiz-adv-x="1034" 
d="M2 -105q0 42 10 74h1012q8 -35 8 -75t-8 -74h-1012q-10 33 -10 75z" />
    <glyph glyph-name="grave" unicode="`" horiz-adv-x="1024" 
d="M264 1477q62 8 131 8t129 -8l236 -260q-117 -20 -205 0z" />
    <glyph glyph-name="a" unicode="a" horiz-adv-x="1058" 
d="M546 664q93 0 173 -11v39q1 121 -61 168t-184 47t-251 -41q-39 68 -39 162q143 47 332 47q400 0 402 -391v-657q-655 -146 -789 131q-31 63 -31 152t36 156t97 111q61 43 141 65t174 22zM561 506q-260 0 -260 -191q0 -106 79 -149q51 -27 158 -27t181 21v334
q-93 12 -158 12z" />
    <glyph glyph-name="b" unicode="b" horiz-adv-x="1208" 
d="M885 543q1 170 -59 264t-197 94q-105 0 -185 -70q-81 -70 -79 -221v-440q64 -21 152 -22q257 -3 340 218q28 75 28 177zM264 1509q56 0 101 -8v-577q37 61 115 106t180 45q315 0 408 -290q32 -99 32 -234q0 -270 -153 -423t-439 -153q-180 0 -346 58v1468q46 8 102 8z
" />
    <glyph glyph-name="c" unicode="c" horiz-adv-x="978" 
d="M315 512q0 -186 88 -276t225 -90t236 36q39 -71 43 -159q-121 -47 -276 -48q-262 1 -395 149q-134 148 -134 394t135 402q135 155 379 155q167 0 277 -43q0 -90 -35 -162q-100 35 -244 35t-221 -104q-78 -104 -78 -289z" />
    <glyph glyph-name="d" unicode="d" horiz-adv-x="1200" 
d="M658 905q-168 0 -258 -114q-78 -103 -77 -292q1 -188 91 -272t245 -84q112 0 179 21v708q-85 33 -180 33zM939 1509q55 0 99 -8v-1472q-177 -52 -339 -53q-161 -1 -260 27q-207 59 -289 255q-44 100 -44 238q-1 264 146 420q147 157 383 157q109 0 203 -29v457
q46 8 101 8z" />
    <glyph glyph-name="e" unicode="e" horiz-adv-x="1138" 
d="M836 627q0 121 -64 204q-64 84 -186 83q-121 0 -188 -76t-81 -211h519zM315 475q7 -332 329 -332q156 0 288 52q32 -62 39 -162q-131 -56 -301 -57t-272 39q-298 116 -298 503q0 245 127 401t369 156q207 0 328 -138q55 -65 84 -154q28 -89 28 -165t-6 -143h-715z" />
    <glyph glyph-name="f" unicode="f" horiz-adv-x="757" 
d="M236 891h-173q-8 33 -8 79t8 81h173v73q0 195 97 296t283 102q99 0 164 -21q-7 -89 -30 -164q-76 15 -118 15q-96 0 -144 -49q-49 -49 -50 -185v-67h269q6 -41 6 -82t-6 -78h-269v-891q-103 -18 -202 0v891z" />
    <glyph glyph-name="g" unicode="g" horiz-adv-x="1132" 
d="M545 485q111 -1 164 61t53 160t-53 159q-53 63 -164 63t-163 -62t-52 -160q0 -97 52 -159t163 -62zM266 -186q0 -58 18 -86q50 -77 224 -78q174 0 266 54t92 136q0 61 -39 94t-143 35l-233 4q-93 2 -139 -49q-46 -52 -46 -110zM549 338q-88 0 -156 18q-29 -16 -57 -50
t-27 -72q0 -38 27 -66t119 -29l272 -4q182 -4 264 -78t82 -202q0 -164 -159 -264q-159 -101 -406 -101q-434 0 -432 272q0 84 45 151t117 105q-97 64 -97 166q0 134 125 230q-68 47 -108 122q-41 75 -41 161q0 168 114 274t301 105q186 -1 308 -95q94 76 264 76q8 -39 8 -86
t-8 -97h-184q45 -69 46 -161t-30 -160q-63 -138 -221 -189q-78 -26 -166 -26z" />
    <glyph glyph-name="h" unicode="h" horiz-adv-x="1183" 
d="M264 1509q56 0 101 -8v-610q114 184 321 184q354 0 354 -409v-666q-102 -18 -200 0v610q0 145 -48 214t-147 69q-193 0 -258 -191q-23 -68 -22 -163v-539q-47 -8 -103 -8t-100 8v1501q46 8 102 8z" />
    <glyph glyph-name="i" unicode="i" horiz-adv-x="589" 
d="M180 1282q-6 38 -6 106t6 101q54 8 113 8q58 0 106 -8q18 -101 0 -207q-49 -8 -107 -8t-112 8zM324 -8q-54 0 -99 8v891h-133q-8 32 -8 80t8 80h332v-1051q-46 -8 -100 -8z" />
    <glyph glyph-name="j" unicode="j" horiz-adv-x="593" 
d="M182 1284q-8 58 -8 104t8 99q68 10 112 10q45 0 105 -10q9 -61 9 -107t-9 -96q-63 -10 -106 -10t-111 10zM90 971q0 48 8 80h332v-1110q0 -324 -326 -324q-111 0 -186 27q5 93 33 153q49 -16 118 -16t100 21q62 43 62 153v936h-133q-8 32 -8 80z" />
    <glyph glyph-name="k" unicode="k" horiz-adv-x="1052" 
d="M748 1051q54 8 109 8q56 0 114 -8l-334 -492l391 -559q-114 -16 -225 0l-389 545zM258 1509q56 0 100 -8v-1501q-46 -8 -102 -8t-100 8v1501q46 8 102 8z" />
    <glyph glyph-name="l" unicode="l" horiz-adv-x="610" 
d="M261 1509q55 0 99 -8v-1184q0 -146 79 -162q24 -5 62 -5t70 8q18 -72 19 -156q-46 -16 -126 -16q-148 0 -227 67t-77 219v1229q46 8 101 8z" />
    <glyph glyph-name="m" unicode="m" horiz-adv-x="1748" 
d="M164 1051q46 8 86 8t86 -8q18 -93 18 -166q63 130 199 174q49 16 109 16q124 0 190 -50t100 -140q109 190 299 190q191 0 274 -102t83 -303v-670q-104 -18 -203 0v610q0 141 -43 212t-144 71t-166 -76t-65 -223v-594q-47 -8 -101 -8t-100 8v625q0 137 -41 205t-139 69
q-98 0 -169 -93q-70 -93 -70 -269v-537q-47 -8 -103 -8t-100 8v1051z" />
    <glyph glyph-name="n" unicode="n" horiz-adv-x="1183" 
d="M164 1051q46 8 86 8t86 -8q18 -93 18 -170q42 74 129 134t207 60q180 0 266 -103t86 -306v-666q-46 -8 -102 -8t-100 8v610q0 145 -45 214t-144 69q-193 0 -261 -196q-24 -69 -23 -165v-532q-47 -8 -103 -8t-100 8v1051z" />
    <glyph glyph-name="o" unicode="o" horiz-adv-x="1181" 
d="M590 909q-276 0 -275 -385q0 -182 67 -284t208 -103q141 1 209 103t67 284q0 385 -276 385zM100 524q0 244 126 398q126 153 364 153q237 0 364 -155t126 -398q-1 -244 -127 -396q-126 -151 -362 -151q-237 0 -364 152q-127 153 -127 397z" />
    <glyph glyph-name="p" unicode="p" horiz-adv-x="1208" 
d="M887 543q0 356 -258 356q-111 0 -188 -78t-76 -223v-426q70 -25 165 -26q257 -2 331 220q26 75 26 177zM162 1051q40 8 86 8t86 -8q3 -5 8 -51q6 -46 9 -68t3 -29q104 172 320 172q300 0 394 -290q32 -99 32 -234q0 -270 -146 -423t-415 -153q-96 0 -174 23v-481
q-108 -17 -203 0v1534z" />
    <glyph glyph-name="q" unicode="q" horiz-adv-x="1198" 
d="M672 905q-174 0 -264 -115q-91 -115 -91 -295q0 -181 87 -265q87 -83 241 -85q78 0 191 27v717q-78 16 -164 16zM676 1075q192 0 360 -47v-1511q-102 -18 -200 0v483q-210 -49 -407 5q-198 53 -279 246q-44 99 -44 237q-1 266 154 426q155 161 416 161z" />
    <glyph glyph-name="r" unicode="r" horiz-adv-x="761" 
d="M164 1051q46 8 91 8t81 -8q18 -93 18 -166q106 172 295 172q38 0 64 -4q8 -36 8 -79t-10 -106q-15 4 -33 4h-29q-197 0 -259 -176q-24 -68 -23 -174v-522q-47 -8 -101 -8q-55 0 -102 8v1051z" />
    <glyph glyph-name="s" unicode="s" horiz-adv-x="931" 
d="M125 772q0 139 99 221t272 82t311 -51q-8 -87 -43 -158q-132 47 -225 47t-151 -26q-58 -27 -58 -94q0 -89 109 -131q32 -12 69 -25l90 -31q113 -37 157 -83t63 -94q20 -48 20 -120q1 -147 -119 -240q-119 -94 -300 -94q-182 0 -321 50q6 59 47 165q112 -47 262 -48
t208 90q19 30 19 69q1 72 -55 111q-35 24 -133 57l-71 27q-131 49 -191 110q-59 61 -59 166z" />
    <glyph glyph-name="t" unicode="t" horiz-adv-x="733" 
d="M516 -16q-147 0 -230 72t-83 237v596h-160l-8 29l352 393h16v-260h267q8 -35 8 -77t-8 -85h-267v-479q0 -165 32 -216q17 -28 47 -37q76 -23 196 7q20 -59 20 -160q-82 -20 -182 -20z" />
    <glyph glyph-name="u" unicode="u" horiz-adv-x="1175" 
d="M254 1059q56 0 100 -8v-576q0 -192 69 -260t195 -69q127 -1 201 22v883q45 8 101 8t100 -8v-1018q-322 -89 -566 -40q-305 58 -302 474v584q46 8 102 8z" />
    <glyph glyph-name="v" unicode="v" horiz-adv-x="1087" 
d="M35 1051q58 8 120 8q63 0 107 -8l287 -867l289 867q46 8 102 8t113 -8l-410 -1051q-55 -8 -103 -8t-98 8z" />
    <glyph glyph-name="w" unicode="w" horiz-adv-x="1587" 
d="M45 1051q58 8 117 8q58 0 102 -8l205 -858l231 858q46 8 112 7t95 -7l230 -844l204 844q46 8 95 8q50 0 106 -8l-313 -1051q-55 -8 -105 -8t-102 8l-225 795l-236 -795q-59 -8 -111 -8q-53 0 -96 8z" />
    <glyph glyph-name="x" unicode="x" horiz-adv-x="1042" 
d="M894 -8q-54 0 -101 8l-265 543l220 508q58 8 114 8q55 0 103 -8l-244 -500l285 -551q-58 -8 -112 -8zM74 1051q47 8 104 8t117 -8l217 -508l-262 -543q-105 -15 -213 0l285 545z" />
    <glyph glyph-name="y" unicode="y" horiz-adv-x="1083" 
d="M27 1051q40 6 115 6t108 -6l291 -977l301 977q43 6 104 6t105 -6l-408 -1264q-59 -170 -129 -233q-71 -64 -182 -64t-191 25q0 83 33 157q60 -20 103 -20t79 8q59 13 103 139l63 199l-67 -2q-52 0 -80 4z" />
    <glyph glyph-name="z" unicode="z" horiz-adv-x="976" 
d="M119 970q0 44 6 81h788l11 -27l-557 -862h522q6 -41 6 -83t-6 -79h-819l-11 29l553 860h-487q-6 37 -6 81z" />
    <glyph glyph-name="braceleft" unicode="{" horiz-adv-x="847" 
d="M743 -256q0 -42 -8 -84q-236 0 -330 97t-94 323q0 119 -4 201q-8 164 -87 239q-42 41 -118 80v27q119 63 163 136q44 74 44 216q0 141 9 252q18 226 169 298q80 38 220 38h28q8 -40 8 -82t-8 -80q-78 0 -123 -16q-46 -16 -76 -66t-30 -231v-13q0 -228 -36 -321t-138 -144
q103 -57 138 -149q36 -93 36 -318v-14q0 -180 42 -246q42 -65 187 -65q8 -36 8 -78z" />
    <glyph glyph-name="bar" unicode="|" horiz-adv-x="681" 
d="M342 1597q54 0 98 -8v-1933q-46 -8 -100 -8t-98 8v1933q46 8 100 8z" />
    <glyph glyph-name="braceright" unicode="}" horiz-adv-x="847" 
d="M102 1487q0 42 9 80h28q139 0 219 -38q150 -71 169 -298q9 -111 9 -219t12 -159q21 -102 100 -166q40 -32 95 -60v-27q-75 -39 -117 -80t-62 -99t-25 -140q-4 -82 -4 -196q0 -232 -94 -329q-94 -96 -330 -96q-9 45 -9 86t9 76q146 0 191 72q38 59 38 239v14q0 229 36 321
t138 146q-101 52 -138 146q-36 95 -36 319v13q0 182 -41 247q-41 66 -188 66q-9 40 -9 82z" />
    <glyph glyph-name="asciitilde" unicode="~" horiz-adv-x="976" 
d="M313 786q-104 0 -186 -79q-65 57 -88 131q41 49 115 85q74 35 138 35t109 -13t128 -41t163 -27q81 0 162 75q50 -47 86 -141q-108 -108 -260 -106q-65 0 -148 27q-84 26 -130 40t-89 14z" />
    <glyph glyph-name="uni00A0" unicode="&#xa0;" horiz-adv-x="0" 
 />
    <glyph glyph-name="exclamdown" unicode="&#xa1;" horiz-adv-x="593" 
d="M412 1055q8 -58 8 -115t-8 -115q-58 -8 -115 -8t-115 8q-8 58 -8 115t8 115q58 8 115 8t115 -8zM294 -426q-52 0 -110 8l13 1030q102 16 192 0l14 -1030q-57 -8 -109 -8z" />
    <glyph glyph-name="cent" unicode="&#xa2;" 
d="M737 -250q-39 0 -71 8v224q-217 24 -327 166t-110 369t113 378t324 174v234q38 10 70 10t73 -10v-232q118 -8 209 -41q0 -83 -35 -160q-112 35 -227 35q-160 0 -240 -103t-80 -290t90 -278t226 -91t237 37q39 -71 43 -160q-113 -34 -223 -43v-219q-33 -8 -72 -8z" />
    <glyph glyph-name="sterling" unicode="&#xa3;" 
d="M1085 96q0 -53 -6 -96h-868l-8 25l39 36q104 99 139 292q8 50 8 114t-20 158h-179q-6 37 -6 78t6 81h146q-29 171 -29 252q0 80 28 161q58 167 227 241q87 37 236 37t279 -56q-9 -92 -47 -170q-112 49 -216 49t-154 -22q-137 -62 -139 -247q-1 -112 30 -245h383
q6 -41 6 -82t-6 -77h-354q18 -83 18 -152q0 -188 -76 -289h557q6 -35 6 -88z" />
    <glyph glyph-name="currency" unicode="&#xa4;" 
d="M354 713q0 -57 20 -107q40 -102 137 -144q48 -22 104 -22q110 0 186 79t77 192t-76 195q-77 81 -187 80q-111 -1 -186 -80t-75 -193zM172 711q0 135 78 247l-162 164q44 85 125 121l162 -164q105 72 239 72t242 -72l164 164q85 -53 121 -119l-162 -161q82 -111 82 -242
q0 -130 -78 -254l156 -156q-45 -78 -117 -121l-162 160q-109 -74 -247 -74t-246 74l-158 -157q-80 36 -121 122l156 156q-72 105 -72 240z" />
    <glyph glyph-name="yen" unicode="&#xa5;" 
d="M618 -8q-56 0 -104 8v322h-377q-8 25 -8 66t8 75h377v180h-377q-8 25 -8 67t8 74h295l-377 664q54 8 119 8t115 -8l336 -619l329 619q54 8 113 8t109 -8l-371 -664h311q6 -30 6 -70t-6 -71h-393v-180h393q6 -29 6 -70t-6 -71h-393v-322q-49 -8 -105 -8z" />
    <glyph glyph-name="brokenbar" unicode="&#xa6;" horiz-adv-x="681" 
d="M342 346q54 0 98 -8v-682q-46 -8 -100 -8t-98 8v682q46 8 100 8zM342 1597q54 0 98 -8v-682q-42 -8 -98 -8t-100 8v682q46 8 100 8z" />
    <glyph glyph-name="section" unicode="&#xa7;" horiz-adv-x="1150" 
d="M395 909q-75 -69 -73 -143q0 -51 32 -83t103 -54l237 -76q10 -4 24 -8t32 -10q23 20 49 59q27 39 27 87t-30 80t-96 52l-145 45q-45 14 -87 24t-73 27zM470 131q140 0 216 37t76 101t-48 92t-226 84t-245 102q-67 45 -87 88t-21 104q0 119 117 248q-66 66 -67 156
q-2 157 117 243t299 85t345 -56q0 -74 -49 -160q-125 54 -260 56q-248 0 -248 -137q0 -66 43 -92t115 -48l254 -78q213 -66 213 -241q0 -131 -117 -262q68 -64 69 -155t-34 -147q-109 -175 -449 -178q-189 0 -342 56q14 90 52 159q137 -57 277 -57z" />
    <glyph glyph-name="dieresis" unicode="&#xa8;" horiz-adv-x="1024" 
d="M616 1237q-8 47 -8 100t8 105q50 8 103 8q54 0 106 -8q6 -54 6 -104t-6 -101q-53 -6 -112 -6q-60 0 -97 6zM199 1442q50 8 102 8t107 -8q8 -47 8 -100t-8 -105q-53 -6 -112 -6t-97 6q-13 90 -9 134q5 45 9 71z" />
    <glyph glyph-name="copyright" unicode="&#xa9;" horiz-adv-x="1732" 
d="M866 -27q-170 1 -310 59q-283 118 -394 400q-56 139 -56 302t56 303q111 284 394 402q140 58 310 58q341 0 551 -217q209 -217 209 -546t-210 -543q-100 -101 -240 -159t-310 -59zM1477 735q0 131 -42 246t-121 200q-170 183 -449 183q-278 0 -444 -179
q-165 -179 -165 -451q0 -271 167 -449q167 -179 443 -179q143 0 256 50q227 99 313 333q42 115 42 246zM910 307q-200 0 -307 120t-106 307t109 312t285 123q113 0 211 -32q-5 -87 -33 -142q-80 25 -162 25q-117 0 -177 -77t-60 -212t64 -206t166 -71q101 0 173 33
q31 -57 43 -137q-96 -43 -206 -43z" />
    <glyph glyph-name="ordfeminine" unicode="&#xaa;" horiz-adv-x="1024" 
d="M493 1149q77 0 136 -8v26q0 90 -49 124t-149 34t-200 -31q-34 62 -34 138q124 36 276 36t239 -74t87 -233v-512q-160 -39 -325 -40t-256 61t-91 199q0 138 109 213q96 67 257 67zM291 874q0 -109 131 -124q105 -12 207 8v250q-46 8 -117 8q-221 0 -221 -142z" />
    <glyph glyph-name="guillemotleft" unicode="&#xab;" horiz-adv-x="1265" 
d="M1060 84q-56 0 -104 8l-340 455l340 452q56 9 111 9t107 -9l-334 -450l334 -457q-58 -8 -114 -8zM544 84q-56 0 -104 8l-340 455l340 452q56 9 111 9t106 -9l-333 -450l333 -457q-57 -8 -113 -8z" />
    <glyph glyph-name="logicalnot" unicode="&#xac;" 
d="M178 694q0 56 8 97h854v-572q-36 -8 -92 -8t-96 8v383h-666q-8 36 -8 92z" />
    <glyph glyph-name="uni00AD" unicode="&#xad;" horiz-adv-x="739" 
d="M643 572q0 -56 -8 -91h-531q-8 35 -8 91t8 96h531q8 -40 8 -96z" />
    <glyph glyph-name="registered" unicode="&#xae;" horiz-adv-x="1732" 
d="M864 -27q-170 1 -310 59q-283 118 -394 400q-56 139 -56 302t56 303q111 284 394 402q140 58 310 58q341 0 551 -217q209 -217 209 -546t-210 -543q-100 -101 -240 -159t-310 -59zM256 733q0 -272 166 -449q166 -178 442 -178t443 178q168 178 168 450t-167 450t-444 178
q-279 0 -443 -179q-165 -178 -165 -450zM817 1157q162 0 254 -60t90 -184q0 -92 -45 -148t-98 -83l215 -326q-44 -6 -92 -6q-49 0 -86 6l-234 365l41 18q137 64 137 158q0 59 -43 92t-98 33t-90 -6v-662q-31 -6 -75 -6t-81 6v789q123 14 205 14z" />
    <glyph glyph-name="macron" unicode="&#xaf;" horiz-adv-x="1024" 
d="M797 1343q0 -42 -9 -73h-552q-9 36 -9 79t9 72h552q9 -36 9 -78z" />
    <glyph glyph-name="degree" unicode="&#xb0;" horiz-adv-x="757" 
d="M229 1188q0 -70 43 -115t109 -45t111 45t45 115t-45 116t-111 46t-109 -46t-43 -116zM82 1189q0 63 24 117q47 110 159 157q53 24 115 24q122 0 212 -86t90 -211q0 -124 -90 -212t-211 -87q-61 0 -116 23q-113 50 -159 158q-24 54 -24 117z" />
    <glyph glyph-name="plusminus" unicode="&#xb1;" 
d="M610 250q-47 0 -86 8v371h-340q-8 41 -8 91t8 91h340v373q46 8 89 8t94 -8v-373h337q9 -52 9 -97t-9 -85h-337v-371q-50 -8 -97 -8zM1057 93q0 -55 -8 -91h-869q-6 28 -6 92t6 94h869q8 -40 8 -95z" />
    <glyph glyph-name="twosuperior" unicode="&#xb2;" horiz-adv-x="921" 
d="M782 702q0 -40 -4 -75h-633l-10 24q66 70 186 193q230 234 230 353q0 106 -170 106q-87 0 -174 -35q-30 81 -39 145q123 45 255 45t220 -66t88 -188q0 -92 -47 -175t-139 -175l-80 -80h313q4 -32 4 -72z" />
    <glyph glyph-name="threesuperior" unicode="&#xb3;" horiz-adv-x="921" 
d="M600 885q0 73 -53 103t-112 30t-89 -8l-22 24l178 273h-287q-6 37 -6 71t6 70h524l17 -31l-201 -291q102 -11 163 -80q60 -69 60 -145q0 -141 -103 -219t-274 -80q-103 0 -155 12t-86 23q8 78 41 139q223 -67 339 1q60 36 60 108z" />
    <glyph glyph-name="acute" unicode="&#xb4;" horiz-adv-x="1024" 
d="M469 1217q-52 -9 -106 -9t-97 9l236 260q62 8 131 8t127 -8z" />
    <glyph glyph-name="mu" unicode="&#xb5;" horiz-adv-x="1234" 
d="M264 1059q55 0 101 -8v-549q0 -180 60 -268t180 -87q120 0 197 73t77 220v611q46 8 101 8t99 -8v-1051q-31 -8 -75 -8t-84 8q-21 88 -27 131q-112 -156 -309 -156q-139 0 -222 93v-551q-101 -18 -198 0v1534q45 8 100 8z" />
    <glyph glyph-name="paragraph" unicode="&#xb6;" horiz-adv-x="1169" 
d="M891 1485q102 0 151 -12v-1473q-49 -12 -151 -12v1497zM584 641h-25q-314 0 -421 219q-36 76 -36 188q0 232 150 335q150 102 483 102v-1497q-102 0 -151 12v641z" />
    <glyph glyph-name="periodcentered" unicode="&#xb7;" horiz-adv-x="493" 
d="M135 453q-8 59 -8 113t8 110q59 8 113 8t110 -8q9 -65 9 -119t-9 -104q-66 -9 -112 -9t-111 9z" />
    <glyph glyph-name="cedilla" unicode="&#xb8;" horiz-adv-x="1024" 
d="M453 -219q-54 0 -115 -14l-12 10l100 272h131l-68 -168q20 4 48 4q98 0 151 -49t53 -138t-81 -140q-81 -52 -197 -52t-174 23q6 84 28 119q61 -20 127 -21q142 0 142 82q0 72 -133 72z" />
    <glyph glyph-name="onesuperior" unicode="&#xb9;" horiz-adv-x="921" 
d="M213 699q0 42 10 73h197v469l-191 -78q-44 44 -67 131l395 162h35v-684h190q18 -78 0 -145h-559q-10 30 -10 72z" />
    <glyph glyph-name="ordmasculine" unicode="&#xba;" horiz-adv-x="1024" 
d="M133 1038q0 185 100 310t281 125t279 -124t98 -308t-98 -311q-98 -126 -279 -126q-182 0 -282 124q-100 125 -99 310zM711 1040q0 286 -199 285q-100 0 -150 -76t-49 -209q0 -133 49 -210t150 -76q199 0 199 286z" />
    <glyph glyph-name="guillemotright" unicode="&#xbb;" horiz-adv-x="1263" 
d="M602 999q65 9 120 9q54 0 97 -9l342 -454l-342 -453q-62 -10 -105 -10q-42 0 -112 10l336 451zM88 999q65 9 120 9q54 0 97 -9l342 -454l-342 -453q-62 -10 -105 -10q-42 0 -112 10l336 451z" />
    <glyph glyph-name="onequarter" unicode="&#xbc;" horiz-adv-x="2150" 
d="M1505 1450q50 8 104 8t103 -8l-989 -1448q-59 -8 -109 -8t-98 8zM184 701q0 41 11 71h196v469l-190 -78q-42 42 -68 131l395 162h35v-684h191q8 -35 8 -73t-8 -72h-559q-11 33 -11 74zM1995 228q0 -44 -8 -68h-99v-158q-41 -6 -82 -6t-80 6v158h-426l-16 26l336 666
q82 -10 149 -49l-243 -498h200v162q37 6 79 6t83 -6v-162h99q8 -33 8 -77z" />
    <glyph glyph-name="onehalf" unicode="&#xbd;" horiz-adv-x="2150" 
d="M1470 1450q50 8 104 8t103 -8l-989 -1448q-58 -8 -108 -8t-99 8zM178 699q0 42 10 73h197v469l-190 -78q-42 42 -68 131l395 162h35v-684h191q8 -35 8 -73t-8 -72h-560q-10 30 -10 72zM1999 77q0 -41 -4 -75h-633l-10 25q66 70 186 191q229 232 229 354q0 106 -170 106
q-92 0 -174 -35q-27 73 -39 145q121 44 254 45q134 1 222 -65t88 -173t-47 -191t-140 -175l-80 -79h314q4 -32 4 -73z" />
    <glyph glyph-name="threequarters" unicode="&#xbe;" horiz-adv-x="2150" 
d="M1518 1450q50 8 104 8t102 -8l-989 -1448q-59 -8 -109 -8t-98 8zM2013 246q0 -44 -8 -70h-98v-158q-41 -6 -82 -6t-80 6v158h-426l-16 27l335 665q82 -10 150 -49l-244 -497h201v161q37 6 79 6t83 -6v-161h98q8 -32 8 -76zM614 885q0 73 -53 103t-112 30t-89 -8l-22 24
l178 273h-287q-6 37 -6 71t6 70h525l16 -31l-201 -291q105 -11 163 -80q58 -68 60 -144q2 -140 -102 -219t-274 -81q-106 0 -156 12q-51 12 -86 23q8 78 41 139q224 -68 339 1q60 36 60 108z" />
    <glyph glyph-name="questiondown" unicode="&#xbf;" horiz-adv-x="999" 
d="M690 1053q8 -58 8 -114t-8 -114q-72 -10 -116 -10q-43 0 -113 10q-8 58 -8 114t8 114q55 8 119 8t110 -8zM614 -420q-242 0 -366 110t-123 290q0 180 140 304q94 84 212 122v210q111 19 195 0v-331q-166 -43 -250 -113t-83 -182t79 -172t217 -60t270 49q41 -88 51 -169
q-144 -47 -219 -52q-76 -6 -123 -6z" />
    <glyph glyph-name="Agrave" unicode="&#xc0;" horiz-adv-x="1263" 
d="M401 522h449l-225 752zM1229 0q-49 -8 -111 -8t-110 8l-103 340h-559l-100 -340q-54 -8 -112 -8t-101 8l479 1473q54 8 118 8t122 -8zM274 1817q72 10 136 10t147 -10l215 -222q-47 -8 -106 -8t-111 8z" />
    <glyph glyph-name="Aacute" unicode="&#xc1;" horiz-adv-x="1263" 
d="M401 522h449l-225 752zM1229 0q-49 -8 -111 -8t-110 8l-103 340h-559l-100 -340q-54 -8 -112 -8t-101 8l479 1473q54 8 118 8t122 -8zM678 1817q83 10 146 10q64 0 134 -10l-278 -222q-54 -8 -109 -8q-54 0 -110 8z" />
    <glyph glyph-name="Acircumflex" unicode="&#xc2;" horiz-adv-x="1263" 
d="M401 522h449l-225 752zM1229 0q-49 -8 -111 -8t-110 8l-103 340h-559l-100 -340q-54 -8 -112 -8t-101 8l479 1473q54 8 118 8t122 -8zM901 1587h-45q-62 0 -94 8l-133 125l-133 -125q-36 -8 -97 -8h-47q-44 0 -84 8l242 222q46 8 116 8t124 -8l235 -222q-36 -8 -84 -8z
" />
    <glyph glyph-name="Atilde" unicode="&#xc3;" horiz-adv-x="1263" 
d="M401 522h449l-225 752zM1229 0q-49 -8 -111 -8t-110 8l-103 340h-559l-100 -340q-54 -8 -112 -8t-101 8l479 1473q54 8 118 8t122 -8zM469 1864q58 0 134 -35q77 -35 117 -51t93 -16t127 69q47 -57 68 -121q-98 -98 -205 -98q-70 0 -175 50t-152 50q-48 0 -78 -17
t-68 -53q-57 72 -68 117q94 105 207 105z" />
    <glyph glyph-name="Adieresis" unicode="&#xc4;" horiz-adv-x="1263" 
d="M401 522h449l-225 752zM1229 0q-49 -8 -111 -8t-110 8l-103 340h-559l-100 -340q-54 -8 -112 -8t-101 8l479 1473q54 8 118 8t122 -8zM731 1724q0 41 10 99q50 8 104 8t111 -8q13 -113 0 -207q-58 -8 -112 -8t-103 8q-10 67 -10 108zM295 1718q0 51 6 105q58 8 112 8
q55 0 103 -8q8 -47 8 -103t-8 -104q-50 -8 -104 -8t-111 8q-6 51 -6 102z" />
    <glyph glyph-name="Aring" unicode="&#xc5;" horiz-adv-x="1263" 
d="M631 1544q53 0 82 37t28 96q0 59 -28 97q-29 36 -82 36t-83 -36t-30 -96t30 -97t83 -37zM850 522l-225 744l-224 -744h449zM512 1468q-125 64 -125 225q0 88 68 156t175 68t176 -68t68 -172q0 -146 -124 -209l479 -1468q-49 -8 -111 -8t-110 8l-105 340h-555l-102 -340
q-54 -8 -112 -8t-101 8z" />
    <glyph glyph-name="AE" unicode="&#xc6;" horiz-adv-x="1888" 
d="M969 1305h-11l-442 -781h453v781zM1802 91q0 -51 -8 -91h-825v344h-551l-195 -344q-57 -8 -121 -8t-112 8l864 1473h924q8 -45 8 -95t-8 -90h-600v-444h481q6 -40 6 -96t-6 -86h-481v-480h616q8 -40 8 -91z" />
    <glyph glyph-name="Ccedilla" unicode="&#xc7;" horiz-adv-x="1265" 
d="M1102 1270q-139 45 -285 45q-221 0 -347 -153t-126 -434t131 -426q131 -144 356 -144q169 0 289 57q41 -89 58 -172q-162 -66 -351 -66h-34l-35 -88q13 3 39 5q113 0 165 -54t52 -141q0 -88 -80 -140q-80 -53 -198 -53t-185 25q6 87 31 123q72 -23 129 -23q143 0 143 80
q0 70 -131 70q-69 0 -117 -17l-16 19q20 51 40 101q19 50 38 104q-255 40 -402 234t-147 525q0 330 184 540t500 210q204 0 348 -57q-7 -79 -49 -170z" />
    <glyph glyph-name="Egrave" unicode="&#xc8;" horiz-adv-x="1097" 
d="M1012 86q0 -56 -6 -86h-826v1473h809q6 -41 6 -97t-6 -86h-600v-422h479q18 -91 0 -182h-479v-504h617q6 -40 6 -96zM262 1817q73 10 136 10q64 0 147 -10l215 -222q-47 -8 -106 -8t-111 8z" />
    <glyph glyph-name="Eacute" unicode="&#xc9;" horiz-adv-x="1097" 
d="M1012 86q0 -56 -6 -86h-826v1473h809q6 -41 6 -97t-6 -86h-600v-422h479q18 -91 0 -182h-479v-504h617q6 -40 6 -96zM614 1595q-54 -8 -107 -8t-112 8l217 222q83 10 146 10t135 -10z" />
    <glyph glyph-name="Ecircumflex" unicode="&#xca;" horiz-adv-x="1097" 
d="M1012 86q0 -56 -6 -86h-826v1473h809q6 -41 6 -97t-6 -86h-600v-422h479q18 -91 0 -182h-479v-504h617q6 -40 6 -96zM856 1587h-45q-62 0 -94 8l-133 125l-133 -125q-36 -8 -97 -8h-47q-44 0 -84 8l242 222q46 8 116 8t124 -8l235 -222q-36 -8 -84 -8z" />
    <glyph glyph-name="Edieresis" unicode="&#xcb;" horiz-adv-x="1097" 
d="M1012 86q0 -56 -6 -86h-826v1473h809q6 -41 6 -97t-6 -86h-600v-422h479q18 -91 0 -182h-479v-504h617q6 -40 6 -96zM682 1724q0 41 10 99q50 8 105 8t110 -8q6 -53 6 -105t-6 -102q-58 -8 -111 -8q-54 0 -104 8q-10 67 -10 108zM246 1718q0 51 6 105q58 8 112 8t103 -8
q8 -47 8 -103t-8 -104q-50 -8 -104 -8t-111 8q-6 51 -6 102z" />
    <glyph glyph-name="Igrave" unicode="&#xcc;" horiz-adv-x="569" 
d="M285 1481q55 0 104 -8v-1473q-49 -8 -107 -8t-102 8v1473q50 8 105 8zM-43 1817q73 10 136 10q64 0 147 -10l215 -222q-47 -8 -106 -8t-111 8z" />
    <glyph glyph-name="Iacute" unicode="&#xcd;" horiz-adv-x="569" 
d="M285 1481q55 0 104 -8v-1473q-49 -8 -107 -8t-102 8v1473q50 8 105 8zM348 1595q-54 -8 -108 -8q-55 0 -111 8l217 222q83 10 146 10t135 -10z" />
    <glyph glyph-name="Icircumflex" unicode="&#xce;" horiz-adv-x="569" 
d="M285 1481q55 0 104 -8v-1473q-49 -8 -107 -8t-102 8v1473q50 8 105 8zM559 1587h-45q-62 0 -94 8l-133 125l-133 -125q-36 -8 -97 -8h-47q-44 0 -84 8l242 222q46 8 116 8t124 -8l235 -222q-36 -8 -84 -8z" />
    <glyph glyph-name="Idieresis" unicode="&#xcf;" horiz-adv-x="569" 
d="M285 1481q55 0 104 -8v-1473q-49 -8 -107 -8t-102 8v1473q50 8 105 8zM389 1724q0 41 10 99q51 8 105 8q55 0 110 -8q13 -113 0 -207q-58 -8 -112 -8t-103 8q-10 67 -10 108zM-47 1718q0 51 6 105q58 8 113 8q54 0 102 -8q8 -47 8 -103t-8 -104q-50 -8 -103 -8t-112 8
q-6 51 -6 102z" />
    <glyph glyph-name="Eth" unicode="&#xd0;" horiz-adv-x="1449" 
d="M1110 739q0 570 -536 570q-121 0 -164 -9v-469h331q9 -36 9 -80t-9 -73h-331v-506q73 -10 176 -10q104 0 204 28q320 88 320 549zM201 678h-168q-8 32 -8 78t8 75h168v642q192 22 360 22q387 0 579 -197q192 -198 191 -574q0 -747 -778 -749q-184 0 -352 25v678z" />
    <glyph glyph-name="Ntilde" unicode="&#xd1;" horiz-adv-x="1392" 
d="M180 1473q46 8 97 8t96 -8l641 -1106v1106q50 8 102 8t96 -8v-1473q-46 -8 -97 -8t-95 8l-643 1100v-1100q-45 -8 -101 -8t-96 8v1473zM539 1864q58 0 134 -35q77 -35 117 -51t93 -16t127 69q47 -57 67 -121q-98 -98 -205 -98q-69 0 -175 50q-105 50 -152 50t-77 -17
t-69 -53q-56 70 -67 117q94 105 207 105z" />
    <glyph glyph-name="Ograve" unicode="&#xd2;" horiz-adv-x="1482" 
d="M1143 734q0 419 -222 539q-75 40 -177 40t-178 -40q-222 -118 -222 -538q0 -267 98 -424q100 -155 301 -155q296 0 375 338q25 106 25 240zM121 735q0 342 152 546q165 216 472 216t468 -216q151 -198 151 -545t-157 -554t-464 -207q-161 1 -277 57q-232 112 -307 398
q-38 139 -38 305zM379 1817q73 10 137 10t146 -10l215 -222q-47 -8 -106 -8t-112 8z" />
    <glyph glyph-name="Oacute" unicode="&#xd3;" horiz-adv-x="1482" 
d="M1143 734q0 419 -222 539q-75 40 -177 40t-178 -40q-222 -118 -222 -538q0 -267 98 -424q100 -155 301 -155q296 0 375 338q25 106 25 240zM121 735q0 342 152 546q165 216 472 216t468 -216q151 -198 151 -545t-157 -554t-464 -207q-161 1 -277 57q-232 112 -307 398
q-38 139 -38 305zM793 1595q-54 -8 -108 -8t-112 8l218 222q83 10 146 10q64 0 134 -10z" />
    <glyph glyph-name="Ocircumflex" unicode="&#xd4;" horiz-adv-x="1482" 
d="M1143 734q0 419 -222 539q-75 40 -177 40t-178 -40q-222 -118 -222 -538q0 -267 98 -424q100 -155 301 -155q296 0 375 338q25 106 25 240zM121 735q0 342 152 546q165 216 472 216t468 -216q151 -198 151 -545t-157 -554t-464 -207q-161 1 -277 57q-232 112 -307 398
q-38 139 -38 305zM1012 1587h-45q-63 0 -95 8l-133 125l-133 -125q-36 -8 -96 -8h-47q-44 0 -84 8l242 222q46 8 117 8t122 -8l236 -222q-36 -8 -84 -8z" />
    <glyph glyph-name="Otilde" unicode="&#xd5;" horiz-adv-x="1482" 
d="M1143 734q0 419 -222 539q-75 40 -177 40t-178 -40q-222 -118 -222 -538q0 -267 98 -424q100 -155 301 -155q296 0 375 338q25 106 25 240zM121 735q0 342 152 546q165 216 472 216t468 -216q151 -198 151 -545t-157 -554t-464 -207q-161 1 -277 57q-232 112 -307 398
q-38 139 -38 305zM586 1864q58 0 134 -35q77 -35 117 -51t93 -16t127 69q47 -57 67 -121q-98 -98 -204 -98q-72 0 -176 50t-151 50q-48 0 -78 -17t-69 -53q-56 70 -67 117q94 105 207 105z" />
    <glyph glyph-name="Odieresis" unicode="&#xd6;" horiz-adv-x="1482" 
d="M1143 734q0 419 -222 539q-75 40 -177 40t-178 -40q-222 -118 -222 -538q0 -267 98 -424q100 -155 301 -155q296 0 375 338q25 106 25 240zM121 735q0 342 152 546q165 216 472 216t468 -216q151 -198 151 -545t-157 -554t-464 -207q-161 1 -277 57q-232 112 -307 398
q-38 139 -38 305zM842 1724q0 41 10 99q50 8 104 8t111 -8q6 -53 6 -105t-6 -102q-57 -8 -111 -8t-104 8q-10 67 -10 108zM406 1718q0 51 6 105q58 8 111 8t104 -8q8 -47 8 -103t-8 -104q-50 -8 -104 -8q-53 0 -111 8q-6 51 -6 102z" />
    <glyph glyph-name="multiply" unicode="&#xd7;" 
d="M614 854l248 248q74 -55 129 -129q-123 -125 -248 -248q125 -123 248 -248q-59 -81 -129 -127l-246 246l-251 -248q-76 51 -129 129l249 248q-63 61 -247 248q43 64 129 131z" />
    <glyph glyph-name="Oslash" unicode="&#xd8;" horiz-adv-x="1482" 
d="M342 697q0 -171 55 -308l600 823q-96 100 -256 101q-299 1 -375 -337q-24 -108 -24 -279zM741 156q296 0 375 338q25 106 25 241q0 213 -64 359l-604 -828q100 -110 268 -110zM1212 1278q150 -201 150 -545t-157 -551t-464 -207q-233 0 -387 127l-73 -102q-35 -6 -82 -6
t-84 6l147 203q-143 199 -143 536q0 338 152 542q165 216 470 216q229 0 377 -121l70 97q32 8 80 8t86 -8z" />
    <glyph glyph-name="Ugrave" unicode="&#xd9;" horiz-adv-x="1380" 
d="M271 1479q56 0 104 -6v-836q0 -258 71 -366q71 -109 244 -108q172 1 242 107t72 367v836q51 6 106 6t104 -6v-873q0 -310 -122 -468q-122 -157 -402 -157q-410 0 -496 361q-28 117 -28 264v873q49 6 105 6zM348 1817q72 10 137 10q64 0 146 -10l215 -222q-47 -8 -106 -8
t-111 8z" />
    <glyph glyph-name="Uacute" unicode="&#xda;" horiz-adv-x="1380" 
d="M271 1479q56 0 104 -6v-836q0 -258 71 -366q71 -109 244 -108q172 1 242 107t72 367v836q51 6 106 6t104 -6v-873q0 -310 -122 -468q-122 -157 -402 -157q-410 0 -496 361q-28 117 -28 264v873q49 6 105 6zM764 1817q82 10 146 10t134 -10l-278 -222q-54 -8 -108 -8
q-55 0 -111 8z" />
    <glyph glyph-name="Ucircumflex" unicode="&#xdb;" horiz-adv-x="1380" 
d="M271 1479q56 0 104 -6v-836q0 -258 71 -366q71 -109 244 -108q172 1 242 107t72 367v836q51 6 106 6t104 -6v-873q0 -310 -122 -468q-122 -157 -402 -157q-410 0 -496 361q-28 117 -28 264v873q49 6 105 6zM963 1587h-45q-63 0 -95 8l-133 125l-133 -125q-36 -8 -96 -8
h-47q-44 0 -84 8l241 222q46 8 117 8t123 -8l236 -222q-36 -8 -84 -8z" />
    <glyph glyph-name="Udieresis" unicode="&#xdc;" horiz-adv-x="1380" 
d="M271 1479q56 0 104 -6v-836q0 -258 71 -366q71 -109 244 -108q172 1 242 107t72 367v836q51 6 106 6t104 -6v-873q0 -310 -122 -468q-122 -157 -402 -157q-410 0 -496 361q-28 117 -28 264v873q49 6 105 6zM793 1724q0 41 10 99q50 8 104 8t111 -8q6 -53 6 -105t-6 -102
q-58 -8 -111 -8q-54 0 -104 8q-10 67 -10 108zM356 1718q0 51 6 105q58 8 112 8t104 -8q8 -47 8 -103t-8 -104q-50 -8 -104 -8t-112 8q-6 51 -6 102z" />
    <glyph glyph-name="Yacute" unicode="&#xdd;" horiz-adv-x="1212" 
d="M37 1473q54 8 120 8q65 0 113 -8l344 -732l340 732q54 8 111 8t111 -8l-461 -934v-539q-55 -8 -111 -8t-100 8v539zM684 1817q83 10 146 10t135 -10l-279 -222q-54 -8 -108 -8t-111 8z" />
    <glyph glyph-name="Thorn" unicode="&#xde;" horiz-adv-x="1189" 
d="M527 442q228 0 307 156q30 62 30 158q-1 175 -110 253q-84 58 -238 58q-47 0 -129 -8v-608q88 -9 140 -9zM531 1249q91 1 193 -23q218 -50 309 -234q48 -95 48 -237q0 -266 -176 -389q-149 -104 -389 -104q-59 0 -129 4v-266q-38 -6 -107 -6t-102 6v1473q49 6 111 6
t98 -6v-230q53 6 144 6z" />
    <glyph glyph-name="germandbls" unicode="&#xdf;" horiz-adv-x="1171" 
d="M260 -8q-54 0 -98 8v1010q0 253 89 373q98 137 303 137t302 -94q96 -94 94 -238q0 -92 -28 -154t-64 -112q-36 -48 -64 -92t-28 -93t29 -84t103 -81q73 -46 109 -82q85 -85 85 -216t-90 -215t-269 -84q-131 0 -248 50q6 61 47 161q88 -43 171 -44q84 -1 134 29t50 111
t-83 138q-36 26 -78 50q-99 58 -137 132q-24 45 -24 116t29 123t62 101q34 48 63 104t29 135t-46 126t-135 47q-123 0 -165 -83t-42 -265v-1006q-46 -8 -100 -8z" />
    <glyph glyph-name="agrave" unicode="&#xe0;" horiz-adv-x="1058" 
d="M546 664q93 0 173 -11v39q1 121 -61 168t-184 47t-251 -41q-39 68 -39 162q143 47 332 47q400 0 402 -391v-657q-655 -146 -789 131q-31 63 -31 152t36 156t97 111q61 43 141 65t174 22zM561 506q-260 0 -260 -191q0 -106 79 -149q51 -27 158 -27t181 21v334
q-93 12 -158 12zM190 1477q62 8 131 8t130 -8l235 -260q-117 -20 -205 0z" />
    <glyph glyph-name="aacute" unicode="&#xe1;" horiz-adv-x="1058" 
d="M546 664q93 0 173 -11v39q1 121 -61 168t-184 47t-251 -41q-39 68 -39 162q143 47 332 47q400 0 402 -391v-657q-655 -146 -789 131q-31 63 -31 152t36 156t97 111q61 43 141 65t174 22zM561 506q-260 0 -260 -191q0 -106 79 -149q51 -27 158 -27t181 21v334
q-93 12 -158 12zM528 1217q-52 -9 -105 -9q-54 0 -97 9l235 260q62 8 132 8t126 -8z" />
    <glyph glyph-name="acircumflex" unicode="&#xe2;" horiz-adv-x="1058" 
d="M546 664q93 0 173 -11v39q1 121 -61 168t-184 47t-251 -41q-39 68 -39 162q143 47 332 47q400 0 402 -391v-657q-655 -146 -789 131q-31 63 -31 152t36 156t97 111q61 43 141 65t174 22zM561 506q-260 0 -260 -191q0 -106 79 -149q51 -27 158 -27t181 21v334
q-93 12 -158 12zM854 1217q-40 -9 -101 -9t-108 9l-133 163l-133 -163q-52 -9 -110 -9t-99 9l223 260q54 8 123 8t117 -10z" />
    <glyph glyph-name="atilde" unicode="&#xe3;" horiz-adv-x="1058" 
d="M546 664q93 0 173 -11v39q1 121 -61 168t-184 47t-251 -41q-39 68 -39 162q143 47 332 47q400 0 402 -391v-657q-655 -146 -789 131q-31 63 -31 152t36 156t97 111q61 43 141 65t174 22zM561 506q-260 0 -260 -191q0 -106 79 -149q51 -27 158 -27t181 21v334
q-93 12 -158 12zM238 1247q-50 63 -64 121q77 102 197 100q63 0 159 -44t155 -45q60 -1 130 63q45 -55 66 -125q-83 -98 -199 -96q-60 1 -128 31q-66 30 -102 44q-82 32 -145 0q-29 -14 -69 -49z" />
    <glyph glyph-name="adieresis" unicode="&#xe4;" horiz-adv-x="1058" 
d="M546 664q93 0 173 -11v39q1 121 -61 168t-184 47t-251 -41q-39 68 -39 162q143 47 332 47q400 0 402 -391v-657q-655 -146 -789 131q-31 63 -31 152t36 156t97 111q61 43 141 65t174 22zM561 506q-260 0 -260 -191q0 -106 79 -149q51 -27 158 -27t181 21v334
q-93 12 -158 12zM641 1237q-8 47 -8 100t8 105q50 8 103 8q54 0 106 -8q6 -54 6 -104t-6 -101q-53 -6 -112 -6q-60 0 -97 6zM223 1237q-8 53 -8 103t8 102q50 8 104 8t105 -8q8 -47 8 -100t-8 -105q-53 -6 -112 -6t-97 6z" />
    <glyph glyph-name="aring" unicode="&#xe5;" horiz-adv-x="1058" 
d="M546 664q93 0 173 -11v39q1 121 -61 168t-184 47t-251 -41q-39 68 -39 162q143 47 332 47q400 0 402 -391v-657q-655 -146 -789 131q-31 63 -31 152t36 156t97 111q61 43 141 65t174 22zM561 506q-260 0 -260 -191q0 -106 79 -149q51 -27 158 -27t181 21v334
q-93 12 -158 12zM541 1305q49 1 75 31t27 83q0 53 -27 84q-28 31 -76 31t-74 -31t-26 -84t26 -83t75 -31zM319 1419q-1 99 61 159t160 60t160 -60t62 -158t-62 -159t-159 -61q-98 0 -160 60t-62 159z" />
    <glyph glyph-name="ae" unicode="&#xe6;" horiz-adv-x="1718" 
d="M1419 629q0 194 -133 262q-45 23 -106 22q-244 0 -273 -284h512zM295 309q0 -145 148 -169q37 -5 87 -5q50 1 118 15t116 49q-52 88 -57 250l-2 38q-85 11 -144 11q-129 0 -197 -44t-69 -145zM709 692q1 121 -59 168t-185 47t-248 -41q-39 68 -39 162q143 47 316 47
q235 0 344 -164q126 164 337 164t326 -135t115 -350q0 -69 -8 -113h-703q0 -180 84 -257t236 -77t288 52q33 -73 37 -162q-139 -57 -346 -57t-336 100q-163 -101 -372 -101q-286 0 -375 183q-31 63 -31 152t36 155q129 236 583 184v43z" />
    <glyph glyph-name="ccedilla" unicode="&#xe7;" horiz-adv-x="978" 
d="M311 513q0 -185 91 -277t226 -92t236 36q39 -71 43 -160q-123 -43 -293 -45l-36 -92q10 2 36 2q106 0 160 -49t55 -138q-1 -89 -81 -140q-80 -52 -193 -52t-178 25q6 82 29 119q68 -23 128 -23t101 22q39 22 39 60q0 74 -135 74q-52 0 -113 -14q-4 2 -12 10
q39 109 78 209q-195 37 -291 177q-97 140 -97 371t134 385t376 154q164 0 279 -45q0 -88 -35 -160q-112 35 -227 35q-160 0 -240 -103t-80 -289z" />
    <glyph glyph-name="egrave" unicode="&#xe8;" horiz-adv-x="1140" 
d="M838 627q0 121 -64 204q-64 84 -186 83q-121 0 -188 -76t-81 -211h519zM317 475q8 -332 330 -332q155 0 287 52q35 -67 39 -162q-131 -56 -301 -57t-272 39q-298 116 -298 503q0 245 127 401t369 156q207 0 328 -138q55 -65 84 -154q28 -89 28 -165t-6 -143h-715z
M272 1477q62 8 131 8t129 -8l236 -260q-117 -20 -205 0z" />
    <glyph glyph-name="eacute" unicode="&#xe9;" horiz-adv-x="1140" 
d="M838 627q0 121 -64 204q-64 84 -186 83q-121 0 -188 -76t-81 -211h519zM317 475q8 -332 330 -332q155 0 287 52q35 -67 39 -162q-131 -56 -301 -57t-272 39q-298 116 -298 503q0 245 127 401t369 156q207 0 328 -138q55 -65 84 -154q28 -89 28 -165t-6 -143h-715z
M616 1217q-52 -9 -105 -9q-54 0 -97 9l235 260q62 8 132 8t126 -8z" />
    <glyph glyph-name="ecircumflex" unicode="&#xea;" horiz-adv-x="1140" 
d="M838 627q0 121 -64 204q-64 84 -186 83q-121 0 -188 -76t-81 -211h519zM317 475q8 -332 330 -332q155 0 287 52q35 -67 39 -162q-131 -56 -301 -57t-272 39q-298 116 -298 503q0 245 127 401t369 156q207 0 328 -138q55 -65 84 -154q28 -89 28 -165t-6 -143h-715z
M928 1217q-41 -9 -101 -9q-61 0 -108 9l-133 163l-133 -163q-52 -9 -110 -9t-99 9l223 260q54 8 123 8t117 -10z" />
    <glyph glyph-name="edieresis" unicode="&#xeb;" horiz-adv-x="1140" 
d="M838 627q0 121 -64 204q-64 84 -186 83q-121 0 -188 -76t-81 -211h519zM317 475q8 -332 330 -332q155 0 287 52q35 -67 39 -162q-131 -56 -301 -57t-272 39q-298 116 -298 503q0 245 127 401t369 156q207 0 328 -138q55 -65 84 -154q28 -89 28 -165t-6 -143h-715z
M682 1237q-8 47 -8 100t8 105q50 8 103 8q54 0 106 -8q6 -54 6 -104t-6 -101q-53 -6 -112 -6q-60 0 -97 6zM264 1237q-8 53 -8 103t8 102q50 8 103 8t106 -8q8 -47 8 -100t-8 -105q-53 -6 -112 -6t-97 6z" />
    <glyph glyph-name="igrave" unicode="&#xec;" horiz-adv-x="589" 
d="M-29 1477q62 8 131 8t129 -8l236 -260q-117 -20 -205 0zM324 -8q-54 0 -99 8v891h-133q-8 32 -8 80t8 80h332v-1051q-46 -8 -100 -8z" />
    <glyph glyph-name="iacute" unicode="&#xed;" horiz-adv-x="589" 
d="M305 1217q-52 -9 -105 -9t-98 9l236 260q62 8 132 8t126 -8zM324 -8q-54 0 -99 8v891h-133q-8 32 -8 80t8 80h332v-1051q-46 -8 -100 -8z" />
    <glyph glyph-name="icircumflex" unicode="&#xee;" horiz-adv-x="589" 
d="M324 -8q-54 0 -99 8v891h-133q-8 32 -8 80t8 80h332v-1051q-46 -8 -100 -8zM637 1217q-40 -9 -101 -9t-108 9l-133 163l-133 -163q-52 -9 -110 -9t-99 9l223 260q54 8 123 8t117 -10z" />
    <glyph glyph-name="idieresis" unicode="&#xef;" horiz-adv-x="589" 
d="M401 1237q-8 47 -8 100t8 105q50 8 104 8q53 0 105 -8q6 -54 6 -104t-6 -101q-53 -6 -112 -6t-97 6zM-16 1237q-9 61 -9 109q0 49 9 96q50 8 103 8q52 0 106 -8q8 -47 8 -100t-8 -105q-53 -6 -112 -6t-97 6zM324 -8q-54 0 -99 8v891h-133q-8 32 -8 80t8 80h332v-1051
q-46 -8 -100 -8z" />
    <glyph glyph-name="eth" unicode="&#xf0;" horiz-adv-x="1189" 
d="M594 133q277 0 274 352q0 174 -65 261q-66 88 -205 88q-281 1 -281 -350t277 -351zM594 -25q-242 -1 -366 141t-124 366t118 370q118 145 341 145q78 1 152 -25t121 -73q-41 109 -85 183t-110 126l-201 -125q-47 43 -71 111l143 90q-70 34 -207 53q-10 29 -10 75t18 95
q210 -12 373 -110l180 114q33 -27 78 -110q-35 -23 -71 -45t-72 -43q139 -129 211 -323t71 -423q0 -427 -272 -550q-92 -42 -217 -42z" />
    <glyph glyph-name="ntilde" unicode="&#xf1;" horiz-adv-x="1183" 
d="M164 1051q46 8 86 8t86 -8q18 -93 18 -170q42 74 129 134t207 60q180 0 266 -103t86 -306v-666q-46 -8 -102 -8t-100 8v610q0 145 -45 214t-144 69q-193 0 -261 -196q-24 -69 -23 -165v-532q-47 -8 -103 -8t-100 8v1051zM305 1247q-48 61 -63 121q77 102 196 100
q62 0 127 -30q66 -30 103 -45t91 -15t124 64q45 -55 65 -125q-83 -98 -198 -96q-60 1 -128 31q-67 30 -103 44q-83 32 -144 0q-29 -14 -70 -49z" />
    <glyph glyph-name="ograve" unicode="&#xf2;" horiz-adv-x="1181" 
d="M590 909q-276 0 -275 -385q0 -182 67 -284t208 -103q141 1 209 103t67 284q0 385 -276 385zM100 524q0 244 126 398q126 153 364 153q237 0 364 -155t126 -398q-1 -244 -127 -396q-126 -151 -362 -151q-237 0 -364 152q-127 153 -127 397zM260 1477q62 8 131 8t129 -8
l236 -260q-117 -20 -205 0z" />
    <glyph glyph-name="oacute" unicode="&#xf3;" horiz-adv-x="1181" 
d="M590 909q-276 0 -275 -385q0 -182 67 -284t208 -103q141 1 209 103t67 284q0 385 -276 385zM100 524q0 244 126 398q126 153 364 153q237 0 364 -155t126 -398q-1 -244 -127 -396q-126 -151 -362 -151q-237 0 -364 152q-127 153 -127 397zM602 1217q-52 -9 -106 -9t-97 9
l236 260q62 8 132 8t126 -8z" />
    <glyph glyph-name="ocircumflex" unicode="&#xf4;" horiz-adv-x="1181" 
d="M590 909q-276 0 -275 -385q0 -182 67 -284t208 -103q141 1 209 103t67 284q0 385 -276 385zM100 524q0 244 126 398q126 153 364 153q237 0 364 -155t126 -398q-1 -244 -127 -396q-126 -151 -362 -151q-237 0 -364 152q-127 153 -127 397zM930 1217q-41 -9 -101 -9
q-61 0 -108 9l-133 163l-133 -163q-52 -9 -110 -9t-99 9l223 260q54 8 123 8t117 -10z" />
    <glyph glyph-name="otilde" unicode="&#xf5;" horiz-adv-x="1181" 
d="M590 909q-276 0 -275 -385q0 -182 67 -284t208 -103q141 1 209 103t67 284q0 385 -276 385zM100 524q0 244 126 398q126 153 364 153q237 0 364 -155t126 -398q-1 -244 -127 -396q-126 -151 -362 -151q-237 0 -364 152q-127 153 -127 397zM299 1247q-48 61 -63 121
q77 102 196 100q62 0 127 -30q66 -30 103 -45t91 -15t124 64q45 -55 65 -125q-83 -98 -199 -96q-59 1 -127 31q-67 30 -103 44q-83 32 -144 0q-29 -14 -70 -49z" />
    <glyph glyph-name="odieresis" unicode="&#xf6;" horiz-adv-x="1181" 
d="M590 909q-276 0 -275 -385q0 -182 67 -284t208 -103q141 1 209 103t67 284q0 385 -276 385zM100 524q0 244 126 398q126 153 364 153q237 0 364 -155t126 -398q-1 -244 -127 -396q-126 -151 -362 -151q-237 0 -364 152q-127 153 -127 397zM692 1237q-8 47 -8 100t8 105
q50 8 103 8t106 -8q6 -54 6 -104t-6 -101q-53 -6 -112 -6t-97 6zM274 1237q-8 53 -8 103t8 102q50 8 104 8t105 -8q14 -84 9 -131q-5 -48 -9 -74q-53 -6 -112 -6q-60 0 -97 6z" />
    <glyph glyph-name="divide" unicode="&#xf7;" 
d="M1057 720q0 -55 -8 -91h-869q-6 27 -6 91t6 95h869q8 -40 8 -95zM467 355q0 59 41 101t99 42q59 0 101 -42t42 -100t-42 -100q-42 -41 -100 -41t-100 41q-41 41 -41 99zM467 1096q0 59 41 100t99 41q59 0 101 -41t42 -100q0 -60 -42 -100t-100 -40t-100 40
q-41 40 -41 100z" />
    <glyph glyph-name="oslash" unicode="&#xf8;" horiz-adv-x="1181" 
d="M590 137q141 1 210 103t68 284q0 115 -28 201l-418 -532q64 -56 168 -56zM313 544q0 -162 39 -251l424 543q-70 74 -198 74t-197 -102q-68 -102 -68 -264zM196 -6q-44 0 -75 6l104 133q-121 147 -121 390q0 244 125 398t361 154q177 0 299 -96l51 63q75 19 152 2
l-121 -151q106 -148 105 -381t-125 -385t-361 -152q-166 0 -279 78l-39 -51q-32 -8 -76 -8z" />
    <glyph glyph-name="ugrave" unicode="&#xf9;" horiz-adv-x="1175" 
d="M254 1059q56 0 100 -8v-576q0 -192 69 -260t195 -69q127 -1 201 22v883q45 8 101 8t100 -8v-1018q-322 -89 -566 -40q-305 58 -302 474v584q46 8 102 8zM264 1477q62 8 131 8t129 -8l236 -260q-117 -20 -205 0z" />
    <glyph glyph-name="uacute" unicode="&#xfa;" horiz-adv-x="1175" 
d="M254 1059q56 0 100 -8v-576q0 -192 69 -260t195 -69q127 -1 201 22v883q45 8 101 8t100 -8v-1018q-322 -89 -566 -40q-305 58 -302 474v584q46 8 102 8zM641 1217q-52 -9 -106 -9t-97 9l236 260q62 8 131 8t127 -8z" />
    <glyph glyph-name="ucircumflex" unicode="&#xfb;" horiz-adv-x="1175" 
d="M254 1059q56 0 100 -8v-576q0 -192 69 -260t195 -69q127 -1 201 22v883q45 8 101 8t100 -8v-1018q-322 -89 -566 -40q-305 58 -302 474v584q46 8 102 8zM928 1217q-41 -9 -101 -9q-61 0 -108 9l-133 163l-133 -163q-52 -9 -110 -9t-99 9l223 260q54 8 123 8t117 -10z" />
    <glyph glyph-name="udieresis" unicode="&#xfc;" horiz-adv-x="1175" 
d="M254 1059q56 0 100 -8v-576q0 -192 69 -260t195 -69q127 -1 201 22v883q45 8 101 8t100 -8v-1018q-322 -89 -566 -40q-305 58 -302 474v584q46 8 102 8zM702 1237q-8 47 -8 100t8 105q50 8 103 8q54 0 106 -8q13 -112 0 -205q-53 -6 -112 -6q-60 0 -97 6zM285 1442
q50 8 102 8q53 0 107 -8q8 -47 8 -100t-8 -105q-53 -6 -112 -6t-97 6q-13 90 -9 134q5 45 9 71z" />
    <glyph glyph-name="yacute" unicode="&#xfd;" horiz-adv-x="1079" 
d="M27 1051q40 6 115 6t108 -6l291 -977l301 977q43 6 104 6t105 -6l-408 -1264q-59 -170 -129 -233q-71 -64 -182 -64t-191 25q0 83 33 157q60 -20 103 -20t79 8q59 13 103 139l63 199l-67 -2q-52 0 -80 4zM563 1217q-52 -9 -105 -9t-98 9l236 260q62 8 132 8t126 -8z" />
    <glyph glyph-name="thorn" unicode="&#xfe;" horiz-adv-x="1208" 
d="M885 543q0 354 -256 354q-179 0 -244 -165q-23 -56 -23 -134v-426q76 -27 168 -28q255 -2 329 221q26 76 26 178zM263 1507q66 0 99 -6v-583q41 61 118 109q78 48 182 48q311 0 406 -291q32 -98 32 -233q0 -270 -146 -423t-417 -153q-82 0 -175 25v-483q-35 -6 -100 -6
q-66 0 -102 6v1984q37 6 103 6z" />
    <glyph glyph-name="ydieresis" unicode="&#xff;" horiz-adv-x="1079" 
d="M27 1051q40 6 115 6t108 -6l291 -977l301 977q43 6 104 6t105 -6l-408 -1264q-59 -170 -129 -233q-71 -64 -182 -64t-191 25q0 83 33 157q60 -20 103 -20t79 8q59 13 103 139l63 199l-67 -2q-52 0 -80 4zM645 1237q-8 47 -8 100t8 105q50 8 104 8t105 -8q6 -54 6 -104
t-6 -101q-53 -6 -112 -6t-97 6zM227 1237q-8 53 -8 103t8 102q50 8 103 8q54 0 106 -8q8 -47 8 -100t-8 -105q-53 -6 -112 -6q-60 0 -97 6z" />
    <glyph glyph-name="Amacron" unicode="&#x100;" horiz-adv-x="1263" 
d="M401 522h449l-225 752zM1229 0q-49 -8 -111 -8t-110 8l-103 340h-559l-100 -340q-54 -8 -112 -8t-101 8l479 1473q54 8 118 8t122 -8zM963 1701q0 -51 -7 -75h-653q-8 32 -8 77t8 77h653q7 -28 7 -79z" />
    <glyph glyph-name="amacron" unicode="&#x101;" horiz-adv-x="1058" 
d="M546 664q93 0 173 -11v39q1 121 -61 168t-184 47t-251 -41q-39 68 -39 162q143 47 332 47q400 0 402 -391v-657q-655 -146 -789 131q-31 63 -31 152t36 156t97 111q61 43 141 65t174 22zM561 506q-260 0 -260 -191q0 -106 79 -149q51 -27 158 -27t181 21v334
q-93 12 -158 12zM817 1346q0 -42 -8 -76h-553q-8 32 -8 76t8 75h553q8 -33 8 -75z" />
    <glyph glyph-name="Abreve" unicode="&#x102;" horiz-adv-x="1263" 
d="M401 522h449l-225 752zM1229 0q-49 -8 -111 -8t-110 8l-103 340h-559l-100 -340q-54 -8 -112 -8t-101 8l479 1473q54 8 118 8t122 -8zM287 1825q57 10 91 10t89 -10q6 -45 41 -78t121 -33t121 33t41 78q51 10 85 10t97 -10q-14 -134 -134 -199q-80 -43 -210 -43t-195 35
t-102 82t-45 125z" />
    <glyph glyph-name="abreve" unicode="&#x103;" horiz-adv-x="1058" 
d="M546 664q93 0 173 -11v39q1 121 -61 168t-184 47t-251 -41q-39 68 -39 162q143 47 332 47q400 0 402 -391v-657q-655 -146 -789 131q-31 63 -31 152t36 156t97 111q61 43 141 65t174 22zM561 506q-260 0 -260 -191q0 -106 79 -149q51 -27 158 -27t181 21v334
q-93 12 -158 12zM197 1475q38 10 83 10q44 0 99 -10q7 -90 85 -123q28 -12 71 -12q133 -2 155 135q63 10 106 10t76 -10q-18 -149 -133 -222q-84 -53 -204 -53q-195 0 -291 137q-37 53 -47 138z" />
    <glyph glyph-name="Aogonek" unicode="&#x104;" horiz-adv-x="1263" 
d="M850 522l-225 733l-224 -733h449zM829 -280q0 66 50 144q49 77 129 136l-105 340h-555l-102 -340q-54 -8 -112 -8t-101 8l479 1473q54 8 118 8t122 -8l477 -1473q-69 -12 -140 -94t-71 -160q0 -47 30 -75q54 -50 193 -9q25 -42 31 -133q-72 -23 -150 -24
q-203 -2 -269 110q-24 39 -24 105z" />
    <glyph glyph-name="aogonek" unicode="&#x105;" horiz-adv-x="1058" 
d="M561 506q-260 0 -260 -191q0 -106 79 -149q51 -27 158 -27t181 21v334q-93 12 -158 12zM546 664q93 0 173 -11v39q1 121 -61 168t-184 47t-251 -41q-39 68 -39 162q143 47 332 47q400 0 402 -391v-657l-37 -19q-105 -53 -155 -123t-50 -127q0 -120 112 -118q48 0 101 16
q22 -39 31 -129q-60 -21 -140 -22q-205 -3 -268 110q-23 39 -23 99t40 134t110 134q-157 -18 -262 6t-161 65q-118 86 -118 257t133 267q120 87 315 87z" />
    <glyph glyph-name="Cacute" unicode="&#x106;" horiz-adv-x="1265" 
d="M1104 1270q-140 45 -285 45q-223 0 -347 -152t-124 -434t129 -426q129 -143 357 -143q162 0 286 55q45 -88 58 -170q-158 -68 -344 -69q-187 0 -315 52q-257 105 -351 386q-47 139 -47 314q0 176 47 318q95 287 350 397q127 54 303 54t332 -55q-6 -70 -49 -172zM838 1595
q-54 -8 -108 -8t-112 8l218 222q82 10 146 10t134 -10z" />
    <glyph glyph-name="cacute" unicode="&#x107;" horiz-adv-x="978" 
d="M315 512q0 -186 88 -276t225 -90t236 36q39 -71 43 -159q-121 -47 -276 -48q-262 1 -395 149q-134 148 -134 394t135 402q135 155 379 155q167 0 277 -43q0 -90 -35 -162q-100 35 -244 35t-221 -104q-78 -104 -78 -289zM631 1217q-52 -9 -106 -9t-97 9l236 260
q62 8 131 8t127 -8z" />
    <glyph glyph-name="Ccircumflex" unicode="&#x108;" horiz-adv-x="1265" 
d="M1104 1270q-140 45 -285 45q-223 0 -347 -152t-124 -434t129 -426q129 -143 357 -143q162 0 286 55q45 -88 58 -170q-158 -68 -344 -69q-187 0 -315 52q-257 105 -351 386q-47 139 -47 314q0 176 47 318q95 287 350 397q127 54 303 54t332 -55q-6 -70 -49 -172z
M1049 1587h-45q-63 0 -95 8l-133 125l-133 -125q-36 -8 -96 -8h-47q-44 0 -84 8l241 222q46 8 117 8t123 -8l236 -222q-36 -8 -84 -8z" />
    <glyph glyph-name="ccircumflex" unicode="&#x109;" horiz-adv-x="978" 
d="M315 512q0 -186 88 -276t225 -90t236 36q39 -71 43 -159q-121 -47 -276 -48q-262 1 -395 149q-134 148 -134 394t135 402q135 155 379 155q167 0 277 -43q0 -90 -35 -162q-100 35 -244 35t-221 -104q-78 -104 -78 -289zM920 1217q-40 -9 -101 -9t-108 9l-133 163
l-134 -163q-52 -9 -109 -9q-58 0 -99 9l223 260q54 8 123 8t116 -10z" />
    <glyph glyph-name="Cdotaccent" unicode="&#x10a;" horiz-adv-x="1265" 
d="M1104 1270q-140 45 -285 45q-223 0 -347 -152t-124 -434t129 -426q129 -143 357 -143q162 0 286 55q45 -88 58 -170q-158 -68 -344 -69q-187 0 -315 52q-257 105 -351 386q-47 139 -47 314q0 176 47 318q95 287 350 397q127 54 303 54t332 -55q-6 -70 -49 -172zM690 1614
q-8 47 -8 103t8 108q48 10 112 10t111 -10q19 -112 0 -211q-48 -10 -112 -10q-63 0 -111 10z" />
    <glyph glyph-name="cdotaccent" unicode="&#x10b;" horiz-adv-x="978" 
d="M315 512q0 -186 88 -276t225 -90t236 36q39 -71 43 -159q-121 -47 -276 -48q-262 1 -395 149q-134 148 -134 394t135 402q135 155 379 155q167 0 277 -43q0 -90 -35 -162q-100 35 -244 35t-221 -104q-78 -104 -78 -289zM477 1243q-8 57 -8 113t8 112q80 11 126 11
t110 -11q8 -58 8 -114t-8 -111q-58 -8 -118 -8t-118 8z" />
    <glyph glyph-name="Ccaron" unicode="&#x10c;" horiz-adv-x="1265" 
d="M1104 1270q-140 45 -285 45q-223 0 -347 -152t-124 -434t129 -426q129 -143 357 -143q162 0 286 55q45 -88 58 -170q-158 -68 -344 -69q-187 0 -315 52q-257 105 -351 386q-47 139 -47 314q0 176 47 318q95 287 350 397q127 54 303 54t332 -55q-6 -70 -49 -172zM518 1825
h45q30 0 94 -8q35 -33 68 -64t66 -63l133 127q72 8 96 8h47q20 0 42 -3t42 -5l-242 -222q-46 -8 -117 -8q-70 0 -122 8l-236 222q72 8 84 8z" />
    <glyph glyph-name="ccaron" unicode="&#x10d;" horiz-adv-x="978" 
d="M315 512q0 -186 88 -276t225 -90t236 36q39 -71 43 -159q-121 -47 -276 -48q-262 1 -395 149q-134 148 -134 394t135 402q135 155 379 155q167 0 277 -43q0 -90 -35 -162q-100 35 -244 35t-221 -104q-78 -104 -78 -289zM264 1475q50 10 99 10t110 -10l133 -164l133 164
q57 10 110 10q52 0 99 -10l-223 -261q-41 -6 -114 -6q-74 0 -126 9z" />
    <glyph glyph-name="Dcaron" unicode="&#x10e;" horiz-adv-x="1431" 
d="M1092 739q0 295 -141 433q-141 137 -394 137q-121 0 -166 -9v-1128q72 -10 177 -10q104 0 203 28q321 90 321 549zM543 1495q387 0 578 -197q191 -198 191 -574q1 -747 -777 -749q-183 0 -353 25v1473q192 22 361 22zM336 1825h45q30 0 94 -8q35 -33 68 -64t65 -63
l133 127q72 8 97 8h47q20 0 42 -3t42 -5l-242 -222q-46 -8 -116 -8t-124 8l-235 222q72 8 84 8z" />
    <glyph glyph-name="dcaron" unicode="&#x10f;" horiz-adv-x="1366" 
d="M658 905q-168 0 -258 -114q-78 -103 -77 -292q1 -188 91 -272t245 -84q112 0 179 21v708q-85 33 -180 33zM939 1509q55 0 99 -8v-1472q-177 -52 -339 -53q-161 -1 -260 27q-207 59 -289 255q-44 100 -44 238q-1 264 146 420q147 157 383 157q109 0 203 -29v457
q46 8 101 8zM1296 1073q-44 0 -88 8v416q33 8 91 8t102 -8l-29 -416q-32 -8 -76 -8z" />
    <glyph glyph-name="Dcroat" unicode="&#x110;" horiz-adv-x="1449" 
d="M1110 739q0 570 -536 570q-121 0 -164 -9v-469h331q9 -36 9 -80t-9 -73h-331v-506q73 -10 176 -10q104 0 204 28q320 88 320 549zM201 678h-168q-8 32 -8 78t8 75h168v642q192 22 360 22q387 0 579 -197q192 -198 191 -574q0 -747 -778 -749q-184 0 -352 25v678z" />
    <glyph glyph-name="dcroat" unicode="&#x111;" horiz-adv-x="1222" 
d="M660 909q-172 0 -257 -107q-84 -107 -86 -292q3 -195 93 -279t245 -84q110 0 183 21v709q-82 32 -178 32zM630 1073q114 0 208 -29v150h-299q-9 28 -9 70t9 69h299v168q46 8 101 8t99 -8v-168h150q8 -29 8 -71t-8 -68h-150v-1165q-177 -52 -339 -53q-161 -1 -259 27
q-206 59 -288 255q-43 100 -43 238q0 264 144 420q144 157 377 157z" />
    <glyph glyph-name="Emacron" unicode="&#x112;" horiz-adv-x="1097" 
d="M1012 86q0 -56 -6 -86h-826v1473h809q6 -41 6 -97t-6 -86h-600v-422h479q18 -91 0 -182h-479v-504h617q6 -40 6 -96zM250 1703q0 45 8 77h653q3 -14 5 -69t-5 -85h-653q-8 32 -8 77z" />
    <glyph glyph-name="emacron" unicode="&#x113;" horiz-adv-x="1140" 
d="M838 627q0 121 -64 204q-64 84 -186 83q-121 0 -188 -76t-81 -211h519zM317 475q8 -332 330 -332q155 0 287 52q35 -67 39 -162q-131 -56 -301 -57t-272 39q-298 116 -298 503q0 245 127 401t369 156q207 0 328 -138q55 -65 84 -154q28 -89 28 -165t-6 -143h-715z
M872 1346q0 -42 -8 -76h-553q-8 32 -8 76t8 75h553q8 -33 8 -75z" />
    <glyph glyph-name="Ebreve" unicode="&#x114;" horiz-adv-x="1097" 
d="M1012 86q0 -56 -6 -86h-826v1473h809q6 -41 6 -97t-6 -86h-600v-422h479q18 -91 0 -182h-479v-504h617q6 -40 6 -96zM252 1825q58 10 91 10q34 0 89 -10q6 -45 41 -78t121 -33t121 33t41 78q51 10 85 10t97 -10q-14 -134 -134 -199q-80 -43 -210 -43t-195 35t-102 82
t-45 125z" />
    <glyph glyph-name="ebreve" unicode="&#x115;" horiz-adv-x="1140" 
d="M838 627q0 121 -64 204q-64 84 -186 83q-121 0 -188 -76t-81 -211h519zM317 475q8 -332 330 -332q155 0 287 52q35 -67 39 -162q-131 -56 -301 -57t-272 39q-298 116 -298 503q0 245 127 401t369 156q207 0 328 -138q55 -65 84 -154q28 -89 28 -165t-6 -143h-715z
M248 1475q38 10 83 10q44 0 99 -10q7 -90 85 -123q28 -12 71 -12q133 -2 155 135q62 10 106 10t77 -10q-18 -149 -133 -222q-84 -53 -205 -53q-195 0 -291 137q-37 53 -47 138z" />
    <glyph glyph-name="Edotaccent" unicode="&#x116;" horiz-adv-x="1097" 
d="M1012 86q0 -56 -6 -86h-826v1473h809q6 -41 6 -97t-6 -86h-600v-422h479q18 -91 0 -182h-479v-504h617q6 -40 6 -96zM487 1614q-8 47 -8 103t8 108q48 10 112 10t112 -10q8 -47 8 -103t-8 -108q-48 -10 -112 -10t-112 10z" />
    <glyph glyph-name="edotaccent" unicode="&#x117;" horiz-adv-x="1140" 
d="M838 627q0 121 -64 204q-64 84 -186 83q-121 0 -188 -76t-81 -211h519zM317 475q8 -332 330 -332q155 0 287 52q35 -67 39 -162q-131 -56 -301 -57t-272 39q-298 116 -298 503q0 245 127 401t369 156q207 0 328 -138q55 -65 84 -154q28 -89 28 -165t-6 -143h-715z
M481 1243q-8 57 -8 113t8 112q80 11 126 11t110 -11q8 -58 8 -114t-8 -111q-58 -8 -118 -8t-118 8z" />
    <glyph glyph-name="Eogonek" unicode="&#x118;" horiz-adv-x="1097" 
d="M571 -278q0 66 50 143q49 76 129 135h-572v1473h809q8 -45 8 -95t-8 -90h-600v-420h481q6 -43 6 -97t-6 -87h-481v-502h617q8 -40 8 -90l-2 -37q-47 -43 -121 -101t-101 -107q-26 -50 -26 -98t29 -76q54 -52 192 -11q31 -52 31 -133q-72 -23 -150 -24q-204 -2 -269 111
q-24 40 -24 106z" />
    <glyph glyph-name="eogonek" unicode="&#x119;" horiz-adv-x="1138" 
d="M836 627q0 121 -64 204q-64 84 -186 83q-121 0 -188 -76t-81 -211h519zM315 475q7 -332 329 -332q156 0 288 52q34 -67 41 -162q-97 -37 -174 -116q-76 -78 -74 -165q0 -51 30 -81q53 -53 183 -13q22 -42 31 -129q-66 -23 -143 -24q-200 -3 -265 111q-55 96 16 229
q38 71 105 130h-39q-275 0 -409 146t-134 394t127 404t369 156q207 0 328 -138q55 -65 84 -154q28 -89 28 -165t-6 -143h-715z" />
    <glyph glyph-name="Ecaron" unicode="&#x11a;" horiz-adv-x="1097" 
d="M1012 86q0 -56 -6 -86h-826v1473h809q6 -41 6 -97t-6 -86h-600v-422h479q18 -91 0 -182h-479v-504h617q6 -40 6 -96zM326 1825h45q30 0 94 -8q73 -69 133 -127l133 127q72 8 96 8h47q20 0 42 -3t42 -5l-241 -222q-46 -8 -116 -8t-124 8l-235 222q72 8 84 8z" />
    <glyph glyph-name="ecaron" unicode="&#x11b;" horiz-adv-x="1140" 
d="M838 627q0 121 -64 204q-64 84 -186 83q-121 0 -188 -76t-81 -211h519zM317 475q8 -332 330 -332q155 0 287 52q35 -67 39 -162q-131 -56 -301 -57t-272 39q-298 116 -298 503q0 245 127 401t369 156q207 0 328 -138q55 -65 84 -154q28 -89 28 -165t-6 -143h-715z
M244 1475q50 10 98 10t111 -10l133 -164l133 164q57 10 109 10t100 -10l-223 -261q-41 -6 -115 -6q-75 0 -125 9z" />
    <glyph glyph-name="Gcircumflex" unicode="&#x11c;" horiz-adv-x="1394" 
d="M1138 770q56 0 101 -8v-719q-150 -63 -416 -68q-330 0 -516 200t-186 553q0 352 190 561q190 208 496 208q212 0 358 -57q-6 -70 -49 -172q-144 46 -272 46q-356 2 -465 -336q-35 -110 -35 -253q0 -275 133 -419t357 -144q114 0 198 24v576q50 8 106 8zM1069 1587h-45
q-62 0 -94 8l-133 125l-133 -125q-36 -8 -97 -8h-47q-44 0 -84 8l242 222q46 8 116 8t124 -8l235 -222q-36 -8 -84 -8z" />
    <glyph glyph-name="gcircumflex" unicode="&#x11d;" horiz-adv-x="1124" 
d="M545 485q111 -1 164 61t53 160t-53 159q-53 63 -164 63t-163 -62t-52 -160q0 -97 52 -159t163 -62zM266 -186q0 -58 18 -86q50 -77 224 -78q174 0 266 54t92 136q0 61 -39 94t-143 35l-233 4q-93 2 -139 -49q-46 -52 -46 -110zM549 338q-88 0 -156 18q-29 -16 -57 -50
t-27 -72q0 -38 27 -66t119 -29l272 -4q182 -4 264 -78t82 -202q0 -164 -159 -264q-159 -101 -406 -101q-434 0 -432 272q0 84 45 151t117 105q-97 64 -97 166q0 134 125 230q-68 47 -108 122q-41 75 -41 161q0 168 114 274t301 105q186 -1 308 -95q94 76 264 76q8 -39 8 -86
t-8 -97h-184q45 -69 46 -161t-30 -160q-63 -138 -221 -189q-78 -26 -166 -26zM903 1217q-41 -9 -100 -9q-60 0 -109 9l-133 163l-133 -163q-52 -9 -110 -9t-99 9l223 260q54 8 124 8t116 -10z" />
    <glyph glyph-name="Gbreve" unicode="&#x11e;" horiz-adv-x="1394" 
d="M1138 770q56 0 101 -8v-719q-150 -63 -416 -68q-330 0 -516 200t-186 553q0 352 190 561q190 208 496 208q212 0 358 -57q-6 -70 -49 -172q-144 46 -272 46q-356 2 -465 -336q-35 -110 -35 -253q0 -275 133 -419t357 -144q114 0 198 24v576q50 8 106 8zM440 1825
q57 10 90 10t91 -10q6 -45 41 -78q34 -33 120 -33t121 33t41 78q51 10 85 10t97 -10q-14 -134 -134 -199q-80 -43 -209 -43q-130 0 -195 35q-66 35 -103 82t-45 125z" />
    <glyph glyph-name="gbreve" unicode="&#x11f;" horiz-adv-x="1124" 
d="M545 485q111 -1 164 61t53 160t-53 159q-53 63 -164 63t-163 -62t-52 -160q0 -97 52 -159t163 -62zM266 -186q0 -58 18 -86q50 -77 224 -78q174 0 266 54t92 136q0 61 -39 94t-143 35l-233 4q-93 2 -139 -49q-46 -52 -46 -110zM549 338q-88 0 -156 18q-29 -16 -57 -50
t-27 -72q0 -38 27 -66t119 -29l272 -4q182 -4 264 -78t82 -202q0 -164 -159 -264q-159 -101 -406 -101q-434 0 -432 272q0 84 45 151t117 105q-97 64 -97 166q0 134 125 230q-68 47 -108 122q-41 75 -41 161q0 168 114 274t301 105q186 -1 308 -95q94 76 264 76q8 -39 8 -86
t-8 -97h-184q45 -69 46 -161t-30 -160q-63 -138 -221 -189q-78 -26 -166 -26zM221 1475q38 10 83 10q44 0 99 -10q7 -90 85 -123q28 -12 71 -12q75 -1 109 35t47 100q63 10 106 10t76 -10q-18 -149 -133 -222q-84 -53 -205 -53q-195 0 -291 137q-37 53 -47 138z" />
    <glyph glyph-name="Gdotaccent" unicode="&#x120;" horiz-adv-x="1394" 
d="M1138 770q56 0 101 -8v-719q-150 -63 -416 -68q-330 0 -516 200t-186 553q0 352 190 561q190 208 496 208q212 0 358 -57q-6 -70 -49 -172q-144 46 -272 46q-356 2 -465 -336q-35 -110 -35 -253q0 -275 133 -419t357 -144q114 0 198 24v576q50 8 106 8zM690 1614
q-8 47 -8 103t8 108q48 10 112 10t111 -10q19 -112 0 -211q-48 -10 -112 -10q-63 0 -111 10z" />
    <glyph glyph-name="gdotaccent" unicode="&#x121;" horiz-adv-x="1124" 
d="M545 485q111 -1 164 61t53 160t-53 159q-53 63 -164 63t-163 -62t-52 -160q0 -97 52 -159t163 -62zM266 -186q0 -58 18 -86q50 -77 224 -78q174 0 266 54t92 136q0 61 -39 94t-143 35l-233 4q-93 2 -139 -49q-46 -52 -46 -110zM549 338q-88 0 -156 18q-29 -16 -57 -50
t-27 -72q0 -38 27 -66t119 -29l272 -4q182 -4 264 -78t82 -202q0 -164 -159 -264q-159 -101 -406 -101q-434 0 -432 272q0 84 45 151t117 105q-97 64 -97 166q0 134 125 230q-68 47 -108 122q-41 75 -41 161q0 168 114 274t301 105q186 -1 308 -95q94 76 264 76q8 -39 8 -86
t-8 -97h-184q45 -69 46 -161t-30 -160q-63 -138 -221 -189q-78 -26 -166 -26zM428 1243q-8 57 -8 113t8 112q80 11 126 11t110 -11q8 -58 8 -114t-8 -111q-58 -8 -118 -8t-118 8z" />
    <glyph glyph-name="Gcommaaccent" unicode="&#x122;" horiz-adv-x="1394" 
d="M1138 770q56 0 101 -8v-719q-150 -63 -416 -68q-330 0 -516 200t-186 553q0 352 190 561q190 208 496 208q212 0 358 -57q-6 -70 -49 -172q-144 46 -272 46q-356 2 -465 -336q-35 -110 -35 -253q0 -275 133 -419t357 -144q114 0 198 24v576q50 8 106 8zM860 -125
q44 0 88 -8l-123 -354q-76 -16 -115 -11q-39 6 -63 11l92 354q46 8 101 8h20z" />
    <glyph glyph-name="gcommaaccent" unicode="&#x123;" horiz-adv-x="1124" 
d="M545 485q111 -1 164 61t53 160t-53 159q-53 63 -164 63t-163 -62t-52 -160q0 -97 52 -159t163 -62zM266 -186q0 -58 18 -86q50 -77 224 -78q174 0 266 54t92 136q0 61 -39 94t-143 35l-233 4q-93 2 -139 -49q-46 -52 -46 -110zM549 338q-88 0 -156 18q-29 -16 -57 -50
t-27 -72q0 -38 27 -66t119 -29l272 -4q182 -4 264 -78t82 -202q0 -164 -159 -264q-159 -101 -406 -101q-434 0 -432 272q0 84 45 151t117 105q-97 64 -97 166q0 134 125 230q-68 47 -108 122q-41 75 -41 161q0 168 114 274t301 105q186 -1 308 -95q94 76 264 76q8 -39 8 -86
t-8 -97h-184q45 -69 46 -161t-30 -160q-63 -138 -221 -189q-78 -26 -166 -26zM647 1186q-45 -10 -105 -10t-110 10l170 293q50 8 99 8q50 0 98 -8z" />
    <glyph glyph-name="Hcircumflex" unicode="&#x124;" horiz-adv-x="1404" 
d="M285 1481q55 0 104 -8v-607h627v607q46 8 102 8t107 -8v-1473q-45 -8 -105 -8t-104 8v682h-627v-682q-49 -8 -107 -8t-102 8v1473q50 8 105 8zM973 1587h-45q-62 0 -94 8l-134 125l-133 -125q-36 -8 -96 -8h-47q-44 0 -84 8l242 222q46 8 116 8q71 0 123 -8l236 -222
q-36 -8 -84 -8z" />
    <glyph glyph-name="hcircumflex" unicode="&#x125;" horiz-adv-x="1183" 
d="M264 1509q56 0 101 -8v-610q114 184 321 184q354 0 354 -409v-666q-102 -18 -200 0v610q0 145 -48 214t-147 69q-193 0 -258 -191q-23 -68 -22 -163v-539q-47 -8 -103 -8t-100 8v1501q46 8 102 8zM844 1606q-40 -9 -101 -9t-108 9l-133 163l-133 -163q-52 -9 -110 -9
t-99 9l223 260q54 8 123 8t117 -10z" />
    <glyph glyph-name="Hbar" unicode="&#x126;" horiz-adv-x="1474" 
d="M1051 866v226h-627v-226h627zM316 -8q-58 0 -101 8v1092h-166q-6 24 -6 76t6 77h166v228q50 8 106 8q55 0 103 -8v-228h627v228q51 8 105 8t104 -8v-228h165q9 -36 9 -81t-9 -72h-165v-1092q-46 -8 -104 -8t-105 8v682h-627v-682q-50 -8 -108 -8z" />
    <glyph glyph-name="hbar" unicode="&#x127;" horiz-adv-x="1206" 
d="M284 -8q-54 0 -100 8v1194h-149q-8 24 -8 66t8 73h149v168q46 8 102 8t99 -8v-168h299q8 -29 8 -71t-8 -68h-299v-303q114 184 324 184q354 0 354 -409v-666q-104 -18 -203 0v610q0 145 -47 214t-145 69q-198 0 -260 -191q-23 -68 -23 -163v-539q-47 -8 -101 -8z" />
    <glyph glyph-name="Itilde" unicode="&#x128;" horiz-adv-x="569" 
d="M285 1481q55 0 104 -8v-1473q-49 -8 -107 -8t-102 8v1473q50 8 105 8zM121 1864q58 0 134 -35q77 -35 117 -51t93 -16t127 69q47 -57 67 -121q-98 -98 -204 -98q-70 0 -175 50t-152 50q-48 0 -78 -17t-68 -53q-57 72 -68 117q94 105 207 105z" />
    <glyph glyph-name="itilde" unicode="&#x129;" horiz-adv-x="589" 
d="M4 1247q-48 61 -63 121q77 102 196 100q62 0 127 -30q66 -30 103 -45t91 -15t124 64q45 -55 65 -125q-83 -98 -198 -96q-60 1 -128 31q-67 30 -103 44q-83 32 -144 0q-29 -14 -70 -49zM324 -8q-54 0 -99 8v891h-133q-8 32 -8 80t8 80h332v-1051q-46 -8 -100 -8z" />
    <glyph glyph-name="Imacron" unicode="&#x12a;" horiz-adv-x="569" 
d="M285 1481q55 0 104 -8v-1473q-49 -8 -107 -8t-102 8v1473q50 8 105 8zM621 1701q0 -51 -7 -75h-653q-8 32 -8 77t8 77h653q7 -28 7 -79z" />
    <glyph glyph-name="imacron" unicode="&#x12b;" horiz-adv-x="589" 
d="M563 1346q0 -42 -8 -76h-553q-8 32 -8 76t8 75h553q8 -33 8 -75zM324 -8q-54 0 -99 8v891h-133q-8 32 -8 80t8 80h332v-1051q-46 -8 -100 -8z" />
    <glyph glyph-name="Ibreve" unicode="&#x12c;" horiz-adv-x="569" 
d="M285 1481q55 0 104 -8v-1473q-49 -8 -107 -8t-102 8v1473q50 8 105 8zM-55 1825q58 10 91 10q34 0 89 -10q6 -45 41 -78t121 -33t121 33t41 78q51 10 85 10t97 -10q-14 -134 -134 -199q-80 -43 -210 -43t-195 35t-102 82t-45 125z" />
    <glyph glyph-name="ibreve" unicode="&#x12d;" horiz-adv-x="589" 
d="M-47 1475q38 10 83 10q44 0 99 -10q7 -90 85 -123q28 -12 86 -13t94 37q36 37 46 99q62 10 106 10t77 -10q-18 -149 -133 -222q-84 -53 -205 -53q-195 0 -291 137q-37 53 -47 138zM324 -8q-54 0 -99 8v891h-133q-8 32 -8 80t8 80h332v-1051q-46 -8 -100 -8z" />
    <glyph glyph-name="Iogonek" unicode="&#x12e;" horiz-adv-x="569" 
d="M285 1481q55 0 104 -8v-1473q-74 -51 -125 -118t-51 -125q0 -115 115 -113q45 0 106 18q31 -52 31 -133q-67 -23 -146 -24q-204 -2 -273 110q-24 39 -24 105t49 143q48 76 128 135l-19 2v1473q50 8 105 8z" />
    <glyph glyph-name="iogonek" unicode="&#x12f;" horiz-adv-x="589" 
d="M180 1282q-6 38 -6 106t6 101q54 8 113 8q58 0 106 -8q18 -101 0 -207q-49 -8 -107 -8t-112 8zM225 891h-133q-8 32 -8 80t8 80h332v-1051q-72 -47 -120 -117t-48 -126q0 -119 113 -117q49 0 100 16q22 -39 31 -129q-60 -21 -140 -22q-202 -3 -268 110q-22 39 -22 103
t46 142q46 79 124 138l-15 2v891z" />
    <glyph glyph-name="Idotaccent" unicode="&#x130;" horiz-adv-x="569" 
d="M285 1481q55 0 104 -8v-1473q-49 -8 -107 -8t-102 8v1473q50 8 105 8zM176 1614q-8 47 -8 103t8 108q48 10 112 10t111 -10q19 -112 0 -211q-47 -10 -111 -10t-112 10z" />
    <glyph glyph-name="dotlessi" unicode="&#x131;" horiz-adv-x="589" 
d="M324 -8q-54 0 -99 8v891h-133q-8 32 -8 80t8 80h332v-1051q-46 -8 -100 -8z" />
    <glyph glyph-name="IJ" unicode="&#x132;" horiz-adv-x="1372" 
d="M285 1481q55 0 104 -8v-1473q-49 -8 -107 -8t-102 8v1473q50 8 105 8zM771 158q38 0 76 6q144 23 144 198v928h-258q-8 40 -8 90t8 93h467v-1063q0 -239 -100 -337t-295 -98q-84 0 -189 25q0 81 33 178q84 -20 122 -20z" />
    <glyph glyph-name="ij" unicode="&#x133;" horiz-adv-x="1183" 
d="M180 1282q-6 38 -6 106t6 101q54 8 113 8q58 0 106 -8q18 -101 0 -207q-49 -8 -107 -8t-112 8zM324 -8q-54 0 -99 8v891h-133q-8 32 -8 80t8 80h332v-1051q-46 -8 -100 -8zM770 1284q-8 58 -8 104t8 99q68 10 112 10q45 0 105 -10q8 -55 8 -101t-8 -102q-62 -10 -106 -10
q-43 0 -111 10zM1018 -59q0 -324 -326 -324q-111 0 -186 27q5 93 33 153q49 -16 118 -16t100 21q62 43 62 153v936h-133q-8 32 -8 80t8 80h332v-1110z" />
    <glyph glyph-name="Jcircumflex" unicode="&#x134;" horiz-adv-x="811" 
d="M90 178q83 -20 150 -20t109 26q83 51 83 178v928h-258q-8 40 -8 90t8 93h467v-1063q0 -345 -229 -413q-74 -22 -163 -22t-192 25q0 81 33 178zM702 1587h-45q-62 0 -94 8l-133 125l-133 -125q-36 -8 -96 -8h-47q-44 0 -84 8l241 222q46 8 117 8t123 -8l235 -222
q-36 -8 -84 -8z" />
    <glyph glyph-name="jcircumflex" unicode="&#x135;" horiz-adv-x="593" 
d="M-47 -203q46 -16 115 -16q69 1 100 23q63 46 63 151v934h-135q-8 32 -8 79t8 83h334v-1110q0 -322 -326 -322q-104 0 -184 25q0 87 33 153zM625 1217q-40 -9 -101 -9t-108 9l-133 163l-133 -163q-52 -9 -110 -9t-99 9l223 260q54 8 123 8t116 -10z" />
    <glyph glyph-name="Kcommaaccent" unicode="&#x136;" horiz-adv-x="1236" 
d="M291 1481q55 0 104 -8v-1473q-51 -8 -107 -8t-102 8v1473q50 8 105 8zM1217 0q-66 -8 -122 -8t-116 8l-522 748l473 725q58 8 111 8q52 0 116 -8l-467 -707zM692 -125h21q44 0 88 -8l-123 -354q-76 -16 -115 -11q-39 6 -63 11l92 354q46 8 100 8z" />
    <glyph glyph-name="kcommaaccent" unicode="&#x137;" horiz-adv-x="1056" 
d="M1032 0q-58 -8 -114 -8t-111 8l-389 545l334 506q54 8 110 8t113 -8l-334 -492zM262 1509q56 0 100 -8v-1501q-46 -8 -102 -8t-100 8v1501q46 8 102 8zM569 -125h41q34 0 80 -8l-119 -354q-23 -3 -42 -7t-51 -4t-81 11l90 354q19 2 39 5t43 3z" />
    <glyph glyph-name="kgreenlandic" unicode="&#x138;" horiz-adv-x="1073" 
d="M1065 0q-59 -8 -115 -8t-116 8l-418 543l362 508q58 8 115 8t115 -8l-363 -496zM258 1067q56 0 100 -8v-1059q-46 -8 -102 -8t-100 8v1059q46 8 102 8z" />
    <glyph glyph-name="Lacute" unicode="&#x139;" horiz-adv-x="1013" 
d="M283 1481q56 0 104 -8v-1289h578q6 -34 6 -88q0 -53 -6 -96h-785v1473q47 8 103 8zM377 1817q83 10 146 10q64 0 134 -10l-278 -222q-54 -8 -109 -8q-54 0 -110 8z" />
    <glyph glyph-name="lacute" unicode="&#x13a;" horiz-adv-x="610" 
d="M261 1509q55 0 99 -8v-1184q0 -146 79 -162q24 -5 62 -5t70 8q18 -72 19 -156q-46 -16 -126 -16q-148 0 -227 67t-77 219v1229q46 8 101 8zM338 1817q83 10 146 10q64 0 134 -10l-278 -222q-54 -8 -108 -8q-55 0 -111 8z" />
    <glyph glyph-name="Lcommaaccent" unicode="&#x13b;" horiz-adv-x="1013" 
d="M283 1481q56 0 104 -8v-1289h578q6 -34 6 -88q0 -53 -6 -96h-785v1473q47 8 103 8zM594 -125h20q44 0 88 -8l-122 -354q-75 -16 -115 -10q-40 5 -64 10l93 354q46 8 100 8z" />
    <glyph glyph-name="lcommaaccent" unicode="&#x13c;" horiz-adv-x="610" 
d="M261 1509q55 0 99 -8v-1184q0 -146 79 -162q24 -5 62 -5t70 8q18 -72 19 -156q-46 -16 -126 -16q-148 0 -227 67t-77 219v1229q46 8 101 8zM397 -125h41q34 0 80 -8l-119 -354q-23 -3 -42 -7t-51 -4t-81 11l90 354q19 2 39 5t43 3z" />
    <glyph glyph-name="Lcaron" unicode="&#x13d;" horiz-adv-x="995" 
d="M283 1481q56 0 104 -8v-1289h578q6 -34 6 -88q0 -53 -6 -96h-785v1473q47 8 103 8zM659 1051q-44 0 -88 8v416q33 8 91 8t102 -8l-29 -416q-32 -8 -76 -8z" />
    <glyph glyph-name="lcaron" unicode="&#x13e;" horiz-adv-x="722" 
d="M261 1509q55 0 99 -8v-1184q0 -146 79 -162q24 -5 62 -5t70 8q18 -72 19 -156q-46 -16 -126 -16q-148 0 -227 67t-77 219v1229q46 8 101 8zM635 1077q-44 0 -88 8v416q33 8 91 8t101 -8l-28 -416q-32 -8 -76 -8z" />
    <glyph glyph-name="Ldot" unicode="&#x13f;" horiz-adv-x="1013" 
d="M283 1481q56 0 104 -8v-1289h578q6 -34 6 -88q0 -53 -6 -96h-785v1473q47 8 103 8zM678 702q-8 58 -8 112t8 112q58 8 112 8t111 -8q8 -58 8 -112t-8 -112q-58 -8 -112 -8q-53 0 -111 8z" />
    <glyph glyph-name="ldot" unicode="&#x140;" horiz-adv-x="757" 
d="M261 1509q55 0 99 -8v-1184q0 -146 79 -162q24 -5 62 -5t70 8q18 -72 19 -156q-46 -16 -126 -16q-148 0 -227 67t-77 219v1229q46 8 101 8zM530 905q58 8 112 8t112 -8q8 -59 8 -113t-8 -110q-58 -8 -112 -8t-112 8q-8 58 -8 112t8 111z" />
    <glyph glyph-name="Lslash" unicode="&#x141;" horiz-adv-x="1013" 
d="M47 444q-12 58 -12 102t12 83l131 90v754q44 6 102 6t105 -6v-609l268 185q18 -82 11 -123q-7 -40 -11 -62l-268 -184v-496h578q8 -46 8 -93t-8 -91h-785v537q-34 -23 -66 -47t-65 -46z" />
    <glyph glyph-name="lslash" unicode="&#x142;" horiz-adv-x="610" 
d="M261 1509q55 0 99 -8v-536l150 104q10 -38 10 -80t-10 -100l-150 -105v-378q0 -164 30 -218q15 -26 40 -32t67 -6t74 8q19 -78 19 -156q-46 -16 -130 -16t-136 16q-111 34 -146 169q-18 71 -18 179v293q-66 -41 -119 -82q-12 58 -12 99t12 81q53 41 119 82v678
q46 8 101 8z" />
    <glyph glyph-name="Nacute" unicode="&#x143;" horiz-adv-x="1392" 
d="M180 1473q46 8 97 8t96 -8l641 -1106v1106q50 8 102 8t96 -8v-1473q-46 -8 -97 -8t-95 8l-643 1100v-1100q-45 -8 -101 -8t-96 8v1473zM786 1595q-54 -8 -108 -8q-53 0 -111 8l217 222q82 10 145 10t136 -10z" />
    <glyph glyph-name="nacute" unicode="&#x144;" horiz-adv-x="1183" 
d="M164 1051q46 8 86 8t86 -8q18 -93 18 -170q42 74 129 134t207 60q180 0 266 -103t86 -306v-666q-46 -8 -102 -8t-100 8v610q0 145 -45 214t-144 69q-193 0 -261 -196q-24 -69 -23 -165v-532q-47 -8 -103 -8t-100 8v1051zM655 1217q-52 -9 -105 -9q-54 0 -97 9l235 260
q62 8 132 8t126 -8z" />
    <glyph glyph-name="Ncommaaccent" unicode="&#x145;" horiz-adv-x="1392" 
d="M180 1473q46 8 97 8t96 -8l641 -1106v1106q50 8 102 8t96 -8v-1473q-46 -8 -97 -8t-95 8l-643 1100v-1100q-45 -8 -101 -8t-96 8v1473zM739 -125h21q44 0 88 -8l-123 -354q-76 -16 -115 -11q-39 6 -63 11l92 354q46 8 100 8z" />
    <glyph glyph-name="ncommaaccent" unicode="&#x146;" horiz-adv-x="1183" 
d="M164 1051q46 8 86 8t86 -8q18 -93 18 -170q42 74 129 134t207 60q180 0 266 -103t86 -306v-666q-46 -8 -102 -8t-100 8v610q0 145 -45 214t-144 69q-193 0 -261 -196q-24 -69 -23 -165v-532q-47 -8 -103 -8t-100 8v1051zM604 -125h41q34 0 80 -8l-119 -354q-23 -3 -42 -7
t-51 -4t-81 11l90 354q18 2 38 5t44 3z" />
    <glyph glyph-name="Ncaron" unicode="&#x147;" horiz-adv-x="1392" 
d="M180 1473q46 8 97 8t96 -8l641 -1106v1106q50 8 102 8t96 -8v-1473q-46 -8 -97 -8t-95 8l-643 1100v-1100q-45 -8 -101 -8t-96 8v1473zM428 1825h45q30 0 94 -8q35 -33 68 -64t65 -63l134 127q72 8 96 8h47q20 0 42 -3t42 -5l-242 -222q-46 -8 -116 -8q-71 0 -123 8
l-236 222q72 8 84 8z" />
    <glyph glyph-name="ncaron" unicode="&#x148;" horiz-adv-x="1183" 
d="M164 1051q46 8 86 8t86 -8q18 -93 18 -170q42 74 129 134t207 60q180 0 266 -103t86 -306v-666q-46 -8 -102 -8t-100 8v610q0 145 -45 214t-144 69q-193 0 -261 -196q-24 -69 -23 -165v-532q-47 -8 -103 -8t-100 8v1051zM266 1475q50 10 100 10t109 -10l133 -164l133 164
q57 10 110 10q52 0 99 -10l-223 -261q-40 -6 -114 -6t-126 9z" />
    <glyph glyph-name="napostrophe" unicode="&#x149;" horiz-adv-x="1196" 
d="M174 1051q46 8 86 8t86 -8q17 -86 19 -170q43 75 129 135q86 59 206 59q353 0 353 -409v-666q-47 -8 -103 -8t-100 8v610q0 145 -45 214t-143 69q-194 0 -262 -196q-24 -69 -23 -165v-532q-47 -8 -103 -8t-100 8v1051zM41 1501q28 8 98 8q69 0 101 -8l-113 -334
q-50 -8 -91 -8q-40 0 -79 8z" />
    <glyph glyph-name="Eng" unicode="&#x14a;" horiz-adv-x="1392" 
d="M180 1473q46 8 97 8t96 -8l641 -1106v1106q50 8 102 8t96 -8v-1379q0 -226 -54 -311q-92 -146 -351 -150q-88 0 -178 23q0 98 33 172q56 -18 107 -18q50 0 91 5q94 11 136 86q24 40 24 109l-643 1090v-1100q-45 -8 -101 -8t-96 8v1473z" />
    <glyph glyph-name="eng" unicode="&#x14b;" horiz-adv-x="1183" 
d="M164 1051q46 8 86 8t86 -8q18 -93 18 -170q42 74 129 134t207 60q180 0 266 -103t86 -306v-725q0 -324 -327 -324q-111 0 -187 27q5 88 33 153q49 -16 118 -16t99 20q62 40 64 142v667q0 145 -46 214t-145 69q-193 0 -261 -196q-24 -69 -23 -165v-532q-47 -8 -103 -8
t-100 8v1051z" />
    <glyph glyph-name="Omacron" unicode="&#x14c;" horiz-adv-x="1482" 
d="M1143 734q0 419 -222 539q-75 40 -177 40t-178 -40q-222 -118 -222 -538q0 -267 98 -424q100 -155 301 -155q296 0 375 338q25 106 25 240zM121 735q0 342 152 546q165 216 472 216t468 -216q151 -198 151 -545t-157 -554t-464 -207q-161 1 -277 57q-232 112 -307 398
q-38 139 -38 305zM1073 1704q0 -52 -6 -78h-653q-8 32 -8 77t8 77h653q6 -24 6 -76z" />
    <glyph glyph-name="omacron" unicode="&#x14d;" horiz-adv-x="1181" 
d="M590 909q-276 0 -275 -385q0 -182 67 -284t208 -103q141 1 209 103t67 284q0 385 -276 385zM100 524q0 244 126 398q126 153 364 153q237 0 364 -155t126 -398q-1 -244 -127 -396q-126 -151 -362 -151q-237 0 -364 152q-127 153 -127 397zM872 1346q0 -42 -8 -76h-553
q-8 32 -8 76t8 75h553q8 -33 8 -75z" />
    <glyph glyph-name="Obreve" unicode="&#x14e;" horiz-adv-x="1482" 
d="M1143 734q0 419 -222 539q-75 40 -177 40t-178 -40q-222 -118 -222 -538q0 -267 98 -424q100 -155 301 -155q296 0 375 338q25 106 25 240zM121 735q0 342 152 546q165 216 472 216t468 -216q151 -198 151 -545t-157 -554t-464 -207q-161 1 -277 57q-232 112 -307 398
q-38 139 -38 305zM397 1825q57 10 90 10t91 -10q15 -111 161 -111q86 0 121 33t41 78q51 10 85 10t97 -10q-14 -134 -134 -199q-80 -43 -209 -43q-130 0 -195 35q-66 35 -103 82t-45 125z" />
    <glyph glyph-name="obreve" unicode="&#x14f;" horiz-adv-x="1181" 
d="M590 909q-276 0 -275 -385q0 -182 67 -284t208 -103q141 1 209 103t67 284q0 385 -276 385zM100 524q0 244 126 398q126 153 364 153q237 0 364 -155t126 -398q-1 -244 -127 -396q-126 -151 -362 -151q-237 0 -364 152q-127 153 -127 397zM250 1475q38 10 83 10
q44 0 99 -10q7 -90 85 -123q28 -12 86 -13t94 37q36 37 46 99q63 10 106 10q44 0 77 -10q-18 -149 -133 -222q-84 -53 -205 -53q-195 0 -291 137q-37 53 -47 138z" />
    <glyph glyph-name="Ohungarumlaut" unicode="&#x150;" horiz-adv-x="1482" 
d="M1143 734q0 419 -222 539q-75 40 -177 40t-178 -40q-222 -118 -222 -538q0 -267 98 -424q100 -155 301 -155q296 0 375 338q25 106 25 240zM121 735q0 342 152 546q165 216 472 216t468 -216q151 -198 151 -545t-157 -554t-464 -207q-161 1 -277 57q-232 112 -307 398
q-38 139 -38 305zM1028 1593q-46 -8 -100 -8t-111 8l203 226q47 8 116 8q70 0 136 -8zM608 1593q-50 -8 -102 -8t-111 8l205 226q44 8 114 8t136 -8z" />
    <glyph glyph-name="ohungarumlaut" unicode="&#x151;" horiz-adv-x="1181" 
d="M590 909q-276 0 -275 -385q0 -182 67 -284t208 -103q141 1 209 103t67 284q0 385 -276 385zM100 524q0 244 126 398q126 153 364 153q237 0 364 -155t126 -398q-1 -244 -127 -396q-126 -151 -362 -151q-237 0 -364 152q-127 153 -127 397zM846 1217q-52 -9 -106 -9t-97 9
l234 260q58 8 119 8t122 -8zM453 1217q-52 -9 -106 -9t-97 9l231 260q62 8 123 8t121 -8z" />
    <glyph glyph-name="OE" unicode="&#x152;" horiz-adv-x="1892" 
d="M765 1313q-316 0 -401 -337q-28 -108 -28 -242q0 -270 105 -424t307 -154q141 0 225 28v1104q-97 25 -208 25zM1806 91q0 -51 -8 -91h-790q-102 -22 -261 -24q-159 0 -278 56q-236 112 -316 398q-40 139 -40 305q0 338 166 550t475 212q154 0 243 -24h785q8 -39 8 -91
t-8 -92h-600v-422h479q8 -40 8 -91t-8 -91h-479v-504h616q8 -40 8 -91z" />
    <glyph glyph-name="oe" unicode="&#x153;" horiz-adv-x="1882" 
d="M1346 911q-122 -1 -190 -75t-81 -209h508q-2 125 -59 205q-56 80 -178 79zM594 137q141 1 212 103t71 284t-71 284t-212 101q-141 0 -211 -101q-70 -102 -70 -284t70 -284t211 -103zM1073 475q8 -332 319 -332q149 0 285 52q35 -78 39 -162q-135 -56 -325 -58
q-300 0 -422 220q-124 -218 -366 -219t-369 153q-128 154 -128 395q0 242 127 396q127 155 370 155q242 0 370 -211q114 211 373 211q203 0 321 -142q55 -67 84 -155t29 -174t-8 -129h-699z" />
    <glyph glyph-name="Racute" unicode="&#x154;" horiz-adv-x="1222" 
d="M273 -6q-51 0 -89 6v1475q45 4 82 8q130 14 248 14q373 0 505 -230q50 -87 50 -193t-27 -173q-72 -177 -262 -268l-24 -12l428 -621q-56 -6 -118 -6t-118 6l-471 682v8q242 57 334 204q35 56 35 136q0 147 -87 219t-235 72q-57 0 -131 -8v-1313q-69 -6 -120 -6zM635 1817
q83 10 146 10q64 0 134 -10l-278 -222q-54 -8 -108 -8t-111 8z" />
    <glyph glyph-name="racute" unicode="&#x155;" horiz-adv-x="761" 
d="M164 1051q46 8 91 8t81 -8q18 -93 18 -166q106 172 295 172q38 0 64 -4q8 -36 8 -79t-10 -106q-15 4 -33 4h-29q-197 0 -259 -176q-24 -68 -23 -174v-522q-47 -8 -101 -8q-55 0 -102 8v1051zM438 1217q-52 -9 -105 -9q-54 0 -97 9l235 260q62 8 132 8t126 -8z" />
    <glyph glyph-name="Rcommaaccent" unicode="&#x156;" horiz-adv-x="1222" 
d="M273 -6q-51 0 -89 6v1475q45 4 82 8q130 14 248 14q373 0 505 -230q50 -87 50 -193t-27 -173q-72 -177 -262 -268l-24 -12l428 -621q-56 -6 -118 -6t-118 6l-471 682v8q242 57 334 204q35 56 35 136q0 147 -87 219t-235 72q-57 0 -131 -8v-1313q-69 -6 -120 -6zM662 -125
h40q34 0 80 -8l-118 -354q-23 -3 -42 -7t-51 -4t-82 11l91 354q18 2 38 5t44 3z" />
    <glyph glyph-name="rcommaaccent" unicode="&#x157;" horiz-adv-x="761" 
d="M164 1051q46 8 91 8t81 -8q18 -93 18 -166q106 172 295 172q38 0 64 -4q8 -36 8 -79t-10 -106q-15 4 -33 4h-29q-197 0 -259 -176q-24 -68 -23 -174v-522q-47 -8 -101 -8q-55 0 -102 8v1051zM250 -125h41q34 0 80 -8l-119 -354q-23 -3 -42 -7t-51 -4t-81 11l90 354
q18 2 38 5t44 3z" />
    <glyph glyph-name="Rcaron" unicode="&#x158;" horiz-adv-x="1222" 
d="M273 -6q-51 0 -89 6v1475q45 4 82 8q130 14 248 14q373 0 505 -230q50 -87 50 -193t-27 -173q-72 -177 -262 -268l-24 -12l428 -621q-56 -6 -118 -6t-118 6l-471 682v8q242 57 334 204q35 56 35 136q0 147 -87 219t-235 72q-57 0 -131 -8v-1313q-69 -6 -120 -6zM305 1825
h45q30 0 94 -8q35 -33 68 -64t66 -63l133 127q72 8 96 8h47q20 0 42 -3t42 -5l-242 -222q-46 -8 -116 -8t-123 8l-236 222q72 8 84 8z" />
    <glyph glyph-name="rcaron" unicode="&#x159;" horiz-adv-x="761" 
d="M164 1051q46 8 91 8t81 -8q18 -93 18 -166q106 172 295 172q38 0 64 -4q8 -36 8 -79t-10 -106q-15 4 -33 4h-29q-197 0 -259 -176q-24 -68 -23 -174v-522q-47 -8 -101 -8q-55 0 -102 8v1051zM111 1475q50 10 99 10t109 -10l134 -164l133 164q57 10 109 10t100 -10
l-224 -261q-40 -6 -115 -6q-74 0 -124 9z" />
    <glyph glyph-name="Sacute" unicode="&#x15a;" horiz-adv-x="1116" 
d="M471 162q162 0 245 68t83 182q0 113 -70 173q-51 44 -209 107l-117 47q-132 56 -181 113q-48 58 -68 114t-21 134q0 186 127 292t336 105q209 0 362 -57q-10 -86 -45 -170q-146 53 -292 53q-269 0 -269 -209q0 -113 131 -182q39 -20 82 -37l115 -45q175 -70 260 -161
q86 -90 86 -259q0 -211 -145 -333t-408 -122q-196 0 -379 64q5 62 49 184q166 -61 328 -61zM649 1595q-54 -8 -109 -8q-54 0 -110 8l217 222q83 10 146 10t135 -10z" />
    <glyph glyph-name="sacute" unicode="&#x15b;" horiz-adv-x="931" 
d="M125 772q0 139 99 221t272 82t311 -51q-8 -87 -43 -158q-132 47 -225 47t-151 -26q-58 -27 -58 -94q0 -89 109 -131q32 -12 69 -25l90 -31q113 -37 157 -83t63 -94q20 -48 20 -120q1 -147 -119 -240q-119 -94 -300 -94q-182 0 -321 50q6 59 47 165q112 -47 262 -48
t208 90q19 30 19 69q1 72 -55 111q-35 24 -133 57l-71 27q-131 49 -191 110q-59 61 -59 166zM520 1217q-52 -9 -105 -9t-98 9l236 260q62 8 132 8t126 -8z" />
    <glyph glyph-name="Scircumflex" unicode="&#x15c;" horiz-adv-x="1116" 
d="M471 162q162 0 245 68t83 182q0 113 -70 173q-51 44 -209 107l-117 47q-132 56 -181 113q-48 58 -68 114t-21 134q0 186 127 292t336 105q209 0 362 -57q-10 -86 -45 -170q-146 53 -292 53q-269 0 -269 -209q0 -113 131 -182q39 -20 82 -37l115 -45q175 -70 260 -161
q86 -90 86 -259q0 -211 -145 -333t-408 -122q-196 0 -379 64q5 62 49 184q166 -61 328 -61zM854 1587h-45q-62 0 -94 8l-133 125l-133 -125q-36 -8 -97 -8h-47q-44 0 -84 8l242 222q46 8 116 8q71 0 123 -8l236 -222q-36 -8 -84 -8z" />
    <glyph glyph-name="scircumflex" unicode="&#x15d;" horiz-adv-x="931" 
d="M125 772q0 139 99 221t272 82t311 -51q-8 -87 -43 -158q-132 47 -225 47t-151 -26q-58 -27 -58 -94q0 -89 109 -131q32 -12 69 -25l90 -31q113 -37 157 -83t63 -94q20 -48 20 -120q1 -147 -119 -240q-119 -94 -300 -94q-182 0 -321 50q6 59 47 165q112 -47 262 -48
t208 90q19 30 19 69q1 72 -55 111q-35 24 -133 57l-71 27q-131 49 -191 110q-59 61 -59 166zM834 1217q-41 -9 -101 -9q-61 0 -108 9l-133 163l-134 -163q-52 -9 -109 -9q-58 0 -99 9l223 260q54 8 123 8t116 -10z" />
    <glyph glyph-name="Scedilla" unicode="&#x15e;" horiz-adv-x="1116" 
d="M471 162q162 0 245 68t83 186q0 150 -156 221q-53 25 -123 53l-98 39q-145 57 -217 139t-72 232q0 186 127 292t336 105q209 0 362 -57q-10 -86 -45 -170q-146 53 -292 53q-269 0 -269 -209q0 -83 77 -147q77 -65 194 -95l79 -34q162 -70 243 -156q81 -87 81 -261
q0 -173 -108 -290q-109 -117 -308 -145l-39 -97q9 2 19 2h20q113 0 165 -52t52 -140q1 -88 -79 -140q-80 -53 -198 -53t-185 25q0 75 30 123q67 -25 135 -25t103 24t35 58q0 70 -131 70q-71 0 -117 -17l-17 19l72 192q-200 0 -381 64q5 62 49 184q166 -61 328 -61z" />
    <glyph glyph-name="scedilla" unicode="&#x15f;" horiz-adv-x="933" 
d="M125 772q0 139 99 221t272 82t311 -51q-8 -87 -43 -158q-132 47 -225 47t-151 -26q-58 -27 -58 -94q0 -89 109 -131q32 -12 69 -25l90 -31q113 -37 157 -83t63 -94t20 -116q0 -131 -89 -219t-241 -110l-37 -101q8 2 16 2h19q106 0 162 -49t55 -138q0 -89 -81 -140
q-81 -52 -194 -52t-178 25q5 79 29 119q68 -23 127 -23q59 1 100 21t41 61q0 74 -135 74q-47 0 -115 -14q-4 2 -12 10l74 196q-162 4 -281 50q6 59 47 165q112 -47 262 -48t208 90q19 30 19 69q1 72 -55 111q-35 24 -133 57l-71 27q-131 49 -191 110q-59 61 -59 166z" />
    <glyph glyph-name="Scaron" unicode="&#x160;" horiz-adv-x="1116" 
d="M471 162q162 0 245 68t83 182q0 113 -70 173q-51 44 -209 107l-117 47q-132 56 -181 113q-48 58 -68 114t-21 134q0 186 127 292t336 105q209 0 362 -57q-10 -86 -45 -170q-146 53 -292 53q-269 0 -269 -209q0 -113 131 -182q39 -20 82 -37l115 -45q175 -70 260 -161
q86 -90 86 -259q0 -211 -145 -333t-408 -122q-196 0 -379 64q5 62 49 184q166 -61 328 -61zM315 1825h45q31 0 95 -8q73 -69 133 -127l133 127q72 8 96 8h47q20 0 42 -3t42 -5l-241 -222q-46 -8 -117 -8t-123 8l-236 222q72 8 84 8z" />
    <glyph glyph-name="scaron" unicode="&#x161;" horiz-adv-x="931" 
d="M125 772q0 139 99 221t272 82t311 -51q-8 -87 -43 -158q-132 47 -225 47t-151 -26q-58 -27 -58 -94q0 -89 109 -131q32 -12 69 -25l90 -31q113 -37 157 -83t63 -94q20 -48 20 -120q1 -147 -119 -240q-119 -94 -300 -94q-182 0 -321 50q6 59 47 165q112 -47 262 -48
t208 90q19 30 19 69q1 72 -55 111q-35 24 -133 57l-71 27q-131 49 -191 110q-59 61 -59 166zM152 1475q50 10 99 10t109 -10l134 -164l133 164q57 10 109 10t100 -10l-224 -261q-40 -6 -115 -6q-74 0 -124 9z" />
    <glyph glyph-name="Tcommaaccent" unicode="&#x162;" horiz-adv-x="1077" 
d="M1034 1382q0 -52 -8 -92h-383v-1290q-47 -6 -103 -6t-106 6v1290h-383q-8 40 -8 90t8 93h975q8 -39 8 -91zM563 -125q44 0 88 -8l-123 -354q-76 -16 -115 -11q-39 6 -63 11l92 354q46 8 101 8h20z" />
    <glyph glyph-name="tcommaaccent" unicode="&#x163;" horiz-adv-x="733" 
d="M516 -16q-147 0 -230 72t-83 237v596h-160l-8 29l352 393h16v-260h267q8 -35 8 -77t-8 -85h-267v-479q0 -165 32 -216q17 -28 47 -37q76 -23 196 7q20 -59 20 -160q-82 -20 -182 -20zM463 -125h41q34 0 80 -8l-119 -354q-23 -3 -42 -7t-51 -4t-81 11l90 354q19 2 39 5
t43 3z" />
    <glyph glyph-name="Tcaron" unicode="&#x164;" horiz-adv-x="1077" 
d="M1034 1382q0 -52 -8 -92h-383v-1290q-47 -6 -103 -6t-106 6v1290h-383q-8 40 -8 90t8 93h975q8 -39 8 -91zM268 1825h45q31 0 95 -8q73 -69 133 -127l133 127q72 8 96 8h47q20 0 42 -3t42 -5l-242 -222q-47 -8 -117 -8q-71 0 -122 8l-236 222q72 8 84 8z" />
    <glyph glyph-name="tcaron" unicode="&#x165;" horiz-adv-x="731" 
d="M516 -16q-147 0 -230 72t-83 237v596h-160l-8 29l352 393h16v-260h267q8 -35 8 -77t-8 -85h-267v-479q0 -165 32 -216q17 -28 47 -37q76 -23 196 7q20 -59 20 -160q-82 -20 -182 -20zM679 1509q51 0 99 -8l-30 -330q-50 -8 -83 -8t-83 8v330q46 8 97 8z" />
    <glyph glyph-name="Tbar" unicode="&#x166;" horiz-adv-x="1077" 
d="M934 733q0 -44 -8 -78h-283v-655q-47 -6 -103 -6t-106 6v655h-284q-9 36 -9 81t9 73h284v481h-383q-8 40 -8 90t8 93h975q8 -39 8 -91t-8 -92h-383v-481h283q8 -32 8 -76z" />
    <glyph glyph-name="tbar" unicode="&#x167;" horiz-adv-x="733" 
d="M516 -16q-147 0 -230 72t-83 237v192h-162q-6 37 -6 79t6 79h162v246h-160l-8 29l352 393h16v-260h267q8 -35 8 -77t-8 -85h-267v-246h267q8 -35 8 -79t-8 -79h-267v-75q0 -165 32 -216q17 -28 47 -37q76 -23 196 7q20 -59 20 -160q-82 -20 -182 -20z" />
    <glyph glyph-name="Utilde" unicode="&#x168;" horiz-adv-x="1380" 
d="M271 1479q56 0 104 -6v-836q0 -258 71 -366q71 -109 244 -108q172 1 242 107t72 367v836q51 6 106 6t104 -6v-873q0 -310 -122 -468q-122 -157 -402 -157q-410 0 -496 361q-28 117 -28 264v873q49 6 105 6zM532 1864q58 0 134 -35q77 -35 117 -51t94 -16t127 69
q47 -57 67 -121q-98 -98 -205 -98q-70 0 -175 50t-152 50t-77 -17t-69 -53q-56 70 -67 117q94 105 206 105z" />
    <glyph glyph-name="utilde" unicode="&#x169;" horiz-adv-x="1175" 
d="M254 1059q56 0 100 -8v-576q0 -192 69 -260t195 -69q127 -1 201 22v883q45 8 101 8t100 -8v-1018q-322 -89 -566 -40q-305 58 -302 474v584q46 8 102 8zM305 1247q-48 61 -63 121q77 102 196 100q62 0 127 -30q66 -30 103 -45t91 -15t124 64q45 -55 65 -125
q-83 -98 -198 -96q-60 1 -128 31q-67 30 -103 44q-83 32 -144 0q-29 -14 -70 -49z" />
    <glyph glyph-name="Umacron" unicode="&#x16a;" horiz-adv-x="1380" 
d="M271 1479q56 0 104 -6v-836q0 -258 71 -366q71 -109 244 -108q172 1 242 107t72 367v836q51 6 106 6t104 -6v-873q0 -310 -122 -468q-122 -157 -402 -157q-410 0 -496 361q-28 117 -28 264v873q49 6 105 6zM1024 1704q0 -52 -6 -78h-653q-9 36 -9 81t9 73h653
q6 -24 6 -76z" />
    <glyph glyph-name="umacron" unicode="&#x16b;" horiz-adv-x="1175" 
d="M254 1059q56 0 100 -8v-576q0 -192 69 -260t195 -69q127 -1 201 22v883q45 8 101 8t100 -8v-1018q-322 -89 -566 -40q-305 58 -302 474v584q46 8 102 8zM870 1346q0 -42 -8 -76h-553q-8 32 -8 76t8 75h553q8 -33 8 -75z" />
    <glyph glyph-name="Ubreve" unicode="&#x16c;" horiz-adv-x="1380" 
d="M271 1479q56 0 104 -6v-836q0 -258 71 -366q71 -109 244 -108q172 1 242 107t72 367v836q51 6 106 6t104 -6v-873q0 -310 -122 -468q-122 -157 -402 -157q-410 0 -496 361q-28 117 -28 264v873q49 6 105 6zM354 1825q57 10 90 10t91 -10q15 -111 161 -111q86 0 121 33
t41 78q51 10 85 10t97 -10q-14 -134 -134 -199q-80 -43 -209 -43q-130 0 -195 35q-66 35 -103 82t-45 125z" />
    <glyph glyph-name="ubreve" unicode="&#x16d;" horiz-adv-x="1175" 
d="M254 1059q56 0 100 -8v-576q0 -192 69 -260t195 -69q127 -1 201 22v883q45 8 101 8t100 -8v-1018q-322 -89 -566 -40q-305 58 -302 474v584q46 8 102 8zM250 1475q38 10 83 10q44 0 99 -10q7 -90 85 -123q28 -12 86 -13t94 37q36 37 46 99q63 10 106 10q44 0 77 -10
q-18 -149 -133 -222q-84 -53 -205 -53q-195 0 -291 137q-37 53 -47 138z" />
    <glyph glyph-name="Uring" unicode="&#x16e;" horiz-adv-x="1380" 
d="M271 1479q56 0 104 -6v-836q0 -258 71 -366q71 -109 244 -108q172 1 242 107t72 367v836q51 6 106 6t104 -6v-873q0 -310 -122 -468q-122 -157 -402 -157q-410 0 -496 361q-28 117 -28 264v873q49 6 105 6zM692 1610q53 0 82 35t29 93t-29 93t-82 35t-82 -35
q-28 -35 -28 -93t28 -93t82 -35zM521 1908q68 64 171 64t170 -63q68 -63 69 -168t-66 -171q-67 -65 -172 -66q-104 -1 -172 65t-68 171q0 104 68 168z" />
    <glyph glyph-name="uring" unicode="&#x16f;" horiz-adv-x="1175" 
d="M254 1059q56 0 100 -8v-576q0 -192 69 -260t195 -69q127 -1 201 22v883q45 8 101 8t100 -8v-1018q-322 -89 -566 -40q-305 58 -302 474v584q46 8 102 8zM596 1305q49 1 76 31t26 83q0 53 -26 84q-27 31 -76 31t-75 -31t-25 -84q0 -114 100 -114zM375 1419q0 99 61 159
q62 60 160 60t160 -60t61 -158q0 -98 -61 -159q-62 -61 -160 -61t-160 60t-61 159z" />
    <glyph glyph-name="Uhungarumlaut" unicode="&#x170;" horiz-adv-x="1380" 
d="M271 1479q56 0 104 -6v-836q0 -258 71 -366q71 -109 244 -108q172 1 242 107t72 367v836q51 6 106 6t104 -6v-873q0 -310 -122 -468q-122 -157 -402 -157q-410 0 -496 361q-28 117 -28 264v873q49 6 105 6zM979 1593q-46 -8 -100 -8t-111 8l203 226q47 8 116 8
q70 0 136 -8zM559 1593q-50 -8 -104 -8t-109 8l205 226q44 8 114 8t136 -8z" />
    <glyph glyph-name="uhungarumlaut" unicode="&#x171;" horiz-adv-x="1175" 
d="M254 1059q56 0 100 -8v-576q0 -192 69 -260t195 -69q127 -1 201 22v883q45 8 101 8t100 -8v-1018q-322 -89 -566 -40q-305 58 -302 474v584q46 8 102 8zM870 1217q-52 -9 -105 -9q-54 0 -97 9l233 260q58 8 119 8t123 -8zM477 1217q-52 -9 -105 -9t-98 9l232 260
q62 8 122 8t122 -8z" />
    <glyph glyph-name="Uogonek" unicode="&#x172;" horiz-adv-x="1378" 
d="M270 1479q55 0 105 -6v-836q0 -258 71 -366q71 -109 244 -108q172 1 242 107t72 367v836q49 6 112 6t96 -6v-873q0 -252 -83 -408t-279 -198q-162 -126 -162 -248q0 -47 29 -75q52 -50 192 -9q31 -52 31 -133q-72 -23 -149 -24q-201 -2 -270 110q-24 39 -23 96
q0 139 147 264q-372 17 -454 369q-26 113 -25 256v873q49 6 104 6z" />
    <glyph glyph-name="uogonek" unicode="&#x173;" horiz-adv-x="1175" 
d="M253 1057q66 0 99 -6v-578q0 -269 166 -313q53 -14 139 -14t160 20v885q34 6 102 6t101 -6v-1018q-46 -26 -79 -40q-31 -15 -65 -46q-102 -94 -102 -195q0 -51 29 -81q53 -55 186 -13q29 -56 29 -129q-67 -23 -143 -24q-200 -3 -265 111q-22 40 -22 100t41 134
q41 72 110 132q-141 -18 -258 5q-116 23 -184 75q-147 112 -145 403v586q35 6 101 6z" />
    <glyph glyph-name="Wcircumflex" unicode="&#x174;" horiz-adv-x="1886" 
d="M55 1473q46 8 114 8t118 -8l252 -1227l303 1227q50 8 113 8t106 -8l305 -1240l256 1240q46 8 106 8t103 -8l-354 -1473q-50 -8 -119 -8t-125 8l-291 1153l-295 -1153q-57 -8 -123 -8t-114 8zM1214 1587h-45q-62 0 -94 8l-133 125l-133 -125q-36 -8 -96 -8h-47
q-44 0 -84 8l241 222q46 8 117 8t123 -8l235 -222q-36 -8 -84 -8z" />
    <glyph glyph-name="wcircumflex" unicode="&#x175;" horiz-adv-x="1587" 
d="M45 1051q58 8 117 8q58 0 102 -8l205 -858l231 858q46 8 112 7t95 -7l230 -844l204 844q46 8 95 8q50 0 106 -8l-313 -1051q-55 -8 -105 -8t-102 8l-225 795l-236 -795q-59 -8 -111 -8q-53 0 -96 8zM1135 1217q-41 -9 -101 -9q-61 0 -108 9l-133 163l-134 -163
q-52 -9 -109 -9q-58 0 -99 9l223 260q54 8 123 8t116 -10z" />
    <glyph glyph-name="Ycircumflex" unicode="&#x176;" horiz-adv-x="1212" 
d="M37 1473q54 8 120 8q65 0 113 -8l344 -732l340 732q54 8 111 8t111 -8l-461 -934v-539q-55 -8 -111 -8t-100 8v539zM885 1587h-45q-61 0 -95 8l-133 125l-133 -125q-36 -8 -96 -8h-47q-44 0 -84 8l242 222q46 8 116 8q71 0 123 -8l236 -222q-36 -8 -84 -8z" />
    <glyph glyph-name="ycircumflex" unicode="&#x177;" horiz-adv-x="1079" 
d="M27 1051q40 6 115 6t108 -6l291 -977l301 977q43 6 104 6t105 -6l-408 -1264q-59 -170 -129 -233q-71 -64 -182 -64t-191 25q0 83 33 157q60 -20 103 -20t79 8q59 13 103 139l63 199l-67 -2q-52 0 -80 4zM881 1217q-40 -9 -101 -9t-108 9l-133 163l-133 -163
q-52 -9 -110 -9t-99 9l223 260q54 8 123 8t116 -10z" />
    <glyph glyph-name="Ydieresis" unicode="&#x178;" horiz-adv-x="1212" 
d="M37 1473q54 8 120 8q65 0 113 -8l344 -732l340 732q54 8 111 8t111 -8l-461 -934v-539q-55 -8 -111 -8t-100 8v539zM711 1724q0 41 10 99q50 8 104 8q55 0 111 -8q6 -53 6 -105t-6 -102q-58 -8 -112 -8t-103 8q-10 67 -10 108zM281 1823q58 8 111 8t104 -8q8 -47 8 -103
t-8 -104q-50 -8 -104 -8q-53 0 -111 8q-13 109 0 207z" />
    <glyph glyph-name="Zacute" unicode="&#x179;" horiz-adv-x="1167" 
d="M139 1378q0 52 8 95h957l14 -19l-743 -1272h690q8 -36 8 -91t-8 -91h-997l-13 18l742 1272h-650q-8 36 -8 88zM696 1595q-54 -8 -109 -8q-54 0 -110 8l217 222q82 10 146 10q63 0 135 -10z" />
    <glyph glyph-name="zacute" unicode="&#x17a;" horiz-adv-x="976" 
d="M119 970q0 44 6 81h788l11 -27l-557 -862h522q6 -41 6 -83t-6 -79h-819l-11 29l553 860h-487q-6 37 -6 81zM555 1217q-52 -9 -106 -9t-97 9l236 260q62 8 131 8t127 -8z" />
    <glyph glyph-name="Zdotaccent" unicode="&#x17b;" horiz-adv-x="1167" 
d="M139 1378q0 52 8 95h957l14 -19l-743 -1272h690q8 -36 8 -91t-8 -91h-997l-13 18l742 1272h-650q-8 36 -8 88zM514 1614q-8 47 -8 103t8 108q48 10 112 10t111 -10q8 -47 8 -103t-8 -108q-48 -10 -111 -10q-64 0 -112 10z" />
    <glyph glyph-name="zdotaccent" unicode="&#x17c;" horiz-adv-x="976" 
d="M119 970q0 44 6 81h788l11 -27l-557 -862h522q6 -41 6 -83t-6 -79h-819l-11 29l553 860h-487q-6 37 -6 81zM416 1243q-8 57 -8 113t8 112q80 11 127 11t108 -11q8 -58 8 -114t-8 -111q-58 -8 -117 -8q-60 0 -118 8z" />
    <glyph glyph-name="Zcaron" unicode="&#x17d;" horiz-adv-x="1167" 
d="M139 1378q0 52 8 95h957l14 -19l-743 -1272h690q8 -36 8 -91t-8 -91h-997l-13 18l742 1272h-650q-8 36 -8 88zM371 1825h45q30 0 94 -8q35 -33 68 -64t65 -63l133 127q72 8 96 8h48q20 0 42 -3t42 -5l-242 -222q-46 -8 -116 -8t-124 8l-235 222q72 8 84 8z" />
    <glyph glyph-name="zcaron" unicode="&#x17e;" horiz-adv-x="976" 
d="M119 970q0 44 6 81h788l11 -27l-557 -862h522q6 -41 6 -83t-6 -79h-819l-11 29l553 860h-487q-6 37 -6 81zM193 1475q50 10 99 10t109 -10l134 -164l133 164q58 10 109 10q52 0 100 -10l-224 -261q-41 -6 -115 -6t-124 9z" />
    <glyph glyph-name="longs" unicode="&#x17f;" horiz-adv-x="700" 
d="M304 -8q-56 0 -99 8v1124q0 195 97 296t284 102q95 0 162 -21q-8 -99 -31 -164q-75 15 -116 15q-97 0 -146 -49t-49 -185v-1118q-46 -8 -102 -8z" />
    <glyph glyph-name="florin" unicode="&#x192;" 
d="M940 1300q-96 0 -136 -48t-61 -183l-18 -119h244q6 -41 6 -82t-6 -77h-264l-91 -631q-35 -227 -120 -334t-267 -107h-30q-32 0 -134 21q7 85 31 164q190 -38 248 30q43 51 64 187l96 670h-178q-13 82 0 159h198l27 164q29 174 115 266t260 93q92 0 163 -21
q-8 -98 -32 -166q-70 14 -115 14z" />
    <glyph glyph-name="Scommaaccent" unicode="&#x218;" horiz-adv-x="1116" 
d="M471 162q162 0 245 68t83 182q0 113 -70 173q-51 44 -209 107l-117 47q-132 56 -181 113q-48 58 -68 114t-21 134q0 186 127 292t336 105q209 0 362 -57q-10 -86 -45 -170q-146 53 -292 53q-269 0 -269 -209q0 -113 131 -182q39 -20 82 -37l115 -45q175 -70 260 -161
q86 -90 86 -259q0 -211 -145 -333t-408 -122q-196 0 -379 64q5 62 49 184q166 -61 328 -61zM561 -125h41q34 0 80 -8l-119 -354q-23 -3 -42 -7t-51 -4t-81 11l90 354q19 2 39 5t43 3z" />
    <glyph glyph-name="scommaaccent" unicode="&#x219;" horiz-adv-x="931" 
d="M125 772q0 139 99 221t272 82t311 -51q-8 -87 -43 -158q-132 47 -225 47t-151 -26q-58 -27 -58 -94q0 -89 109 -131q32 -12 69 -25l90 -31q113 -37 157 -83t63 -94q20 -48 20 -120q1 -147 -119 -240q-119 -94 -300 -94q-182 0 -321 50q6 59 47 165q112 -47 262 -48
t208 90q19 30 19 69q1 72 -55 111q-35 24 -133 57l-71 27q-131 49 -191 110q-59 61 -59 166zM479 -125h41q34 0 80 -8l-119 -354q-23 -3 -42 -7t-51 -4t-81 11l90 354q19 2 39 5t43 3z" />
    <glyph glyph-name="uni021A" unicode="&#x21a;" horiz-adv-x="1077" 
d="M1034 1382q0 -52 -8 -92h-383v-1290q-47 -6 -103 -6t-106 6v1290h-383q-8 40 -8 90t8 93h975q8 -39 8 -91zM559 -125q44 0 88 -8l-123 -354q-76 -16 -115 -11q-39 6 -63 11l92 354q46 8 101 8h20z" />
    <glyph glyph-name="uni021B" unicode="&#x21b;" horiz-adv-x="733" 
d="M516 -16q-147 0 -230 72t-83 237v596h-160l-8 29l352 393h16v-260h267q8 -35 8 -77t-8 -85h-267v-479q0 -165 32 -216q17 -28 47 -37q76 -23 196 7q20 -59 20 -160q-82 -20 -182 -20zM459 -125h41q34 0 80 -8l-119 -354q-23 -3 -42 -7t-51 -4t-81 11l90 354q19 2 39 5
t43 3z" />
    <glyph glyph-name="dotlessj" unicode="&#x237;" horiz-adv-x="593" 
d="M-47 -203q46 -16 115 -16q69 1 100 23q63 46 63 151v934h-135q-8 32 -8 79t8 83h334v-1110q0 -322 -326 -322q-104 0 -184 25q0 87 33 153z" />
    <glyph glyph-name="apostrophe" unicode="&#x2bc;" horiz-adv-x="595" 
d="M228 1159q-40 0 -78 8l83 334q28 8 98 8q69 0 101 -8l-113 -334q-51 -8 -91 -8z" />
    <glyph glyph-name="circumflex" unicode="&#x2c6;" horiz-adv-x="1019" 
d="M852 1217q-41 -9 -101 -9q-61 0 -108 9l-133 163l-133 -163q-52 -9 -110 -9t-99 9l223 260q54 8 123 8t117 -10z" />
    <glyph glyph-name="caron" unicode="&#x2c7;" horiz-adv-x="1019" 
d="M168 1475q50 10 98 10t111 -10l133 -164l133 164q58 10 110 10t99 -10l-223 -261q-40 -6 -114 -6t-126 9z" />
    <glyph glyph-name="uni02C9" unicode="&#x2c9;" horiz-adv-x="1024" 
d="M797 1343q0 -42 -9 -73h-552q-9 36 -9 79t9 72h552q9 -36 9 -78z" />
    <glyph glyph-name="breve" unicode="&#x2d8;" horiz-adv-x="1019" 
d="M172 1475q38 10 83 10q44 0 99 -10q7 -90 85 -123q28 -12 71 -12q75 -1 109 35t47 100q62 10 106 10q43 0 76 -10q-18 -149 -133 -222q-84 -53 -205 -53q-195 0 -291 137q-37 53 -47 138z" />
    <glyph glyph-name="dotaccent" unicode="&#x2d9;" horiz-adv-x="628" 
d="M197 1243q-9 65 -9 120t9 105q80 11 127 11t108 -11q8 -58 8 -114t-8 -111q-58 -8 -118 -8q-59 0 -117 8z" />
    <glyph glyph-name="ring" unicode="&#x2da;" horiz-adv-x="1032" 
d="M516 1305q49 1 76 31t26 83q0 53 -26 84q-27 31 -76 31t-75 -31t-25 -84q0 -114 100 -114zM295 1419q0 99 61 159q62 60 160 60t160 -60t61 -158q0 -98 -61 -159q-62 -61 -160 -61t-160 60t-61 159z" />
    <glyph glyph-name="ogonek" unicode="&#x2db;" horiz-adv-x="1024" 
d="M483 -243q0 -119 113 -117q49 0 100 16q25 -45 31 -129q-60 -21 -140 -22q-202 -3 -268 110q-23 39 -23 103t49 143q48 80 126 139h180q-72 -47 -120 -117t-48 -126z" />
    <glyph glyph-name="tilde" unicode="&#x2dc;" horiz-adv-x="1024" 
d="M223 1247q-48 61 -63 121q77 102 196 100q62 0 127 -30q66 -30 103 -45t91 -15t124 64q45 -55 65 -125q-83 -98 -198 -96q-60 1 -128 31q-67 30 -103 44q-83 32 -144 0q-29 -14 -70 -49z" />
    <glyph glyph-name="hungarumlaut" unicode="&#x2dd;" horiz-adv-x="1024" 
d="M674 1217q-52 -9 -106 -9t-97 9l234 260q58 8 119 8t122 -8zM281 1217q-52 -9 -106 -9t-97 9l231 260q62 8 123 8t121 -8z" />
    <glyph glyph-name="Omega" unicode="&#x3a9;" horiz-adv-x="1495" 
d="M80 91q0 61 6 91h238q-86 104 -145 261q-58 157 -58 328q0 509 353 666q115 50 267 50q300 0 461 -189q160 -189 160 -516q0 -182 -58 -339t-145 -261h238q6 -30 6 -91t-6 -91h-545l-10 29q185 193 268 505q31 116 31 244q0 523 -400 525q-399 0 -399 -525
q0 -236 95 -437t204 -312l-10 -29h-545q-6 30 -6 91z" />
    <glyph glyph-name="pi" unicode="&#x3c0;" horiz-adv-x="1511" 
d="M488 -6q-66 0 -99 6v885h-16q-128 0 -223 -76q-59 64 -68 137q104 104 313 105h1000q6 -41 6 -89t-6 -77h-260v-539q-1 -113 33 -156t92 -43t129 17q20 -62 20 -160q-78 -20 -182 -20q-166 0 -230 100q-63 100 -63 293v508h-346v-885q-34 -6 -100 -6z" />
    <glyph glyph-name="Wgrave" unicode="&#x1e80;" horiz-adv-x="1886" 
d="M55 1473q46 8 114 8t118 -8l252 -1227l303 1227q50 8 113 8t106 -8l305 -1240l256 1240q46 8 106 8t103 -8l-354 -1473q-50 -8 -119 -8t-125 8l-291 1153l-295 -1153q-57 -8 -123 -8t-114 8zM582 1817q73 10 137 10q65 0 145 -10l215 -222q-47 -8 -105 -8t-112 8z" />
    <glyph glyph-name="wgrave" unicode="&#x1e81;" horiz-adv-x="1587" 
d="M45 1051q58 8 117 8q58 0 102 -8l205 -858l231 858q46 8 112 7t95 -7l230 -844l204 844q46 8 95 8q50 0 106 -8l-313 -1051q-55 -8 -105 -8t-102 8l-225 795l-236 -795q-59 -8 -111 -8q-53 0 -96 8zM446 1477q62 8 130 8q69 0 131 -8l235 -260q-117 -20 -205 0z" />
    <glyph glyph-name="Wacute" unicode="&#x1e82;" horiz-adv-x="1886" 
d="M55 1473q46 8 114 8t118 -8l252 -1227l303 1227q50 8 113 8t106 -8l305 -1240l256 1240q46 8 106 8t103 -8l-354 -1473q-50 -8 -119 -8t-125 8l-291 1153l-295 -1153q-57 -8 -123 -8t-114 8zM969 1817q83 10 146 10q64 0 134 -10l-278 -222q-54 -8 -109 -8q-54 0 -110 8z
" />
    <glyph glyph-name="wacute" unicode="&#x1e83;" horiz-adv-x="1587" 
d="M45 1051q58 8 117 8q58 0 102 -8l205 -858l231 858q46 8 112 7t95 -7l230 -844l204 844q46 8 95 8q50 0 106 -8l-313 -1051q-55 -8 -105 -8t-102 8l-225 795l-236 -795q-59 -8 -111 -8q-53 0 -96 8zM809 1217q-52 -9 -106 -9t-97 9l236 260q62 8 131 8t127 -8z" />
    <glyph glyph-name="Wdieresis" unicode="&#x1e84;" horiz-adv-x="1886" 
d="M55 1473q46 8 114 8t118 -8l252 -1227l303 1227q50 8 113 8t106 -8l305 -1240l256 1240q46 8 106 8t103 -8l-354 -1473q-50 -8 -119 -8t-125 8l-291 1153l-295 -1153q-57 -8 -123 -8t-114 8zM1055 1823q49 8 103 8t112 -8q6 -53 6 -105t-6 -102q-58 -8 -112 -8t-103 8
q-17 116 0 207zM608 1718q0 51 6 105q58 8 112 8q55 0 103 -8q19 -110 0 -207q-49 -8 -103 -8t-112 8q-6 51 -6 102z" />
    <glyph glyph-name="wdieresis" unicode="&#x1e85;" horiz-adv-x="1587" 
d="M45 1051q58 8 117 8q58 0 102 -8l205 -858l231 858q46 8 112 7t95 -7l230 -844l204 844q46 8 95 8q50 0 106 -8l-313 -1051q-55 -8 -105 -8t-102 8l-225 795l-236 -795q-59 -8 -111 -8q-53 0 -96 8zM897 1237q-8 47 -8 100t8 105q49 8 103 8t106 -8q6 -54 6 -104t-6 -101
q-53 -6 -112 -6q-60 0 -97 6zM479 1237q-8 53 -8 103t8 102q50 8 104 8q53 0 105 -8q8 -47 8 -100t-8 -105q-53 -6 -112 -6t-97 6z" />
    <glyph glyph-name="Ygrave" unicode="&#x1ef2;" horiz-adv-x="1212" 
d="M37 1473q54 8 120 8q65 0 113 -8l344 -732l340 732q54 8 111 8t111 -8l-461 -934v-539q-55 -8 -111 -8t-100 8v539zM291 1817q73 10 137 10q65 0 145 -10l215 -222q-47 -8 -105 -8t-112 8z" />
    <glyph glyph-name="ygrave" unicode="&#x1ef3;" horiz-adv-x="1079" 
d="M27 1051q40 6 115 6t108 -6l291 -977l301 977q43 6 104 6t105 -6l-408 -1264q-59 -170 -129 -233q-71 -64 -182 -64t-191 25q0 83 33 157q60 -20 103 -20t79 8q59 13 103 139l63 199l-67 -2q-52 0 -80 4zM213 1477q62 8 131 8t129 -8l236 -260q-117 -20 -205 0z" />
    <glyph glyph-name="endash" unicode="&#x2013;" horiz-adv-x="1024" 
d="M1032 572q0 -50 -8 -91h-1024q-8 47 -8 95t8 92h1024q8 -46 8 -96z" />
    <glyph glyph-name="emdash" unicode="&#x2014;" horiz-adv-x="2048" 
d="M2056 572q0 -50 -8 -91h-2048q-8 47 -8 95t8 92h2048q8 -46 8 -96z" />
    <glyph glyph-name="quoteleft" unicode="&#x2018;" horiz-adv-x="528" 
d="M102 1470q56 9 107 9t94 -9l121 -456q-46 -8 -96 -8q-51 0 -99 8z" />
    <glyph glyph-name="quoteright" unicode="&#x2019;" horiz-adv-x="528" 
d="M223 1473q50 8 103 8q52 0 100 -8l-127 -457q-36 -8 -100 -8t-97 8z" />
    <glyph glyph-name="quotesinglbase" unicode="&#x201a;" horiz-adv-x="528" 
d="M299 -231q-47 -7 -105 -7q-57 0 -92 7l121 456q57 9 96 10t107 -10z" />
    <glyph glyph-name="quotedblleft" unicode="&#x201c;" horiz-adv-x="927" 
d="M102 1470q56 9 107 9t94 -9l121 -456q-46 -8 -96 -8q-51 0 -99 8zM502 1470q56 9 107 9q50 0 93 -9l121 -456q-46 -8 -96 -8q-51 0 -98 8z" />
    <glyph glyph-name="quotedblright" unicode="&#x201d;" horiz-adv-x="927" 
d="M223 1473q50 8 103 8q52 0 100 -8l-127 -457q-36 -8 -100 -8t-97 8zM623 1473q50 8 102 8t100 -8l-127 -457q-36 -8 -100 -8t-96 8z" />
    <glyph glyph-name="quotedblbase" unicode="&#x201e;" horiz-adv-x="927" 
d="M299 -231q-47 -7 -105 -7q-57 0 -92 7l121 456q57 9 96 10t107 -10zM698 -231q-47 -7 -105 -7t-91 7l121 456q57 9 96 10q38 1 106 -10z" />
    <glyph glyph-name="dagger" unicode="&#x2020;" horiz-adv-x="1005" 
d="M506 -358q-56 0 -100 8v1106h-295q-9 40 -9 94t9 86h295v537q46 8 99 8t97 -8v-537h293q8 -36 8 -90t-8 -90h-293v-1106q-40 -8 -96 -8z" />
    <glyph glyph-name="daggerdbl" unicode="&#x2021;" horiz-adv-x="1005" 
d="M506 -358q-56 0 -100 8v500h-295q-9 45 -9 97t9 85h295v502h-295q-9 46 -9 96t9 86h295v457q46 8 99 8t97 -8v-457h293q8 -40 8 -91t-8 -91h-293v-502h293q8 -36 8 -89t-8 -93h-293v-500q-40 -8 -96 -8z" />
    <glyph glyph-name="bullet" unicode="&#x2022;" horiz-adv-x="833" 
d="M154 766q0 55 20 103q41 98 140 141q48 20 104 20q111 0 185 -76q75 -76 76 -187t-76 -188t-188 -77t-186 76t-75 188z" />
    <glyph glyph-name="ellipsis" unicode="&#x2026;" horiz-adv-x="1501" 
d="M637 229q65 9 121 9t106 -9q10 -72 10 -116q0 -43 -10 -113q-58 -8 -114 -8t-113 8q-10 72 -10 116q0 43 10 113zM1141 229q65 9 121 9t106 -9q10 -72 10 -116q0 -43 -10 -113q-58 -8 -114 -8t-113 8q-15 111 -10 156q6 45 10 73zM133 229q65 9 121 9t106 -9
q11 -80 11 -124t-11 -105q-58 -8 -114 -8t-113 8q-10 72 -10 116q0 43 10 113z" />
    <glyph glyph-name="perthousand" unicode="&#x2030;" horiz-adv-x="3057" 
d="M1470 1450q50 8 104 8t103 -8l-989 -1448q-58 -8 -108 -8t-99 8zM1376 721q98 125 285 125t287 -123t100 -311t-100 -311q-100 -124 -287 -124q-186 0 -289 128q-94 116 -94 304q0 187 98 312zM1663 125q197 0 197 287q0 135 -46 210t-151 74q-197 0 -197 -284
q0 -137 46 -212t151 -75zM2283 721q98 125 285 125t288 -124t99 -310q0 -295 -215 -400q-72 -35 -170 -35t-171 35t-120 93q-94 116 -94 304q0 187 98 312zM2570 125q197 0 197 287q0 135 -46 210t-151 74q-196 0 -196 -284q0 -137 46 -212t150 -75zM90 1037q0 185 99 311
q99 125 285 125q187 0 288 -125t98 -310q0 -294 -215 -399q-72 -35 -170 -35t-171 35q-214 103 -214 398zM672 1038q0 135 -46 210t-151 75q-196 0 -196 -285q0 -137 46 -212t150 -74q197 0 197 286z" />
    <glyph glyph-name="guilsinglleft" unicode="&#x2039;" horiz-adv-x="747" 
d="M544 84q-56 0 -104 8l-340 455l340 452q56 9 111 9t106 -9l-333 -450l333 -457q-57 -8 -113 -8z" />
    <glyph glyph-name="guilsinglright" unicode="&#x203a;" horiz-adv-x="747" 
d="M88 999q65 9 120 9q54 0 97 -9l342 -454l-342 -453q-62 -10 -105 -10q-42 0 -112 10l336 451z" />
    <glyph glyph-name="fraction" unicode="&#x2044;" horiz-adv-x="450" 
d="M614 1450q50 8 104 8t103 -8l-989 -1448q-58 -8 -108 -8t-99 8z" />
    <glyph glyph-name="zerosuperior" unicode="&#x2070;" horiz-adv-x="921" 
d="M80 1037q0 188 99 312t285 124t286 -123t100 -312q0 -294 -215 -399q-72 -35 -170 -35t-171 35q-214 103 -214 398zM662 1038q0 286 -197 285q-197 0 -197 -285q0 -137 46 -212t151 -74q197 0 197 286z" />
    <glyph glyph-name="foursuperior" unicode="&#x2074;" horiz-adv-x="921" 
d="M807 854q0 -44 -8 -70h-99v-157q-42 -6 -82 -6t-79 6v157h-426l-17 27l336 666q82 -10 150 -50l-244 -497h201v162q37 6 79 6t82 -6v-162h99q8 -32 8 -76z" />
    <glyph glyph-name="fivesuperior" unicode="&#x2075;" horiz-adv-x="921" 
d="M455 1159q141 1 226 -67t85 -204t-107 -209q-107 -74 -290 -77h-21q-109 4 -209 37q9 91 43 143q98 -34 194 -34q210 1 212 149q0 49 -42 88t-135 39t-171 -25l-23 21l21 426h483q6 -21 6 -65t-8 -76h-328l-10 -154q32 8 74 8z" />
    <glyph glyph-name="sixsuperior" unicode="&#x2076;" horiz-adv-x="921" 
d="M637 895q-1 145 -159 145q-70 0 -110 -36q-42 -36 -42 -110q0 -73 40 -113t110 -40t116 38q45 38 45 116zM645 1477q17 -35 17 -79t-3 -59q-123 -10 -215 -72t-127 -177q35 34 85 60t152 26t180 -71t79 -208q0 -137 -99 -216t-249 -80t-239 90t-89 261q0 216 133 362
q132 146 375 163z" />
    <glyph glyph-name="sevensuperior" unicode="&#x2077;" horiz-adv-x="921" 
d="M180 1370q0 44 6 78h619l12 -18l-381 -822q-67 12 -160 64l299 633h-389q-6 21 -6 65z" />
    <glyph glyph-name="eightsuperior" unicode="&#x2078;" horiz-adv-x="921" 
d="M608 1247q0 39 -31 68q-32 29 -98 29q-65 0 -97 -30q-32 -28 -32 -74t41 -73t92 -43q125 37 125 123zM480 735q79 0 120 33t41 88t-50 92t-112 56q-158 -45 -160 -154q0 -47 41 -81t120 -34zM774 1260q0 -122 -127 -191q168 -81 168 -229q0 -117 -95 -177
q-95 -59 -237 -59q-228 0 -311 126q-29 44 -29 119q1 75 53 133t115 87q-47 29 -87 77t-40 114q0 94 84 154t211 60t211 -61q84 -62 84 -153z" />
    <glyph glyph-name="ninesuperior" unicode="&#x2079;" horiz-adv-x="921" 
d="M297 1178q-1 -146 155 -146q70 0 112 37t42 109t-40 112t-110 41q-70 0 -115 -39q-44 -39 -44 -114zM287 596q-17 34 -17 77t2 60q123 11 215 73t127 177q-35 -33 -85 -59q-49 -26 -151 -27q-102 0 -180 71t-79 207q0 136 98 216q98 79 249 81t240 -90t89 -262
q0 -215 -133 -362q-134 -147 -375 -162z" />
    <glyph glyph-name="zeroinferior" unicode="&#x2080;" horiz-adv-x="921" 
d="M850 414q0 -292 -215 -400q-72 -34 -170 -34q-189 1 -287 122q-98 122 -98 310t98 312t285 124t287 -123t100 -311zM465 127q197 0 197 286t-197 285q-197 0 -197 -284q0 -137 46 -212t151 -75z" />
    <glyph glyph-name="oneinferior" unicode="&#x2081;" horiz-adv-x="921" 
d="M213 74q0 42 10 73h197v469l-191 -77q-45 45 -67 131l395 161h35v-684h190q18 -77 0 -145h-559q-10 30 -10 72z" />
    <glyph glyph-name="twoinferior" unicode="&#x2082;" horiz-adv-x="921" 
d="M782 77q0 -41 -4 -75h-633l-10 25q66 70 187 193q229 232 229 352q0 106 -170 106q-92 0 -174 -35q-30 80 -39 145q121 44 254 45t221 -65t88 -173t-47 -191t-139 -175l-80 -79h313q4 -32 4 -73z" />
    <glyph glyph-name="threeinferior" unicode="&#x2083;" horiz-adv-x="921" 
d="M600 260q0 72 -53 102t-112 31q-59 0 -89 -8l-22 25l178 272h-287q-6 37 -6 71t6 70h524l17 -30l-201 -291q100 -11 162 -80q61 -70 61 -146q0 -141 -103 -219t-249 -79q-147 -1 -266 34q8 77 41 140q116 -35 197 -35t142 36q60 35 60 107z" />
    <glyph glyph-name="fourinferior" unicode="&#x2084;" horiz-adv-x="921" 
d="M807 228q0 -44 -8 -68h-99v-158q-42 -6 -82 -6t-79 6v158h-426l-17 26l336 666q82 -10 150 -49l-244 -498h201v162q37 6 79 6t82 -6v-162h99q8 -33 8 -77z" />
    <glyph glyph-name="fiveinferior" unicode="&#x2085;" horiz-adv-x="921" 
d="M681 467q85 -68 85 -204t-107 -209q-107 -74 -290 -77h-21q-109 4 -209 37q9 90 43 144q98 -35 189 -35q215 0 217 149q0 49 -42 88t-134 39t-172 -24l-23 20l21 426h483q6 -21 6 -64t-8 -77h-328l-10 -154q27 7 74 9q141 0 226 -68z" />
    <glyph glyph-name="sixinferior" unicode="&#x2086;" horiz-adv-x="921" 
d="M637 270q-1 146 -159 146q-70 0 -110 -37q-42 -37 -42 -110t40 -113t110 -39q70 0 116 38q45 38 45 115zM645 852q17 -34 17 -78t-3 -59q-123 -11 -215 -73t-127 -177q35 33 85 59t152 27q102 0 180 -71t79 -208q0 -137 -99 -216t-249 -80q-150 -2 -239 90t-89 262
q0 215 133 362q134 147 375 162z" />
    <glyph glyph-name="seveninferior" unicode="&#x2087;" horiz-adv-x="921" 
d="M180 745q0 44 6 78h619l12 -18l-381 -821q-70 12 -160 63l299 633h-389q-6 21 -6 65z" />
    <glyph glyph-name="eightinferior" unicode="&#x2088;" horiz-adv-x="921" 
d="M608 623q0 39 -32 67t-97 29q-65 -1 -97 -29t-32 -74t41 -73t92 -43q125 37 125 123zM641 231q0 55 -50 93t-112 55q-158 -45 -160 -154q0 -47 41 -81t120 -34t120 34q41 32 41 87zM774 635q0 -122 -127 -191q75 -36 106 -75q62 -75 62 -147q0 -125 -104 -189
q-86 -53 -228 -53q-227 0 -311 125q-29 44 -29 119q1 75 53 133t115 87q-47 29 -87 77t-40 114q0 95 84 155t213 60t211 -62t82 -153z" />
    <glyph glyph-name="nineinferior" unicode="&#x2089;" horiz-adv-x="921" 
d="M297 553q-1 -145 155 -145q70 0 112 36t42 109q0 72 -40 113t-110 41t-115 -39q-44 -39 -44 -115zM287 -29q-17 33 -17 77t2 61q123 10 215 72t127 177q-35 -34 -85 -60q-49 -26 -151 -26t-180 71t-79 207q0 136 98 216q98 79 249 81q151 1 240 -90t89 -261
q0 -216 -132 -362q-133 -145 -376 -163z" />
    <glyph glyph-name="Euro" unicode="&#x20ac;" 
d="M839 1290q-317 0 -395 -334h523q8 -28 8 -68t-8 -73h-541q-4 -51 -4 -89v-59q0 -22 2 -42h543q8 -28 8 -68t-8 -74h-525q38 -167 140 -245t269 -78t292 55q41 -80 57 -170q-158 -68 -397 -69q-239 0 -391 132t-197 375h-166q-10 31 -10 69t10 73h150q-2 20 -2 42v96
q0 26 2 52h-150q-10 31 -10 69t10 72h170q47 242 198 379t408 138q190 0 351 -56q-6 -67 -50 -172q-122 45 -287 45z" />
    <glyph glyph-name="afii61289" unicode="&#x2113;" horiz-adv-x="937" 
d="M498 -16q-275 0 -287 309q-48 -29 -98 -68q-29 59 -66 125q73 52 158 117v438q0 425 169 506q56 27 130 27q116 0 184 -78t68 -250t-86 -345t-289 -359q0 -210 82 -246q27 -12 59 -13q110 0 219 138l101 -99q-58 -86 -146 -144t-198 -58zM496 1282q-115 0 -115 -321v-357
q100 115 156 248q55 133 55 256q0 174 -96 174z" />
    <glyph glyph-name="trademark" unicode="&#x2122;" horiz-adv-x="1691" 
d="M1589 629q-50 -8 -88 -8t-69 8l-31 522l-176 -367q-24 -6 -51 -6t-66 6l-162 361l-26 -516q-39 -8 -77 -8t-79 8l41 819q25 2 45 4t40 2t41 -2q22 -2 46 -4l203 -449l200 449q23 2 42 4q20 2 40 2t42 -2l44 -4zM359 621q-36 0 -74 8v669h-232q-6 37 -6 72t6 78h619
q8 -40 8 -76t-8 -74h-230v-669q-47 -8 -83 -8z" />
    <glyph glyph-name="uni2126" unicode="&#x2126;" horiz-adv-x="1495" 
d="M80 91q0 61 6 91h238q-86 104 -145 261q-58 157 -58 328q0 509 353 666q115 50 267 50q300 0 461 -189q160 -189 160 -516q0 -182 -58 -339t-145 -261h238q6 -30 6 -91t-6 -91h-545l-10 29q185 193 268 505q31 116 31 244q0 523 -400 525q-399 0 -399 -525
q0 -236 95 -437t204 -312l-10 -29h-545q-6 30 -6 91z" />
    <glyph glyph-name="estimated" unicode="&#x212e;" horiz-adv-x="1345" 
d="M305 563q0 -14 10 -14h717q12 0 12 14v268q0 97 -138 158q-114 53 -230 53q-201 0 -344 -141q-27 -38 -27 -70v-268zM688 0q-259 0 -432 157q-174 157 -174 379q0 221 175 378t422 157q248 0 418 -160q171 -160 171 -389h-951q-12 0 -12 -16v-264q0 -90 142 -156
q114 -53 229 -53q224 0 379 176h86q-78 -97 -198 -153t-255 -56z" />
    <glyph glyph-name="onethird" unicode="&#x2153;" horiz-adv-x="2211" 
d="M1522 1450q50 8 103 8t104 -8l-990 -1448q-59 -8 -109 -8t-98 8zM215 699q0 42 10 73h197v469l-191 -78q-44 44 -67 131l395 162h35v-684h190q18 -78 0 -145h-559q-10 30 -10 72zM1699 393q-58 0 -89 -8l-23 25l178 272h-286q-6 37 -6 71t6 70h524l16 -30l-200 -291
q100 -11 162 -80q61 -70 61 -146t-29 -130q-89 -166 -348 -169q-120 0 -242 35q8 71 41 140q116 -35 197 -35q82 0 142 36q61 35 61 107t-54 102t-111 31z" />
    <glyph glyph-name="twothirds" unicode="&#x2154;" horiz-adv-x="2211" 
d="M1528 1450q50 8 103 8t104 -8l-990 -1448q-59 -8 -109 -8t-97 8zM782 702q0 -40 -4 -75h-633l-10 24q66 70 186 193q230 234 230 353q0 106 -170 106q-87 0 -174 -35q-30 81 -39 145q123 45 255 45t220 -66t88 -188q0 -92 -47 -175t-139 -175l-80 -80h313q4 -32 4 -72z
M1890 260q0 72 -53 102t-112 31q-59 0 -89 -8l-22 25l178 272h-287q-6 37 -6 71t6 70h525l16 -30l-201 -291q103 -11 163 -80q60 -70 60 -146q0 -141 -103 -219t-249 -79q-147 -1 -266 34q8 77 41 140q224 -68 339 1q60 35 60 107z" />
    <glyph glyph-name="onefifth" unicode="&#x2155;" horiz-adv-x="2211" 
d="M1544 1450q50 8 104 8t103 -8l-989 -1448q-58 -8 -109 -8t-98 8zM213 699q0 42 10 73h197v469l-191 -78q-44 44 -67 131l395 162h35v-684h190q18 -78 0 -145h-559q-10 30 -10 72zM1969 467q85 -68 85 -203t-106 -210t-291 -77h-21q-109 4 -209 37q9 90 43 144
q98 -35 189 -35q217 0 217 149q0 49 -42 88t-134 39t-172 -24l-23 20l21 426h483q6 -21 6 -64t-8 -77h-328l-10 -154q27 7 74 9q141 0 226 -68z" />
    <glyph glyph-name="twofifths" unicode="&#x2156;" horiz-adv-x="2211" 
d="M1538 1450q50 8 104 8t103 -8l-989 -1448q-58 -8 -109 -8t-98 8zM791 695q0 -39 -5 -68h-632l-11 24q66 70 140 145q276 280 276 384q0 76 -49 100t-128 23q-79 0 -167 -35q-27 74 -39 145q123 45 255 45t220 -66t88 -188q0 -92 -47 -175t-139 -175l-80 -80h313
q5 -40 5 -79zM1967 467q85 -68 85 -204t-107 -209q-107 -74 -290 -77h-21q-109 4 -209 37q9 90 43 144q98 -35 189 -35q217 0 217 149q0 49 -42 88t-134 39t-172 -24l-23 20l21 426h483q6 -21 6 -64t-8 -77h-328l-10 -154q27 7 74 9q141 0 226 -68z" />
    <glyph glyph-name="threefifths" unicode="&#x2157;" horiz-adv-x="2211" 
d="M1495 1450q50 8 104 8t103 -8l-989 -1448q-58 -8 -109 -8t-98 8zM1961 467q85 -68 85 -204t-107 -209q-107 -74 -290 -77h-21q-109 4 -209 37q9 90 43 144q98 -35 189 -35q215 0 217 149q0 49 -42 88t-134 39t-172 -24l-23 20l21 426h483q6 -21 6 -64t-8 -77h-328
l-10 -154q27 7 74 9q141 0 226 -68zM606 885q0 73 -53 103t-112 30t-89 -8l-22 24l178 273h-287q-6 37 -6 71t6 70h524l17 -31l-201 -291q102 -11 163 -80q60 -69 60 -145q0 -141 -103 -219t-273 -80q-104 0 -156 12t-86 23q8 78 41 139q223 -67 339 1q60 36 60 108z" />
    <glyph glyph-name="fourfifths" unicode="&#x2158;" horiz-adv-x="2211" 
d="M1548 1450q50 8 105 8q54 0 102 -8l-989 -1448q-58 -8 -108 -8t-99 8zM1988 467q86 -68 85 -204q0 -136 -107 -209q-107 -74 -291 -77h-20q-109 4 -209 37q10 93 43 144q98 -35 188 -35q217 0 217 149q0 49 -42 88t-134 39t-172 -24l-22 20l20 426h484q6 -21 6 -66
t-9 -75h-327l-10 -154q27 7 73 9q141 0 227 -68zM825 854q0 -44 -8 -70h-98v-157q-41 -6 -82 -6t-80 6v157h-426l-16 27l336 666q82 -10 149 -50l-244 -497h201v162q37 6 79 6t83 -6v-162h98q8 -32 8 -76z" />
    <glyph glyph-name="onesixth" unicode="&#x2159;" horiz-adv-x="2211" 
d="M1538 1450q50 8 104 8t103 -8l-989 -1448q-58 -8 -109 -8t-98 8zM201 699q0 42 10 73h197v469l-191 -78q-44 44 -67 131l395 162h35v-684h190q8 -35 8 -73t-8 -72h-559q-10 30 -10 72zM1880 270q0 146 -158 146q-70 0 -111 -37q-42 -37 -42 -110t40 -113q41 -40 111 -39
q70 0 115 38t45 115zM1888 852q17 -34 17 -78t-2 -59q-123 -11 -215 -73t-127 -177q35 33 85 59t152 27q102 0 180 -71t78 -209t-99 -216t-249 -79q-150 -2 -239 90t-89 262q0 215 133 362q134 147 375 162z" />
    <glyph glyph-name="fivesixths" unicode="&#x215a;" horiz-adv-x="2211" 
d="M1499 1450q50 8 104 8t103 -8l-989 -1448q-58 -8 -109 -8t-98 8zM1888 270q0 146 -158 146q-70 0 -111 -37q-42 -37 -42 -110t40 -113t111 -39q72 0 116 38t44 115zM1896 852q17 -34 17 -78t-2 -59q-123 -11 -215 -73t-127 -177q35 33 85 59t152 27q102 0 180 -71
t78 -209t-99 -216t-249 -79q-150 -2 -238 90t-89 262q0 217 134 363q133 146 373 161zM457 1159q141 1 226 -67t85 -204t-107 -209q-107 -74 -290 -77h-21q-109 4 -209 37q9 91 43 143q98 -34 194 -34q210 1 212 149q0 49 -42 88t-135 39t-171 -25l-23 21l21 426h483
q6 -21 6 -65t-8 -76h-328l-10 -154q32 8 74 8z" />
    <glyph glyph-name="oneeighth" unicode="&#x215b;" horiz-adv-x="2211" 
d="M1528 1450q50 8 103 8t104 -8l-990 -1448q-59 -8 -109 -8t-97 8zM203 699q0 42 10 73h197v469l-191 -78q-44 44 -67 131l395 162h35v-684h190q8 -35 8 -73t-8 -72h-559q-10 30 -10 72zM1732 719q-66 -1 -96 -29q-32 -28 -32 -74t41 -73t92 -43q122 37 125 123
q0 39 -32 67t-98 29zM1894 231q0 55 -50 93t-111 55q-63 -18 -111 -54q-48 -35 -49 -91q0 -56 41 -90t120 -34q80 0 120 34q40 32 40 87zM2028 635q0 -122 -127 -191q73 -35 105 -74q62 -75 62 -148q0 -127 -104 -189q-86 -53 -227 -53q-228 0 -312 125q-29 44 -29 119
t53 133q52 58 116 87q-47 29 -87 77t-40 114q0 95 84 155t212 60t211 -62t83 -153z" />
    <glyph glyph-name="threeeighths" unicode="&#x215c;" horiz-adv-x="2211" 
d="M1479 1450q50 8 104 8q53 0 103 -8l-990 -1448q-58 -8 -108 -8t-99 8zM1853 623q1 39 -31 67t-98 29q-66 -1 -97 -29q-32 -28 -32 -74t41 -73t93 -43q124 37 124 123zM1886 231q0 55 -50 93t-112 55q-63 -18 -111 -54q-48 -35 -48 -91t41 -90t120 -34q80 0 120 34
q40 32 40 87zM2019 635q0 -122 -127 -191q75 -36 106 -75q62 -75 62 -147q0 -127 -104 -189q-86 -53 -227 -53q-228 0 -312 125q-29 44 -29 119t53 133q52 58 115 87q-47 29 -87 77t-39 114q0 94 83 155q84 60 213 60t211 -62t82 -153zM598 885q0 73 -53 103t-112 30t-89 -8
l-22 24l178 273h-287q-6 37 -6 71t6 70h524l17 -31l-201 -291q102 -11 163 -80q60 -69 60 -145q0 -141 -103 -219t-274 -80q-106 0 -156 12q-51 12 -85 23q8 78 41 139q223 -67 339 1q60 36 60 108z" />
    <glyph glyph-name="fiveeighths" unicode="&#x215d;" horiz-adv-x="2211" 
d="M1479 1450q50 8 104 8q53 0 103 -8l-990 -1448q-58 -8 -108 -8t-99 8zM455 1159q141 1 226 -67t85 -204t-107 -209q-107 -74 -290 -77h-21q-109 4 -209 37q9 91 43 143q98 -34 194 -34q210 1 212 149q0 49 -42 88t-135 39t-171 -25l-23 21l21 426h483q6 -21 6 -65t-8 -76
h-328l-10 -154q32 8 74 8zM1732 719q-66 -1 -96 -29q-32 -28 -32 -74t41 -73t92 -43q122 37 125 123q0 39 -32 67t-98 29zM1894 231q0 55 -50 93t-111 55q-63 -18 -111 -54q-48 -35 -49 -91q0 -56 41 -90t120 -34q80 0 120 34q40 32 40 87zM2028 635q0 -122 -127 -191
q73 -35 105 -74q62 -75 62 -148q0 -127 -104 -189q-86 -53 -227 -53q-228 0 -312 125q-29 44 -29 119t53 133q52 58 116 87q-47 29 -87 77t-40 114q0 95 84 155t212 60t211 -62t83 -153z" />
    <glyph glyph-name="seveneighths" unicode="&#x215e;" horiz-adv-x="2211" 
d="M1401 1450q49 8 103 8q53 0 104 -8l-990 -1448q-58 -8 -108 -8t-98 8zM1827 623q0 39 -32 67q-31 28 -97 29q-66 -1 -98 -29t-31 -74q0 -46 41 -73t92 -43q125 37 125 123zM1860 231q0 55 -50 93t-112 55q-64 -18 -112 -54q-48 -35 -48 -91t41 -90t120 -34t120 34
q41 32 41 87zM1993 635q0 -122 -127 -191q73 -35 105 -74q61 -74 62 -148q2 -126 -104 -189q-86 -53 -227 -53q-230 0 -311 125q-29 44 -29 119t52 133t116 87q-47 29 -87 77t-40 114q0 95 84 155t213 60t211 -62t82 -153zM180 1370q0 44 6 78h619l12 -18l-381 -822
q-67 12 -160 64l299 633h-389q-6 21 -6 65z" />
    <glyph glyph-name="partialdiff" unicode="&#x2202;" horiz-adv-x="1247" 
d="M634 780q-156 0 -230 -92t-74 -242t78 -222t187 -72q197 0 276 154q69 133 69 399q-150 75 -306 75zM1149 721q0 -360 -133 -553t-426 -193q-194 0 -321 101q-154 123 -154 372t155 388q140 122 335 121t323 -66q-29 271 -214 369q-69 35 -167 34q-147 0 -283 -69
q-50 104 -53 157q145 90 333 90t298 -58q307 -164 307 -693z" />
    <glyph glyph-name="Delta" unicode="&#x2206;" horiz-adv-x="1234" 
d="M942 182l-330 1049l-325 -1049h655zM500 1448q54 8 119 8t120 -8l480 -1448h-1199z" />
    <glyph glyph-name="product" unicode="&#x220f;" horiz-adv-x="1536" 
d="M1485 1357q0 -51 -8 -91h-234v-1635q-47 -6 -103 -6t-106 6v1635h-530v-1635q-48 -6 -106 -6t-103 6v1635h-236q-8 40 -8 91t8 91h1418q8 -40 8 -91z" />
    <glyph glyph-name="summation" unicode="&#x2211;" horiz-adv-x="1130" 
d="M1059 1355q0 -53 -8 -89h-664l361 -699l-396 -753h703q8 -40 8 -94t-8 -89h-1000l-12 19l475 921l-442 859l12 18h963q8 -40 8 -93z" />
    <glyph glyph-name="minus" unicode="&#x2212;" 
d="M1057 720q0 -55 -8 -91h-869q-6 27 -6 91t6 95h869q8 -40 8 -95z" />
    <glyph glyph-name="uni2215" unicode="&#x2215;" horiz-adv-x="839" 
d="M569 1473q51 8 99 8q49 0 100 -8l-500 -1473q-50 -8 -99 -8t-97 8z" />
    <glyph glyph-name="uni2219" unicode="&#x2219;" horiz-adv-x="493" 
d="M135 453q-8 59 -8 113t8 110q59 8 113 8t110 -8q9 -65 9 -119t-9 -104q-66 -9 -112 -9t-111 9z" />
    <glyph glyph-name="radical" unicode="&#x221a;" 
d="M100 762q0 51 9 84h327l215 -637l406 1235q37 6 109 6q71 0 104 -6l-516 -1444q-58 -8 -110 -8t-107 8l-254 666h-174q-9 45 -9 96z" />
    <glyph glyph-name="infinity" unicode="&#x221e;" horiz-adv-x="1622" 
d="M100 553q0 160 99 265q99 106 243 106q178 0 367 -240q106 135 193 186q88 52 166 52q149 1 247 -104q98 -104 97 -264t-100 -265t-243 -105q-180 0 -366 242q-107 -139 -195 -189q-88 -51 -165 -51q-148 -1 -245 103q-98 104 -98 264zM1333 554q0 87 -47 139t-116 52
t-105 -26q-68 -48 -154 -168q127 -167 204 -185q26 -7 50 -8q74 0 121 54t47 142zM279 554q0 -87 47 -139q47 -53 114 -53t117 35q51 35 141 160q-128 167 -201 185q-26 7 -51 8q-74 0 -120 -54t-47 -142z" />
    <glyph glyph-name="integral" unicode="&#x222b;" horiz-adv-x="755" 
d="M63 -496q-72 0 -145 21q7 91 31 166q190 -38 262 29q56 54 49 188l-59 1169q-10 201 92 298t289 98q98 0 163 -19q-8 -98 -32 -166q-256 57 -302 -100q-13 -45 -10 -117l62 -1169q12 -202 -98 -300q-109 -98 -302 -98z" />
    <glyph glyph-name="approxequal" unicode="&#x2248;" 
d="M420 668q63 0 109 -14t129 -40q83 -28 136 -28q52 0 94 14t93 62q59 -59 86 -142q-110 -110 -262 -108q-70 0 -185 40t-178 42q-101 0 -188 -80q-63 57 -88 131q41 51 116 87t138 36zM438 856q-103 0 -188 -80q-63 57 -88 131q41 49 116 86t147 37t188 -40
q115 -40 199 -41t163 75q60 -56 88 -141q-109 -109 -262 -109q-65 0 -149 28q-83 28 -128 40q-45 14 -86 14z" />
    <glyph glyph-name="notequal" unicode="&#x2260;" 
d="M174 908q0 64 6 96h496l127 266q40 8 73 8q34 0 72 -8l-127 -266h228q8 -40 8 -96t-8 -91h-314l-102 -211h416q8 -36 8 -92t-8 -92h-502l-123 -258q-35 -6 -70 -6t-73 6l122 258h-223q-6 27 -6 92t6 92h309l101 211h-410q-6 27 -6 91z" />
    <glyph glyph-name="lessequal" unicode="&#x2264;" 
d="M1034 1208q10 -58 10 -106t-8 -88l-671 -260l671 -250q8 -46 8 -106t-10 -99l-852 346q-12 51 -12 109t12 108zM1057 93q0 -55 -8 -91h-869q-6 28 -6 92t6 94h869q8 -40 8 -95z" />
    <glyph glyph-name="greaterequal" unicode="&#x2265;" 
d="M1057 93q0 -55 -8 -91h-869q-6 28 -6 92t6 94h869q8 -40 8 -95zM178 299q-8 57 -8 105t8 90l670 260l-670 250q-10 38 -10 94q0 55 10 110l854 -346q4 -28 8 -54t4 -70t-12 -93z" />
    <glyph glyph-name="lozenge" unicode="&#x25ca;" horiz-adv-x="1103" 
d="M453 1481q50 8 101 8t99 -8l389 -740l-391 -741q-50 -8 -101 -8t-99 8l-390 741zM834 741l-279 553l-283 -553l281 -553z" />
    <glyph glyph-name="oneseventh" unicode="&#xf506;" horiz-adv-x="2211" 
d="M1491 1450q50 8 104 8q55 0 103 -8l-989 -1448q-58 -8 -109 -8t-98 8zM397 772v469l-190 -78q-42 42 -68 131l396 162h34v-684h191q8 -35 8 -73t-8 -72h-559q-24 71 0 145h196zM1450 745q0 44 6 78h619l12 -18l-381 -821q-70 12 -160 63l299 633h-389q-6 21 -6 65z" />
    <glyph glyph-name="twosevenths" unicode="&#xf507;" horiz-adv-x="2211" 
d="M1518 1450q50 8 104 8t102 -8l-989 -1448q-59 -8 -109 -8t-98 8zM778 702q0 -40 -4 -75h-633l-10 24q66 70 186 193q230 234 230 353q0 106 -170 106q-89 0 -174 -35q-30 81 -39 145q123 45 255 45t220 -65q88 -66 88 -189q0 -92 -47 -175t-139 -175l-80 -80h313
q4 -32 4 -72zM1458 745q0 44 6 78h619l12 -18l-381 -821q-70 12 -160 63l299 633h-389q-6 21 -6 65z" />
    <glyph glyph-name="threesevenths" unicode="&#xf508;" horiz-adv-x="2211" 
d="M1464 1450q50 8 104 8t103 -8l-989 -1448q-58 -8 -108 -8t-99 8zM1442 745q0 44 6 78h618l13 -18l-381 -821q-70 12 -160 63l299 633h-389q-6 21 -6 65zM423 1018q-59 0 -89 -8l-23 24l178 273h-286q-6 37 -6 71t6 70h524l16 -31l-200 -291q102 -11 163 -80
q60 -69 60 -145t-29 -130q-89 -166 -348 -169q-106 0 -156 12q-51 12 -86 23q8 73 41 139q224 -68 339 1q61 36 61 108q0 73 -53 103t-112 30z" />
    <glyph glyph-name="foursevenths" unicode="&#xf509;" horiz-adv-x="2211" 
d="M1499 1450q50 8 104 8t103 -8l-989 -1448q-58 -8 -109 -8t-98 8zM807 854q0 -44 -8 -70h-99v-157q-42 -6 -82 -6t-79 6v157h-426l-17 27l336 666q82 -10 150 -50l-244 -497h201v162q37 6 79 6t82 -6v-162h99q8 -32 8 -76zM1464 745q0 44 6 78h619l12 -18l-381 -821
q-72 13 -159 63l299 633h-390q-6 21 -6 65z" />
    <glyph glyph-name="fivesevenths" unicode="&#xf50a;" horiz-adv-x="2211" 
d="M1460 1450q50 8 104 8t103 -8l-989 -1448q-58 -8 -109 -8t-98 8zM471 1159q141 1 226 -67t85 -204t-106 -210t-291 -76h-20q-109 4 -209 37q10 94 43 143q98 -34 194 -34q211 1 211 149q0 49 -42 88t-135 39t-171 -25l-23 21l21 426h483q6 -21 6 -65t-8 -76h-327
l-11 -154q32 8 74 8zM1450 745q0 44 6 78h619l12 -18l-381 -821q-70 12 -160 63l299 633h-389q-6 21 -6 65z" />
    <glyph glyph-name="sixsevenths" unicode="&#xf50b;" horiz-adv-x="2211" 
d="M1477 1450q50 8 104 8t102 -8l-989 -1448q-58 -8 -108 -8t-99 8zM631 895q-1 145 -159 145q-70 0 -111 -36q-42 -36 -42 -110q0 -73 40 -113t111 -40t116 38t45 116zM639 1477q16 -31 16 -77t-2 -61q-123 -10 -215 -72t-127 -177q35 34 85 60t152 26t180 -71
q79 -71 79 -209t-99 -216t-249 -79t-239 90t-89 261q0 216 133 362q132 146 375 163zM1452 745q0 44 6 78h619l12 -18l-381 -821q-70 12 -160 63l299 633h-389q-6 21 -6 65z" />
    <glyph glyph-name="oneninth" unicode="&#xf50c;" horiz-adv-x="2211" 
d="M1501 1450q50 8 104 8t103 -8l-989 -1448q-58 -8 -109 -8t-98 8zM193 699q0 42 10 73h196v469l-190 -78q-42 42 -68 131l396 162h34v-684h191q8 -35 8 -73t-8 -72h-559q-10 30 -10 72zM1548 553q0 -145 156 -145q70 0 112 36t42 109q0 72 -40 113t-111 41t-115 -39
t-44 -115zM1538 -29q-16 33 -16 77t2 61q123 10 215 72t127 177q-35 -34 -85 -60q-49 -26 -151 -26t-181 71t-79 207t99 216t249 81t239 -90t89 -261q0 -216 -132 -362q-133 -145 -376 -163z" />
    <glyph glyph-name="twoninths" unicode="&#xf50d;" horiz-adv-x="2211" 
d="M1528 1450q50 8 103 8t104 -8l-990 -1448q-59 -8 -109 -8t-97 8zM782 702q0 -40 -4 -75h-633l-10 24q66 70 186 193q230 234 230 353q0 106 -170 106q-87 0 -174 -35q-30 81 -39 145q123 45 255 45t220 -66t88 -188q0 -92 -47 -175t-139 -175l-80 -80h313q4 -32 4 -72z
M1569 553q-1 -145 155 -145q70 0 112 36t42 109q0 72 -40 113t-111 41t-115 -39t-43 -115zM1559 -29q-17 33 -17 77t2 61q123 10 215 72t127 177q-35 -34 -85 -60q-49 -26 -151 -26t-181 71t-79 207t99 216q98 79 249 81q152 1 240 -90t88 -261q0 -218 -132 -363
q-133 -145 -375 -162z" />
    <glyph glyph-name="fourninths" unicode="&#xf50e;" horiz-adv-x="2211" 
d="M1522 1450q50 8 103 8t104 -8l-990 -1448q-59 -8 -109 -8t-98 8zM811 854q0 -44 -8 -70h-98v-157q-41 -6 -82 -6t-80 6v157h-426l-17 27l336 666q82 -10 150 -50l-244 -497h201v162q37 6 79 6t83 -6v-162h98q8 -32 8 -76zM1581 553q1 -145 157 -145q70 0 110 36
q42 36 42 109q0 72 -40 113t-110 41t-115 -39q-44 -39 -44 -115zM1571 -29q-17 33 -17 77t2 61q123 10 216 72q92 62 126 177q-34 -34 -84 -60t-152 -26t-180 71t-79 207q0 136 98 215q98 80 249 82q151 1 240 -90t89 -261q0 -216 -132 -362q-133 -145 -376 -163z" />
    <glyph glyph-name="fiveninths" unicode="&#xf50f;" horiz-adv-x="2211" 
d="M1477 1450q50 8 104 8t102 -8l-989 -1448q-58 -8 -108 -8t-99 8zM459 1159q141 1 226 -67t85 -204t-107 -209q-107 -74 -290 -77h-21q-109 4 -209 37q9 91 43 143q98 -34 194 -34q212 1 212 149q0 49 -42 88t-135 39t-171 -25l-23 21l21 426h483q6 -21 6 -65t-8 -76h-328
l-10 -154q32 8 74 8zM1550 553q0 -145 156 -145q70 0 112 36t42 109q0 72 -40 113t-111 41t-115 -39t-44 -115zM1540 -29q-16 33 -16 77t2 61q123 10 215 72t127 177q-35 -34 -85 -60q-49 -26 -151 -26t-181 71t-79 207t99 216t249 81t239 -90t89 -261q0 -216 -132 -362
q-133 -145 -376 -163z" />
    <glyph glyph-name="sevenninths" unicode="&#xf510;" horiz-adv-x="2211" 
d="M1395 1450q49 8 103 8q53 0 104 -8l-990 -1448q-58 -8 -108 -8t-98 8zM1520 553q0 -145 156 -145q70 0 111 36q42 36 42 109q0 72 -40 113t-111 41q-70 0 -114 -39t-44 -115zM1509 -29q-16 33 -16 77t2 61q123 10 215 72t127 177q-35 -34 -85 -60t-152 -26t-180 71
q-79 71 -79 207t99 216t249 81t239 -90t89 -261q0 -218 -132 -363q-133 -145 -376 -162zM176 1370q0 44 6 78h619l12 -18l-381 -822q-67 12 -160 64l299 633h-389q-6 21 -6 65z" />
    <glyph glyph-name="eightninths" unicode="&#xf511;" horiz-adv-x="2211" 
d="M1499 1450q50 8 104 8t103 -8l-989 -1448q-58 -8 -109 -8t-98 8zM1565 553q-1 -145 155 -145q70 0 112 36t42 109q0 72 -40 113t-111 41t-115 -39t-43 -115zM1554 -29q-16 33 -16 77t2 61q123 10 215 72t127 177q-35 -34 -85 -60q-49 -26 -151 -26t-181 71t-79 207
t99 216t249 81t239 -90t89 -261q0 -218 -132 -363q-133 -145 -376 -162zM608 1247q0 39 -31 68q-32 29 -98 29q-65 0 -97 -30q-32 -28 -32 -74t41 -73t92 -43q125 37 125 123zM480 735q79 0 120 33t41 88t-50 92t-112 56q-158 -45 -160 -154q0 -47 41 -81t120 -34zM774 1260
q0 -122 -127 -191q168 -81 168 -229q0 -117 -95 -177q-95 -59 -237 -59q-228 0 -311 126q-29 44 -29 119q1 75 53 133t115 87q-47 29 -87 77t-40 114q0 94 84 154t211 60t211 -61q84 -62 84 -153z" />
    <glyph glyph-name="a.smcp" unicode="&#xf605;" horiz-adv-x="1073" 
d="M713 395l-183 557l-180 -557h363zM1057 0q-33 -8 -99 -8q-67 0 -118 8l-78 233h-461l-74 -233q-55 -8 -109 -8t-104 8l406 1122q58 8 121 8t112 -8z" />
    <glyph glyph-name="b.smcp" unicode="&#xf606;" horiz-adv-x="1069" 
d="M475 991q-77 0 -104 -6v-321h133q109 0 165 46t56 124q0 157 -250 157zM516 141q266 0 266 181q0 96 -73 141q-74 45 -197 45h-141v-358q61 -9 145 -9zM436 1141q243 0 364 -74q120 -74 120 -213q0 -106 -60 -175t-141 -87q176 -22 245 -165q24 -50 24 -129
q-1 -157 -129 -238q-128 -80 -351 -80q-90 0 -148 4l-103 7q-44 3 -83 9v1122q125 19 262 19z" />
    <glyph glyph-name="c.smcp" unicode="&#xf607;" horiz-adv-x="1038" 
d="M675 975q-264 0 -330 -250q-19 -76 -19 -162q0 -188 89 -300t263 -111q121 0 225 45q44 -91 51 -160q-127 -57 -283 -57q-280 0 -421 161t-140 421q1 259 145 422t396 163q161 0 285 -51q-7 -65 -47 -160q-115 39 -214 39z" />
    <glyph glyph-name="d.smcp" unicode="&#xf608;" horiz-adv-x="1216" 
d="M510 152q273 0 359 226q30 79 30 185t-30 181q-89 223 -367 223q-80 0 -127 -9v-796q57 -10 135 -10zM494 1141q302 0 458 -155t156 -424t-158 -426t-469 -156q-189 0 -307 20v1122q31 2 71 6q130 13 249 13z" />
    <glyph glyph-name="e.smcp" unicode="&#xf609;" horiz-adv-x="1001" 
d="M915 86q0 -46 -8 -86h-733v1122h721q8 -46 8 -88t-8 -86h-522v-274h426q8 -41 8 -88t-8 -86h-426v-328h534q8 -40 8 -86z" />
    <glyph glyph-name="f.smcp" unicode="&#xf60a;" horiz-adv-x="968" 
d="M276 -8q-49 0 -102 8v1122h719q6 -43 6 -87t-6 -87h-518v-309h422q8 -46 8 -88t-8 -86h-422v-465q-49 -8 -99 -8z" />
    <glyph glyph-name="g.smcp" unicode="&#xf60b;" horiz-adv-x="1148" 
d="M106 554q0 263 153 428t411 165q166 0 297 -51q-7 -64 -47 -158q-123 37 -224 37q-189 -1 -284 -115t-95 -306q-1 -192 97 -296t280 -104q84 0 133 14v407q109 13 199 0v-536q-139 -59 -308 -59q-170 0 -276 36q-216 74 -296 294q-40 110 -40 244z" />
    <glyph glyph-name="h.smcp" unicode="&#xf60c;" horiz-adv-x="1255" 
d="M277 1130q54 0 98 -8v-458h506v458q46 8 101 8t99 -8v-1122q-46 -8 -99 -8t-101 8v487h-506v-487q-45 -8 -101 -8q-55 0 -100 8v1122q49 8 103 8z" />
    <glyph glyph-name="i.smcp" unicode="&#xf60d;" horiz-adv-x="548" 
d="M277 1130q54 0 98 -8v-1122q-45 -8 -101 -8q-55 0 -100 8v1122q49 8 103 8z" />
    <glyph glyph-name="j.smcp" unicode="&#xf60e;" horiz-adv-x="757" 
d="M100 166q54 -14 129 -14q76 0 109 26q61 48 61 160v612h-243q-6 37 -6 85t6 85h440v-751q0 -207 -92 -298t-264 -91q-89 0 -166 22q0 88 26 164z" />
    <glyph glyph-name="k.smcp" unicode="&#xf60f;" horiz-adv-x="1122" 
d="M275 1130q52 0 100 -8v-1122q-49 -8 -101 -8t-100 8v1122q49 8 101 8zM1096 0q-58 -8 -124 -8t-108 8l-438 571l403 551q62 8 99 8q36 0 66 -3t61 -5l-404 -536z" />
    <glyph glyph-name="l.smcp" unicode="&#xf610;" horiz-adv-x="901" 
d="M275 1130q54 0 98 -8v-948h491q6 -47 6 -88t-6 -86h-690v1122q47 8 101 8z" />
    <glyph glyph-name="m.smcp" unicode="&#xf611;" horiz-adv-x="1468" 
d="M220 -8q-47 0 -87 8l53 1122q54 8 110 8t110 -8l317 -714l326 714q41 8 103 8q63 0 108 -8l59 -1122q-51 -8 -101 -8t-90 8l-41 829l-290 -618q-39 -8 -85 -8t-81 8l-281 623l-37 -834q-46 -8 -93 -8z" />
    <glyph glyph-name="n.smcp" unicode="&#xf612;" horiz-adv-x="1263" 
d="M268 1128q47 0 88 -8l551 -809v809q40 8 98 8t82 -8v-1120q-36 -8 -86 -8t-92 8l-553 803v-803q-46 -8 -94 -8t-88 8v1120q47 8 94 8z" />
    <glyph glyph-name="o.smcp" unicode="&#xf613;" horiz-adv-x="1236" 
d="M618 145q141 0 222 110q80 111 80 307t-80 304t-222 107q-142 0 -222 -108q-81 -109 -81 -305t81 -306t222 -109zM617 -25q-237 0 -374 163q-137 162 -137 422q0 259 138 423t376 164t375 -166t136 -422q-1 -257 -139 -420q-138 -164 -375 -164z" />
    <glyph glyph-name="p.smcp" unicode="&#xf614;" horiz-adv-x="1052" 
d="M473 506q293 0 293 232q0 122 -71 178t-203 57q-74 0 -117 -6v-455q51 -6 98 -6zM461 1143q366 0 472 -207q38 -74 38 -182t-40 -187q-78 -152 -263 -205q-88 -24 -150 -24h-90t-53 4v-342q-47 -8 -100 -8t-101 8v1122q165 21 287 21z" />
    <glyph glyph-name="q.smcp" unicode="&#xf615;" horiz-adv-x="1251" 
d="M625 145q141 0 222 110q81 111 81 307t-81 304t-222 107q-141 0 -221 -108q-80 -109 -80 -305t80 -306t221 -109zM625 -25q-121 0 -215 44q-191 89 -260 307q-35 106 -35 233q0 259 137 423t375 165q237 0 373 -165q137 -166 137 -422q0 -257 -138 -421t-374 -164z
M1194 -111q-4 -102 -29 -163l-401 73q6 90 35 160z" />
    <glyph glyph-name="r.smcp" unicode="&#xf616;" horiz-adv-x="1079" 
d="M455 1143q355 0 458 -192q37 -67 37 -147q0 -137 -63 -213q-63 -77 -154 -124q-6 -4 -12 -6t-12 -6l333 -455q-25 -4 -69 -4h-87q-43 0 -69 4l-368 500v8q125 41 183 81t87 83t29 104q0 94 -72 148t-191 53q-56 0 -112 -8v-969q-47 -6 -97 -6t-102 6v1122q159 21 281 21z
" />
    <glyph glyph-name="s.smcp" unicode="&#xf617;" horiz-adv-x="956" 
d="M538 983q-216 0 -216 -137q0 -63 38 -92t103 -54l145 -57q121 -46 170 -94q50 -49 70 -98t20 -122q0 -158 -121 -255t-312 -97t-345 62q7 75 45 166q149 -58 283 -59q133 -2 189 46q57 48 57 118t-41 107q-41 38 -113 64l-117 43q-143 52 -209 119q-65 66 -65 194
t104 218t284 90t318 -60q-9 -84 -43 -159q-126 57 -244 57z" />
    <glyph glyph-name="t.smcp" unicode="&#xf618;" horiz-adv-x="976" 
d="M25 1032q0 46 8 88h911q6 -41 6 -86t-6 -84h-356v-950h-49q-6 -2 -30 -2h-59q-35 0 -63 2v950h-354q-8 36 -8 82z" />
    <glyph glyph-name="u.smcp" unicode="&#xf619;" horiz-adv-x="1216" 
d="M971 1128q47 0 96 -6v-594q0 -404 -247 -511q-87 -37 -212 -37q-241 1 -351 142q-109 141 -107 406v594q51 6 101 6t99 -6v-553q0 -217 58 -316t201 -99q142 0 200 99q57 99 57 316v551q58 8 105 8z" />
    <glyph glyph-name="v.smcp" unicode="&#xf61a;" horiz-adv-x="1122" 
d="M41 1120q72 10 125 10q52 0 92 -10l309 -927l301 929q50 8 108 8t105 -10l-411 -1120q-54 -8 -111 -8t-115 8z" />
    <glyph glyph-name="w.smcp" unicode="&#xf61b;" horiz-adv-x="1640" 
d="M180 1128q40 0 82 -8l213 -907l250 907q58 8 105 8t96 -8l252 -921l217 921q39 8 92 8t102 -8l-309 -1120q-46 -8 -108 -8t-117 8l-238 846l-246 -846l-116 -8q-57 0 -101 8l-303 1120q4 1 70 8h59z" />
    <glyph glyph-name="x.smcp" unicode="&#xf61c;" horiz-adv-x="1093" 
d="M900 1128q54 0 108 -6l-252 -530l299 -594q-59 -6 -115 -6t-102 8l-281 582l227 538q62 8 116 8zM86 1122q51 6 108 6t117 -8l228 -538l-279 -582q-102 -14 -219 -2l299 588z" />
    <glyph glyph-name="y.smcp" unicode="&#xf61d;" horiz-adv-x="1036" 
d="M29 1122q46 8 111 8q66 0 110 -8l278 -549l271 549q36 8 100 8t109 -8l-387 -727v-395q-47 -8 -100 -8t-101 8v395z" />
    <glyph glyph-name="z.smcp" unicode="&#xf61e;" horiz-adv-x="980" 
d="M111 1036q0 46 8 86h811l10 -18l-584 -932h547q6 -43 6 -88t-6 -84h-842l-14 18l582 932h-510q-8 40 -8 86z" />
    <glyph glyph-name="ae.smcp" unicode="&#xf61f;" horiz-adv-x="1654" 
d="M827 395v555h-20l-340 -555h360zM827 233h-456l-142 -233q-50 -8 -101 -8t-114 10l699 1120h835q8 -39 8 -87t-8 -87h-520v-274h426q6 -47 6 -89t-6 -85h-426v-328h535q6 -43 6 -88t-6 -84h-736v233z" />
    <glyph glyph-name="eng.smcp" unicode="&#xf620;" horiz-adv-x="1263" 
d="M268 1128q47 0 88 -8l551 -809v809q40 8 98 8t82 -8v-1100q0 -180 -36 -240q-90 -150 -295 -153q-93 0 -162 23q-2 6 -2 44t26 107q47 -14 122 -14t114 32q53 40 53 144v43l-551 797v-803q-46 -8 -94 -8t-88 8v1120q47 8 94 8z" />
    <glyph glyph-name="oe.smcp" unicode="&#xf621;" horiz-adv-x="1607" 
d="M315 560q1 -196 81 -306t227 -109q110 0 168 23v780q-62 25 -168 25q-145 0 -227 -108q-82 -109 -81 -305zM609 -25q-112 0 -207 44q-189 88 -261 307q-35 106 -35 233q0 260 138 424t374 164q110 0 203 -25h690q13 -94 0 -174h-522v-274h426q8 -46 8 -88t-8 -86h-426
v-328h535q8 -46 8 -89t-8 -83h-705q-98 -25 -210 -25z" />
    <glyph glyph-name="eth.smcp" unicode="&#xf622;" horiz-adv-x="1241" 
d="M399 651h240q8 -31 8 -77t-8 -78h-240v-336q49 -8 131 -8q180 0 288 102t108 305t-109 306q-109 102 -283 102q-82 0 -135 -9v-307zM51 574q0 46 8 77h142v469q163 21 317 21q300 0 457 -155q158 -155 158 -427q0 -271 -157 -425t-468 -154q-160 0 -307 20v496h-142
q-8 32 -8 78z" />
    <glyph glyph-name="hbar.smcp" unicode="&#xf623;" horiz-adv-x="1296" 
d="M901 664v147h-506v-147h506zM294 -8q-55 0 -99 8v811h-138q-8 29 -8 71t8 74h138v166q50 8 103 8t97 -8v-166h506v166q46 8 101 8q56 0 100 -8v-166h137q8 -32 8 -74t-8 -71h-137v-811q-46 -8 -100 -8t-101 8v487h-506v-487q-46 -8 -101 -8z" />
    <glyph glyph-name="ij.smcp" unicode="&#xf624;" horiz-adv-x="1284" 
d="M277 1130q54 0 98 -8v-1122q-45 -8 -101 -8q-55 0 -100 8v1122q49 8 103 8zM621 166q54 -14 129 -14t108 26q60 47 62 160v612h-244q-6 37 -6 85t6 85h440v-751q0 -207 -92 -298t-264 -91q-89 0 -166 22q0 89 27 164z" />
    <glyph glyph-name="idotaccent.smcp" unicode="&#xf625;" horiz-adv-x="548" 
d="M277 1130q54 0 98 -8v-1122q-45 -8 -101 -8q-55 0 -100 8v1122q49 8 103 8zM168 1274q-8 47 -8 103t8 108q48 10 112 10t111 -10q8 -47 8 -103t-8 -108q-48 -10 -112 -10q-63 0 -111 10z" />
    <glyph glyph-name="dotlessi.smcp" unicode="&#xf626;" horiz-adv-x="548" 
d="M277 1130q54 0 98 -8v-1122q-45 -8 -101 -8q-55 0 -100 8v1122q49 8 103 8z" />
    <glyph glyph-name="oslash.smcp" unicode="&#xf627;" horiz-adv-x="1236" 
d="M631 145q128 0 209 110q80 110 80 304q0 135 -41 234l-451 -576q75 -72 203 -72zM315 559q0 -143 43 -237l453 575q-76 76 -205 76q-129 1 -210 -107t-81 -307zM618 -25q-177 0 -305 97l-55 -72q-31 -6 -79 -6t-73 6l123 156q-123 158 -123 411t138 416q138 164 374 164
q175 0 310 -100l57 73q28 8 72 8q45 0 80 -6l-127 -161q122 -161 121 -410t-139 -412q-137 -164 -374 -164z" />
    <glyph glyph-name="thorn.smcp" unicode="&#xf628;" horiz-adv-x="1052" 
d="M273 1128q52 0 100 -8v-151q29 4 55 4h53q334 0 447 -212q41 -77 41 -185t-40 -187q-77 -150 -262 -202q-87 -23 -149 -23h-90t-55 4v-168q-49 -6 -99 -6t-100 6v1120q47 8 99 8zM473 332q135 0 213 53t78 186q0 234 -283 234q-53 0 -108 -6v-463q58 -4 100 -4z" />
    <glyph glyph-name="tbar.smcp" unicode="&#xf629;" horiz-adv-x="976" 
d="M805 562q0 -45 -8 -77h-209v-485h-39q-14 -2 -42 -2h-63q-35 0 -57 2v485h-209q-6 24 -6 77t6 77h209v311h-354q-8 36 -8 82t8 88h911q6 -41 6 -86t-6 -84h-356v-311h209q8 -32 8 -77z" />
    <glyph glyph-name="kgreenlandic.smcp" unicode="&#xf62a;" horiz-adv-x="1124" 
d="M278 1130q51 0 99 -8v-1122q-49 -8 -101 -8t-100 8v1122q51 8 102 8zM1098 0q-58 -8 -124 -8t-108 8l-438 571l403 551q62 8 99 8q36 0 66 -3t61 -5l-404 -536z" />
    <glyph glyph-name="lslash.smcp" unicode="&#xf62b;" horiz-adv-x="911" 
d="M879 81q0 -39 -9 -81h-688v389l-129 -88q-8 35 -8 87t8 85l129 88v561q44 6 98 6t101 -6v-422l215 150q10 -41 10 -89t-10 -81l-215 -152v-356h489q9 -52 9 -91z" />
    <glyph glyph-name="ampersand.smcp" unicode="&#xf62c;" horiz-adv-x="1296" 
d="M883 571h-316q-111 -1 -174 -67t-63 -160t64 -147t174 -53t166 21q56 23 89 59q53 58 60 182v165zM356 858q0 -131 181 -131h346l166 191h16v-191h182q8 -33 8 -75t-8 -81h-182v-206q0 -188 -133 -289t-359 -101q-307 0 -413 189q-37 66 -37 136t14 116q45 150 170 221
q-143 73 -143 217q0 145 101 216t241 72q139 1 235 -30q-4 -94 -41 -151q-77 24 -169 24q-91 0 -133 -37t-42 -90z" />
    <glyph glyph-name="germandbls.smcp" unicode="&#xf637;" horiz-adv-x="1898" 
d="M1478 983q-216 0 -216 -137q0 -63 38 -92t103 -54l145 -57q121 -46 170 -94q50 -49 70 -98t20 -122q0 -158 -121 -255t-312 -97t-345 62q7 68 45 166q149 -58 283 -59q133 -2 189 46q57 48 57 118t-41 107q-41 38 -113 64l-117 43q-143 52 -209 119q-65 66 -65 194
t104 218t284 90t318 -60q-9 -84 -43 -159q-126 57 -244 57zM538 983q-216 0 -216 -137q0 -63 38 -92t103 -54l145 -57q121 -46 170 -94q50 -49 70 -98t20 -122q0 -158 -121 -255t-312 -97t-345 62q7 75 45 166q149 -58 283 -59q133 -2 189 46q57 48 57 118t-41 107
q-41 38 -113 64l-117 43q-143 52 -209 119q-65 66 -65 194t104 218t284 90t318 -60q-9 -84 -43 -159q-126 57 -244 57z" />
    <glyph glyph-name="euro.smcp" unicode="&#xf638;" horiz-adv-x="1130" 
d="M449 362q69 -210 330 -210q118 0 218 45q45 -102 52 -162q-138 -55 -304 -55q-217 0 -347 103t-173 279h-121q-8 25 -8 56t8 57h103q-2 17 -2 37v80q0 18 2 35h-103q-8 25 -8 55t8 57h123q45 177 177 283t339 106h27q134 0 258 -49q-6 -61 -27 -112l-18 -47
q-101 36 -223 36q-244 0 -316 -217h476q6 -29 6 -55t-6 -57h-498q-4 -31 -4 -63v-51q0 -19 4 -38h498q6 -29 6 -55t-6 -58h-471z" />
    <glyph glyph-name="dollar.smcp" unicode="&#xf639;" horiz-adv-x="944" 
d="M653 308q0 68 -50 109q-50 40 -152 75l-78 26q-131 44 -197 112q-65 67 -65 188q0 120 79 201q80 81 226 101v172q28 6 60 6t63 -6v-166q153 -9 276 -57q-9 -85 -43 -160q-119 54 -241 55q-220 2 -220 -130q0 -85 106 -126q34 -13 79 -30l96 -35q128 -45 176 -94t68 -97
t20 -114q0 -129 -80 -223t-237 -123v-172q-29 -6 -61 -6t-62 6v160q-185 0 -336 61q7 75 45 166q146 -57 281 -57t191 45t56 113z" />
    <glyph glyph-name="cent.smcp" unicode="&#xf63a;" horiz-adv-x="899" 
d="M542 -186q-32 0 -63 6v170q-170 22 -260 138t-90 291t93 294t257 143v172q27 6 60 6t63 -6v-168q111 -8 178 -33q-5 -88 -39 -155q-82 28 -174 28q-246 0 -248 -280q0 -141 68 -209t172 -68t189 33q41 -61 47 -149q-80 -34 -193 -43v-164q-28 -6 -60 -6z" />
    <glyph glyph-name="sterling.smcp" unicode="&#xf63b;" horiz-adv-x="1021" 
d="M932 87q0 -47 -8 -87h-803l-8 33q97 64 145 220q18 58 18 106t-6 118h-127q-6 31 -6 67t6 77h109q-8 47 -8 117q0 262 210 357q75 33 209 33t252 -55q-6 -65 -47 -160q-115 45 -217 45q-213 0 -213 -231q0 -58 8 -106h353q8 -32 8 -71t-8 -73h-336q10 -72 10 -106
q0 -113 -59 -197h510q8 -40 8 -87z" />
    <glyph glyph-name="yen.smcp" unicode="&#xf63c;" horiz-adv-x="1062" 
d="M43 1110q54 8 120 8q65 0 101 -8l275 -469l274 469q49 6 100 6t107 -6l-315 -498h245q6 -28 6 -54t-6 -56h-315v-154h315q6 -28 6 -54t-6 -56h-315v-238q-53 -8 -105 -8t-96 8v238h-297q-8 24 -8 54t8 56h297v154h-297q-8 24 -8 54t8 56h223z" />
    <glyph glyph-name="florin.smcp" unicode="&#xf63d;" horiz-adv-x="909" 
d="M88 -39q100 0 139 44q40 44 62 188l45 354h-182q-13 69 0 143h198l6 45q23 191 110 293t271 102q101 0 164 -18q-8 -100 -33 -166q-188 38 -248 -30q-46 -50 -63 -187l-4 -39h229q6 -34 6 -70t-6 -73h-247l-46 -361q-25 -193 -111 -295t-269 -102q-99 0 -164 21
q7 95 32 165q64 -14 111 -14z" />
    <glyph glyph-name="exclam.smcp" unicode="&#xf63e;" horiz-adv-x="577" 
d="M182 0q-8 54 -8 106t8 105q72 10 114 10t99 -10q8 -58 8 -111t-8 -100q-59 -8 -109 -8t-104 8zM291 1128q53 0 102 -6l-12 -741q-43 -6 -90 -6t-86 6l-12 741q45 6 98 6z" />
    <glyph glyph-name="question.smcp" unicode="&#xf63f;" horiz-adv-x="886" 
d="M291 105q0 58 8 106q58 8 111 8t100 -8q10 -72 10 -113t-10 -98q-97 -17 -211 0q-8 47 -8 105zM791 834q0 -232 -289 -318v-131q-46 -8 -98 -8q-51 0 -91 8v238q183 19 252 108q29 37 29 105t-67 108q-67 39 -176 39t-222 -43q-38 58 -47 154q141 51 319 51
q179 0 284 -83t106 -228z" />
    <glyph glyph-name="ordfeminine.smcp" unicode="&#xf640;" horiz-adv-x="933" 
d="M512 739l-90 254l-88 -254h178zM344 1122q27 6 80 6q54 0 78 -6l248 -614q-43 -6 -85 -6t-75 6l-45 121h-250l-45 -121q-34 -8 -78 -8q-43 0 -78 8z" />
    <glyph glyph-name="ordmasculine.smcp" unicode="&#xf641;" horiz-adv-x="796" 
d="M90 814q0 142 81 236q81 95 228 95q146 0 226 -93t81 -236t-79 -238t-227 -95q-146 1 -228 95t-82 236zM551 814q0 96 -38 152t-115 56q-76 0 -114 -56t-38 -152t38 -150q38 -56 114 -56t115 56q38 56 38 150z" />
    <glyph glyph-name="questiondown.smcp" unicode="&#xf642;" horiz-adv-x="886" 
d="M623 1020q0 -49 -9 -96q-122 -17 -211 0q-10 72 -10 108t10 103q57 10 100 10t111 -10q9 -66 9 -115zM518 758q38 0 82 -8v-238q-41 -8 -89 -18t-91 -32q-101 -52 -101 -142q0 -170 244 -168q112 0 221 41q37 -63 47 -152q-135 -49 -316 -49t-287 82q-105 82 -105 222
t107 232q68 57 182 88v132q68 10 106 10z" />
    <glyph glyph-name="exclamdown.smcp" unicode="&#xf643;" horiz-adv-x="577" 
d="M395 1120q8 -58 8 -108t-8 -105q-58 -8 -109 -8t-104 8q-8 53 -8 107t8 106q54 8 107 8q52 0 106 -8zM287 -8q-51 0 -103 6l15 741q39 6 86 6t88 -6l12 -741q-47 -6 -98 -6z" />
    <glyph glyph-name="abreve.smcp" unicode="&#xf644;" horiz-adv-x="1073" 
d="M713 395l-183 557l-180 -557h363zM1057 0q-33 -8 -99 -8q-67 0 -118 8l-78 233h-461l-74 -233q-55 -8 -109 -8t-104 8l406 1122q58 8 121 8t112 -8zM193 1485q57 10 91 10t89 -10q6 -45 41 -78t121 -33q146 0 161 111q51 10 86 10t97 -10q-14 -135 -135 -199
q-80 -43 -210 -43t-194 35q-65 35 -102 82t-45 125z" />
    <glyph glyph-name="amacron.smcp" unicode="&#xf645;" horiz-adv-x="1073" 
d="M713 395l-183 557l-180 -557h363zM1057 0q-33 -8 -99 -8q-67 0 -118 8l-78 233h-461l-74 -233q-55 -8 -109 -8t-104 8l406 1122q58 8 121 8t112 -8zM862 1366q0 -52 -6 -78h-653q-8 32 -8 77t8 77h653q6 -24 6 -76z" />
    <glyph glyph-name="aogonek.smcp" unicode="&#xf646;" horiz-adv-x="1073" 
d="M713 395l-183 557l-180 -557h363zM659 -280q0 66 50 144q49 77 131 136l-78 233h-461l-74 -233q-55 -8 -109 -8t-104 8l406 1122q58 8 121 8t112 -8l404 -1122q-83 -33 -146 -106q-61 -74 -61 -148q0 -102 119 -102q41 0 102 18q31 -52 31 -133q-67 -23 -146 -24
q-207 -2 -273 110q-24 39 -24 105z" />
    <glyph glyph-name="agrave.smcp" unicode="&#xf647;" horiz-adv-x="1073" 
d="M713 395l-183 557l-180 -557h363zM1057 0q-33 -8 -99 -8q-67 0 -118 8l-78 233h-461l-74 -233q-55 -8 -109 -8t-104 8l406 1122q58 8 121 8t112 -8zM219 1477q73 10 136 10q64 0 147 -10l215 -222q-47 -8 -106 -8t-111 8z" />
    <glyph glyph-name="aacute.smcp" unicode="&#xf648;" horiz-adv-x="1134" 
d="M713 395l-183 557l-180 -557h363zM1057 0q-33 -8 -99 -8q-67 0 -118 8l-78 233h-461l-74 -233q-55 -8 -109 -8t-104 8l406 1122q58 8 121 8t112 -8zM549 1477q82 10 146 10t134 -10l-278 -222q-54 -8 -109 -8t-110 8z" />
    <glyph glyph-name="acircumflex.smcp" unicode="&#xf649;" horiz-adv-x="1073" 
d="M713 395l-183 557l-180 -557h363zM1057 0q-33 -8 -99 -8q-67 0 -118 8l-78 233h-461l-74 -233q-55 -8 -109 -8t-104 8l406 1122q58 8 121 8t112 -8zM799 1249h-45q-63 0 -95 8l-133 125l-133 -125q-36 -8 -96 -8h-47q-44 0 -84 8l242 222q46 8 116 8t123 -8l236 -222
q-36 -8 -84 -8z" />
    <glyph glyph-name="atilde.smcp" unicode="&#xf64a;" horiz-adv-x="1073" 
d="M713 395l-183 557l-180 -557h363zM1057 0q-33 -8 -99 -8q-67 0 -118 8l-78 233h-461l-74 -233q-55 -8 -109 -8t-104 8l406 1122q58 8 121 8t112 -8zM365 1524q54 0 132 -34q79 -34 119 -52q40 -16 93 -16q54 0 127 69q47 -57 67 -121q-98 -98 -205 -98q-70 0 -175 50
t-152 50t-77 -17t-69 -52q-56 71 -67 116q94 105 207 105z" />
    <glyph glyph-name="adieresis.smcp" unicode="&#xf64b;" horiz-adv-x="1073" 
d="M713 395l-183 557l-180 -557h363zM1057 0q-33 -8 -99 -8q-67 0 -118 8l-78 233h-461l-74 -233q-55 -8 -109 -8t-104 8l406 1122q58 8 121 8t112 -8zM631 1386q0 41 10 99q50 8 104 8t111 -8q6 -53 6 -105t-6 -102q-58 -8 -112 -8t-103 8q-10 67 -10 108zM195 1380
q0 51 6 105q58 8 111 8q54 0 104 -8q8 -47 8 -103t-8 -104q-50 -8 -104 -8t-111 8q-6 51 -6 102z" />
    <glyph glyph-name="aring.smcp" unicode="&#xf64c;" horiz-adv-x="1073" 
d="M535 1190q53 0 83 36t29 95q0 59 -30 96q-31 37 -83 37t-81 -37t-29 -96t29 -95t82 -36zM713 395l-183 557l-180 -557h363zM418 1114q-127 58 -127 223q0 88 68 156q69 68 177 68q108 -1 176 -69t68 -154q0 -158 -125 -224l402 -1114q-33 -8 -99 -8q-67 0 -118 8l-78 233
h-461l-74 -233q-55 -8 -109 -8t-104 8z" />
    <glyph glyph-name="cacute.smcp" unicode="&#xf64d;" horiz-adv-x="1038" 
d="M675 975q-264 0 -330 -250q-19 -76 -19 -162q0 -188 89 -300t263 -111q121 0 225 45q44 -91 51 -160q-127 -57 -283 -57q-280 0 -421 161t-140 421q1 259 145 422t396 163q161 0 285 -51q-7 -65 -47 -160q-115 39 -214 39zM676 1477q83 10 146 10q64 0 134 -10l-278 -222
q-54 -8 -108 -8t-111 8z" />
    <glyph glyph-name="ccaron.smcp" unicode="&#xf64e;" horiz-adv-x="1038" 
d="M675 975q-264 0 -330 -250q-19 -76 -19 -162q0 -188 89 -300t263 -111q121 0 225 45q44 -91 51 -160q-127 -57 -283 -57q-280 0 -421 161t-140 421q1 259 145 422t396 163q161 0 285 -51q-7 -65 -47 -160q-115 39 -214 39zM356 1485h45q31 0 95 -8q73 -69 133 -127
l133 127q72 8 96 8h47q20 0 42 -3t42 -5l-241 -222q-46 -8 -117 -8t-123 8l-236 222q72 8 84 8z" />
    <glyph glyph-name="cdotaccent.smcp" unicode="&#xf64f;" horiz-adv-x="1038" 
d="M675 975q-264 0 -330 -250q-19 -76 -19 -162q0 -188 89 -300t263 -111q121 0 225 45q44 -91 51 -160q-127 -57 -283 -57q-280 0 -421 161t-140 421q1 259 145 422t396 163q161 0 285 -51q-7 -65 -47 -160q-115 39 -214 39zM528 1274q-8 47 -8 103t8 108q48 10 112 10
t112 -10q8 -47 8 -103t-8 -108q-48 -10 -112 -10t-112 10z" />
    <glyph glyph-name="ccircumflex.smcp" unicode="&#xf650;" horiz-adv-x="1038" 
d="M675 975q-264 0 -330 -250q-19 -76 -19 -162q0 -188 89 -300t263 -111q121 0 225 45q44 -91 51 -160q-127 -57 -283 -57q-280 0 -421 161t-140 421q1 259 145 422t396 163q161 0 285 -51q-7 -65 -47 -160q-115 39 -214 39zM905 1247h-45q-62 0 -94 8l-133 125l-133 -125
q-36 -8 -97 -8h-47q-44 0 -84 8l242 222q46 8 116 8t124 -8l235 -222q-36 -8 -84 -8z" />
    <glyph glyph-name="ccedilla.smcp" unicode="&#xf651;" horiz-adv-x="1038" 
d="M675 975q-264 0 -330 -250q-19 -76 -19 -162q0 -188 89 -300t263 -111q121 0 225 45q44 -91 51 -160q-118 -53 -286 -57l-37 -91q10 2 19 2h20q111 0 164 -53t53 -141t-80 -139q-80 -52 -197 -52t-188 25q6 81 33 123q63 -25 129 -25q143 0 143 82q0 68 -131 70
q-57 0 -119 -17l-14 17l78 207q-313 53 -403 365q-28 97 -28 216q1 253 146 415q144 163 395 163q161 0 285 -51q-7 -65 -47 -160q-115 39 -214 39z" />
    <glyph glyph-name="dcaron.smcp" unicode="&#xf652;" horiz-adv-x="1216" 
d="M510 152q273 0 359 226q30 79 30 185t-30 181q-89 223 -367 223q-80 0 -127 -9v-796q57 -10 135 -10zM494 1141q302 0 458 -155t156 -424t-158 -426t-469 -156q-189 0 -307 20v1122q31 2 71 6q130 13 249 13zM272 1485h45q31 0 95 -8q73 -69 133 -127l133 127q72 8 96 8
h47q20 0 42 -3t42 -5l-241 -222q-46 -8 -117 -8t-123 8l-236 222q72 8 84 8z" />
    <glyph glyph-name="dcroat.smcp" unicode="&#xf653;" horiz-adv-x="1243" 
d="M399 651h240q8 -31 8 -77t-8 -78h-240v-336q49 -8 131 -8q180 0 288 102t108 305t-109 306q-109 102 -283 102q-82 0 -135 -9v-307zM51 574q0 46 8 77h142v469q163 21 317 21q300 0 457 -155q158 -155 158 -427q0 -271 -157 -425t-468 -154q-160 0 -307 20v496h-142
q-8 32 -8 78z" />
    <glyph glyph-name="egrave.smcp" unicode="&#xf654;" horiz-adv-x="1001" 
d="M915 86q0 -46 -8 -86h-733v1122h721q8 -46 8 -88t-8 -86h-522v-274h426q8 -41 8 -88t-8 -86h-426v-328h534q8 -40 8 -86zM211 1477q73 10 137 10t146 -10l215 -222q-47 -8 -106 -8t-111 8z" />
    <glyph glyph-name="eacute.smcp" unicode="&#xf655;" horiz-adv-x="1001" 
d="M915 86q0 -46 -8 -86h-733v1122h721q8 -46 8 -88t-8 -86h-522v-274h426q8 -41 8 -88t-8 -86h-426v-328h534q8 -40 8 -86zM578 1255q-54 -8 -108 -8t-112 8l217 222q83 10 147 10t134 -10z" />
    <glyph glyph-name="ecircumflex.smcp" unicode="&#xf656;" horiz-adv-x="1001" 
d="M915 86q0 -46 -8 -86h-733v1122h721q8 -46 8 -88t-8 -86h-522v-274h426q8 -41 8 -88t-8 -86h-426v-328h534q8 -40 8 -86zM801 1247h-45q-62 0 -94 8l-134 125l-133 -125q-36 -8 -96 -8h-47q-44 0 -84 8l242 222q46 8 116 8t123 -8l236 -222q-36 -8 -84 -8z" />
    <glyph glyph-name="edieresis.smcp" unicode="&#xf657;" horiz-adv-x="1001" 
d="M915 86q0 -46 -8 -86h-733v1122h721q8 -46 8 -88t-8 -86h-522v-274h426q8 -41 8 -88t-8 -86h-426v-328h534q8 -40 8 -86zM635 1384q0 41 10 99q50 8 105 8q54 0 110 -8q6 -53 6 -105t-6 -102q-58 -8 -112 -8q-53 0 -103 8q-10 67 -10 108zM199 1378q0 51 6 105
q58 8 113 8q54 0 102 -8q8 -47 8 -103t-8 -104q-50 -8 -103 -8t-112 8q-6 51 -6 102z" />
    <glyph glyph-name="ecaron.smcp" unicode="&#xf658;" horiz-adv-x="1001" 
d="M915 86q0 -46 -8 -86h-733v1122h721q8 -46 8 -88t-8 -86h-522v-274h426q8 -41 8 -88t-8 -86h-426v-328h534q8 -40 8 -86zM266 1485h45q27 0 95 -8q73 -69 133 -127l133 127q72 8 96 8h47q20 0 42 -3t42 -5l-242 -222q-46 -8 -116 -8t-123 8l-236 222q72 8 84 8z" />
    <glyph glyph-name="edotaccent.smcp" unicode="&#xf659;" horiz-adv-x="1001" 
d="M915 86q0 -46 -8 -86h-733v1122h721q8 -46 8 -88t-8 -86h-522v-274h426q8 -41 8 -88t-8 -86h-426v-328h534q8 -40 8 -86zM424 1274q-8 47 -8 103t8 108q48 10 112 10t111 -10q8 -47 8 -103t-8 -108q-48 -10 -112 -10q-63 0 -111 10z" />
    <glyph glyph-name="emacron.smcp" unicode="&#xf65a;" horiz-adv-x="1001" 
d="M915 86q0 -46 -8 -86h-733v1122h721q8 -46 8 -88t-8 -86h-522v-274h426q8 -41 8 -88t-8 -86h-426v-328h534q8 -40 8 -86zM856 1364q0 -52 -6 -78h-653q-9 36 -9 81t9 73h653q6 -24 6 -76z" />
    <glyph glyph-name="eogonek.smcp" unicode="&#xf65b;" horiz-adv-x="989" 
d="M471 -280q0 66 49 144q49 77 131 136h-477v1122h721q8 -46 8 -88t-8 -86h-522v-274h426q8 -41 8 -88t-8 -86h-426v-328h534q8 -40 8 -86t-8 -86h-69q-74 -51 -125 -118t-51 -125q0 -115 114 -113q44 0 107 18q30 -51 30 -133q-67 -23 -146 -24q-205 -2 -272 110
q-24 39 -24 105z" />
    <glyph glyph-name="ebreve.smcp" unicode="&#xf65c;" horiz-adv-x="1001" 
d="M915 86q0 -46 -8 -86h-733v1122h721q8 -46 8 -88t-8 -86h-522v-274h426q8 -41 8 -88t-8 -86h-426v-328h534q8 -40 8 -86zM188 1485q57 10 92 10q34 0 89 -10q6 -45 41 -78q34 -33 120 -33t121 33t41 78q51 10 85 10t97 -10q-14 -134 -134 -199q-80 -43 -210 -43t-194 35
q-65 35 -103 82q-37 47 -45 125z" />
    <glyph glyph-name="gbreve.smcp" unicode="&#xf65d;" horiz-adv-x="1148" 
d="M106 554q0 263 153 428t411 165q166 0 297 -51q-7 -64 -47 -158q-123 37 -224 37q-189 -1 -284 -115t-95 -306q-1 -192 97 -296t280 -104q84 0 133 14v407q109 13 199 0v-536q-139 -59 -308 -59q-170 0 -276 36q-216 74 -296 294q-40 110 -40 244zM274 1485q58 10 92 10
t89 -10q6 -45 41 -78q34 -33 120 -33t121 33t41 78q51 10 84 10t99 -10q-14 -133 -135 -199q-80 -43 -210 -43t-194 35q-65 35 -103 82q-37 47 -45 125z" />
    <glyph glyph-name="gcommaaccent.smcp" unicode="&#xf65e;" horiz-adv-x="1148" 
d="M106 554q0 263 153 428t411 165q166 0 297 -51q-7 -64 -47 -158q-123 37 -224 37q-189 -1 -284 -115t-95 -306q-1 -192 97 -296t280 -104q84 0 133 14v407q109 13 199 0v-536q-139 -59 -308 -59q-170 0 -276 36q-216 74 -296 294q-40 110 -40 244zM690 -125h21
q44 0 88 -8l-123 -354q-76 -16 -115 -11q-39 6 -63 11l92 354q46 8 100 8z" />
    <glyph glyph-name="gdotaccent.smcp" unicode="&#xf65f;" horiz-adv-x="1148" 
d="M106 554q0 263 153 428t411 165q166 0 297 -51q-7 -64 -47 -158q-123 37 -224 37q-189 -1 -284 -115t-95 -306q-1 -192 97 -296t280 -104q84 0 133 14v407q109 13 199 0v-536q-139 -59 -308 -59q-170 0 -276 36q-216 74 -296 294q-40 110 -40 244zM545 1274q-8 47 -8 103
t8 108q48 10 112 10t111 -10q8 -47 8 -103t-8 -108q-48 -10 -112 -10q-63 0 -111 10z" />
    <glyph glyph-name="gcircumflex.smcp" unicode="&#xf660;" horiz-adv-x="1148" 
d="M106 554q0 263 153 428t411 165q166 0 297 -51q-7 -64 -47 -158q-123 37 -224 37q-189 -1 -284 -115t-95 -306q-1 -192 97 -296t280 -104q84 0 133 14v407q109 13 199 0v-536q-139 -59 -308 -59q-170 0 -276 36q-216 74 -296 294q-40 110 -40 244zM918 1247h-46
q-62 0 -94 8l-133 125l-133 -125q-36 -8 -96 -8h-47q-44 0 -84 8l241 222q46 8 117 8t123 -8l235 -222q-36 -8 -83 -8z" />
    <glyph glyph-name="hcircumflex.smcp" unicode="&#xf661;" horiz-adv-x="1255" 
d="M277 1130q54 0 98 -8v-458h506v458q46 8 101 8t99 -8v-1122q-46 -8 -99 -8t-101 8v487h-506v-487q-45 -8 -101 -8q-55 0 -100 8v1122q49 8 103 8zM899 1247h-45q-62 0 -94 8l-133 125l-133 -125q-36 -8 -97 -8h-47q-44 0 -84 8l242 222q46 8 116 8t124 -8l235 -222
q-36 -8 -84 -8z" />
    <glyph glyph-name="igrave.smcp" unicode="&#xf662;" horiz-adv-x="548" 
d="M277 1130q54 0 98 -8v-1122q-45 -8 -101 -8q-55 0 -100 8v1122q49 8 103 8zM-29 1477q72 10 136 10t147 -10l215 -222q-47 -8 -106 -8t-111 8z" />
    <glyph glyph-name="iacute.smcp" unicode="&#xf663;" horiz-adv-x="548" 
d="M277 1130q54 0 98 -8v-1122q-45 -8 -101 -8q-55 0 -100 8v1122q49 8 103 8zM289 1477q82 10 146 10t134 -10l-278 -222q-54 -8 -109 -8t-110 8z" />
    <glyph glyph-name="icircumflex.smcp" unicode="&#xf664;" horiz-adv-x="548" 
d="M277 1130q54 0 98 -8v-1122q-45 -8 -101 -8q-55 0 -100 8v1122q49 8 103 8zM551 1247h-45q-62 0 -94 8l-133 125l-134 -125q-36 -8 -96 -8h-47q-44 0 -84 8l242 222q46 8 117 8t122 -8l236 -222q-36 -8 -84 -8z" />
    <glyph glyph-name="idieresis.smcp" unicode="&#xf665;" horiz-adv-x="548" 
d="M277 1130q54 0 98 -8v-1122q-45 -8 -101 -8q-55 0 -100 8v1122q49 8 103 8zM381 1384q0 41 10 99q50 8 105 8t110 -8q6 -53 6 -105t-6 -102q-58 -8 -112 -8q-53 0 -103 8q-10 67 -10 108zM-55 1378q0 51 6 105q58 8 113 8t102 -8q8 -47 8 -103t-8 -104q-50 -8 -103 -8
t-112 8q-6 51 -6 102z" />
    <glyph glyph-name="imacron.smcp" unicode="&#xf666;" horiz-adv-x="548" 
d="M277 1130q54 0 98 -8v-1122q-45 -8 -101 -8q-55 0 -100 8v1122q49 8 103 8zM612 1364q0 -52 -6 -78h-653q-8 32 -8 77t8 77h653q6 -24 6 -76z" />
    <glyph glyph-name="iogonek.smcp" unicode="&#xf667;" horiz-adv-x="548" 
d="M277 1130q54 0 98 -8v-1122q-74 -51 -125 -118t-51 -125q0 -115 114 -113q44 0 107 18q28 -48 31 -133q-67 -23 -147 -24q-206 -2 -272 110q-24 39 -24 105t48 143q48 76 128 135l-10 2v1122q49 8 103 8z" />
    <glyph glyph-name="itilde.smcp" unicode="&#xf668;" horiz-adv-x="548" 
d="M277 1130q54 0 98 -8v-1122q-45 -8 -101 -8q-55 0 -100 8v1122q49 8 103 8zM113 1524q54 0 132 -34q79 -34 119 -52q40 -16 93 -16t127 69q47 -57 67 -121q-98 -98 -205 -98q-69 0 -175 50q-105 50 -152 50t-77 -17t-69 -52q-56 71 -67 116q94 105 207 105z" />
    <glyph glyph-name="ibreve.smcp" unicode="&#xf669;" horiz-adv-x="548" 
d="M277 1130q54 0 98 -8v-1122q-45 -8 -101 -8q-55 0 -100 8v1122q49 8 103 8zM-63 1485q57 10 91 10t89 -10q6 -45 41 -78t121 -33q146 0 161 111q51 10 86 10t97 -10q-14 -135 -135 -199q-80 -43 -210 -43t-194 35q-65 35 -102 82t-45 125z" />
    <glyph glyph-name="jcircumflex.smcp" unicode="&#xf66a;" horiz-adv-x="739" 
d="M183 152q48 0 83 6q115 20 115 180v612h-244q-6 37 -6 85t6 85h441v-751q0 -207 -92 -298t-265 -91q-89 0 -166 22q0 89 27 164q53 -14 101 -14zM637 1247h-45q-62 0 -94 8l-133 125l-134 -125q-36 -8 -96 -8h-47q-44 0 -84 8l242 222q46 8 116 8t123 -8l236 -222
q-36 -8 -84 -8z" />
    <glyph glyph-name="kcommaaccent.smcp" unicode="&#xf66b;" horiz-adv-x="1124" 
d="M278 1130q51 0 99 -8v-1122q-49 -8 -101 -8t-100 8v1122q51 8 102 8zM1098 0q-58 -8 -124 -8t-108 8l-438 571l403 551q62 8 99 8q36 0 66 -3t61 -5l-404 -536zM618 -125h21q44 0 88 -8l-123 -354q-76 -16 -115 -11q-39 6 -63 11l92 354q46 8 100 8z" />
    <glyph glyph-name="lacute.smcp" unicode="&#xf66c;" horiz-adv-x="901" 
d="M275 1130q54 0 98 -8v-948h491q6 -47 6 -88t-6 -86h-690v1122q47 8 101 8zM367 1255q-54 -8 -108 -8t-112 8l218 222q83 10 146 10q64 0 134 -10z" />
    <glyph glyph-name="lcaron.smcp" unicode="&#xf66d;" horiz-adv-x="901" 
d="M275 1130q54 0 98 -8v-948h491q6 -47 6 -88t-6 -86h-690v1122q47 8 101 8zM715 711q-69 -17 -164 0v415q33 8 93 8t99 -8z" />
    <glyph glyph-name="lcommaaccent.smcp" unicode="&#xf66e;" horiz-adv-x="901" 
d="M275 1130q54 0 98 -8v-948h491q6 -47 6 -88t-6 -86h-690v1122q47 8 101 8zM549 -125h20q44 0 88 -8l-122 -354q-76 -16 -115 -11q-40 6 -64 11l93 354q46 8 100 8z" />
    <glyph glyph-name="ldot.smcp" unicode="&#xf66f;" horiz-adv-x="901" 
d="M275 1130q54 0 98 -8v-948h491q6 -47 6 -88t-6 -86h-690v1122q47 8 101 8zM608 532q-8 58 -8 112t8 112q58 8 112 8t111 -8q9 -65 9 -119q0 -53 -9 -105q-57 -8 -111 -8t-112 8z" />
    <glyph glyph-name="nacute.smcp" unicode="&#xf670;" horiz-adv-x="1263" 
d="M268 1128q47 0 88 -8l551 -809v809q40 8 98 8t82 -8v-1120q-36 -8 -86 -8t-92 8l-553 803v-803q-46 -8 -94 -8t-88 8v1120q47 8 94 8zM682 1477q83 10 146 10t135 -10l-279 -222q-54 -8 -109 -8t-110 8z" />
    <glyph glyph-name="napostrophe.smcp" unicode="&#xf671;" horiz-adv-x="1372" 
d="M376 1128q48 0 89 -8l551 -809v809q40 8 97 8t83 -8v-1120q-36 -8 -86 -8t-92 8l-553 803v-803q-46 -8 -94 -8t-88 8v1120q45 8 93 8zM51 1126q-37 0 -76 9l84 333q32 9 101 9t98 -9l-113 -333q-57 -9 -94 -9z" />
    <glyph glyph-name="ntilde.smcp" unicode="&#xf672;" horiz-adv-x="1263" 
d="M268 1128q47 0 88 -8l551 -809v809q40 8 98 8t82 -8v-1120q-36 -8 -86 -8t-92 8l-553 803v-803q-46 -8 -94 -8t-88 8v1120q47 8 94 8zM463 1524q54 0 132 -34q79 -34 119 -52q40 -16 93 -16t127 69q47 -57 67 -121q-98 -98 -204 -98q-70 0 -175 50t-152 50q-48 0 -78 -17
t-68 -52q-57 72 -68 116q94 105 207 105z" />
    <glyph glyph-name="ncaron.smcp" unicode="&#xf673;" horiz-adv-x="1263" 
d="M268 1128q47 0 88 -8l551 -809v809q40 8 98 8t82 -8v-1120q-36 -8 -86 -8t-92 8l-553 803v-803q-46 -8 -94 -8t-88 8v1120q47 8 94 8zM367 1485h45q30 0 94 -8q73 -69 133 -127l133 127q72 8 96 8h47q20 0 42 -3t42 -5l-241 -222q-46 -8 -117 -8t-123 8l-235 222
q72 8 84 8z" />
    <glyph glyph-name="ncommaaccent.smcp" unicode="&#xf674;" horiz-adv-x="1263" 
d="M268 1128q47 0 88 -8l551 -809v809q40 8 98 8t82 -8v-1120q-36 -8 -86 -8t-92 8l-553 803v-803q-46 -8 -94 -8t-88 8v1120q47 8 94 8zM672 -125q44 0 88 -8l-123 -354q-76 -16 -115 -11q-39 6 -63 11l92 354q46 8 100 8h21z" />
    <glyph glyph-name="ograve.smcp" unicode="&#xf675;" horiz-adv-x="1236" 
d="M618 145q141 0 222 110q80 111 80 307t-80 304t-222 107q-142 0 -222 -108q-81 -109 -81 -305t81 -306t222 -109zM617 -25q-237 0 -374 163q-137 162 -137 422q0 259 138 423t376 164t375 -166t136 -422q-1 -257 -139 -420q-138 -164 -375 -164zM297 1479q72 10 136 10
t147 -10l215 -222q-47 -8 -106 -8t-111 8z" />
    <glyph glyph-name="oacute.smcp" unicode="&#xf676;" horiz-adv-x="1236" 
d="M618 145q141 0 222 110q80 111 80 307t-80 304t-222 107q-142 0 -222 -108q-81 -109 -81 -305t81 -306t222 -109zM617 -25q-237 0 -374 163q-137 162 -137 422q0 259 138 423t376 164t375 -166t136 -422q-1 -257 -139 -420q-138 -164 -375 -164zM635 1479q83 10 146 10
q64 0 134 -10l-278 -222q-54 -8 -108 -8t-111 8z" />
    <glyph glyph-name="ocircumflex.smcp" unicode="&#xf677;" horiz-adv-x="1236" 
d="M618 145q141 0 222 110q80 111 80 307t-80 304t-222 107q-142 0 -222 -108q-81 -109 -81 -305t81 -306t222 -109zM617 -25q-237 0 -374 163q-137 162 -137 422q0 259 138 423t376 164t375 -166t136 -422q-1 -257 -139 -420q-138 -164 -375 -164zM879 1249h-45
q-63 0 -95 8l-133 125l-133 -125q-36 -8 -96 -8h-47q-44 0 -84 8l241 222q46 8 117 8t123 -8l236 -222q-36 -8 -84 -8z" />
    <glyph glyph-name="otilde.smcp" unicode="&#xf678;" horiz-adv-x="1236" 
d="M618 145q141 0 222 110q80 111 80 307t-80 304t-222 107q-142 0 -222 -108q-81 -109 -81 -305t81 -306t222 -109zM617 -25q-237 0 -374 163q-137 162 -137 422q0 259 138 423t376 164t375 -166t136 -422q-1 -257 -139 -420q-138 -164 -375 -164zM453 1526q54 0 132 -34
q79 -34 119 -52q40 -16 93 -16q54 0 127 69q47 -57 67 -121q-98 -98 -205 -98q-70 0 -175 50t-152 50t-77 -17t-69 -52q-56 71 -67 116q94 105 207 105z" />
    <glyph glyph-name="odieresis.smcp" unicode="&#xf679;" horiz-adv-x="1236" 
d="M618 145q141 0 222 110q80 111 80 307t-80 304t-222 107q-142 0 -222 -108q-81 -109 -81 -305t81 -306t222 -109zM617 -25q-237 0 -374 163q-137 162 -137 422q0 259 138 423t376 164t375 -166t136 -422q-1 -257 -139 -420q-138 -164 -375 -164zM711 1386q0 41 10 99
q50 8 104 8q55 0 111 -8q6 -53 6 -105t-6 -102q-58 -8 -112 -8t-103 8q-10 67 -10 108zM281 1485q58 8 111 8t104 -8q8 -47 8 -103t-8 -104q-50 -8 -104 -8q-53 0 -111 8q-13 109 0 207z" />
    <glyph glyph-name="ohungarumlaut.smcp" unicode="&#xf67a;" horiz-adv-x="1236" 
d="M618 145q141 0 222 110q80 111 80 307t-80 304t-222 107q-142 0 -222 -108q-81 -109 -81 -305t81 -306t222 -109zM617 -25q-237 0 -374 163q-137 162 -137 422q0 259 138 423t376 164t375 -166t136 -422q-1 -257 -139 -420q-138 -164 -375 -164zM897 1253q-47 -8 -101 -8
t-110 8l203 226q47 8 116 8q70 0 136 -8zM477 1253q-49 -8 -103 -8q-53 0 -110 8l205 226q44 8 114 8t136 -8z" />
    <glyph glyph-name="omacron.smcp" unicode="&#xf67b;" horiz-adv-x="1236" 
d="M618 145q141 0 222 110q80 111 80 307t-80 304t-222 107q-142 0 -222 -108q-81 -109 -81 -305t81 -306t222 -109zM617 -25q-237 0 -374 163q-137 162 -137 422q0 259 138 423t376 164t375 -166t136 -422q-1 -257 -139 -420q-138 -164 -375 -164zM940 1364q0 -52 -6 -78
h-653q-9 36 -9 81t9 73h653q6 -24 6 -76z" />
    <glyph glyph-name="obreve.smcp" unicode="&#xf67c;" horiz-adv-x="1236" 
d="M618 145q141 0 222 110q80 111 80 307t-80 304t-222 107q-142 0 -222 -108q-81 -109 -81 -305t81 -306t222 -109zM617 -25q-237 0 -374 163q-137 162 -137 422q0 259 138 423t376 164t375 -166t136 -422q-1 -257 -139 -420q-138 -164 -375 -164zM264 1485q57 10 91 10
t89 -10q6 -45 41 -78t121 -33t121 33t41 78q51 10 85 10t97 -10q-14 -134 -134 -199q-80 -43 -209 -43q-130 0 -195 35q-66 35 -103 82t-45 125z" />
    <glyph glyph-name="racute.smcp" unicode="&#xf67d;" horiz-adv-x="1079" 
d="M455 1143q355 0 458 -192q37 -67 37 -147q0 -137 -63 -213q-63 -77 -154 -124q-6 -4 -12 -6t-12 -6l333 -455q-25 -4 -69 -4h-87q-43 0 -69 4l-368 500v8q125 41 183 81t87 83t29 104q0 94 -72 148t-191 53q-56 0 -112 -8v-969q-47 -6 -97 -6t-102 6v1122q159 21 281 21z
M551 1477q82 10 146 10t134 -10l-278 -222q-55 -8 -109 -8t-110 8z" />
    <glyph glyph-name="rcaron.smcp" unicode="&#xf67e;" horiz-adv-x="1079" 
d="M455 1143q355 0 458 -192q37 -67 37 -147q0 -137 -63 -213q-63 -77 -154 -124q-6 -4 -12 -6t-12 -6l333 -455q-25 -4 -69 -4h-87q-43 0 -69 4l-368 500v8q125 41 183 81t87 83t29 104q0 94 -72 148t-191 53q-56 0 -112 -8v-969q-47 -6 -97 -6t-102 6v1122q159 21 281 21z
M236 1485h45q30 0 94 -8q73 -69 133 -127l133 127q72 8 96 8h47q20 0 42 -3t42 -5l-241 -222q-46 -8 -117 -8t-123 8l-235 222q72 8 84 8z" />
    <glyph glyph-name="rcommaaccent.smcp" unicode="&#xf67f;" horiz-adv-x="1079" 
d="M455 1143q355 0 458 -192q37 -67 37 -147q0 -137 -63 -213q-63 -77 -154 -124q-6 -4 -12 -6t-12 -6l333 -455q-25 -4 -69 -4h-87q-43 0 -69 4l-368 500v8q125 41 183 81t87 83t29 104q0 94 -72 148t-191 53q-56 0 -112 -8v-969q-47 -6 -97 -6t-102 6v1122q159 21 281 21z
M598 -125h20q45 0 89 -8l-123 -354q-76 -16 -115 -11q-39 6 -63 11l92 354q46 8 100 8z" />
    <glyph glyph-name="sacute.smcp" unicode="&#xf680;" horiz-adv-x="956" 
d="M538 983q-216 0 -216 -137q0 -63 38 -92t103 -54l145 -57q121 -46 170 -94q50 -49 70 -98t20 -122q0 -158 -121 -255t-312 -97t-345 62q7 75 45 166q149 -58 283 -59q133 -2 189 46q57 48 57 118t-41 107q-41 38 -113 64l-117 43q-143 52 -209 119q-65 66 -65 194
t104 218t284 90t318 -60q-9 -84 -43 -159q-126 57 -244 57zM520 1255q-54 -8 -109 -8q-54 0 -110 8l217 222q82 10 146 10q63 0 135 -10z" />
    <glyph glyph-name="scommaaccent.smcp" unicode="&#xf681;" horiz-adv-x="956" 
d="M538 983q-216 0 -216 -137q0 -63 38 -92t103 -54l145 -57q121 -46 170 -94q50 -49 70 -98t20 -122q0 -158 -121 -255t-312 -97t-345 62q7 75 45 166q149 -58 283 -59q133 -2 189 46q57 48 57 118t-41 107q-41 38 -113 64l-117 43q-143 52 -209 119q-65 66 -65 194
t104 218t284 90t318 -60q-9 -84 -43 -159q-126 57 -244 57zM508 -125h20q44 0 88 -8l-122 -354q-75 -16 -115 -10q-40 5 -64 10l93 354q46 8 100 8z" />
    <glyph glyph-name="scedilla.smcp" unicode="&#xf682;" horiz-adv-x="956" 
d="M393 524q-151 55 -212 119q-62 64 -62 193q0 128 104 219q104 90 284 90t318 -60q-9 -84 -43 -159q-126 57 -244 57q-216 0 -216 -137q0 -68 38 -94t103 -52l145 -57q121 -46 170 -94q50 -49 70 -98t20 -117q0 -138 -93 -234t-269 -116l-20 -48t-19 -47q13 3 39 5
q113 0 165 -54t52 -141q0 -88 -81 -140t-218 -53h-23q-95 7 -141 25q5 84 33 123q68 -23 127 -23q143 0 143 80q0 39 -34 55q-35 16 -99 15q-64 0 -115 -17l-16 19l74 197q-158 6 -283 59q7 75 45 166q149 -58 283 -59q133 -2 189 46q57 48 57 116t-42 108q-42 39 -112 65z
" />
    <glyph glyph-name="scaron.smcp" unicode="&#xf683;" horiz-adv-x="956" 
d="M538 983q-216 0 -216 -137q0 -63 38 -92t103 -54l145 -57q121 -46 170 -94q50 -49 70 -98t20 -122q0 -158 -121 -255t-312 -97t-345 62q7 75 45 166q149 -58 283 -59q133 -2 189 46q57 48 57 118t-41 107q-41 38 -113 64l-117 43q-143 52 -209 119q-65 66 -65 194
t104 218t284 90t318 -60q-9 -84 -43 -159q-126 57 -244 57zM229 1485h45q31 0 95 -8q73 -69 133 -127l133 127q72 8 96 8h47q20 0 42 -3t42 -5l-241 -222q-46 -8 -117 -8t-123 8l-236 222q72 8 84 8z" />
    <glyph glyph-name="scircumflex.smcp" unicode="&#xf684;" horiz-adv-x="956" 
d="M538 983q-216 0 -216 -137q0 -63 38 -92t103 -54l145 -57q121 -46 170 -94q50 -49 70 -98t20 -122q0 -158 -121 -255t-312 -97t-345 62q7 75 45 166q149 -58 283 -59q133 -2 189 46q57 48 57 118t-41 107q-41 38 -113 64l-117 43q-143 52 -209 119q-65 66 -65 194
t104 218t284 90t318 -60q-9 -84 -43 -159q-126 57 -244 57zM760 1247h-45q-62 0 -94 8l-134 125l-133 -125q-36 -8 -96 -8h-47q-44 0 -84 8l242 222q46 8 116 8t123 -8l236 -222q-36 -8 -84 -8z" />
    <glyph glyph-name="tcaron.smcp" unicode="&#xf685;" horiz-adv-x="976" 
d="M25 1032q0 46 8 88h911q6 -41 6 -86t-6 -84h-356v-950h-49q-6 -2 -30 -2h-59q-35 0 -63 2v950h-354q-8 36 -8 82zM219 1485h45q30 0 94 -8q35 -33 68 -64t66 -63l133 127q72 8 96 8h47q20 0 42 -3t42 -5l-242 -222q-46 -8 -117 -8q-70 0 -122 8l-236 222q72 8 84 8z" />
    <glyph glyph-name="uni021B.smcp" unicode="&#xf686;" horiz-adv-x="976" 
d="M25 1032q0 46 8 88h911q6 -41 6 -86t-6 -84h-356v-950h-49q-6 -2 -30 -2h-59q-35 0 -63 2v950h-354q-8 36 -8 82zM514 -125q44 0 88 -8l-123 -354q-76 -16 -115 -11q-39 6 -63 11l92 354q46 8 101 8h20z" />
    <glyph glyph-name="tcommaaccent.smcp" unicode="&#xf687;" horiz-adv-x="976" 
d="M25 1032q0 46 8 88h911q6 -41 6 -86t-6 -84h-356v-950h-49q-6 -2 -30 -2h-59q-35 0 -63 2v950h-354q-8 36 -8 82zM514 -125q44 0 88 -8l-123 -354q-76 -16 -115 -11q-39 6 -63 11l92 354q46 8 101 8h20z" />
    <glyph glyph-name="uhungarumlaut.smcp" unicode="&#xf688;" horiz-adv-x="1216" 
d="M971 1128q47 0 96 -6v-594q0 -404 -247 -511q-87 -37 -212 -37q-241 1 -351 142q-109 141 -107 406v594q51 6 101 6t99 -6v-553q0 -217 58 -316t201 -99q142 0 200 99q57 99 57 316v551q58 8 105 8zM901 1253q-46 -8 -100 -8t-111 8l203 226q47 8 116 8q70 0 136 -8z
M481 1253q-50 -8 -102 -8q-53 0 -111 8l205 226q44 8 114 8t136 -8z" />
    <glyph glyph-name="ugrave.smcp" unicode="&#xf689;" horiz-adv-x="1216" 
d="M971 1128q47 0 96 -6v-594q0 -404 -247 -511q-87 -37 -212 -37q-241 1 -351 142q-109 141 -107 406v594q51 6 101 6t99 -6v-553q0 -217 58 -316t201 -99q142 0 200 99q57 99 57 316v551q58 8 105 8zM274 1477q72 10 136 10t147 -10l215 -222q-47 -8 -106 -8t-111 8z" />
    <glyph glyph-name="uacute.smcp" unicode="&#xf68a;" horiz-adv-x="1216" 
d="M971 1128q47 0 96 -6v-594q0 -404 -247 -511q-87 -37 -212 -37q-241 1 -351 142q-109 141 -107 406v594q51 6 101 6t99 -6v-553q0 -217 58 -316t201 -99q142 0 200 99q57 99 57 316v551q58 8 105 8zM657 1255q-54 -8 -107 -8t-112 8l217 222q83 10 146 10t135 -10z" />
    <glyph glyph-name="ucircumflex.smcp" unicode="&#xf68b;" horiz-adv-x="1216" 
d="M971 1128q47 0 96 -6v-594q0 -404 -247 -511q-87 -37 -212 -37q-241 1 -351 142q-109 141 -107 406v594q51 6 101 6t99 -6v-553q0 -217 58 -316t201 -99q142 0 200 99q57 99 57 316v551q58 8 105 8zM881 1247h-45q-63 0 -95 8l-133 125l-133 -125q-36 -8 -96 -8h-47
q-44 0 -84 8l241 222q46 8 117 8t123 -8l236 -222q-36 -8 -84 -8z" />
    <glyph glyph-name="udieresis.smcp" unicode="&#xf68c;" horiz-adv-x="1216" 
d="M971 1128q47 0 96 -6v-594q0 -404 -247 -511q-87 -37 -212 -37q-241 1 -351 142q-109 141 -107 406v594q51 6 101 6t99 -6v-553q0 -217 58 -316t201 -99q142 0 200 99q57 99 57 316v551q58 8 105 8zM709 1384q0 41 10 99q50 8 104 8t111 -8q6 -53 6 -105t-6 -102
q-58 -8 -112 -8t-103 8q-10 67 -10 108zM279 1483q58 8 112 8q53 0 103 -8q8 -47 8 -103t-8 -104q-50 -8 -103 -8t-112 8q-13 109 0 207z" />
    <glyph glyph-name="umacron.smcp" unicode="&#xf68d;" horiz-adv-x="1216" 
d="M971 1128q47 0 96 -6v-594q0 -404 -247 -511q-87 -37 -212 -37q-241 1 -351 142q-109 141 -107 406v594q51 6 101 6t99 -6v-553q0 -217 58 -316t201 -99q142 0 200 99q57 99 57 316v551q58 8 105 8zM940 1364q0 -52 -6 -78h-653q-9 36 -9 81t9 73h653q6 -24 6 -76z" />
    <glyph glyph-name="uogonek.smcp" unicode="&#xf68e;" horiz-adv-x="1216" 
d="M150 528v594q51 6 101 6t99 -6v-553q0 -217 58 -316t201 -99q142 0 200 99q57 99 57 316v551q58 8 105 8t96 -6v-594q0 -444 -293 -528q-76 -51 -127 -118t-51 -125q0 -115 115 -113q45 0 106 18q27 -46 33 -133q-72 -23 -150 -24q-205 -2 -271 110q-24 39 -23 96
q0 144 155 271q-221 14 -316 158t-95 388z" />
    <glyph glyph-name="uring.smcp" unicode="&#xf68f;" horiz-adv-x="1216" 
d="M971 1128q47 0 96 -6v-594q0 -404 -247 -511q-87 -37 -212 -37q-241 1 -351 142q-109 141 -107 406v594q51 6 101 6t99 -6v-553q0 -217 58 -316t201 -99q142 0 200 99q57 99 57 316v551q58 8 105 8zM606 1270q53 0 82 35t29 93t-29 93t-82 35t-82 -35q-28 -35 -28 -93
t28 -93t82 -35zM435 1568q68 64 171 64t170 -63q68 -63 69 -168t-66 -171q-67 -65 -172 -66q-104 -1 -172 65t-68 171q0 104 68 168z" />
    <glyph glyph-name="utilde.smcp" unicode="&#xf690;" horiz-adv-x="1216" 
d="M971 1128q47 0 96 -6v-594q0 -404 -247 -511q-87 -37 -212 -37q-241 1 -351 142q-109 141 -107 406v594q51 6 101 6t99 -6v-553q0 -217 58 -316t201 -99q142 0 200 99q57 99 57 316v551q58 8 105 8zM440 1524q54 0 132 -34q79 -34 119 -52q40 -16 94 -16t126 69
q47 -57 68 -121q-98 -98 -205 -98q-70 0 -175 50t-152 50t-77 -17t-69 -52q-57 72 -68 116q94 105 207 105z" />
    <glyph glyph-name="ubreve.smcp" unicode="&#xf691;" horiz-adv-x="1216" 
d="M971 1128q47 0 96 -6v-594q0 -404 -247 -511q-87 -37 -212 -37q-241 1 -351 142q-109 141 -107 406v594q51 6 101 6t99 -6v-553q0 -217 58 -316t201 -99q142 0 200 99q57 99 57 316v551q58 8 105 8zM264 1485q57 10 91 10t89 -10q6 -45 41 -78t121 -33t121 33t41 78
q51 10 85 10t97 -10q-14 -134 -134 -199q-80 -43 -209 -43q-130 0 -195 35q-66 35 -103 82t-45 125z" />
    <glyph glyph-name="wgrave.smcp" unicode="&#xf692;" horiz-adv-x="1640" 
d="M180 1128q40 0 82 -8l213 -907l250 907q58 8 105 8t96 -8l252 -921l217 921q39 8 92 8t102 -8l-309 -1120q-46 -8 -108 -8t-117 8l-238 846l-246 -846l-116 -8q-57 0 -101 8l-303 1120q4 1 70 8h59zM567 1477q73 10 137 10t146 -10l215 -222q-47 -8 -106 -8t-111 8z" />
    <glyph glyph-name="wacute.smcp" unicode="&#xf693;" horiz-adv-x="1640" 
d="M180 1128q40 0 82 -8l213 -907l250 907q58 8 105 8t96 -8l252 -921l217 921q39 8 92 8t102 -8l-309 -1120q-46 -8 -108 -8t-117 8l-238 846l-246 -846l-116 -8q-57 0 -101 8l-303 1120q4 1 70 8h59zM786 1255q-54 -8 -108 -8q-53 0 -111 8l217 222q82 10 145 10t136 -10z
" />
    <glyph glyph-name="wcircumflex.smcp" unicode="&#xf694;" horiz-adv-x="1640" 
d="M180 1128q40 0 82 -8l213 -907l250 907q58 8 105 8t96 -8l252 -921l217 921q39 8 92 8t102 -8l-309 -1120q-46 -8 -108 -8t-117 8l-238 846l-246 -846l-116 -8q-57 0 -101 8l-303 1120q4 1 70 8h59zM1090 1247h-46q-62 0 -94 8l-133 125l-133 -125q-36 -8 -96 -8h-47
q-44 0 -84 8l241 222q46 8 117 8t123 -8l236 -222q-36 -8 -84 -8z" />
    <glyph glyph-name="wdieresis.smcp" unicode="&#xf695;" horiz-adv-x="1640" 
d="M180 1128q40 0 82 -8l213 -907l250 907q58 8 105 8t96 -8l252 -921l217 921q39 8 92 8t102 -8l-309 -1120q-46 -8 -108 -8t-117 8l-238 846l-246 -846l-116 -8q-57 0 -101 8l-303 1120q4 1 70 8h59zM920 1384q0 41 10 99q50 8 104 8t111 -8q6 -53 6 -105t-6 -102
q-58 -8 -112 -8t-103 8q-10 67 -10 108zM483 1378q0 51 6 105q58 8 112 8t104 -8q8 -47 8 -103t-8 -104q-50 -8 -104 -8t-112 8q-6 51 -6 102z" />
    <glyph glyph-name="ygrave.smcp" unicode="&#xf696;" horiz-adv-x="1036" 
d="M29 1122q46 8 111 8q66 0 110 -8l278 -549l271 549q36 8 100 8t109 -8l-387 -727v-395q-47 -8 -100 -8t-101 8v395zM227 1477q73 10 137 10t146 -10l215 -222q-47 -8 -106 -8t-111 8z" />
    <glyph glyph-name="yacute.smcp" unicode="&#xf697;" horiz-adv-x="1036" 
d="M29 1122q46 8 111 8q66 0 110 -8l278 -549l271 549q36 8 100 8t109 -8l-387 -727v-395q-47 -8 -100 -8t-101 8v395zM543 1255q-54 -8 -109 -8q-54 0 -110 8l217 222q82 10 146 10t134 -10z" />
    <glyph glyph-name="ycircumflex.smcp" unicode="&#xf698;" horiz-adv-x="1036" 
d="M29 1122q46 8 111 8q66 0 110 -8l278 -549l271 549q36 8 100 8t109 -8l-387 -727v-395q-47 -8 -100 -8t-101 8v395zM788 1247h-45q-62 0 -94 8l-133 125l-133 -125q-36 -8 -96 -8h-47q-44 0 -84 8l241 222q46 8 117 8t123 -8l235 -222q-36 -8 -84 -8z" />
    <glyph glyph-name="ydieresis.smcp" unicode="&#xf699;" horiz-adv-x="1036" 
d="M29 1122q46 8 111 8q66 0 110 -8l278 -549l271 549q36 8 100 8t109 -8l-387 -727v-395q-47 -8 -100 -8t-101 8v395zM629 1483q50 8 104 8t111 -8q6 -53 6 -105t-6 -102q-58 -8 -111 -8q-54 0 -104 8q-17 116 0 207zM182 1378q0 51 6 105q58 8 113 8t102 -8
q19 -110 0 -207q-49 -8 -103 -8t-112 8q-6 51 -6 102z" />
    <glyph glyph-name="zdotaccent.smcp" unicode="&#xf69a;" horiz-adv-x="980" 
d="M111 1036q0 46 8 86h811l10 -18l-584 -932h547q6 -43 6 -88t-6 -84h-842l-14 18l582 932h-510q-8 40 -8 86zM418 1274q-8 47 -8 103t8 108q48 10 112 10t111 -10q8 -47 8 -103t-8 -108q-48 -10 -111 -10q-64 0 -112 10z" />
    <glyph glyph-name="zacute.smcp" unicode="&#xf69b;" horiz-adv-x="980" 
d="M111 1036q0 46 8 86h811l10 -18l-584 -932h547q6 -43 6 -88t-6 -84h-842l-14 18l582 932h-510q-8 40 -8 86zM575 1255q-54 -8 -107 -8q-54 0 -112 8l217 222q83 10 147 10t134 -10z" />
    <glyph glyph-name="zcaron.smcp" unicode="&#xf69d;" horiz-adv-x="980" 
d="M111 1036q0 46 8 86h811l10 -18l-584 -932h547q6 -43 6 -88t-6 -84h-842l-14 18l582 932h-510q-8 40 -8 86zM279 1485h45q30 0 94 -8q73 -69 133 -127l133 127q72 8 96 8h47q20 0 42 -3t42 -5l-241 -222q-46 -8 -117 -8t-123 8l-235 222q72 8 84 8z" />
    <glyph glyph-name="percent.smcp" unicode="&#xf69e;" horiz-adv-x="1955" 
d="M90 790q0 150 86 251q86 100 241 100t243 -99t89 -251t-87 -253q-88 -100 -244 -100t-242 101t-86 251zM256 788q0 -219 164 -221q80 1 121 59t41 162q0 224 -162 226q-80 0 -122 -60t-42 -166zM1206 328q0 150 86 250t242 100t244 -99t89 -250t-87 -253
q-88 -101 -244 -101t-243 101q-87 102 -87 252zM1374 326q0 -222 164 -224q80 0 121 60t41 164q0 221 -162 223q-82 1 -123 -59t-41 -164zM1374 1141q51 0 99 -8l-781 -1137q-39 -8 -89 -8t-97 8l776 1137q41 8 92 8z" />
    <glyph glyph-name="perthousand.smcp" unicode="&#xf69f;" horiz-adv-x="2748" 
d="M2081 572q91 106 247 106q157 0 244 -101q86 -101 86 -251t-86 -250q-86 -101 -244 -101q-157 0 -243 101t-86 253q0 151 82 243zM2167 326q0 -222 162 -224q79 0 121 60t42 164q0 221 -163 223q-80 1 -121 -59t-41 -164zM90 790q0 150 86 251q86 100 241 100t243 -99
t89 -251t-87 -253q-88 -100 -244 -100t-242 101t-86 251zM256 788q0 -219 164 -221q80 1 121 59t41 162q0 224 -162 226q-80 0 -122 -60t-42 -166zM1206 328q0 150 86 250t242 100t244 -99t89 -250t-87 -253q-88 -101 -244 -101t-243 101q-87 102 -87 252zM1374 326
q0 -222 164 -224q80 0 121 60t41 164q0 221 -162 223q-82 1 -123 -59t-41 -164zM1374 1141q51 0 99 -8l-781 -1137q-39 -8 -89 -8t-97 8l776 1137q41 8 92 8z" />
    <glyph glyph-name="slash.smcp" unicode="&#xf6a0;" horiz-adv-x="696" 
d="M538 1128q46 0 99 -6l-381 -1122q-54 -8 -100 -8t-95 8l379 1122q52 6 98 6z" />
    <glyph glyph-name="backslash.smcp" unicode="&#xf6a1;" horiz-adv-x="696" 
d="M635 0q-49 -8 -95 -8t-100 8l-381 1122q51 6 97 6t100 -6z" />
    <glyph glyph-name="at.smcp" unicode="&#xf6a2;" horiz-adv-x="1406" 
d="M764 760q-41 0 -84 -24t-74 -62q-65 -79 -65 -195q0 -127 123 -127q54 0 108 25l68 375q-35 8 -76 8zM90 462q0 122 42 243t131 219t227 160t343 62t350 -116q144 -117 144 -340q0 -180 -98 -323q-98 -144 -264 -144q-88 0 -150 49q-80 -51 -191 -52q-110 0 -178 58
t-68 166q1 204 122 328q121 125 288 125q113 0 220 -33q-43 -227 -90 -495q28 -17 67 -17t79 32q78 62 106 191q13 59 14 115q0 156 -102 242t-256 86q-156 0 -260 -45q-211 -91 -287 -298q-37 -99 -37 -201q0 -192 104 -279q104 -88 256 -90q152 -1 260 38q27 -52 35 -120
q-111 -47 -256 -47q-389 -1 -510 272q-41 92 -41 214z" />
    <glyph glyph-name="parenleft.smcp" unicode="&#xf6a3;" horiz-adv-x="567" 
d="M498 -66q-36 -8 -90 -8q-53 0 -97 8q-110 135 -155 437q-14 94 -15 192q0 286 105 520q31 68 65 111q46 8 94 8q49 0 93 -8q-71 -131 -100 -217q-28 -87 -46 -189t-18 -225q0 -216 62 -404q28 -85 102 -225z" />
    <glyph glyph-name="parenright.smcp" unicode="&#xf6a4;" horiz-adv-x="571" 
d="M70 1194q46 8 94 8t92 -8q113 -148 156 -437q14 -95 14 -193t-21 -240q-21 -141 -68 -244q-48 -103 -81 -146q-46 -8 -96 -8t-90 8q71 130 99 217q64 199 64 412q0 310 -116 542q-29 56 -47 89z" />
    <glyph glyph-name="braceleft.smcp" unicode="&#xf6a5;" horiz-adv-x="608" 
d="M207 211q-1 159 -17 207q-16 47 -44 77t-76 56v24q92 48 119 133q18 55 18 203q0 149 80 215t252 72q6 -37 6 -73t-6 -72q-90 0 -121 -43t-31 -129v-47q0 -167 -63 -233q-20 -22 -45 -40q47 -31 75 -86t31 -164q6 -49 8 -91q3 -42 15 -73q26 -65 131 -65q6 -43 6 -81
t-6 -71q-332 0 -332 281z" />
    <glyph glyph-name="braceright.smcp" unicode="&#xf6a6;" horiz-adv-x="608" 
d="M399 211q0 -281 -331 -281q-13 72 0 152q106 0 131 65q12 31 14 73t8 91q2 109 31 164t76 86q-55 39 -73 82q-36 82 -36 191v47q0 86 -31 129t-120 43q-13 78 0 145q172 -6 252 -73t79 -216t15 -195q31 -90 123 -139v-24q-94 -52 -116 -118q-22 -67 -22 -222z" />
    <glyph glyph-name="bracketleft.smcp" unicode="&#xf6a7;" horiz-adv-x="665" 
d="M156 1198h442q6 -41 6 -82t-6 -78h-256v-950h256q6 -37 6 -78t-6 -80h-442v1268z" />
    <glyph glyph-name="bracketright.smcp" unicode="&#xf6a8;" horiz-adv-x="665" 
d="M510 -70h-442q-13 87 0 158h256v950h-256q-13 82 0 160h442v-1268z" />
    <glyph glyph-name="asterisk.smcp" unicode="&#xf6a9;" horiz-adv-x="993" 
d="M811 657q-32 -35 -102 -75l-170 206q68 63 129 93zM893 1143q33 -57 41 -121l-250 -98q-35 70 -47 151zM322 582q-72 40 -103 75l143 224q63 -31 130 -93zM393 1075q-12 -82 -47 -151l-250 98q8 63 41 121zM513 1096q-48 0 -77 6l17 266q31 6 61 6t66 -6l16 -266
q-34 -6 -83 -6z" />
    <glyph glyph-name="quoteleft.smcp" unicode="&#xf6aa;" horiz-adv-x="528" 
d="M102 1120q50 8 101 8q52 0 100 -8l121 -456q-52 -9 -99 -9q-48 0 -96 9z" />
    <glyph glyph-name="quoteright.smcp" unicode="&#xf6ab;" horiz-adv-x="528" 
d="M223 1120q50 8 103 8q52 0 100 -8l-127 -456q-61 -9 -106 -9q-46 0 -91 9z" />
    <glyph glyph-name="quotedblleft.smcp" unicode="&#xf6ac;" horiz-adv-x="927" 
d="M500 1120q50 8 101 8t99 -8l121 -456q-52 -9 -99 -9q-48 0 -95 9zM102 1120q50 8 101 8q52 0 100 -8l121 -456q-52 -9 -99 -9q-48 0 -96 9z" />
    <glyph glyph-name="quotedblright.smcp" unicode="&#xf6ad;" horiz-adv-x="927" 
d="M621 1120q50 8 102 8t100 -8l-127 -456q-61 -9 -107 -9t-89 9zM223 1120q50 8 103 8q52 0 100 -8l-127 -456q-61 -9 -106 -9q-46 0 -91 9z" />
    <glyph glyph-name="zero.alt" unicode="&#xf800;" horiz-adv-x="1306" 
d="M311 657q0 -253 93 -377t248 -124t247 124t92 378t-92 378q-92 125 -247 125t-248 -125t-93 -379zM94 657q0 308 147 496t413 188t413 -189t146 -495t-149 -494t-413 -188q-262 0 -409 187q-148 187 -148 495z" />
    <glyph glyph-name="one.alt" unicode="&#xf801;" horiz-adv-x="999" 
d="M659 1331v-1157h293q6 -47 6 -88t-6 -86h-800q-18 92 0 174h307v881l-297 -135q-41 50 -78 151l545 260h30z" />
    <glyph glyph-name="two.alt" unicode="&#xf802;" horiz-adv-x="1036" 
d="M963 82q0 -46 -9 -82h-911l-12 27l401 469q138 165 176 223q76 120 76 223t-70 160t-183 57q-113 -1 -181 -23t-131 -51q-46 119 -51 172q72 31 158 58t198 27q222 -1 348 -98q127 -96 127 -288q0 -137 -76 -266t-215 -287l-196 -223h542q9 -52 9 -98z" />
    <glyph glyph-name="three.alt" unicode="&#xf803;" horiz-adv-x="1083" 
d="M770 338q0 127 -84 188q-84 62 -203 62t-182 -17l-16 29l342 539h-527q-8 41 -8 89t8 93h830l14 -25l-373 -567q7 2 15 2h16q180 0 278 -114q97 -114 97 -253q0 -254 -162 -384t-414 -130q-199 0 -370 68q10 78 63 172q144 -59 301 -59q261 0 345 165q30 58 30 142z" />
    <glyph glyph-name="four.alt" unicode="&#xf804;" horiz-adv-x="1236" 
d="M780 160h-698l-16 22l600 1176q90 -8 178 -68l-477 -950h413v389q50 8 100 8t99 -8v-389h188q9 -52 9 -98t-9 -82h-188v-281q-105 -16 -199 0v281z" />
    <glyph glyph-name="five.alt" unicode="&#xf805;" horiz-adv-x="1093" 
d="M770 340q0 280 -346 278q-109 0 -215 -36l-21 18q8 243 29 721h696q7 -40 7 -96q0 -55 -7 -86h-512l-12 -365q59 12 151 12t176 -28q168 -57 236 -222q33 -82 33 -198q0 -234 -163 -361t-425 -127q-188 0 -329 60q12 87 57 172q134 -49 272 -49q373 0 373 307z" />
    <glyph glyph-name="six.alt" unicode="&#xf806;" horiz-adv-x="1200" 
d="M617 766q-124 0 -206 -85t-82 -231q1 -147 73 -223q72 -75 200 -75t210 82t81 227q0 82 -22 139q-64 166 -254 166zM610 -25q-501 0 -501 592q0 379 187 625q204 268 593 299q16 -49 16 -93t-8 -79q-244 -23 -391 -176q-146 -154 -187 -395q45 78 133 134t194 56
q316 0 423 -259q37 -89 37 -211q0 -232 -149 -362q-148 -131 -347 -131z" />
    <glyph glyph-name="seven.alt" unicode="&#xf807;" horiz-adv-x="1032" 
d="M25 1228q0 49 8 93h973l8 -14l-623 -1459q-115 25 -190 86l524 1205h-692q-8 40 -8 89z" />
    <glyph glyph-name="eight.alt" unicode="&#xf808;" horiz-adv-x="1200" 
d="M602 858q100 29 151 72q50 43 69 83t20 91q0 92 -60 147t-180 55q-119 0 -179 -54q-60 -56 -61 -148q0 -139 149 -210q44 -22 91 -36zM313 395q0 -115 74 -181t216 -64q142 0 215 66t73 179q0 162 -175 253q-53 28 -114 46q-203 -60 -266 -194q-23 -47 -23 -105z
M1108 365q0 -97 -43 -174t-115 -125q-139 -92 -348 -91q-210 0 -348 92q-158 105 -158 310q0 153 89 252t214 151q-98 47 -167 130t-68 208q0 159 125 257t313 98t314 -100t124 -255q0 -127 -68 -209t-169 -129q53 -23 107 -55q198 -121 198 -360z" />
    <glyph glyph-name="nine.alt" unicode="&#xf809;" horiz-adv-x="1200" 
d="M385 616q69 -69 195 -69t208 85q81 85 81 230q-1 146 -73 222t-199 77q-126 0 -209 -79t-83 -230q0 -152 80 -236zM1090 745q0 -377 -188 -624q-204 -268 -593 -299q-16 38 -16 88t8 86q243 19 396 177q153 157 180 392q-43 -78 -131 -135t-194 -57q-316 0 -423 259
q-37 89 -37 211t42 214q81 178 270 249q89 32 184 31q502 0 502 -592z" />
    <glyph glyph-name="zero.sups" unicode="&#xf80a;" horiz-adv-x="921" 
d="M80 1283q0 187 98 311t285 124t287 -123t100 -311q0 -294 -215 -399q-72 -35 -170 -35t-171 35q-214 103 -214 398zM465 997q197 0 197 286t-197 286t-197 -285q0 -137 46 -212t151 -75z" />
    <glyph glyph-name="one.sups" unicode="&#xf80b;" horiz-adv-x="921" 
d="M213 944q0 42 10 74h197v469l-191 -78q-45 45 -67 131l395 162h35v-684h190q18 -77 0 -146h-559q-10 30 -10 72z" />
    <glyph glyph-name="two.sups" unicode="&#xf80c;" horiz-adv-x="921" 
d="M782 947q0 -41 -4 -75h-633l-10 25q66 70 186 191q230 234 230 355q0 107 -170 105q-92 0 -174 -35q-30 81 -39 146q123 45 255 45t220 -66t88 -173t-47 -190t-139 -175l-80 -80h313q4 -32 4 -73z" />
    <glyph glyph-name="three.sups" unicode="&#xf80d;" horiz-adv-x="921" 
d="M600 1131q0 73 -53 103t-112 30t-89 -9l-22 25l178 272h-287q-6 37 -6 71t6 71h524l17 -31l-201 -291q100 -11 162 -80q61 -69 61 -145t-28 -130q-89 -169 -349 -169q-133 0 -241 35q8 76 41 139q116 -35 197 -35t142 36q60 36 60 108z" />
    <glyph glyph-name="four.sups" unicode="&#xf80e;" horiz-adv-x="921" 
d="M807 1100q0 -44 -8 -70h-99v-158q-42 -6 -82 -6t-79 6v158h-426l-17 27l336 665q82 -10 150 -49l-244 -497h201v161q37 6 79 6t82 -6v-161h99q8 -32 8 -76z" />
    <glyph glyph-name="five.sups" unicode="&#xf80f;" horiz-adv-x="921" 
d="M455 1405q141 1 226 -67t85 -204t-108 -211t-289 -75h-21q-109 4 -209 37q9 89 43 143q98 -35 189 -35q215 0 217 150q0 49 -42 88t-135 39t-171 -25l-23 21l21 426h483q6 -20 6 -64t-8 -78h-328l-10 -153q32 8 74 8z" />
    <glyph glyph-name="six.sups" unicode="&#xf810;" horiz-adv-x="921" 
d="M637 1141q-1 145 -159 145q-70 0 -110 -37q-42 -37 -42 -109t40 -113q40 -40 110 -40t116 38q45 38 45 116zM645 1722q17 -34 17 -78t-3 -59q-123 -11 -215 -73t-127 -177q35 33 85 60t152 27t180 -72q78 -70 79 -207q0 -137 -100 -217t-249 -80t-238 91t-89 261
q0 217 133 363q134 146 375 161z" />
    <glyph glyph-name="seven.sups" unicode="&#xf811;" horiz-adv-x="921" 
d="M180 1615q0 44 6 79h619l12 -19l-381 -821q-67 12 -160 64l299 632h-389q-6 21 -6 65z" />
    </font>
</defs>
</svg>
