<?xml version="1.0" standalone="no"?>
<!DOCTYPE svg PUBLIC "-//W3C//DTD SVG 1.1//EN" "http://www.w3.org/Graphics/SVG/1.1/DTD/svg11.dtd" >
<svg xmlns="http://www.w3.org/2000/svg">
<metadata>
Created by FontPrep 20130207 at Tue May 17 16:57:01 2016
 By Mauricio A Duran D
</metadata>
<defs>
<font id="a7a0e1609682bda1009bcac0e0d8a9e4" horiz-adv-x='1024' >
  <font-face 
    font-family="Aller-LightItalic"
    font-weight="400"
    font-style="italic"
    font-stretch="normal"
    units-per-em="2048"
    panose-1="2 0 5 6 4 0 0 9 0 4"
    ascent="1638"
    descent="-410"
    x-height="1044"
    cap-height="1477"
    bbox="-481 -506 2769 1955.02"
    underline-thickness="102"
    underline-position="-102"
    slope="-12"
    unicode-range="U+0020-FB04"
  />
<missing-glyph horiz-adv-x="972" 
 />
    <glyph glyph-name="ff" unicode="ff" horiz-adv-x="1253" 
d="M-40 -381q52 0 92 10q81 20 121 122q22 54 36 140l182 1039h-170q0 70 19 114h170l16 93q35 193 125 289t262 96q91 0 137 -23q-10 -42 -43 -115q-53 21 -101 21t-87 -12q-120 -37 -158 -263l-16 -86h465l16 93q35 193 125 289t262 96q91 0 137 -23q-10 -42 -43 -115
q-52 21 -101 21q-48 0 -87 -12q-120 -37 -158 -263l-16 -86h272q0 -69 -18 -114h-273l-182 -1045q-35 -205 -126 -295t-261 -90q-91 0 -137 23q13 52 41 115q48 -19 99 -19q52 0 91 10q81 21 120 122q22 54 38 140l182 1039h-465l-182 -1045q-35 -205 -126 -295t-261 -90
q-91 0 -137 23q13 52 41 115q47 -19 99 -19z" />
    <glyph glyph-name="fi" unicode="fi" horiz-adv-x="1148" 
d="M-40 -381q52 0 92 10q81 20 121 122q22 54 36 140l182 1039h-170q0 70 19 114h170l16 93q35 193 134 289t274 96q113 0 253 -42q31 -9 43 -16q-7 -58 -43 -114q-130 53 -251 54t-185 -59t-90 -215l-16 -86h606l-182 -1044q-23 -4 -69 -4t-66 4l163 930h-471l-182 -1045
q-35 -205 -125 -295t-262 -90q-91 0 -137 23q13 52 41 115q47 -19 99 -19z" />
    <glyph glyph-name="fl" unicode="fl" horiz-adv-x="1224" 
d="M-40 -381q52 0 92 10q81 20 121 122q22 54 36 140l182 1039h-170q0 70 19 114h170l16 93q35 193 134 289t282 96t358 -62q2 -23 2 -40v-38q0 -28 -12 -125q-12 -96 -27 -167l-149 -848q-6 -31 -6 -59t13 -53t39 -30q27 -4 62 -4t72 13q17 -49 12 -107q-62 -20 -143 -20
q-192 0 -195 165q0 27 6 64l142 809q45 276 49 350q-90 35 -188 35q-99 0 -143 -12q-135 -36 -173 -263l-16 -86h272q0 -69 -18 -114h-273l-182 -1045q-35 -205 -125 -295t-262 -90q-91 0 -137 23q13 52 41 115q47 -19 99 -19z" />
    <glyph glyph-name="ffi" unicode="ffi" horiz-adv-x="1755" 
d="M-40 -381q52 0 92 10q81 20 121 122q22 54 36 140l182 1039h-170q0 70 19 114h170l16 93q35 193 125 289t262 96q91 0 137 -23q-10 -42 -43 -115q-53 21 -101 21t-87 -12q-120 -37 -158 -263l-16 -86h469l16 93q35 193 134 289t274 96q109 0 254 -42q31 -9 43 -16
q-6 -54 -43 -114q-130 53 -252 54t-185 -60q-64 -61 -90 -214l-16 -86h606l-182 -1044q-74 -12 -135 0l164 930h-472l-182 -1045q-35 -205 -125 -295t-262 -90q-91 0 -137 23q13 52 41 115q48 -19 99 -19q52 0 92 10q81 20 121 122q22 54 36 140l182 1039h-469l-182 -1045
q-35 -205 -126 -295t-261 -90q-91 0 -137 23q13 52 41 115q47 -19 99 -19z" />
    <glyph glyph-name="ffl" unicode="ffl" horiz-adv-x="1837" 
d="M-40 -381q52 0 92 10q81 20 121 122q22 54 36 140l182 1039h-170q0 70 19 114h170l16 93q35 193 125 289t262 96q91 0 137 -23q-10 -42 -43 -115q-53 21 -101 21t-87 -12q-120 -37 -158 -263l-16 -86h477l16 93q35 193 134 289t255 96q216 1 385 -62q3 -34 3 -67
q-1 -33 -5 -69t-11 -90t-23 -144l-150 -848q-6 -31 -6 -59q0 -87 96 -87q54 0 90 13q18 -51 13 -107q-62 -20 -144 -20q-194 0 -194 165q0 27 6 64l141 809q45 276 49 350q-90 35 -188 35t-142 -12q-138 -38 -173 -263l-17 -86h273q0 -66 -19 -114h-272l-183 -1045
q-35 -205 -125 -295t-262 -90q-91 0 -137 23q10 41 20 63t21 52q48 -19 99 -19q113 0 168 54t81 218l183 1039h-478l-182 -1045q-35 -205 -126 -295t-261 -90q-91 0 -137 23q13 52 41 115q47 -19 99 -19z" />
    <glyph glyph-name=".notdef" horiz-adv-x="972" 
 />
    <glyph glyph-name=".null" horiz-adv-x="0" 
 />
    <glyph glyph-name="nonmarkingreturn" horiz-adv-x="972" 
 />
    <glyph glyph-name="space" unicode=" " horiz-adv-x="485" 
 />
    <glyph glyph-name="exclam" unicode="!" horiz-adv-x="550" 
d="M267 -6q-46 0 -70 6q0 71 28 174q37 6 80 6t78 -6q0 -83 -29 -174q-41 -6 -87 -6zM467 1473q32 4 67 4t78 -4l-192 -1053q-32 -4 -68 -4t-63 4z" />
    <glyph glyph-name="quotedbl" unicode="&#x22;" horiz-adv-x="739" 
d="M350 1473q28 4 71 4t73 -4l-97 -551q-28 -4 -71 -4q-42 0 -72 4zM739 1473q28 4 71 4t73 -4l-97 -551q-28 -4 -71 -4q-42 0 -72 4z" />
    <glyph glyph-name="numbersign" unicode="#" horiz-adv-x="1431" 
d="M993 555l103 406h-396l-102 -406h395zM1503 1047q0 -14 -18 -86h-252l-105 -406h242q0 -25 -8 -57q-4 -33 -12 -62h-252l-97 -377q-20 -2 -45 -2h-51q-26 0 -37 2l95 377h-396l-94 -377q-23 -2 -48 -2h-50q-26 0 -43 2l96 377h-256l8 58l13 61h266l104 406h-258l8 57
q4 18 6 30t7 29h268l88 338q23 4 47 4h48q25 0 40 -2l-86 -340h393l86 338q23 4 48 4h49q24 0 43 -2l-88 -340h243q-2 -16 -2 -30z" />
    <glyph glyph-name="dollar" unicode="$" 
d="M543 1108q0 -90 60 -152q61 -62 163 -113q102 -52 162 -91q121 -78 154 -181q18 -53 18 -135t-32 -160q-32 -80 -90 -139q-121 -123 -321 -151l-39 -228q-30 -6 -60 -6t-56 6l37 217h-9q-133 0 -285 44q-38 11 -57 22q20 79 52 127q70 -25 140 -43t177 -19q187 0 287 86
t100 232q0 174 -192 266q-192 93 -251 146q-110 99 -110 251q-1 152 105 256t307 125l28 181q31 6 60 6t57 -6l-28 -174q155 -7 284 -58q-14 -75 -49 -127q-113 60 -276 61q-336 2 -336 -243z" />
    <glyph glyph-name="percent" unicode="%" horiz-adv-x="1988" 
d="M1642 1448q32 4 79 4t89 -4l-1241 -1448q-23 -4 -53 -4h-66q-36 0 -51 4zM539 604q-152 0 -227 94t-74 252q0 201 107 361t310 162q158 -1 233 -95t75 -274t-111 -340t-313 -160zM551 719q125 0 201 131q63 109 63 268q0 240 -170 240q-125 0 -198 -132
q-62 -112 -62 -270q0 -237 166 -237zM1554 -23q-301 0 -301 367q0 178 109 340t309 162q158 0 233 -94t74 -252q0 -205 -110 -364q-111 -159 -314 -159zM1567 92q126 0 200 131q64 111 64 269q0 240 -170 239q-125 0 -198 -132q-62 -112 -62 -269q0 -238 166 -238z" />
    <glyph glyph-name="ampersand" unicode="&#x26;" horiz-adv-x="1449" 
d="M772 809q-187 0 -303 -118q-115 -118 -115 -302q0 -127 76 -205t228 -78t235 34q153 63 209 234q27 81 43 173l45 262h-418zM1241 1186v22q76 23 133 23q2 -23 2 -40v-59q0 -42 -26 -198h243q-12 -89 -22 -125h-244l-63 -365q-41 -231 -193 -350t-387 -119
q-236 -1 -366 101t-130 309q0 163 94 294t253 187q-65 29 -97 66q-69 82 -69 181q0 182 128 284t291 101t271 -40q-14 -68 -45 -110q-116 34 -230 34t-191 -70t-77 -178q0 -107 80 -159q62 -41 160 -41h456q29 154 29 252z" />
    <glyph glyph-name="quotesingle" unicode="'" horiz-adv-x="350" 
d="M350 1473q28 4 71 4t73 -4l-97 -551q-28 -4 -71 -4q-42 0 -72 4z" />
    <glyph glyph-name="parenleft" unicode="(" horiz-adv-x="620" 
d="M393 252q0 -333 103 -594q-20 -2 -46 -2h-51q-25 0 -39 2q-43 92 -73 248q-31 156 -31 348q0 481 211 939q111 245 233 396q24 4 63 4t73 -4q-126 -183 -194 -321q-249 -506 -249 -1016z" />
    <glyph glyph-name="parenright" unicode=")" horiz-adv-x="620" 
d="M420 995q0 333 -103 594q20 2 46 2h51q24 0 39 -2q43 -92 73 -248t31 -348q0 -192 -30 -357q-82 -449 -299 -809q-60 -101 -115 -169q-46 -4 -75 -4t-61 4q126 183 194 321q249 506 249 1016z" />
    <glyph glyph-name="asterisk" unicode="*" horiz-adv-x="946" 
d="M1040 1194q0 -26 -2 -37l-250 -90q-16 55 -16 121l256 69q12 -37 12 -63zM647 940q61 49 115 80l100 -215q-53 -45 -98 -64zM508 1016q63 -44 88 -76l-188 -201q-45 25 -74 64zM276 1157q15 55 50 100l227 -71q-18 -63 -57 -121zM608 1219l58 251q55 12 104 0l-35 -251
q-20 -5 -65 -5t-62 5z" />
    <glyph glyph-name="plus" unicode="+" 
d="M1157 782q0 -74 -18 -129h-355l-67 -381q-16 -4 -43 -4h-53q-27 0 -41 4l67 381h-352q0 75 18 129h357l67 381q28 4 66 4q39 0 71 -4l-67 -381h350z" />
    <glyph glyph-name="comma" unicode="," horiz-adv-x="399" 
d="M188 174q32 4 70 4t72 -4l-174 -405q-25 -5 -60 -5h-51q-16 0 -33 5z" />
    <glyph glyph-name="hyphen" unicode="-" horiz-adv-x="686" 
d="M739 653q0 -31 -7 -59t-10 -48t-7 -32h-520q4 72 24 139h520z" />
    <glyph glyph-name="period" unicode="." horiz-adv-x="399" 
d="M187 -6q-47 0 -74 6q0 71 28 174q43 6 88 6t86 -6q0 -71 -28 -174q-53 -6 -100 -6z" />
    <glyph glyph-name="slash" unicode="/" horiz-adv-x="714" 
d="M791 1473q31 6 74 6t67 -6l-733 -1473q-25 -6 -69 -6t-71 6z" />
    <glyph glyph-name="zero" unicode="0" 
d="M352 428q0 -215 139 -295q54 -31 147 -31t179 54q176 111 250 401q37 143 37 322q0 216 -138 295q-54 30 -148 30t-179 -54t-149 -156q-138 -220 -138 -566zM625 -25q-133 0 -213 45q-206 117 -207 410q0 381 173 637q83 123 200 194t252 71q134 0 214 -46
q149 -84 190 -262q17 -80 17 -147q0 -186 -45 -351q-93 -338 -329 -480q-118 -71 -252 -71z" />
    <glyph glyph-name="one" unicode="1" 
d="M266 0q0 63 21 123h342l172 979l-322 -152q-44 64 -49 115l535 262h16l-213 -1204h315q0 -56 -20 -123h-797z" />
    <glyph glyph-name="two" unicode="2" 
d="M1028 127q0 -60 -20 -127h-867l-6 25l455 428q92 89 164 161q215 216 215 396q1 86 -53 141t-170 55t-196 -28q-79 -28 -144 -56q-18 36 -23 119q194 92 369 92q174 0 270 -84t96 -225q0 -219 -229 -458q-72 -75 -158 -154l-305 -285h602z" />
    <glyph glyph-name="three" unicode="3" 
d="M608 618q-81 0 -153 -16l-13 27l492 553h-572q0 56 21 129h801l6 -17l-500 -563q179 -4 278 -99q99 -96 99 -234q0 -259 -159 -409q-159 -151 -414 -151q-146 0 -294 45q-46 14 -75 31q19 55 65 119q48 -29 134 -48t176 -19q185 -1 303 108q117 109 117 299
q0 131 -81 188q-80 57 -231 57z" />
    <glyph glyph-name="four" unicode="4" 
d="M1196 285q0 -62 -20 -129h-209l-49 -279q-24 -4 -72 -4t-68 4l49 279h-669l-8 20l792 1182q58 -8 113 -60l-678 -1013h473l78 436q24 4 71 4q48 0 68 -4l-78 -436h207z" />
    <glyph glyph-name="five" unicode="5" 
d="M924 406q0 112 -66 178t-207 65q-67 0 -217 -22l-26 -4l-13 16l144 672h641q0 -59 -21 -129h-514l-88 -422q51 10 143 10q179 0 278 -98t98 -248q-2 -282 -177 -434t-420 -152q-200 0 -325 66q28 80 63 123q51 -23 111 -42t158 -19q199 -1 319 114q119 115 119 326z" />
    <glyph glyph-name="six" unicode="6" 
d="M393 365q-1 -177 141 -245q48 -24 131 -24q82 0 153 39t119 103q99 131 97 311q0 262 -254 262q-146 0 -267 -118q-120 -119 -120 -328zM829 932q154 0 251 -96q98 -96 98 -254q0 -284 -161 -446q-161 -161 -368 -161t-314 135q-89 111 -89 321t104 451q104 240 311 414
q208 173 500 203q10 -41 10 -61v-27q0 -6 -2 -35q-264 -32 -453 -198q-189 -167 -263 -428q140 182 376 182z" />
    <glyph glyph-name="seven" unicode="7" 
d="M352 1182q0 66 21 129h907l8 -8l-864 -1457q-78 10 -119 64l760 1272h-713z" />
    <glyph glyph-name="eight" unicode="8" 
d="M861 1362q-153 0 -243 -86q-77 -77 -77 -185t82 -172q49 -39 141 -71q323 92 321 315q0 103 -68 151q-69 48 -156 48zM344 334q0 -233 285 -238q176 0 278 92q103 92 103 213q0 218 -271 314q-277 -77 -366 -258q-29 -59 -29 -123zM848 1473q162 0 272 -76
q109 -76 109 -219t-95 -245t-239 -153q267 -120 265 -376q0 -88 -45 -172q-44 -84 -118 -140q-152 -117 -374 -117q-302 0 -394 183q-33 66 -33 156q1 243 257 395q73 42 153 71q-90 46 -130 94q-79 95 -81 220q0 78 36 146q75 143 247 203q86 30 170 30z" />
    <glyph glyph-name="nine" unicode="9" 
d="M674 489q143 0 265 118t122 329q0 175 -142 245q-50 23 -131 23t-152 -39t-119 -102q-99 -130 -97 -311q0 -263 254 -263zM276 758q0 118 48 229q94 223 293 300q95 38 198 38t179 -37q214 -103 214 -393q0 -236 -103 -475q-103 -240 -311 -413q-207 -173 -501 -206
q-13 75 -8 123q258 27 451 197t265 430q-140 -182 -377 -182t-321 205q-27 66 -27 184z" />
    <glyph glyph-name="colon" unicode=":" horiz-adv-x="399" 
d="M187 -6q-47 0 -74 6q0 71 28 174q43 6 88 6t86 -6q0 -71 -28 -174q-53 -6 -100 -6zM320 752q-47 0 -74 6q0 71 28 174q43 6 88 6t87 -6q0 -68 -29 -174q-53 -6 -100 -6z" />
    <glyph glyph-name="semicolon" unicode=";" horiz-adv-x="399" 
d="M150 174q32 4 70 4t71 -4l-174 -405q-25 -5 -59 -5h-52q-16 0 -33 5zM342 752q-47 0 -74 6q0 68 12 110t17 64q43 6 88 6t86 -6q0 -83 -29 -174q-53 -6 -100 -6z" />
    <glyph glyph-name="less" unicode="&#x3c;" 
d="M1208 1145q0 -70 -24 -154l-729 -286l628 -279q4 -70 -26 -145l-760 356q0 87 27 149z" />
    <glyph glyph-name="equal" unicode="=" 
d="M330 834q0 74 18 129h844q0 -75 -18 -129h-844zM266 457q0 75 19 129h843q0 -75 -18 -129h-844z" />
    <glyph glyph-name="greater" unicode="&#x3e;" 
d="M254 289q0 51 11 95t14 50l729 287l-629 278v9q0 80 27 137l759 -357q0 -82 -26 -149l-885 -358v8z" />
    <glyph glyph-name="question" unicode="?" horiz-adv-x="944" 
d="M455 184q47 0 88 -6q-9 -108 -35 -174q-41 -6 -86 -6t-84 6q5 110 31 174q39 6 86 6zM881 1120q0 113 -76 171q-76 59 -203 59t-270 -50q-6 20 -7 48t-6 57l-2 22q159 50 292 51q132 1 207 -28t125 -76q101 -95 99 -237q0 -174 -129 -306t-307 -182l-39 -229h-139l55 317
l72 23q224 66 302 234q26 56 26 126z" />
    <glyph glyph-name="at" unicode="@" horiz-adv-x="1978" 
d="M1268 1372q-220 0 -394 -80q-343 -158 -473 -510q-61 -168 -61 -340q0 -328 180 -493q164 -152 443 -152q173 0 340 58q23 -61 30 -109q-155 -65 -405 -65q-322 0 -528 193q-205 193 -205 558q0 261 115 495q194 395 630 523q154 45 326 45q528 0 697 -383
q56 -130 56 -280q0 -292 -139 -493q-153 -218 -399 -218q-133 0 -219 55q-108 -72 -293 -74q-146 0 -230 89t-85 228q-1 140 46 259t128 205t190 134t229 48t269 -41l-158 -758q40 -32 135 -34q174 -3 282 181q109 183 107 396q0 275 -161 419t-453 144zM1227 942
q-74 0 -154 -37t-139 -103q-129 -143 -129 -353q0 -115 50 -169t155 -54t209 53l133 649q-51 14 -125 14z" />
    <glyph glyph-name="A" unicode="A" horiz-adv-x="1173" 
d="M918 516l-107 803l-348 -803h455zM1141 0q-20 -4 -73 -4t-81 4l-51 385h-528l-166 -385q-32 -4 -81 -4t-73 4l657 1473q32 4 95 4t84 -4z" />
    <glyph glyph-name="B" unicode="B" horiz-adv-x="1179" 
d="M993 439q0 90 -24 139q-50 97 -169 122q-58 12 -126 13h-195l-106 -602q69 -11 156 -11q318 0 423 180q41 69 41 159zM682 846q170 0 260 85t90 210t-61 180t-211 55q-91 0 -166 -12l-92 -518h180zM768 1495q202 0 310 -77t108 -228t-83 -255t-212 -147q108 -17 181 -96
t74 -215q2 -253 -188 -386q-166 -116 -430 -116q-184 0 -317 25l258 1473q20 2 57 6q148 16 242 16z" />
    <glyph glyph-name="C" unicode="C" horiz-adv-x="1187" 
d="M399 559q1 -223 107 -340t294 -117t318 68q31 -47 37 -117q-160 -78 -393 -78q-232 -1 -373 147t-141 427q0 174 46 344q97 359 386 521q147 83 340 83t321 -49q-15 -69 -47 -121q-122 43 -276 43t-273 -68t-195 -180q-150 -222 -151 -563z" />
    <glyph glyph-name="D" unicode="D" horiz-adv-x="1396" 
d="M375 123q83 -12 231 -12t273 57q125 56 209 158q170 207 172 538q0 250 -111 377t-387 127q-88 0 -170 -14zM766 1495q347 0 505 -171q136 -147 136 -431q0 -386 -190 -631q-99 -129 -259 -208t-378 -79q-219 0 -369 25l258 1473q160 22 297 22z" />
    <glyph glyph-name="E" unicode="E" horiz-adv-x="1062" 
d="M1227 1473q0 -66 -23 -130h-614l-88 -497h493q0 -74 -22 -129h-494l-102 -588h633q-4 -72 -25 -129h-774l258 1473h758z" />
    <glyph glyph-name="F" unicode="F" horiz-adv-x="999" 
d="M354 0q-32 -4 -76 -4t-67 4l258 1473h694q-5 -79 -22 -130h-551l-88 -497h477q-5 -82 -23 -129h-477z" />
    <glyph glyph-name="G" unicode="G" horiz-adv-x="1343" 
d="M1018 1368q-154 0 -273 -68t-195 -180q-150 -219 -151 -561q1 -223 107 -340t305 -117q138 0 244 43l108 615q28 4 71 4t73 -4l-125 -703q-160 -78 -406 -82q-243 0 -386 155q-142 155 -142 421q0 398 183 652q95 132 245 213t343 81t322 -49q-16 -72 -47 -123
q-122 43 -276 43z" />
    <glyph glyph-name="H" unicode="H" horiz-adv-x="1361" 
d="M471 1473q25 4 71 4t70 -4l-110 -627h655l111 627q24 4 69 4q46 0 72 -4l-258 -1473q-25 -4 -73 -4t-68 4l125 717h-656l-125 -717q-24 -4 -72 -4t-69 4z" />
    <glyph glyph-name="I" unicode="I" horiz-adv-x="565" 
d="M471 1473q28 4 70 4t71 -4l-258 -1473q-32 -4 -76 -4t-65 4z" />
    <glyph glyph-name="J" unicode="J" horiz-adv-x="772" 
d="M98 131q73 -25 157 -27q84 -1 128 29q80 54 100 178l185 1037h-256q5 80 20 125h397l-206 -1180q-45 -254 -249 -302q-179 -41 -315 13q7 67 39 127z" />
    <glyph glyph-name="K" unicode="K" horiz-adv-x="1167" 
d="M1151 0q-46 -4 -87 -4t-75 4l-411 754l606 719q32 4 74 4t88 -4l-603 -715zM471 1473q28 4 70 4t71 -4l-258 -1473q-32 -4 -76 -4t-65 4z" />
    <glyph glyph-name="L" unicode="L" horiz-adv-x="1003" 
d="M469 1473q24 4 69 4t74 -4l-235 -1344h598q-5 -82 -25 -129h-739z" />
    <glyph glyph-name="M" unicode="M" horiz-adv-x="1624" 
d="M500 1473q24 4 80 4t86 -4l225 -977l555 977q24 4 83 4t87 -4l-184 -1473q-32 -4 -77 -4t-67 4l164 1239l-534 -934q-16 -4 -37 -4h-41q-20 0 -33 4l-223 934l-273 -1239q-31 -4 -75 -4t-66 4z" />
    <glyph glyph-name="N" unicode="N" horiz-adv-x="1376" 
d="M469 1473q28 4 76 4t71 -4l455 -1240l215 1240q24 4 68 4q45 0 69 -4l-256 -1473q-25 -4 -75 -4t-74 4l-455 1233l-213 -1233q-32 -4 -74 -4t-65 4z" />
    <glyph glyph-name="O" unicode="O" horiz-adv-x="1441" 
d="M737 104q121 0 225 67q214 138 300 447q43 154 43 288q0 237 -86 349q-86 113 -258 113q-248 0 -407 -242t-159 -602q0 -192 82 -306t260 -114zM738 -25q-140 0 -227 40t-145 112q-118 146 -118 366q0 433 203 714q96 134 231 212q136 78 278 78t230 -42t146 -115
q116 -146 116 -366q0 -440 -204 -715q-97 -132 -233 -208q-137 -76 -277 -76z" />
    <glyph glyph-name="P" unicode="P" horiz-adv-x="1136" 
d="M354 0q-32 -4 -76 -4t-67 4l258 1473q20 2 56 7t77 8t81 6q39 3 105 3t152 -20q173 -40 244 -179q35 -70 35 -192q1 -122 -49 -227q-169 -355 -713 -293zM618 707q213 0 331 97t118 300q0 150 -82 209t-260 59q-78 0 -133 -10l-113 -647q52 -8 139 -8z" />
    <glyph glyph-name="Q" unicode="Q" horiz-adv-x="1441" 
d="M737 104q121 0 225 67q214 138 300 447q43 154 43 288q0 237 -86 349q-86 113 -258 113q-248 0 -407 -242t-159 -602q0 -192 82 -306t260 -114zM738 -25q-140 0 -227 40t-145 112q-118 146 -118 366q0 433 203 714q96 134 231 212q136 78 278 78t230 -42t146 -115
q116 -146 116 -366q0 -440 -204 -715q-97 -132 -233 -208q-137 -76 -277 -76zM811 -186q9 54 47 123l428 -84q-13 -75 -47 -127z" />
    <glyph glyph-name="R" unicode="R" horiz-adv-x="1157" 
d="M726 1497q322 0 427 -187q37 -66 37 -170q0 -188 -128 -326q-87 -93 -259 -175l305 -639q-23 -4 -54 -4h-61q-30 0 -47 4l-330 688l82 35q146 62 207 117q131 118 131 278q0 258 -291 258q-73 0 -151 -10l-240 -1366q-32 -4 -74 -4t-69 4l260 1479q147 18 255 18z" />
    <glyph glyph-name="S" unicode="S" horiz-adv-x="1089" 
d="M352 1109q0 169 140 278q140 110 342 110q203 0 342 -57q-14 -76 -50 -127q-115 61 -274 61q-160 0 -254 -63t-94 -187q0 -93 50 -153t150 -112q189 -98 264 -183q76 -84 76 -210q0 -234 -160 -363q-160 -128 -387 -128q-228 0 -382 58q19 73 55 131q74 -25 142 -41
t165 -17q207 0 309 90t103 236q0 92 -36 141q-36 47 -80 79t-158 92t-167 116q-52 56 -74 112t-22 137z" />
    <glyph glyph-name="T" unicode="T" horiz-adv-x="1001" 
d="M283 1346q0 63 22 127h895q0 -63 -22 -127h-377l-236 -1346q-27 -4 -73 -4t-68 4l235 1346h-376z" />
    <glyph glyph-name="U" unicode="U" horiz-adv-x="1351" 
d="M453 1473q28 4 71 4q42 0 72 -4l-156 -889q-22 -134 -22 -217q0 -141 63 -199t188 -57q125 -1 196 31q137 61 200 241q31 88 51 201l156 889q28 4 71 4t72 -4l-164 -930q-52 -286 -188 -427q-135 -141 -393 -141q-399 0 -400 394q0 85 23 196z" />
    <glyph glyph-name="V" unicode="V" horiz-adv-x="1236" 
d="M342 1473q20 4 73 4t81 -4l176 -1319l569 1319q32 4 83 4t75 -4l-662 -1473q-32 -4 -96 -4t-84 4z" />
    <glyph glyph-name="W" unicode="W" horiz-adv-x="1828" 
d="M352 1473q24 4 75 4t75 -4l43 -1297l528 1297q24 4 86 4t90 -4l101 -1297l477 1297q31 4 81 4t72 -4l-571 -1473q-32 -4 -95 -4t-87 4l-101 1266l-522 -1266q-28 -4 -97 -4t-89 4z" />
    <glyph glyph-name="X" unicode="X" horiz-adv-x="1204" 
d="M1214 1473q32 4 72 4t78 -4l-473 -707l272 -766q-17 -4 -35 -4h-36q-40 0 -66 4l-281 770zM356 1473q40 4 76 4t70 -4l225 -703l-514 -770q-32 -4 -81 -4t-77 4l529 782z" />
    <glyph glyph-name="Y" unicode="Y" horiz-adv-x="1103" 
d="M297 1473q24 4 76 4t80 -4l225 -775l455 775q32 4 82 4t73 -4l-565 -936l-92 -537q-32 -4 -76 -4t-66 4l97 545z" />
    <glyph glyph-name="Z" unicode="Z" horiz-adv-x="1079" 
d="M1020 129q-10 -95 -25 -129h-905l-8 16l913 1327h-647q5 83 23 130h856l6 -15l-918 -1329h705z" />
    <glyph glyph-name="bracketleft" unicode="[" horiz-adv-x="688" 
d="M549 -229q-6 -73 -21 -115h-395l330 1876h395q-6 -78 -20 -117h-256l-289 -1644h256z" />
    <glyph glyph-name="backslash" unicode="\" horiz-adv-x="712" 
d="M373 1479q35 0 59 -6l219 -1473q-35 -6 -73 -6t-58 6l-221 1473q39 6 74 6z" />
    <glyph glyph-name="bracketright" unicode="]" horiz-adv-x="651" 
d="M-2 -344q6 76 20 117h256l289 1644h-256q6 73 21 115h395l-330 -1876h-395z" />
    <glyph glyph-name="asciicircum" unicode="^" horiz-adv-x="1071" 
d="M785 1479q48 0 85 -6l195 -711h-137l-160 598l-369 -598h-137l445 711q30 6 78 6z" />
    <glyph glyph-name="underscore" unicode="_" horiz-adv-x="985" 
d="M973 -49q0 -57 -19 -113h-974q-9 59 18 113h975z" />
    <glyph glyph-name="grave" unicode="`" horiz-adv-x="1024" 
d="M638 1485h59q24 0 46 -4l193 -267q-37 -6 -76 -6t-76 6l-229 267q47 4 83 4z" />
    <glyph glyph-name="a" unicode="a" horiz-adv-x="1110" 
d="M818 950q-96 0 -186 -46q-187 -95 -265 -320q-39 -111 -39 -234q0 -124 43 -190t122 -66t147 49q135 97 219 320q40 106 63 221l47 252q-55 14 -151 14zM969 0q-25 -4 -71 -4t-64 4q-13 110 -3 157q9 49 14 71l9 40q-42 -101 -151 -197t-244 -96q-135 -1 -205 91t-70 244
q0 311 174 525q86 105 214 170t289 65t257 -40l-104 -592q-20 -118 -36 -198t-15 -143q0 -63 6 -97z" />
    <glyph glyph-name="b" unicode="b" horiz-adv-x="1142" 
d="M468 1509h52q20 0 31 -2q2 -23 2 -40v-33q-1 -86 -17 -176q-16 -89 -22 -121l-45 -258q57 82 138 136t213 54t219 -99q87 -98 87 -266q0 -328 -189 -528q-189 -199 -503 -201q-135 0 -252 39l185 1053q48 281 48 334q1 53 1 67t-2 37q24 4 54 4zM480 92q85 0 177 36
t165 108q161 159 161 423q0 137 -59 212t-164 75q-195 0 -301 -248q-39 -90 -62 -221l-63 -368q61 -17 146 -17z" />
    <glyph glyph-name="c" unicode="c" horiz-adv-x="937" 
d="M627 -25q-221 0 -325 110q-103 110 -103 304q0 125 41 248q85 254 310 373q114 59 242 59t234 -39q-5 -71 -39 -119q-103 39 -207 39t-188 -51t-139 -130q-111 -159 -111 -363q0 -312 301 -312q104 0 223 39q23 -53 23 -110q-68 -28 -154 -38t-108 -10z" />
    <glyph glyph-name="d" unicode="d" horiz-adv-x="1099" 
d="M822 950q-96 0 -186 -46q-187 -95 -265 -320q-39 -111 -39 -234q0 -124 43 -190t122 -66t147 49q135 97 219 320q40 106 63 221l47 252q-55 14 -151 14zM1093 1509h52q20 0 31 -2q2 -23 2 -40v-33q0 -65 -10 -122t-15 -98q-6 -41 -12 -73l-125 -703q-20 -118 -36 -198
t-15 -143q0 -63 6 -97q-36 -6 -81 -4t-54 4q-7 28 -7 74q0 88 29 194q-42 -101 -151 -197t-244 -96q-135 -1 -205 91t-70 244q0 311 174 525q86 105 214 170t296 64q57 0 117 -10q20 117 36 205q15 88 15 139v65q0 14 -2 37q24 4 55 4z" />
    <glyph glyph-name="e" unicode="e" horiz-adv-x="1003" 
d="M471 571q207 33 323 93t115 165q0 55 -39 89q-40 34 -114 34q-140 -1 -249 -117q-110 -117 -151 -282zM195 387q0 125 43 247q89 254 304 375q108 60 240 60t200 -67q69 -68 69 -158q0 -168 -162 -261q-139 -81 -402 -120l-149 -25v-28q0 -148 72 -232t215 -84t309 60
q20 -46 20 -111q-153 -63 -348 -68q-217 0 -322 122q-89 104 -89 290z" />
    <glyph glyph-name="f" unicode="f" horiz-adv-x="653" 
d="M-40 -381q52 0 92 10q81 20 121 122q22 54 36 140l182 1039h-170q0 70 19 114h170l16 93q35 193 125 289t262 96q91 0 137 -23q-10 -42 -43 -115q-53 21 -101 21t-87 -12q-120 -37 -158 -263l-16 -86h272q0 -69 -18 -114h-273l-182 -1045q-35 -205 -125 -295t-262 -90
q-91 0 -137 23q13 52 41 115q47 -19 99 -19z" />
    <glyph glyph-name="g" unicode="g" horiz-adv-x="1095" 
d="M818 950q-96 0 -186 -46q-187 -95 -265 -320q-39 -111 -39 -234q0 -124 44 -190t122 -66t146 49q135 97 219 320q40 106 63 221l47 252q-55 14 -151 14zM346 -377q310 0 406 225q31 74 51 172l51 248q-42 -101 -151 -197t-244 -96q-135 -1 -205 91t-70 244q0 311 174 525
q86 105 214 170t289 65t257 -40l-184 -1030q-47 -253 -193 -376q-146 -124 -422 -124q-131 0 -235 45q0 61 35 115q118 -37 227 -37z" />
    <glyph glyph-name="h" unicode="h" horiz-adv-x="1136" 
d="M965 760q0 184 -185 184q-131 0 -235 -108t-144 -344l-86 -492q-23 -4 -69 -4t-66 4l187 1067q48 281 48 334q1 53 1 67t-2 37q24 4 54 4h52q20 0 31 -2q2 -23 2 -40v-33q-1 -86 -17 -176q-16 -89 -22 -121l-49 -269q149 201 371 201q126 0 198 -68t72 -198
q0 -62 -14 -144l-115 -659q-36 -6 -81 -4t-54 4l108 618q15 92 15 142z" />
    <glyph glyph-name="i" unicode="i" horiz-adv-x="542" 
d="M416 1473q36 4 88 4t84 -4q-2 -16 -4 -43t-13 -69q-10 -42 -14 -61q-32 -4 -84 -4t-88 4q2 18 6 53q4 34 25 120zM262 930q0 55 19 114h262l-183 -1044q-24 -4 -68 -4t-67 4l164 930h-127z" />
    <glyph glyph-name="j" unicode="j" horiz-adv-x="538" 
d="M416 1473q36 4 88 4t84 -4q-2 -16 -4 -43t-13 -69q-10 -42 -14 -61q-32 -4 -84 -4t-88 4q2 18 6 53q4 34 25 120zM-8 -381q167 0 205 211l192 1100h-127q0 55 19 114h262l-211 -1196q-31 -170 -108 -259t-232 -89q-104 0 -168 27q12 70 39 113q53 -21 129 -21z" />
    <glyph glyph-name="k" unicode="k" horiz-adv-x="974" 
d="M470 1509h52q20 0 31 -2q2 -23 2 -40v-33q-1 -86 -17 -176q-16 -89 -22 -121l-201 -1137q-25 -4 -69 -4t-66 4l189 1067q48 281 48 334q1 53 1 67t-2 37q23 4 54 4zM862 -6q-37 0 -76 6l-284 539l321 383q46 57 62 122q79 13 147 0q-8 -40 -31 -76t-61 -83l-289 -338
l289 -547q-41 -6 -78 -6z" />
    <glyph glyph-name="l" unicode="l" horiz-adv-x="567" 
d="M406 -18q-195 0 -195 165q0 27 6 64l152 856q48 281 48 334q1 53 1 67t-2 37q24 4 54 4h52q20 0 31 -2q2 -23 2 -40v-33q-1 -86 -17 -176q-16 -89 -22 -121l-160 -895q-6 -31 -6 -59q0 -87 96 -87q55 0 91 13q17 -49 12 -107q-62 -20 -143 -20z" />
    <glyph glyph-name="m" unicode="m" horiz-adv-x="1695" 
d="M1427 1069q238 0 238 -266q0 -62 -14 -144l-115 -659q-24 -4 -70 -4t-65 4l108 618q15 92 15 165q0 161 -156 161q-188 0 -297 -244q-39 -86 -59 -208l-86 -492q-36 -6 -81 -4t-54 4l108 618q14 86 14 162q0 164 -155 164q-188 0 -297 -244q-39 -86 -60 -208l-86 -492
q-23 -4 -69 -4t-66 4l107 610q20 117 36 198q15 81 15 144t-6 97q24 4 70 4q45 0 65 -4q6 -25 6 -81t-8 -100q59 82 149 142t203 59q113 0 170 -59t68 -158q156 217 372 217z" />
    <glyph glyph-name="n" unicode="n" horiz-adv-x="1163" 
d="M358 1049q24 4 70 4t66 -4q6 -24 6 -103t-27 -170q40 96 151 195q110 98 240 98q131 0 200 -68t69 -198q0 -56 -15 -144l-114 -659q-36 -6 -81 -4t-55 4l109 618q14 86 14 164t-47 120t-121 42q-142 0 -259 -172t-158 -412l-64 -360q-24 -4 -70 -4q-45 0 -65 4l106 610
q20 117 42 234q22 116 3 205z" />
    <glyph glyph-name="o" unicode="o" horiz-adv-x="1140" 
d="M551 -25q-162 -1 -257 101t-95 297q0 106 33 228q74 265 285 399q109 69 271 69t258 -101t95 -296q0 -106 -34 -228t-105 -227q-71 -104 -180 -173t-271 -69zM578 94q201 0 319 195q102 168 100 381q0 135 -62 208q-62 72 -173 72t-190 -55q-154 -107 -205 -326
q-25 -101 -25 -215t62 -187t174 -73z" />
    <glyph glyph-name="p" unicode="p" horiz-adv-x="1142" 
d="M332 1049q24 4 70 4q45 0 65 -4q6 -25 6 -79t-8 -96q59 82 141 138t214 57q132 0 219 -99q87 -98 87 -266q0 -328 -189 -528q-189 -199 -503 -201q-52 0 -125 11l-80 -469q-20 -4 -67 -4q-46 0 -70 4l195 1093q51 259 51 332t-6 107zM480 92q85 0 177 36t165 108
q161 159 161 423q0 137 -60 212t-163 75q-195 0 -301 -248q-39 -90 -62 -221l-63 -368q61 -17 146 -17z" />
    <glyph glyph-name="q" unicode="q" horiz-adv-x="1103" 
d="M826 950q-98 0 -190 -46q-187 -95 -265 -320q-39 -111 -39 -234q0 -124 43 -190t122 -66t147 49q135 97 219 320q40 106 63 221l47 252q-49 14 -147 14zM188 310q0 311 174 525q86 105 214 170t284 65q155 0 264 -38l-266 -1515q-20 -4 -66 -4q-47 0 -71 4l135 749
q-42 -101 -150 -196t-243 -95q-135 -1 -205 91t-70 244z" />
    <glyph glyph-name="r" unicode="r" horiz-adv-x="704" 
d="M760 922q-48 0 -104 -22q-119 -46 -192 -195q-38 -78 -58 -189l-91 -516q-23 -4 -69 -4t-66 4l107 610q20 117 36 198q15 81 15 144t-6 97q24 4 70 4q45 0 65 -4q6 -25 6 -79t-8 -100q71 85 125 117q98 60 207 62q46 0 61 -7q0 -74 -33 -129q-18 9 -65 9z" />
    <glyph glyph-name="s" unicode="s" horiz-adv-x="870" 
d="M629 950q-242 0 -242 -168q0 -61 36 -97t128 -73l20 -8q122 -48 164 -82q93 -76 93 -180q-2 -191 -130 -283q-112 -82 -305 -83t-295 51q10 70 41 120q50 -25 138 -37t118 -12q135 0 210 45t75 158q0 82 -44 119t-124 67l-63 25q-91 35 -128 71q-77 75 -77 198
q0 124 106 206t295 82q96 1 167 -21t99 -38q-20 -62 -51 -113q-110 53 -231 53z" />
    <glyph glyph-name="t" unicode="t" horiz-adv-x="669" 
d="M459 -23q-213 0 -213 195q0 31 6 72l123 686h-170q0 69 18 114h170q25 132 25 252v23q73 22 133 22q2 -23 2 -39v-34q0 -77 -27 -224h271q0 -70 -19 -114h-268l-121 -680q-4 -14 -4 -28v-23q0 -68 37 -85q88 -40 209 3q8 -53 4 -117q-78 -23 -176 -23z" />
    <glyph glyph-name="u" unicode="u" horiz-adv-x="1136" 
d="M993 -4q-23 -4 -69 -4q-45 0 -66 4q-6 33 -6 107t27 165q-40 -97 -152 -195q-111 -98 -241 -98t-198 68t-69 199q0 61 14 143l115 659q30 5 75 5t60 -5l-108 -618q-13 -78 -14 -160t47 -124t120 -42q143 0 260 173q116 173 158 411l64 360q30 5 74 5t61 -5l-107 -610
q-20 -118 -36 -198t-15 -143q0 -63 6 -97z" />
    <glyph glyph-name="v" unicode="v" horiz-adv-x="976" 
d="M936 1036v8q82 13 151 0v-8q0 -62 -53 -157l-485 -879q-35 -6 -77 -6t-62 6l-193 1044q90 15 143 0l150 -892l385 741q41 73 41 143z" />
    <glyph glyph-name="w" unicode="w" horiz-adv-x="1499" 
d="M1514 1051q38 0 75 -7v-8q0 -44 -51 -155l-383 -881q-35 -6 -77 -6t-64 6l-135 817l-328 -817q-35 -6 -79 -6t-64 6l-170 1044q79 13 147 0l119 -876l346 876q25 7 63 7t66 -7l133 -876l301 741q31 78 31 127v8q32 7 70 7z" />
    <glyph glyph-name="x" unicode="x" horiz-adv-x="935" 
d="M974 1051q39 0 64 -7v-8q-2 -90 -77 -194l-222 -287l193 -555q-43 -6 -79 -6t-67 6l-190 547l244 338q63 87 63 151v8q32 7 71 7zM140 -6q-37 0 -64 6v8q2 41 16 79t58 93l292 369l-170 495q86 13 142 0l166 -499l-301 -398q-61 -82 -64 -139v-8q-37 -6 -75 -6z" />
    <glyph glyph-name="y" unicode="y" horiz-adv-x="960" 
d="M291 1051q39 0 76 -7l143 -964l367 813q37 80 41 143v8q78 13 145 0v-8q0 -57 -49 -157l-508 -1098q-110 -237 -248 -275q-42 -12 -100 -12t-119 19q0 77 35 114q47 -14 89 -14q41 0 69 9q59 19 119 123q32 54 73 144l47 107q-60 0 -80 4l-170 1044q31 7 70 7z" />
    <glyph glyph-name="z" unicode="z" horiz-adv-x="890" 
d="M840 115q0 -71 -19 -115h-733l-2 33l696 897h-497q0 69 18 114h703l4 -26l-697 -903h527z" />
    <glyph glyph-name="braceleft" unicode="{" horiz-adv-x="770" 
d="M373 596q119 -84 119 -196q0 -73 -23 -220l-14 -84q-21 -111 -21 -185q0 -73 43 -107t154 -33q0 -65 -21 -115q-168 0 -242 63t-75 201q0 48 14 137l29 166q12 69 12 139q0 130 -151 236q126 66 171 122q44 56 63 112t34 137l31 180q33 201 124 295t279 94l43 -2
q0 -69 -20 -115q-150 0 -207 -70q-31 -39 -49 -101t-35 -154l-17 -88q-36 -204 -84 -282t-157 -130z" />
    <glyph glyph-name="bar" unicode="|" horiz-adv-x="669" 
d="M553 1589q32 4 76 4t63 -4l-340 -1933q-24 -4 -68 -4q-45 0 -71 4z" />
    <glyph glyph-name="braceright" unicode="}" horiz-adv-x="770" 
d="M602 594q-119 84 -119 196q0 87 23 220l14 84q21 111 21 185q0 73 -43 107t-154 33q0 65 21 115q169 0 243 -64t74 -200q0 -48 -14 -137l-29 -166q-12 -73 -12 -141q0 -131 151 -234q-126 -66 -171 -122q-44 -56 -63 -112t-34 -137l-31 -180q-33 -202 -125 -297
q-92 -94 -278 -92l-43 2q0 69 20 115q150 0 207 70q31 39 49 101t35 154l16 88q35 200 84 281q27 45 65 74t93 57z" />
    <glyph glyph-name="asciitilde" unicode="~" horiz-adv-x="929" 
d="M799 854q91 0 184 82q43 -51 49 -109q-126 -100 -254 -100q-73 0 -174 41t-160 41q-105 0 -202 -88q-44 34 -56 94q41 44 123 83q82 38 151 38t142 -28q72 -28 113 -42q41 -12 84 -12z" />
    <glyph glyph-name="uni00A0" unicode="&#xa0;" horiz-adv-x="0" 
 />
    <glyph glyph-name="exclamdown" unicode="&#xa1;" horiz-adv-x="550" 
d="M465 1069q47 0 72 -6q0 -68 -29 -174q-37 -6 -81 -6t-77 6q0 67 12 109t17 65q39 6 86 6zM313 643q32 4 68 4t63 -4l-178 -1053q-32 -4 -68 -4t-77 4z" />
    <glyph glyph-name="cent" unicode="&#xa2;" 
d="M336 389q0 241 137 437q137 195 367 233l45 248q57 12 116 0l-43 -238q97 -3 205 -39q-5 -71 -39 -119q-103 39 -207 39t-188 -51t-139 -130q-111 -159 -111 -363q0 -312 301 -312q109 0 224 39q22 -51 22 -110q-112 -41 -258 -48l-37 -217q-52 -13 -117 0l39 226
q-317 52 -317 405z" />
    <glyph glyph-name="sterling" unicode="&#xa3;" 
d="M322 649q0 59 20 115h145q-10 112 -10 199t28 183t88 170q131 159 376 159q170 0 313 -62q-15 -56 -53 -119q-119 56 -260 58q-346 0 -346 -416q0 -31 12 -172h430q0 -60 -21 -115h-397l2 -59q0 -117 -31 -235t-135 -226h621l-8 -66t-15 -63h-852l-4 20l56 48
q221 191 223 491q0 42 -4 90h-178z" />
    <glyph glyph-name="currency" unicode="&#xa4;" 
d="M1033 723q-1 132 -89 222q-88 91 -217 90q-128 -1 -213 -91q-86 -90 -86 -221t85 -222q87 -91 216 -91q128 0 217 91q88 90 87 222zM989 375q-111 -86 -261 -85t-259 85l-168 -166q-66 30 -90 92l166 164q-84 114 -83 257t89 261l-172 172q30 65 94 90l170 -172
q117 82 258 81t252 -83l174 174q55 -30 92 -86l-174 -176q90 -121 89 -264t-87 -254l168 -168q-28 -52 -84 -92z" />
    <glyph glyph-name="yen" unicode="&#xa5;" 
d="M338 1473q24 4 77 4t81 -4l239 -670l434 670q32 4 84 4t76 -4l-471 -707h354q6 -44 -20 -119h-408l-30 -174h407q6 -44 -20 -119h-408l-61 -354q-32 -4 -76 -4t-66 4l62 354h-395q-6 53 20 119h397l31 174h-397q-6 53 20 119h338z" />
    <glyph glyph-name="brokenbar" unicode="&#xa6;" horiz-adv-x="321" 
d="M150 336q28 4 68 4q39 0 69 -4l-119 -680q-28 -4 -70 -4t-67 4zM369 1589q28 4 68 4q39 0 69 -4l-119 -680q-28 -4 -69 -4q-42 0 -68 4z" />
    <glyph glyph-name="section" unicode="&#xa7;" horiz-adv-x="1079" 
d="M903 705q0 51 -35 75t-92 47l-227 84q-41 15 -66 29q-96 -91 -96 -178q0 -53 34 -77t93 -46l297 -113q92 92 92 179zM852 262q0 47 -16 82q-27 58 -138 94l-276 97q-78 29 -125 69t-47 124q0 83 44 151t103 127q-49 61 -49 141q0 154 134 248q111 76 303 77t325 -57
q-15 -54 -53 -108q-135 55 -267 55t-190 -30q-59 -30 -87 -66t-28 -81q0 -46 18 -82t66 -57q48 -22 78 -34l215 -80q180 -62 180 -192q0 -131 -131 -269q80 -68 80 -162q0 -164 -129 -249t-293 -86t-304 34q-40 10 -64 23q14 62 49 110q145 -57 281 -57t196 29q61 29 93 65
t32 84z" />
    <glyph glyph-name="dieresis" unicode="&#xa8;" horiz-adv-x="1024" 
d="M952 1436q43 0 84 -6q-5 -107 -30 -175q-41 -6 -84 -6t-82 6q5 105 30 175q39 6 82 6zM561 1436q43 0 84 -6q-5 -109 -31 -175q-42 -6 -84 -6t-81 6q5 105 30 175q39 6 82 6z" />
    <glyph glyph-name="copyright" unicode="&#xa9;" horiz-adv-x="1769" 
d="M1001 -27q-170 1 -310 59q-281 117 -394 400q-55 139 -55 302q0 331 210 545q99 101 239 159t310 59q341 0 551 -217q209 -217 209 -546t-210 -543q-99 -101 -239 -159t-311 -59zM1004 94q284 0 451 184t167 458q0 273 -169 456q-169 184 -453 184t-451 -184
q-168 -184 -168 -458t169 -457q170 -183 454 -183zM1042 299q-198 0 -306 119q-109 119 -108 313t110 320q110 125 290 125q104 0 203 -29q-8 -68 -29 -109q-82 23 -168 23q-139 0 -207 -90q-67 -90 -67 -243q0 -152 74 -234t206 -82q88 0 164 39q22 -40 43 -103
q-101 -49 -205 -49z" />
    <glyph glyph-name="ordfeminine" unicode="&#xaa;" horiz-adv-x="1024" 
d="M430 895q0 -190 119 -190q108 0 199 133t124 319l37 195q-35 8 -107 8t-140 -35q-141 -71 -202 -245q-30 -85 -30 -185zM934 618q-28 -4 -68 -4t-61 4q-6 43 -6 89t12 96q-58 -93 -105 -132q-90 -73 -193 -73q-104 0 -162 71t-58 191q0 241 146 424q146 182 403 182
q128 0 209 -34l-101 -564q-20 -106 -20 -157t4 -93z" />
    <glyph glyph-name="guillemotleft" unicode="&#xab;" horiz-adv-x="1099" 
d="M683 1006q50 0 91 -7l-428 -450l270 -455q-42 -6 -80 -6t-75 6l-287 463l428 442q31 7 81 7zM1124 1006q50 0 90 -7l-428 -450l271 -455q-41 -6 -80 -6t-76 6l-287 463l428 442q32 7 82 7z" />
    <glyph glyph-name="logicalnot" unicode="&#xac;" 
d="M287 676q0 50 4 69h839v-557q-20 -4 -70 -4t-69 4v418h-700q-4 20 -4 70z" />
    <glyph glyph-name="uni00AD" unicode="&#xad;" horiz-adv-x="722" 
d="M739 653q0 -31 -7 -59t-10 -48t-7 -32h-520q4 72 24 139h520z" />
    <glyph glyph-name="registered" unicode="&#xae;" horiz-adv-x="1769" 
d="M1001 -27q-170 1 -310 59q-281 117 -394 400q-55 139 -55 302q0 331 210 545q99 101 239 159t310 59q341 0 551 -217q209 -217 209 -546t-210 -543q-99 -101 -239 -159t-311 -59zM1004 94q284 0 451 184t167 458q0 273 -169 456q-169 184 -453 184t-451 -184
q-168 -184 -168 -458t169 -457q170 -183 454 -183zM941 1155q237 0 312 -124q29 -45 29 -105q0 -166 -160 -244l240 -328q-29 -4 -53 -4h-47q-23 0 -37 2l-271 369l47 18q67 27 99 53q61 52 61 119q0 66 -54 101q-55 35 -115 35t-105 -7v-688q-19 -4 -59 -4t-62 4v791
q94 12 175 12z" />
    <glyph glyph-name="macron" unicode="&#xaf;" horiz-adv-x="1024" 
d="M410 1278q0 73 18 125h561q0 -78 -18 -125h-561z" />
    <glyph glyph-name="degree" unicode="&#xb0;" horiz-adv-x="745" 
d="M535 1016q75 0 123 51t49 129q-1 78 -49 129t-124 51t-123 -51q-49 -51 -49 -129t48 -129t125 -51zM242 1196q0 60 24 114q48 108 156 154q52 23 112 23q117 0 206 -85t88 -207q-1 -121 -88 -206q-87 -84 -204 -84q-118 0 -207 84q-87 85 -87 207z" />
    <glyph glyph-name="plusminus" unicode="&#xb1;" 
d="M1157 782q0 -74 -18 -129h-355l-67 -381q-16 -4 -43 -4h-53q-27 0 -41 4l67 381h-352q0 75 18 129h357l67 381q28 4 66 4q39 0 71 -4l-67 -381h350zM1110 141q0 -68 -23 -139h-872q0 68 23 139h872z" />
    <glyph glyph-name="twosuperior" unicode="&#xb2;" horiz-adv-x="921" 
d="M725 1212q0 125 -133 125q-98 0 -195 -47q-25 62 -28 103q130 55 244 55t182 -56t67 -163q0 -138 -135 -270q-41 -40 -88 -82l-152 -136h344q3 -51 -20 -112h-588l-4 14l336 307q35 33 66 62q104 97 104 200z" />
    <glyph glyph-name="threesuperior" unicode="&#xb3;" horiz-adv-x="921" 
d="M696 904q0 60 -41 98t-105 38t-95 -4l-6 13l245 292h-309q0 51 18 107h486l6 -21l-254 -303q142 -17 181 -138q32 -100 -17 -202q-87 -177 -318 -180q-144 0 -243 43q9 59 43 105q109 -37 172 -37t102 8t69 30q30 23 48 57t18 94z" />
    <glyph glyph-name="acute" unicode="&#xb4;" horiz-adv-x="1024" 
d="M808 1485h46q52 0 96 -4l-229 -267q-37 -6 -76 -6t-76 6l193 267q22 4 46 4z" />
    <glyph glyph-name="mu" unicode="&#xb5;" horiz-adv-x="1183" 
d="M332 1044q30 5 74 5q43 0 63 -5l-92 -548q-12 -80 -12 -148q0 -120 49 -186t162 -66t228 92t140 248l100 608q30 5 74 5t64 -5l-174 -1044q-24 -4 -50 -4h-46q-19 0 -29 4q0 56 10 131q-134 -154 -328 -156q-85 0 -155 37t-99 97l-96 -592q-24 -4 -70 -4q-47 0 -67 4z
" />
    <glyph glyph-name="paragraph" unicode="&#xb6;" horiz-adv-x="1114" 
d="M1059 1485q79 0 127 -12l-258 -1473q-58 -12 -129 -12zM215 1016q0 471 573 471h49q26 0 50 -2l-260 -1497q-81 0 -129 12l114 641q-275 21 -365 214q-32 69 -32 161z" />
    <glyph glyph-name="periodcentered" unicode="&#xb7;" horiz-adv-x="419" 
d="M279 473q-47 0 -74 6q0 71 28 174q43 6 89 6t86 -6q0 -68 -29 -174q-53 -6 -100 -6z" />
    <glyph glyph-name="cedilla" unicode="&#xb8;" horiz-adv-x="1024" 
d="M457 -213q-31 0 -103 -12l-6 8l137 262h111l-92 -170q10 2 35 2q86 0 130 -47q44 -46 44 -108q0 -113 -75 -164q-75 -50 -183 -51t-183 38q12 69 37 101q77 -31 137 -31q59 0 84 11q50 22 52 81q0 80 -125 80z" />
    <glyph glyph-name="onesuperior" unicode="&#xb9;" horiz-adv-x="921" 
d="M285 629q0 66 22 110h199l94 545l-223 -90q-25 32 -31 100l389 162h31l-125 -717h199q-4 -55 -21 -110h-534z" />
    <glyph glyph-name="ordmasculine" unicode="&#xba;" horiz-adv-x="1024" 
d="M580 598q-133 0 -213 82t-80 260t107 337q130 193 360 193q143 0 220 -82t77 -258q0 -177 -107 -338q-129 -194 -364 -194zM598 705q152 0 234 138q83 138 83 306q0 103 -47 159t-129 56t-142 -42q-113 -79 -155 -252q-18 -79 -18 -169t46 -143t128 -53z" />
    <glyph glyph-name="guillemotright" unicode="&#xbb;" horiz-adv-x="1161" 
d="M199 88q-50 0 -88 6l432 457l-275 448q86 13 156 0l287 -462l-435 -443q-27 -6 -77 -6zM640 88q-50 0 -89 6l432 457l-274 448q85 13 155 0l287 -462l-434 -443q-27 -6 -77 -6z" />
    <glyph glyph-name="onequarter" unicode="&#xbc;" horiz-adv-x="2150" 
d="M285 629q0 66 22 110h199l94 545l-223 -90q-25 32 -31 100l389 162h31l-125 -717h199q-4 -55 -21 -110h-534zM1729 1448q32 4 79 4t88 -4l-1241 -1448q-23 -4 -53 -4h-66q-36 0 -51 4zM1731 461q31 6 63 6t55 -6l-30 -176h100q10 -63 -21 -115h-100l-31 -172h-49
q-25 0 -67 4l28 168h-411l-8 16l440 664q61 -11 108 -37l-344 -528h234z" />
    <glyph glyph-name="onehalf" unicode="&#xbd;" horiz-adv-x="2150" 
d="M285 629q0 66 22 110h199l94 545l-223 -90q-25 32 -31 100l389 162h31l-125 -717h199q-4 -55 -21 -110h-534zM1712 1448q32 4 79 4t89 -4l-1241 -1448q-23 -4 -53 -4h-66q-36 0 -51 4zM1808 586q0 125 -133 125q-91 0 -194 -47q-26 65 -29 102q130 55 244 55t182 -56
t68 -163q0 -136 -136 -269q-41 -40 -88 -83l-151 -135h344q4 -55 -21 -113h-587l-4 14l335 308q35 34 66 62q104 96 104 200z" />
    <glyph glyph-name="threequarters" unicode="&#xbe;" horiz-adv-x="2150" 
d="M670 1124q192 -23 192 -226q0 -54 -28 -114q-85 -177 -318 -180q-143 0 -244 43q9 56 43 105q109 -37 201 -37t142 38q67 49 67 151q0 60 -41 98t-105 38t-96 -4l-6 13l246 292h-309q0 51 18 107h486l6 -21zM1712 1448q32 4 79 4t89 -4l-1241 -1448q-23 -4 -53 -4h-66
q-36 0 -51 4zM1716 461q31 6 62 6t57 -6l-31 -176h101q10 -63 -21 -115h-100l-31 -172h-49q-26 0 -68 4l29 168h-412l-8 16l441 664q61 -11 108 -37l-344 -528h233z" />
    <glyph glyph-name="questiondown" unicode="&#xbf;" horiz-adv-x="944" 
d="M774 883q-52 0 -82 6q10 113 35 174q39 6 84 6t86 -6q-5 -114 -31 -174q-40 -6 -92 -6zM354 -53q0 -113 76 -171t203 -58t270 49q6 -19 7 -47t5 -58l3 -22q-159 -50 -292 -51q-132 -1 -207 28t-125 76q-101 95 -99 237q0 176 129 307t307 181l39 229h139l-55 -317
l-72 -23q-229 -78 -302 -234q-26 -56 -26 -126z" />
    <glyph glyph-name="Agrave" unicode="&#xc0;" horiz-adv-x="1173" 
d="M918 516l-107 803l-348 -803h455zM1141 0q-20 -4 -73 -4t-81 4l-51 385h-528l-166 -385q-32 -4 -81 -4t-73 4l657 1473q32 4 95 4t84 -4zM862 1587q-48 0 -82 6l-225 228q49 6 101 6t96 -6l188 -228q-30 -6 -78 -6z" />
    <glyph glyph-name="Aacute" unicode="&#xc1;" horiz-adv-x="1173" 
d="M918 516l-107 803l-348 -803h455zM1141 0q-20 -4 -73 -4t-81 4l-51 385h-528l-166 -385q-32 -4 -81 -4t-73 4l657 1473q32 4 95 4t84 -4zM971 1821q49 6 110 6t95 -6l-304 -228q-41 -6 -88 -6t-79 6z" />
    <glyph glyph-name="Acircumflex" unicode="&#xc2;" horiz-adv-x="1173" 
d="M918 516l-107 803l-348 -803h455zM1141 0q-20 -4 -73 -4t-81 4l-51 385h-528l-166 -385q-32 -4 -81 -4t-73 4l657 1473q32 4 95 4t84 -4zM868 1827q48 0 84 -6l176 -228q-38 -6 -72 -6t-77 6l-113 140l-172 -142q-26 -4 -50 -4h-40q-60 0 -84 6l273 228q27 6 75 6z" />
    <glyph glyph-name="Atilde" unicode="&#xc3;" horiz-adv-x="1173" 
d="M918 516l-107 803l-348 -803h455zM1141 0q-20 -4 -73 -4t-81 4l-51 385h-528l-166 -385q-32 -4 -81 -4t-73 4l657 1473q32 4 95 4t84 -4zM516 1735q92 92 173 92q81 1 139 -25q57 -26 91 -38q33 -12 71 -11q38 0 63 11t63 44q42 -59 47 -86q-95 -90 -188 -90
q-61 0 -121 26t-92 36q-32 12 -71 12t-65 -14t-61 -41q-33 33 -49 84z" />
    <glyph glyph-name="Adieresis" unicode="&#xc4;" horiz-adv-x="1173" 
d="M918 516l-107 803l-348 -803h455zM1141 0q-20 -4 -73 -4t-81 4l-51 385h-528l-166 -385q-32 -4 -81 -4t-73 4l657 1473q32 4 95 4t84 -4zM1084 1782q46 0 90 -6q0 -92 -31 -183q-49 -6 -95 -6t-83 6q0 76 30 183q43 6 89 6zM662 1782q46 0 83 -6q0 -96 -30 -183
q-43 -6 -89 -6t-89 6q0 95 30 183q49 6 95 6z" />
    <glyph glyph-name="Aring" unicode="&#xc5;" horiz-adv-x="1173" 
d="M987 1700q0 123 -108 123q-66 0 -103 -43q-37 -42 -37 -102q0 -130 111 -130q63 0 100 45t37 107zM918 516l-107 803l-348 -803h455zM1141 0q-20 -4 -73 -4t-81 4l-51 385h-528l-166 -385q-32 -4 -81 -4t-73 4l655 1468q-57 23 -87 73q-30 51 -30 111q1 114 74 188
q73 75 184 76q110 1 164 -59q54 -59 54 -145t-48 -152t-130 -92z" />
    <glyph glyph-name="AE" unicode="&#xc6;" horiz-adv-x="1738" 
d="M975 506l149 848h-10l-588 -848h449zM1671 846q0 -58 -22 -129h-494l-102 -588h630q-2 -11 -3 -29t-4 -33l-7 -35q-4 -19 -8 -32h-774l65 377h-520l-268 -377q-43 -6 -85 -6t-79 6l1044 1473h859q0 -42 -7 -66l-16 -64h-614l-88 -497h493z" />
    <glyph glyph-name="Ccedilla" unicode="&#xc7;" horiz-adv-x="1187" 
d="M694 -213q-34 0 -106 -12l-8 8l108 199q-208 25 -324 169t-116 398q0 174 46 344q97 359 386 521q147 83 340 83t321 -49q-15 -69 -47 -121q-122 43 -276 43t-273 -68t-195 -180q-150 -222 -151 -563q1 -223 107 -340t294 -117t318 68q31 -47 37 -117q-129 -67 -354 -78
l-58 -100q9 2 17 2h20q90 0 135 -47q45 -46 45 -108q1 -114 -76 -164q-78 -50 -192 -51q-113 -1 -192 38q12 68 39 101q84 -31 146 -31t88 11q52 22 52 81q0 80 -131 80z" />
    <glyph glyph-name="Egrave" unicode="&#xc8;" horiz-adv-x="1062" 
d="M1227 1473q0 -66 -23 -130h-614l-88 -497h493q0 -74 -22 -129h-494l-102 -588h633q-4 -72 -25 -129h-774l258 1473h758zM919 1587q-48 0 -81 6l-226 228q50 6 102 6t95 -6l188 -228q-30 -6 -78 -6z" />
    <glyph glyph-name="Eacute" unicode="&#xc9;" horiz-adv-x="1062" 
d="M1227 1473q0 -66 -23 -130h-614l-88 -497h493q0 -74 -22 -129h-494l-102 -588h633q-4 -72 -25 -129h-774l258 1473h758zM1018 1821q49 6 110 6t95 -6l-303 -228q-40 -6 -88 -6t-80 6z" />
    <glyph glyph-name="Ecircumflex" unicode="&#xca;" horiz-adv-x="1062" 
d="M1227 1473q0 -66 -23 -130h-614l-88 -497h493q0 -74 -22 -129h-494l-102 -588h633q-4 -72 -25 -129h-774l258 1473h758zM888 1827q48 0 85 -6l176 -228q-37 -6 -72 -6t-78 6l-112 140l-172 -142q-25 -4 -49 -4h-41q-60 0 -84 6l272 228q27 6 75 6z" />
    <glyph glyph-name="Edieresis" unicode="&#xcb;" horiz-adv-x="1062" 
d="M1227 1473q0 -66 -23 -130h-614l-88 -497h493q0 -74 -22 -129h-494l-102 -588h633q-4 -72 -25 -129h-774l258 1473h758zM1109 1782q46 0 89 -6q0 -98 -31 -183q-49 -6 -95 -6t-83 6q0 80 31 183q43 6 89 6zM687 1782q46 0 83 -6q0 -96 -31 -183q-43 -6 -89 -6t-89 6
q0 98 31 183q49 6 95 6z" />
    <glyph glyph-name="Igrave" unicode="&#xcc;" horiz-adv-x="565" 
d="M471 1473q28 4 70 4t71 -4l-258 -1473q-32 -4 -76 -4t-65 4zM589 1587q-48 0 -81 6l-225 228q49 6 101 6t95 -6l189 -228q-31 -6 -79 -6z" />
    <glyph glyph-name="Iacute" unicode="&#xcd;" horiz-adv-x="565" 
d="M471 1473q28 4 70 4t71 -4l-258 -1473q-32 -4 -76 -4t-65 4zM653 1821q49 6 111 6t94 -6l-303 -228q-41 -6 -88 -6t-80 6z" />
    <glyph glyph-name="Icircumflex" unicode="&#xce;" horiz-adv-x="565" 
d="M471 1473q28 4 70 4t71 -4l-258 -1473q-32 -4 -76 -4t-65 4zM589 1827q48 0 85 -6l176 -228q-37 -6 -72 -6t-78 6l-112 140l-172 -142q-26 -4 -50 -4h-40q-60 0 -84 6l272 228q27 6 75 6z" />
    <glyph glyph-name="Idieresis" unicode="&#xcf;" horiz-adv-x="565" 
d="M471 1473q28 4 70 4t71 -4l-258 -1473q-32 -4 -76 -4t-65 4zM787 1782q46 0 90 -6q0 -92 -31 -183q-49 -6 -95 -6t-83 6q0 76 30 183q43 6 89 6zM365 1782q46 0 84 -6q0 -96 -31 -183q-43 -6 -89 -6t-89 6q0 95 30 183q49 6 95 6z" />
    <glyph glyph-name="Eth" unicode="&#xd0;" horiz-adv-x="1421" 
d="M1288 864q0 252 -107 378t-382 126q-96 0 -178 -14l-93 -518h412q0 -66 -18 -113h-414l-105 -600q84 -12 232 -12q149 0 273 57q124 56 208 158q172 208 172 538zM207 723q0 57 18 113h160l113 637q159 22 320 22q325 0 481 -171q137 -148 137 -431q0 -172 -48 -337
t-150 -294t-259 -208t-373 -79t-366 25l127 723h-160z" />
    <glyph glyph-name="Ntilde" unicode="&#xd1;" horiz-adv-x="1376" 
d="M469 1473q28 4 76 4t71 -4l455 -1240l215 1240q24 4 68 4q45 0 69 -4l-256 -1473q-25 -4 -75 -4t-74 4l-455 1233l-213 -1233q-32 -4 -74 -4t-65 4zM834 1827q68 1 125 -25t91 -38t72 -11q38 0 62 11q25 11 63 44q42 -59 47 -86q-95 -90 -188 -90q-61 0 -121 26
q-61 26 -93 36q-32 12 -70 12t-64 -14t-62 -41q-33 33 -49 84q92 92 187 92z" />
    <glyph glyph-name="Ograve" unicode="&#xd2;" horiz-adv-x="1441" 
d="M737 104q121 0 225 67q214 138 300 447q43 154 43 288q0 237 -86 349q-86 113 -258 113q-248 0 -407 -242t-159 -602q0 -192 82 -306t260 -114zM738 -25q-140 0 -227 40t-145 112q-118 146 -118 366q0 433 203 714q96 134 231 212q136 78 278 78t230 -42t146 -115
q116 -146 116 -366q0 -440 -204 -715q-97 -132 -233 -208q-137 -76 -277 -76zM1091 1587q-48 0 -81 6l-226 228q50 6 102 6t95 -6l188 -228q-30 -6 -78 -6z" />
    <glyph glyph-name="Oacute" unicode="&#xd3;" horiz-adv-x="1441" 
d="M737 104q121 0 225 67q214 138 300 447q43 154 43 288q0 237 -86 349q-86 113 -258 113q-248 0 -407 -242t-159 -602q0 -192 82 -306t260 -114zM738 -25q-140 0 -227 40t-145 112q-118 146 -118 366q0 433 203 714q96 134 231 212q136 78 278 78t230 -42t146 -115
q116 -146 116 -366q0 -440 -204 -715q-97 -132 -233 -208q-137 -76 -277 -76zM1096 1821q49 6 110 6t94 -6l-303 -228q-41 -6 -88 -6t-80 6z" />
    <glyph glyph-name="Ocircumflex" unicode="&#xd4;" horiz-adv-x="1441" 
d="M737 104q121 0 225 67q214 138 300 447q43 154 43 288q0 237 -86 349q-86 113 -258 113q-248 0 -407 -242t-159 -602q0 -192 82 -306t260 -114zM738 -25q-140 0 -227 40t-145 112q-118 146 -118 366q0 433 203 714q96 134 231 212q136 78 278 78t230 -42t146 -115
q116 -146 116 -366q0 -440 -204 -715q-97 -132 -233 -208q-137 -76 -277 -76zM1009 1827q48 0 85 -6l176 -228q-37 -6 -72 -6t-78 6l-112 140l-172 -142q-25 -4 -50 -4h-41q-61 0 -83 6l272 228q27 6 75 6z" />
    <glyph glyph-name="Otilde" unicode="&#xd5;" horiz-adv-x="1441" 
d="M737 104q121 0 225 67q214 138 300 447q43 154 43 288q0 237 -86 349q-86 113 -258 113q-248 0 -407 -242t-159 -602q0 -192 82 -306t260 -114zM738 -25q-140 0 -227 40t-145 112q-118 146 -118 366q0 433 203 714q96 134 231 212q136 78 278 78t230 -42t146 -115
q116 -146 116 -366q0 -440 -204 -715q-97 -132 -233 -208q-137 -76 -277 -76zM696 1735q92 92 175 92q83 1 138 -25q56 -26 90 -38t72 -11q39 0 63 11t62 44q42 -59 47 -86q-95 -90 -188 -90q-62 0 -121 26t-92 36q-33 12 -71 12q-39 0 -65 -14t-61 -41q-33 33 -49 84z" />
    <glyph glyph-name="Odieresis" unicode="&#xd6;" horiz-adv-x="1441" 
d="M737 104q121 0 225 67q214 138 300 447q43 154 43 288q0 237 -86 349q-86 113 -258 113q-248 0 -407 -242t-159 -602q0 -192 82 -306t260 -114zM738 -25q-140 0 -227 40t-145 112q-118 146 -118 366q0 433 203 714q96 134 231 212q136 78 278 78t230 -42t146 -115
q116 -146 116 -366q0 -440 -204 -715q-97 -132 -233 -208q-137 -76 -277 -76zM1240 1782q46 0 89 -6q0 -98 -31 -183q-49 -6 -95 -6t-83 6q0 80 31 183q43 6 89 6zM818 1782q46 0 83 -6q0 -96 -31 -183q-43 -6 -89 -6t-89 6q0 98 31 183q49 6 95 6z" />
    <glyph glyph-name="multiply" unicode="&#xd7;" 
d="M1036 1104q57 -57 88 -109l-307 -262l211 -256q-49 -55 -110 -94l-213 256l-312 -264q-52 45 -88 108l311 265l-210 256q47 49 110 94l211 -256z" />
    <glyph glyph-name="Oslash" unicode="&#xd8;" horiz-adv-x="1441" 
d="M722 104q252 0 417 244q166 244 166 600q0 125 -37 221l-766 -981q84 -84 220 -84zM974 1368q-261 0 -420 -242t-159 -602q0 -139 39 -231l766 983q-88 92 -226 92zM257 -35q-40 0 -73 6l152 195q-88 137 -88 342q0 419 203 699q208 290 540 290q174 0 297 -108l76 98
q37 6 77 6t75 -6l-150 -191q88 -143 87 -343q-1 -199 -54 -381t-151 -313q-209 -284 -541 -284q-172 0 -291 101l-82 -105q-37 -6 -77 -6z" />
    <glyph glyph-name="Ugrave" unicode="&#xd9;" horiz-adv-x="1351" 
d="M453 1473q28 4 71 4q42 0 72 -4l-156 -889q-22 -134 -22 -217q0 -141 63 -199t188 -57q125 -1 196 31q137 61 200 241q31 88 51 201l156 889q28 4 71 4t72 -4l-164 -930q-52 -286 -188 -427q-135 -141 -393 -141q-399 0 -400 394q0 85 23 196zM1003 1587q-48 0 -81 6
l-226 228q50 6 102 6t95 -6l188 -228q-30 -6 -78 -6z" />
    <glyph glyph-name="Uacute" unicode="&#xda;" horiz-adv-x="1351" 
d="M453 1473q28 4 71 4q42 0 72 -4l-156 -889q-22 -134 -22 -217q0 -141 63 -199t188 -57q125 -1 196 31q137 61 200 241q31 88 51 201l156 889q28 4 71 4t72 -4l-164 -930q-52 -286 -188 -427q-135 -141 -393 -141q-399 0 -400 394q0 85 23 196zM1059 1821q49 6 110 6
t95 -6l-303 -228q-41 -6 -89 -6t-79 6z" />
    <glyph glyph-name="Ucircumflex" unicode="&#xdb;" horiz-adv-x="1351" 
d="M453 1473q28 4 71 4q42 0 72 -4l-156 -889q-22 -134 -22 -217q0 -141 63 -199t188 -57q125 -1 196 31q137 61 200 241q31 88 51 201l156 889q28 4 71 4t72 -4l-164 -930q-52 -286 -188 -427q-135 -141 -393 -141q-399 0 -400 394q0 85 23 196zM980 1827q48 0 85 -6
l176 -228q-37 -6 -72 -6t-77 6l-113 140l-172 -142q-25 -4 -49 -4h-41q-60 0 -84 6l272 228q27 6 75 6z" />
    <glyph glyph-name="Udieresis" unicode="&#xdc;" horiz-adv-x="1351" 
d="M453 1473q28 4 71 4q42 0 72 -4l-156 -889q-22 -134 -22 -217q0 -141 63 -199t188 -57q125 -1 196 31q137 61 200 241q31 88 51 201l156 889q28 4 71 4t72 -4l-164 -930q-52 -286 -188 -427q-135 -141 -393 -141q-399 0 -400 394q0 85 23 196zM1201 1782q46 0 89 -6
q0 -95 -30 -183q-50 -6 -96 -6t-83 6q0 72 31 183q43 6 89 6zM779 1782q46 0 83 -6q0 -96 -31 -183q-43 -6 -89 -6t-89 6q0 92 31 183q49 6 95 6z" />
    <glyph glyph-name="Yacute" unicode="&#xdd;" horiz-adv-x="1103" 
d="M297 1473q24 4 76 4t80 -4l225 -775l455 775q32 4 82 4t73 -4l-565 -936l-92 -537q-32 -4 -76 -4t-66 4l97 545zM946 1821q48 6 110 6q61 0 95 -6l-303 -228q-41 -6 -88 -6t-80 6z" />
    <glyph glyph-name="Thorn" unicode="&#xde;" horiz-adv-x="1153" 
d="M1022 856q0 260 -304 260q-84 0 -116 -4t-55 -6l-113 -647q80 -8 152 -8q436 0 436 405zM354 0q-28 -4 -72 -4q-43 0 -69 4l256 1473q28 4 73 4t68 -4l-39 -238q90 8 174 8q187 0 308 -97t121 -284q0 -139 -47 -240q-91 -202 -315 -267q-110 -31 -209 -31t-189 8z" />
    <glyph glyph-name="germandbls" unicode="&#xdf;" horiz-adv-x="1142" 
d="M-93 -381q52 0 92 10q81 20 121 122q22 54 36 140l202 1188q40 237 139 339q98 102 304 102q155 0 241 -74t86 -203q0 -160 -139 -299q-82 -82 -110 -131q-29 -49 -29 -97t40 -88t88 -85t88 -103t40 -136q0 -147 -100 -238t-260 -91t-263 48q15 61 45 114q247 -84 371 4
q66 49 67 146t-127 193q-75 57 -102 112q-26 55 -26 124t44 129q44 59 97 117t97 121t44 149t-60 129q-59 42 -141 42q-82 -1 -128 -19t-81 -60q-61 -75 -94 -277l-198 -1162q-35 -205 -126 -295t-261 -90q-91 0 -137 23q11 45 40 115q48 -19 100 -19z" />
    <glyph glyph-name="agrave" unicode="&#xe0;" horiz-adv-x="1110" 
d="M818 950q-96 0 -186 -46q-187 -95 -265 -320q-39 -111 -39 -234q0 -124 43 -190t122 -66t147 49q135 97 219 320q40 106 63 221l47 252q-55 14 -151 14zM969 0q-25 -4 -71 -4t-64 4q-13 110 -3 157q9 49 14 71l9 40q-42 -101 -151 -197t-244 -96q-135 -1 -205 91t-70 244
q0 311 174 525q86 105 214 170t289 65t257 -40l-104 -592q-20 -118 -36 -198t-15 -143q0 -63 6 -97zM680 1485h60q24 0 46 -4l193 -267q-37 -6 -76 -6t-76 6l-229 267q46 4 82 4z" />
    <glyph glyph-name="aacute" unicode="&#xe1;" horiz-adv-x="1110" 
d="M818 950q-96 0 -186 -46q-187 -95 -265 -320q-39 -111 -39 -234q0 -124 43 -190t122 -66t147 49q135 97 219 320q40 106 63 221l47 252q-55 14 -151 14zM969 0q-25 -4 -71 -4t-64 4q-13 110 -3 157q9 49 14 71l9 40q-42 -101 -151 -197t-244 -96q-135 -1 -205 91t-70 244
q0 311 174 525q86 105 214 170t289 65t257 -40l-104 -592q-20 -118 -36 -198t-15 -143q0 -63 6 -97zM982 1485h46q52 0 96 -4l-229 -267q-37 -6 -76 -6t-76 6l193 267q22 4 46 4z" />
    <glyph glyph-name="acircumflex" unicode="&#xe2;" horiz-adv-x="1110" 
d="M818 950q-96 0 -186 -46q-187 -95 -265 -320q-39 -111 -39 -234q0 -124 43 -190t122 -66t147 49q135 97 219 320q40 106 63 221l47 252q-55 14 -151 14zM969 0q-25 -4 -71 -4t-64 4q-13 110 -3 157q9 49 14 71l9 40q-42 -101 -151 -197t-244 -96q-135 -1 -205 91t-70 244
q0 311 174 525q86 105 214 170t289 65t257 -40l-104 -592q-20 -118 -36 -198t-15 -143q0 -63 6 -97zM786 1479q27 6 91 6q63 0 90 -6l149 -265q-30 -6 -68 -6t-75 6l-103 183l-172 -183q-35 -6 -91 -6q-57 0 -81 6z" />
    <glyph glyph-name="atilde" unicode="&#xe3;" horiz-adv-x="1110" 
d="M818 950q-96 0 -186 -46q-187 -95 -265 -320q-39 -111 -39 -234q0 -124 43 -190t122 -66t147 49q135 97 219 320q40 106 63 221l47 252q-55 14 -151 14zM969 0q-25 -4 -71 -4t-64 4q-13 110 -3 157q9 49 14 71l9 40q-42 -101 -151 -197t-244 -96q-135 -1 -205 91t-70 244
q0 311 174 525q86 105 214 170t289 65t257 -40l-104 -592q-20 -118 -36 -198t-15 -143q0 -63 6 -97zM694 1432q63 0 123 -26q59 -26 93 -36q34 -12 72 -12t62 11t64 44q42 -59 47 -86q-95 -90 -175 -90t-161 36t-128 37q-47 0 -73 -14t-61 -41q-36 36 -49 84q93 93 186 93z
" />
    <glyph glyph-name="adieresis" unicode="&#xe4;" horiz-adv-x="1110" 
d="M818 950q-96 0 -186 -46q-187 -95 -265 -320q-39 -111 -39 -234q0 -124 43 -190t122 -66t147 49q135 97 219 320q40 106 63 221l47 252q-55 14 -151 14zM969 0q-25 -4 -71 -4t-64 4q-13 110 -3 157q9 49 14 71l9 40q-42 -101 -151 -197t-244 -96q-135 -1 -205 91t-70 244
q0 311 174 525q86 105 214 170t289 65t257 -40l-104 -592q-20 -118 -36 -198t-15 -143q0 -63 6 -97zM1049 1436q43 0 84 -6q-5 -104 -31 -175q-41 -6 -84 -6t-82 6q5 107 31 175q39 6 82 6zM657 1436q43 0 84 -6q-5 -107 -30 -175q-41 -6 -84 -6t-82 6q5 105 30 175
q39 6 82 6z" />
    <glyph glyph-name="aring" unicode="&#xe5;" horiz-adv-x="1110" 
d="M818 950q-96 0 -186 -46q-187 -95 -265 -320q-39 -111 -39 -234q0 -124 43 -190t122 -66t147 49q135 97 219 320q40 106 63 221l47 252q-55 14 -151 14zM969 0q-25 -4 -71 -4t-64 4q-13 110 -3 157q9 49 14 71l9 40q-42 -101 -151 -197t-244 -96q-135 -1 -205 91t-70 244
q0 311 174 525q86 105 214 170t289 65t257 -40l-104 -592q-20 -118 -36 -198t-15 -143q0 -63 6 -97zM870 1208q-96 0 -143 54t-47 142q0 89 62 157q62 67 156 67t143 -55t49 -143t-62 -155t-158 -67zM786 1405q0 -107 88 -107q51 0 79 38t28 96q0 106 -84 106q-53 0 -82 -39
t-29 -94z" />
    <glyph glyph-name="ae" unicode="&#xe6;" horiz-adv-x="1673" 
d="M1579 821q0 55 -39 93t-114 38q-143 0 -255 -121q-111 -121 -149 -288l121 20q207 33 321 92t115 166zM818 950q-96 0 -186 -46q-187 -95 -265 -320q-39 -111 -39 -234q0 -124 43 -190t122 -66t147 49q135 97 219 320q40 106 63 221l47 252q-55 14 -151 14zM889 270
q-160 -295 -410 -295q-151 -1 -223 91t-72 244q0 311 174 525q86 105 214 170t289 65t257 -40l-22 -129q155 168 360 168q129 0 197 -67q67 -68 67 -158q-1 -240 -341 -334q-103 -29 -222 -47l-149 -25v-28q0 -145 67 -231q68 -85 215 -85t314 60q20 -46 20 -111
q-153 -63 -348 -68q-183 0 -278 82q-96 81 -109 213z" />
    <glyph glyph-name="ccedilla" unicode="&#xe7;" horiz-adv-x="937" 
d="M199 389q0 125 41 248q85 254 310 373q114 59 242 59t234 -39q-5 -71 -39 -119q-103 39 -207 39t-188 -51t-139 -130q-111 -159 -111 -363q0 -312 301 -312q111 0 223 39q23 -53 23 -110q-114 -42 -256 -48l-58 -100q9 2 17 2h20q90 0 136 -47q46 -46 45 -108
q0 -114 -78 -164q-78 -49 -191 -51q-113 -1 -192 38q12 68 39 101q84 -31 146 -31t88 11q52 22 52 81q0 80 -131 80q-34 0 -106 -12l-8 8l110 201q-323 49 -323 405z" />
    <glyph glyph-name="egrave" unicode="&#xe8;" horiz-adv-x="1003" 
d="M471 571q207 33 323 93t115 165q0 55 -39 89q-40 34 -114 34q-140 -1 -249 -117q-110 -117 -151 -282zM195 387q0 125 43 247q89 254 304 375q108 60 240 60t200 -67q69 -68 69 -158q0 -168 -162 -261q-139 -81 -402 -120l-149 -25v-28q0 -148 72 -232t215 -84t309 60
q20 -46 20 -111q-153 -63 -348 -68q-217 0 -322 122q-89 104 -89 290zM602 1485h61q24 0 46 -4l192 -267q-37 -6 -76 -6t-75 6l-230 267q45 4 82 4z" />
    <glyph glyph-name="eacute" unicode="&#xe9;" horiz-adv-x="1003" 
d="M471 571q207 33 323 93t115 165q0 55 -39 89q-40 34 -114 34q-140 -1 -249 -117q-110 -117 -151 -282zM195 387q0 125 43 247q89 254 304 375q108 60 240 60t200 -67q69 -68 69 -158q0 -168 -162 -261q-139 -81 -402 -120l-149 -25v-28q0 -148 72 -232t215 -84t309 60
q20 -46 20 -111q-153 -63 -348 -68q-217 0 -322 122q-89 104 -89 290zM896 1485h46q52 0 96 -4l-229 -267q-37 -6 -76 -6t-76 6l193 267q22 4 46 4z" />
    <glyph glyph-name="ecircumflex" unicode="&#xea;" horiz-adv-x="1003" 
d="M471 571q207 33 323 93t115 165q0 55 -39 89q-40 34 -114 34q-140 -1 -249 -117q-110 -117 -151 -282zM195 387q0 125 43 247q89 254 304 375q108 60 240 60t200 -67q69 -68 69 -158q0 -168 -162 -261q-139 -81 -402 -120l-149 -25v-28q0 -148 72 -232t215 -84t309 60
q20 -46 20 -111q-153 -63 -348 -68q-217 0 -322 122q-89 104 -89 290zM713 1479q27 6 90 6t90 -6l149 -265q-30 -6 -68 -6t-75 6l-102 183l-172 -183q-35 -6 -91 -6q-57 0 -81 6z" />
    <glyph glyph-name="edieresis" unicode="&#xeb;" horiz-adv-x="1003" 
d="M471 571q207 33 323 93t115 165q0 55 -39 89q-40 34 -114 34q-140 -1 -249 -117q-110 -117 -151 -282zM195 387q0 125 43 247q89 254 304 375q108 60 240 60t200 -67q69 -68 69 -158q0 -168 -162 -261q-139 -81 -402 -120l-149 -25v-28q0 -148 72 -232t215 -84t309 60
q20 -46 20 -111q-153 -63 -348 -68q-217 0 -322 122q-89 104 -89 290zM969 1436q43 0 84 -6q-5 -104 -31 -175q-41 -6 -84 -6t-82 6q5 107 31 175q39 6 82 6zM578 1436q43 0 84 -6q-5 -104 -31 -175q-41 -6 -84 -6t-82 6q5 107 31 175q39 6 82 6z" />
    <glyph glyph-name="igrave" unicode="&#xec;" horiz-adv-x="542" 
d="M262 930q0 55 19 114h262l-183 -1044q-24 -4 -68 -4t-67 4l164 930h-127zM310 1485h60q24 0 46 -4l192 -267q-38 -6 -76 -6t-75 6l-230 267q46 4 83 4z" />
    <glyph glyph-name="iacute" unicode="&#xed;" horiz-adv-x="542" 
d="M262 930q0 55 19 114h262l-183 -1044q-24 -4 -68 -4t-67 4l164 930h-127zM564 1485h46q51 0 97 -4l-230 -267q-37 -6 -76 -6t-75 6l192 267q22 4 46 4z" />
    <glyph glyph-name="icircumflex" unicode="&#xee;" horiz-adv-x="542" 
d="M262 930q0 55 19 114h262l-183 -1044q-24 -4 -68 -4t-67 4l164 930h-127zM403 1479q27 6 91 6q63 0 90 -6l149 -265q-31 -6 -69 -6t-74 6l-103 183l-172 -183q-34 -6 -91 -6t-81 6z" />
    <glyph glyph-name="idieresis" unicode="&#xef;" horiz-adv-x="542" 
d="M262 930q0 55 19 114h262l-183 -1044q-24 -4 -68 -4t-67 4l164 930h-127zM674 1436q43 0 84 -6q-5 -109 -31 -175q-41 -6 -84 -6t-82 6q5 107 31 175q39 6 82 6zM283 1436q43 0 84 -6q-5 -104 -31 -175q-41 -6 -84 -6t-82 6q5 107 31 175q39 6 82 6z" />
    <glyph glyph-name="eth" unicode="&#xf0;" horiz-adv-x="1146" 
d="M586 96q175 0 287 148t112 312q0 163 -75 245t-210 82q-176 0 -271 -158t-93 -336q0 -293 250 -293zM854 54q-114 -79 -297 -79q-182 0 -278 122q-86 107 -86 286q0 234 125 413q62 89 158 146t217 57q120 0 203 -50t124 -122q12 264 -111 412l-233 -125q-45 52 -45 107
l186 100q-94 61 -229 74q0 16 6 45q6 14 14 36t19 33q201 -23 323 -116l224 118q34 -30 51 -104l-189 -100q133 -172 133 -498t-130 -552q-71 -124 -185 -203z" />
    <glyph glyph-name="ntilde" unicode="&#xf1;" horiz-adv-x="1163" 
d="M358 1049q24 4 70 4t66 -4q6 -24 6 -103t-27 -170q40 96 151 195q110 98 240 98q131 0 200 -68t69 -198q0 -56 -15 -144l-114 -659q-36 -6 -81 -4t-55 4l109 618q14 86 14 164t-47 120t-121 42q-142 0 -259 -172t-158 -412l-64 -360q-24 -4 -70 -4q-45 0 -65 4l106 610
q20 117 42 234q22 116 3 205zM655 1432q63 0 123 -26t94 -36q34 -12 71 -12q38 0 63 11t63 44q42 -59 47 -86q-95 -90 -175 -90t-161 36t-128 37q-46 0 -72 -14t-62 -41q-36 36 -49 84q93 93 186 93z" />
    <glyph glyph-name="ograve" unicode="&#xf2;" horiz-adv-x="1140" 
d="M551 -25q-162 -1 -257 101t-95 297q0 106 33 228q74 265 285 399q109 69 271 69t258 -101t95 -296q0 -106 -34 -228t-105 -227q-71 -104 -180 -173t-271 -69zM578 94q201 0 319 195q102 168 100 381q0 135 -62 208q-62 72 -173 72t-190 -55q-154 -107 -205 -326
q-25 -101 -25 -215t62 -187t174 -73zM699 1485h60q24 0 46 -4l192 -267q-37 -6 -75 -6t-76 6l-230 267q46 4 83 4z" />
    <glyph glyph-name="oacute" unicode="&#xf3;" horiz-adv-x="1140" 
d="M551 -25q-162 -1 -257 101t-95 297q0 106 33 228q74 265 285 399q109 69 271 69t258 -101t95 -296q0 -106 -34 -228t-105 -227q-71 -104 -180 -173t-271 -69zM578 94q201 0 319 195q102 168 100 381q0 135 -62 208q-62 72 -173 72t-190 -55q-154 -107 -205 -326
q-25 -101 -25 -215t62 -187t174 -73zM900 1485h46q52 0 96 -4l-229 -267q-37 -6 -76 -6t-75 6l192 267q22 4 46 4z" />
    <glyph glyph-name="ocircumflex" unicode="&#xf4;" horiz-adv-x="1140" 
d="M551 -25q-162 -1 -257 101t-95 297q0 106 33 228q74 265 285 399q109 69 271 69t258 -101t95 -296q0 -106 -34 -228t-105 -227q-71 -104 -180 -173t-271 -69zM578 94q201 0 319 195q102 168 100 381q0 135 -62 208q-62 72 -173 72t-190 -55q-154 -107 -205 -326
q-25 -101 -25 -215t62 -187t174 -73zM750 1479q27 6 90 6t90 -6l149 -265q-31 -6 -69 -6t-74 6l-102 183l-172 -183q-34 -6 -92 -6q-57 0 -81 6z" />
    <glyph glyph-name="otilde" unicode="&#xf5;" horiz-adv-x="1140" 
d="M551 -25q-162 -1 -257 101t-95 297q0 106 33 228q74 265 285 399q109 69 271 69t258 -101t95 -296q0 -106 -34 -228t-105 -227q-71 -104 -180 -173t-271 -69zM578 94q201 0 319 195q102 168 100 381q0 135 -62 208q-62 72 -173 72t-190 -55q-154 -107 -205 -326
q-25 -101 -25 -215t62 -187t174 -73zM651 1432q63 0 123 -26t94 -36q34 -12 71 -12q39 0 63 11t63 44q42 -59 47 -86q-95 -90 -175 -90t-161 36t-128 37q-46 0 -72 -14t-62 -41q-36 36 -49 84q93 93 186 93z" />
    <glyph glyph-name="odieresis" unicode="&#xf6;" horiz-adv-x="1140" 
d="M551 -25q-162 -1 -257 101t-95 297q0 106 33 228q74 265 285 399q109 69 271 69t258 -101t95 -296q0 -106 -34 -228t-105 -227q-71 -104 -180 -173t-271 -69zM578 94q201 0 319 195q102 168 100 381q0 135 -62 208q-62 72 -173 72t-190 -55q-154 -107 -205 -326
q-25 -101 -25 -215t62 -187t174 -73zM1014 1436q43 0 84 -6q-5 -109 -31 -175q-41 -6 -84 -6t-82 6q5 107 31 175q39 6 82 6zM623 1436q43 0 84 -6q-5 -104 -31 -175q-41 -6 -84 -6t-82 6q5 107 31 175q39 6 82 6z" />
    <glyph glyph-name="divide" unicode="&#xf7;" 
d="M1210 791q0 -40 -6 -64q-6 -25 -10 -45t-8 -31h-873q1 37 7 62q6 24 10 46t8 32h872zM690 1056q0 50 40 87t92 37t82 -28t30 -78t-36 -92t-93 -42t-86 33t-29 83zM582 384q0 50 40 87t92 37t82 -28t30 -78t-36 -92t-94 -42t-86 33t-28 83z" />
    <glyph glyph-name="oslash" unicode="&#xf8;" horiz-adv-x="1140" 
d="M750 950q-100 0 -178 -55q-154 -107 -205 -326q-25 -102 -25 -186t18 -139l549 657q-59 49 -159 49zM420 152q63 -58 166 -58q104 0 182 56t129 139q102 168 100 381q0 71 -24 141zM567 -25q-145 0 -237 68l-64 -76q-29 -6 -72 -6t-65 6l129 156q-59 96 -59 226
q0 276 138 478q71 104 181 173t250 69q141 0 231 -61l54 63q18 6 62 6t75 -6l-117 -139q68 -102 68 -234t-34 -255q-73 -266 -285 -399q-110 -69 -255 -69z" />
    <glyph glyph-name="ugrave" unicode="&#xf9;" horiz-adv-x="1136" 
d="M993 -4q-23 -4 -69 -4q-45 0 -66 4q-6 33 -6 107t27 165q-40 -97 -152 -195q-111 -98 -241 -98t-198 68t-69 199q0 61 14 143l115 659q30 5 75 5t60 -5l-108 -618q-13 -78 -14 -160t47 -124t120 -42q143 0 260 173q116 173 158 411l64 360q30 5 74 5t61 -5l-107 -610
q-20 -118 -36 -198t-15 -143q0 -63 6 -97zM604 1485h61q24 0 46 -4l192 -267q-37 -6 -75 -6t-76 6l-230 267q45 4 82 4z" />
    <glyph glyph-name="uacute" unicode="&#xfa;" horiz-adv-x="1136" 
d="M993 -4q-23 -4 -69 -4q-45 0 -66 4q-6 33 -6 107t27 165q-40 -97 -152 -195q-111 -98 -241 -98t-198 68t-69 199q0 61 14 143l115 659q30 5 75 5t60 -5l-108 -618q-13 -78 -14 -160t47 -124t120 -42q143 0 260 173q116 173 158 411l64 360q30 5 74 5t61 -5l-107 -610
q-20 -118 -36 -198t-15 -143q0 -63 6 -97zM928 1485h45q52 0 96 -4l-229 -267q-37 -6 -76 -6t-76 6l193 267q23 4 47 4z" />
    <glyph glyph-name="ucircumflex" unicode="&#xfb;" horiz-adv-x="1136" 
d="M993 -4q-23 -4 -69 -4q-45 0 -66 4q-6 33 -6 107t27 165q-40 -97 -152 -195q-111 -98 -241 -98t-198 68t-69 199q0 61 14 143l115 659q30 5 75 5t60 -5l-108 -618q-13 -78 -14 -160t47 -124t120 -42q143 0 260 173q116 173 158 411l64 360q30 5 74 5t61 -5l-107 -610
q-20 -118 -36 -198t-15 -143q0 -63 6 -97zM733 1479q27 6 90 6t90 -6l150 -265q-31 -6 -69 -6t-74 6l-103 183l-172 -183q-34 -6 -91 -6t-81 6z" />
    <glyph glyph-name="udieresis" unicode="&#xfc;" horiz-adv-x="1136" 
d="M993 -4q-23 -4 -69 -4q-45 0 -66 4q-6 33 -6 107t27 165q-40 -97 -152 -195q-111 -98 -241 -98t-198 68t-69 199q0 61 14 143l115 659q30 5 75 5t60 -5l-108 -618q-13 -78 -14 -160t47 -124t120 -42q143 0 260 173q116 173 158 411l64 360q30 5 74 5t61 -5l-107 -610
q-20 -118 -36 -198t-15 -143q0 -63 6 -97zM1004 1436q43 0 83 -6q-5 -107 -30 -175q-41 -6 -84 -6t-82 6q5 107 31 175q39 6 82 6zM612 1436q43 0 84 -6q-5 -107 -30 -175q-41 -6 -84 -6t-82 6q5 105 30 175q39 6 82 6z" />
    <glyph glyph-name="yacute" unicode="&#xfd;" horiz-adv-x="960" 
d="M291 1051q39 0 76 -7l143 -964l367 813q37 80 41 143v8q78 13 145 0v-8q0 -57 -49 -157l-508 -1098q-110 -237 -248 -275q-42 -12 -100 -12t-119 19q0 77 35 114q47 -14 89 -14q41 0 69 9q59 19 119 123q32 54 73 144l47 107q-60 0 -80 4l-170 1044q31 7 70 7zM792 1485
h46q52 0 96 -4l-229 -267q-37 -6 -76 -6t-76 6l192 267q23 4 47 4z" />
    <glyph glyph-name="thorn" unicode="&#xfe;" horiz-adv-x="1126" 
d="M406 1505q24 4 70 4q45 0 65 -4q6 -24 6 -97t-27 -204l-57 -327q59 82 138 137t211 55t219 -99q87 -98 87 -266q0 -328 -189 -528q-189 -199 -503 -201q-52 0 -125 11l-80 -469q-20 -4 -66 -4q-47 0 -71 4l276 1550q51 258 51 331q1 73 -5 107zM975 659q-1 137 -61 212
t-162 75q-195 0 -301 -248q-39 -90 -62 -221l-63 -368q62 -17 146 -17q85 0 177 36t165 108q161 159 161 423z" />
    <glyph glyph-name="ydieresis" unicode="&#xff;" horiz-adv-x="960" 
d="M291 1051q39 0 76 -7l143 -964l367 813q37 80 41 143v8q78 13 145 0v-8q0 -57 -49 -157l-508 -1098q-110 -237 -248 -275q-42 -12 -100 -12t-119 19q0 77 35 114q47 -14 89 -14q41 0 69 9q59 19 119 123q32 54 73 144l47 107q-60 0 -80 4l-170 1044q31 7 70 7zM889 1436
q43 0 84 -6q-5 -109 -31 -175q-41 -6 -84 -6t-82 6q5 107 31 175q39 6 82 6zM498 1436q43 0 84 -6q-5 -104 -31 -175q-41 -6 -84 -6t-82 6q5 107 31 175q39 6 82 6z" />
    <glyph glyph-name="Amacron" unicode="&#x100;" horiz-adv-x="1173" 
d="M918 516l-107 803l-348 -803h455zM1141 0q-20 -4 -73 -4t-81 4l-51 385h-528l-166 -385q-32 -4 -81 -4t-73 4l657 1473q32 4 95 4t84 -4zM535 1624q0 75 18 125h610q0 -76 -18 -125h-610z" />
    <glyph glyph-name="amacron" unicode="&#x101;" horiz-adv-x="1110" 
d="M818 950q-96 0 -186 -46q-187 -95 -265 -320q-39 -111 -39 -234q0 -124 43 -190t122 -66t147 49q135 97 219 320q40 106 63 221l47 252q-55 14 -151 14zM969 0q-25 -4 -71 -4t-64 4q-13 110 -3 157q9 49 14 71l9 40q-42 -101 -151 -197t-244 -96q-135 -1 -205 91t-70 244
q0 311 174 525q86 105 214 170t289 65t257 -40l-104 -592q-20 -118 -36 -198t-15 -143q0 -63 6 -97zM559 1278q0 75 19 125h561q0 -80 -19 -125h-561z" />
    <glyph glyph-name="Abreve" unicode="&#x102;" horiz-adv-x="1173" 
d="M918 516l-107 803l-348 -803h455zM1141 0q-20 -4 -73 -4t-81 4l-51 385h-528l-166 -385q-32 -4 -81 -4t-73 4l657 1473q32 4 95 4t84 -4zM854 1585q-186 0 -250 118q-24 46 -24 118q32 6 62 6t60 -6q5 -61 28 -84q45 -43 126 -43q123 0 164 70q14 24 27 57q33 6 65 6
t64 -6q-57 -236 -322 -236z" />
    <glyph glyph-name="abreve" unicode="&#x103;" horiz-adv-x="1110" 
d="M818 950q-96 0 -186 -46q-187 -95 -265 -320q-39 -111 -39 -234q0 -124 43 -190t122 -66t147 49q135 97 219 320q40 106 63 221l47 252q-55 14 -151 14zM969 0q-25 -4 -71 -4t-64 4q-13 110 -3 157q9 49 14 71l9 40q-42 -101 -151 -197t-244 -96q-135 -1 -205 91t-70 244
q0 311 174 525q86 105 214 170t289 65t257 -40l-104 -592q-20 -118 -36 -198t-15 -143q0 -63 6 -97zM636 1485q36 0 60 -6q0 -160 152 -160q123 0 166 100q12 29 22 60q31 6 68 6t65 -6q-60 -266 -333 -271q-184 0 -242 137q-23 52 -21 134q27 6 63 6z" />
    <glyph glyph-name="Aogonek" unicode="&#x104;" horiz-adv-x="1173" 
d="M918 516l-107 803l-348 -803h455zM793 -326q0 132 194 326l-51 385h-528l-166 -385q-32 -4 -81 -4t-73 4l657 1473q32 4 95 4t84 -4l217 -1473q-210 -179 -207 -293q0 -90 115 -90q57 0 108 16q12 -37 12 -106q-69 -21 -137 -22q-69 -1 -107 9t-68 28q-64 41 -64 132z
" />
    <glyph glyph-name="aogonek" unicode="&#x105;" horiz-adv-x="1110" 
d="M818 950q-96 0 -186 -46q-187 -95 -265 -320q-39 -111 -39 -234q0 -124 43 -190t122 -66t147 49q135 97 219 320q40 106 63 221l47 252q-55 14 -151 14zM881 -383q57 0 108 16q14 -51 12 -106q-69 -21 -137 -22q-69 -1 -107 9t-68 28q-30 19 -47 52t-17 80q0 48 18 94
q49 127 191 232q-13 110 -3 157q9 49 14 71l9 40q-42 -101 -151 -197t-244 -96q-135 -1 -205 91t-70 244q0 311 174 525q86 105 214 170t289 65t257 -40l-104 -592q-20 -118 -36 -198t-15 -141q0 -61 10 -99q-210 -179 -207 -293q0 -90 115 -90z" />
    <glyph glyph-name="Cacute" unicode="&#x106;" horiz-adv-x="1187" 
d="M399 559q1 -223 107 -340t294 -117t318 68q31 -47 37 -117q-160 -78 -393 -78q-232 -1 -373 147t-141 427q0 174 46 344q97 359 386 521q147 83 340 83t321 -49q-15 -69 -47 -121q-122 43 -276 43t-273 -68t-195 -180q-150 -222 -151 -563zM1065 1821q49 6 111 6t94 -6
l-303 -228q-41 -6 -89 -6t-79 6z" />
    <glyph glyph-name="cacute" unicode="&#x107;" horiz-adv-x="937" 
d="M627 -25q-221 0 -325 110q-103 110 -103 304q0 125 41 248q85 254 310 373q114 59 242 59t234 -39q-5 -71 -39 -119q-103 39 -207 39t-188 -51t-139 -130q-111 -159 -111 -363q0 -312 301 -312q104 0 223 39q23 -53 23 -110q-68 -28 -154 -38t-108 -10zM870 1485h45
q53 0 97 -4l-230 -267q-37 -6 -76 -6t-75 6l192 267q23 4 47 4z" />
    <glyph glyph-name="Ccircumflex" unicode="&#x108;" horiz-adv-x="1187" 
d="M399 559q1 -223 107 -340t294 -117t318 68q31 -47 37 -117q-160 -78 -393 -78q-232 -1 -373 147t-141 427q0 174 46 344q97 359 386 521q147 83 340 83t321 -49q-15 -69 -47 -121q-122 43 -276 43t-273 -68t-195 -180q-150 -222 -151 -563zM1033 1827q48 0 85 -6
l176 -228q-38 -6 -72 -6t-77 6l-113 140l-172 -142q-26 -4 -50 -4h-40q-60 0 -84 6l272 228q27 6 75 6z" />
    <glyph glyph-name="ccircumflex" unicode="&#x109;" horiz-adv-x="937" 
d="M627 -25q-221 0 -325 110q-103 110 -103 304q0 125 41 248q85 254 310 373q114 59 242 59t234 -39q-5 -71 -39 -119q-103 39 -207 39t-188 -51t-139 -130q-111 -159 -111 -363q0 -312 301 -312q104 0 223 39q23 -53 23 -110q-68 -28 -154 -38t-108 -10zM739 1479
q27 6 90 6t91 -6l149 -265q-31 -6 -69 -6t-74 6l-103 183l-172 -183q-35 -6 -91 -6q-57 0 -81 6z" />
    <glyph glyph-name="Cdotaccent" unicode="&#x10a;" horiz-adv-x="1187" 
d="M399 559q1 -223 107 -340t294 -117t318 68q31 -47 37 -117q-160 -78 -393 -78q-232 -1 -373 147t-141 427q0 174 46 344q97 359 386 521q147 83 340 83t321 -49q-15 -69 -47 -121q-122 43 -276 43t-273 -68t-195 -180q-150 -222 -151 -563zM1058 1774q49 0 79 -5
q-4 -84 -31 -182l-94 -2l-88 2q3 75 28 182q57 5 106 5z" />
    <glyph glyph-name="cdotaccent" unicode="&#x10b;" horiz-adv-x="937" 
d="M627 -25q-221 0 -325 110q-103 110 -103 304q0 125 41 248q85 254 310 373q114 59 242 59t234 -39q-5 -71 -39 -119q-103 39 -207 39t-188 -51t-139 -130q-111 -159 -111 -363q0 -312 301 -312q104 0 223 39q23 -53 23 -110q-68 -28 -154 -38t-108 -10zM841 1436
q51 0 87 -4q-4 -94 -31 -183l-94 -2l-88 2q3 77 28 183q47 4 98 4z" />
    <glyph glyph-name="Ccaron" unicode="&#x10c;" horiz-adv-x="1187" 
d="M399 559q1 -223 107 -340t294 -117t318 68q31 -47 37 -117q-160 -78 -393 -78q-232 -1 -373 147t-141 427q0 174 46 344q97 359 386 521q147 83 340 83t321 -49q-15 -69 -47 -121q-122 43 -276 43t-273 -68t-195 -180q-150 -222 -151 -563zM780 1821q37 6 81 6t77 -6
l94 -138l164 138q41 6 97 6q57 0 81 -6l-272 -228q-27 -6 -80 -6t-80 6z" />
    <glyph glyph-name="ccaron" unicode="&#x10d;" horiz-adv-x="937" 
d="M627 -25q-221 0 -325 110q-103 110 -103 304q0 125 41 248q85 254 310 373q114 59 242 59t234 -39q-5 -71 -39 -119q-103 39 -207 39t-188 -51t-139 -130q-111 -159 -111 -363q0 -312 301 -312q104 0 223 39q23 -53 23 -110q-68 -28 -154 -38t-108 -10zM547 1479
q31 6 77 6t74 -6l109 -185l178 185q35 6 82 6t78 -6l-254 -265q-27 -6 -90 -6t-92 6z" />
    <glyph glyph-name="Dcaron" unicode="&#x10e;" horiz-adv-x="1396" 
d="M375 123q83 -12 231 -12t273 57q125 56 209 158q170 207 172 538q0 250 -111 377t-387 127q-88 0 -170 -14zM766 1495q347 0 505 -171q136 -147 136 -431q0 -386 -190 -631q-99 -129 -259 -208t-378 -79q-219 0 -369 25l258 1473q160 22 297 22zM645 1821q37 6 81 6
t77 -6l94 -138l164 138q41 6 97 6q57 0 81 -6l-272 -228q-27 -6 -80 -6t-80 6z" />
    <glyph glyph-name="dcaron" unicode="&#x10f;" horiz-adv-x="1212" 
d="M822 950q-96 0 -186 -46q-187 -95 -265 -320q-39 -111 -39 -234q0 -124 43 -190t122 -66t147 49q135 97 219 320q40 106 63 221l47 252q-55 14 -151 14zM1093 1509h52q20 0 31 -2q2 -23 2 -40v-33q0 -65 -10 -122t-15 -98q-6 -41 -12 -73l-125 -703q-20 -118 -36 -198
t-15 -143q0 -63 6 -97q-36 -6 -81 -4t-54 4q-7 28 -7 74q0 88 29 194q-42 -101 -151 -197t-244 -96q-135 -1 -205 91t-70 244q0 311 174 525q86 105 214 170t296 64q57 0 117 -10q20 117 36 205q15 88 15 139v65q0 14 -2 37q24 4 55 4zM1358 1505q24 4 66 4t77 -4l-86 -413
q-68 -12 -129 0z" />
    <glyph glyph-name="Dcroat" unicode="&#x110;" horiz-adv-x="1421" 
d="M1288 864q0 252 -107 378t-382 126q-96 0 -178 -14l-93 -518h412q0 -66 -18 -113h-414l-105 -600q84 -12 232 -12q149 0 273 57q124 56 208 158q172 208 172 538zM207 723q0 57 18 113h160l113 637q159 22 320 22q325 0 481 -171q137 -148 137 -431q0 -172 -48 -337
t-150 -294t-259 -208t-373 -79t-366 25l127 723h-160z" />
    <glyph glyph-name="dcroat" unicode="&#x111;" horiz-adv-x="1099" 
d="M814 903q-96 0 -185 -39q-185 -80 -259 -287q-38 -103 -38 -227t43 -190t122 -66t147 49q135 97 219 320q40 106 63 221l39 205q-55 14 -151 14zM864 1022q57 0 117 -10l31 178h-295q0 57 18 113h295q10 88 10 119v46q0 14 -2 37q24 4 55 4h52q20 0 31 -2q2 -23 2 -40
v-33q0 -32 -13 -131h131q0 -66 -18 -113h-129l-133 -752q-20 -118 -36 -198t-15 -143q0 -63 6 -97q-36 -6 -81 -4t-54 4q-7 28 -7 74q0 88 29 194q-42 -101 -151 -197t-244 -96q-135 -1 -205 91t-70 244t43 278q89 263 338 377q127 57 295 57z" />
    <glyph glyph-name="Emacron" unicode="&#x112;" horiz-adv-x="1062" 
d="M1227 1473q0 -66 -23 -130h-614l-88 -497h493q0 -74 -22 -129h-494l-102 -588h633q-4 -72 -25 -129h-774l258 1473h758zM561 1624q0 77 19 125h610q0 -78 -19 -125h-610z" />
    <glyph glyph-name="emacron" unicode="&#x113;" horiz-adv-x="1003" 
d="M471 571q207 33 323 93t115 165q0 55 -39 89q-40 34 -114 34q-140 -1 -249 -117q-110 -117 -151 -282zM195 387q0 125 43 247q89 254 304 375q108 60 240 60t200 -67q69 -68 69 -158q0 -168 -162 -261q-139 -81 -402 -120l-149 -25v-28q0 -148 72 -232t215 -84t309 60
q20 -46 20 -111q-153 -63 -348 -68q-217 0 -322 122q-89 104 -89 290zM485 1278q0 75 19 125h561q0 -78 -18 -125h-562z" />
    <glyph glyph-name="Ebreve" unicode="&#x114;" horiz-adv-x="1062" 
d="M1227 1473q0 -66 -23 -130h-614l-88 -497h493q0 -74 -22 -129h-494l-102 -588h633q-4 -72 -25 -129h-774l258 1473h758zM846 1585q-188 0 -250 118q-25 46 -25 118q33 6 63 6t60 -6q5 -61 28 -84q45 -43 126 -43q123 0 164 70q14 24 26 57q33 6 66 6t63 -6
q-57 -236 -321 -236z" />
    <glyph glyph-name="ebreve" unicode="&#x115;" horiz-adv-x="1003" 
d="M471 571q207 33 323 93t115 165q0 55 -39 89q-40 34 -114 34q-140 -1 -249 -117q-110 -117 -151 -282zM195 387q0 125 43 247q89 254 304 375q108 60 240 60t200 -67q69 -68 69 -158q0 -168 -162 -261q-139 -81 -402 -120l-149 -25v-28q0 -148 72 -232t215 -84t309 60
q20 -46 20 -111q-153 -63 -348 -68q-217 0 -322 122q-89 104 -89 290zM587 1485q36 0 60 -6q0 -160 152 -160q123 0 166 100q12 29 22 60q31 6 68 6t65 -6q-60 -266 -334 -271q-183 0 -241 137q-23 52 -21 134q27 6 63 6z" />
    <glyph glyph-name="Edotaccent" unicode="&#x116;" horiz-adv-x="1062" 
d="M1227 1473q0 -66 -23 -130h-614l-88 -497h493q0 -74 -22 -129h-494l-102 -588h633q-4 -72 -25 -129h-774l258 1473h758zM913 1774q48 0 78 -5q-4 -88 -30 -182l-95 -2l-88 2q3 70 29 182q58 5 106 5z" />
    <glyph glyph-name="edotaccent" unicode="&#x117;" horiz-adv-x="1003" 
d="M471 571q207 33 323 93t115 165q0 55 -39 89q-40 34 -114 34q-140 -1 -249 -117q-110 -117 -151 -282zM195 387q0 125 43 247q89 254 304 375q108 60 240 60t200 -67q69 -68 69 -158q0 -168 -162 -261q-139 -81 -402 -120l-149 -25v-28q0 -148 72 -232t215 -84t309 60
q20 -46 20 -111q-153 -63 -348 -68q-217 0 -322 122q-89 104 -89 290zM781 1436q51 0 87 -4q-4 -89 -30 -183l-95 -2l-88 2q3 71 29 183q46 4 97 4z" />
    <glyph glyph-name="Eogonek" unicode="&#x118;" horiz-adv-x="1062" 
d="M774 -383q56 0 109 16q14 -51 12 -106q-69 -21 -138 -22q-236 -4 -239 169q0 130 134 260q38 37 79 66h-520l258 1473h758q0 -66 -23 -130h-614l-88 -497h493q0 -74 -22 -129h-494l-102 -588h633q-4 -72 -25 -129h-119q-207 -176 -207 -293q0 -90 115 -90z" />
    <glyph glyph-name="eogonek" unicode="&#x119;" horiz-adv-x="1003" 
d="M471 571q207 33 323 93t115 165q0 55 -39 89q-40 34 -114 34q-140 -1 -249 -117q-110 -117 -151 -282zM717 -383q57 0 108 16q14 -51 13 -106q-69 -21 -138 -22q-239 -4 -239 166q0 89 55 168t127 138q-10 -2 -18 -2h-19q-217 0 -322 122q-89 104 -89 290q0 125 43 247
q89 254 304 375q108 60 240 60t200 -67q69 -68 69 -158q0 -168 -162 -261q-139 -81 -402 -120l-149 -25v-28q0 -148 72 -232t215 -84t309 60q20 -46 20 -111q-27 -12 -91 -37t-110 -63q-91 -75 -129 -154q-22 -43 -22 -82q0 -90 115 -90z" />
    <glyph glyph-name="Ecaron" unicode="&#x11a;" horiz-adv-x="1062" 
d="M1227 1473q0 -66 -23 -130h-614l-88 -497h493q0 -74 -22 -129h-494l-102 -588h633q-4 -72 -25 -129h-774l258 1473h758zM616 1821q37 6 81 6t77 -6l94 -138l164 138q41 6 97 6q57 0 81 -6l-272 -228q-27 -6 -80 -6t-80 6z" />
    <glyph glyph-name="ecaron" unicode="&#x11b;" horiz-adv-x="1003" 
d="M471 571q207 33 323 93t115 165q0 55 -39 89q-40 34 -114 34q-140 -1 -249 -117q-110 -117 -151 -282zM195 387q0 125 43 247q89 254 304 375q108 60 240 60t200 -67q69 -68 69 -158q0 -168 -162 -261q-139 -81 -402 -120l-149 -25v-28q0 -148 72 -232t215 -84t309 60
q20 -46 20 -111q-153 -63 -348 -68q-217 0 -322 122q-89 104 -89 290zM539 1479q31 6 77 6t74 -6l109 -185l178 185q35 6 82 6t78 -6l-254 -265q-27 -6 -90 -6t-93 6z" />
    <glyph glyph-name="Gcircumflex" unicode="&#x11c;" horiz-adv-x="1343" 
d="M1018 1368q-154 0 -273 -68t-195 -180q-150 -219 -151 -561q1 -223 107 -340t305 -117q138 0 244 43l108 615q28 4 71 4t73 -4l-125 -703q-160 -78 -406 -82q-243 0 -386 155q-142 155 -142 421q0 398 183 652q95 132 245 213t343 81t322 -49q-16 -72 -47 -123
q-122 43 -276 43zM1046 1827q48 0 84 -6l177 -228q-37 -6 -72 -6t-78 6l-113 140l-172 -142q-26 -4 -50 -4h-40q-60 0 -84 6l273 228q27 6 75 6z" />
    <glyph glyph-name="gcircumflex" unicode="&#x11d;" horiz-adv-x="1095" 
d="M818 950q-96 0 -186 -46q-187 -95 -265 -320q-39 -111 -39 -234q0 -124 44 -190t122 -66t146 49q135 97 219 320q40 106 63 221l47 252q-55 14 -151 14zM346 -377q310 0 406 225q31 74 51 172l51 248q-42 -101 -151 -197t-244 -96q-135 -1 -205 91t-70 244q0 311 174 525
q86 105 214 170t289 65t257 -40l-184 -1030q-47 -253 -193 -376q-146 -124 -422 -124q-131 0 -235 45q0 61 35 115q118 -37 227 -37zM762 1479q27 6 90 6t90 -6l150 -265q-31 -6 -69 -6t-75 6l-102 183l-172 -183q-35 -6 -91 -6q-57 0 -81 6z" />
    <glyph glyph-name="Gbreve" unicode="&#x11e;" horiz-adv-x="1343" 
d="M1018 1368q-154 0 -273 -68t-195 -180q-150 -219 -151 -561q1 -223 107 -340t305 -117q138 0 244 43l108 615q28 4 71 4t73 -4l-125 -703q-160 -78 -406 -82q-243 0 -386 155q-142 155 -142 421q0 398 183 652q95 132 245 213t343 81t322 -49q-16 -72 -47 -123
q-122 43 -276 43zM1034 1585q-186 0 -250 118q-24 46 -24 118q32 6 62 6t61 -6q5 -63 38 -95q34 -32 97 -32q141 0 182 70q14 24 27 57q33 6 65 6t64 -6q-57 -236 -322 -236z" />
    <glyph glyph-name="gbreve" unicode="&#x11f;" horiz-adv-x="1095" 
d="M822 950q-96 0 -186 -46q-187 -95 -265 -320q-39 -111 -39 -234q0 -124 44 -190t122 -66t146 49q135 97 219 320q40 106 63 221l47 252q-55 14 -151 14zM350 -377q310 0 406 225q31 74 51 172l51 248q-42 -101 -151 -197t-244 -96q-135 -1 -205 91t-70 244q0 311 174 525
q86 105 214 170t289 65q160 0 257 -40l-184 -1030q-47 -252 -187 -373q-151 -127 -427 -127q-132 0 -236 45q0 61 35 115q118 -37 227 -37zM619 1485q35 0 61 -6q0 -160 151 -160q127 0 166 100q12 29 23 60q32 6 68 6t65 -6q-60 -266 -334 -271q-183 0 -241 137
q-23 52 -21 134q27 6 62 6z" />
    <glyph glyph-name="Gdotaccent" unicode="&#x120;" horiz-adv-x="1343" 
d="M1018 1368q-154 0 -273 -68t-195 -180q-150 -219 -151 -561q1 -223 107 -340t305 -117q138 0 244 43l108 615q28 4 71 4t73 -4l-125 -703q-160 -78 -406 -82q-243 0 -386 155q-142 155 -142 421q0 398 183 652q95 132 245 213t343 81t322 -49q-16 -72 -47 -123
q-122 43 -276 43zM1069 1774q48 0 78 -5q-4 -92 -31 -182l-94 -2l-88 2q3 70 29 182q58 5 106 5z" />
    <glyph glyph-name="gdotaccent" unicode="&#x121;" horiz-adv-x="1095" 
d="M818 950q-96 0 -186 -46q-187 -95 -265 -320q-39 -111 -39 -234q0 -124 44 -190t122 -66t146 49q135 97 219 320q40 106 63 221l47 252q-55 14 -151 14zM346 -377q310 0 406 225q31 74 51 172l51 248q-42 -101 -151 -197t-244 -96q-135 -1 -205 91t-70 244q0 311 174 525
q86 105 214 170t289 65t257 -40l-184 -1030q-47 -253 -193 -376q-146 -124 -422 -124q-131 0 -235 45q0 61 35 115q118 -37 227 -37zM872 1436q50 0 89 -4q-4 -85 -31 -183l-94 -2l-88 2q3 77 28 183q46 4 96 4z" />
    <glyph glyph-name="Gcommaaccent" unicode="&#x122;" horiz-adv-x="1343" 
d="M1018 1368q-154 0 -273 -68t-195 -180q-150 -219 -151 -561q1 -223 107 -340t305 -117q138 0 244 43l108 615q28 4 71 4t73 -4l-125 -703q-160 -78 -406 -82q-243 0 -386 155q-142 155 -142 421q0 398 183 652q95 132 245 213t343 81t322 -49q-16 -72 -47 -123
q-122 43 -276 43zM670 -131q24 6 74 6t85 -6l-182 -361q-35 -6 -69 -6t-66 6z" />
    <glyph glyph-name="gcommaaccent" unicode="&#x123;" horiz-adv-x="1095" 
d="M818 950q-96 0 -186 -46q-187 -95 -265 -320q-39 -111 -39 -234q0 -124 44 -190t122 -66t146 49q135 97 219 320q40 106 63 221l47 252q-55 14 -151 14zM346 -377q310 0 406 225q31 74 51 172l51 248q-42 -101 -151 -197t-244 -96q-135 -1 -205 91t-70 244q0 311 174 525
q86 105 214 170t289 65t257 -40l-184 -1030q-47 -253 -193 -376q-146 -124 -422 -124q-131 0 -235 45q0 61 35 115q118 -37 227 -37zM860 1483q36 4 71 4t77 -4l-154 -301q-41 -6 -77 -6t-87 6z" />
    <glyph glyph-name="Hcircumflex" unicode="&#x124;" horiz-adv-x="1361" 
d="M512 1473q24 4 70 4t71 -4l-110 -627h655l111 627q24 4 70 4q45 0 71 -4l-258 -1473q-24 -4 -72 -4t-69 4l125 717h-656l-125 -717q-23 -4 -71 -4t-70 4zM1001 1827q48 0 84 -6l177 -228q-37 -6 -72 -6t-78 6l-113 140l-172 -142q-25 -4 -49 -4h-41q-60 0 -84 6l273 228
q27 6 75 6z" />
    <glyph glyph-name="hcircumflex" unicode="&#x125;" horiz-adv-x="1136" 
d="M965 760q0 184 -185 184q-131 0 -235 -108t-144 -344l-86 -492q-23 -4 -69 -4t-66 4l187 1067q48 281 48 334q1 53 1 67t-2 37q24 4 54 4h52q20 0 31 -2q2 -23 2 -40v-33q-1 -86 -17 -176q-16 -89 -22 -121l-49 -269q149 201 371 201q126 0 198 -68t72 -198
q0 -62 -14 -144l-115 -659q-36 -6 -81 -4t-54 4l108 618q15 92 15 142zM577 1827q48 0 85 -6l176 -228q-37 -6 -72 -6t-78 6l-113 140l-172 -142q-25 -4 -49 -4h-41q-60 0 -84 6l273 228q27 6 75 6z" />
    <glyph glyph-name="Hbar" unicode="&#x126;" horiz-adv-x="1409" 
d="M1180 846l51 293h-656l-51 -293h656zM1536 1251q0 -65 -18 -112h-146l-198 -1139q-24 -4 -72 -4t-70 4l125 717h-655l-125 -717q-25 -4 -73 -4t-68 4l198 1139h-149q0 57 18 112h152l39 222q24 4 69 4q46 0 72 -4l-39 -222h655l39 222q24 4 70 4t72 -4l-39 -222h143z" />
    <glyph glyph-name="hbar" unicode="&#x127;" horiz-adv-x="1134" 
d="M952 696q0 185 -184 185q-130 0 -234 -109t-145 -344l-74 -428q-23 -4 -69 -4t-66 4l187 1067q6 35 11 66t11 59h-117q0 57 19 113h115q10 82 10 116v47q0 14 -2 37q24 4 54 4h52q20 0 31 -2q2 -23 2 -40v-33q0 -21 -12 -129h311q0 -66 -18 -113h-310l-71 -387
q147 197 370 201q127 0 199 -68t72 -199q0 -68 -15 -143l-102 -596q-36 -6 -81 -4t-54 4l96 555q14 86 14 141z" />
    <glyph glyph-name="Itilde" unicode="&#x128;" horiz-adv-x="565" 
d="M471 1473q28 4 70 4t71 -4l-258 -1473q-32 -4 -76 -4t-65 4zM238 1735q92 92 174 92q82 1 138 -25t90 -38t72 -11q38 0 62 11t64 44q40 -56 47 -86q-95 -90 -189 -90q-62 0 -121 26t-92 36q-33 12 -71 12t-64 -14t-61 -41q-36 36 -49 84z" />
    <glyph glyph-name="itilde" unicode="&#x129;" horiz-adv-x="542" 
d="M262 930q0 55 19 114h262l-183 -1044q-24 -4 -68 -4t-67 4l164 930h-127zM334 1432q64 0 123 -26t93 -36q34 -12 72 -12t62 11t64 44q40 -56 47 -86q-95 -90 -176 -90t-161 36t-126 37q-48 0 -74 -14t-61 -41q-34 34 -50 84q93 93 187 93z" />
    <glyph glyph-name="Imacron" unicode="&#x12a;" horiz-adv-x="565" 
d="M471 1473q28 4 70 4t71 -4l-258 -1473q-32 -4 -76 -4t-65 4zM242 1624q0 75 18 125h610q0 -76 -18 -125h-610z" />
    <glyph glyph-name="imacron" unicode="&#x12b;" horiz-adv-x="542" 
d="M262 930q0 55 19 114h262l-183 -1044q-24 -4 -68 -4t-67 4l164 930h-127zM178 1278q0 75 19 125h561q0 -80 -19 -125h-561z" />
    <glyph glyph-name="Ibreve" unicode="&#x12c;" horiz-adv-x="565" 
d="M471 1473q28 4 70 4t71 -4l-258 -1473q-32 -4 -76 -4t-65 4zM551 1585q-186 0 -250 118q-25 46 -25 118q33 6 63 6t60 -6q5 -61 28 -84q45 -43 126 -43q123 0 164 70q14 24 26 57q33 6 66 6t63 -6q-57 -236 -321 -236z" />
    <glyph glyph-name="ibreve" unicode="&#x12d;" horiz-adv-x="542" 
d="M262 930q0 55 19 114h262l-183 -1044q-24 -4 -68 -4t-67 4l164 930h-127zM269 1485q35 0 61 -6q0 -160 151 -160q123 0 166 100q12 29 23 60q32 6 68 6t65 -6q-60 -266 -334 -271q-181 0 -242 137q-22 52 -20 134q27 6 62 6z" />
    <glyph glyph-name="Iogonek" unicode="&#x12e;" horiz-adv-x="565" 
d="M0 -326q0 130 134 260q38 37 79 66l258 1473q28 4 70 4t71 -4l-258 -1473q-132 -98 -190 -211q-23 -43 -23 -82q0 -90 115 -90q56 0 109 16q12 -37 12 -106q-69 -21 -138 -22q-239 -4 -239 169z" />
    <glyph glyph-name="iogonek" unicode="&#x12f;" horiz-adv-x="542" 
d="M523 1436q51 0 87 -4q-4 -89 -30 -183l-95 -2l-88 2q3 71 29 183q46 4 97 4zM268 -383q56 0 109 16q14 -51 12 -106q-69 -21 -138 -22q-236 -4 -239 169q0 130 134 260q38 37 79 66l164 930h-127q0 55 19 114h262l-183 -1044q-209 -178 -206 -293q0 -90 114 -90z" />
    <glyph glyph-name="Idotaccent" unicode="&#x130;" horiz-adv-x="565" 
d="M471 1473q28 4 70 4t71 -4l-258 -1473q-32 -4 -76 -4t-65 4zM604 1774q48 0 78 -5q-4 -92 -31 -182l-94 -2l-88 2q3 70 29 182q58 5 106 5z" />
    <glyph glyph-name="dotlessi" unicode="&#x131;" horiz-adv-x="542" 
d="M262 930q0 55 19 114h262l-183 -1044q-24 -4 -68 -4t-67 4l164 930h-127z" />
    <glyph glyph-name="IJ" unicode="&#x132;" horiz-adv-x="1239" 
d="M449 1473q28 4 70 4t71 -4l-258 -1473q-32 -4 -76 -4t-66 4zM590 131q73 -25 157 -27q83 -1 127 29q78 52 101 178l184 1037h-256q5 82 21 125h397l-207 -1180q-45 -255 -249 -302q-179 -41 -314 13q7 72 39 127z" />
    <glyph glyph-name="ij" unicode="&#x133;" horiz-adv-x="1087" 
d="M414 1473q36 4 88 4t84 -4q-2 -16 -4 -41t-8 -48t-19 -84q-32 -4 -84 -4t-88 4q2 18 5 46t7 44q4 17 9 42t10 41zM260 930q0 55 19 114h262l-183 -1044q-24 -4 -68 -4t-67 4l164 930h-127zM954 1473q36 4 88 4t84 -4q-2 -16 -4 -41t-9 -55t-17 -77q-32 -4 -84 -4t-88 4
q2 18 5 46t7 44q4 17 9 42t9 41zM530 -381q167 0 205 211l193 1100h-127q0 51 18 114h262l-211 -1196q-32 -170 -108 -259t-232 -89q-104 0 -168 27q11 64 39 113q53 -21 129 -21z" />
    <glyph glyph-name="Jcircumflex" unicode="&#x134;" horiz-adv-x="772" 
d="M98 131q73 -25 157 -27q84 -1 128 29q80 54 100 178l185 1037h-256q5 80 20 125h397l-206 -1180q-45 -254 -249 -302q-179 -41 -315 13q7 67 39 127zM683 1827q48 0 85 -6l176 -228q-37 -6 -72 -6t-77 6l-113 140l-172 -142q-26 -4 -50 -4h-40q-60 0 -84 6l272 228
q27 6 75 6z" />
    <glyph glyph-name="jcircumflex" unicode="&#x135;" horiz-adv-x="538" 
d="M-6 -381q167 0 205 211l192 1100h-127q0 55 19 114h262l-211 -1196q-31 -170 -108 -259t-232 -89q-104 0 -168 27q12 70 39 113q53 -21 129 -21zM393 1479q27 6 90 6t90 -6l150 -265q-31 -6 -69 -6t-74 6l-103 183l-172 -183q-35 -6 -91 -6q-57 0 -81 6z" />
    <glyph glyph-name="Kcommaaccent" unicode="&#x136;" horiz-adv-x="1167" 
d="M1151 0q-46 -4 -87 -4t-75 4l-411 754l606 719q32 4 74 4t88 -4l-603 -715zM471 1473q28 4 70 4t71 -4l-258 -1473q-32 -4 -76 -4t-65 4zM582 -131q24 6 74 6t85 -6l-182 -361q-35 -6 -69 -6t-66 6z" />
    <glyph glyph-name="kcommaaccent" unicode="&#x137;" horiz-adv-x="974" 
d="M470 1509h52q20 0 31 -2q2 -23 2 -40v-33q-1 -86 -17 -176q-16 -89 -22 -121l-201 -1137q-25 -4 -69 -4t-66 4l189 1067q48 281 48 334q1 53 1 67t-2 37q23 4 54 4zM862 -6q-37 0 -76 6l-284 539l321 383q46 57 62 122q79 13 147 0q-8 -40 -31 -76t-61 -83l-289 -338
l289 -547q-41 -6 -78 -6zM471 -131q24 6 75 6t85 -6l-182 -361q-35 -6 -69 -6t-67 6z" />
    <glyph glyph-name="kgreenlandic" unicode="&#x138;" horiz-adv-x="995" 
d="M315 0q-25 -4 -69 -4t-66 4l185 1044q64 15 133 0zM862 -6q-37 0 -76 6l-284 539l321 383q46 57 62 122q79 13 147 0q-8 -40 -31 -76t-61 -83l-289 -338l289 -547q-41 -6 -78 -6z" />
    <glyph glyph-name="Lacute" unicode="&#x139;" horiz-adv-x="1003" 
d="M469 1473q24 4 69 4t74 -4l-235 -1344h598q-5 -82 -25 -129h-739zM653 1821q49 6 111 6t94 -6l-303 -228q-41 -6 -88 -6t-80 6z" />
    <glyph glyph-name="lacute" unicode="&#x13a;" horiz-adv-x="567" 
d="M406 -18q-195 0 -195 165q0 27 6 64l152 856q48 281 48 334q1 53 1 67t-2 37q24 4 54 4h52q20 0 31 -2q2 -23 2 -40v-33q-1 -86 -17 -176q-16 -89 -22 -121l-160 -895q-6 -31 -6 -59q0 -87 96 -87q55 0 91 13q17 -49 12 -107q-62 -20 -143 -20zM580 1821q49 6 110 6
t94 -6l-303 -228q-41 -6 -88 -6t-80 6z" />
    <glyph glyph-name="Lcommaaccent" unicode="&#x13b;" horiz-adv-x="1003" 
d="M469 1473q24 4 69 4t74 -4l-235 -1344h598q-5 -82 -25 -129h-739zM500 -131q24 6 74 6t85 -6l-182 -361q-35 -6 -69 -6t-66 6z" />
    <glyph glyph-name="lcommaaccent" unicode="&#x13c;" horiz-adv-x="567" 
d="M406 -18q-195 0 -195 165q0 27 6 64l152 856q48 281 48 334q1 53 1 67t-2 37q24 4 54 4h52q20 0 31 -2q2 -23 2 -40v-33q-1 -86 -17 -176q-16 -89 -22 -121l-160 -895q-6 -31 -6 -59q0 -87 96 -87q55 0 91 13q17 -49 12 -107q-62 -20 -143 -20zM279 -131q24 6 74 6t85 -6
l-182 -361q-35 -6 -69 -6t-66 6z" />
    <glyph glyph-name="Lcaron" unicode="&#x13d;" horiz-adv-x="1003" 
d="M469 1473q24 4 69 4t74 -4l-235 -1344h598q-5 -82 -25 -129h-739zM879 1475q25 4 67 4q43 0 76 -4l-86 -414q-35 -6 -64 -6t-65 6z" />
    <glyph glyph-name="lcaron" unicode="&#x13e;" horiz-adv-x="593" 
d="M406 -18q-195 0 -195 165q0 27 6 64l152 856q48 281 48 334q1 53 1 67t-2 37q24 4 54 4h52q20 0 31 -2q2 -23 2 -40v-33q-1 -86 -17 -176q-16 -89 -22 -121l-160 -895q-6 -31 -6 -59q0 -87 96 -87q55 0 91 13q17 -49 12 -107q-62 -20 -143 -20zM731 1505q24 4 67 4
q44 0 76 -4l-86 -413q-68 -12 -129 0z" />
    <glyph glyph-name="Ldot" unicode="&#x13f;" horiz-adv-x="1003" 
d="M469 1473q24 4 69 4t74 -4l-235 -1344h598q-5 -82 -25 -129h-739zM906 815q51 0 87 -4q-4 -88 -30 -182l-95 -2l-88 2q3 70 29 182q46 4 97 4z" />
    <glyph glyph-name="ldot" unicode="&#x140;" horiz-adv-x="567" 
d="M406 -18q-195 0 -195 165q0 27 6 64l152 856q48 281 48 334q1 53 1 67t-2 37q24 4 54 4h52q20 0 31 -2q2 -23 2 -40v-33q-1 -86 -17 -176q-16 -89 -22 -121l-160 -895q-6 -31 -6 -59q0 -87 96 -87q55 0 91 13q17 -49 12 -107q-62 -20 -143 -20zM667 821q52 0 87 -4
q-4 -84 -31 -182l-94 -2l-88 2q3 75 28 182q46 4 98 4z" />
    <glyph glyph-name="Lslash" unicode="&#x141;" horiz-adv-x="1001" 
d="M469 1473q24 4 69 4t74 -4l-116 -658l327 143q8 -66 -16 -141l-336 -145l-94 -543h598q-5 -82 -25 -129h-739l111 625l-197 -84q-7 69 25 139l196 86z" />
    <glyph glyph-name="lslash" unicode="&#x142;" horiz-adv-x="567" 
d="M406 -18q-195 0 -195 165q0 27 6 64l88 489l-147 -90q-10 84 18 146l156 96l37 215q48 281 48 334q1 53 1 67t-2 37q24 4 54 4h52q20 0 31 -2q2 -23 2 -40v-33q-1 -86 -17 -176q-16 -89 -22 -121l-39 -219l158 98q8 -73 -19 -150l-167 -102l-93 -522q-6 -31 -6 -59
q0 -87 96 -87q55 0 91 13q17 -49 12 -107q-62 -20 -143 -20z" />
    <glyph glyph-name="Nacute" unicode="&#x143;" horiz-adv-x="1376" 
d="M469 1473q28 4 76 4t71 -4l455 -1240l215 1240q24 4 68 4q45 0 69 -4l-256 -1473q-25 -4 -75 -4t-74 4l-455 1233l-213 -1233q-32 -4 -74 -4t-65 4zM1106 1821q49 6 111 6t94 -6l-303 -228q-40 -6 -88 -6t-80 6z" />
    <glyph glyph-name="nacute" unicode="&#x144;" horiz-adv-x="1163" 
d="M358 1049q24 4 70 4t66 -4q6 -24 6 -103t-27 -170q40 96 151 195q110 98 240 98q131 0 200 -68t69 -198q0 -56 -15 -144l-114 -659q-36 -6 -81 -4t-55 4l109 618q14 86 14 164t-47 120t-121 42q-142 0 -259 -172t-158 -412l-64 -360q-24 -4 -70 -4q-45 0 -65 4l106 610
q20 117 42 234q22 116 3 205zM960 1485h46q52 0 96 -4l-230 -267q-38 -6 -76 -6t-75 6l192 267q23 4 47 4z" />
    <glyph glyph-name="Ncommaaccent" unicode="&#x145;" horiz-adv-x="1376" 
d="M469 1473q28 4 76 4t71 -4l455 -1240l215 1240q24 4 68 4q45 0 69 -4l-256 -1473q-25 -4 -75 -4t-74 4l-455 1233l-213 -1233q-32 -4 -74 -4t-65 4zM643 -131q24 6 75 6t85 -6l-182 -361q-35 -6 -69 -6t-67 6z" />
    <glyph glyph-name="ncommaaccent" unicode="&#x146;" horiz-adv-x="1163" 
d="M358 1049q24 4 70 4t66 -4q6 -24 6 -103t-27 -170q40 96 151 195q110 98 240 98q131 0 200 -68t69 -198q0 -56 -15 -144l-114 -659q-36 -6 -81 -4t-55 4l109 618q14 86 14 164t-47 120t-121 42q-142 0 -259 -172t-158 -412l-64 -360q-24 -4 -70 -4q-45 0 -65 4l106 610
q20 117 42 234q22 116 3 205zM543 -131q24 6 74 6t85 -6l-182 -361q-34 -6 -68 -6t-67 6z" />
    <glyph glyph-name="Ncaron" unicode="&#x147;" horiz-adv-x="1376" 
d="M469 1473q28 4 76 4t71 -4l455 -1240l215 1240q24 4 68 4q45 0 69 -4l-256 -1473q-25 -4 -75 -4t-74 4l-455 1233l-213 -1233q-32 -4 -74 -4t-65 4zM743 1821q37 6 81 6t77 -6l94 -138l164 138q40 6 97 6t81 -6l-272 -228q-27 -6 -80 -6t-80 6z" />
    <glyph glyph-name="ncaron" unicode="&#x148;" horiz-adv-x="1163" 
d="M358 1049q24 4 70 4t66 -4q6 -24 6 -103t-27 -170q40 96 151 195q110 98 240 98q131 0 200 -68t69 -198q0 -56 -15 -144l-114 -659q-36 -6 -81 -4t-55 4l109 618q14 86 14 164t-47 120t-121 42q-142 0 -259 -172t-158 -412l-64 -360q-24 -4 -70 -4q-45 0 -65 4l106 610
q20 117 42 234q22 116 3 205zM598 1479q31 6 78 6t74 -6l108 -185l178 185q34 6 82 6q47 0 78 -6l-254 -265q-27 -6 -90 -6q-62 0 -92 6z" />
    <glyph glyph-name="napostrophe" unicode="&#x149;" horiz-adv-x="1163" 
d="M358 1049q24 4 70 4t66 -4q6 -24 6 -103t-27 -170q40 96 151 195q110 98 240 98q131 0 200 -68t69 -198q0 -56 -15 -144l-114 -659q-36 -6 -81 -4t-55 4l109 618q14 86 14 164t-47 120t-121 42q-142 0 -259 -172t-158 -412l-64 -360q-24 -4 -70 -4q-45 0 -65 4l106 610
q20 117 42 234q22 116 3 205zM370 1157h-28q-31 0 -63 4l145 344l72 4q52 0 82 -6l-175 -342q-20 -4 -33 -4z" />
    <glyph glyph-name="Eng" unicode="&#x14a;" horiz-adv-x="1378" 
d="M350 0q-32 -4 -74 -4t-65 4l258 1473q28 4 76 4t71 -4l455 -1240l215 1240q24 4 68 4q45 0 69 -4l-286 -1655q-45 -254 -249 -302q-185 -43 -315 13q7 67 39 127q73 -25 159 -27q86 -1 127 29q79 55 99 178l27 164l-461 1233z" />
    <glyph glyph-name="eng" unicode="&#x14b;" horiz-adv-x="1161" 
d="M358 1049q24 4 70 4t66 -4q6 -24 6 -103t-27 -170q40 96 151 195q110 98 240 98q131 0 200 -68t69 -198q0 -56 -15 -144l-143 -811q-31 -170 -108 -259t-232 -89q-104 0 -168 27q12 70 39 113q52 -21 129 -21q167 0 205 211l137 788q14 86 14 164t-47 120t-121 42
q-142 0 -259 -172t-158 -412l-64 -360q-24 -4 -70 -4q-45 0 -65 4l106 610q20 117 42 234q22 116 3 205z" />
    <glyph glyph-name="Omacron" unicode="&#x14c;" horiz-adv-x="1441" 
d="M737 104q121 0 225 67q214 138 300 447q43 154 43 288q0 237 -86 349q-86 113 -258 113q-248 0 -407 -242t-159 -602q0 -192 82 -306t260 -114zM738 -25q-140 0 -227 40t-145 112q-118 146 -118 366q0 433 203 714q96 134 231 212q136 78 278 78t230 -42t146 -115
q116 -146 116 -366q0 -440 -204 -715q-97 -132 -233 -208q-137 -76 -277 -76zM696 1624q0 77 19 125h610q0 -76 -18 -125h-611z" />
    <glyph glyph-name="omacron" unicode="&#x14d;" horiz-adv-x="1140" 
d="M551 -25q-162 -1 -257 101t-95 297q0 106 33 228q74 265 285 399q109 69 271 69t258 -101t95 -296q0 -106 -34 -228t-105 -227q-71 -104 -180 -173t-271 -69zM578 94q201 0 319 195q102 168 100 381q0 135 -62 208q-62 72 -173 72t-190 -55q-154 -107 -205 -326
q-25 -101 -25 -215t62 -187t174 -73zM553 1278q0 73 18 125h562q0 -76 -19 -125h-561z" />
    <glyph glyph-name="Obreve" unicode="&#x14e;" horiz-adv-x="1441" 
d="M737 104q121 0 225 67q214 138 300 447q43 154 43 288q0 237 -86 349q-86 113 -258 113q-248 0 -407 -242t-159 -602q0 -192 82 -306t260 -114zM738 -25q-140 0 -227 40t-145 112q-118 146 -118 366q0 433 203 714q96 134 231 212q136 78 278 78t230 -42t146 -115
q116 -146 116 -366q0 -440 -204 -715q-97 -132 -233 -208q-137 -76 -277 -76zM1012 1585q-188 0 -250 118q-25 46 -25 118q33 6 63 6t60 -6q5 -63 38 -95q34 -32 98 -32q142 0 182 70q14 24 26 57q33 6 66 6t63 -6q-57 -236 -321 -236z" />
    <glyph glyph-name="obreve" unicode="&#x14f;" horiz-adv-x="1140" 
d="M551 -25q-162 -1 -257 101t-95 297q0 106 33 228q74 265 285 399q109 69 271 69t258 -101t95 -296q0 -106 -34 -228t-105 -227q-71 -104 -180 -173t-271 -69zM578 94q201 0 319 195q102 168 100 381q0 135 -62 208q-62 72 -173 72t-190 -55q-154 -107 -205 -326
q-25 -101 -25 -215t62 -187t174 -73zM615 1485q35 0 61 -6q0 -160 151 -160q123 0 166 100q12 29 23 60q32 6 68 6t65 -6q-60 -266 -334 -271q-181 0 -242 137q-22 52 -20 134q27 6 62 6z" />
    <glyph glyph-name="Ohungarumlaut" unicode="&#x150;" horiz-adv-x="1441" 
d="M737 104q121 0 225 67q214 138 300 447q43 154 43 288q0 237 -86 349q-86 113 -258 113q-248 0 -407 -242t-159 -602q0 -192 82 -306t260 -114zM738 -25q-140 0 -227 40t-145 112q-118 146 -118 366q0 433 203 714q96 134 231 212q136 78 278 78t230 -42t146 -115
q116 -146 116 -366q0 -440 -204 -715q-97 -132 -233 -208q-137 -76 -277 -76zM1296 1829h47q53 0 97 -4l-244 -234q-37 -6 -78 -6t-78 6l209 234q23 4 47 4zM950 1829h47q53 0 97 -4l-244 -234q-37 -6 -78 -6t-78 6l209 234q23 4 47 4z" />
    <glyph glyph-name="ohungarumlaut" unicode="&#x151;" horiz-adv-x="1140" 
d="M551 -25q-162 -1 -257 101t-95 297q0 106 33 228q74 265 285 399q109 69 271 69t258 -101t95 -296q0 -106 -34 -228t-105 -227q-71 -104 -180 -173t-271 -69zM578 94q201 0 319 195q102 168 100 381q0 135 -62 208q-62 72 -173 72t-190 -55q-154 -107 -205 -326
q-25 -101 -25 -215t62 -187t174 -73zM778 1485h45q51 0 97 -4l-230 -267q-37 -6 -76 -6t-75 6l192 267q23 4 47 4zM1102 1485h45q52 0 96 -4l-229 -267q-37 -6 -76 -6t-76 6l193 267q23 4 47 4z" />
    <glyph glyph-name="OE" unicode="&#x152;" horiz-adv-x="1849" 
d="M982 1378q-263 0 -425 -242t-162 -591q0 -449 369 -449q156 0 254 29l215 1218q-111 35 -251 35zM964 1497q155 0 291 -24h758q0 -40 -6 -66l-16 -64h-615l-88 -497h494q0 -54 -23 -129h-493l-103 -588h631q-2 -11 -3 -29t-4 -33l-7 -35q-4 -19 -8 -32h-793
q-297 -56 -469 18q-172 75 -234 279q-29 98 -28 213q0 420 194 697q94 134 230 212t292 78z" />
    <glyph glyph-name="oe" unicode="&#x153;" horiz-adv-x="1763" 
d="M1669 821q0 55 -39 93q-40 38 -114 38q-144 0 -255 -121t-149 -288l121 20q207 33 321 92t115 166zM569 94q202 0 320 195q102 168 100 381q0 135 -62 208q-62 72 -173 72t-190 -55q-153 -106 -206 -326q-25 -102 -24 -194q0 -135 62 -208t173 -73zM546 -25
q-164 -1 -260 101q-95 102 -96 297q0 106 34 228q74 265 285 399q110 69 259 69q200 0 291 -166q27 -49 37 -104q76 119 190 195t252 75q137 0 205 -67q67 -68 67 -158q-1 -240 -341 -334q-103 -29 -222 -47l-149 -25v-28q0 -316 299 -316q130 0 297 60q20 -46 20 -111
q-153 -63 -348 -68q-242 0 -335 156q-28 47 -40 105q-65 -111 -173 -186t-272 -75z" />
    <glyph glyph-name="Racute" unicode="&#x154;" horiz-adv-x="1157" 
d="M726 1497q322 0 427 -187q37 -66 37 -170q0 -188 -128 -326q-87 -93 -259 -175l305 -639q-23 -4 -54 -4h-61q-30 0 -47 4l-330 688l82 35q146 62 207 117q131 118 131 278q0 258 -291 258q-73 0 -151 -10l-240 -1366q-32 -4 -74 -4t-69 4l260 1479q147 18 255 18z
M913 1821q49 6 110 6t95 -6l-303 -228q-41 -6 -88 -6t-80 6z" />
    <glyph glyph-name="racute" unicode="&#x155;" horiz-adv-x="704" 
d="M760 922q-48 0 -104 -22q-119 -46 -192 -195q-38 -78 -58 -189l-91 -516q-23 -4 -69 -4t-66 4l107 610q20 117 36 198q15 81 15 144t-6 97q24 4 70 4q45 0 65 -4q6 -25 6 -79t-8 -100q71 85 125 117q98 60 207 62q46 0 61 -7q0 -74 -33 -129q-18 9 -65 9zM816 1485h46
q52 0 96 -4l-229 -267q-37 -6 -76 -6t-75 6l192 267q22 4 46 4z" />
    <glyph glyph-name="Rcommaaccent" unicode="&#x156;" horiz-adv-x="1157" 
d="M726 1497q322 0 427 -187q37 -66 37 -170q0 -188 -128 -326q-87 -93 -259 -175l305 -639q-23 -4 -54 -4h-61q-30 0 -47 4l-330 688l82 35q146 62 207 117q131 118 131 278q0 258 -291 258q-73 0 -151 -10l-240 -1366q-32 -4 -74 -4t-69 4l260 1479q147 18 255 18z
M573 -131q24 6 75 6t85 -6l-182 -361q-35 -6 -69 -6t-66 6z" />
    <glyph glyph-name="rcommaaccent" unicode="&#x157;" horiz-adv-x="704" 
d="M760 922q-48 0 -104 -22q-119 -46 -192 -195q-38 -78 -58 -189l-91 -516q-23 -4 -69 -4t-66 4l107 610q20 117 36 198q15 81 15 144t-6 97q24 4 70 4q45 0 65 -4q6 -25 6 -79t-8 -100q71 85 125 117q98 60 207 62q46 0 61 -7q0 -74 -33 -129q-18 9 -65 9zM141 -131
q24 6 75 6t85 -6l-182 -361q-35 -6 -69 -6t-66 6z" />
    <glyph glyph-name="Rcaron" unicode="&#x158;" horiz-adv-x="1157" 
d="M726 1497q322 0 427 -187q37 -66 37 -170q0 -188 -128 -326q-87 -93 -259 -175l305 -639q-23 -4 -54 -4h-61q-30 0 -47 4l-330 688l82 35q146 62 207 117q131 118 131 278q0 258 -291 258q-73 0 -151 -10l-240 -1366q-32 -4 -74 -4t-69 4l260 1479q147 18 255 18z
M575 1821q37 6 81 6t77 -6l94 -138l164 138q40 6 97 6t81 -6l-272 -228q-27 -6 -80 -6t-80 6z" />
    <glyph glyph-name="rcaron" unicode="&#x159;" horiz-adv-x="704" 
d="M760 922q-48 0 -104 -22q-119 -46 -192 -195q-38 -78 -58 -189l-91 -516q-23 -4 -69 -4t-66 4l107 610q20 117 36 198q15 81 15 144t-6 97q24 4 70 4q45 0 65 -4q6 -25 6 -79t-8 -100q71 85 125 117q98 60 207 62q46 0 61 -7q0 -74 -33 -129q-18 9 -65 9zM416 1479
q32 6 78 6t73 -6l109 -185l178 185q34 6 82 6q47 0 78 -6l-254 -265q-27 -6 -90 -6t-92 6z" />
    <glyph glyph-name="Sacute" unicode="&#x15a;" horiz-adv-x="1089" 
d="M352 1109q0 169 140 278q140 110 342 110q203 0 342 -57q-14 -76 -50 -127q-115 61 -274 61q-160 0 -254 -63t-94 -187q0 -93 50 -153t150 -112q189 -98 264 -183q76 -84 76 -210q0 -234 -160 -363q-160 -128 -387 -128q-228 0 -382 58q19 73 55 131q74 -25 142 -41
t165 -17q207 0 309 90t103 236q0 92 -36 141q-36 47 -80 79t-158 92t-167 116q-52 56 -74 112t-22 137zM915 1821q49 6 111 6t94 -6l-303 -228q-41 -6 -88 -6t-80 6z" />
    <glyph glyph-name="sacute" unicode="&#x15b;" horiz-adv-x="870" 
d="M629 950q-242 0 -242 -168q0 -61 36 -97t128 -73l20 -8q122 -48 164 -82q93 -76 93 -180q-2 -191 -130 -283q-112 -82 -305 -83t-295 51q10 70 41 120q50 -25 138 -37t118 -12q135 0 210 45t75 158q0 82 -44 119t-124 67l-63 25q-91 35 -128 71q-77 75 -77 198
q0 124 106 206t295 82q96 1 167 -21t99 -38q-20 -62 -51 -113q-110 53 -231 53zM742 1485h46q53 0 97 -4l-230 -267q-37 -6 -76 -6t-75 6l192 267q22 4 46 4z" />
    <glyph glyph-name="Scircumflex" unicode="&#x15c;" horiz-adv-x="1089" 
d="M352 1109q0 169 140 278q140 110 342 110q203 0 342 -57q-14 -76 -50 -127q-115 61 -274 61q-160 0 -254 -63t-94 -187q0 -93 50 -153t150 -112q189 -98 264 -183q76 -84 76 -210q0 -234 -160 -363q-160 -128 -387 -128q-228 0 -382 58q19 73 55 131q74 -25 142 -41
t165 -17q207 0 309 90t103 236q0 92 -36 141q-36 47 -80 79t-158 92t-167 116q-52 56 -74 112t-22 137zM861 1827q48 0 85 -6l176 -228q-38 -6 -72 -6t-77 6l-113 140l-172 -142q-26 -4 -50 -4h-40q-60 0 -84 6l272 228q27 6 75 6z" />
    <glyph glyph-name="scircumflex" unicode="&#x15d;" horiz-adv-x="870" 
d="M629 950q-242 0 -242 -168q0 -61 36 -97t128 -73l20 -8q122 -48 164 -82q93 -76 93 -180q-2 -191 -130 -283q-112 -82 -305 -83t-295 51q10 70 41 120q50 -25 138 -37t118 -12q135 0 210 45t75 158q0 82 -44 119t-124 67l-63 25q-91 35 -128 71q-77 75 -77 198
q0 124 106 206t295 82q96 1 167 -21t99 -38q-20 -62 -51 -113q-110 53 -231 53zM600 1479q27 6 90 6t90 -6l150 -265q-31 -6 -69 -6t-75 6l-102 183l-172 -183q-35 -6 -91 -6q-57 0 -81 6z" />
    <glyph glyph-name="Scedilla" unicode="&#x15e;" horiz-adv-x="1091" 
d="M624 1468q91 29 241 29t286 -57q-14 -78 -49 -127q-115 61 -262 61q-349 0 -351 -250q-1 -90 55 -150t156 -114q195 -104 251 -163q55 -60 75 -115t20 -141q0 -85 -33 -167q-67 -161 -237 -237q-82 -37 -178 -51l-63 -111q10 2 17 2h19q89 0 135 -47q46 -46 46 -108
q0 -114 -78 -164q-78 -49 -189 -51q-112 -1 -194 38q12 68 39 101q84 -31 146 -31t88 11q52 22 52 81q0 80 -131 80q-34 0 -106 -12l-8 8l106 192q-206 0 -360 58q20 78 55 131q74 -25 142 -41t165 -17q207 0 309 90t102 231q0 140 -119 225q-44 32 -162 94t-171 117
t-77 111q-23 56 -23 137t34 153q70 149 252 204z" />
    <glyph glyph-name="scedilla" unicode="&#x15f;" horiz-adv-x="870" 
d="M395 98q135 0 210 45t75 158q0 82 -44 119t-124 67l-63 25q-91 35 -128 71q-77 75 -77 198q0 124 106 206t295 82q96 1 167 -21t99 -38q-20 -62 -51 -113q-110 53 -231 53q-242 0 -242 -168q0 -61 36 -97t128 -73l20 -8q122 -48 164 -82q93 -76 92 -188q0 -234 -209 -319
q-63 -26 -137 -33l-61 -107q10 2 17 2h20q90 0 135 -47q45 -46 45 -108q0 -114 -78 -164q-78 -49 -189 -51q-112 -1 -194 38q12 68 39 101q84 -31 146 -31t89 11q50 21 52 81q0 80 -131 80q-35 0 -107 -12l-8 8l106 192q-174 8 -264 52q10 70 41 120q50 -25 138 -37t118 -12
z" />
    <glyph glyph-name="Scaron" unicode="&#x160;" horiz-adv-x="1089" 
d="M352 1109q0 169 140 278q140 110 342 110q203 0 342 -57q-14 -76 -50 -127q-115 61 -274 61q-160 0 -254 -63t-94 -187q0 -93 50 -153t150 -112q189 -98 264 -183q76 -84 76 -210q0 -234 -160 -363q-160 -128 -387 -128q-228 0 -382 58q19 73 55 131q74 -25 142 -41
t165 -17q207 0 309 90t103 236q0 92 -36 141q-36 47 -80 79t-158 92t-167 116q-52 56 -74 112t-22 137zM614 1821q37 6 81 6t77 -6l94 -138l164 138q41 6 97 6q57 0 81 -6l-272 -228q-27 -6 -80 -6t-80 6z" />
    <glyph glyph-name="scaron" unicode="&#x161;" horiz-adv-x="870" 
d="M629 950q-242 0 -242 -168q0 -61 36 -97t128 -73l20 -8q122 -48 164 -82q93 -76 93 -180q-2 -191 -130 -283q-112 -82 -305 -83t-295 51q10 70 41 120q50 -25 138 -37t118 -12q135 0 210 45t75 158q0 82 -44 119t-124 67l-63 25q-91 35 -128 71q-77 75 -77 198
q0 124 106 206t295 82q96 1 167 -21t99 -38q-20 -62 -51 -113q-110 53 -231 53zM397 1479q31 6 78 6t74 -6l108 -185l179 185q34 6 82 6q47 0 77 -6l-254 -265q-27 -6 -89 -6q-63 0 -93 6z" />
    <glyph glyph-name="Tcommaaccent" unicode="&#x162;" horiz-adv-x="1001" 
d="M283 1346q0 63 22 127h895q0 -63 -22 -127h-377l-236 -1346q-27 -4 -73 -4t-68 4l235 1346h-376zM381 -131q24 6 75 6t85 -6l-183 -361q-34 -6 -68 -6t-67 6z" />
    <glyph glyph-name="tcommaaccent" unicode="&#x163;" horiz-adv-x="669" 
d="M459 -23q-213 0 -213 195q0 31 6 72l123 686h-170q0 69 18 114h170q25 132 25 252v23q73 22 133 22q2 -23 2 -39v-34q0 -77 -27 -224h271q0 -70 -19 -114h-268l-121 -680q-4 -14 -4 -28v-23q0 -68 37 -85q88 -40 209 3q8 -53 4 -117q-78 -23 -176 -23zM324 -131
q24 6 74 6t85 -6l-182 -361q-35 -6 -69 -6t-66 6z" />
    <glyph glyph-name="Tcaron" unicode="&#x164;" horiz-adv-x="1001" 
d="M283 1346q0 63 22 127h895q0 -63 -22 -127h-377l-236 -1346q-27 -4 -73 -4t-68 4l235 1346h-376zM530 1821q37 6 81 6t77 -6l94 -138l164 138q41 6 97 6q57 0 81 -6l-272 -228q-27 -6 -80 -6t-80 6z" />
    <glyph glyph-name="tcaron" unicode="&#x165;" horiz-adv-x="669" 
d="M459 -23q-213 0 -213 195q0 31 6 72l123 686h-170q0 69 18 114h170q25 132 25 252v23q73 22 133 22q2 -23 2 -39v-34q0 -77 -27 -224h271q0 -70 -19 -114h-268l-121 -680q-4 -14 -4 -28v-23q0 -68 37 -85q88 -40 209 3q8 -53 4 -117q-78 -23 -176 -23zM754 1556
q30 5 72 5t71 -5l-86 -413q-35 -6 -63 -6t-66 6z" />
    <glyph glyph-name="Tbar" unicode="&#x166;" horiz-adv-x="1001" 
d="M950 840q0 -66 -18 -113h-240l-127 -727q-27 -4 -73 -4t-68 4l127 727h-221q0 57 18 113h221l90 506h-376q0 63 22 127h895q0 -63 -22 -127h-377l-90 -506h239z" />
    <glyph glyph-name="tbar" unicode="&#x167;" horiz-adv-x="669" 
d="M459 -23q-213 0 -213 195q0 31 6 72l51 293h-168q0 57 19 112h170l51 281h-170q0 69 18 114h170q25 132 25 252v23q73 22 133 22q2 -23 2 -39v-34q0 -77 -27 -224h271q0 -70 -19 -114h-268l-51 -281h270q0 -65 -18 -112h-271l-51 -287q-4 -14 -4 -28v-23q0 -68 37 -85
q88 -40 209 3q8 -53 4 -117q-78 -23 -176 -23z" />
    <glyph glyph-name="Utilde" unicode="&#x168;" horiz-adv-x="1351" 
d="M453 1473q28 4 71 4q42 0 72 -4l-156 -889q-22 -134 -22 -217q0 -141 63 -199t188 -57q125 -1 196 31q137 61 200 241q31 88 51 201l156 889q28 4 71 4t72 -4l-164 -930q-52 -286 -188 -427q-135 -141 -393 -141q-399 0 -400 394q0 85 23 196zM643 1735q92 92 173 92
q81 1 139 -25q57 -26 91 -38t72 -11q38 0 62 11q25 11 63 44q42 -59 47 -86q-95 -90 -188 -90q-61 0 -121 26q-61 26 -93 36q-32 12 -70 12t-64 -14t-62 -41q-33 33 -49 84z" />
    <glyph glyph-name="utilde" unicode="&#x169;" horiz-adv-x="1136" 
d="M993 -4q-23 -4 -69 -4q-45 0 -66 4q-6 33 -6 107t27 165q-40 -97 -152 -195q-111 -98 -241 -98t-198 68t-69 199q0 61 14 143l115 659q30 5 75 5t60 -5l-108 -618q-13 -78 -14 -160t47 -124t120 -42q143 0 260 173q116 173 158 411l64 360q30 5 74 5t61 -5l-107 -610
q-20 -118 -36 -198t-15 -143q0 -63 6 -97zM629 1432q64 0 123 -26t93 -36q34 -12 72 -12q39 0 63 11t62 44q42 -58 48 -86q-95 -90 -176 -90t-161 36t-127 37q-47 0 -73 -14t-61 -41q-34 34 -50 84q93 93 187 93z" />
    <glyph glyph-name="Umacron" unicode="&#x16a;" horiz-adv-x="1351" 
d="M453 1473q28 4 71 4q42 0 72 -4l-156 -889q-22 -134 -22 -217q0 -141 63 -199t188 -57q125 -1 196 31q137 61 200 241q31 88 51 201l156 889q28 4 71 4t72 -4l-164 -930q-52 -286 -188 -427q-135 -141 -393 -141q-399 0 -400 394q0 85 23 196zM657 1624q0 72 19 125h610
q0 -76 -18 -125h-611z" />
    <glyph glyph-name="umacron" unicode="&#x16b;" horiz-adv-x="1136" 
d="M993 -4q-23 -4 -69 -4q-45 0 -66 4q-6 33 -6 107t27 165q-40 -97 -152 -195q-111 -98 -241 -98t-198 68t-69 199q0 61 14 143l115 659q30 5 75 5t60 -5l-108 -618q-13 -78 -14 -160t47 -124t120 -42q143 0 260 173q116 173 158 411l64 360q30 5 74 5t61 -5l-107 -610
q-20 -118 -36 -198t-15 -143q0 -63 6 -97zM494 1278q0 73 18 125h561q0 -78 -18 -125h-561z" />
    <glyph glyph-name="Ubreve" unicode="&#x16c;" horiz-adv-x="1351" 
d="M453 1473q28 4 71 4q42 0 72 -4l-156 -889q-22 -134 -22 -217q0 -141 63 -199t188 -57q125 -1 196 31q137 61 200 241q31 88 51 201l156 889q28 4 71 4t72 -4l-164 -930q-52 -286 -188 -427q-135 -141 -393 -141q-399 0 -400 394q0 85 23 196zM954 1585q-187 0 -249 118
q-25 46 -25 118q32 6 62 6t61 -6q5 -63 38 -95q34 -32 97 -32q141 0 182 70q14 24 27 57q33 6 65 6t64 -6q-57 -236 -322 -236z" />
    <glyph glyph-name="ubreve" unicode="&#x16d;" horiz-adv-x="1136" 
d="M993 -4q-23 -4 -69 -4q-45 0 -66 4q-6 33 -6 107t27 165q-40 -97 -152 -195q-111 -98 -241 -98t-198 68t-69 199q0 61 14 143l115 659q30 5 75 5t60 -5l-108 -618q-13 -78 -14 -160t47 -124t120 -42q143 0 260 173q116 173 158 411l64 360q30 5 74 5t61 -5l-107 -610
q-20 -118 -36 -198t-15 -143q0 -63 6 -97zM584 1485q35 0 61 -6q0 -160 152 -160q123 0 166 100q12 29 22 60q31 6 68 6t65 -6q-60 -266 -334 -271q-183 0 -241 137q-23 52 -21 134q27 6 62 6z" />
    <glyph glyph-name="Uring" unicode="&#x16e;" horiz-adv-x="1351" 
d="M453 1473q28 4 71 4q42 0 72 -4l-156 -889q-22 -134 -22 -217q0 -141 63 -199t188 -57q125 -1 196 31q137 61 200 241q31 88 51 201l156 889q28 4 71 4t72 -4l-164 -930q-52 -286 -188 -427q-135 -141 -393 -141q-399 0 -400 394q0 85 23 196zM768 1684q0 124 67 197
t172 74t157 -59t52 -128q1 -121 -66 -195q-68 -74 -172 -75q-105 -1 -158 57q-52 59 -52 129zM981 1589q59 0 91 43q32 44 32 102q0 130 -98 130q-60 0 -94 -43t-33 -109q0 -123 102 -123z" />
    <glyph glyph-name="uring" unicode="&#x16f;" horiz-adv-x="1136" 
d="M993 -4q-23 -4 -69 -4q-45 0 -66 4q-6 33 -6 107t27 165q-40 -97 -152 -195q-111 -98 -241 -98t-198 68t-69 199q0 61 14 143l115 659q30 5 75 5t60 -5l-108 -618q-13 -78 -14 -160t47 -124t120 -42q143 0 260 173q116 173 158 411l64 360q30 5 74 5t61 -5l-107 -610
q-20 -118 -36 -198t-15 -143q0 -63 6 -97zM610 1404q0 89 62 157q62 67 157 67t143 -55t48 -143t-62 -155t-158 -67q-94 0 -142 54t-48 142zM805 1298q51 0 79 38t27 96q0 106 -84 106q-53 0 -82 -39t-28 -94q0 -107 88 -107z" />
    <glyph glyph-name="Uhungarumlaut" unicode="&#x170;" horiz-adv-x="1351" 
d="M453 1473q28 4 71 4q42 0 72 -4l-156 -889q-22 -134 -22 -217q0 -141 63 -199t188 -57q125 -1 196 31q137 61 200 241q31 88 51 201l156 889q28 4 71 4t72 -4l-164 -930q-52 -286 -188 -427q-135 -141 -393 -141q-399 0 -400 394q0 85 23 196zM1290 1829h47q51 0 97 -4
l-244 -234q-37 -6 -78 -6t-78 6l209 234q23 4 47 4zM944 1829h47q52 0 96 -4l-243 -234q-37 -6 -78 -6t-78 6l209 234q23 4 47 4z" />
    <glyph glyph-name="uhungarumlaut" unicode="&#x171;" horiz-adv-x="1136" 
d="M993 -4q-23 -4 -69 -4q-45 0 -66 4q-6 33 -6 107t27 165q-40 -97 -152 -195q-111 -98 -241 -98t-198 68t-69 199q0 61 14 143l115 659q30 5 75 5t60 -5l-108 -618q-13 -78 -14 -160t47 -124t120 -42q143 0 260 173q116 173 158 411l64 360q30 5 74 5t61 -5l-107 -610
q-20 -118 -36 -198t-15 -143q0 -63 6 -97zM726 1485h46q52 0 96 -4l-229 -267q-37 -6 -76 -6t-76 6l193 267q22 4 46 4zM1050 1485h46q52 0 96 -4l-229 -267q-37 -6 -76 -6t-76 6l193 267q22 4 46 4z" />
    <glyph glyph-name="Uogonek" unicode="&#x172;" horiz-adv-x="1351" 
d="M504 -329q0 156 180 304h-14q-399 0 -400 394q0 85 23 196l160 908q28 4 71 4q42 0 72 -4l-156 -889q-22 -134 -22 -217q0 -141 63 -199t188 -57q125 -1 196 31q137 61 200 241q31 88 51 201l156 889q28 4 71 4t72 -4l-164 -930q-40 -224 -131 -350q-91 -127 -252 -209
q-71 -37 -123 -95q-100 -111 -100 -182q0 -90 115 -90q57 0 108 16q13 -40 13 -106q-69 -21 -138 -22q-239 -4 -239 166z" />
    <glyph glyph-name="uogonek" unicode="&#x173;" horiz-adv-x="1136" 
d="M858 -2q-6 31 -6 105t27 165q-40 -97 -152 -195q-111 -98 -241 -98t-198 68t-69 199q0 61 14 143l115 659q30 5 75 5t60 -5l-108 -618q-13 -78 -14 -160t47 -124t120 -42q143 0 260 173q116 173 158 411l64 360q30 5 74 5t61 -5l-107 -610q-20 -118 -36 -198t-15 -138
q0 -58 6 -102q-128 -101 -181 -208q-22 -42 -21 -81q0 -90 114 -90q56 0 109 16q19 -59 12 -106q-69 -21 -138 -22q-236 -4 -239 169q0 127 131 258q37 37 78 66z" />
    <glyph glyph-name="Wcircumflex" unicode="&#x174;" horiz-adv-x="1828" 
d="M352 1473q24 4 75 4t75 -4l43 -1297l528 1297q24 4 86 4t90 -4l101 -1297l477 1297q31 4 81 4t72 -4l-571 -1473q-32 -4 -95 -4t-87 4l-101 1266l-522 -1266q-28 -4 -97 -4t-89 4zM1185 1827q48 0 85 -6l176 -228q-37 -6 -72 -6t-78 6l-112 140l-172 -142q-26 -4 -50 -4
h-40q-60 0 -84 6l272 228q27 6 75 6z" />
    <glyph glyph-name="wcircumflex" unicode="&#x175;" horiz-adv-x="1499" 
d="M1514 1051q38 0 75 -7v-8q0 -44 -51 -155l-383 -881q-35 -6 -77 -6t-64 6l-135 817l-328 -817q-35 -6 -79 -6t-64 6l-170 1044q79 13 147 0l119 -876l346 876q25 7 63 7t66 -7l133 -876l301 741q31 78 31 127v8q32 7 70 7zM879 1479q27 6 90 6t90 -6l149 -265
q-30 -6 -68 -6t-75 6l-102 183l-172 -183q-35 -6 -92 -6t-81 6z" />
    <glyph glyph-name="Ycircumflex" unicode="&#x176;" horiz-adv-x="1103" 
d="M297 1473q24 4 76 4t80 -4l225 -775l455 775q32 4 82 4t73 -4l-565 -936l-92 -537q-32 -4 -76 -4t-66 4l97 545zM845 1827q48 0 85 -6l176 -228q-37 -6 -72 -6t-78 6l-112 140l-172 -142q-26 -4 -50 -4h-40q-60 0 -84 6l272 228q27 6 75 6z" />
    <glyph glyph-name="ycircumflex" unicode="&#x177;" horiz-adv-x="960" 
d="M291 1051q39 0 76 -7l143 -964l367 813q37 80 41 143v8q78 13 145 0v-8q0 -57 -49 -157l-508 -1098q-110 -237 -248 -275q-42 -12 -100 -12t-119 19q0 77 35 114q47 -14 89 -14q41 0 69 9q59 19 119 123q32 54 73 144l47 107q-60 0 -80 4l-170 1044q31 7 70 7zM635 1479
q27 6 90 6t90 -6l150 -265q-31 -6 -69 -6t-75 6l-102 183l-172 -183q-34 -6 -91 -6t-81 6z" />
    <glyph glyph-name="Ydieresis" unicode="&#x178;" horiz-adv-x="1103" 
d="M297 1473q24 4 76 4t80 -4l225 -775l455 775q32 4 82 4t73 -4l-565 -936l-92 -537q-32 -4 -76 -4t-66 4l97 545zM1054 1782q46 0 89 -6q0 -98 -31 -183q-49 -6 -95 -6t-83 6q0 80 31 183q43 6 89 6zM632 1782q46 0 83 -6q0 -96 -31 -183q-43 -6 -89 -6t-89 6q0 98 31 183
q49 6 95 6z" />
    <glyph glyph-name="Zacute" unicode="&#x179;" horiz-adv-x="1079" 
d="M1020 129q-10 -95 -25 -129h-905l-8 16l913 1327h-647q5 83 23 130h856l6 -15l-918 -1329h705zM887 1821q49 6 110 6t95 -6l-304 -228q-41 -6 -88 -6t-79 6z" />
    <glyph glyph-name="zacute" unicode="&#x17a;" horiz-adv-x="890" 
d="M840 115q0 -71 -19 -115h-733l-2 33l696 897h-497q0 69 18 114h703l4 -26l-697 -903h527zM788 1485h46q52 0 96 -4l-230 -267q-37 -6 -76 -6t-75 6l192 267q23 4 47 4z" />
    <glyph glyph-name="Zdotaccent" unicode="&#x17b;" horiz-adv-x="1079" 
d="M1020 129q-10 -95 -25 -129h-905l-8 16l913 1327h-647q5 83 23 130h856l6 -15l-918 -1329h705zM845 1774q49 0 79 -5q-4 -84 -31 -182l-94 -2l-88 2q3 75 28 182q57 5 106 5z" />
    <glyph glyph-name="zdotaccent" unicode="&#x17c;" horiz-adv-x="890" 
d="M840 115q0 -71 -19 -115h-733l-2 33l696 897h-497q0 69 18 114h703l4 -26l-697 -903h527zM705 1436q52 0 88 -4q-4 -85 -31 -183l-94 -2l-88 2q3 77 28 183q45 4 97 4z" />
    <glyph glyph-name="Zcaron" unicode="&#x17d;" horiz-adv-x="1079" 
d="M1020 129q-10 -95 -25 -129h-905l-8 16l913 1327h-647q5 83 23 130h856l6 -15l-918 -1329h705zM561 1821q37 6 81 6t77 -6l94 -138l164 138q40 6 97 6t81 -6l-272 -228q-27 -6 -80 -6t-80 6z" />
    <glyph glyph-name="zcaron" unicode="&#x17e;" horiz-adv-x="890" 
d="M840 115q0 -71 -19 -115h-733l-2 33l696 897h-497q0 69 18 114h703l4 -26l-697 -903h527zM434 1479q31 6 78 6t74 -6l108 -185l178 185q35 6 82 6q48 0 78 -6l-254 -265q-27 -6 -89 -6t-93 6z" />
    <glyph glyph-name="longs" unicode="&#x17f;" horiz-adv-x="688" 
d="M841 1405q-48 0 -87 -12q-120 -37 -158 -263l-217 -1245q-35 -205 -125 -295t-262 -90q-91 0 -137 23q13 52 41 115q47 -19 99 -19t92 10q81 20 121 122q22 54 36 140l217 1246q35 193 125 289t262 96q91 0 137 -23q-10 -42 -43 -115q-53 21 -101 21z" />
    <glyph glyph-name="florin" unicode="&#x192;" 
d="M276 -162q46 0 86 10q126 32 168 263l129 710h-192q0 61 18 111h191l35 192q36 194 118 271q83 76 252 78q100 0 185 -35q-14 -66 -43 -113q-84 29 -140 29q-55 0 -93 -8q-118 -25 -152 -250l-29 -164h256q0 -62 -18 -111h-259l-133 -737q-40 -194 -129 -279
q-88 -84 -258 -86q-101 0 -157 25q10 56 39 113l48 -12q32 -7 78 -7z" />
    <glyph glyph-name="Scommaaccent" unicode="&#x218;" horiz-adv-x="1089" 
d="M352 1109q0 169 140 278q140 110 342 110q203 0 342 -57q-14 -76 -50 -127q-115 61 -274 61q-160 0 -254 -63t-94 -187q0 -93 50 -153t150 -112q189 -98 264 -183q76 -84 76 -210q0 -234 -160 -363q-160 -128 -387 -128q-228 0 -382 58q19 73 55 131q74 -25 142 -41
t165 -17q207 0 309 90t103 236q0 92 -36 141q-36 47 -80 79t-158 92t-167 116q-52 56 -74 112t-22 137zM436 -131q24 6 75 6t85 -6l-182 -361q-35 -6 -69 -6t-66 6z" />
    <glyph glyph-name="scommaaccent" unicode="&#x219;" horiz-adv-x="870" 
d="M629 950q-242 0 -242 -168q0 -61 36 -97t128 -73l20 -8q122 -48 164 -82q93 -76 93 -180q-2 -191 -130 -283q-112 -82 -305 -83t-295 51q10 70 41 120q50 -25 138 -37t118 -12q135 0 210 45t75 158q0 82 -44 119t-124 67l-63 25q-91 35 -128 71q-77 75 -77 198
q0 124 106 206t295 82q96 1 167 -21t99 -38q-20 -62 -51 -113q-110 53 -231 53zM328 -131q24 6 74 6t85 -6l-182 -361q-35 -6 -69 -6t-66 6z" />
    <glyph glyph-name="uni021A" unicode="&#x21a;" horiz-adv-x="1001" 
d="M283 1346q0 63 22 127h895q0 -63 -22 -127h-377l-236 -1346q-27 -4 -73 -4t-68 4l235 1346h-376zM387 -131q24 6 75 6t85 -6l-182 -361q-35 -6 -69 -6t-67 6z" />
    <glyph glyph-name="uni021B" unicode="&#x21b;" horiz-adv-x="669" 
d="M459 -23q-213 0 -213 195q0 31 6 72l123 686h-170q0 69 18 114h170q25 132 25 252v23q73 22 133 22q2 -23 2 -39v-34q0 -77 -27 -224h271q0 -70 -19 -114h-268l-121 -680q-4 -14 -4 -28v-23q0 -68 37 -85q88 -40 209 3q8 -53 4 -117q-78 -23 -176 -23zM336 -131
q24 6 75 6t85 -6l-183 -361q-35 -6 -69 -6t-66 6z" />
    <glyph glyph-name="dotlessj" unicode="&#x237;" horiz-adv-x="552" 
d="M0 -381q167 0 205 211l192 1100h-127q0 55 19 114h262l-211 -1196q-31 -170 -108 -259t-232 -89q-104 0 -168 27q12 70 39 113q53 -21 129 -21z" />
    <glyph glyph-name="apostrophe" unicode="&#x2bc;" horiz-adv-x="595" 
d="M468 1157h-28q-29 0 -63 4l145 344l72 4q52 0 82 -6l-174 -342q-20 -4 -34 -4z" />
    <glyph glyph-name="circumflex" unicode="&#x2c6;" horiz-adv-x="1024" 
d="M682 1479q27 6 90 6t90 -6l150 -265q-31 -6 -69 -6t-75 6l-102 183l-172 -183q-34 -6 -91 -6t-81 6z" />
    <glyph glyph-name="caron" unicode="&#x2c7;" horiz-adv-x="1019" 
d="M477 1479q31 6 78 6t74 -6l108 -185l178 185q35 6 82 6q48 0 78 -6l-254 -265q-27 -6 -90 -6q-62 0 -92 6z" />
    <glyph glyph-name="uni02C9" unicode="&#x2c9;" horiz-adv-x="1024" 
d="M410 1278q0 73 18 125h561q0 -78 -18 -125h-561z" />
    <glyph glyph-name="breve" unicode="&#x2d8;" horiz-adv-x="1024" 
d="M533 1485q35 0 61 -6q0 -160 151 -160q127 0 166 100q12 29 23 60q32 6 68 6t65 -6q-60 -266 -334 -271q-183 0 -241 137q-23 52 -21 134q27 6 62 6z" />
    <glyph glyph-name="dotaccent" unicode="&#x2d9;" horiz-adv-x="1024" 
d="M710 1436q52 0 87 -4q-4 -85 -31 -183l-94 -2l-88 2q3 77 28 183q46 4 98 4z" />
    <glyph glyph-name="ring" unicode="&#x2da;" horiz-adv-x="1024" 
d="M516 1404q0 89 62 157q62 67 157 67t143 -55t48 -143t-62 -155t-158 -67t-143 54t-47 142zM711 1298q51 0 79 38t27 96q0 106 -84 106q-53 0 -82 -39t-28 -94q0 -107 88 -107z" />
    <glyph glyph-name="ogonek" unicode="&#x2db;" horiz-adv-x="1024" 
d="M487 -293q0 -90 115 -90q56 0 109 16q19 -59 12 -106q-69 -21 -138 -22q-236 -4 -239 169q0 130 134 260q38 37 79 66h135q-207 -176 -207 -293z" />
    <glyph glyph-name="tilde" unicode="&#x2dc;" horiz-adv-x="1024" 
d="M578 1432q62 0 122 -26t94 -36q34 -12 72 -12t62 11q25 11 63 44q42 -59 47 -86q-95 -90 -175 -90t-161 36t-128 37q-46 0 -72 -14t-62 -41q-33 33 -49 84q93 93 187 93z" />
    <glyph glyph-name="hungarumlaut" unicode="&#x2dd;" horiz-adv-x="1024" 
d="M636 1485h46q52 0 96 -4l-229 -267q-37 -6 -76 -6t-76 6l193 267q22 4 46 4zM960 1485h46q52 0 96 -4l-230 -267q-38 -6 -76 -6t-75 6l192 267q23 4 47 4z" />
    <glyph glyph-name="Omega" unicode="&#x3a9;" horiz-adv-x="1406" 
d="M246 674q0 368 179 595q179 228 486 228q228 0 359 -150t131 -397q0 -424 -344 -821h262q0 -66 -19 -129h-507l-9 20q322 269 430 644q37 129 37 266q0 206 -89 322t-269 116q-237 0 -368 -192q-130 -192 -130 -498q0 -190 62 -377t149 -281l-12 -20h-508q0 63 18 129
h289q-147 262 -147 545z" />
    <glyph glyph-name="pi" unicode="&#x3c0;" horiz-adv-x="1370" 
d="M1168 94q60 0 114 21q20 -57 16 -113q-61 -22 -168 -25q-207 0 -206 211q0 45 12 111l102 631h-387l-153 -930q-24 -4 -70 -4t-66 4l154 930h-10q-137 0 -234 -78q-26 32 -43 86q121 108 314 106h901q-6 -61 -21 -114h-247l-107 -639q-8 -32 -8 -88q-1 -57 23 -83t84 -26
z" />
    <glyph glyph-name="Wgrave" unicode="&#x1e80;" horiz-adv-x="1828" 
d="M352 1473q24 4 75 4t75 -4l43 -1297l528 1297q24 4 86 4t90 -4l101 -1297l477 1297q31 4 81 4t72 -4l-571 -1473q-32 -4 -95 -4t-87 4l-101 1266l-522 -1266q-28 -4 -97 -4t-89 4zM1244 1587q-48 0 -81 6l-225 228q49 6 101 6t96 -6l188 -228q-31 -6 -79 -6z" />
    <glyph glyph-name="wgrave" unicode="&#x1e81;" horiz-adv-x="1497" 
d="M1514 1051q38 0 75 -7v-8q0 -44 -51 -155l-383 -881q-35 -6 -77 -6t-64 6l-135 817l-328 -817q-35 -6 -79 -6t-64 6l-170 1044q79 13 147 0l119 -876l346 876q25 7 63 7t66 -7l133 -876l301 741q31 78 31 127v8q32 7 70 7zM815 1485h61q24 0 46 -4l192 -267
q-37 -6 -76 -6t-75 6l-230 267q45 4 82 4z" />
    <glyph glyph-name="Wacute" unicode="&#x1e82;" horiz-adv-x="1828" 
d="M352 1473q24 4 75 4t75 -4l43 -1297l528 1297q24 4 86 4t90 -4l101 -1297l477 1297q31 4 81 4t72 -4l-571 -1473q-32 -4 -95 -4t-87 4l-101 1266l-522 -1266q-28 -4 -97 -4t-89 4zM1229 1821q49 6 110 6t95 -6l-304 -228q-41 -6 -88 -6t-79 6z" />
    <glyph glyph-name="wacute" unicode="&#x1e83;" horiz-adv-x="1499" 
d="M1514 1051q38 0 75 -7v-8q0 -44 -51 -155l-383 -881q-35 -6 -77 -6t-64 6l-135 817l-328 -817q-35 -6 -79 -6t-64 6l-170 1044q79 13 147 0l119 -876l346 876q25 7 63 7t66 -7l133 -876l301 741q31 78 31 127v8q32 7 70 7zM1020 1485h45q52 0 96 -4l-229 -267
q-37 -6 -76 -6t-76 6l193 267q23 4 47 4z" />
    <glyph glyph-name="Wdieresis" unicode="&#x1e84;" horiz-adv-x="1828" 
d="M352 1473q24 4 75 4t75 -4l43 -1297l528 1297q24 4 86 4t90 -4l101 -1297l477 1297q31 4 81 4t72 -4l-571 -1473q-32 -4 -95 -4t-87 4l-101 1266l-522 -1266q-28 -4 -97 -4t-89 4zM1410 1782q46 0 89 -6q0 -98 -31 -183q-49 -6 -95 -6t-83 6q0 80 31 183q43 6 89 6z
M988 1782q46 0 83 -6q0 -96 -31 -183q-43 -6 -89 -6t-89 6q0 98 31 183q49 6 95 6z" />
    <glyph glyph-name="wdieresis" unicode="&#x1e85;" horiz-adv-x="1499" 
d="M1514 1051q38 0 75 -7v-8q0 -44 -51 -155l-383 -881q-35 -6 -77 -6t-64 6l-135 817l-328 -817q-35 -6 -79 -6t-64 6l-170 1044q79 13 147 0l119 -876l346 876q25 7 63 7t66 -7l133 -876l301 741q31 78 31 127v8q32 7 70 7zM1151 1436q43 0 84 -6q-5 -109 -31 -175
q-41 -6 -84 -6t-82 6q5 102 31 175q39 6 82 6zM760 1436q43 0 84 -6q-5 -109 -31 -175q-41 -6 -84 -6t-82 6q5 107 31 175q39 6 82 6z" />
    <glyph glyph-name="Ygrave" unicode="&#x1ef2;" horiz-adv-x="1103" 
d="M297 1473q24 4 76 4t80 -4l225 -775l455 775q32 4 82 4t73 -4l-565 -936l-92 -537q-32 -4 -76 -4t-66 4l97 545zM845 1587q-48 0 -81 6l-225 228q49 6 101 6t95 -6l189 -228q-31 -6 -79 -6z" />
    <glyph glyph-name="ygrave" unicode="&#x1ef3;" horiz-adv-x="960" 
d="M291 1051q39 0 76 -7l143 -964l367 813q37 80 41 143v8q78 13 145 0v-8q0 -57 -49 -157l-508 -1098q-110 -237 -248 -275q-42 -12 -100 -12t-119 19q0 77 35 114q47 -14 89 -14q41 0 69 9q59 19 119 123q32 54 73 144l47 107q-60 0 -80 4l-170 1044q31 7 70 7zM500 1485
h60q24 0 46 -4l193 -267q-37 -6 -76 -6t-76 6l-229 267q45 4 82 4z" />
    <glyph glyph-name="endash" unicode="&#x2013;" horiz-adv-x="1024" 
d="M88 514q5 84 25 137h1024q-4 -77 -25 -137h-1024z" />
    <glyph glyph-name="emdash" unicode="&#x2014;" horiz-adv-x="2048" 
d="M2161 651q-4 -77 -25 -137h-2048q2 66 25 137h2048z" />
    <glyph glyph-name="quoteleft" unicode="&#x2018;" horiz-adv-x="409" 
d="M357 1477h45q17 0 36 -2l115 -408q-16 -4 -42 -4h-53q-27 0 -48 4l-113 406q32 4 60 4z" />
    <glyph glyph-name="quoteright" unicode="&#x2019;" horiz-adv-x="423" 
d="M496 1475h36q42 0 70 -5l-174 -405q-20 -4 -47 -4h-54q-26 0 -42 4l176 408q17 2 35 2z" />
    <glyph glyph-name="quotesinglbase" unicode="&#x201a;" horiz-adv-x="399" 
d="M224 178h36q36 0 70 -4l-174 -405q-25 -5 -60 -5h-51q-16 0 -33 5l176 405q18 4 36 4z" />
    <glyph glyph-name="quotedblleft" unicode="&#x201c;" horiz-adv-x="757" 
d="M357 1477h45q17 0 36 -2l115 -408q-16 -4 -42 -4h-53q-27 0 -48 4l-113 406q32 4 60 4zM705 1477h46q17 0 35 -2l115 -408q-16 -4 -42 -4h-53q-27 0 -48 4l-113 406q32 4 60 4z" />
    <glyph glyph-name="quotedblright" unicode="&#x201d;" horiz-adv-x="772" 
d="M496 1475h36q42 0 70 -5l-174 -405q-20 -4 -47 -4h-54q-26 0 -42 4l176 408q17 2 35 2zM844 1475h37q42 0 69 -5l-174 -405q-20 -4 -47 -4h-53q-26 0 -43 4l176 408q17 2 35 2z" />
    <glyph glyph-name="quotedblbase" unicode="&#x201e;" horiz-adv-x="747" 
d="M224 178h36q36 0 70 -4l-174 -405q-25 -5 -60 -5h-51q-16 0 -33 5l176 405q18 4 36 4zM572 178h36q36 0 70 -4l-174 -405q-26 -5 -60 -5h-51q-16 0 -33 5l177 405q18 4 35 4z" />
    <glyph glyph-name="dagger" unicode="&#x2020;" horiz-adv-x="919" 
d="M244 795q0 56 22 129h287l96 549q25 4 67 4t66 -4l-96 -549h287q0 -61 -23 -129h-286l-199 -1139q-24 -4 -67 -4t-66 4l198 1139h-286z" />
    <glyph glyph-name="daggerdbl" unicode="&#x2021;" horiz-adv-x="919" 
d="M858 264q0 -70 -22 -129h-287l-84 -479q-24 -4 -67 -4t-66 4l84 479h-287q0 68 23 129h286l103 592h-287q4 72 22 129h287l86 488q25 4 67 4t66 -4l-86 -488h287q0 -76 -22 -129h-287l-103 -592h287z" />
    <glyph glyph-name="bullet" unicode="&#x2022;" horiz-adv-x="768" 
d="M262 681q0 95 68 163t164 67q97 1 163 -67t66 -164q1 -96 -67 -163q-68 -66 -165 -66q-97 -1 -163 67t-66 163z" />
    <glyph glyph-name="ellipsis" unicode="&#x2026;" horiz-adv-x="1333" 
d="M187 -6q-47 0 -74 6q0 71 28 174q43 6 88 6t86 -6q0 -71 -28 -174q-53 -6 -100 -6zM654 -6q-47 0 -74 6q0 71 28 174q43 6 88 6t86 -6q0 -71 -28 -174q-53 -6 -100 -6zM1121 -6q-47 0 -74 6q0 71 28 174q43 6 88 6t86 -6q0 -71 -28 -174q-53 -6 -100 -6z" />
    <glyph glyph-name="perthousand" unicode="&#x2030;" horiz-adv-x="2779" 
d="M1618 1448q32 4 79 4t89 -4l-1241 -1448q-23 -4 -53 -4h-66q-36 0 -51 4zM539 604q-152 0 -227 94t-74 252q0 201 107 361t310 162q158 -1 233 -95t75 -274t-111 -340t-313 -160zM551 719q125 0 201 131q63 109 63 268q0 240 -170 240q-125 0 -198 -132
q-62 -112 -62 -270q0 -237 166 -237zM1509 -23q-301 0 -301 367q0 178 109 340t309 162q158 0 233 -94t74 -252q0 -205 -110 -364q-111 -159 -314 -159zM1522 92q124 0 200 131q62 106 64 269q0 240 -170 239q-125 0 -198 -132q-62 -112 -62 -269q0 -238 166 -238zM2345 -23
q-301 0 -301 366q0 177 108 340t310 163q158 0 232 -94t75 -275q0 -181 -111 -340q-111 -160 -313 -160zM2357 92q125 0 201 131q63 109 63 269q0 240 -170 239q-124 0 -197 -132q-61 -110 -63 -269q0 -238 166 -238z" />
    <glyph glyph-name="guilsinglleft" unicode="&#x2039;" horiz-adv-x="659" 
d="M683 1006q50 0 91 -7l-428 -450l270 -455q-42 -6 -80 -6t-75 6l-287 463l428 442q31 7 81 7z" />
    <glyph glyph-name="guilsinglright" unicode="&#x203a;" horiz-adv-x="720" 
d="M199 88q-50 0 -88 6l432 457l-275 448q86 13 156 0l287 -462l-435 -443q-27 -6 -77 -6z" />
    <glyph glyph-name="fraction" unicode="&#x2044;" horiz-adv-x="450" 
d="M762 1448q32 4 79 4t89 -4l-1241 -1448q-23 -4 -53 -4h-66q-36 0 -51 4z" />
    <glyph glyph-name="zerosuperior" unicode="&#x2070;" horiz-adv-x="921" 
d="M662 1473q307 0 307 -369q0 -180 -111 -340t-313 -160q-152 0 -227 94t-74 252q0 201 107 361q108 160 311 162zM557 719q125 0 201 131q63 109 63 268q0 240 -170 240q-124 0 -197 -132q-61 -110 -63 -270q0 -237 166 -237z" />
    <glyph glyph-name="foursuperior" unicode="&#x2074;" horiz-adv-x="921" 
d="M690 625q-27 0 -67 4l28 168h-411l-9 16l441 664q53 -10 108 -37l-344 -529h234l32 176q73 14 119 0l-30 -176h100q10 -62 -21 -114h-100l-31 -172h-49z" />
    <glyph glyph-name="fivesuperior" unicode="&#x2075;" horiz-adv-x="921" 
d="M585 1061q-87 0 -184 -31l-18 17l90 401h461q0 -51 -23 -109h-340l-47 -192q56 14 105 14q111 0 181 -59q70 -58 71 -160q0 -332 -375 -338q-159 0 -252 49q17 69 53 113q110 -45 173 -45q126 1 174 27t70 64t22 98t-37 106q-37 45 -124 45z" />
    <glyph glyph-name="sixsuperior" unicode="&#x2076;" horiz-adv-x="921" 
d="M526 715q88 0 153 55q65 54 65 142q-1 153 -142 153q-86 0 -152 -59q-67 -59 -67 -148q0 -143 143 -143zM527 606q-278 0 -276 279q1 125 45 227q90 208 298 306q102 49 221 61q22 -58 14 -101q-207 -21 -339 -173q-46 -54 -74 -128q109 96 246 99q104 0 164 -64t60 -150
q1 -155 -104 -256q-105 -100 -255 -100z" />
    <glyph glyph-name="sevensuperior" unicode="&#x2077;" horiz-adv-x="921" 
d="M801 1335h-389q-2 59 20 113h576l4 -6l-506 -828q-60 9 -121 52z" />
    <glyph glyph-name="eightsuperior" unicode="&#x2078;" horiz-adv-x="921" 
d="M782 1281q0 38 -31 66q-51 44 -157 20t-109 -126q0 -82 136 -129q27 8 55 23q106 51 106 146zM584 1016q-205 -66 -205 -200q0 -46 40 -78t117 -32t123 28q84 49 84 131t-102 129q-28 14 -57 22zM475 1069q-115 68 -115 174t89 168t206 63q115 0 185 -48t70 -141
t-112 -179q-32 -25 -67 -41q65 -36 92 -67q52 -58 53 -127q1 -68 -30 -117q-61 -96 -189 -131q-128 -34 -235 -8t-154 103q-22 38 -22 87t20 89q55 111 209 175z" />
    <glyph glyph-name="ninesuperior" unicode="&#x2079;" horiz-adv-x="921" 
d="M606 1374q-87 0 -146 -54t-60 -138q-2 -164 147 -164q137 0 197 114q19 36 20 82q0 160 -158 160zM514 915q-123 0 -186 69q-64 69 -64 157q-1 154 101 246q101 92 249 92q215 0 269 -176q16 -55 15 -147t-44 -194q-87 -204 -298 -298q-103 -47 -224 -58q-19 56 -10 109
q209 21 336 162q46 51 75 124q-96 -86 -219 -86z" />
    <glyph glyph-name="zeroinferior" unicode="&#x2080;" horiz-adv-x="921" 
d="M467 -23q-301 0 -301 368q0 179 108 340t310 161q158 0 232 -94t75 -275q0 -181 -111 -340q-111 -160 -313 -160zM479 92q125 0 201 131q63 109 63 269q0 240 -170 239q-124 0 -197 -132q-61 -110 -63 -269q0 -238 166 -238z" />
    <glyph glyph-name="oneinferior" unicode="&#x2081;" horiz-adv-x="921" 
d="M254 2q0 65 22 111h199l94 544l-223 -90q-22 28 -31 101l390 161h30l-125 -716h199q-4 -55 -21 -111h-534z" />
    <glyph glyph-name="twoinferior" unicode="&#x2082;" horiz-adv-x="921" 
d="M633 586q0 125 -133 125q-92 0 -195 -47q-24 61 -29 102q130 55 244 55t182 -56t68 -163q0 -137 -135 -269q-41 -40 -88 -83l-152 -135h344q3 -52 -20 -113h-588l-4 14l336 308q35 34 65 62q104 98 105 200z" />
    <glyph glyph-name="threeinferior" unicode="&#x2083;" horiz-adv-x="921" 
d="M497 414q-64 0 -96 -4l-6 12l246 293h-309q0 51 18 106h486l6 -20l-254 -303q98 -12 145 -72q47 -61 47 -135q0 -142 -98 -227t-242 -86q-143 -1 -250 42q9 58 43 105q109 -37 172 -37q64 0 103 8q135 28 135 182q0 60 -41 98t-105 38z" />
    <glyph glyph-name="fourinferior" unicode="&#x2084;" horiz-adv-x="921" 
d="M608 461q31 6 62 6t57 -6l-31 -176h101q10 -63 -21 -115h-100l-31 -172h-49q-26 0 -68 4l29 168h-412l-8 16l441 664q61 -11 108 -37l-344 -528h233z" />
    <glyph glyph-name="fiveinferior" unicode="&#x2085;" horiz-adv-x="921" 
d="M483 434q-86 0 -184 -31l-18 17l90 401h460q0 -51 -22 -108h-340l-47 -193q53 13 104 15q111 1 182 -59q70 -60 70 -162q-1 -178 -112 -265q-91 -70 -258 -71t-256 49q16 67 53 112q106 -44 171 -44q193 -2 246 90q22 39 22 99t-38 105q-37 45 -123 45z" />
    <glyph glyph-name="sixinferior" unicode="&#x2086;" horiz-adv-x="921" 
d="M487 88q88 0 153 55t65 143t-40 120q-41 32 -91 32q-148 -1 -209 -121q-20 -39 -21 -86q0 -143 143 -143zM377 451q112 98 262 98q88 1 148 -63q61 -64 61 -151t-29 -149q-60 -129 -195 -181q-69 -26 -149 -25q-137 0 -201 76q-63 77 -62 202q2 238 162 404t402 190
q21 -56 15 -100q-210 -21 -339 -173q-46 -54 -75 -128z" />
    <glyph glyph-name="seveninferior" unicode="&#x2087;" horiz-adv-x="921" 
d="M655 709h-389q-2 59 21 112h575l4 -6l-506 -827q-60 9 -120 51z" />
    <glyph glyph-name="eightinferior" unicode="&#x2088;" horiz-adv-x="921" 
d="M609 748q-131 0 -172 -71q-15 -26 -15 -58q0 -73 89 -114q23 -12 46 -20q158 47 162 166q0 41 -32 69t-78 28zM355 112q40 -32 118 -32t137 37q68 40 69 120t-101 131q-29 13 -58 21q-202 -65 -205 -194q0 -51 40 -83zM412 442q-115 68 -115 174t90 169t205 63
q114 0 184 -48t70 -141q0 -61 -54 -125t-124 -96q67 -37 93 -67q52 -58 52 -126q0 -126 -106 -196t-248 -72q-186 0 -254 114q-23 38 -23 87q0 87 66 155t164 109z" />
    <glyph glyph-name="nineinferior" unicode="&#x2089;" horiz-adv-x="921" 
d="M555 748q-86 0 -146 -54t-60 -139q-2 -164 147 -164q137 0 197 114q19 36 20 83q0 160 -158 160zM213 514q0 156 101 247t246 91t215 -78q71 -78 73 -219q-4 -238 -165 -397q-161 -158 -402 -178q-20 57 -11 108q210 21 337 162q46 51 75 125q-41 -37 -93 -62
q-53 -25 -151 -25t-162 69q-63 69 -63 157z" />
    <glyph glyph-name="Euro" unicode="&#x20ac;" 
d="M1094 623q0 -59 -23 -119h-600q10 -197 100 -299q90 -103 272 -103t312 68q31 -47 37 -117q-151 -73 -363 -78q-249 -1 -377 137t-135 392h-155q-4 64 22 119h135q8 111 27 206h-127q-2 55 21 119h139q121 369 440 483q113 40 266 39t285 -49q-20 -75 -47 -118
q-117 41 -245 42q-325 2 -475 -236q-46 -73 -77 -161h623q7 -52 -21 -119h-632q-18 -89 -27 -206h625z" />
    <glyph glyph-name="afii61289" unicode="&#x2113;" horiz-adv-x="933" 
d="M332 895q0 406 169 491q54 27 126 27q104 0 172 -77t67 -218q0 -186 -98 -353t-279 -335v-41q0 -220 98 -257q30 -11 80 -11t110 34t93 81l40 -40q20 -20 42 -38q-118 -176 -319 -176q-299 0 -299 342q-26 -20 -50 -36t-51 -36q-18 42 -51 90q74 51 150 119v434z
M614 1294q-49 0 -87 -68t-38 -222v-412q242 268 240 524q0 98 -33 138t-82 40z" />
    <glyph glyph-name="trademark" unicode="&#x2122;" horiz-adv-x="1730" 
d="M1750 623h-39q-15 0 -30 4l-32 602l-224 -441q-24 -4 -42 -4t-44 4l-215 439l-28 -598q-24 -6 -49 -6h-40q-15 0 -32 4l39 821q32 4 67 4t68 -4l240 -492l237 492q32 4 67 4t68 -4l37 -819q-24 -6 -48 -6zM572 623h-41q-15 0 -29 4v706h-256q-6 24 -6 57t6 58h631
q6 -24 6 -54t-6 -61h-256v-704q-24 -6 -49 -6z" />
    <glyph glyph-name="uni2126" unicode="&#x2126;" horiz-adv-x="1480" 
d="M246 674q0 368 179 595q179 228 486 228q228 0 359 -150t131 -397q0 -424 -344 -821h262q0 -66 -19 -129h-507l-9 20q322 269 430 644q37 129 37 266q0 206 -89 322t-269 116q-237 0 -368 -192q-130 -192 -130 -498q0 -190 62 -377t149 -281l-12 -20h-508q0 63 18 129
h289q-147 262 -147 545z" />
    <glyph glyph-name="estimated" unicode="&#x212e;" horiz-adv-x="1374" 
d="M1151 549q10 0 10 14v268q0 41 -22 70q-141 141 -339 141t-339 -141q-27 -38 -27 -70v-268q0 -14 10 -14h707zM810 0q-257 0 -427 157q-80 73 -127 171t-47 209t47 207q97 199 314 285q108 42 230 42t230 -43q222 -89 311 -293q45 -100 45 -213h-940q-12 0 -12 -16v-264
q0 -47 29 -74q135 -135 347 -135t361 176h89q-78 -97 -198 -153t-252 -56z" />
    <glyph glyph-name="onethird" unicode="&#x2153;" horiz-adv-x="2150" 
d="M285 629q0 66 22 110h199l94 545l-223 -90q-25 32 -31 100l389 162h31l-125 -717h199q-4 -55 -21 -110h-534zM1692 1448q32 4 79 4t89 -4l-1242 -1448q-23 -4 -53 -4h-65q-35 0 -51 4zM1605 414q-64 0 -96 -4l-6 12l246 293h-309q0 51 18 106h486l6 -20l-254 -303
q98 -12 145 -72q47 -61 47 -135q0 -142 -98 -227t-242 -86q-143 -1 -250 42q9 58 43 105q109 -37 201 -37t142 38q67 49 67 131q0 81 -41 119t-105 38z" />
    <glyph glyph-name="twothirds" unicode="&#x2154;" horiz-adv-x="2150" 
d="M725 1212q0 125 -133 125q-98 0 -195 -47q-25 62 -28 103q130 55 244 55t182 -56t67 -163q0 -138 -135 -270q-41 -40 -88 -82l-152 -136h344q3 -51 -20 -112h-588l-4 14l336 307q35 33 66 62q104 97 104 200zM1737 1448q32 4 79 4t89 -4l-1241 -1448q-23 -4 -53 -4h-65
q-36 0 -52 4zM1683 414q-64 0 -96 -4l-6 12l246 293h-309q0 51 18 106h485l7 -20l-254 -303q98 -12 145 -72q47 -61 47 -135q0 -140 -104 -233q-93 -79 -236 -80t-250 42q9 58 43 105q109 -37 195 -37q212 0 215 184q0 66 -41 104t-105 38z" />
    <glyph glyph-name="onefifth" unicode="&#x2155;" horiz-adv-x="2150" 
d="M285 629q0 66 22 110h199l94 545l-223 -90q-25 32 -31 100l389 162h31l-125 -717h199q-4 -55 -21 -110h-534zM1720 1448q32 4 79 4t89 -4l-1241 -1448q-23 -4 -53 -4h-66q-36 0 -51 4zM1659 434q-86 0 -184 -31l-19 17l90 401h461q0 -51 -22 -108h-340l-48 -193
q52 13 105 15q112 1 182 -59t70 -162q0 -177 -113 -265q-91 -70 -256 -71t-258 49q16 64 53 112q106 -44 171 -44q195 -2 246 90q22 39 22 99t-37 105t-123 45z" />
    <glyph glyph-name="twofifths" unicode="&#x2156;" horiz-adv-x="2150" 
d="M725 1212q0 125 -133 125q-98 0 -195 -47q-25 62 -28 103q130 55 244 55t182 -56t67 -163q0 -138 -135 -270q-41 -40 -88 -82l-152 -136h344q3 -51 -20 -112h-588l-4 14l336 307q35 33 66 62q104 97 104 200zM1724 1448q32 4 79 4t89 -4l-1241 -1448q-23 -4 -53 -4h-66
q-36 0 -51 4zM1683 434q-86 0 -184 -31l-18 17l90 401h461q0 -51 -23 -108h-340l-47 -193q53 13 104 15q111 1 182 -59q70 -60 70 -162q-1 -178 -112 -265q-91 -70 -258 -71t-256 49q16 67 53 112q106 -44 171 -44q193 -2 246 90q22 39 22 99t-38 105q-37 45 -123 45z" />
    <glyph glyph-name="threefifths" unicode="&#x2157;" horiz-adv-x="2150" 
d="M696 904q0 60 -41 98t-105 38t-95 -4l-6 13l245 292h-309q0 51 18 107h486l6 -21l-254 -303q142 -17 181 -138q32 -100 -17 -202q-87 -177 -318 -180q-144 0 -243 43q9 59 43 105q109 -37 172 -37t102 8t69 30q30 23 48 57t18 94zM1675 1448q32 4 79 4t89 -4l-1241 -1448
q-23 -4 -53 -4h-65q-36 0 -52 4zM1644 434q-86 0 -184 -31l-18 17l90 401h461q0 -51 -23 -108h-340l-47 -193q53 13 105 15q112 1 182 -59t70 -162q-1 -178 -113 -265q-91 -70 -258 -71t-256 49q16 67 53 112q106 -44 171 -44q127 -1 188 33q81 43 79 157q0 59 -37 104
t-123 45z" />
    <glyph glyph-name="fourfifths" unicode="&#x2158;" horiz-adv-x="2150" 
d="M690 625q-27 0 -67 4l28 168h-411l-9 16l441 664q53 -10 108 -37l-344 -529h234l32 176q73 14 119 0l-30 -176h100q10 -62 -21 -114h-100l-31 -172h-49zM1690 1448q32 4 79 4t89 -4l-1242 -1448q-23 -4 -41 -4h-77t-52 4zM1638 434q-86 0 -184 -31l-18 17l90 401h461
q0 -51 -23 -108h-340l-47 -193q53 13 104 15q111 1 182 -59t71 -162q-1 -178 -113 -265q-91 -70 -258 -71t-256 49q16 67 53 112q106 -44 171 -44q193 -2 246 90q21 39 21 99t-37 105t-123 45z" />
    <glyph glyph-name="onesixth" unicode="&#x2159;" horiz-adv-x="2150" 
d="M285 629q0 66 22 110h199l94 545l-223 -90q-25 32 -31 100l389 162h31l-125 -717h199q-4 -55 -21 -110h-534zM1731 1448q32 4 79 4t88 -4l-1241 -1448q-23 -4 -53 -4h-66q-36 0 -51 4zM1620 88q88 0 153 55t65 143t-41 120q-40 32 -90 32q-96 -1 -163 -59t-67 -148
q0 -143 143 -143zM1755 549q105 1 165 -63t60 -151q0 -158 -106 -258q-106 -99 -254 -98q-149 1 -213 77q-63 77 -63 202q1 236 165 408q157 162 400 186q22 -58 14 -100q-207 -21 -339 -173q-46 -54 -75 -128q66 58 136 78q69 20 110 20z" />
    <glyph glyph-name="fivesixths" unicode="&#x215a;" horiz-adv-x="2150" 
d="M585 1061q-87 0 -184 -31l-18 17l90 401h461q0 -51 -23 -109h-340l-47 -192q56 14 105 14q111 0 181 -59q70 -58 71 -160q0 -332 -375 -338q-159 0 -252 49q17 69 53 113q110 -45 173 -45q126 1 174 27t70 64t22 98t-37 106q-37 45 -124 45zM1683 1448q32 4 79 4t89 -4
l-1241 -1448q-23 -4 -53 -4h-65q-36 0 -52 4zM1567 88q89 0 153 55t64 143t-40 120t-90 32q-96 -1 -163 -58q-66 -58 -68 -149q1 -143 144 -143zM1456 451q112 98 262 98q88 1 148 -63t61 -151q0 -156 -106 -257q-106 -100 -255 -99t-212 77q-62 76 -62 202q1 238 161 404
q161 166 402 190q22 -60 15 -100q-210 -21 -339 -173q-46 -54 -75 -128z" />
    <glyph glyph-name="oneeighth" unicode="&#x215b;" horiz-adv-x="2150" 
d="M285 629q0 66 22 110h199l94 545l-223 -90q-25 32 -31 100l389 162h31l-125 -717h199q-4 -55 -21 -110h-534zM1731 1448q32 4 79 4t88 -4l-1241 -1448q-23 -4 -53 -4h-66q-36 0 -51 4zM1791 748q-131 0 -172 -71q-15 -26 -15 -58q0 -73 89 -114q23 -12 46 -20
q63 19 97 47q63 53 64 107q1 53 -31 81t-78 28zM1634 80q155 0 208 85q20 30 20 67q0 36 -14 60q-42 68 -146 97q-202 -65 -205 -194q0 -51 40 -83q41 -32 97 -32zM1958 800q70 -48 70 -141t-112 -180q-32 -25 -67 -41q69 -38 94 -67q50 -56 51 -125q1 -68 -30 -118
q-61 -97 -190 -132t-235 -8q-106 26 -153 103q-22 38 -22 87q1 130 145 220q41 26 84 44q-116 68 -115 175q1 106 91 169q90 62 205 62q114 0 184 -48z" />
    <glyph glyph-name="threeeighths" unicode="&#x215c;" horiz-adv-x="2150" 
d="M696 904q0 60 -41 98t-105 38t-95 -4l-6 13l245 292h-309q0 51 18 107h486l6 -21l-254 -303q142 -17 181 -138q32 -100 -17 -202q-87 -177 -318 -180q-144 0 -243 43q9 59 43 105q109 -37 172 -37t102 8t69 30q30 23 48 57t18 94zM1683 1448q32 4 79 4t89 -4l-1241 -1448
q-23 -4 -53 -4h-65q-36 0 -52 4zM1772 748q-183 0 -187 -134q0 -68 89 -109q23 -12 46 -20q64 19 108 57q54 42 54 112q0 38 -32 66t-78 28zM1683 389q-204 -65 -204 -199q0 -46 40 -78t96 -32q155 0 209 85q19 30 19 67t-20 71q-34 57 -140 86zM1575 442q-115 68 -115 174
t90 169t205 63t185 -48t69 -142q0 -94 -112 -179q-31 -25 -66 -41q67 -37 93 -67q52 -58 52 -126q0 -67 -30 -117q-60 -97 -190 -132t-236 -8q-107 27 -152 103q-22 38 -22 87t20 89q55 111 209 175z" />
    <glyph glyph-name="fiveeighths" unicode="&#x215d;" horiz-adv-x="2150" 
d="M585 1061q-87 0 -184 -31l-18 17l90 401h461q0 -51 -23 -109h-340l-47 -192q56 14 105 14q111 0 181 -59q70 -58 71 -160q0 -332 -375 -338q-159 0 -252 49q17 69 53 113q110 -45 173 -45q126 1 174 27t70 64t22 98t-37 106q-37 45 -124 45zM1686 1448q32 4 79 4t88 -4
l-1241 -1448q-23 -4 -53 -4h-65q-36 0 -52 4zM1752 748q-131 0 -172 -71q-15 -26 -15 -58q0 -73 89 -114q23 -12 46 -20q63 19 97 47q63 53 64 107q1 53 -31 81t-78 28zM1498 112q40 -32 118 -32t137 37q68 40 69 120q1 81 -102 131q-28 13 -57 21q-202 -65 -205 -194
q0 -51 40 -83zM1554 442q-114 67 -114 174t90 170q90 62 205 62t185 -48t69 -141q0 -93 -112 -180q-32 -25 -67 -41q69 -38 94 -67q52 -58 52 -126q0 -126 -106 -196t-248 -72q-186 0 -254 114q-23 38 -23 87q0 87 66 155q67 69 163 109z" />
    <glyph glyph-name="seveneighths" unicode="&#x215e;" horiz-adv-x="2150" 
d="M801 1335h-389q-2 59 20 113h576l4 -6l-506 -828q-60 9 -121 52zM1636 1448q32 4 79 4t89 -4l-1241 -1448q-23 -4 -53 -4h-66q-36 0 -51 4zM1890 654q0 38 -31 66q-33 28 -79 28q-184 0 -187 -134q0 -82 136 -129q63 19 107 57q54 42 54 112zM1487 190q0 -46 40 -78
q41 -32 97 -32q155 0 208 85q19 30 19 67q0 36 -14 60q-40 68 -145 97q-205 -66 -205 -199zM1583 442q-115 68 -115 174t90 169t205 63t185 -48t70 -142t-112 -179q-32 -25 -67 -41q67 -37 93 -67q51 -57 52 -126q1 -67 -30 -117q-61 -97 -190 -132t-235 -8
q-106 26 -153 103q-22 38 -22 87t20 89q55 111 209 175z" />
    <glyph glyph-name="partialdiff" unicode="&#x2202;" horiz-adv-x="1177" 
d="M301 410q0 -308 270 -308q205 0 316 160q110 160 145 471q-154 107 -346 107t-288 -117q-97 -118 -97 -313zM401 1382q155 91 364 91t315 -151t106 -392q0 -645 -325 -871q-122 -84 -306 -84q-274 0 -367 229q-32 82 -32 208t42 232q83 210 281 285q96 36 210 36t206 -33
t145 -68q2 16 2 32v34q0 191 -62 291q-79 125 -257 125q-145 0 -291 -72q-29 49 -31 108z" />
    <glyph glyph-name="Delta" unicode="&#x2206;" horiz-adv-x="1118" 
d="M952 131l-174 1169l-551 -1169h725zM715 1448q28 4 88 4t84 -4l227 -1448h-1104z" />
    <glyph glyph-name="product" unicode="&#x220f;" horiz-adv-x="1486" 
d="M383 -373q-32 -4 -77 -4t-64 4l295 1694h-252q0 59 22 127h1376q-4 -70 -22 -127h-252l-295 -1694q-28 -4 -72 -4q-43 0 -69 4l295 1694h-590z" />
    <glyph glyph-name="summation" unicode="&#x2211;" horiz-adv-x="1069" 
d="M1223 1448q0 -66 -23 -129h-692l246 -776l-533 -787h727q0 -70 -20 -129h-938l-8 17l624 923l-284 867l10 14h891z" />
    <glyph glyph-name="minus" unicode="&#x2212;" 
d="M1192 791q0 -68 -23 -140h-872q0 68 22 140h873z" />
    <glyph glyph-name="uni2215" unicode="&#x2215;" horiz-adv-x="841" 
d="M827 1473q31 6 75 6t67 -6l-733 -1473q-24 -6 -68 -6t-72 6z" />
    <glyph glyph-name="uni2219" unicode="&#x2219;" horiz-adv-x="419" 
d="M279 473q-47 0 -74 6q0 71 28 174q43 6 89 6t86 -6q0 -68 -29 -174q-53 -6 -100 -6z" />
    <glyph glyph-name="radical" unicode="&#x221a;" 
d="M244 717q0 56 22 129h248l152 -690l700 1288q24 4 71 4q46 0 70 -4l-792 -1444q-24 -6 -71 -6t-73 6l-168 717h-159z" />
    <glyph glyph-name="infinity" unicode="&#x221e;" horiz-adv-x="1638" 
d="M1303 911q139 0 238 -99t98 -253t-102 -255t-241 -99q-174 0 -370 256q-157 -213 -294 -246q-42 -10 -96 -10q-54 1 -115 25q-128 52 -179 182q-27 66 -27 144q0 152 101 255q101 102 241 100q82 -1 170 -59t201 -197q187 256 375 256zM1300 326q92 0 151 64
q58 65 58 169q0 105 -59 167t-141 62t-126 -32q-86 -61 -182 -199q147 -198 239 -223q30 -8 60 -8zM553 788q-93 0 -151 -63t-58 -167t59 -168t140 -64t127 31q83 57 180 200q-144 193 -239 222q-30 9 -58 9z" />
    <glyph glyph-name="integral" unicode="&#x222b;" horiz-adv-x="716" 
d="M799 1473q102 0 180 -27q-11 -65 -41 -113q-84 21 -135 21q-110 0 -172 -59q-61 -59 -76 -214l-135 -1204q-33 -284 -239 -342q-67 -18 -156 -18t-156 24q14 61 41 113q211 -53 298 34q58 58 79 220l135 1206q20 190 118 274t259 85z" />
    <glyph glyph-name="approxequal" unicode="&#x2248;" 
d="M545 528q-111 0 -213 -86q-44 34 -56 93q81 81 210 111q40 9 90 9t160 -40t192 -41t182 79q37 -41 47 -108q-130 -99 -260 -99q-62 0 -142 28q-81 28 -124 40q-43 14 -86 14zM604 872q-109 0 -213 -86q-39 32 -55 93q51 49 132 85t150 35t179 -41q111 -40 193 -40
q83 0 179 79q32 -34 50 -108q-131 -100 -263 -98q-65 0 -144 27q-79 26 -122 40t-86 14z" />
    <glyph glyph-name="notequal" unicode="&#x2260;" 
d="M1145 594q0 -68 -23 -139h-491l-189 -287q-32 -4 -62 -4q-31 0 -69 4l189 287h-250q0 62 22 139h316l157 237h-430q0 72 25 140h498l186 284q61 8 133 0l-186 -284h241q-4 -69 -24 -140h-309l-158 -237h424z" />
    <glyph glyph-name="lessequal" unicode="&#x2264;" 
d="M1151 141q0 -68 -23 -139h-872q0 68 23 139h872zM1296 1141q0 -70 -24 -154l-729 -287l628 -278q4 -68 -26 -146l-760 357q0 87 27 149z" />
    <glyph glyph-name="greaterequal" unicode="&#x2265;" 
d="M1108 141q0 -68 -23 -139h-872q0 68 23 139h872zM248 281q0 81 24 153l730 287l-629 278q-4 68 26 146l760 -356q0 -83 -26 -150z" />
    <glyph glyph-name="lozenge" unicode="&#x25ca;" horiz-adv-x="1046" 
d="M774 1493q32 0 66 -6l268 -744l-528 -743q-31 -6 -64 -6t-65 6l-267 743l527 744q31 6 63 6zM969 754l-211 596l-432 -615l204 -600z" />
    <glyph glyph-name="oneseventh" unicode="&#xf506;" horiz-adv-x="2150" 
d="M285 629q0 66 22 110h199l94 545l-223 -90q-25 32 -31 100l389 162h31l-125 -717h199q-4 -55 -21 -110h-534zM1726 1448q32 4 79 4t89 -4l-1241 -1448q-23 -4 -53 -4h-66q-36 0 -51 4zM1903 709h-390q-2 59 21 112h575l5 -6l-506 -827q-62 9 -121 51z" />
    <glyph glyph-name="twosevenths" unicode="&#xf507;" horiz-adv-x="2150" 
d="M725 1212q0 125 -133 125q-98 0 -195 -47q-25 62 -28 103q130 55 244 55t182 -56t67 -163q0 -138 -135 -270q-41 -40 -88 -82l-152 -136h344q3 -51 -20 -112h-588l-4 14l336 307q35 33 66 62q104 97 104 200zM1724 1448q32 4 79 4t89 -4l-1241 -1448q-23 -4 -53 -4h-66
q-36 0 -51 4zM1884 709h-389q-2 59 21 112h575l4 -6l-506 -827q-59 9 -121 51z" />
    <glyph glyph-name="threesevenths" unicode="&#xf508;" horiz-adv-x="2150" 
d="M696 904q0 60 -41 98t-105 38t-95 -4l-6 13l245 292h-309q0 51 18 107h486l6 -21l-254 -303q142 -17 181 -138q32 -100 -17 -202q-87 -177 -318 -180q-144 0 -243 43q9 59 43 105q109 -37 172 -37t102 8t69 30q30 23 48 57t18 94zM1683 1448q32 4 79 4t89 -4l-1241 -1448
q-23 -4 -53 -4h-65q-36 0 -52 4zM1909 709h-389q-2 59 20 112h576l4 -6l-506 -827q-62 9 -121 51z" />
    <glyph glyph-name="foursevenths" unicode="&#xf509;" horiz-adv-x="2150" 
d="M690 625q-27 0 -67 4l28 168h-411l-9 16l441 664q53 -10 108 -37l-344 -529h234l32 176q73 14 119 0l-30 -176h100q10 -62 -21 -114h-100l-31 -172h-49zM1718 1448q32 4 79 4t89 -4l-1241 -1448q-23 -4 -53 -4h-66q-36 0 -51 4zM1882 709h-389q-2 59 20 112h576l4 -6
l-506 -827q-59 9 -121 51z" />
    <glyph glyph-name="fivesevenths" unicode="&#xf50a;" horiz-adv-x="2150" 
d="M651 1061q-86 0 -184 -31l-18 17l90 401h460q0 -51 -22 -109h-340l-47 -192q56 14 104 14q111 0 182 -59q70 -58 70 -160q-1 -178 -112 -266q-91 -70 -255 -71t-260 48q16 67 54 113q110 -45 172 -45q63 0 107 7q162 26 160 182q0 60 -38 106q-37 46 -123 45zM1749 1448
q32 4 79 4t89 -4l-1241 -1448q-23 -4 -53 -4h-65q-36 0 -52 4zM1905 709h-389q-2 59 20 112h575l5 -6l-506 -827q-62 9 -121 51z" />
    <glyph glyph-name="sixsevenths" unicode="&#xf50b;" horiz-adv-x="2150" 
d="M549 715q89 0 153 55q64 54 64 142q0 152 -141 153q-85 0 -152 -58t-67 -149q0 -143 143 -143zM550 606q-276 0 -276 279q0 125 44 227q90 208 298 306q103 49 222 61q22 -58 14 -101q-210 -21 -339 -173q-46 -54 -75 -128q109 96 246 99q104 0 164 -64t61 -150
q0 -157 -105 -257q-104 -99 -254 -99zM1683 1448q32 4 79 4t89 -4l-1241 -1448q-23 -4 -53 -4h-65q-36 0 -52 4zM1866 709h-389q-2 59 20 112h576l4 -6l-506 -827q-62 9 -121 51z" />
    <glyph glyph-name="oneninth" unicode="&#xf50c;" horiz-adv-x="2150" 
d="M285 629q0 66 22 110h199l94 545l-223 -90q-25 32 -31 100l389 162h31l-125 -717h199q-4 -55 -21 -110h-534zM1729 1448q32 4 79 4t88 -4l-1241 -1448q-23 -4 -53 -4h-66q-36 0 -51 4zM1931 588q0 160 -157 160q-85 0 -146 -55t-61 -138q0 -164 147 -164q138 0 198 114
q19 36 19 83zM1432 514q0 88 28 148q55 120 185 166q63 24 138 24q140 0 212 -78q71 -78 70 -208q-2 -247 -162 -407q-161 -159 -404 -179q-19 55 -10 108q207 21 337 162q46 51 75 125q-41 -37 -93 -62t-152 -25q-98 0 -161 70q-63 68 -63 156z" />
    <glyph glyph-name="twoninths" unicode="&#xf50d;" horiz-adv-x="2150" 
d="M725 1212q0 125 -133 125q-98 0 -195 -47q-25 62 -28 103q130 55 244 55t182 -56t67 -163q0 -138 -135 -270q-41 -40 -88 -82l-152 -136h344q3 -51 -20 -112h-588l-4 14l336 307q35 33 66 62q104 97 104 200zM1726 1448q32 4 79 4t89 -4l-1241 -1448q-23 -4 -53 -4h-66
q-36 0 -51 4zM1925 588q0 160 -158 160q-84 0 -145 -55t-61 -138q0 -164 147 -164q138 0 198 114q19 36 19 83zM1776 852q141 0 213 -78q71 -78 70 -208q-2 -248 -163 -407t-403 -179q-19 55 -10 108q207 21 337 162q46 51 74 125q-41 -37 -93 -62q-53 -25 -151 -25t-161 70
q-63 68 -63 156t27 148q56 118 185 166q62 24 138 24z" />
    <glyph glyph-name="fourninths" unicode="&#xf50e;" horiz-adv-x="2150" 
d="M690 625q-27 0 -67 4l28 168h-411l-9 16l441 664q53 -10 108 -37l-344 -529h234l32 176q73 14 119 0l-30 -176h100q10 -62 -21 -114h-100l-31 -172h-49zM1683 1448q32 4 79 4t89 -4l-1241 -1448q-23 -4 -53 -4h-65q-36 0 -52 4zM1890 588q0 160 -157 160q-85 0 -146 -55
t-61 -138q0 -164 147 -164q138 0 198 114q19 36 19 83zM1391 514q-1 88 27 148q55 120 186 166q63 24 138 24q140 0 212 -78q71 -78 70 -208q-2 -247 -162 -407q-161 -159 -404 -179q-19 55 -10 108q207 21 337 162q46 51 75 125q-42 -37 -94 -62t-150 -25t-162 70
q-63 68 -63 156z" />
    <glyph glyph-name="fiveninths" unicode="&#xf50f;" horiz-adv-x="2150" 
d="M585 1061q-87 0 -184 -31l-18 17l90 401h461q0 -51 -23 -109h-340l-47 -192q56 14 105 14q111 0 181 -59q70 -58 71 -160q0 -332 -375 -338q-159 0 -252 49q17 69 53 113q110 -45 173 -45q126 1 174 27t70 64t22 98t-37 106q-37 45 -124 45zM1683 1448q32 4 79 4t89 -4
l-1241 -1448q-23 -4 -53 -4h-65q-36 0 -52 4zM1896 588q0 160 -157 160q-85 0 -146 -55t-61 -138q0 -164 147 -164q138 0 198 114q19 36 19 83zM1397 514q-1 88 27 148q55 120 186 166q63 24 138 24q140 0 211 -78t73 -219q-4 -238 -165 -397q-161 -158 -403 -178
q-19 55 -10 108q210 21 337 162q46 51 75 125q-41 -37 -93 -62t-151 -25t-162 70q-63 68 -63 156z" />
    <glyph glyph-name="sevenninths" unicode="&#xf510;" horiz-adv-x="2150" 
d="M801 1335h-389q-2 59 20 113h576l4 -6l-506 -828q-60 9 -121 52zM1597 1448q32 4 79 4t89 -4l-1241 -1448q-23 -4 -53 -4h-65q-36 0 -52 4zM1743 748q-85 0 -146 -55t-61 -138q0 -164 147 -164q138 0 198 114q19 36 20 83q0 160 -158 160zM1401 514q-1 88 27 148
q55 120 186 166q63 24 138 24q140 0 211 -78t73 -219q-4 -238 -165 -397q-161 -158 -403 -178q-19 55 -10 108q210 21 337 162q46 51 75 125q-41 -37 -93 -62t-151 -25t-162 70q-63 68 -63 156z" />
    <glyph glyph-name="eightninths" unicode="&#xf511;" horiz-adv-x="2150" 
d="M782 1281q0 38 -31 66q-51 44 -157 20t-109 -126q0 -82 136 -129q27 8 55 23q106 51 106 146zM584 1016q-205 -66 -205 -200q0 -46 40 -78t117 -32t123 28q84 49 84 131t-102 129q-28 14 -57 22zM475 1069q-115 68 -115 174t89 168t206 63q115 0 185 -48t70 -141
t-112 -179q-32 -25 -67 -41q65 -36 92 -67q52 -58 53 -127q1 -68 -30 -117q-61 -96 -189 -131q-128 -34 -235 -8t-154 103q-22 38 -22 87t20 89q55 111 209 175zM1686 1448q32 4 79 4t88 -4l-1241 -1448q-23 -4 -53 -4h-65q-36 0 -52 4zM1898 588q0 160 -157 160
q-85 0 -146 -55t-61 -138q0 -164 147 -164q138 0 198 114q19 36 19 83zM1399 514q-1 88 27 148q55 120 186 166q63 24 138 24q140 0 211 -78t73 -219q-4 -238 -165 -397q-161 -158 -403 -178q-19 55 -10 108q210 21 337 162q46 51 75 125q-41 -37 -93 -62t-151 -25t-162 70
q-63 68 -63 156z" />
    <glyph glyph-name="a.smcp" unicode="&#xf605;" horiz-adv-x="1021" 
d="M760 397l-82 561l-268 -561h350zM627 1118q28 4 85 4q56 0 74 -4l177 -1118q-20 -4 -72 -4t-72 4l-41 287h-420l-137 -287q-29 -4 -67 -4t-78 8z" />
    <glyph glyph-name="b.smcp" unicode="&#xf606;" horiz-adv-x="1028" 
d="M580 530h-160l-76 -430q43 -6 115 -6q163 0 255 51q117 65 115 205q0 180 -249 180zM584 645q135 -1 207 63q71 64 71 152t-47 127t-156 39t-153 -8l-66 -373h144zM657 1135q171 1 261 -59t90 -177t-62 -191t-147 -106q78 -23 127 -81t49 -157q0 -196 -147 -290t-379 -92
q-166 0 -261 18l193 1118q51 6 107 9q57 3 98 5t71 3z" />
    <glyph glyph-name="c.smcp" unicode="&#xf607;" horiz-adv-x="1042" 
d="M655 -18q-196 0 -315 112t-119 328q0 290 159 488q181 225 503 227q133 0 258 -43q-15 -74 -49 -111q-115 39 -238 39q-237 0 -364 -174t-125 -422q1 -160 83 -245t236 -85t268 54q27 -35 33 -105q-134 -63 -330 -63z" />
    <glyph glyph-name="d.smcp" unicode="&#xf608;" horiz-adv-x="1208" 
d="M1049 653q0 187 -84 277t-306 90q-84 0 -157 -10l-160 -899q65 -9 183 -9t218 42t168 117q138 152 138 392zM653 1135q426 0 511 -277q26 -84 26 -198t-38 -237q-80 -262 -339 -381q-133 -60 -327 -60t-298 20l193 1116q195 17 272 17z" />
    <glyph glyph-name="e.smcp" unicode="&#xf609;" horiz-adv-x="950" 
d="M852 651q0 -59 -21 -116h-407q-18 -109 -38 -210t-38 -208h520q-12 -74 -26 -117h-654l195 1118h659q0 -65 -18 -117h-520l-62 -350h410z" />
    <glyph glyph-name="f.smcp" unicode="&#xf60a;" horiz-adv-x="888" 
d="M838 651q0 -77 -21 -116h-397l-94 -535q-20 -4 -72 -4t-68 6l197 1116h606q4 -57 -22 -117h-467l-62 -350h400z" />
    <glyph glyph-name="g.smcp" unicode="&#xf60b;" horiz-adv-x="1163" 
d="M692 96q104 0 189 31q20 115 42 229t42 232q10 2 40 2h59q29 0 42 -2l-100 -537l-2 -4q-137 -65 -341 -65t-323 114t-119 332q0 285 156 482q178 225 491 227q152 0 273 -39q-12 -70 -51 -111q-98 35 -226 35q-243 0 -372 -172t-127 -408q0 -174 84 -260t243 -86z" />
    <glyph glyph-name="h.smcp" unicode="&#xf60c;" horiz-adv-x="1179" 
d="M442 1122q40 0 76 -6l-78 -465h518l80 467q20 4 62 4t78 -6l-197 -1116q-20 -4 -71 -4t-66 6l94 533h-518l-94 -535q-20 -4 -70 -4t-66 6l193 1116q19 4 59 4z" />
    <glyph glyph-name="i.smcp" unicode="&#xf60d;" horiz-adv-x="514" 
d="M383 1118q21 4 67 4q47 0 70 -4l-196 -1118q-32 -6 -80 -4t-58 6z" />
    <glyph glyph-name="j.smcp" unicode="&#xf60e;" horiz-adv-x="686" 
d="M245 92q50 0 99 31t66 123l133 758h-209q2 72 14 114h350l-153 -891q-43 -249 -302 -251q-117 0 -180 32q3 56 33 111q23 -7 61 -17t88 -10z" />
    <glyph glyph-name="k.smcp" unicode="&#xf60f;" horiz-adv-x="1017" 
d="M989 0q-31 -4 -79 -4t-76 4l-347 573l488 545q28 4 73 4t80 -6l-477 -538zM383 1118q20 4 64 4t71 -4l-192 -1118q-20 -4 -70 -4t-66 6z" />
    <glyph glyph-name="l.smcp" unicode="&#xf610;" horiz-adv-x="878" 
d="M385 1118q20 4 67 4t72 -4l-176 -1001h488q-4 -65 -21 -117h-629z" />
    <glyph glyph-name="m.smcp" unicode="&#xf611;" horiz-adv-x="1396" 
d="M420 1118q20 4 74 4t77 -4l199 -715l420 715q20 4 81 4t83 -4l-131 -1118q-25 -4 -71 -4t-67 4l109 889l-393 -662q-12 -4 -34 -4h-43q-21 0 -34 4l-192 664l-193 -891q-25 -4 -63 -4t-76 8z" />
    <glyph glyph-name="n.smcp" unicode="&#xf612;" horiz-adv-x="1196" 
d="M486 1122q28 0 38 -2l379 -897l154 897q9 2 37 2h54q26 0 44 -4l-195 -1118q-19 -4 -69 -4q-49 0 -72 4l-379 893q-37 -223 -77 -447t-76 -446q-24 -4 -60 -4t-74 8l195 1116q12 2 43 2h58z" />
    <glyph glyph-name="o.smcp" unicode="&#xf613;" horiz-adv-x="1247" 
d="M612 98q96 0 180 49q168 99 240 330q35 113 35 209t-15 153q-48 181 -252 181t-330 -177t-126 -442q0 -139 64 -221t204 -82zM616 -18q-210 0 -313 113q-102 113 -101 281q1 169 44 304q88 276 316 397q114 59 232 59q211 1 315 -114q103 -116 102 -285q-1 -168 -45 -304
t-125 -236q-81 -99 -195 -157q-112 -58 -230 -58z" />
    <glyph glyph-name="p.smcp" unicode="&#xf614;" horiz-adv-x="993" 
d="M535 430h-69q-34 0 -63 4l-77 -434q-20 -4 -71 -4t-67 6l195 1116q152 19 250 19q405 0 401 -285q0 -207 -153 -322q-137 -100 -346 -100zM532 547q361 0 361 287q0 104 -66 146t-180 42t-143 -6l-80 -465q30 -4 54 -4h54z" />
    <glyph glyph-name="q.smcp" unicode="&#xf615;" horiz-adv-x="1247" 
d="M612 109q96 0 180 49q169 99 240 329q35 113 35 209q0 171 -66 254q-66 82 -204 80q-201 0 -327 -177t-126 -441q0 -139 64 -221t204 -82zM616 -8q-209 0 -312 113t-102 282q2 330 167 540q79 101 193 160t232 59q211 1 315 -114q103 -116 102 -285q-1 -168 -45 -304
t-125 -236q-81 -99 -195 -157q-112 -58 -230 -58zM680 -137q10 60 45 110l369 -63q-8 -60 -47 -115z" />
    <glyph glyph-name="r.smcp" unicode="&#xf616;" horiz-adv-x="1007" 
d="M639 1026q-86 0 -137 -6l-176 -1020q-20 -4 -62 -4t-76 8l197 1120q185 13 257 13q160 0 264 -68t104 -207q0 -140 -102 -249q-65 -68 -208 -134l250 -475q-47 -8 -77 -8h-48q-18 0 -32 4l-277 528l78 31q113 46 175 95q99 80 97 190q0 182 -227 182z" />
    <glyph glyph-name="s.smcp" unicode="&#xf617;" horiz-adv-x="952" 
d="M571 527q-160 73 -206 116t-66 85t-20 99q0 137 109 224q110 86 302 86q139 0 277 -45q-18 -73 -47 -119q-116 51 -237 51q-119 0 -191 -45t-72 -119t47 -120t159 -97t183 -119q72 -68 72 -166q0 -184 -129 -281t-338 -95q-98 0 -186 18t-130 37q17 56 52 113
q66 -18 126 -34t134 -16q166 0 244 64t77 176q0 114 -160 187z" />
    <glyph glyph-name="t.smcp" unicode="&#xf618;" horiz-adv-x="876" 
d="M225 1001q0 58 19 117h755q0 -61 -18 -117h-307l-174 -1001q-24 -4 -73 -4t-65 6l175 999h-312z" />
    <glyph glyph-name="u.smcp" unicode="&#xf619;" horiz-adv-x="1196" 
d="M385 268q1 -166 199 -166q98 0 154 20q110 40 160 170q26 65 42 154l119 672q25 4 67 4q43 0 68 -4l-125 -712q-35 -205 -151 -315t-336 -109q-332 0 -332 297q0 69 14 155l121 684q24 4 57 4t47 -2t31 -4l-117 -674q-18 -93 -18 -174z" />
    <glyph glyph-name="v.smcp" unicode="&#xf61a;" horiz-adv-x="1042" 
d="M266 1116q30 6 76 6t72 -4l137 -958l453 958q24 4 70 4t83 -6l-551 -1116q-20 -4 -85 -4t-77 4z" />
    <glyph glyph-name="w.smcp" unicode="&#xf61b;" horiz-adv-x="1529" 
d="M270 1118q20 4 70 4t72 -4l34 -930l422 930q20 4 76 4t76 -4l84 -934l377 934q24 4 59 4t53 -2t37 -4l-477 -1116q-24 -4 -85 -4t-81 4l-80 913l-409 -913q-24 -4 -91 -4t-81 4z" />
    <glyph glyph-name="x.smcp" unicode="&#xf61c;" horiz-adv-x="1009" 
d="M957 -4h-47q-26 0 -52 4l-235 586l389 532q28 4 46 4h33q15 0 39 -2q23 -2 29 -2l-391 -538l229 -582zM279 1118q28 4 71 4t70 -4l188 -532l-428 -586q-24 -4 -62 -4t-87 8l436 594z" />
    <glyph glyph-name="y.smcp" unicode="&#xf61d;" horiz-adv-x="907" 
d="M205 1116q60 6 92 6t55 -4l183 -559l364 559q28 4 62 4t90 -6l-473 -713l-70 -403q-20 -4 -58 -4t-75 8l71 410z" />
    <glyph glyph-name="z.smcp" unicode="&#xf61e;" horiz-adv-x="923" 
d="M276 1001q5 80 23 117h709l18 -20l-731 -981h567q-4 -66 -18 -117h-762l-10 23l727 978h-523z" />
    <glyph glyph-name="ae.smcp" unicode="&#xf61f;" horiz-adv-x="1517" 
d="M819 383l115 623h-4l-477 -623h366zM1421 651q0 -56 -20 -116h-408l-75 -418h520q-12 -74 -27 -117h-655l47 270h-432l-215 -270q-34 -6 -80 -6t-76 6l860 1118h752q0 -67 -19 -117h-520l-61 -350h409z" />
    <glyph glyph-name="eng.smcp" unicode="&#xf620;" horiz-adv-x="1196" 
d="M654 -381q50 0 100 31q49 31 65 125l39 227l-381 891l-153 -893q-24 -4 -60 -4t-74 8l195 1116q12 2 43 2h58q28 0 38 -2l379 -897l154 897q9 2 37 2h54q26 0 44 -4l-238 -1362q-43 -250 -301 -252q-117 0 -180 33q3 59 33 109q22 -6 60 -16t88 -11z" />
    <glyph glyph-name="oe.smcp" unicode="&#xf621;" horiz-adv-x="1527" 
d="M785 1020q-87 0 -171 -46t-144 -127q-126 -170 -126 -433q0 -148 74 -232t215 -84q87 0 151 25l156 874q-67 23 -155 23zM1622 1118q0 -65 -18 -117h-521l-63 -350h410q0 -53 -21 -116h-408q-18 -109 -37 -210t-38 -208h520q-12 -74 -27 -117h-649q-59 -16 -157 -16
q-191 0 -301 115q-111 115 -109 304q0 316 167 524t443 210q108 0 162 -19h647z" />
    <glyph glyph-name="eth.smcp" unicode="&#xf622;" horiz-adv-x="1222" 
d="M1063 638q0 102 -17 170q-52 212 -372 212q-85 0 -158 -10l-67 -377h323q0 -74 -18 -121h-326l-72 -401q65 -9 183 -9q119 0 219 42q200 83 270 292q35 100 35 202zM150 512q0 66 18 121h141l86 485q196 17 312 17q117 0 220 -35q199 -67 252 -242q60 -195 -16 -446
q-77 -251 -338 -370q-133 -60 -327 -60t-295 20l88 510h-141z" />
    <glyph glyph-name="hbar.smcp" unicode="&#xf623;" horiz-adv-x="1097" 
d="M918 651l28 174h-518l-29 -174h519zM1229 942q0 -70 -19 -117h-125l-145 -825q-20 -4 -70 -4t-67 6l94 533h-518l-94 -535q-20 -4 -70 -4t-65 6l141 823h-119q0 61 18 117h121l31 176q20 4 60 4q39 0 75 -6l-31 -174h521l30 176q19 4 61 4t79 -6l-31 -174h123z" />
    <glyph glyph-name="ij.smcp" unicode="&#xf624;" horiz-adv-x="1181" 
d="M383 1118q21 4 67 4q47 0 70 -4l-196 -1118q-32 -6 -80 -4t-58 6zM740 92q50 0 100 31q49 31 65 123l133 758h-209q2 72 15 114h350l-154 -891q-43 -249 -301 -251q-117 0 -180 32q3 61 33 111q22 -7 60 -17t88 -10z" />
    <glyph glyph-name="idotaccent.smcp" unicode="&#xf625;" horiz-adv-x="514" 
d="M383 1118q21 4 67 4q47 0 70 -4l-196 -1118q-32 -6 -80 -4t-58 6zM511 1434q51 0 87 -4q-4 -94 -31 -183l-94 -2l-88 2q3 71 29 183q46 4 97 4z" />
    <glyph glyph-name="dotlessi.smcp" unicode="&#xf626;" horiz-adv-x="514" 
d="M383 1118q21 4 67 4q47 0 70 -4l-196 -1118q-32 -6 -80 -4t-58 6z" />
    <glyph glyph-name="oslash.smcp" unicode="&#xf627;" horiz-adv-x="1247" 
d="M798 1020q-202 0 -328 -177t-126 -442q0 -90 23 -145l600 715q-66 49 -169 49zM1067 700q0 110 -31 181l-606 -723q66 -60 172 -60t190 49q168 99 240 331q35 112 35 222zM203 389q0 156 43 291q88 276 316 397q114 59 253 59t236 -67l77 92q18 6 70 6t76 -6l-144 -170
q80 -109 80 -265t-44 -293q-89 -276 -319 -394q-113 -57 -259 -57t-244 75l-80 -96q-21 -6 -72 -6t-73 6l149 178q-65 94 -65 250z" />
    <glyph glyph-name="thorn.smcp" unicode="&#xf628;" horiz-adv-x="999" 
d="M636 1008q166 0 270 -70t104 -215q0 -210 -154 -322q-135 -98 -346 -98h-69q-34 0 -62 4l-53 -307q-20 -4 -71 -4t-67 6l195 1116q24 4 62 4q39 0 69 -4l-18 -117q69 7 140 7zM508 418q360 0 360 287q0 106 -65 148q-66 42 -179 42t-145 -6l-80 -467q29 -4 54 -4h55z" />
    <glyph glyph-name="tbar.smcp" unicode="&#xf629;" horiz-adv-x="876" 
d="M831 623q0 -70 -18 -117h-225l-88 -506q-24 -4 -73 -4t-65 6l89 504h-209q0 61 18 117h211l66 378h-312q0 58 19 117h755q0 -61 -18 -117h-307l-66 -378h223z" />
    <glyph glyph-name="kgreenlandic.smcp" unicode="&#xf62a;" horiz-adv-x="1017" 
d="M989 0q-31 -4 -79 -4t-76 4l-347 573l488 545q28 4 73 4t80 -6l-477 -538zM383 1118q20 4 64 4t71 -4l-192 -1118q-20 -4 -70 -4t-66 6z" />
    <glyph glyph-name="lslash.smcp" unicode="&#xf62b;" horiz-adv-x="878" 
d="M385 1118q20 4 67 4t72 -4l-88 -500l279 127q5 -88 -17 -133l-286 -133l-64 -362h488q-4 -65 -21 -117h-629l76 428l-145 -66q0 92 18 136l152 69z" />
    <glyph glyph-name="ampersand.smcp" unicode="&#xf62c;" horiz-adv-x="1243" 
d="M643 608q-147 0 -235 -84q-89 -84 -89 -225q0 -140 139 -189q48 -18 128 -18q162 -1 246 87q83 88 110 241l33 188h-332zM1014 911v23q73 22 129 22q2 -23 2 -40v-33q0 -69 -19 -168h187q0 -69 -19 -107h-186l-51 -270q-33 -176 -160 -266t-321 -90t-298 85t-104 222
t74 231t192 139q-75 33 -110 124q-12 31 -12 87t29 109q87 155 317 158q122 0 215 -31q-7 -57 -39 -98q-106 30 -194 30t-142 -48t-53 -129q0 -81 50 -113t122 -33h370q21 113 21 196z" />
    <glyph glyph-name="germandbls.smcp" unicode="&#xf637;" horiz-adv-x="1822" 
d="M571 527q-160 73 -206 116t-66 85t-20 99q0 137 109 224q110 86 302 86q139 0 277 -45q-18 -73 -47 -119q-116 51 -237 51q-119 0 -191 -45t-72 -119t47 -120t159 -97t183 -119q72 -68 72 -166q0 -184 -129 -281t-338 -95q-98 0 -186 18t-130 37q17 56 52 113
q66 -18 126 -34t134 -16q166 0 244 64t77 176q0 114 -160 187zM1443 526q-159 73 -206 116q-47 44 -68 86q-20 42 -20 99q0 137 109 224q110 86 303 86q138 0 276 -45q-19 -78 -47 -119q-116 51 -236 51t-192 -45t-72 -119t47 -120t159 -97t184 -119t71 -166
q0 -184 -129 -281t-338 -95q-98 0 -185 18t-130 37q17 59 51 113q66 -18 127 -34t133 -16q166 0 244 64t78 176q0 113 -159 186z" />
    <glyph glyph-name="euro.smcp" unicode="&#xf638;" horiz-adv-x="1048" 
d="M694 -18q-180 0 -288 98t-125 280h-162q-6 47 18 101h142q0 84 16 172h-129q-4 52 18 100h135q129 393 547 389q157 0 271 -45q-16 -72 -47 -110q-110 39 -257 40t-237 -75t-133 -199h508q6 -46 -19 -100h-516q-16 -88 -16 -172h504q3 -43 -19 -101h-481
q33 -268 307 -268q134 0 244 53q25 -37 31 -102q-132 -61 -312 -61z" />
    <glyph glyph-name="dollar.smcp" unicode="&#xf639;" horiz-adv-x="905" 
d="M246 807q0 123 89 205t245 100l28 170q27 6 60 6t63 -6l-29 -168q125 -6 230 -43q-17 -69 -47 -119q-114 50 -238 51q-123 1 -191 -45t-69 -118q0 -74 44 -119q45 -45 157 -96t186 -116t74 -171q0 -154 -93 -237t-245 -105l-33 -178q-29 -6 -63 -6t-60 6l29 170
q-98 0 -185 18t-130 37q19 64 51 113q66 -18 126 -34t132 -16q327 0 325 213q0 114 -164 187q-78 34 -128 62q-164 92 -164 239z" />
    <glyph glyph-name="cent.smcp" unicode="&#xf63a;" horiz-adv-x="899" 
d="M500 -190q-28 0 -60 6l31 178q-139 18 -212 109t-73 206q0 216 118 372t321 183l30 168q27 6 57 6t60 -6l-29 -166q88 -7 154 -30q-13 -65 -45 -113q-74 31 -165 32q-168 2 -268 -127t-97 -300q0 -121 63 -172t186 -52q68 0 183 35q25 -68 28 -104q-79 -34 -194 -43
l-31 -176q-29 -6 -57 -6z" />
    <glyph glyph-name="sterling.smcp" unicode="&#xf63b;" horiz-adv-x="942" 
d="M195 492q0 60 18 110h92q-4 54 -4 117t24 140q50 162 213 228q85 35 223 35t249 -51q-13 -49 -54 -117q-100 47 -200 47q-176 0 -248 -80t-74 -225q0 -50 4 -94h396q0 -61 -19 -110h-366q2 -10 2 -18v-19q0 -98 -24 -176t-89 -150h561q-4 -65 -22 -129h-791l-2 27
q235 124 235 415l-2 50h-122z" />
    <glyph glyph-name="yen.smcp" unicode="&#xf63c;" horiz-adv-x="999" 
d="M254 1116q48 6 85 6t58 -4l199 -463l348 463q28 4 63 4q34 0 85 -6l-377 -487h278q7 -42 -16 -101h-336l-33 -172h338q7 -50 -16 -100h-340l-47 -256q-19 -4 -61 -4t-68 6l49 254h-320q-7 52 17 100h321l35 172h-326q-7 53 17 101h268z" />
    <glyph glyph-name="florin.smcp" unicode="&#xf63d;" horiz-adv-x="821" 
d="M68 -92q108 0 168 55t90 217l71 393h-192q0 61 18 111h191l16 90q36 195 120 272q84 76 251 76q106 0 184 -35q-15 -69 -43 -112q-79 27 -137 28q-114 2 -168 -48q-55 -50 -80 -210l-10 -61h235q0 -62 -18 -111h-238l-75 -419q-40 -192 -128 -277q-88 -86 -260 -88
q-107 0 -157 25q10 58 39 112q72 -18 123 -18z" />
    <glyph glyph-name="exclam.smcp" unicode="&#xf63e;" horiz-adv-x="579" 
d="M339 172q40 0 83 -6q-10 -105 -29 -166q-34 -6 -81 -6q-46 0 -85 6q0 87 29 166q43 6 83 6zM422 1116q28 4 65 4q38 0 72 -4l-141 -758q-28 -4 -62 -4t-59 4z" />
    <glyph glyph-name="question.smcp" unicode="&#xf63f;" horiz-adv-x="897" 
d="M429 172q40 0 83 -6q-10 -105 -29 -166q-34 -6 -81 -6q-46 0 -85 6q0 81 29 166q43 6 83 6zM926 880q0 -108 -38 -171q-96 -159 -335 -211l-29 -146q-32 -4 -68 -4t-61 4l43 226l60 14q128 33 181 69q52 35 79 77t26 104q0 180 -227 180q-130 0 -240 -39q-30 50 -30 104
q127 50 296 51q167 1 255 -75q88 -75 88 -183z" />
    <glyph glyph-name="ordfeminine.smcp" unicode="&#xf640;" horiz-adv-x="774" 
d="M598 741l-59 263l-140 -263h199zM496 1116q24 4 59 4t63 -4l138 -590q-28 -4 -58 -4t-59 4l-29 127h-260l-69 -127l-56 -6q-47 0 -65 6z" />
    <glyph glyph-name="ordmasculine.smcp" unicode="&#xf641;" horiz-adv-x="751" 
d="M471 496q-123 0 -183 74t-60 170q-1 175 88 287q90 112 245 112q123 0 184 -75q61 -76 61 -172q1 -272 -191 -366q-62 -30 -144 -30zM346 788q0 -196 124 -196q105 0 159 78q55 78 55 194q0 180 -133 180q-98 0 -152 -79q-53 -81 -53 -177z" />
    <glyph glyph-name="questiondown.smcp" unicode="&#xf642;" horiz-adv-x="897" 
d="M724 1139q40 0 81 -6q0 -87 -29 -166q-43 -6 -83 -6t-83 6q9 98 29 166q45 6 85 6zM197 253q-1 107 37 171q93 158 335 211l29 145q32 4 67 4t62 -4l-43 -225l-59 -14q-130 -33 -182 -69q-105 -72 -105 -181q0 -180 227 -180q130 0 240 39q29 -49 31 -105
q-130 -51 -298 -51q-167 0 -254 76t-87 183z" />
    <glyph glyph-name="exclamdown.smcp" unicode="&#xf643;" horiz-adv-x="579" 
d="M462 1120q40 0 81 -6q0 -87 -29 -166q-43 -6 -83 -6t-83 6q9 98 29 166q45 6 85 6zM352 756q28 4 62 4q33 0 59 -4l-125 -758q-28 -4 -66 -4q-37 0 -71 4z" />
    <glyph glyph-name="abreve.smcp" unicode="&#xf644;" horiz-adv-x="1021" 
d="M760 397l-82 561l-268 -561h350zM627 1118q28 4 85 4q56 0 74 -4l177 -1118q-20 -4 -72 -4t-72 4l-41 287h-420l-137 -287q-29 -4 -67 -4t-78 8zM737 1245q-186 0 -250 118q-24 46 -24 118q33 6 63 6t60 -6q5 -61 28 -84q45 -43 107 -43q141 0 182 70q14 24 27 57
q34 6 66 6t63 -6q-57 -236 -322 -236z" />
    <glyph glyph-name="amacron.smcp" unicode="&#xf645;" horiz-adv-x="1021" 
d="M760 397l-82 561l-268 -561h350zM627 1118q28 4 85 4q56 0 74 -4l177 -1118q-20 -4 -72 -4t-72 4l-41 287h-420l-137 -287q-29 -4 -67 -4t-78 8zM412 1284q0 75 18 125h610q0 -76 -18 -125h-610z" />
    <glyph glyph-name="aogonek.smcp" unicode="&#xf646;" horiz-adv-x="1021" 
d="M760 406l-82 546l-264 -546h346zM627 1118q28 4 85 4q56 0 74 -4l177 -1118q-210 -179 -207 -293q0 -90 114 -90q58 0 109 16q19 -59 12 -106q-69 -21 -138 -22q-236 -4 -239 169q0 165 205 326l-41 287h-416q-32 -72 -68 -144t-69 -143q-75 -11 -149 4z" />
    <glyph glyph-name="agrave.smcp" unicode="&#xf647;" horiz-adv-x="1021" 
d="M760 397l-82 561l-268 -561h350zM627 1118q28 4 85 4q56 0 74 -4l177 -1118q-20 -4 -72 -4t-72 4l-41 287h-420l-137 -287q-29 -4 -67 -4t-78 8zM813 1247q-49 0 -82 6l-225 228q49 6 101 6t95 -6l189 -228q-29 -6 -78 -6z" />
    <glyph glyph-name="aacute.smcp" unicode="&#xf648;" horiz-adv-x="1021" 
d="M760 397l-82 561l-268 -561h350zM627 1118q28 4 85 4q56 0 74 -4l177 -1118q-20 -4 -72 -4t-72 4l-41 287h-420l-137 -287q-29 -4 -67 -4t-78 8zM842 1481q49 6 110 6t95 -6l-304 -228q-41 -6 -88 -6t-80 6z" />
    <glyph glyph-name="acircumflex.smcp" unicode="&#xf649;" horiz-adv-x="1021" 
d="M760 397l-82 561l-268 -561h350zM627 1118q28 4 85 4q56 0 74 -4l177 -1118q-20 -4 -72 -4t-72 4l-41 287h-420l-137 -287q-29 -4 -67 -4t-78 8zM736 1487q48 0 85 -6l176 -228q-37 -6 -71 -6t-78 6l-113 140l-172 -142q-25 -4 -49 -4h-41q-60 0 -84 6l273 228q26 6 74 6
z" />
    <glyph glyph-name="atilde.smcp" unicode="&#xf64a;" horiz-adv-x="1021" 
d="M760 397l-82 561l-268 -561h350zM627 1118q28 4 85 4q56 0 74 -4l177 -1118q-20 -4 -72 -4t-72 4l-41 287h-420l-137 -287q-29 -4 -67 -4t-78 8zM395 1395q92 92 175 92q83 1 138 -25q56 -26 90 -38t72 -11q38 0 62 11q25 11 63 44q42 -59 47 -86q-95 -90 -188 -90
q-62 0 -121 26t-92 36q-33 12 -71 12t-64 -14t-62 -41q-33 33 -49 84z" />
    <glyph glyph-name="adieresis.smcp" unicode="&#xf64b;" horiz-adv-x="1021" 
d="M760 397l-82 561l-268 -561h350zM627 1118q28 4 85 4q56 0 74 -4l177 -1118q-20 -4 -72 -4t-72 4l-41 287h-420l-137 -287q-29 -4 -67 -4t-78 8zM953 1442q46 0 89 -6q0 -95 -30 -183q-49 -6 -95 -6t-83 6q0 76 30 183q43 6 89 6zM531 1442q46 0 83 -6q0 -96 -30 -183
q-43 -6 -89 -6t-89 6q0 95 30 183q49 6 95 6z" />
    <glyph glyph-name="aring.smcp" unicode="&#xf64c;" horiz-adv-x="1021" 
d="M864 1341q0 125 -108 123q-66 0 -103 -43t-37 -102q0 -129 111 -129q63 0 100 45t37 106zM766 406l-82 546l-264 -546h346zM504 1293q0 115 73 189t184 76q111 0 165 -60t53 -146q0 -86 -49 -153t-135 -91l174 -1108q-20 -4 -72 -4t-72 4l-41 287h-415q-33 -72 -69 -144
t-69 -143q-29 -4 -69 -4t-80 8l545 1104q-59 23 -91 74t-32 111z" />
    <glyph glyph-name="cacute.smcp" unicode="&#xf64d;" horiz-adv-x="1042" 
d="M655 -18q-196 0 -315 112t-119 328q0 290 159 488q181 225 503 227q133 0 258 -43q-15 -74 -49 -111q-115 39 -238 39q-237 0 -364 -174t-125 -422q1 -160 83 -245t236 -85t268 54q27 -35 33 -105q-134 -63 -330 -63zM999 1481q49 6 111 6t94 -6l-303 -228q-41 -6 -88 -6
t-80 6z" />
    <glyph glyph-name="ccaron.smcp" unicode="&#xf64e;" horiz-adv-x="1042" 
d="M655 -18q-196 0 -315 112t-119 328q0 290 159 488q181 225 503 227q133 0 258 -43q-15 -74 -49 -111q-115 39 -238 39q-237 0 -364 -174t-125 -422q1 -160 83 -245t236 -85t268 54q27 -35 33 -105q-134 -63 -330 -63zM631 1481q37 6 81 6q43 0 76 -6l95 -138l164 138
q40 6 97 6t81 -6l-273 -228q-27 -6 -79 -6q-53 0 -80 6z" />
    <glyph glyph-name="cdotaccent.smcp" unicode="&#xf64f;" horiz-adv-x="1042" 
d="M655 -18q-196 0 -315 112t-119 328q0 290 159 488q181 225 503 227q133 0 258 -43q-15 -74 -49 -111q-115 39 -238 39q-237 0 -364 -174t-125 -422q1 -160 83 -245t236 -85t268 54q27 -35 33 -105q-134 -63 -330 -63zM914 1434q51 0 87 -4q-4 -89 -30 -183l-94 -2l-89 2
q3 71 29 183q46 4 97 4z" />
    <glyph glyph-name="ccircumflex.smcp" unicode="&#xf650;" horiz-adv-x="1042" 
d="M655 -18q-196 0 -315 112t-119 328q0 290 159 488q181 225 503 227q133 0 258 -43q-15 -74 -49 -111q-115 39 -238 39q-237 0 -364 -174t-125 -422q1 -160 83 -245t236 -85t268 54q27 -35 33 -105q-134 -63 -330 -63zM878 1487q48 0 85 -6l176 -228q-37 -6 -72 -6t-78 6
l-112 140l-172 -142q-25 -4 -50 -4h-41q-60 0 -84 6l273 228q27 6 75 6z" />
    <glyph glyph-name="ccedilla.smcp" unicode="&#xf651;" horiz-adv-x="1042" 
d="M854 1022q-237 0 -364 -174t-125 -422q1 -160 83 -245t236 -85t268 54q27 -35 33 -105q-102 -52 -264 -61l-62 -109q9 2 17 2h20q90 0 135 -47q45 -46 45 -108q1 -114 -76 -164q-78 -50 -192 -51q-113 -1 -192 38q12 68 39 101q84 -31 146 -31t88 11q52 22 52 81
q0 80 -131 80q-34 0 -106 -12l-8 8l110 203q-180 14 -282 126t-103 310q0 290 159 488q181 225 503 227q133 0 258 -43q-15 -74 -49 -111q-115 39 -238 39z" />
    <glyph glyph-name="dcaron.smcp" unicode="&#xf652;" horiz-adv-x="1208" 
d="M1049 653q0 187 -84 277t-306 90q-84 0 -157 -10l-160 -899q65 -9 183 -9t218 42t168 117q138 152 138 392zM653 1135q426 0 511 -277q26 -84 26 -198t-38 -237q-80 -262 -339 -381q-133 -60 -327 -60t-298 20l193 1116q195 17 272 17zM535 1481q37 6 80 6t77 -6l94 -138
l164 138q40 6 97 6t81 -6l-272 -228q-27 -6 -80 -6t-80 6z" />
    <glyph glyph-name="dcroat.smcp" unicode="&#xf653;" horiz-adv-x="1222" 
d="M1063 638q0 102 -17 170q-52 212 -372 212q-85 0 -158 -10l-67 -377h323q0 -74 -18 -121h-326l-72 -401q65 -9 183 -9q119 0 219 42q200 83 270 292q35 100 35 202zM150 512q0 66 18 121h141l86 485q196 17 312 17q117 0 220 -35q199 -67 252 -242q60 -195 -16 -446
q-77 -251 -338 -370q-133 -60 -327 -60t-295 20l88 510h-141z" />
    <glyph glyph-name="egrave.smcp" unicode="&#xf654;" horiz-adv-x="950" 
d="M852 651q0 -59 -21 -116h-407q-18 -109 -38 -210t-38 -208h520q-12 -74 -26 -117h-654l195 1118h659q0 -65 -18 -117h-520l-62 -350h410zM769 1247q-48 0 -81 6l-225 228q49 6 101 6t95 -6l189 -228q-31 -6 -79 -6z" />
    <glyph glyph-name="eacute.smcp" unicode="&#xf655;" horiz-adv-x="950" 
d="M852 651q0 -59 -21 -116h-407q-18 -109 -38 -210t-38 -208h520q-12 -74 -26 -117h-654l195 1118h659q0 -65 -18 -117h-520l-62 -350h410zM870 1481q49 6 111 6t94 -6l-303 -228q-41 -6 -88 -6t-80 6z" />
    <glyph glyph-name="ecircumflex.smcp" unicode="&#xf656;" horiz-adv-x="950" 
d="M852 651q0 -59 -21 -116h-407q-18 -109 -38 -210t-38 -208h520q-12 -74 -26 -117h-654l195 1118h659q0 -65 -18 -117h-520l-62 -350h410zM759 1487q48 0 85 -6l176 -228q-37 -6 -72 -6t-78 6l-112 140l-172 -142q-26 -4 -50 -4h-40q-60 0 -84 6l272 228q27 6 75 6z" />
    <glyph glyph-name="edieresis.smcp" unicode="&#xf657;" horiz-adv-x="950" 
d="M852 651q0 -59 -21 -116h-407q-18 -109 -38 -210t-38 -208h520q-12 -74 -26 -117h-654l195 1118h659q0 -65 -18 -117h-520l-62 -350h410zM974 1442q46 0 89 -6q0 -98 -31 -183q-49 -6 -95 -6t-83 6q0 80 31 183q43 6 89 6zM552 1442q46 0 83 -6q0 -96 -31 -183
q-43 -6 -89 -6t-89 6q0 98 31 183q49 6 95 6z" />
    <glyph glyph-name="ecaron.smcp" unicode="&#xf658;" horiz-adv-x="950" 
d="M852 651q0 -59 -21 -116h-407q-18 -109 -38 -210t-38 -208h520q-12 -74 -26 -117h-654l195 1118h659q0 -65 -18 -117h-520l-62 -350h410zM508 1481q37 6 81 6t77 -6l94 -138l164 138q41 6 97 6q57 0 81 -6l-273 -228q-27 -6 -79 -6t-80 6z" />
    <glyph glyph-name="edotaccent.smcp" unicode="&#xf659;" horiz-adv-x="950" 
d="M852 651q0 -59 -21 -116h-407q-18 -109 -38 -210t-38 -208h520q-12 -74 -26 -117h-654l195 1118h659q0 -65 -18 -117h-520l-62 -350h410zM773 1434q51 0 87 -4q-4 -94 -31 -183l-94 -2l-88 2q3 71 29 183q46 4 97 4z" />
    <glyph glyph-name="emacron.smcp" unicode="&#xf65a;" horiz-adv-x="950" 
d="M852 651q0 -59 -21 -116h-407q-18 -109 -38 -210t-38 -208h520q-12 -74 -26 -117h-654l195 1118h659q0 -65 -18 -117h-520l-62 -350h410zM424 1284q0 75 18 125h611q0 -78 -19 -125h-610z" />
    <glyph glyph-name="eogonek.smcp" unicode="&#xf65b;" horiz-adv-x="950" 
d="M387 -326q0 130 134 260q38 37 79 66h-412l195 1118h659q0 -65 -18 -117h-520l-62 -350h410q0 -59 -21 -116h-407q-18 -109 -38 -210t-38 -208h520q-12 -74 -26 -117h-107q-207 -176 -207 -293q0 -90 115 -90q56 0 109 16q19 -59 12 -106q-69 -21 -138 -22
q-239 -4 -239 169z" />
    <glyph glyph-name="ebreve.smcp" unicode="&#xf65c;" horiz-adv-x="950" 
d="M852 651q0 -59 -21 -116h-407q-18 -109 -38 -210t-38 -208h520q-12 -74 -26 -117h-654l195 1118h659q0 -65 -18 -117h-520l-62 -350h410zM528 1487q30 0 60 -6q5 -61 28 -84q45 -43 107 -43q141 0 182 70q14 24 27 57q34 6 66 6t63 -6q-57 -236 -322 -236
q-186 0 -250 118q-24 46 -24 118q33 6 63 6z" />
    <glyph glyph-name="gbreve.smcp" unicode="&#xf65d;" horiz-adv-x="1163" 
d="M692 96q104 0 189 31q20 115 42 229t42 232q10 2 40 2h59q29 0 42 -2l-100 -537l-2 -4q-137 -65 -341 -65t-323 114t-119 332q0 285 156 482q178 225 491 227q152 0 273 -39q-12 -70 -51 -111q-98 35 -226 35q-243 0 -372 -172t-127 -408q0 -174 84 -260t243 -86z
M860 1245q-186 0 -250 118q-24 46 -24 118q32 6 62 6t61 -6q4 -60 27 -83q44 -44 126 -44q123 0 164 70q14 24 27 57q33 6 65 6t64 -6q-57 -236 -322 -236z" />
    <glyph glyph-name="gcommaaccent.smcp" unicode="&#xf65e;" horiz-adv-x="1163" 
d="M692 96q104 0 189 31q20 115 42 229t42 232q10 2 40 2h59q29 0 42 -2l-100 -537l-2 -4q-137 -65 -341 -65t-323 114t-119 332q0 285 156 482q178 225 491 227q152 0 273 -39q-12 -70 -51 -111q-98 35 -226 35q-243 0 -372 -172t-127 -408q0 -174 84 -260t243 -86z
M571 -131q24 6 75 6t85 -6l-182 -361q-35 -6 -69 -6t-66 6z" />
    <glyph glyph-name="gdotaccent.smcp" unicode="&#xf65f;" horiz-adv-x="1163" 
d="M692 96q104 0 189 31q20 115 42 229t42 232q10 2 40 2h59q29 0 42 -2l-100 -537l-2 -4q-137 -65 -341 -65t-323 114t-119 332q0 285 156 482q178 225 491 227q152 0 273 -39q-12 -70 -51 -111q-98 35 -226 35q-243 0 -372 -172t-127 -408q0 -174 84 -260t243 -86z
M902 1434q51 0 87 -4q-4 -94 -31 -183l-94 -2l-88 2q3 71 29 183q46 4 97 4z" />
    <glyph glyph-name="gcircumflex.smcp" unicode="&#xf660;" horiz-adv-x="1163" 
d="M692 96q104 0 189 31q20 115 42 229t42 232q10 2 40 2h59q29 0 42 -2l-100 -537l-2 -4q-137 -65 -341 -65t-323 114t-119 332q0 285 156 482q178 225 491 227q152 0 273 -39q-12 -70 -51 -111q-98 35 -226 35q-243 0 -372 -172t-127 -408q0 -174 84 -260t243 -86z
M888 1487q48 0 85 -6l176 -228q-37 -6 -72 -6t-78 6l-112 140l-172 -142q-25 -4 -49 -4h-41q-60 0 -84 6l272 228q27 6 75 6z" />
    <glyph glyph-name="hcircumflex.smcp" unicode="&#xf661;" horiz-adv-x="1255" 
d="M403 1122q40 0 76 -6l-78 -465h519l79 467q19 4 61 4t79 -6l-197 -1116q-20 -4 -70 -4t-67 6l94 533h-518l-94 -535q-20 -4 -70 -4t-65 6l192 1116q19 4 59 4zM790 1487q48 0 84 -6l177 -228q-37 -6 -72 -6t-78 6l-113 140l-172 -142q-26 -4 -50 -4h-40q-60 0 -84 6
l273 228q27 6 75 6z" />
    <glyph glyph-name="igrave.smcp" unicode="&#xf662;" horiz-adv-x="514" 
d="M383 1118q21 4 67 4q47 0 70 -4l-196 -1118q-32 -6 -80 -4t-58 6zM563 1247q-49 0 -82 6l-225 228q49 6 101 6t96 -6l188 -228q-29 -6 -78 -6z" />
    <glyph glyph-name="iacute.smcp" unicode="&#xf663;" horiz-adv-x="514" 
d="M383 1118q21 4 67 4q47 0 70 -4l-196 -1118q-32 -6 -80 -4t-58 6zM596 1481q49 6 111 6t94 -6l-303 -228q-40 -6 -88 -6t-80 6z" />
    <glyph glyph-name="icircumflex.smcp" unicode="&#xf664;" horiz-adv-x="514" 
d="M383 1118q21 4 67 4q47 0 70 -4l-196 -1118q-32 -6 -80 -4t-58 6zM495 1487q48 0 85 -6l176 -228q-37 -6 -72 -6t-78 6l-112 140l-172 -142q-25 -4 -50 -4h-41q-60 0 -84 6l273 228q27 6 75 6z" />
    <glyph glyph-name="idieresis.smcp" unicode="&#xf665;" horiz-adv-x="514" 
d="M383 1118q21 4 67 4q47 0 70 -4l-196 -1118q-32 -6 -80 -4t-58 6zM718 1442q46 0 89 -6q0 -98 -31 -183q-49 -6 -95 -6t-83 6q0 80 31 183q43 6 89 6zM296 1442q46 0 83 -6q0 -96 -31 -183q-43 -6 -89 -6t-89 6q0 98 31 183q49 6 95 6z" />
    <glyph glyph-name="imacron.smcp" unicode="&#xf666;" horiz-adv-x="514" 
d="M383 1118q21 4 67 4q47 0 70 -4l-196 -1118q-32 -6 -80 -4t-58 6zM152 1284q0 75 18 125h610q0 -76 -18 -125h-610z" />
    <glyph glyph-name="iogonek.smcp" unicode="&#xf667;" horiz-adv-x="514" 
d="M383 1118q21 4 67 4q47 0 70 -4l-196 -1118q-210 -179 -207 -293q0 -90 114 -90q58 0 109 16q19 -59 12 -106q-69 -21 -138 -22q-113 -2 -175 38q-62 39 -64 131q0 164 211 328z" />
    <glyph glyph-name="itilde.smcp" unicode="&#xf668;" horiz-adv-x="514" 
d="M383 1118q21 4 67 4q47 0 70 -4l-196 -1118q-32 -6 -80 -4t-58 6zM170 1395q92 92 173 92q81 1 139 -25q56 -26 90 -38t72 -11q38 0 63 11t63 44q42 -59 47 -86q-95 -90 -188 -90q-61 0 -121 26t-92 36q-32 12 -71 12t-65 -14t-61 -41q-36 36 -49 84z" />
    <glyph glyph-name="ibreve.smcp" unicode="&#xf669;" horiz-adv-x="514" 
d="M383 1118q21 4 67 4q47 0 70 -4l-196 -1118q-32 -6 -80 -4t-58 6zM485 1245q-187 0 -249 118q-25 46 -25 118q33 6 63 6t60 -6q5 -61 28 -84q45 -43 107 -43q141 0 182 70q14 24 27 57q34 6 66 6t63 -6q-57 -236 -322 -236z" />
    <glyph glyph-name="jcircumflex.smcp" unicode="&#xf66a;" horiz-adv-x="686" 
d="M245 92q50 0 99 31t66 123l133 758h-209q2 72 14 114h350l-153 -891q-43 -249 -302 -251q-117 0 -180 32q3 56 33 111q23 -7 61 -17t88 -10zM610 1487q48 0 84 -6l176 -228q-38 -6 -72 -6t-77 6l-113 140l-172 -142q-26 -4 -50 -4h-40q-60 0 -84 6l273 228q28 6 75 6z
" />
    <glyph glyph-name="kcommaaccent.smcp" unicode="&#xf66b;" horiz-adv-x="1017" 
d="M989 0q-31 -4 -79 -4t-76 4l-347 573l488 545q28 4 73 4t80 -6l-477 -538zM383 1118q20 4 64 4t71 -4l-192 -1118q-20 -4 -70 -4t-66 6zM500 -131q24 6 74 6t85 -6l-182 -361q-35 -6 -69 -6t-66 6z" />
    <glyph glyph-name="lacute.smcp" unicode="&#xf66c;" horiz-adv-x="878" 
d="M385 1118q20 4 67 4t72 -4l-176 -1001h488q-4 -65 -21 -117h-629zM580 1481q49 6 110 6t94 -6l-303 -228q-41 -6 -88 -6t-80 6z" />
    <glyph glyph-name="lcaron.smcp" unicode="&#xf66d;" horiz-adv-x="878" 
d="M385 1118q20 4 67 4t72 -4l-176 -1001h488q-4 -65 -21 -117h-629zM733 1120q24 4 67 4t77 -4l-86 -413q-69 -12 -129 0z" />
    <glyph glyph-name="lcommaaccent.smcp" unicode="&#xf66e;" horiz-adv-x="878" 
d="M385 1118q20 4 67 4t72 -4l-176 -1001h488q-4 -65 -21 -117h-629zM430 -131q24 6 75 6t85 -6l-182 -361q-35 -6 -69 -6t-67 6z" />
    <glyph glyph-name="ldot.smcp" unicode="&#xf66f;" horiz-adv-x="878" 
d="M385 1118q20 4 67 4t72 -4l-176 -1001h488q-4 -65 -21 -117h-629zM804 659q51 0 87 -4q-4 -92 -31 -182l-94 -2l-88 2q3 70 29 182q46 4 97 4z" />
    <glyph glyph-name="nacute.smcp" unicode="&#xf670;" horiz-adv-x="1196" 
d="M486 1122q28 0 38 -2l379 -897l154 897q9 2 37 2h54q26 0 44 -4l-195 -1118q-19 -4 -69 -4q-49 0 -72 4l-379 893q-37 -223 -77 -447t-76 -446q-24 -4 -60 -4t-74 8l195 1116q12 2 43 2h58zM950 1481q48 6 110 6t95 -6l-303 -228q-41 -6 -88 -6t-80 6z" />
    <glyph glyph-name="napostrophe.smcp" unicode="&#xf671;" horiz-adv-x="1232" 
d="M524 1122q28 0 37 -2l379 -897l154 897q10 2 38 2h52q26 0 45 -4l-195 -1118q-20 -4 -70 -4t-71 4l-379 893q-37 -223 -77 -447t-77 -446q-24 -4 -60 -4t-73 8l195 1116q12 2 43 2h59zM290 1114h-28q-31 0 -63 4l145 344l72 4q52 0 82 -6l-174 -342q-20 -4 -34 -4z" />
    <glyph glyph-name="ntilde.smcp" unicode="&#xf672;" horiz-adv-x="1196" 
d="M486 1122q28 0 38 -2l379 -897l154 897q9 2 37 2h54q26 0 44 -4l-195 -1118q-19 -4 -69 -4q-49 0 -72 4l-379 893q-37 -223 -77 -447t-76 -446q-24 -4 -60 -4t-74 8l195 1116q12 2 43 2h58zM506 1395q92 92 173 92q81 1 139 -25q56 -26 90 -38t72 -11q38 0 62 11t64 44
q42 -59 47 -86q-95 -90 -188 -90q-61 0 -121 26t-92 36q-32 12 -71 12t-65 -14t-61 -41q-36 36 -49 84z" />
    <glyph glyph-name="ncaron.smcp" unicode="&#xf673;" horiz-adv-x="1196" 
d="M486 1122q28 0 38 -2l379 -897l154 897q9 2 37 2h54q26 0 44 -4l-195 -1118q-19 -4 -69 -4q-49 0 -72 4l-379 893q-37 -223 -77 -447t-76 -446q-24 -4 -60 -4t-74 8l195 1116q12 2 43 2h58zM582 1481q37 6 81 6t76 -6l95 -138l163 138q40 6 98 6q57 0 81 -6l-273 -228
q-27 -6 -80 -6t-80 6z" />
    <glyph glyph-name="ncommaaccent.smcp" unicode="&#xf674;" horiz-adv-x="1196" 
d="M486 1122q28 0 38 -2l379 -897l154 897q9 2 37 2h54q26 0 44 -4l-195 -1118q-19 -4 -69 -4q-49 0 -72 4l-379 893q-37 -223 -77 -447t-76 -446q-24 -4 -60 -4t-74 8l195 1116q12 2 43 2h58zM543 -131q24 6 74 6t85 -6l-182 -361q-34 -6 -68 -6t-67 6z" />
    <glyph glyph-name="ograve.smcp" unicode="&#xf675;" horiz-adv-x="1247" 
d="M612 98q96 0 180 49q168 99 240 330q35 113 35 209t-15 153q-48 181 -252 181t-330 -177t-126 -442q0 -139 64 -221t204 -82zM616 -18q-210 0 -313 113q-102 113 -101 281q1 169 44 304q88 276 316 397q114 59 232 59q211 1 315 -114q103 -116 102 -285q-1 -168 -45 -304
t-125 -236q-81 -99 -195 -157q-112 -58 -230 -58zM915 1247q-48 0 -81 6l-226 228q50 6 102 6t95 -6l188 -228q-30 -6 -78 -6z" />
    <glyph glyph-name="oacute.smcp" unicode="&#xf676;" horiz-adv-x="1247" 
d="M612 98q96 0 180 49q168 99 240 330q35 113 35 209t-15 153q-48 181 -252 181t-330 -177t-126 -442q0 -139 64 -221t204 -82zM616 -18q-210 0 -313 113q-102 113 -101 281q1 169 44 304q88 276 316 397q114 59 232 59q211 1 315 -114q103 -116 102 -285q-1 -168 -45 -304
t-125 -236q-81 -99 -195 -157q-112 -58 -230 -58zM920 1481q49 6 110 6t94 -6l-303 -228q-41 -6 -88 -6t-80 6z" />
    <glyph glyph-name="ocircumflex.smcp" unicode="&#xf677;" horiz-adv-x="1247" 
d="M612 98q96 0 180 49q168 99 240 330q35 113 35 209t-15 153q-48 181 -252 181t-330 -177t-126 -442q0 -139 64 -221t204 -82zM616 -18q-210 0 -313 113q-102 113 -101 281q1 169 44 304q88 276 316 397q114 59 232 59q211 1 315 -114q103 -116 102 -285q-1 -168 -45 -304
t-125 -236q-81 -99 -195 -157q-112 -58 -230 -58zM855 1487q48 0 85 -6l176 -228q-37 -6 -72 -6t-77 6l-113 140l-172 -142q-26 -4 -50 -4h-40q-60 0 -84 6l272 228q27 6 75 6z" />
    <glyph glyph-name="otilde.smcp" unicode="&#xf678;" horiz-adv-x="1247" 
d="M612 98q96 0 180 49q168 99 240 330q35 113 35 209t-15 153q-48 181 -252 181t-330 -177t-126 -442q0 -139 64 -221t204 -82zM616 -18q-210 0 -313 113q-102 113 -101 281q1 169 44 304q88 276 316 397q114 59 232 59q211 1 315 -114q103 -116 102 -285q-1 -168 -45 -304
t-125 -236q-81 -99 -195 -157q-112 -58 -230 -58zM528 1395q92 92 175 92q83 1 138 -25q56 -26 90 -38t72 -11q39 0 63 11t62 44q42 -59 48 -86q-95 -90 -189 -90q-62 0 -121 26t-92 36q-33 12 -71 12t-64 -14t-61 -41q-34 34 -50 84z" />
    <glyph glyph-name="odieresis.smcp" unicode="&#xf679;" horiz-adv-x="1247" 
d="M612 98q96 0 180 49q168 99 240 330q35 113 35 209t-15 153q-48 181 -252 181t-330 -177t-126 -442q0 -139 64 -221t204 -82zM616 -18q-210 0 -313 113q-102 113 -101 281q1 169 44 304q88 276 316 397q114 59 232 59q211 1 315 -114q103 -116 102 -285q-1 -168 -45 -304
t-125 -236q-81 -99 -195 -157q-112 -58 -230 -58zM1080 1442q46 0 89 -6q0 -95 -30 -183q-49 -6 -95 -6t-83 6q0 76 30 183q43 6 89 6zM658 1442q46 0 83 -6q0 -96 -30 -183q-43 -6 -89 -6t-90 6q0 92 31 183q49 6 95 6z" />
    <glyph glyph-name="ohungarumlaut.smcp" unicode="&#xf67a;" horiz-adv-x="1247" 
d="M612 98q96 0 180 49q168 99 240 330q35 113 35 209t-15 153q-48 181 -252 181t-330 -177t-126 -442q0 -139 64 -221t204 -82zM616 -18q-210 0 -313 113q-102 113 -101 281q1 169 44 304q88 276 316 397q114 59 232 59q211 1 315 -114q103 -116 102 -285q-1 -168 -45 -304
t-125 -236q-81 -99 -195 -157q-112 -58 -230 -58zM1144 1489h46q52 0 96 -4l-244 -234q-37 -6 -78 -6t-77 6l209 234q24 4 48 4zM798 1489h46q52 0 96 -4l-244 -234q-37 -6 -78 -6t-77 6l209 234q24 4 48 4z" />
    <glyph glyph-name="omacron.smcp" unicode="&#xf67b;" horiz-adv-x="1247" 
d="M612 98q96 0 180 49q168 99 240 330q35 113 35 209t-15 153q-48 181 -252 181t-330 -177t-126 -442q0 -139 64 -221t204 -82zM616 -18q-210 0 -313 113q-102 113 -101 281q1 169 44 304q88 276 316 397q114 59 232 59q211 1 315 -114q103 -116 102 -285q-1 -168 -45 -304
t-125 -236q-81 -99 -195 -157q-112 -58 -230 -58zM571 1284q0 77 19 125h610q0 -76 -18 -125h-611z" />
    <glyph glyph-name="obreve.smcp" unicode="&#xf67c;" horiz-adv-x="1247" 
d="M612 98q96 0 180 49q168 99 240 330q35 113 35 209t-15 153q-48 181 -252 181t-330 -177t-126 -442q0 -139 64 -221t204 -82zM616 -18q-210 0 -313 113q-102 113 -101 281q1 169 44 304q88 276 316 397q114 59 232 59q211 1 315 -114q103 -116 102 -285q-1 -168 -45 -304
t-125 -236q-81 -99 -195 -157q-112 -58 -230 -58zM885 1245q-188 0 -250 118q-25 46 -25 118q33 6 63 6t60 -6q5 -61 28 -84q45 -43 126 -43q123 0 164 70q14 24 26 57q33 6 66 6t63 -6q-57 -236 -321 -236z" />
    <glyph glyph-name="racute.smcp" unicode="&#xf67d;" horiz-adv-x="1007" 
d="M639 1026q-86 0 -137 -6l-176 -1020q-20 -4 -62 -4t-76 8l197 1120q185 13 257 13q160 0 264 -68t104 -207q0 -140 -102 -249q-65 -68 -208 -134l250 -475q-47 -8 -77 -8h-48q-18 0 -32 4l-277 528l78 31q113 46 175 95q99 80 97 190q0 182 -227 182zM840 1481
q49 6 110 6t94 -6l-303 -228q-41 -6 -88 -6t-80 6z" />
    <glyph glyph-name="rcaron.smcp" unicode="&#xf67e;" horiz-adv-x="1007" 
d="M639 1026q-86 0 -137 -6l-176 -1020q-20 -4 -62 -4t-76 8l197 1120q185 13 257 13q160 0 264 -68t104 -207q0 -140 -102 -249q-65 -68 -208 -134l250 -475q-47 -8 -77 -8h-48q-18 0 -32 4l-277 528l78 31q113 46 175 95q99 80 97 190q0 182 -227 182zM463 1481q37 6 80 6
t78 -6l94 -138l164 138q40 6 97 6t81 -6l-273 -228q-28 -6 -80 -6t-79 6z" />
    <glyph glyph-name="rcommaaccent.smcp" unicode="&#xf67f;" horiz-adv-x="1007" 
d="M639 1026q-86 0 -137 -6l-176 -1020q-20 -4 -62 -4t-76 8l197 1120q185 13 257 13q160 0 264 -68t104 -207q0 -140 -102 -249q-65 -68 -208 -134l250 -475q-47 -8 -77 -8h-48q-18 0 -32 4l-277 528l78 31q113 46 175 95q99 80 97 190q0 182 -227 182zM477 -131q24 6 75 6
t85 -6l-182 -361q-35 -6 -69 -6t-67 6z" />
    <glyph glyph-name="sacute.smcp" unicode="&#xf680;" horiz-adv-x="952" 
d="M571 527q-160 73 -206 116t-66 85t-20 99q0 137 109 224q110 86 302 86q139 0 277 -45q-18 -73 -47 -119q-116 51 -237 51q-119 0 -191 -45t-72 -119t47 -120t159 -97t183 -119q72 -68 72 -166q0 -184 -129 -281t-338 -95q-98 0 -186 18t-130 37q17 56 52 113
q66 -18 126 -34t134 -16q166 0 244 64t77 176q0 114 -160 187zM836 1481q49 6 110 6t94 -6l-303 -228q-41 -6 -88 -6t-80 6z" />
    <glyph glyph-name="scommaaccent.smcp" unicode="&#xf681;" horiz-adv-x="952" 
d="M571 527q-160 73 -206 116t-66 85t-20 99q0 137 109 224q110 86 302 86q139 0 277 -45q-18 -73 -47 -119q-116 51 -237 51q-119 0 -191 -45t-72 -119t47 -120t159 -97t183 -119q72 -68 72 -166q0 -184 -129 -281t-338 -95q-98 0 -186 18t-130 37q17 56 52 113
q66 -18 126 -34t134 -16q166 0 244 64t77 176q0 114 -160 187zM426 -131q24 6 75 6t85 -6l-183 -361q-35 -6 -69 -6t-66 6z" />
    <glyph glyph-name="scedilla.smcp" unicode="&#xf682;" horiz-adv-x="952" 
d="M424 -213q-32 0 -107 -12l-8 8l111 199h-6q-98 0 -186 18t-130 37q18 61 52 113q66 -18 126 -34t134 -16q166 0 244 64t77 168q0 121 -160 195q-160 73 -206 116t-66 85t-20 99q0 137 109 224q110 86 302 86q139 0 277 -45q-18 -73 -47 -119q-116 51 -237 51
q-119 0 -191 -45t-72 -119t47 -120t159 -97t183 -119q72 -68 72 -174q-1 -152 -95 -242t-245 -116l-68 -117q10 2 17 2h20q90 0 135 -47q45 -46 45 -108q0 -116 -84 -168q-71 -46 -183 -47t-194 38q11 66 39 101q84 -31 146 -31t89 11q52 22 52 81q0 80 -131 80z" />
    <glyph glyph-name="scaron.smcp" unicode="&#xf683;" horiz-adv-x="952" 
d="M571 527q-160 73 -206 116t-66 85t-20 99q0 137 109 224q110 86 302 86q139 0 277 -45q-18 -73 -47 -119q-116 51 -237 51q-119 0 -191 -45t-72 -119t47 -120t159 -97t183 -119q72 -68 72 -166q0 -184 -129 -281t-338 -95q-98 0 -186 18t-130 37q17 56 52 113
q66 -18 126 -34t134 -16q166 0 244 64t77 176q0 114 -160 187zM475 1481q37 6 81 6t77 -6l94 -138l164 138q40 6 97 6t81 -6l-272 -228q-27 -6 -80 -6t-80 6z" />
    <glyph glyph-name="scircumflex.smcp" unicode="&#xf684;" horiz-adv-x="952" 
d="M571 527q-160 73 -206 116t-66 85t-20 99q0 137 109 224q110 86 302 86q139 0 277 -45q-18 -73 -47 -119q-116 51 -237 51q-119 0 -191 -45t-72 -119t47 -120t159 -97t183 -119q72 -68 72 -166q0 -184 -129 -281t-338 -95q-98 0 -186 18t-130 37q17 56 52 113
q66 -18 126 -34t134 -16q166 0 244 64t77 176q0 114 -160 187zM736 1487q48 0 85 -6l176 -228q-37 -6 -71 -6t-78 6l-113 140l-172 -142q-25 -4 -49 -4h-41q-60 0 -84 6l273 228q26 6 74 6z" />
    <glyph glyph-name="tcaron.smcp" unicode="&#xf685;" horiz-adv-x="876" 
d="M225 1001q0 58 19 117h755q0 -61 -18 -117h-307l-174 -1001q-24 -4 -73 -4t-65 6l175 999h-312zM414 1481q37 6 80 6t77 -6l95 -138l163 138q40 6 98 6q57 0 81 -6l-273 -228q-27 -6 -80 -6t-80 6z" />
    <glyph glyph-name="uni021B.smcp" unicode="&#xf686;" horiz-adv-x="876" 
d="M225 1001q0 58 19 117h755q0 -61 -18 -117h-307l-174 -1001q-24 -4 -73 -4t-65 6l175 999h-312zM328 -131q24 6 74 6t85 -6l-182 -361q-35 -6 -69 -6t-66 6z" />
    <glyph glyph-name="tcommaaccent.smcp" unicode="&#xf687;" horiz-adv-x="876" 
d="M225 1001q0 58 19 117h755q0 -61 -18 -117h-307l-174 -1001q-24 -4 -73 -4t-65 6l175 999h-312zM334 -131q24 6 75 6t85 -6l-183 -361q-35 -6 -69 -6t-66 6z" />
    <glyph glyph-name="uhungarumlaut.smcp" unicode="&#xf688;" horiz-adv-x="1196" 
d="M385 268q1 -166 199 -166q98 0 154 20q110 40 160 170q26 65 42 154l119 672q25 4 67 4q43 0 68 -4l-125 -712q-35 -205 -151 -315t-336 -109q-332 0 -332 297q0 69 14 155l121 684q24 4 57 4t47 -2t31 -4l-117 -674q-18 -93 -18 -174zM1135 1489h47q52 0 96 -4
l-244 -234q-37 -6 -78 -6t-77 6l208 234q23 4 48 4zM788 1489h48q52 0 96 -4l-244 -234q-37 -6 -78 -6t-78 6l209 234q23 4 47 4z" />
    <glyph glyph-name="ugrave.smcp" unicode="&#xf689;" horiz-adv-x="1196" 
d="M385 268q1 -166 199 -166q98 0 154 20q110 40 160 170q26 65 42 154l119 672q25 4 67 4q43 0 68 -4l-125 -712q-35 -205 -151 -315t-336 -109q-332 0 -332 297q0 69 14 155l121 684q24 4 57 4t47 -2t31 -4l-117 -674q-18 -93 -18 -174zM872 1247q-48 0 -81 6l-226 228
q49 6 101 6t96 -6l188 -228q-30 -6 -78 -6z" />
    <glyph glyph-name="uacute.smcp" unicode="&#xf68a;" horiz-adv-x="1196" 
d="M385 268q1 -166 199 -166q98 0 154 20q110 40 160 170q26 65 42 154l119 672q25 4 67 4q43 0 68 -4l-125 -712q-35 -205 -151 -315t-336 -109q-332 0 -332 297q0 69 14 155l121 684q24 4 57 4t47 -2t31 -4l-117 -674q-18 -93 -18 -174zM967 1481q49 6 110 6t94 -6
l-303 -228q-41 -6 -88 -6t-80 6z" />
    <glyph glyph-name="ucircumflex.smcp" unicode="&#xf68b;" horiz-adv-x="1196" 
d="M385 268q1 -166 199 -166q98 0 154 20q110 40 160 170q26 65 42 154l119 672q25 4 67 4q43 0 68 -4l-125 -712q-35 -205 -151 -315t-336 -109q-332 0 -332 297q0 69 14 155l121 684q24 4 57 4t47 -2t31 -4l-117 -674q-18 -93 -18 -174zM835 1487q48 0 85 -6l176 -228
q-37 -6 -72 -6t-78 6l-112 140l-172 -142q-25 -4 -50 -4h-41q-60 0 -84 6l273 228q27 6 75 6z" />
    <glyph glyph-name="udieresis.smcp" unicode="&#xf68c;" horiz-adv-x="1196" 
d="M385 268q1 -166 199 -166q98 0 154 20q110 40 160 170q26 65 42 154l119 672q25 4 67 4q43 0 68 -4l-125 -712q-35 -205 -151 -315t-336 -109q-332 0 -332 297q0 69 14 155l121 684q24 4 57 4t47 -2t31 -4l-117 -674q-18 -93 -18 -174zM1046 1442q46 0 89 -6
q0 -92 -31 -183q-49 -6 -95 -6t-83 6q0 76 30 183q44 6 90 6zM623 1442q46 0 84 -6q0 -96 -31 -183q-43 -6 -89 -6t-89 6q0 95 30 183q49 6 95 6z" />
    <glyph glyph-name="umacron.smcp" unicode="&#xf68d;" horiz-adv-x="1196" 
d="M385 268q1 -166 199 -166q98 0 154 20q110 40 160 170q26 65 42 154l119 672q25 4 67 4q43 0 68 -4l-125 -712q-35 -205 -151 -315t-336 -109q-332 0 -332 297q0 69 14 155l121 684q24 4 57 4t47 -2t31 -4l-117 -674q-18 -93 -18 -174zM504 1284q0 75 18 125h611
q0 -74 -19 -125h-610z" />
    <glyph glyph-name="uogonek.smcp" unicode="&#xf68e;" horiz-adv-x="1196" 
d="M385 268q1 -166 199 -166q98 0 154 20q110 40 160 170q26 65 42 154l119 672q25 4 67 4q43 0 68 -4l-125 -712q-39 -229 -187 -341q-50 -39 -100 -63t-89 -56q-92 -74 -135 -156q-24 -44 -23 -83q0 -90 114 -90q56 0 109 16q19 -59 12 -106q-69 -21 -138 -22
q-236 -4 -239 169q0 88 58 168q57 80 131 140q-332 0 -332 297q0 69 14 155l121 684q24 4 57 4t47 -2t31 -4l-117 -674q-18 -93 -18 -174z" />
    <glyph glyph-name="uring.smcp" unicode="&#xf68f;" horiz-adv-x="1196" 
d="M385 268q1 -166 199 -166q98 0 154 20q110 40 160 170q26 65 42 154l119 672q25 4 67 4q43 0 68 -4l-125 -712q-35 -205 -151 -315t-336 -109q-332 0 -332 297q0 69 14 155l121 684q24 4 57 4t47 -2t31 -4l-117 -674q-18 -93 -18 -174zM600 1344q0 124 67 197t172 74
t157 -59t52 -128q1 -121 -66 -195q-68 -74 -172 -75q-105 -1 -158 57q-52 59 -52 129zM813 1249q59 0 91 43q32 44 32 102q0 130 -98 130q-60 0 -94 -43t-33 -109q0 -123 102 -123z" />
    <glyph glyph-name="utilde.smcp" unicode="&#xf690;" horiz-adv-x="1196" 
d="M385 268q1 -166 199 -166q98 0 154 20q110 40 160 170q26 65 42 154l119 672q25 4 67 4q43 0 68 -4l-125 -712q-35 -205 -151 -315t-336 -109q-332 0 -332 297q0 69 14 155l121 684q24 4 57 4t47 -2t31 -4l-117 -674q-18 -93 -18 -174zM498 1395q92 92 173 92
q81 1 139 -25q56 -26 90 -38t72 -11q38 0 62 11t64 44q41 -57 47 -86q-95 -90 -189 -90q-60 0 -120 26t-93 36q-33 12 -71 12t-64 -14t-61 -41q-36 36 -49 84z" />
    <glyph glyph-name="ubreve.smcp" unicode="&#xf691;" horiz-adv-x="1196" 
d="M385 268q1 -166 199 -166q98 0 154 20q110 40 160 170q26 65 42 154l119 672q25 4 67 4q43 0 68 -4l-125 -712q-35 -205 -151 -315t-336 -109q-332 0 -332 297q0 69 14 155l121 684q24 4 57 4t47 -2t31 -4l-117 -674q-18 -93 -18 -174zM836 1245q-188 0 -250 118
q-25 46 -25 118q33 6 63 6t60 -6q5 -61 28 -84t52 -33t74 -10q125 0 163 70q14 24 27 57q33 6 66 6t63 -6q-57 -236 -321 -236z" />
    <glyph glyph-name="wgrave.smcp" unicode="&#xf692;" horiz-adv-x="1529" 
d="M270 1118q20 4 70 4t72 -4l34 -930l422 930q20 4 76 4t76 -4l84 -934l377 934q24 4 59 4t53 -2t37 -4l-477 -1116q-24 -4 -85 -4t-81 4l-80 913l-409 -913q-24 -4 -91 -4t-81 4zM1074 1247q-48 0 -81 6l-225 228q49 6 101 6t96 -6l188 -228q-31 -6 -79 -6z" />
    <glyph glyph-name="wacute.smcp" unicode="&#xf693;" horiz-adv-x="1529" 
d="M270 1118q20 4 70 4t72 -4l34 -930l422 930q20 4 76 4t76 -4l84 -934l377 934q24 4 59 4t53 -2t37 -4l-477 -1116q-24 -4 -85 -4t-81 4l-80 913l-409 -913q-24 -4 -91 -4t-81 4zM1067 1481q49 6 111 6q61 0 94 -6l-303 -228q-41 -6 -89 -6t-79 6z" />
    <glyph glyph-name="wcircumflex.smcp" unicode="&#xf694;" horiz-adv-x="1529" 
d="M270 1118q20 4 70 4t72 -4l34 -930l422 930q20 4 76 4t76 -4l84 -934l377 934q24 4 59 4t53 -2t37 -4l-477 -1116q-24 -4 -85 -4t-81 4l-80 913l-409 -913q-24 -4 -91 -4t-81 4zM986 1487q48 0 85 -6l176 -228q-37 -6 -72 -6t-77 6l-113 140l-172 -142q-25 -4 -49 -4h-41
q-60 0 -84 6l272 228q27 6 75 6z" />
    <glyph glyph-name="wdieresis.smcp" unicode="&#xf695;" horiz-adv-x="1529" 
d="M270 1118q20 4 70 4t72 -4l34 -930l422 930q20 4 76 4t76 -4l84 -934l377 934q24 4 59 4t53 -2t37 -4l-477 -1116q-24 -4 -85 -4t-81 4l-80 913l-409 -913q-24 -4 -91 -4t-81 4zM1199 1442q46 0 89 -6q0 -98 -31 -183q-49 -6 -95 -6t-83 6q0 72 31 183q43 6 89 6z
M777 1442q46 0 83 -6q0 -96 -31 -183q-43 -6 -89 -6t-89 6q0 98 31 183q49 6 95 6z" />
    <glyph glyph-name="ygrave.smcp" unicode="&#xf696;" horiz-adv-x="907" 
d="M205 1116q60 6 92 6t55 -4l183 -559l364 559q28 4 62 4t90 -6l-473 -713l-70 -403q-20 -4 -58 -4t-75 8l71 410zM714 1247q-48 0 -81 6l-225 228q49 6 101 6t95 -6l189 -228q-31 -6 -79 -6z" />
    <glyph glyph-name="yacute.smcp" unicode="&#xf697;" horiz-adv-x="907" 
d="M205 1116q60 6 92 6t55 -4l183 -559l364 559q28 4 62 4t90 -6l-473 -713l-70 -403q-20 -4 -58 -4t-75 8l71 410zM803 1481q49 6 110 6t95 -6l-303 -228q-41 -6 -89 -6t-79 6z" />
    <glyph glyph-name="ycircumflex.smcp" unicode="&#xf698;" horiz-adv-x="907" 
d="M205 1116q60 6 92 6t55 -4l183 -559l364 559q28 4 62 4t90 -6l-473 -713l-70 -403q-20 -4 -58 -4t-75 8l71 410zM673 1487q48 0 85 -6l176 -228q-37 -6 -72 -6t-78 6l-112 140l-172 -142q-26 -4 -50 -4h-40q-60 0 -84 6l272 228q27 6 75 6z" />
    <glyph glyph-name="ydieresis.smcp" unicode="&#xf699;" horiz-adv-x="907" 
d="M205 1116q60 6 92 6t55 -4l183 -559l364 559q28 4 62 4t90 -6l-473 -713l-70 -403q-20 -4 -58 -4t-75 8l71 410zM894 1442q46 0 89 -6q0 -98 -31 -183q-49 -6 -95 -6t-83 6q0 80 31 183q43 6 89 6zM472 1442q46 0 83 -6q0 -96 -31 -183q-43 -6 -89 -6t-89 6q0 98 31 183
q49 6 95 6z" />
    <glyph glyph-name="zdotaccent.smcp" unicode="&#xf69a;" horiz-adv-x="923" 
d="M276 1001q5 80 23 117h709l18 -20l-731 -981h567q-4 -66 -18 -117h-762l-10 23l727 978h-523zM695 1434q51 0 87 -4q-4 -89 -30 -183l-95 -2l-88 2q3 71 29 183q46 4 97 4z" />
    <glyph glyph-name="zacute.smcp" unicode="&#xf69b;" horiz-adv-x="923" 
d="M276 1001q5 80 23 117h709l18 -20l-731 -981h567q-4 -66 -18 -117h-762l-10 23l727 978h-523zM788 1481q49 6 110 6t95 -6l-303 -228q-41 -6 -88 -6t-80 6z" />
    <glyph glyph-name="zcaron.smcp" unicode="&#xf69d;" horiz-adv-x="923" 
d="M276 1001q5 80 23 117h709l18 -20l-731 -981h567q-4 -66 -18 -117h-762l-10 23l727 978h-523zM446 1481q37 6 81 6t77 -6l94 -138l164 138q40 6 97 6t81 -6l-272 -228q-27 -6 -80 -6t-80 6z" />
    <glyph glyph-name="percent.smcp" unicode="&#xf69e;" horiz-adv-x="1720" 
d="M1434 1141q44 0 77 -6l-981 -1143q-24 -4 -67 -4t-80 6l979 1143q28 4 72 4zM295 731q0 -192 143 -192q106 0 167 95q54 81 54 188q0 214 -149 214q-108 0 -161 -91q-54 -91 -54 -214zM439 438q-141 0 -208 78t-67 228q0 149 96 273t262 124q128 0 197 -81t71 -229
q1 -148 -92 -266q-44 -57 -112 -92t-147 -35zM1223 268q0 -192 143 -192q104 0 162 88q59 88 59 196t-39 160q-39 53 -103 53q-117 0 -172 -97q-50 -85 -50 -208zM1367 -25q-141 0 -208 78t-67 228q0 149 96 273t262 124q128 0 198 -81t70 -214q0 -78 -23 -151
q-51 -154 -181 -222q-68 -35 -147 -35z" />
    <glyph glyph-name="perthousand.smcp" unicode="&#xf69f;" horiz-adv-x="2430" 
d="M1434 1141q44 0 77 -6l-981 -1143q-24 -4 -67 -4t-80 6l979 1143q28 4 72 4zM295 731q0 -192 143 -192q106 0 167 95q54 81 54 188q0 214 -149 214q-108 0 -161 -91q-54 -91 -54 -214zM439 438q-141 0 -208 78t-67 228q0 149 96 273t262 124q128 0 197 -81t71 -229
q1 -148 -92 -266q-44 -57 -112 -92t-147 -35zM1223 268q0 -192 143 -192q104 0 162 88q59 88 59 196t-39 160q-39 53 -103 53q-117 0 -172 -97q-50 -85 -50 -208zM1367 -25q-141 0 -208 78t-67 228q0 149 96 273t262 124q128 0 198 -81t70 -214q0 -78 -23 -151
q-51 -154 -181 -222q-68 -35 -147 -35zM2077 76q104 0 162 88q59 88 59 196q0 214 -150 213q-108 0 -160 -89q-53 -89 -55 -216q0 -192 144 -192zM2078 -25q-141 0 -207 77t-68 227q-1 149 95 274t263 125q127 0 197 -82q71 -82 71 -229q-1 -147 -93 -265q-44 -57 -112 -92
t-146 -35z" />
    <glyph glyph-name="slash.smcp" unicode="&#xf6a0;" horiz-adv-x="604" 
d="M625 1116q31 4 71 4t72 -4l-614 -1116q-30 -6 -70 -6t-72 6z" />
    <glyph glyph-name="backslash.smcp" unicode="&#xf6a1;" horiz-adv-x="632" 
d="M168 1116q32 4 68 4t71 -4l326 -1116q-31 -6 -65 -6t-72 6z" />
    </font>
</defs>
</svg>
