<?xml version="1.0" standalone="no"?>
<!DOCTYPE svg PUBLIC "-//W3C//DTD SVG 1.1//EN" "http://www.w3.org/Graphics/SVG/1.1/DTD/svg11.dtd" >
<svg xmlns="http://www.w3.org/2000/svg">
<metadata>
Created by FontPrep 20130207 at Tue May 17 16:57:06 2016
 By Mauricio A Duran D
(c) 2007 The Monotype Corporation. All Rights Reserved.
</metadata>
<defs>
<font id="66dd737264897c68ae48263b84f59471" horiz-adv-x='1024' >
  <font-face 
    font-family="ArialNarrow"
    font-weight="400"
    font-stretch="condensed"
    units-per-em="2048"
    panose-1="2 11 6 6 2 2 2 3 2 4"
    ascent="1638"
    descent="-410"
    x-height="1062"
    cap-height="1466"
    bbox="-373 -628 2047 2224"
    underline-thickness="150"
    underline-position="-142"
    unicode-range="U+0020-FB02"
  />
<missing-glyph horiz-adv-x="467" 
d="M91 53h296v1184h-296v-1184zM44 0v1280h389v-1280h-389z" />
    <glyph glyph-name=".notdef" horiz-adv-x="467" 
d="M91 53h296v1184h-296v-1184zM44 0v1280h389v-1280h-389z" />
    <glyph glyph-name=".null" horiz-adv-x="0" 
 />
    <glyph glyph-name="nonmarkingreturn" horiz-adv-x="467" 
 />
    <glyph glyph-name="space" unicode=" " horiz-adv-x="467" 
 />
    <glyph glyph-name="space" unicode="&#xa0;" horiz-adv-x="467" 
 />
    <glyph glyph-name="exclam" unicode="!" horiz-adv-x="467" 
d="M155 0v205h169v-205h-169zM148 1466h183v-325l-42 -777h-96l-45 777v325z" />
    <glyph glyph-name="quotedbl" unicode="&#x22;" horiz-adv-x="596" 
d="M349 1466h168v-240l-40 -279h-89l-39 279v240zM76 1466h168v-240l-37 -279h-90l-41 279v240z" />
    <glyph glyph-name="numbersign" unicode="#" 
d="M301 550h258l61 363h-258zM15 401v149h163l61 363h-224v149h248l72 429h123l-72 -429h259l71 429h124l-72 -429h143v-149h-167l-61 -363h228v-149h-253l-71 -426h-124l71 426h-258l-71 -426h-123l71 426h-138z" />
    <glyph glyph-name="dollar" unicode="$" 
d="M701 396q0 111 -42.5 170t-155.5 103v-548q83 13 140.5 88.5t57.5 186.5zM230 1114q0 -178 185 -247v498q-84 -16 -134.5 -82t-50.5 -169zM415 -211v180q-120 19 -189 67.5t-115 142.5t-54 228l149 34q19 -162 76.5 -236.5t132.5 -83.5v573q-98 22 -178 80
q-154 112 -154 333q0 113 42 205.5t110 140.5t180 62v86h88v-86q178 -21 242 -134.5t78 -226.5l-152 -28q-25 201 -168 237v-519q101 -32 149 -54t124.5 -103t76.5 -273t-101 -313t-249 -130v-182h-88z" />
    <glyph glyph-name="percent" unicode="%" horiz-adv-x="1493" 
d="M1000 275q0 -205 132 -205q52 0 88.5 59t36.5 205t-36.5 204.5t-92.5 58.5t-92 -58.5t-36 -263.5zM872 336q0 192 73 288.5t181 96.5t184 -96.5t76 -288.5t-77 -291t-183 -99t-180 99t-74 291zM351 -54l658 1545h120l-655 -1545h-123zM223 1045q0 -205 131 -205
q53 0 89.5 58.5t36.5 204.5t-37 205t-92 59t-91.5 -58.5t-36.5 -263.5zM94 1105q0 192 73 289t181 97t184 -97t76 -288t-76 -290.5t-183 -99.5t-181 98.5t-74 290.5z" />
    <glyph glyph-name="ampersand" unicode="&#x26;" horiz-adv-x="1120" 
d="M232 405q0 -89 62 -180t162 -91q64 0 135 49t115 132l-270 409q-114 -83 -159 -156.5t-45 -162.5zM651 1178q0 72 -40.5 118.5t-96.5 46.5t-97.5 -45.5t-41.5 -115.5t58 -152l66 -93q92 67 122 118t30 123zM464 -25q-188 0 -289.5 134t-101.5 296q0 271 286 437
q-79 111 -107 182.5t-28 139.5q0 139 88 233t208 94t201 -88.5t81 -224.5q0 -209 -227 -357l216 -335q35 86 57 204l153 -40q-39 -190 -106 -316q81 -132 187 -225l-99 -143q-89 71 -184 207q-147 -198 -335 -198z" />
    <glyph glyph-name="quotesingle" unicode="'" horiz-adv-x="322" 
d="M71 1466h168v-245l-39 -274h-91l-38 274v245z" />
    <glyph glyph-name="parenleft" unicode="(" horiz-adv-x="559" 
d="M101 532q0 486 291 959h106q-112 -235 -179 -439t-67 -522q0 -480 246 -961h-106q-110 172 -200.5 424t-90.5 539z" />
    <glyph glyph-name="parenright" unicode=")" horiz-adv-x="559" 
d="M306 530q0 316 -66.5 521t-178.5 440h106q291 -473 291 -959q0 -279 -87 -530.5t-204 -432.5h-106q245 481 245 961z" />
    <glyph glyph-name="asterisk" unicode="*" horiz-adv-x="653" 
d="M50 1197l38 142q130 -56 189 -97q-15 184 -16 249h119q-2 -96 -19 -248q83 51 193 96l38 -142q-105 -42 -204 -56q50 -53 141 -189l-98 -85q-46 76 -113 215q-61 -141 -107 -215l-96 85q90 138 136 189q-107 25 -201 56z" />
    <glyph glyph-name="plus" unicode="+" horiz-adv-x="981" 
d="M419 237v402h-327v168h327v399h140v-399h327v-168h-327v-402h-140z" />
    <glyph glyph-name="comma" unicode="," horiz-adv-x="467" 
d="M152 0v205h168v-205q0 -119 -35 -186.5t-102 -103.5l-41 77q45 24 68 71.5t25 141.5h-83z" />
    <glyph glyph-name="hyphen" unicode="-" horiz-adv-x="559" 
d="M53 440v181h453v-181h-453z" />
    <glyph glyph-name="hyphen" unicode="&#xad;" horiz-adv-x="559" 
d="M53 440v181h453v-181h-453z" />
    <glyph glyph-name="period" unicode="." horiz-adv-x="467" 
d="M155 0v205h168v-205h-168z" />
    <glyph glyph-name="slash" unicode="/" horiz-adv-x="467" 
d="M0 -25l348 1516h119l-349 -1516h-118z" />
    <glyph glyph-name="zero" unicode="0" 
d="M218 722q0 -356 68.5 -477.5t172.5 -121.5t172 123t68 479t-68.5 477t-172.5 121t-172 -122.5t-68 -478.5zM67 702q0 770 393 770q172 0 271 -154q120 -186 120 -574q0 -769 -393 -769q-172 0 -281.5 168.5t-109.5 558.5z" />
    <glyph glyph-name="one" unicode="1" 
d="M623 0h-148v1147q-51 -60 -137 -122.5t-158 -94.5v174q122 70 215.5 171t131.5 197h96v-1472z" />
    <glyph glyph-name="two" unicode="2" 
d="M845 173v-173h-795q-3 105 63.5 234.5t258.5 321.5t256 305t64 217t-65 174.5t-165 70.5t-166 -76t-66 -218l-152 19q16 211 120 317.5t280 106.5t270.5 -124t94.5 -273t-73.5 -278t-243.5 -303t-208.5 -223t-62.5 -98h590z" />
    <glyph glyph-name="three" unicode="3" 
d="M449 123q101 0 175 85.5t74 217.5t-68 210t-167 78q-42 0 -104 -20l17 158l23 -2q109 0 177 67t68 175t-57 170t-141 62t-142 -65.5t-74 -198.5l-147 32q28 188 126.5 284t240.5 96t244 -108t102 -272q0 -100 -43.5 -177t-121.5 -121q138 -38 181 -152t43 -209
q0 -202 -119 -330.5t-279 -128.5t-267 112t-122 301l148 24q46 -288 233 -288z" />
    <glyph glyph-name="four" unicode="4" 
d="M540 516v661l-376 -661h376zM540 0v351h-521v165l549 950h120v-950h163v-165h-163v-351h-148z" />
    <glyph glyph-name="five" unicode="5" 
d="M462 123q94 0 170 96.5t76 258.5t-73.5 248.5t-184.5 86.5q-67 0 -125.5 -37.5t-92.5 -104.5l-139 22l117 753h597v-172h-479l-65 -394q107 92 227 92q151 0 262.5 -129t111.5 -345t-111.5 -369.5t-299.5 -153.5q-156 0 -263.5 108.5t-122.5 300.5l155 16
q18 -140 82 -208.5t158 -68.5z" />
    <glyph glyph-name="six" unicode="6" 
d="M230 468q0 -152 75 -248.5t168 -96.5t161.5 90.5t68.5 248.5t-68 244t-165 86t-168.5 -86t-71.5 -238zM482 1324q-129 0 -207 -160q-67 -138 -68 -408q51 96 128 145.5t163 49.5q143 0 249.5 -129.5t106.5 -346.5q0 -147 -53.5 -266.5t-137.5 -176.5t-185 -57
q-182 0 -300 164t-118 568t121 584.5t310 180.5q137 0 229.5 -93.5t112.5 -271.5l-147 -14q-21 113 -62 161q-59 70 -142 70z" />
    <glyph glyph-name="seven" unicode="7" 
d="M77 1274v173h778v-140q-174 -226 -306 -588.5t-152 -718.5h-152q3 184 58.5 429t152.5 467t209 378h-588z" />
    <glyph glyph-name="eight" unicode="8" 
d="M217 420q0 -132 72.5 -214.5t174.5 -82.5t172.5 80.5t70.5 214.5t-72.5 216.5t-174.5 82.5t-172.5 -82.5t-70.5 -214.5zM266 1094q0 -102 57 -166t139 -64t139 63t57 165t-58.5 167t-138.5 65t-137.5 -64t-57.5 -166zM114 1095q0 167 98 272t248 105t249.5 -107
t99.5 -276q0 -212 -177 -294q109 -43 167.5 -139t58.5 -238q0 -196 -113.5 -319.5t-282.5 -123.5t-282.5 123.5t-113.5 324.5q0 147 60.5 242.5t167.5 129.5q-180 81 -180 300z" />
    <glyph glyph-name="nine" unicode="9" 
d="M694 986q0 158 -70 247.5t-163 89.5t-167.5 -96t-74.5 -248t71.5 -237.5t169.5 -85.5t166 86t68 244zM431 123q74 0 134.5 50.5t102.5 179.5t42 301v36q-46 -89 -124 -141t-159 -52q-147 0 -253.5 128.5t-106.5 354.5t110.5 359t268.5 133q112 0 209 -74t150 -218
t53 -430t-57 -453.5t-154.5 -244.5t-226.5 -77t-221 93.5t-110 270.5l142 16q34 -232 200 -232z" />
    <glyph glyph-name="colon" unicode=":" horiz-adv-x="467" 
d="M155 0v205h168v-205h-168zM155 857v205h168v-205h-168z" />
    <glyph glyph-name="semicolon" unicode=";" horiz-adv-x="467" 
d="M152 0v205h168v-205q0 -119 -35 -186.5t-102 -103.5l-41 77q45 24 68 71.5t25 141.5h-83zM152 857v205h168v-205h-168z" />
    <glyph glyph-name="semicolon" unicode="&#x37e;" horiz-adv-x="467" 
d="M152 0v205h168v-205q0 -119 -35 -186.5t-102 -103.5l-41 77q45 24 68 71.5t25 141.5h-83zM152 857v205h168v-205h-168z" />
    <glyph glyph-name="less" unicode="&#x3c;" horiz-adv-x="981" 
d="M90 641v168l796 410v-179l-631 -316l631 -319v-179z" />
    <glyph glyph-name="equal" unicode="=" horiz-adv-x="981" 
d="M886 417h-794v168h794v-168zM886 862h-794v168h794v-168z" />
    <glyph glyph-name="greater" unicode="&#x3e;" horiz-adv-x="981" 
d="M886 641l-796 -415v179l631 319l-631 316v179l796 -410v-168z" />
    <glyph glyph-name="question" unicode="?" 
d="M375 0v205h168v-205h-168zM695 1079q0 110 -70 187t-162 77t-156.5 -71t-83.5 -226l-152 22q22 212 125.5 317.5t267.5 105.5t273 -112.5t109 -287.5q0 -96 -36 -176.5t-136 -188.5t-122.5 -165.5t-25.5 -199.5h-141l-2 54q-1 145 41 228t134 181t114.5 147.5t22.5 107.5
z" />
    <glyph glyph-name="at" unicode="@" horiz-adv-x="1704" 
d="M553 430q0 -134 54.5 -209.5t117.5 -75.5t133 58.5t120 182.5t50 262t-56 212.5t-126 74.5t-131.5 -52t-111.5 -185.5t-50 -267.5zM702 -3q-120 0 -202 109q-99 132 -99 320t71 347.5t168.5 235t177.5 75.5q163 0 257 -184l27 155h148l-119 -671q-24 -140 -24 -162
t17 -40.5t40 -18.5q44 0 125 70t136 203.5t55 297.5t-77 307.5t-212.5 224.5t-309.5 81t-327 -102t-248.5 -303.5t-95.5 -453.5t86 -422.5t245.5 -259.5t367.5 -89t357.5 82.5t227.5 219.5h148q-49 -121 -216.5 -285.5t-506.5 -164.5q-514 0 -672 306.5t-158 600.5
t169 655.5t646 361.5q196 0 352.5 -96t251 -278.5t94.5 -403.5q0 -300 -174 -527q-147 -192 -320 -192q-82 0 -116.5 40.5t-41.5 126.5q-58 -82 -124.5 -124t-123.5 -42z" />
    <glyph glyph-name="A" unicode="A" horiz-adv-x="1120" 
d="M345 602h407l-125 406q-58 187 -85 304q-23 -141 -65 -280zM-2 0l462 1466h171l492 -1466h-182l-140 444h-502l-132 -444h-169z" />
    <glyph glyph-name="B" unicode="B" horiz-adv-x="1120" 
d="M283 173h299q98 0 156 22t93.5 81.5t35.5 145.5t-34 144t-91.5 84.5t-180.5 26.5h-278v-504zM283 850h260q103 0 155 18t85.5 67t33.5 131t-30.5 134.5t-81 72.5t-181.5 20h-241v-443zM124 0v1466h451q137 0 217 -42.5t131 -132.5t51 -195q0 -213 -168 -316
q105 -38 165.5 -129t60.5 -225t-54.5 -234.5t-145.5 -146t-250 -45.5h-458z" />
    <glyph glyph-name="C" unicode="C" horiz-adv-x="1212" 
d="M646 -25q-178 0 -296.5 81.5t-194 261.5t-75.5 424t75.5 411t205 252.5t295.5 85.5t291 -108.5t175 -318.5l-156 -45q-80 306 -324 306t-321 -191.5t-77 -390.5q0 -301 106 -451.5t282 -150.5q130 0 224.5 92.5t126.5 280.5l160 -49q-53 -247 -186 -368.5t-311 -121.5z
" />
    <glyph glyph-name="D" unicode="D" horiz-adv-x="1212" 
d="M285 173h256q155 0 235 50.5t130 180.5t50 346t-60.5 343.5t-155.5 170.5q-64 29 -203 29h-252v-1120zM126 0v1466h415q155 0 247 -31t212 -176t120 -518q0 -249 -73 -422.5t-187.5 -246t-299.5 -72.5h-434z" />
    <glyph glyph-name="E" unicode="E" horiz-adv-x="1120" 
d="M133 0v1466h869v-173h-710v-449h665v-172h-665v-499h738v-173h-897z" />
    <glyph glyph-name="F" unicode="F" horiz-adv-x="1026" 
d="M141 0v1466h811v-173h-652v-454h564v-173h-564v-666h-159z" />
    <glyph glyph-name="G" unicode="G" horiz-adv-x="1307" 
d="M93 728q0 238 119.5 500.5t483.5 262.5q260 0 359 -139t131 -296l-143 -48q-29 124 -98 220.5t-253 96.5q-266 0 -350.5 -197.5t-84.5 -390.5q0 -294 123 -440.5t320 -146.5q94 0 192.5 45t156.5 107v273h-353v172l509 1v-544q-235 -229 -499 -229q-176 0 -314 88
t-218.5 257.5t-80.5 407.5z" />
    <glyph glyph-name="H" unicode="H" horiz-adv-x="1212" 
d="M129 0v1466h159v-602h625v602h159v-1466h-159v691h-625v-691h-159z" />
    <glyph glyph-name="I" unicode="I" horiz-adv-x="467" 
d="M160 0v1466h159v-1466h-159z" />
    <glyph glyph-name="J" unicode="J" horiz-adv-x="840" 
d="M355 148q69 0 112.5 32t61.5 88t18 188v1010h159v-999q0 -270 -88.5 -381t-247.5 -111q-325 0 -325 441l143 24q6 -168 52 -230t115 -62z" />
    <glyph glyph-name="K" unicode="K" horiz-adv-x="1120" 
d="M124 0v1466h159v-727l597 727h216l-505 -594l527 -872h-210l-428 742l-197 -234v-508h-159z" />
    <glyph glyph-name="L" unicode="L" 
d="M120 0v1466h159v-1293h592v-173h-751z" />
    <glyph glyph-name="M" unicode="M" horiz-adv-x="1399" 
d="M125 0v1466h239l285 -1038l57 -217q21 81 64 235l288 1020h214v-1466h-153v1227l-350 -1227h-143l-348 1248v-1248h-153z" />
    <glyph glyph-name="N" unicode="N" horiz-adv-x="1212" 
d="M125 0v1466h163l632 -1151v1151h152v-1466h-163l-631 1152v-1152h-153z" />
    <glyph glyph-name="O" unicode="O" horiz-adv-x="1307" 
d="M249 732q0 -292 119.5 -441.5t292.5 -149.5t291.5 151t118.5 444q0 188 -54 320t-148.5 200.5t-206.5 68.5q-180 0 -296.5 -150.5t-116.5 -442.5zM85 714q0 375 165 576.5t411 201.5q159 0 290 -90t207.5 -261.5t76.5 -408.5q0 -326 -148 -531q-163 -226 -428 -226
t-427 232q-147 210 -147 507z" />
    <glyph glyph-name="P" unicode="P" horiz-adv-x="1120" 
d="M289 769h311q147 0 215 66.5t68 200.5q0 87 -33.5 149t-81 85t-171.5 23h-308v-524zM130 0v1466h453q160 0 250 -33t152 -136t62 -253q0 -198 -101 -323t-349 -125h-308v-596h-159z" />
    <glyph glyph-name="Q" unicode="Q" horiz-adv-x="1307" 
d="M1061 736q0 189 -53.5 321t-148 200t-206.5 68q-178 0 -295.5 -149.5t-117.5 -441.5t119 -442.5t294 -150.5q84 0 160 39q-74 59 -158 84l39 141q137 -46 227 -140q140 158 140 471zM1226 736q0 -369 -181 -579q111 -93 204 -136l-47 -135q-132 58 -258 180
q-133 -91 -294 -91q-264 0 -427 231q-147 208 -147 526q0 238 79 412.5t207.5 261t288.5 86.5t290.5 -89.5t207.5 -261t77 -405.5z" />
    <glyph glyph-name="R" unicode="R" horiz-adv-x="1212" 
d="M288 819h342q112 0 170 27t92 85t34 152t-65 157.5t-193 63.5h-380v-485zM129 0v1466h533q167 0 246.5 -41t130.5 -136.5t51 -241.5t-86.5 -249t-251.5 -131q67 -40 102 -81q71 -84 125 -187l210 -399h-200l-160 305q-93 179 -140.5 241t-92 83.5t-124.5 21.5h-184v-651
h-159z" />
    <glyph glyph-name="S" unicode="S" horiz-adv-x="1120" 
d="M275 1106q0 -92 52 -141t232 -99t271 -95q91 -46 147 -137.5t56 -217.5t-90 -284t-374 -158q-223 0 -355.5 134t-137.5 363l150 16q12 -121 54.5 -188.5t122 -108.5t199.5 -41t198.5 69.5t78.5 190.5t-86.5 167.5t-266.5 99.5t-292 132.5t-112 267.5q0 189 115 302
t310 113q134 0 234.5 -53t156 -152t59.5 -233l-153 -14q-24 281 -292 281q-135 0 -206 -61t-71 -153z" />
    <glyph glyph-name="T" unicode="T" horiz-adv-x="1026" 
d="M438 0v1293h-396v173h953v-173h-398v-1293h-159z" />
    <glyph glyph-name="U" unicode="U" horiz-adv-x="1212" 
d="M915 1466h160v-847q0 -213 -41.5 -349.5t-151 -215.5t-278.5 -79q-238 0 -356.5 142t-118.5 502v847h159v-846q0 -199 47 -334.5t257 -135.5q170 0 246.5 96t76.5 374v846z" />
    <glyph glyph-name="V" unicode="V" horiz-adv-x="1120" 
d="M474 0l-466 1466h172l313 -1065q36 -124 63 -240q28 121 64 240l325 1065h162l-470 -1466h-163z" />
    <glyph glyph-name="W" unicode="W" horiz-adv-x="1585" 
d="M342 0l-319 1466h163l183 -961q29 -148 51 -300l54 271l229 990h192l172 -742q63 -271 94 -519q23 143 59 319l189 942h160l-330 -1466h-153l-292 1289q-17 -96 -35 -172l-255 -1117h-162z" />
    <glyph glyph-name="X" unicode="X" horiz-adv-x="1120" 
d="M8 0l465 764l-410 702h189l219 -376q67 -116 96 -180q39 78 95 167l243 389h172l-422 -691l455 -775h-196l-303 523q-25 44 -52 98q-41 -80 -58 -110l-302 -511h-191z" />
    <glyph glyph-name="Y" unicode="Y" horiz-adv-x="1120" 
d="M468 0v621l-463 845h194l236 -442q70 -131 123 -248q53 115 131 259l233 431h185l-480 -845v-621h-159z" />
    <glyph glyph-name="Z" unicode="Z" horiz-adv-x="1026" 
d="M36 0v180l616 939q64 98 125 174h-672v173h861v-173l-674 -1017l-73 -103h767v-173h-950z" />
    <glyph glyph-name="bracketleft" unicode="[" horiz-adv-x="467" 
d="M117 -407v1873h326v-149h-179v-1575h179v-149h-326z" />
    <glyph glyph-name="backslash" unicode="\" horiz-adv-x="467" 
d="M348 -25l-348 1516h119l348 -1516h-119z" />
    <glyph glyph-name="bracketright" unicode="]" horiz-adv-x="467" 
d="M362 -407h-326v149h178v1575h-178v149h326v-1873z" />
    <glyph glyph-name="asciicircum" unicode="^" horiz-adv-x="788" 
d="M196 690h-151l290 801h119l290 -801h-148l-203 597z" />
    <glyph glyph-name="underscore" unicode="_" 
d="M-12 -154h955v-102h-955v102z" />
    <glyph glyph-name="grave" unicode="`" horiz-adv-x="559" 
d="M381 1194h-119l-189 280h198z" />
    <glyph glyph-name="a" unicode="a" 
d="M215 270q0 -62 47 -107.5t128 -45.5t145.5 41t96.5 109.5t32 199.5v66q-82 -40 -208 -62t-163 -42.5t-57.5 -58.5t-20.5 -100zM58 279q0 92 38 163t104 111.5t223 62.5t241 58l1 46q0 109 -39 153q-56 64 -164 64t-159 -42.5t-75 -159.5l-145 24q31 171 126 249t251 78
t234 -51.5t98.5 -127.5t20.5 -222v-240q0 -252 9.5 -317.5t37.5 -127.5h-154q-23 55 -30 131q-149 -155 -320 -155q-136 0 -217 82t-81 221z" />
    <glyph glyph-name="b" unicode="b" 
d="M242 554q0 -180 30 -262t85 -125t122 -43q91 0 161.5 103t70.5 309t-68 304t-163 98t-166.5 -102t-71.5 -282zM484 -24q-152 0 -240 157v-133h-137v1466h147v-523q93 143 239 143q102 0 185.5 -61t133.5 -185t50 -301q0 -270 -113 -416.5t-265 -146.5z" />
    <glyph glyph-name="c" unicode="c" horiz-adv-x="840" 
d="M457 -24q-171 0 -281.5 140.5t-110.5 416.5t111.5 414.5t286.5 138.5q135 0 227.5 -84t118.5 -252l-143 -27q-21 108 -73 161.5t-125 53.5q-109 0 -180.5 -96t-71.5 -310t68 -311t164 -97q199 0 231 265l145 -23q-25 -190 -125.5 -290t-241.5 -100z" />
    <glyph glyph-name="d" unicode="d" 
d="M206 532q0 -208 72 -308t166 -100t163 96t69 304t-69 311t-168 103t-166 -99t-67 -307zM673 0v134q-40 -77 -103 -117.5t-136 -40.5q-154 0 -266.5 145.5t-112.5 409.5q0 181 50 307t133.5 187t171.5 61q167 0 253 -146v526h148v-1466h-138z" />
    <glyph glyph-name="e" unicode="e" 
d="M470 938q-104 0 -174 -82.5t-77 -222.5h486q-10 138 -59 206q-72 99 -176 99zM472 -24q-185 0 -299.5 140.5t-114.5 410.5t115.5 414.5t288.5 144.5t286 -142t113 -411l-1 -48h-650q9 -179 83 -270t180 -91q166 0 231 218l152 -23q-38 -170 -137.5 -256.5t-246.5 -86.5z
" />
    <glyph glyph-name="f" unicode="f" horiz-adv-x="467" 
d="M150 0v922h-131v140h131v113q0 125 39.5 220.5t200.5 95.5q63 0 138 -18l-22 -157q-46 10 -100 10t-82 -34.5t-28 -131.5v-98h170v-140h-170v-922h-146z" />
    <glyph glyph-name="g" unicode="g" 
d="M203 542q0 -200 69 -296.5t169 -96.5t170 94.5t70 296.5t-71.5 299.5t-169.5 97.5t-167.5 -97.5t-69.5 -297.5zM429 1086q155 0 253 -152v128h136v-918q0 -245 -40 -349.5t-131 -165t-239 -60.5t-239.5 91t-88.5 252l144 -26q20 -168 205 -168t227 185q13 56 13 236
q-97 -139 -247 -139t-260 142t-111 397q0 171 76.5 359t301.5 188z" />
    <glyph glyph-name="h" unicode="h" 
d="M670 673q0 258 -184 258q-96 0 -163.5 -77t-67.5 -273v-581h-147v1466h147v-526q105 146 253 146t228.5 -88.5t80.5 -324.5v-673h-147v673z" />
    <glyph glyph-name="i" unicode="i" horiz-adv-x="373" 
d="M108 0v1062h147v-1062h-147zM108 1259v207h147v-207h-147z" />
    <glyph glyph-name="j" unicode="j" horiz-adv-x="373" 
d="M28 -273q36 0 57.5 37t21.5 182v1116h147v-1120q0 -217 -55.5 -295t-162.5 -78q-60 0 -116 19l28 153q44 -14 80 -14zM107 1257v209h147v-209h-147z" />
    <glyph glyph-name="k" unicode="k" horiz-adv-x="840" 
d="M112 0v1466h147v-836l350 432h191l-333 -394l366 -668h-181l-289 543l-104 -122v-421h-147z" />
    <glyph glyph-name="l" unicode="l" horiz-adv-x="373" 
d="M104 0v1466h147v-1466h-147z" />
    <glyph glyph-name="m" unicode="m" horiz-adv-x="1399" 
d="M242 913q92 173 269 173q87 0 150.5 -47.5t90.5 -138.5q104 186 269 186q125 0 197 -85t72 -272v-729h-147v669q0 114 -16.5 161.5t-53.5 73.5t-83 26q-95 0 -155 -75.5t-60 -237.5v-617h-148v690q0 240 -152 240q-101 0 -159.5 -81.5t-58.5 -297.5v-551h-147v1062h132
v-149z" />
    <glyph glyph-name="n" unicode="n" 
d="M487 930q-232 0 -232 -350v-580h-147v1062h133v-151q95 175 277 175q70 0 129.5 -27.5t96 -72t54.5 -115.5t18 -218v-653h-148v646q0 117 -20 171t-62.5 83.5t-98.5 29.5z" />
    <glyph glyph-name="o" unicode="o" 
d="M204 530q0 -205 75 -305.5t183 -100.5t182 102t74 306t-75 304.5t-183 100.5t-182 -101t-74 -306zM53 532q0 274 115.5 414t291.5 140t292.5 -140t116.5 -415t-115.5 -415t-291.5 -140t-292.5 141t-116.5 415z" />
    <glyph glyph-name="p" unicode="p" 
d="M241 524q0 -206 69 -303t165 -97t167 101t71 311t-69 309.5t-163 99.5t-167 -107.5t-73 -313.5zM491 -24q-146 0 -236 134v-517h-147v1469h135v-138q94 162 251 162q103 0 186 -61t133.5 -185.5t50.5 -299.5q0 -271 -113.5 -417.5t-259.5 -146.5z" />
    <glyph glyph-name="q" unicode="q" 
d="M207 536q0 -209 72.5 -310.5t166.5 -101.5t163 97.5t69 303.5t-72 312.5t-168 106.5t-163.5 -99.5t-67.5 -308.5zM416 1086q168 0 261 -166v142h133v-1469h-147v520q-35 -61 -97.5 -99t-125.5 -38q-156 0 -270 148t-114 400t96 407t264 155z" />
    <glyph glyph-name="r" unicode="r" horiz-adv-x="559" 
d="M108 0v1062h133v-161q51 112 93 148.5t106 36.5t141 -58l-50 -167q-55 39 -105 39t-110.5 -51.5t-60.5 -292.5v-556h-147z" />
    <glyph glyph-name="s" unicode="s" horiz-adv-x="840" 
d="M624 287q0 67 -38 97t-184 74t-235.5 102t-89.5 207t87 234t241 85q97 0 170.5 -35t112.5 -94t54 -169l-144 -24q-20 174 -189 174q-96 0 -143 -38t-47 -98t36 -87t194 -79t242 -105t84 -211q0 -157 -96.5 -251t-263.5 -94q-313 0 -363 342l146 28q26 -221 173.5 -221
t200 47.5t52.5 115.5z" />
    <glyph glyph-name="t" unicode="t" horiz-adv-x="467" 
d="M333 -14q-63 0 -110 30.5t-64.5 83.5t-17.5 211v611h-108v140h108v263l147 108v-371h149v-140h-149v-621q0 -87 16 -117t54 -30t79 7l20 -159q-61 -16 -124 -16z" />
    <glyph glyph-name="u" unicode="u" 
d="M403 -24q-103 0 -176 55.5t-97.5 140.5t-24.5 232v658h147v-589q0 -164 16.5 -219.5t61 -89t101.5 -33.5q106 0 169 81t63 281v569h148v-1062h-132v156q-102 -180 -276 -180z" />
    <glyph glyph-name="v" unicode="v" horiz-adv-x="840" 
d="M352 0l-331 1062h156l187 -636q32 -108 56 -214q19 84 54 202l194 648h152l-330 -1062h-138z" />
    <glyph glyph-name="w" unicode="w" horiz-adv-x="1212" 
d="M268 0l-266 1062h153l189 -841l184 841h152l174 -819l199 819h144l-273 -1062h-153l-139 636l-33 181l-176 -817h-155z" />
    <glyph glyph-name="x" unicode="x" horiz-adv-x="840" 
d="M12 0l318 552l-294 510h184l134 -249q37 -69 61 -119q37 68 66 117l147 251h176l-301 -500l324 -562h-181l-226 419l-229 -419h-179z" />
    <glyph glyph-name="y" unicode="y" horiz-adv-x="840" 
d="M178 -256q83 0 122 78q7 14 58 176l-331 1064h159l182 -615q34 -115 63 -246q25 124 60 242l186 619h148l-331 -1080q-65 -210 -119 -311.5t-176 -101.5q-42 0 -95 22l-16 169q49 -16 90 -16z" />
    <glyph glyph-name="z" unicode="z" horiz-adv-x="840" 
d="M33 0v146l555 776q-95 -6 -167 -6h-355v146h712v-119l-472 -674l-91 -123q99 9 186 9h403v-155h-771z" />
    <glyph glyph-name="braceleft" unicode="{" horiz-adv-x="561" 
d="M475 1491h46v-157h-26q-84 0 -112.5 -36.5t-28.5 -168.5q0 -276 -14 -363t-50 -140.5t-107 -95.5q87 -45 129 -138t42 -313t8 -265t35.5 -66.5t97.5 -21.5h26v-157h-46q-86 0 -129 21.5t-75 69.5t-43 123.5t-12 269.5t-26.5 293t-143.5 103v163q119 2 144 101.5t26 283.5
q2 185 10 263t42 134t80.5 76.5t126.5 20.5z" />
    <glyph glyph-name="bar" unicode="|" horiz-adv-x="436" 
d="M156 -431v1922h129v-1922h-129z" />
    <glyph glyph-name="braceright" unicode="}" horiz-adv-x="561" 
d="M83 -431h-46v157h26q83 0 111.5 37t28.5 169q0 276 15 364q29 168 157 234q-94 55 -133 145t-39 308q0 217 -8 263t-35 67t-97 21h-26v157h46q86 0 129 -21.5t75 -69.5t43 -123t12 -269t26.5 -294t143.5 -102v-163q-120 -4 -144.5 -103.5t-25.5 -282.5q-2 -183 -10 -261
t-42 -134t-80.5 -77.5t-126.5 -21.5z" />
    <glyph glyph-name="asciitilde" unicode="~" horiz-adv-x="981" 
d="M699 748q107 0 212 137v-212q-102 -114 -227 -114q-48 0 -92 13t-142 67t-156 54t-105 -27t-117 -109v205q87 120 228 120q90 0 257 -87q91 -47 142 -47z" />
    <glyph glyph-name="exclamdown" unicode="&#xa1;" horiz-adv-x="559" 
d="M371 -404h-183v325l42 776h96l45 -776v-325zM364 1062v-205h-169v205h169z" />
    <glyph glyph-name="cent" unicode="&#xa2;" 
d="M480 943q-104 0 -174 -98t-70 -307q0 -269 102 -361l182 763q-25 3 -40 3zM476 119q82 0 145.5 70.5t77.5 199.5l147 -20q-28 -190 -131 -293.5t-238 -103.5q-39 0 -84 14l-96 -395l-92 32l94 398q-94 55 -154 183.5t-60 319.5t50 313t141.5 185.5t199.5 63.5q28 0 77 -7
l93 387l90 -32l-92 -387q151 -77 185 -297l-143 -27q-21 113 -78 171l-183 -766q28 -9 51 -9z" />
    <glyph glyph-name="sterling" unicode="&#xa3;" 
d="M581 809v-148h-233q16 -43 16 -109t-34.5 -163.5t-111.5 -197.5q66 22 126 22t172 -33t168 -33t153 56l48 -165q-123 -64 -197 -64q-34 0 -64 7t-135 46t-162 39q-132 0 -250 -94l-57 173q86 57 137 157.5t51 234.5q0 61 -13 124h-161v148h126q-42 177 -42 264
q0 191 106 304.5t258 113.5t250.5 -97t121.5 -282l-147 -27q-13 123 -76 190.5t-147 67.5t-146 -69t-62 -178t47 -287h258z" />
    <glyph glyph-name="currency" unicode="&#xa4;" 
d="M247 726q0 -112 64 -186t149 -74t149 74t64 186t-64 185.5t-149 73.5t-149 -73.5t-64 -185.5zM461.5 1149q109.5 0 193.5 -72l114 139l95 -119l-114 -136q58 -110 58 -235t-58 -236l114 -136l-95 -119l-114 140q-85 -73 -193.5 -73t-195.5 73l-114 -140l-94 119l114 136
q-58 111 -58 236t58 235l-114 136l94 119l114 -139q86 72 195.5 72z" />
    <glyph glyph-name="yen" unicode="&#xa5;" 
d="M389 0v325h-341v139h341v143h-341v148h280l-333 711h164l238 -516q41 -90 62 -154q18 52 68 163l224 507h175l-332 -711h280v-148h-338v-143h338v-139h-338v-325h-147z" />
    <glyph glyph-name="brokenbar" unicode="&#xa6;" horiz-adv-x="436" 
d="M285 360v-791h-129v791h129zM285 1491v-790h-129v790h129z" />
    <glyph glyph-name="section" unicode="&#xa7;" 
d="M715 435q0 54 -42.5 115.5t-170.5 157.5t-182 150q-68 -48 -95 -94t-27 -104t38 -116t160 -146t198 -154q121 76 121 191zM799 -95q0 -151 -92.5 -243.5t-238.5 -92.5t-240 92.5t-114 268.5l149 26q24 -132 75 -183.5t132 -51.5t130.5 50t49.5 117t-39 114
q-59 75 -241 211t-228 201q-78 108 -78 219t50.5 187.5t133.5 106.5q-105 125 -105 254t86 219.5t223 90.5t226 -86.5t107 -260.5l-153 -19q-18 124 -62 171t-115 47t-119.5 -47.5t-48.5 -107.5q1 -60 45 -119t222 -192t228 -197q73 -96 73 -210t-55 -192q-36 -51 -132 -100
q131 -122 131 -273z" />
    <glyph glyph-name="dieresis" unicode="&#xa8;" horiz-adv-x="559" 
d="M356 1270v205h154v-205h-154zM50 1270v205h154v-205h-154z" />
    <glyph glyph-name="copyright" unicode="&#xa9;" horiz-adv-x="1237" 
d="M625 304q-140 0 -232.5 111t-92.5 319t91.5 317t240.5 109q103 0 177 -62t101 -174l-98 -29q-25 76 -73.5 114.5t-110.5 38.5q-93 0 -155 -81t-62 -237t59 -232.5t139 -76.5t137 50.5t76 142.5l100 -36q-25 -129 -106.5 -201.5t-190.5 -72.5zM614 1366q-212 0 -360 -189
t-147 -451q0 -262 156 -440q156 -179 368 -179q212 1 360 189t148 450t-156 440q-157 180 -369 180zM623 1491q263 0 441 -226t178 -529q0 -211 -88 -388t-230.5 -271.5t-300.5 -94.5q-263 0 -441 225.5t-178 528.5q0 212 88 389t230.5 271.5t300.5 94.5z" />
    <glyph glyph-name="ordfeminine" unicode="&#xaa;" horiz-adv-x="621" 
d="M164 964q0 -42 29 -70t81 -28t97 36t62 95q7 23 7 107q-44 -14 -136 -32t-116 -42t-24 -66zM254 746q-98 0 -155 59t-57 151q0 171 148 211l173 34q60 14 79 20q0 85 -28 119t-100 34q-122 0 -137 -125l-113 34q11 95 76 151.5t184 56.5t178 -58q58 -59 58 -184v-240
l-1 -59q0 -135 33 -186h-121q-16 40 -18 89q-101 -107 -199 -107z" />
    <glyph glyph-name="guillemotleft" unicode="&#xab;" 
d="M593 528l216 -456h-124l-257 456l257 456h124zM276 528l213 -456h-121l-261 456l261 456h122z" />
    <glyph glyph-name="logicalnot" unicode="&#xac;" horiz-adv-x="981" 
d="M886 424h-140v438h-654v168h794v-606z" />
    <glyph glyph-name="registered" unicode="&#xae;" horiz-adv-x="1237" 
d="M590 776q161 0 161 113q0 93 -47.5 112.5t-122.5 19.5h-122v-245h131zM351 319v812h230q118 0 168 -22t83 -76t33 -135t-53.5 -144.5t-136.5 -71.5q37 -18 69 -58t86 -146l80 -159h-130l-60 128q-68 147 -104 182t-93 35h-64v-345h-108zM614 1366q-212 0 -360 -189
t-147 -451q0 -262 156 -440q156 -179 368 -179q212 1 360 189t148 450t-156 440q-157 180 -369 180zM623 1491q263 0 441 -226t178 -529q0 -211 -88 -388t-230.5 -271.5t-300.5 -94.5q-263 0 -441 225.5t-178 528.5q0 212 88 389t230.5 271.5t300.5 94.5z" />
    <glyph glyph-name="overscore" unicode="&#xaf;" horiz-adv-x="1024" 
d="M-12 1722h1048v-103h-1048v103z" />
    <glyph glyph-name="degree" unicode="&#xb0;" horiz-adv-x="819" 
d="M237 1214q0 -70 49.5 -119.5t119.5 -49.5t119 49.5t49 119.5t-49 119.5t-119 49.5t-119.5 -49.5t-49.5 -119.5zM128 1214q0 116 81.5 196.5t196.5 80.5t196 -81t81 -196t-81.5 -196.5t-195.5 -81.5t-196 81t-82 197z" />
    <glyph glyph-name="plusminus" unicode="&#xb1;" horiz-adv-x="1124" 
d="M1046 0h-968v168h968v-168zM477 260v403h-399v167h399v399h170v-399h399v-167h-399v-403h-170z" />
    <glyph glyph-name="twosuperior" unicode="&#xb2;" horiz-adv-x="559" 
d="M399 1262q0 45 -30 74.5t-83 29.5t-80 -23t-45 -91l-124 16q25 115 85 165.5t172 50.5t172.5 -55.5t60.5 -144.5q1 -89 -43 -154q-44 -64 -142 -152t-128 -124h317v-121h-511q12 131 212 308q120 106 143.5 141t23.5 80z" />
    <glyph glyph-name="threesuperior" unicode="&#xb3;" horiz-adv-x="559" 
d="M400 965q0 110 -129 110l-27 -2l-18 -1l18 110q61 -1 94.5 26.5t33.5 71.5t-26.5 68.5t-71.5 24.5t-71.5 -21.5t-45.5 -80.5l-117 23q35 109 86.5 149.5t155.5 40.5t161 -50.5t57 -122.5q0 -136 -113 -174q142 -43 142 -191q0 -99 -68 -165t-179 -66q-220 0 -256 214
l120 15q17 -62 48 -87t82 -25t87.5 37.5t36.5 95.5z" />
    <glyph glyph-name="acute" unicode="&#xb4;" horiz-adv-x="559" 
d="M182 1194l109 280h193l-180 -280h-122z" />
    <glyph glyph-name="mu1" unicode="&#xb5;" horiz-adv-x="1180" 
d="M1018 1062v-1062h-161v126q-53 -80 -113 -116t-148 -35q-88 0 -144 29t-114 103v-514h-178v1469h178v-450q0 -245 26 -317.5t84.5 -114.5t136.5 -42t141 44t89 113.5t26 313.5v453h177z" />
    <glyph glyph-name="paragraph" unicode="&#xb6;" horiz-adv-x="901" 
d="M337 -407v1045q-148 9 -240 117t-92 289q0 133 71.5 277.5t316.5 144.5h518v-173h-117v-1700h-140v1700h-182v-1700h-135z" />
    <glyph glyph-name="middot" unicode="&#xb7;" horiz-adv-x="557" 
d="M196 637v205h168v-205h-168z" />
    <glyph glyph-name="cedilla" unicode="&#xb8;" horiz-adv-x="559" 
d="M302 -84q141 -21 141 -160q0 -68 -62.5 -122.5t-152.5 -54.5t-140 12l9 117q53 -4 101 -4t78 21t30 54q0 65 -129 67l43 177h110z" />
    <glyph glyph-name="onesuperior" unicode="&#xb9;" horiz-adv-x="559" 
d="M270 733v554q-84 -81 -184 -113v123q51 20 113.5 73.5t100.5 113.5h89v-751h-119z" />
    <glyph glyph-name="ordmasculine" unicode="&#xba;" horiz-adv-x="612" 
d="M305 1358q-65 0 -105.5 -57t-40.5 -185t41.5 -186t105.5 -58t106 58t42 185t-42 185t-107 58zM37 1114q1 182 77 279q76 98 192 98t192 -98q77 -97 77 -277q-1 -180 -77 -278t-192 -98t-192.5 96t-76.5 278z" />
    <glyph glyph-name="guillemotright" unicode="&#xbb;" 
d="M328 528l-216 456h124l257 -456l-257 -456h-124zM646 528l-214 456h121l261 -456l-261 -456h-120z" />
    <glyph glyph-name="onequarter" unicode="&#xbc;" horiz-adv-x="1401" 
d="M270 733v554q-84 -81 -184 -113v123q52 19 114 73t100 114h89v-751h-119zM203 -57l903 1548h128l-902 -1548h-129zM1172 231v263l-188 -263h188zM1172 -31v154h-313v123l332 474h100v-489h85v-108h-85v-154h-119z" />
    <glyph glyph-name="onehalf" unicode="&#xbd;" horiz-adv-x="1401" 
d="M270 733v554q-84 -81 -184 -113v123q52 19 114 73t100 114h89v-751h-119zM183 -57l903 1548h128l-902 -1548h-129zM1239 498q0 44 -30 74t-83 30t-80 -23t-45 -91l-124 16q25 116 85 166t172 50t172 -56q61 -56 61 -144q1 -89 -43 -154q-44 -64 -142 -152t-128 -124h317
v-121h-511q12 131 212 308q120 106 144 141t23 80z" />
    <glyph glyph-name="threequarters" unicode="&#xbe;" horiz-adv-x="1401" 
d="M400 965q0 110 -129 110l-27 -2l-18 -1l18 110q60 -1 94 27q34 27 34 71t-26 68t-72 25t-72 -21t-45 -81l-117 23q34 110 86 150t156 40t161 -50t57 -123q0 -136 -113 -174q142 -43 142 -191q0 -99 -68 -165t-179 -66q-220 0 -256 214l120 15q17 -62 48 -87t82 -25
q52 0 88 38t36 95zM203 -57l903 1548h128l-902 -1548h-129zM1168 231v263l-188 -263h188zM1168 -31v154h-313v123l332 474h100v-489h85v-108h-85v-154h-119z" />
    <glyph glyph-name="questiondown" unicode="&#xbf;" horiz-adv-x="1026" 
d="M284 -17q0 -111 70 -187.5t162 -76.5t156.5 71t84.5 225l151 -21q-21 -211 -125 -317t-267 -106t-273 112t-110 287q0 97 36 177t136 188t123 166t25 200h142l1 -51q0 -145 -40 -229t-134 -183q-92 -99 -115 -148t-23 -107zM604 1062v-205h-168v205h168z" />
    <glyph glyph-name="Agrave" unicode="&#xc0;" horiz-adv-x="1120" 
d="M345 602h407l-125 406q-58 187 -85 304q-23 -141 -65 -280zM-2 0l462 1466h171l492 -1466h-182l-140 444h-502l-132 -444h-169zM654 1566h-119l-189 280h198z" />
    <glyph glyph-name="Aacute" unicode="&#xc1;" horiz-adv-x="1120" 
d="M345 602h407l-125 406q-58 187 -85 304q-23 -141 -65 -280zM-2 0l462 1466h171l492 -1466h-182l-140 444h-502l-132 -444h-169zM391 1566l109 280h193l-180 -280h-122z" />
    <glyph glyph-name="Acircumflex" unicode="&#xc2;" horiz-adv-x="1120" 
d="M345 602h407l-125 406q-58 187 -85 304q-23 -141 -65 -280zM-2 0l462 1466h171l492 -1466h-182l-140 444h-502l-132 -444h-169zM546 1737l-92 -170h-169l177 280h158l184 -280h-167z" />
    <glyph glyph-name="Atilde" unicode="&#xc3;" horiz-adv-x="1120" 
d="M345 602h407l-125 406q-58 187 -85 304q-23 -141 -65 -280zM-2 0l462 1466h171l492 -1466h-182l-140 444h-502l-132 -444h-169zM417 1796q61 0 129 -42t95 -42t41 18t20 69h107q-3 -115 -49 -171t-104 -57q-59 0 -129 46t-96 46q-26 1 -44 -23t-18 -72h-109q0 108 48 168
t109 60z" />
    <glyph glyph-name="Adieresis" unicode="&#xc4;" horiz-adv-x="1120" 
d="M345 602h407l-125 406q-58 187 -85 304q-23 -141 -65 -280zM-2 0l462 1466h171l492 -1466h-182l-140 444h-502l-132 -444h-169zM616 1642v205h154v-205h-154zM310 1642v205h154v-205h-154z" />
    <glyph glyph-name="Aring" unicode="&#xc5;" horiz-adv-x="1120" 
d="M345 602h407l-125 406q-58 187 -85 304q-23 -141 -65 -280zM-2 0l462 1466h171l492 -1466h-182l-140 444h-502l-132 -444h-169zM477 1706q0 -47 26 -78t60 -31q35 0 61 31t26 78t-26 78t-60 31t-61 -31q-26 -31 -26 -78zM414 1705q0 79 44 131t104 52q58 0 102 -52
t45 -132q0 -80 -44 -130q-44 -52 -103 -52q-60 0 -104 52t-44 131z" />
    <glyph glyph-name="AE" unicode="&#xc6;" horiz-adv-x="1679" 
d="M802 595v698h-120l-277 -698h397zM1566 1466v-173h-605v-451h562v-172h-562v-497h627v-173h-786v423h-465l-164 -423h-172l578 1466h987z" />
    <glyph glyph-name="Ccedilla" unicode="&#xc7;" horiz-adv-x="1212" 
d="M632 -84q141 -21 141 -160q-1 -68 -63 -122t-152 -55q-90 0 -140 12l9 117q53 -4 101 -4t78 21t30 54q0 65 -129 67l33 136q-106 16 -190 74q-118 82 -194 262t-76 424t76 410q76 168 204 254q130 86 296 85t291 -109t175 -318l-156 -45q-80 306 -324 306t-346 -253
q-52 -130 -52 -329q0 -301 106 -451t282 -151q130 1 224 93t127 280l160 -49q-53 -247 -183 -366t-313 -124z" />
    <glyph glyph-name="Egrave" unicode="&#xc8;" horiz-adv-x="1120" 
d="M133 0v1466h869v-173h-710v-449h665v-172h-665v-499h738v-173h-897zM653 1566h-119l-189 280h198z" />
    <glyph glyph-name="Eacute" unicode="&#xc9;" horiz-adv-x="1120" 
d="M133 0v1466h869v-173h-710v-449h665v-172h-665v-499h738v-173h-897zM462 1566l109 280h193l-180 -280h-122z" />
    <glyph glyph-name="Ecircumflex" unicode="&#xca;" horiz-adv-x="1120" 
d="M133 0v1466h869v-173h-710v-449h665v-172h-665v-499h738v-173h-897zM573 1737l-92 -170h-169l177 280h158l184 -280h-167z" />
    <glyph glyph-name="Edieresis" unicode="&#xcb;" horiz-adv-x="1120" 
d="M133 0v1466h869v-173h-710v-449h665v-172h-665v-499h738v-173h-897zM640 1642v205h154v-205h-154zM334 1642v205h154v-205h-154z" />
    <glyph glyph-name="Igrave" unicode="&#xcc;" horiz-adv-x="467" 
d="M160 0v1466h159v-1466h-159zM357 1566h-119l-189 280h198z" />
    <glyph glyph-name="Iacute" unicode="&#xcd;" horiz-adv-x="467" 
d="M160 0v1466h159v-1466h-159zM150 1566l109 280h193l-180 -280h-122z" />
    <glyph glyph-name="Icircumflex" unicode="&#xce;" horiz-adv-x="467" 
d="M160 0v1466h159v-1466h-159zM237 1737l-92 -170h-169l177 280h158l184 -280h-167z" />
    <glyph glyph-name="Idieresis" unicode="&#xcf;" horiz-adv-x="467" 
d="M160 0v1466h159v-1466h-159zM316 1642v205h154v-205h-154zM10 1642v205h154v-205h-154z" />
    <glyph glyph-name="Eth" unicode="&#xd0;" horiz-adv-x="1212" 
d="M285 173h256q155 0 235 50.5t130 180.5t50 348q0 216 -61 343t-156 170q-64 28 -202 28h-252v-494h332v-132h-332v-494zM126 0v667h-132v132h132v667h415q155 0 247 -31t212 -176t120 -519q0 -211 -53.5 -369t-132 -237.5t-164.5 -106.5t-210 -27h-434z" />
    <glyph glyph-name="Ntilde" unicode="&#xd1;" horiz-adv-x="1212" 
d="M125 0v1466h163l632 -1151v1151h152v-1466h-163l-631 1152v-1152h-153zM493 1796q61 0 129 -42t95 -42t41 18t20 69h107q-3 -115 -49 -171t-104 -57q-59 0 -129 46t-96 46q-26 1 -44 -23t-18 -72h-109q0 108 48 168t109 60z" />
    <glyph glyph-name="Ograve" unicode="&#xd2;" horiz-adv-x="1307" 
d="M249 732q-1 -292 119 -442t293 -149q173 0 291 151t119 444q0 188 -54 320q-55 132 -149 200t-206 69q-180 0 -296 -150q-116 -151 -117 -443zM85 714q0 374 165 576t411 202q159 0 290 -90t207 -262t77 -408q0 -326 -148 -531q-163 -226 -428 -226t-427 232
q-147 210 -147 507zM768 1566h-119l-189 280h198z" />
    <glyph glyph-name="Oacute" unicode="&#xd3;" horiz-adv-x="1307" 
d="M249 732q-1 -292 119 -442t293 -149q173 0 291 151t119 444q0 188 -54 320q-55 132 -149 200t-206 69q-180 0 -296 -150q-116 -151 -117 -443zM85 714q0 374 165 576t411 202q159 0 290 -90t207 -262t77 -408q0 -326 -148 -531q-163 -226 -428 -226t-427 232
q-147 210 -147 507zM521 1566l109 280h193l-180 -280h-122z" />
    <glyph glyph-name="Ocircumflex" unicode="&#xd4;" horiz-adv-x="1307" 
d="M249 732q-1 -292 119 -442t293 -149q173 0 291 151t119 444q0 188 -54 320q-55 132 -149 200t-206 69q-180 0 -296 -150q-116 -151 -117 -443zM85 714q0 374 165 576t411 202q159 0 290 -90t207 -262t77 -408q0 -326 -148 -531q-163 -226 -428 -226t-427 232
q-147 210 -147 507zM660 1737l-92 -170h-169l177 280h158l184 -280h-167z" />
    <glyph glyph-name="Otilde" unicode="&#xd5;" horiz-adv-x="1307" 
d="M249 732q-1 -292 119 -442t293 -149q173 0 291 151t119 444q0 188 -54 320q-55 132 -149 200t-206 69q-180 0 -296 -150q-116 -151 -117 -443zM85 714q0 374 165 576t411 202q159 0 290 -90t207 -262t77 -408q0 -326 -148 -531q-163 -226 -428 -226t-427 232
q-147 210 -147 507zM537 1796q61 0 129 -42t95 -42t41 18t20 69h107q-3 -115 -49 -171t-104 -57q-59 0 -129 46t-96 46q-26 1 -44 -23t-18 -72h-109q0 108 48 168t109 60z" />
    <glyph glyph-name="Odieresis" unicode="&#xd6;" horiz-adv-x="1307" 
d="M249 732q-1 -292 119 -442t293 -149q173 0 291 151t119 444q0 188 -54 320q-55 132 -149 200t-206 69q-180 0 -296 -150q-116 -151 -117 -443zM85 714q0 374 165 576t411 202q159 0 290 -90t207 -262t77 -408q0 -326 -148 -531q-163 -226 -428 -226t-427 232
q-147 210 -147 507zM718 1642v205h154v-205h-154zM412 1642v205h154v-205h-154z" />
    <glyph glyph-name="multiply" unicode="&#xd7;" horiz-adv-x="981" 
d="M130 409l259 315l-258 314l100 122l258 -314l256 313l99 -121l-257 -313l258 -314l-100 -122l-258 314l-258 -315z" />
    <glyph glyph-name="Oslash" unicode="&#xd8;" horiz-adv-x="1307" 
d="M669 141q161 0 279.5 151t118.5 437q0 206 -69 365l-610 -832q120 -121 281 -121zM660 1325q-179 0 -296.5 -149.5t-117.5 -445.5q0 -111 15 -188.5t58 -179.5l611 835q-77 76 -135.5 102t-134.5 26zM1232 734q0 -240 -78 -411.5t-209.5 -259.5t-289.5 -88
q-102 0 -185.5 33.5t-178.5 120.5l-138 -188l-81 84l144 197q-81 153 -107.5 257t-26.5 248q0 243 78.5 417t207.5 260.5t292 86.5q103 0 187.5 -34.5t181.5 -124.5l137 188l82 -84l-145 -198q74 -134 101.5 -244t27.5 -260z" />
    <glyph glyph-name="Ugrave" unicode="&#xd9;" horiz-adv-x="1212" 
d="M915 1466h160v-847q1 -213 -41 -349t-152 -216q-110 -79 -278 -79q-238 0 -356 142t-119 502v847h159v-846q0 -199 31 -288q63 -182 273 -182q170 0 246 96t77 374v846zM703 1566h-119l-189 280h198z" />
    <glyph glyph-name="Uacute" unicode="&#xda;" horiz-adv-x="1212" 
d="M915 1466h160v-847q1 -213 -41 -349t-152 -216q-110 -79 -278 -79q-238 0 -356 142t-119 502v847h159v-846q0 -199 31 -288q63 -182 273 -182q170 0 246 96t77 374v846zM475 1566l109 280h193l-180 -280h-122z" />
    <glyph glyph-name="Ucircumflex" unicode="&#xdb;" horiz-adv-x="1212" 
d="M915 1466h160v-847q1 -213 -41 -349t-152 -216q-110 -79 -278 -79q-238 0 -356 142t-119 502v847h159v-846q0 -199 31 -288q63 -182 273 -182q170 0 246 96t77 374v846zM605 1737l-92 -170h-169l177 280h158l184 -280h-167z" />
    <glyph glyph-name="Udieresis" unicode="&#xdc;" horiz-adv-x="1212" 
d="M915 1466h160v-847q1 -213 -41 -349t-152 -216q-110 -79 -278 -79q-238 0 -356 142t-119 502v847h159v-846q0 -199 31 -288q63 -182 273 -182q170 0 246 96t77 374v846zM668 1642v205h154v-205h-154zM362 1642v205h154v-205h-154z" />
    <glyph glyph-name="Yacute" unicode="&#xdd;" horiz-adv-x="1120" 
d="M468 0v621l-463 845h194l236 -442q70 -131 123 -248q53 115 131 259l233 431h185l-480 -845v-621h-159zM414 1566l109 280h193l-180 -280h-122z" />
    <glyph glyph-name="Thorn" unicode="&#xde;" horiz-adv-x="1120" 
d="M289 471h311q147 0 215 66.5t68 200.5q0 87 -33.5 148.5t-81 85t-171.5 23.5h-308v-524zM130 0v1466h159v-298h294q161 0 237 -29q104 -38 166 -141t62 -252q0 -197 -101 -322.5t-350 -125.5h-308v-298h-159z" />
    <glyph glyph-name="germandbls" unicode="&#xdf;" horiz-adv-x="1026" 
d="M128 0v999q0 191 38.5 287.5t122 150.5t203.5 54t205 -82.5t85 -192.5t-62 -242t-62 -172t18 -71t122 -113q102 -82 140 -148.5t38 -156.5q0 -147 -87 -242.5t-198 -95.5t-190.5 63t-121.5 178l127 72q73 -165 166 -165q61 0 107 50.5t46 112.5t-19 96t-123 120
t-140.5 144t-36.5 110t11 91t66 155t55 184q0 66 -46 111.5t-130 45.5t-135.5 -72t-51.5 -280v-991h-147z" />
    <glyph glyph-name="agrave" unicode="&#xe0;" 
d="M215 270q0 -62 47 -108t128 -45q82 0 146 41q64 42 96 110t32 199v66q-82 -40 -208 -62q-126 -23 -163 -43t-57 -58t-21 -100zM58 279q0 92 38 163t104 111q66 41 223 63t241 58l1 46q0 109 -39 153q-56 64 -164 64q-108 -1 -159 -43t-75 -159l-145 24q31 171 125 249
t252 78q156 0 234 -52t98 -127q20 -76 21 -222v-240q-1 -251 9 -317t38 -128h-154q-23 55 -30 131q-149 -155 -320 -155q-136 0 -217 82t-81 221zM567 1194h-119l-189 280h198z" />
    <glyph glyph-name="aacute" unicode="&#xe1;" 
d="M215 270q0 -62 47 -108t128 -45q82 0 146 41q64 42 96 110t32 199v66q-82 -40 -208 -62q-126 -23 -163 -43t-57 -58t-21 -100zM58 279q0 92 38 163t104 111q66 41 223 63t241 58l1 46q0 109 -39 153q-56 64 -164 64q-108 -1 -159 -43t-75 -159l-145 24q31 171 125 249
t252 78q156 0 234 -52t98 -127q20 -76 21 -222v-240q-1 -251 9 -317t38 -128h-154q-23 55 -30 131q-149 -155 -320 -155q-136 0 -217 82t-81 221zM353 1194l109 280h193l-180 -280h-122z" />
    <glyph glyph-name="acircumflex" unicode="&#xe2;" 
d="M215 270q0 -62 47 -108t128 -45q82 0 146 41q64 42 96 110t32 199v66q-82 -40 -208 -62q-126 -23 -163 -43t-57 -58t-21 -100zM58 279q0 92 38 163t104 111q66 41 223 63t241 58l1 46q0 109 -39 153q-56 64 -164 64q-108 -1 -159 -43t-75 -159l-145 24q31 171 125 249
t252 78q156 0 234 -52t98 -127q20 -76 21 -222v-240q-1 -251 9 -317t38 -128h-154q-23 55 -30 131q-149 -155 -320 -155q-136 0 -217 82t-81 221zM471 1364l-92 -170h-169l177 280h158l184 -280h-167z" />
    <glyph glyph-name="atilde" unicode="&#xe3;" 
d="M215 270q0 -62 47 -108t128 -45q82 0 146 41q64 42 96 110t32 199v66q-82 -40 -208 -62q-126 -23 -163 -43t-57 -58t-21 -100zM58 279q0 92 38 163t104 111q66 41 223 63t241 58l1 46q0 109 -39 153q-56 64 -164 64q-108 -1 -159 -43t-75 -159l-145 24q31 171 125 249
t252 78q156 0 234 -52t98 -127q20 -76 21 -222v-240q-1 -251 9 -317t38 -128h-154q-23 55 -30 131q-149 -155 -320 -155q-136 0 -217 82t-81 221zM339 1423q61 0 129 -42t95 -42q27 -1 41 17t20 70h107q-3 -116 -49 -172t-104 -56q-59 0 -129 46t-96 46t-44 -24t-18 -71
h-109q0 107 48 167t109 61z" />
    <glyph glyph-name="adieresis" unicode="&#xe4;" 
d="M215 270q0 -62 47 -108t128 -45q82 0 146 41q64 42 96 110t32 199v66q-82 -40 -208 -62q-126 -23 -163 -43t-57 -58t-21 -100zM58 279q0 92 38 163t104 111q66 41 223 63t241 58l1 46q0 109 -39 153q-56 64 -164 64q-108 -1 -159 -43t-75 -159l-145 24q31 171 125 249
t252 78q156 0 234 -52t98 -127q20 -76 21 -222v-240q-1 -251 9 -317t38 -128h-154q-23 55 -30 131q-149 -155 -320 -155q-136 0 -217 82t-81 221zM530 1270v205h154v-205h-154zM224 1270v205h154v-205h-154z" />
    <glyph glyph-name="aring" unicode="&#xe5;" 
d="M215 270q0 -62 47 -108t128 -45q82 0 146 41q64 42 96 110t32 199v66q-82 -40 -208 -62q-126 -23 -163 -43t-57 -58t-21 -100zM58 279q0 92 38 163t104 111q66 41 223 63t241 58l1 46q0 109 -39 153q-56 64 -164 64q-108 -1 -159 -43t-75 -159l-145 24q31 171 125 249
t252 78q156 0 234 -52t98 -127q20 -76 21 -222v-240q-1 -251 9 -317t38 -128h-154q-23 55 -30 131q-149 -155 -320 -155q-136 0 -217 82t-81 221zM366 1379q0 -47 26 -78t60 -31t60 31t27 78q0 47 -26 78q-27 31 -61 31t-60 -31t-26 -78zM303 1378q1 79 45 131t102 52
t104 -52q44 -51 44 -131t-44 -132t-103 -51q-59 0 -103 52t-45 131z" />
    <glyph glyph-name="ae" unicode="&#xe6;" horiz-adv-x="1493" 
d="M209 286q0 -76 45.5 -122t131.5 -46t157.5 57t92.5 146q12 50 11 212q-65 -35 -263 -73q-90 -18 -132 -58t-43 -116zM1032 937q-98 0 -165 -78t-75 -226h479q-12 160 -76.5 232t-162.5 72zM457 1086q228 0 298 -143q108 143 279 143q231 0 309.5 -188t78.5 -353l-1 -60
h-629q1 -148 29.5 -213t89.5 -106.5t137 -41.5t135.5 58t81.5 167l154 -24q-42 -173 -141.5 -261t-242.5 -88q-200 0 -324 198q-164 -198 -362 -198q-133 0 -214.5 85t-81.5 218q0 90 41 163.5t110.5 112.5t213.5 62t227 52l1 41q0 129 -45 178t-151 49t-156.5 -42
t-73.5 -162l-143 21q34 178 125.5 255t254.5 77z" />
    <glyph glyph-name="ccedilla" unicode="&#xe7;" horiz-adv-x="840" 
d="M494 -84q141 -21 141 -160q-1 -68 -63 -122t-152 -55q-90 0 -140 12l9 117q53 -4 101 -4t78 21t30 54q0 65 -129 67l33 134q-134 20 -226 136q-110 140 -111 417t111 415t287 138q135 0 227 -84t119 -252l-143 -27q-21 107 -73 161t-125 54q-108 0 -180 -96t-72 -310
t68 -311t164 -97q199 0 231 265l145 -23q-25 -190 -116 -280t-197 -106z" />
    <glyph glyph-name="egrave" unicode="&#xe8;" 
d="M470 938q-104 0 -174 -82t-77 -223h486q-10 138 -59 206q-72 99 -176 99zM472 -24q-186 0 -300 140t-114 411t116 415t288 144q173 0 286 -142t113 -411l-1 -48h-650q9 -179 83 -270t180 -91q166 0 231 218l152 -23q-38 -171 -138 -257t-246 -86zM585 1194h-119l-189 280
h198z" />
    <glyph glyph-name="eacute" unicode="&#xe9;" 
d="M470 938q-104 0 -174 -82t-77 -223h486q-10 138 -59 206q-72 99 -176 99zM472 -24q-186 0 -300 140t-114 411t116 415t288 144q173 0 286 -142t113 -411l-1 -48h-650q9 -179 83 -270t180 -91q166 0 231 218l152 -23q-38 -171 -138 -257t-246 -86zM355 1194l109 280h193
l-180 -280h-122z" />
    <glyph glyph-name="ecircumflex" unicode="&#xea;" 
d="M470 938q-104 0 -174 -82t-77 -223h486q-10 138 -59 206q-72 99 -176 99zM472 -24q-186 0 -300 140t-114 411t116 415t288 144q173 0 286 -142t113 -411l-1 -48h-650q9 -179 83 -270t180 -91q166 0 231 218l152 -23q-38 -171 -138 -257t-246 -86zM490 1364l-92 -170h-169
l177 280h158l184 -280h-167z" />
    <glyph glyph-name="edieresis" unicode="&#xeb;" 
d="M470 938q-104 0 -174 -82t-77 -223h486q-10 138 -59 206q-72 99 -176 99zM472 -24q-186 0 -300 140t-114 411t116 415t288 144q173 0 286 -142t113 -411l-1 -48h-650q9 -179 83 -270t180 -91q166 0 231 218l152 -23q-38 -171 -138 -257t-246 -86zM544 1270v205h154v-205
h-154zM238 1270v205h154v-205h-154z" />
    <glyph glyph-name="igrave" unicode="&#xec;" horiz-adv-x="467" 
d="M166 0v1062h147v-1062h-147zM328 1194h-119l-189 280h198z" />
    <glyph glyph-name="iacute" unicode="&#xed;" horiz-adv-x="467" 
d="M166 0v1062h147v-1062h-147zM129 1194l109 280h193l-180 -280h-122z" />
    <glyph glyph-name="icircumflex" unicode="&#xee;" horiz-adv-x="467" 
d="M166 0v1062h147v-1062h-147zM247 1364l-92 -170h-169l177 280h158l184 -280h-167z" />
    <glyph glyph-name="idieresis" unicode="&#xef;" horiz-adv-x="467" 
d="M166 0v1062h147v-1062h-147zM310 1270v205h154v-205h-154zM4 1270v205h154v-205h-154z" />
    <glyph glyph-name="eth" unicode="&#xf0;" 
d="M711 524q0 196 -74.5 298t-181.5 102t-177 -100.5t-70 -304.5t72 -300.5t178 -96.5t179.5 103t73.5 299zM863 523q0 -261 -115.5 -404.5t-287.5 -143.5q-115 0 -259 97.5t-144 443.5q0 267 107.5 406.5t262.5 139.5q47 0 83.5 -12t90.5 -47q-47 116 -116 213l-226 -127
l-36 103l197 109q-80 90 -170 165h177q60 -54 103 -102l175 102l38 -102l-142 -83q262 -368 262 -758z" />
    <glyph glyph-name="ntilde" unicode="&#xf1;" 
d="M487 930q-232 0 -232 -350v-580h-147v1062h133v-151q95 175 277 175q70 0 130 -28t96 -72t54 -115t18 -218v-653h-148v646q0 117 -20 171q-20 53 -62 83t-99 30zM366 1423q60 0 128 -42t96 -42q28 -1 42 17t19 70h107q-2 -116 -48 -172t-105 -56t-129 46t-96 46t-44 -24
t-18 -71h-109q-1 107 47 167t110 61z" />
    <glyph glyph-name="ograve" unicode="&#xf2;" 
d="M204 530q0 -206 75 -306t183 -100t182 102t74 306t-75 304t-183 101q-108 0 -182 -101t-74 -306zM53 532q-1 274 115 414t292 140t292 -140q117 -140 117 -415t-115 -415q-116 -140 -292 -140t-292 140q-116 142 -117 416zM575 1194h-119l-189 280h198z" />
    <glyph glyph-name="oacute" unicode="&#xf3;" 
d="M204 530q0 -206 75 -306t183 -100t182 102t74 306t-75 304t-183 101q-108 0 -182 -101t-74 -306zM53 532q-1 274 115 414t292 140t292 -140q117 -140 117 -415t-115 -415q-116 -140 -292 -140t-292 140q-116 142 -117 416zM353 1194l109 280h193l-180 -280h-122z" />
    <glyph glyph-name="ocircumflex" unicode="&#xf4;" 
d="M204 530q0 -206 75 -306t183 -100t182 102t74 306t-75 304t-183 101q-108 0 -182 -101t-74 -306zM53 532q-1 274 115 414t292 140t292 -140q117 -140 117 -415t-115 -415q-116 -140 -292 -140t-292 140q-116 142 -117 416zM461 1364l-92 -170h-169l177 280h158l184 -280
h-167z" />
    <glyph glyph-name="otilde" unicode="&#xf5;" 
d="M204 530q0 -206 75 -306t183 -100t182 102t74 306t-75 304t-183 101q-108 0 -182 -101t-74 -306zM53 532q-1 274 115 414t292 140t292 -140q117 -140 117 -415t-115 -415q-116 -140 -292 -140t-292 140q-116 142 -117 416zM334 1423q60 0 128 -42t96 -42q28 -1 42 17
t19 70h107q-2 -116 -48 -172t-105 -56t-129 46t-96 46t-44 -24t-18 -71h-109q-1 107 47 167t110 61z" />
    <glyph glyph-name="odieresis" unicode="&#xf6;" 
d="M204 530q0 -206 75 -306t183 -100t182 102t74 306t-75 304t-183 101q-108 0 -182 -101t-74 -306zM53 532q-1 274 115 414t292 140t292 -140q117 -140 117 -415t-115 -415q-116 -140 -292 -140t-292 140q-116 142 -117 416zM530 1270v205h154v-205h-154zM224 1270v205h154
v-205h-154z" />
    <glyph glyph-name="divide" unicode="&#xf7;" horiz-adv-x="1124" 
d="M459 319v205h205v-205h-205zM1046 639h-968v168h968v-168zM459 922v205h205v-205h-205z" />
    <glyph glyph-name="oslash" unicode="&#xf8;" horiz-adv-x="1026" 
d="M516 124q112 0 187 100.5t75 309.5q0 126 -39 236l-367 -583q63 -63 144 -63zM509 937q-94 0 -169.5 -101.5t-75.5 -277.5t43 -278l371 587q-75 70 -169 70zM518 1086q120 0 243 -87l81 128l79 -70l-88 -138q53 -89 75 -175t21 -213q0 -277 -116 -416t-299 -139
q-125 0 -225 80l-86 -135l-77 71l89 141q-102 142 -102 406q0 263 115 405t290 142z" />
    <glyph glyph-name="ugrave" unicode="&#xf9;" 
d="M403 -24q-103 0 -176 56t-97 140q-24 85 -25 232v658h147v-589q0 -163 16 -219t62 -90q44 -34 101 -33q106 0 169 81t63 281v569h148v-1062h-132v156q-102 -180 -276 -180zM521 1194h-119l-189 280h198z" />
    <glyph glyph-name="uacute" unicode="&#xfa;" 
d="M403 -24q-103 0 -176 56t-97 140q-24 85 -25 232v658h147v-589q0 -163 16 -219t62 -90q44 -34 101 -33q106 0 169 81t63 281v569h148v-1062h-132v156q-102 -180 -276 -180zM353 1194l109 280h193l-180 -280h-122z" />
    <glyph glyph-name="ucircumflex" unicode="&#xfb;" 
d="M403 -24q-103 0 -176 56t-97 140q-24 85 -25 232v658h147v-589q0 -163 16 -219t62 -90q44 -34 101 -33q106 0 169 81t63 281v569h148v-1062h-132v156q-102 -180 -276 -180zM467 1364l-92 -170h-169l177 280h158l184 -280h-167z" />
    <glyph glyph-name="udieresis" unicode="&#xfc;" 
d="M403 -24q-103 0 -176 56t-97 140q-24 85 -25 232v658h147v-589q0 -163 16 -219t62 -90q44 -34 101 -33q106 0 169 81t63 281v569h148v-1062h-132v156q-102 -180 -276 -180zM538 1270v205h154v-205h-154zM232 1270v205h154v-205h-154z" />
    <glyph glyph-name="yacute" unicode="&#xfd;" horiz-adv-x="840" 
d="M178 -256q83 0 122 78q7 14 58 176l-331 1064h159l182 -615q34 -115 63 -246q25 124 60 242l186 619h148l-331 -1080q-64 -210 -102 -280q-70 -132 -193 -133q-42 0 -95 22l-16 169q49 -16 90 -16zM311 1194l109 280h193l-180 -280h-122z" />
    <glyph glyph-name="thorn" unicode="&#xfe;" 
d="M241 524q0 -206 69 -303t165 -97t167 101t71 311t-69 309.5t-163 99.5t-167 -107.5t-73 -313.5zM108 -407v1873h147v-516q62 79 115.5 107.5t139.5 28.5t169.5 -61t134 -185.5t50.5 -299.5q0 -270 -113.5 -417t-265.5 -147q-65 0 -117 28t-113 106v-517h-147z" />
    <glyph glyph-name="ydieresis" unicode="&#xff;" horiz-adv-x="840" 
d="M178 -256q83 0 122 78q7 14 58 176l-331 1064h159l182 -615q34 -115 63 -246q25 124 60 242l186 619h148l-331 -1080q-64 -210 -102 -280q-70 -132 -193 -133q-42 0 -95 22l-16 169q49 -16 90 -16zM492 1270v205h154v-205h-154zM186 1270v205h154v-205h-154z" />
    <glyph glyph-name="Amacron" unicode="&#x100;" horiz-adv-x="1120" 
d="M345 602h407l-125 406q-58 187 -85 304q-23 -141 -65 -280zM-2 0l462 1466h171l492 -1466h-182l-140 444h-502l-132 -444h-169zM297 1567v148h512v-148h-512z" />
    <glyph glyph-name="amacron" unicode="&#x101;" 
d="M215 270q0 -62 47 -108t128 -45q82 0 146 41q64 42 96 110t32 199v66q-82 -40 -208 -62q-126 -23 -163 -43t-57 -58t-21 -100zM58 279q0 92 38 163t104 111q66 41 223 63t241 58l1 46q0 109 -39 153q-56 64 -164 64q-108 -1 -159 -43t-75 -159l-145 24q31 171 125 249
t252 78q156 0 234 -52t98 -127q20 -76 21 -222v-240q-1 -251 9 -317t38 -128h-154q-23 55 -30 131q-149 -155 -320 -155q-136 0 -217 82t-81 221zM194 1196v148h512v-148h-512z" />
    <glyph glyph-name="Abreve" unicode="&#x102;" horiz-adv-x="1120" 
d="M345 602h407l-125 406q-58 187 -85 304q-23 -141 -65 -280zM-2 0l462 1466h171l492 -1466h-182l-140 444h-502l-132 -444h-169zM544 1568q-100 0 -164 65t-78 194h101q23 -135 137 -135q64 0 99 32t47 103h101q-13 -129 -78 -194t-165 -65z" />
    <glyph glyph-name="abreve" unicode="&#x103;" 
d="M215 270q0 -62 47 -108t128 -45q82 0 146 41q64 42 96 110t32 199v66q-82 -40 -208 -62q-126 -23 -163 -43t-57 -58t-21 -100zM58 279q0 92 38 163t104 111q66 41 223 63t241 58l1 46q0 109 -39 153q-56 64 -164 64q-108 -1 -159 -43t-75 -159l-145 24q31 171 125 249
t252 78q156 0 234 -52t98 -127q20 -76 21 -222v-240q-1 -251 9 -317t38 -128h-154q-23 55 -30 131q-149 -155 -320 -155q-136 0 -217 82t-81 221zM452 1205q-100 0 -164 65t-78 194h101q23 -135 137 -135q64 0 99 32t47 103h101q-13 -129 -78 -194t-165 -65z" />
    <glyph glyph-name="Aogonek" unicode="&#x104;" horiz-adv-x="1120" 
d="M345 602h407l-125 406q-58 187 -85 304q-23 -141 -65 -280zM1045 -143q0 -67 34 -108t90 -41t131 46v-119q-96 -60 -177 -60t-131 58t-51 150q0 92 28 217h-28l-140 444h-502l-132 -444h-169l462 1466h171l492 -1466h-55q-23 -76 -23 -143z" />
    <glyph glyph-name="aogonek" unicode="&#x105;" 
d="M215 270q0 -62 47 -108t128 -45q82 0 146 41q64 42 96 110t32 199v66q-82 -40 -208 -62q-126 -23 -163 -43t-57 -58t-21 -100zM58 279q0 92 38 163t104 111q66 41 223 63t241 58l1 46q0 109 -39 153q-56 64 -164 64q-108 -1 -159 -43t-75 -159l-145 24q31 171 125 249
t252 78q156 0 234 -52t98 -127q20 -76 21 -222v-240q-1 -251 9 -317t38 -128h-30q-23 -75 -23 -143q0 -67 34 -108t90 -41t131 46v-119q-96 -60 -177 -60t-131 58t-51 150q0 92 28 217h-25q-23 55 -30 131q-149 -155 -320 -155q-136 0 -217 82t-81 221z" />
    <glyph glyph-name="Cacute" unicode="&#x106;" horiz-adv-x="1212" 
d="M646 -25q-178 -1 -296 81t-194 262t-76 424t76 410q76 168 204 254q130 86 296 85t291 -109t175 -318l-156 -45q-80 306 -324 306t-346 -253q-52 -130 -52 -329q0 -301 106 -451t282 -151q130 1 224 93t127 280l160 -49q-53 -247 -185 -369q-134 -122 -312 -121z
M485 1566l109 280h193l-180 -280h-122z" />
    <glyph glyph-name="cacute" unicode="&#x107;" horiz-adv-x="840" 
d="M457 -24q-171 0 -281 140t-111 417t111 415t287 138q135 0 227 -84t119 -252l-143 -27q-21 107 -73 161t-125 54q-108 0 -180 -96t-72 -310t68 -311t164 -97q199 0 231 265l145 -23q-26 -190 -126 -290t-241 -100zM323 1194l109 280h193l-180 -280h-122z" />
    <glyph glyph-name="Ccircumflex" unicode="&#x108;" horiz-adv-x="1212" 
d="M646 -25q-178 -1 -296 81t-194 262t-76 424t76 410q76 168 204 254q130 86 296 85t291 -109t175 -318l-156 -45q-80 306 -324 306t-346 -253q-52 -130 -52 -329q0 -301 106 -451t282 -151q130 1 224 93t127 280l160 -49q-53 -247 -185 -369q-134 -122 -312 -121z
M643 1737l-92 -170h-169l177 280h158l184 -280h-167z" />
    <glyph glyph-name="ccircumflex" unicode="&#x109;" horiz-adv-x="840" 
d="M457 -24q-171 0 -281 140t-111 417t111 415t287 138q135 0 227 -84t119 -252l-143 -27q-21 107 -73 161t-125 54q-108 0 -180 -96t-72 -310t68 -311t164 -97q199 0 231 265l145 -23q-26 -190 -126 -290t-241 -100zM482 1364l-92 -170h-169l177 280h158l184 -280h-167z
" />
    <glyph glyph-name="Cdot" unicode="&#x10a;" horiz-adv-x="1212" 
d="M646 -25q-178 -1 -296 81t-194 262t-76 424t76 410q76 168 204 254q130 86 296 85t291 -109t175 -318l-156 -45q-80 306 -324 306t-346 -253q-52 -130 -52 -329q0 -301 106 -451t282 -151q130 1 224 93t127 280l160 -49q-53 -247 -185 -369q-134 -122 -312 -121z
M530 1567v224h183v-224h-183z" />
    <glyph glyph-name="cdot" unicode="&#x10b;" horiz-adv-x="840" 
d="M457 -24q-171 0 -281 140t-111 417t111 415t287 138q135 0 227 -84t119 -252l-143 -27q-21 107 -73 161t-125 54q-108 0 -180 -96t-72 -310t68 -311t164 -97q199 0 231 265l145 -23q-26 -190 -126 -290t-241 -100zM362 1194v224h183v-224h-183z" />
    <glyph glyph-name="Ccaron" unicode="&#x10c;" horiz-adv-x="1212" 
d="M646 -25q-178 -1 -296 81t-194 262t-76 424t76 410q76 168 204 254q130 86 296 85t291 -109t175 -318l-156 -45q-80 306 -324 306t-346 -253q-52 -130 -52 -329q0 -301 106 -451t282 -151q130 1 224 93t127 280l160 -49q-53 -247 -185 -369q-134 -122 -312 -121z
M625 1677l91 170h167l-184 -280h-158l-177 280h169z" />
    <glyph glyph-name="ccaron" unicode="&#x10d;" horiz-adv-x="840" 
d="M457 -24q-171 0 -281 140t-111 417t111 415t287 138q135 0 227 -84t119 -252l-143 -27q-21 107 -73 161t-125 54q-108 0 -180 -96t-72 -310t68 -311t164 -97q199 0 231 265l145 -23q-26 -190 -126 -290t-241 -100zM471 1304l91 170h167l-184 -280h-158l-177 280h169z" />
    <glyph glyph-name="Dcaron" unicode="&#x10e;" horiz-adv-x="1212" 
d="M285 173h256q155 1 235 51t130 180t50 346t-60 344t-156 170q-64 29 -203 29h-252v-1120zM126 0v1466h415q155 0 247 -31t169 -124q163 -197 163 -570q0 -249 -73 -423t-187 -246t-300 -72h-434zM582 1677l91 170h167l-184 -280h-158l-177 280h169z" />
    <glyph glyph-name="dcaron" unicode="&#x10f;" horiz-adv-x="1032" 
d="M206 532q0 -208 72 -308t166 -100t163 96t69 304t-69 312q-69 102 -168 102t-166 -98q-67 -100 -67 -308zM673 0v134q-40 -78 -103 -118t-136 -40q-154 0 -266 146t-113 409q0 181 50 307q49 126 133 187t172 61q167 0 253 -146v526h148v-1466h-138zM885 1283v184h151
v-184q0 -161 -123 -227l-37 69q78 43 84 158h-75z" />
    <glyph glyph-name="Dslash" unicode="&#x110;" horiz-adv-x="1212" 
d="M285 173h256q155 1 235 51t130 180t50 348q0 216 -61 343t-156 170q-64 28 -202 28h-252v-494h332v-132h-332v-494zM126 0v667h-132v132h132v667h415q155 0 247 -31t169 -124q163 -197 163 -571q0 -211 -54 -369q-54 -157 -132 -237t-164 -107t-210 -27h-434z" />
    <glyph glyph-name="dmacron" unicode="&#x111;" horiz-adv-x="928" 
d="M209 532q0 -208 71.5 -308t165.5 -100t163.5 96t69.5 304t-69 311t-168 103t-166 -99t-67 -307zM666 1224h-283v104h283v138h148v-138h118v-104h-118v-1224h-138v134q-40 -77 -103 -117.5t-136 -40.5q-154 0 -266.5 145.5t-112.5 409.5q0 181 50 307t133 187t171 61
q167 0 254 -146v284z" />
    <glyph glyph-name="Emacron" unicode="&#x112;" horiz-adv-x="1120" 
d="M133 0v1466h869v-173h-710v-449h665v-172h-665v-499h738v-173h-897zM324 1568v148h512v-148h-512z" />
    <glyph glyph-name="emacron" unicode="&#x113;" 
d="M470 938q-104 0 -174 -82t-77 -223h486q-10 138 -59 206q-72 99 -176 99zM472 -24q-186 0 -300 140t-114 411t116 415t288 144q173 0 286 -142t113 -411l-1 -48h-650q9 -179 83 -270t180 -91q166 0 231 218l152 -23q-38 -171 -138 -257t-246 -86zM198 1196v148h512v-148
h-512z" />
    <glyph glyph-name="Ebreve" unicode="&#x114;" horiz-adv-x="1120" 
d="M133 0v1466h869v-173h-710v-449h665v-172h-665v-499h738v-173h-897zM563 1566q-101 0 -165 65t-77 194h101q23 -135 137 -135q64 0 99 32t47 103h101q-13 -129 -78 -194t-165 -65z" />
    <glyph glyph-name="ebreve" unicode="&#x115;" 
d="M470 938q-104 0 -174 -82t-77 -223h486q-10 138 -59 206q-72 99 -176 99zM472 -24q-186 0 -300 140t-114 411t116 415t288 144q173 0 286 -142t113 -411l-1 -48h-650q9 -179 83 -270t180 -91q166 0 231 218l152 -23q-38 -171 -138 -257t-246 -86zM442 1193
q-100 0 -164 65t-78 194h101q23 -135 137 -135q64 0 99 32t47 103h101q-13 -129 -78 -194t-165 -65z" />
    <glyph glyph-name="Edot" unicode="&#x116;" horiz-adv-x="1120" 
d="M133 0v1466h869v-173h-710v-449h665v-172h-665v-499h738v-173h-897zM500 1567v224h183v-224h-183z" />
    <glyph glyph-name="edot" unicode="&#x117;" 
d="M470 938q-104 0 -174 -82t-77 -223h486q-10 138 -59 206q-72 99 -176 99zM472 -24q-186 0 -300 140t-114 411t116 415t288 144q173 0 286 -142t113 -411l-1 -48h-650q9 -179 83 -270t180 -91q166 0 231 218l152 -23q-38 -171 -138 -257t-246 -86zM374 1194v224h183v-224
h-183z" />
    <glyph glyph-name="Eogonek" unicode="&#x118;" horiz-adv-x="1120" 
d="M133 0v1466h869v-173h-710v-449h665v-172h-665v-499h738v-173h-316q-23 -75 -23 -143q0 -67 34 -108t90 -41t131 46v-119q-96 -60 -177 -60t-131 58t-51 150q0 92 28 217h-482z" />
    <glyph glyph-name="eogonek" unicode="&#x119;" 
d="M470 938q-104 0 -174 -82t-77 -223h486q-10 138 -59 206q-72 99 -176 99zM606 -292q56 0 131 46v-119q-96 -60 -177 -60q-82 0 -132 58t-50 147t24 201q-138 21 -230 135q-114 140 -114 411t116 415t288 144q173 0 286 -142t113 -411l-1 -48h-650q9 -179 83 -270t180 -91
q166 0 231 218l152 -23q-38 -170 -133 -253t-225 -89q-41 -157 18 -228q34 -41 90 -41z" />
    <glyph glyph-name="Ecaron" unicode="&#x11a;" horiz-adv-x="1120" 
d="M133 0v1466h869v-173h-710v-449h665v-172h-665v-499h738v-173h-897zM588 1677l91 170h167l-184 -280h-158l-177 280h169z" />
    <glyph glyph-name="ecaron" unicode="&#x11b;" 
d="M470 938q-104 0 -174 -82t-77 -223h486q-10 138 -59 206q-72 99 -176 99zM472 -24q-186 0 -300 140t-114 411t116 415t288 144q173 0 286 -142t113 -411l-1 -48h-650q9 -179 83 -270t180 -91q166 0 231 218l152 -23q-38 -171 -138 -257t-246 -86zM460 1304l91 170h167
l-184 -280h-158l-177 280h169z" />
    <glyph glyph-name="Gcircumflex" unicode="&#x11c;" horiz-adv-x="1307" 
d="M93 728q0 238 81 416q158 347 522 347q260 0 394 -188q64 -90 96 -247l-143 -48q-29 124 -73 186q-94 132 -278 131q-266 0 -378 -261q-58 -134 -57 -327q0 -295 123 -441t320 -146q94 0 192 45t157 107v273h-353v172l509 1v-544q-235 -229 -499 -229q-176 0 -314 88
t-218 257q-80 170 -81 408zM693 1737l-92 -170h-169l177 280h158l184 -280h-167z" />
    <glyph glyph-name="gcircumflex" unicode="&#x11d;" 
d="M203 542q0 -200 69 -297q69 -96 169 -96t170 94q70 95 70 297t-72 300q-71 98 -169 97q-98 1 -168 -97t-69 -298zM429 1086q155 0 253 -152v128h136v-918q0 -246 -40 -350t-131 -164t-239 -61q-148 0 -240 91q-91 91 -88 252l144 -26q20 -168 205 -168t227 185
q13 56 13 236q-97 -139 -247 -139t-260 142t-111 397q0 171 52 299q101 248 326 248zM461 1364l-92 -170h-169l177 280h158l184 -280h-167z" />
    <glyph glyph-name="Gbreve" unicode="&#x11e;" horiz-adv-x="1307" 
d="M93 728q0 238 81 416q158 347 522 347q260 0 394 -188q64 -90 96 -247l-143 -48q-29 124 -73 186q-94 132 -278 131q-266 0 -378 -261q-58 -134 -57 -327q0 -295 123 -441t320 -146q94 0 192 45t157 107v273h-353v172l509 1v-544q-235 -229 -499 -229q-176 0 -314 88
t-218 257q-80 170 -81 408zM658 1567q-100 0 -164 65t-78 194h101q23 -135 137 -135q64 0 99 32t47 103h101q-13 -129 -78 -194t-165 -65z" />
    <glyph glyph-name="gbreve" unicode="&#x11f;" 
d="M203 542q0 -200 69 -297q69 -96 169 -96t170 94q70 95 70 297t-72 300q-71 98 -169 97q-98 1 -168 -97t-69 -298zM429 1086q155 0 253 -152v128h136v-918q0 -246 -40 -350t-131 -164t-239 -61q-148 0 -240 91q-91 91 -88 252l144 -26q20 -168 205 -168t227 185
q13 56 13 236q-97 -139 -247 -139t-260 142t-111 397q0 171 52 299q101 248 326 248zM434 1205q-100 0 -164 65t-78 194h101q23 -135 137 -135q64 0 99 32t47 103h101q-13 -129 -78 -194t-165 -65z" />
    <glyph glyph-name="Gdot" unicode="&#x120;" horiz-adv-x="1307" 
d="M93 728q0 238 81 416q158 347 522 347q260 0 394 -188q64 -90 96 -247l-143 -48q-29 124 -73 186q-94 132 -278 131q-266 0 -378 -261q-58 -134 -57 -327q0 -295 123 -441t320 -146q94 0 192 45t157 107v273h-353v172l509 1v-544q-235 -229 -499 -229q-176 0 -314 88
t-218 257q-80 170 -81 408zM590 1567v224h183v-224h-183z" />
    <glyph glyph-name="gdot" unicode="&#x121;" 
d="M203 542q0 -200 69 -297q69 -96 169 -96t170 94q70 95 70 297t-72 300q-71 98 -169 97q-98 1 -168 -97t-69 -298zM429 1086q155 0 253 -152v128h136v-918q0 -246 -40 -350t-131 -164t-239 -61q-148 0 -240 91q-91 91 -88 252l144 -26q20 -168 205 -168t227 185
q13 56 13 236q-97 -139 -247 -139t-260 142t-111 397q0 171 52 299q101 248 326 248zM353 1194v224h183v-224h-183z" />
    <glyph glyph-name="Gcedilla" unicode="&#x122;" horiz-adv-x="1307" 
d="M702 -84q141 -21 141 -160q-1 -68 -63 -122t-152 -55q-90 0 -140 12l9 117q53 -4 101 -4t78 21t30 54q0 65 -129 67l33 136q-119 18 -218 81q-138 88 -218 257q-80 170 -81 408q0 238 81 416q158 347 522 347q260 0 394 -188q64 -90 96 -247l-143 -48q-29 124 -73 186
q-94 132 -278 131q-266 0 -378 -261q-58 -134 -57 -327q0 -295 123 -441t320 -146q94 0 192 45t157 107v273h-353v172l509 1v-544q-230 -224 -488 -229z" />
    <glyph glyph-name="gcedilla" unicode="&#x123;" 
d="M203 542q0 -200 69 -297q69 -96 169 -96t170 94q70 95 70 297t-72 300q-71 98 -169 97q-98 1 -168 -97t-69 -298zM429 1086q155 0 253 -152v128h136v-918q0 -246 -40 -350t-131 -164t-239 -61q-148 0 -240 91q-91 91 -88 252l144 -26q20 -168 205 -168t227 185
q13 56 13 236q-97 -139 -247 -139t-260 142t-111 397q0 171 52 299q101 248 326 248zM495 1379v-184h-151v184q0 161 123 227l37 -69q-78 -43 -84 -158h75z" />
    <glyph glyph-name="Hcircumflex" unicode="&#x124;" horiz-adv-x="1212" 
d="M129 0v1466h159v-602h625v602h159v-1466h-159v691h-625v-691h-159zM599 1737l-92 -170h-169l177 280h158l184 -280h-167z" />
    <glyph glyph-name="hcircumflex" unicode="&#x125;" 
d="M670 673q0 258 -184 258q-96 0 -164 -77t-67 -273v-581h-147v1466h147v-526q105 146 253 146t228 -88t81 -325v-673h-147v673zM482 1737l-92 -170h-169l177 280h158l184 -280h-167z" />
    <glyph glyph-name="Hbar" unicode="&#x126;" horiz-adv-x="1212" 
d="M920 1127h-625v-263h625v263zM1079 1127v-1127h-159v692h-625v-692h-160v1127h-111v148h111v191h160v-191h625v191h159v-191h113v-148h-113z" />
    <glyph glyph-name="hbar" unicode="&#x127;" 
d="M670 673q0 258 -184 258q-96 0 -163.5 -77t-67.5 -273v-581h-147v1187h-160v148h160v131h147v-131h205v-148h-205v-247q105 146 253 146t228.5 -88.5t80.5 -324.5v-673h-147v673z" />
    <glyph glyph-name="Itilde" unicode="&#x128;" horiz-adv-x="467" 
d="M160 0v1466h159v-1466h-159zM124 1796q60 0 128 -42t96 -42t42 18t19 69h107q-2 -115 -48 -171t-105 -57q-59 0 -129 46t-96 46q-26 1 -44 -23t-18 -72h-109q-1 108 47 168t110 60z" />
    <glyph glyph-name="itilde" unicode="&#x129;" horiz-adv-x="467" 
d="M166 0v1062h147v-1062h-147zM115 1423q61 0 129 -42t95 -42q27 -1 41 17t20 70h107q-3 -116 -49 -172t-104 -56q-59 0 -129 46t-96 46t-44 -24t-18 -71h-109q0 107 48 167t109 61z" />
    <glyph glyph-name="Imacron" unicode="&#x12a;" horiz-adv-x="467" 
d="M160 0v1466h159v-1466h-159zM-24 1568v148h512v-148h-512z" />
    <glyph glyph-name="imacron" unicode="&#x12b;" horiz-adv-x="467" 
d="M166 0v1062h147v-1062h-147zM-23 1195v148h512v-148h-512z" />
    <glyph glyph-name="Ibreve" unicode="&#x12c;" horiz-adv-x="467" 
d="M160 0v1466h159v-1466h-159zM240 1566q-100 0 -164 65t-78 194h101q23 -135 137 -135q64 0 99 32t47 103h101q-13 -129 -78 -194t-165 -65z" />
    <glyph glyph-name="ibreve" unicode="&#x12d;" horiz-adv-x="467" 
d="M166 0v1062h147v-1062h-147zM238 1205q-100 0 -164 65t-78 194h101q23 -135 137 -135q64 0 99 32t47 103h101q-13 -129 -78 -194t-165 -65z" />
    <glyph glyph-name="Iogonek" unicode="&#x12e;" horiz-adv-x="467" 
d="M160 1466h159v-1466h-39q-23 -75 -23 -143q0 -67 34 -108t90 -41t131 46v-119q-96 -60 -177 -60t-131 58t-51 150q0 92 28 217h-21v1466z" />
    <glyph glyph-name="iogonek" unicode="&#x12f;" horiz-adv-x="373" 
d="M108 1062h147v-1062h-28q-23 -75 -23 -143q0 -67 34 -108t90 -41t131 46v-119q-96 -60 -177 -60q-82 0 -132 58t-50 150t28 217h-20v1062zM108 1259v207h147v-207h-147z" />
    <glyph glyph-name="Idot" unicode="&#x130;" horiz-adv-x="467" 
d="M160 0v1466h159v-1466h-159zM149 1567v224h183v-224h-183z" />
    <glyph glyph-name="dotlessi" unicode="&#x131;" horiz-adv-x="467" 
d="M166 0v1062h147v-1062h-147z" />
    <glyph glyph-name="IJ" unicode="&#x132;" horiz-adv-x="1307" 
d="M160 0v1466h159v-1466h-159zM823 148q69 0 113 32t61 88q18 56 18 188v1010h159v-999q0 -270 -88 -381t-248 -111q-325 0 -325 441l143 24q6 -168 52 -230t115 -62z" />
    <glyph glyph-name="ij" unicode="&#x133;" horiz-adv-x="746" 
d="M108 0v1062h147v-1062h-147zM108 1259v207h147v-207h-147zM400 -273q36 0 58 37t21 182v1116h147v-1120q0 -217 -56 -295t-162 -78q-60 0 -116 19l28 153q44 -14 80 -14zM479 1257v209h147v-209h-147z" />
    <glyph glyph-name="Jcircumflex" unicode="&#x134;" horiz-adv-x="840" 
d="M355 148q69 0 113 32t61 88q18 56 18 188v1010h159v-999q0 -270 -88 -381t-248 -111q-325 0 -325 441l143 24q6 -168 52 -230t115 -62zM635 1737l-92 -170h-169l177 280h158l184 -280h-167z" />
    <glyph glyph-name="jcircumflex" unicode="&#x135;" horiz-adv-x="373" 
d="M189 1364l-92 -170h-169l177 280h158l184 -280h-167zM28 -273q36 0 57.5 37t21.5 182v1116h147v-1120q0 -217 -55.5 -295t-162.5 -78q-60 0 -116 19l28 153q44 -14 80 -14z" />
    <glyph glyph-name="Kcedilla" unicode="&#x136;" horiz-adv-x="1120" 
d="M124 0v1466h159v-727l597 727h216l-505 -594l527 -872h-210l-428 742l-197 -234v-508h-159zM649 -221q0 65 -129 67l12 74q78 0 130 -8t88 -48t36 -108t-62 -122t-152 -55q-90 0 -141 12l9 117q52 -4 100 -4t78 21t31 54z" />
    <glyph glyph-name="kcedilla" unicode="&#x137;" horiz-adv-x="840" 
d="M107 0v1466h147v-836l350 432h191l-333 -394l366 -668h-181l-289 543l-104 -122v-421h-147zM443 -221q0 65 -129 67l12 74q78 0 130 -8t88 -48t36 -108t-62 -122t-152 -55q-90 0 -141 12l9 117q52 -4 100 -4t78 21t31 54z" />
    <glyph glyph-name="kgreenlandic" unicode="&#x138;" horiz-adv-x="836" 
d="M109 0v1061h147v-416l352 416h197l-391 -440l424 -621h-189l-340 500l-53 -62v-438h-147z" />
    <glyph glyph-name="Lacute" unicode="&#x139;" 
d="M120 0v1466h159v-1293h592v-173h-751zM418 1566l109 280h193l-180 -280h-122z" />
    <glyph glyph-name="lacute" unicode="&#x13a;" horiz-adv-x="373" 
d="M104 0v1466h147v-1466h-147zM106 1566l109 280h193l-180 -280h-122z" />
    <glyph glyph-name="Lcedilla" unicode="&#x13b;" 
d="M120 0v1466h159v-1293h592v-173h-751zM535 -221q0 65 -129 67l12 74q78 0 130 -8t88 -48t36 -108t-62 -122t-152 -55q-90 0 -141 12l9 117q52 -4 100 -4t78 21t31 54z" />
    <glyph glyph-name="lcedilla" unicode="&#x13c;" horiz-adv-x="373" 
d="M9 0v1466h147v-1466h-147zM134 -221q0 65 -129 67l12 74q79 0 131 -8t87 -48q36 -40 36 -108q-1 -68 -63 -122t-152 -55q-90 0 -140 12l9 117q53 -4 101 -4t78 21t30 54z" />
    <glyph glyph-name="Lcaron" unicode="&#x13d;" 
d="M120 0v1466h159v-1293h592v-173h-751zM577 1295v184h151v-184q0 -161 -123 -227l-37 69q78 43 84 158h-75z" />
    <glyph glyph-name="lcaron" unicode="&#x13e;" horiz-adv-x="489" 
d="M104 0v1466h147v-1466h-147zM337 1295v184h151v-184q0 -161 -123 -227l-37 69q78 43 84 158h-75z" />
    <glyph glyph-name="Ldot" unicode="&#x13f;" 
d="M120 0v1466h159v-1293h592v-173h-751zM436 637v205h168v-205h-168z" />
    <glyph glyph-name="ldot" unicode="&#x140;" horiz-adv-x="661" 
d="M104 0v1466h147v-1466h-147zM336 637v205h168v-205h-168z" />
    <glyph glyph-name="Lslash" unicode="&#x141;" 
d="M116 1466h159v-568l163 166v-167l-163 -166v-558h597v-173h-756v565l-119 -123v167l119 124v733z" />
    <glyph glyph-name="lslash" unicode="&#x142;" horiz-adv-x="373" 
d="M105 1466h148v-582l110 115v-157l-110 -115v-727h-148v574l-106 -110v158l106 110v734z" />
    <glyph glyph-name="Nacute" unicode="&#x143;" horiz-adv-x="1212" 
d="M125 0v1466h163l632 -1151v1151h152v-1466h-163l-631 1152v-1152h-153zM492 1566l109 280h193l-180 -280h-122z" />
    <glyph glyph-name="nacute" unicode="&#x144;" 
d="M487 930q-232 0 -232 -350v-580h-147v1062h133v-151q95 175 277 175q70 0 130 -28t96 -72t54 -115t18 -218v-653h-148v646q0 117 -20 171q-20 53 -62 83t-99 30zM377 1194l109 280h193l-180 -280h-122z" />
    <glyph glyph-name="Ncedilla" unicode="&#x145;" horiz-adv-x="1212" 
d="M125 0v1466h163l632 -1151v1151h152v-1466h-163l-631 1152v-1152h-153zM648 -221q0 65 -129 67l12 74q79 0 131 -8t87 -48q36 -40 36 -108q-1 -68 -63 -122t-152 -55q-90 0 -140 12l9 117q53 -4 101 -4t78 21t30 54z" />
    <glyph glyph-name="ncedilla" unicode="&#x146;" 
d="M487 930q-232 0 -232 -350v-580h-147v1062h133v-151q95 175 277 175q70 0 130 -28t96 -72t54 -115t18 -218v-653h-148v646q0 117 -20 171q-20 53 -62 83t-99 30zM503 -221q0 65 -129 67l12 74q78 0 130 -8t88 -48t36 -108t-62 -122t-152 -55q-90 0 -141 12l9 117
q52 -4 100 -4t78 21t31 54z" />
    <glyph glyph-name="Ncaron" unicode="&#x147;" horiz-adv-x="1212" 
d="M125 0v1466h163l632 -1151v1151h152v-1466h-163l-631 1152v-1152h-153zM599 1677l91 170h167l-184 -280h-158l-177 280h169z" />
    <glyph glyph-name="ncaron" unicode="&#x148;" 
d="M487 930q-232 0 -232 -350v-580h-147v1062h133v-151q95 175 277 175q70 0 130 -28t96 -72t54 -115t18 -218v-653h-148v646q0 117 -20 171q-20 53 -62 83t-99 30zM473 1304l91 170h167l-184 -280h-158l-177 280h169z" />
    <glyph glyph-name="napostrophe" unicode="&#x149;" horiz-adv-x="1173" 
d="M92 1260v205h168v-205q0 -118 -35 -186t-102 -104l-41 77q45 23 68 71t25 142h-83zM735 930q-232 0 -232 -350v-580h-147v1062h133v-151q95 175 277 175q70 0 130 -28t96 -72t54 -115t18 -218v-653h-148v646q0 117 -20 171q-20 53 -62 83t-99 30z" />
    <glyph glyph-name="Eng" unicode="&#x14a;" horiz-adv-x="1212" 
d="M133 0v1466h160v-88q90 88 254 88q294 0 436.5 -173t142.5 -541t-127 -567.5t-352 -199.5q-43 0 -160 23v166q68 -8 155 -23q171 15 246 150.5t75 444.5t-103.5 428.5t-314.5 119.5q-155 0 -252 -100v-1194h-160z" />
    <glyph glyph-name="eng" unicode="&#x14b;" 
d="M592 -272q45 0 65 36t18 145v615q1 208 -24 307t-159 99q-83 0 -156.5 -68t-73.5 -282v-580h-147v1061h133v-150q97 174 276 174q107 0 182.5 -58.5t96 -142t20.5 -231.5v-707q2 -206 -48.5 -290t-162.5 -84q-75 0 -120 16l28 154q52 -14 72 -14z" />
    <glyph glyph-name="Omacron" unicode="&#x14c;" horiz-adv-x="1307" 
d="M249 732q-1 -292 119 -442t293 -149q173 0 291 151t119 444q0 188 -54 320q-55 132 -149 200t-206 69q-180 0 -296 -150q-116 -151 -117 -443zM85 714q0 374 165 576t411 202q159 0 290 -90t207 -262t77 -408q0 -326 -148 -531q-163 -226 -428 -226t-427 232
q-147 210 -147 507zM390 1568v148h512v-148h-512z" />
    <glyph glyph-name="omacron" unicode="&#x14d;" 
d="M204 530q0 -206 75 -306t183 -100t182 102t74 306t-75 304t-183 101q-108 0 -182 -101t-74 -306zM53 532q-1 274 115 414t292 140t292 -140q117 -140 117 -415t-115 -415q-116 -140 -292 -140t-292 140q-116 142 -117 416zM207 1195v148h512v-148h-512z" />
    <glyph glyph-name="Obreve" unicode="&#x14e;" horiz-adv-x="1307" 
d="M249 732q-1 -292 119 -442t293 -149q173 0 291 151t119 444q0 188 -54 320q-55 132 -149 200t-206 69q-180 0 -296 -150q-116 -151 -117 -443zM85 714q0 374 165 576t411 202q159 0 290 -90t207 -262t77 -408q0 -326 -148 -531q-163 -226 -428 -226t-427 232
q-147 210 -147 507zM642 1566q-100 0 -164 65t-78 194h101q23 -135 137 -135q64 0 99 32t47 103h101q-13 -129 -78 -194t-165 -65z" />
    <glyph glyph-name="obreve" unicode="&#x14f;" 
d="M204 530q0 -206 75 -306t183 -100t182 102t74 306t-75 304t-183 101q-108 0 -182 -101t-74 -306zM53 532q-1 274 115 414t292 140t292 -140q117 -140 117 -415t-115 -415q-116 -140 -292 -140t-292 140q-116 142 -117 416zM464 1193q-100 0 -164 65t-78 194h101
q23 -135 137 -135q64 0 99 32t47 103h101q-13 -129 -78 -194t-165 -65z" />
    <glyph glyph-name="Odblacute" unicode="&#x150;" horiz-adv-x="1307" 
d="M249 732q-1 -292 119 -442t293 -149q173 0 291 151t119 444q0 188 -54 320q-55 132 -149 200t-206 69q-180 0 -296 -150q-116 -151 -117 -443zM85 714q0 374 165 576t411 202q159 0 290 -90t207 -262t77 -408q0 -326 -148 -531q-163 -226 -428 -226t-427 232
q-147 210 -147 507zM704 1566l104 280h190l-170 -280h-124zM420 1566l99 280h192l-173 -280h-118z" />
    <glyph glyph-name="odblacute" unicode="&#x151;" 
d="M204 530q0 -206 75 -306t183 -100t182 102t74 306t-75 304t-183 101q-108 0 -182 -101t-74 -306zM53 532q-1 274 115 414t292 140t292 -140q117 -140 117 -415t-115 -415q-116 -140 -292 -140t-292 140q-116 142 -117 416zM504 1194l104 280h190l-170 -280h-124z
M220 1194l99 280h192l-173 -280h-118z" />
    <glyph glyph-name="OE" unicode="&#x152;" horiz-adv-x="1679" 
d="M590 1334q-131 0 -225.5 -141t-94.5 -459t95 -460.5t226 -142.5t225 142.5t94 458.5t-94.5 459t-225.5 143zM593 1491q216 0 326 -223v198h682v-173h-533v-448h491v-172h-491v-500h558v-173h-707v212q-110 -237 -324 -237q-213 0 -339 172q-150 206 -150 589
q0 256 67 430t171 249.5t249 75.5z" />
    <glyph glyph-name="oe" unicode="&#x153;" horiz-adv-x="1585" 
d="M1132 938q-96 0 -165.5 -80t-78.5 -227h482q-10 154 -76 230.5t-162 76.5zM221 526q0 -186 70 -294t180 -108t186 105.5t76 305.5t-75.5 301.5t-187.5 101.5t-180.5 -113t-68.5 -299zM70 520q0 188 79 377t334 189q107 0 193 -55t129 -148q55 98 138 150.5t180 52.5
q177 0 291 -148.5t111 -454.5h-642q3 -171 78 -265t167 -94q187 0 239 222l147 -26q-37 -171 -135.5 -257.5t-222.5 -86.5q-244 0 -351 199q-125 -199 -314 -199q-190 0 -305.5 140t-115.5 404z" />
    <glyph glyph-name="Racute" unicode="&#x154;" horiz-adv-x="1212" 
d="M288 819h342q112 0 170 27t92 85t34 152q0 93 -65 157t-193 64h-380v-485zM129 0v1466h533q166 0 246 -41t131 -137t51 -241q0 -146 -86 -249t-252 -131q67 -40 102 -81q71 -84 125 -187l210 -399h-200l-160 305q-93 179 -141 241t-92 84t-124 21h-184v-651h-159z
M465 1566l109 280h193l-180 -280h-122z" />
    <glyph glyph-name="racute" unicode="&#x155;" horiz-adv-x="559" 
d="M108 0v1062h133v-161q51 113 93 149t106 36t141 -58l-50 -167q-55 39 -105 39t-88 -33q-83 -70 -83 -311v-556h-147zM250 1194l109 280h193l-180 -280h-122z" />
    <glyph glyph-name="Rcedilla" unicode="&#x156;" horiz-adv-x="1212" 
d="M288 819h342q112 0 170 27t92 85t34 152q0 93 -65 157t-193 64h-380v-485zM129 0v1466h533q166 0 246 -41t131 -137t51 -241q0 -146 -86 -249t-252 -131q67 -40 102 -81q71 -84 125 -187l210 -399h-200l-160 305q-93 179 -141 241t-92 84t-124 21h-184v-651h-159z
M591 -221q0 65 -129 67l12 74q78 0 130 -8t88 -48t36 -108t-62 -122t-152 -55q-90 0 -141 12l9 117q52 -4 100 -4t78 21t31 54z" />
    <glyph glyph-name="rcedilla" unicode="&#x157;" horiz-adv-x="559" 
d="M108 0v1062h133v-161q51 113 93 149t106 36t141 -58l-50 -167q-55 39 -105 39t-88 -33q-83 -70 -83 -311v-556h-147zM391 -221q0 65 -129 67l12 74q78 0 130 -8t88 -48t36 -108t-62 -122t-152 -55q-90 0 -141 12l9 117q52 -4 100 -4t78 21t31 54z" />
    <glyph glyph-name="Rcaron" unicode="&#x158;" horiz-adv-x="1212" 
d="M288 819h342q112 0 170 27t92 85t34 152q0 93 -65 157t-193 64h-380v-485zM129 0v1466h533q166 0 246 -41t131 -137t51 -241q0 -146 -86 -249t-252 -131q67 -40 102 -81q71 -84 125 -187l210 -399h-200l-160 305q-93 179 -141 241t-92 84t-124 21h-184v-651h-159z
M573 1677l91 170h167l-184 -280h-158l-177 280h169z" />
    <glyph glyph-name="rcaron" unicode="&#x159;" horiz-adv-x="559" 
d="M108 0v1062h133v-161q51 113 93 149t106 36t141 -58l-50 -167q-55 39 -105 39t-88 -33q-83 -70 -83 -311v-556h-147zM346 1304l91 170h167l-184 -280h-158l-177 280h169z" />
    <glyph glyph-name="Sacute" unicode="&#x15a;" horiz-adv-x="1120" 
d="M275 1106q0 -92 52 -141t232 -99t271 -95t147 -137t56 -218t-59 -230q-121 -211 -405 -212q-223 0 -355 134t-138 363l150 16q12 -121 54 -189t122 -108q80 -41 200 -41q120 -1 198 69t79 191q-1 121 -115 183q-58 31 -238 84t-252 104q-152 108 -152 296q0 189 115 302
t310 113q135 0 235 -53t156 -152t59 -233l-153 -14q-24 281 -292 281q-135 0 -206 -60q-71 -62 -71 -154zM421 1566l109 280h193l-180 -280h-122z" />
    <glyph glyph-name="sacute" unicode="&#x15b;" horiz-adv-x="840" 
d="M624 287q0 67 -38 97t-184 74t-203 82q-122 78 -122 227t87 234t241 85q97 0 171 -35t112 -94q39 -59 54 -169l-144 -24q-20 174 -189 174q-96 0 -143 -38t-47 -98t36 -87t194 -79t212 -86q114 -73 114 -230q-1 -157 -97 -251t-263 -94q-313 0 -363 342l146 28
q26 -221 225 -221q97 0 149 48t52 115zM293 1194l109 280h193l-180 -280h-122z" />
    <glyph glyph-name="Scircumflex" unicode="&#x15c;" horiz-adv-x="1120" 
d="M275 1106q0 -92 52 -141t232 -99t271 -95t147 -137t56 -218t-59 -230q-121 -211 -405 -212q-223 0 -355 134t-138 363l150 16q12 -121 54 -189t122 -108q80 -41 200 -41q120 -1 198 69t79 191q-1 121 -115 183q-58 31 -238 84t-252 104q-152 108 -152 296q0 189 115 302
t310 113q135 0 235 -53t156 -152t59 -233l-153 -14q-24 281 -292 281q-135 0 -206 -60q-71 -62 -71 -154zM563 1737l-92 -170h-169l177 280h158l184 -280h-167z" />
    <glyph glyph-name="scircumflex" unicode="&#x15d;" horiz-adv-x="840" 
d="M624 287q0 67 -38 97t-184 74t-203 82q-122 78 -122 227t87 234t241 85q97 0 171 -35t112 -94q39 -59 54 -169l-144 -24q-20 174 -189 174q-96 0 -143 -38t-47 -98t36 -87t194 -79t212 -86q114 -73 114 -230q-1 -157 -97 -251t-263 -94q-313 0 -363 342l146 28
q26 -221 225 -221q97 0 149 48t52 115zM432 1364l-92 -170h-169l177 280h158l184 -280h-167z" />
    <glyph glyph-name="Scedilla" unicode="&#x15e;" horiz-adv-x="1120" 
d="M565 -84q141 -21 141 -160q0 -68 -62 -122t-152 -55q-90 0 -141 12l9 117q52 -4 100 -4t78 21t31 54q0 65 -129 67l33 135q-157 23 -259 127q-132 134 -138 363l150 16q12 -121 54 -189t122 -108q80 -41 200 -41q120 -1 198 69t79 191q-1 121 -115 183q-58 31 -238 84
t-252 104q-152 108 -152 296q0 189 115 302t310 113q135 0 235 -53t156 -152t59 -233l-153 -14q-24 281 -292 281q-135 0 -206 -60t-71 -154q0 -92 52 -141t232 -99t271 -95t147 -137t56 -218t-59 -230q-118 -207 -394 -212z" />
    <glyph glyph-name="scedilla" unicode="&#x15f;" horiz-adv-x="840" 
d="M414 -84q141 -21 141 -160q-1 -68 -63 -122t-152 -55q-90 0 -140 12l9 117q53 -4 101 -4t78 21t30 54q0 65 -129 67l33 138q-228 46 -270 333l146 28q26 -221 225 -221q97 0 149 48t52 115t-38 97t-184 74t-203 82q-122 78 -122 227t87 234t241 85q97 0 171 -35t112 -94
q39 -59 54 -169l-144 -24q-20 174 -189 174q-96 0 -143 -38t-47 -98t36 -87t194 -79t212 -86q114 -73 114 -230t-94 -249t-252 -96z" />
    <glyph glyph-name="Scaron" unicode="&#x160;" horiz-adv-x="1120" 
d="M275 1106q0 -92 52 -141t232 -99t271 -95t147 -137t56 -218t-59 -230q-121 -211 -405 -212q-223 0 -355 134t-138 363l150 16q12 -121 54 -189t122 -108q80 -41 200 -41q120 -1 198 69t79 191q-1 121 -115 183q-58 31 -238 84t-252 104q-152 108 -152 296q0 189 115 302
t310 113q135 0 235 -53t156 -152t59 -233l-153 -14q-24 281 -292 281q-135 0 -206 -60q-71 -62 -71 -154zM542 1677l91 170h167l-184 -280h-158l-177 280h169z" />
    <glyph glyph-name="scaron" unicode="&#x161;" horiz-adv-x="840" 
d="M624 287q0 67 -38 97t-184 74t-203 82q-122 78 -122 227t87 234t241 85q97 0 171 -35t112 -94q39 -59 54 -169l-144 -24q-20 174 -189 174q-96 0 -143 -38t-47 -98t36 -87t194 -79t212 -86q114 -73 114 -230q-1 -157 -97 -251t-263 -94q-313 0 -363 342l146 28
q26 -221 225 -221q97 0 149 48t52 115zM407 1304l91 170h167l-184 -280h-158l-177 280h169z" />
    <glyph glyph-name="Tcedilla" unicode="&#x162;" horiz-adv-x="1026" 
d="M552 -84q141 -21 141 -160q-1 -68 -63 -122t-152 -55q-90 0 -140 12l9 117q53 -4 101 -4t78 21t30 54q0 65 -129 67l37 154h-26v1293h-396v173h953v-173h-398v-1293h-23z" />
    <glyph glyph-name="tcedilla" unicode="&#x163;" horiz-adv-x="467" 
d="M362 -84q141 -21 141 -160q-1 -68 -63 -122t-152 -55q-90 0 -140 12l9 117q53 -4 101 -4t78 21t30 54q0 65 -129 67l36 149q-89 23 -115 105q-18 53 -17 211v611h-108v140h108v263l147 108v-371h149v-140h-149v-621q0 -87 16 -117t54 -30t79 7l20 -159q-41 -11 -76 -14z
" />
    <glyph glyph-name="Tcaron" unicode="&#x164;" horiz-adv-x="1026" 
d="M438 0v1293h-396v173h953v-173h-398v-1293h-159zM523 1677l91 170h167l-184 -280h-158l-177 280h169z" />
    <glyph glyph-name="tcaron" unicode="&#x165;" horiz-adv-x="629" 
d="M333 -14q-63 0 -110 30t-65 84q-18 53 -17 211v611h-108v140h108v263l147 108v-371h149v-140h-149v-621q0 -87 16 -117t54 -30t79 7l20 -159q-61 -16 -124 -16zM477 1295v184h151v-184q0 -161 -123 -227l-37 69q78 43 84 158h-75z" />
    <glyph glyph-name="Tbar" unicode="&#x166;" horiz-adv-x="1026" 
d="M438 0v803h-178v148h178v342h-396v173h953v-173h-398v-342h175v-148h-175v-803h-159z" />
    <glyph glyph-name="tbar" unicode="&#x167;" horiz-adv-x="468" 
d="M48 1062h108v263l147 108v-371h149v-140h-149v-171h193v-148h-193v-302q0 -87 16 -117q17 -30 55 -30t78 7l20 -159q-61 -16 -124 -16t-110 30.5t-64.5 83.5t-17.5 211v292h-172v148h172v171h-108v140z" />
    <glyph glyph-name="Utilde" unicode="&#x168;" horiz-adv-x="1212" 
d="M915 1466h160v-847q1 -213 -41 -349t-152 -216q-110 -79 -278 -79q-238 0 -356 142t-119 502v847h159v-846q0 -199 31 -288q63 -182 273 -182q170 0 246 96t77 374v846zM480 1796q60 0 128 -42t96 -42t42 18t19 69h107q-2 -115 -48 -171t-105 -57q-59 0 -129 46t-96 46
q-26 1 -44 -23t-18 -72h-109q-1 108 47 168t110 60z" />
    <glyph glyph-name="utilde" unicode="&#x169;" 
d="M403 -24q-103 0 -176 56t-97 140q-24 85 -25 232v658h147v-589q0 -163 16 -219t62 -90q44 -34 101 -33q106 0 169 81t63 281v569h148v-1062h-132v156q-102 -180 -276 -180zM344 1423q60 0 128 -42t96 -42q28 -1 42 17t19 70h107q-2 -116 -48 -172t-105 -56t-129 46
t-96 46t-44 -24t-18 -71h-109q-1 107 47 167t110 61z" />
    <glyph glyph-name="Umacron" unicode="&#x16a;" horiz-adv-x="1212" 
d="M915 1466h160v-847q1 -213 -41 -349t-152 -216q-110 -79 -278 -79q-238 0 -356 142t-119 502v847h159v-846q0 -199 31 -288q63 -182 273 -182q170 0 246 96t77 374v846zM348 1564v148h512v-148h-512z" />
    <glyph glyph-name="umacron" unicode="&#x16b;" 
d="M403 -24q-103 0 -176 56t-97 140q-24 85 -25 232v658h147v-589q0 -163 16 -219t62 -90q44 -34 101 -33q106 0 169 81t63 281v569h148v-1062h-132v156q-102 -180 -276 -180zM199 1195v148h512v-148h-512z" />
    <glyph glyph-name="Ubreve" unicode="&#x16c;" horiz-adv-x="1212" 
d="M915 1466h160v-847q1 -213 -41 -349t-152 -216q-110 -79 -278 -79q-238 0 -356 142t-119 502v847h159v-846q0 -199 31 -288q63 -182 273 -182q170 0 246 96t77 374v846zM601 1566q-101 0 -165 65t-77 194h101q23 -135 137 -135q64 0 99 32t47 103h101q-13 -129 -78 -194
t-165 -65z" />
    <glyph glyph-name="ubreve" unicode="&#x16d;" 
d="M403 -24q-103 0 -176 56t-97 140q-24 85 -25 232v658h147v-589q0 -163 16 -219t62 -90q44 -34 101 -33q106 0 169 81t63 281v569h148v-1062h-132v156q-102 -180 -276 -180zM462 1193q-100 0 -164 65t-78 194h101q23 -135 137 -135q64 0 99 32t47 103h101
q-13 -129 -78 -194t-165 -65z" />
    <glyph glyph-name="Uring" unicode="&#x16e;" horiz-adv-x="1212" 
d="M915 1466h160v-847q1 -213 -41 -349t-152 -216q-110 -79 -278 -79q-238 0 -356 142t-119 502v847h159v-846q0 -199 31 -288q63 -182 273 -182q170 0 246 96t77 374v846zM516 1751q0 -47 26 -78t60 -31t60 31t27 78q0 47 -26 78q-27 31 -61 31t-60 -31t-26 -78zM453 1750
q1 79 45 131t102 52t104 -52q44 -51 44 -131t-44 -132t-103 -51q-59 0 -103 52t-45 131z" />
    <glyph glyph-name="uring" unicode="&#x16f;" 
d="M403 -24q-103 0 -176 56t-97 140q-24 85 -25 232v658h147v-589q0 -163 16 -219t62 -90q44 -34 101 -33q106 0 169 81t63 281v569h148v-1062h-132v156q-102 -180 -276 -180zM374 1339q0 -47 26 -78t60 -31t60 31t27 78q0 47 -26 78q-27 31 -61 31t-60 -31t-26 -78z
M311 1338q1 79 45 131t102 52t104 -52q44 -51 44 -131t-44 -132t-103 -51q-59 0 -103 52t-45 131z" />
    <glyph glyph-name="Udblacute" unicode="&#x170;" horiz-adv-x="1212" 
d="M915 1466h160v-847q1 -213 -41 -349t-152 -216q-110 -79 -278 -79q-238 0 -356 142t-119 502v847h159v-846q0 -199 31 -288q63 -182 273 -182q170 0 246 96t77 374v846zM664 1566l104 280h190l-170 -280h-124zM380 1566l99 280h192l-173 -280h-118z" />
    <glyph glyph-name="udblacute" unicode="&#x171;" 
d="M403 -24q-103 0 -176 56t-97 140q-24 85 -25 232v658h147v-589q0 -163 16 -219t62 -90q44 -34 101 -33q106 0 169 81t63 281v569h148v-1062h-132v156q-102 -180 -276 -180zM507 1194l104 280h190l-170 -280h-124zM223 1194l99 280h192l-173 -280h-118z" />
    <glyph glyph-name="Uogonek" unicode="&#x172;" horiz-adv-x="1212" 
d="M915 1466h160v-847q1 -213 -41 -349t-143 -210q-101 -73 -233 -83q-17 -63 -17 -125t34 -103t90 -41t131 46v-119q-96 -60 -177 -60t-131 58t-51 147q0 89 23 196q-205 12 -318 148q-113 135 -113 495v847h159v-846q0 -199 31 -288q63 -182 273 -182q170 0 246 96t77 374
v846z" />
    <glyph glyph-name="uogonek" unicode="&#x173;" 
d="M403 -24q-103 0 -176 56t-97 140q-24 85 -25 232v658h147v-589q0 -163 16 -219t62 -90q44 -34 101 -33q106 0 169 81t63 281v569h148v-1062h-14q-23 -75 -23 -143q0 -67 34 -108t90 -41t131 46v-119q-96 -60 -177 -60q-82 0 -132 58t-50 150t28 217h-19v156
q-102 -180 -276 -180z" />
    <glyph glyph-name="Wcircumflex" unicode="&#x174;" horiz-adv-x="1585" 
d="M342 0l-319 1466h163l183 -961q29 -148 51 -300l54 271l229 990h192l172 -742q63 -271 94 -519q23 143 59 319l189 942h160l-330 -1466h-153l-292 1289q-17 -96 -35 -172l-255 -1117h-162zM800 1737l-92 -170h-169l177 280h158l184 -280h-167z" />
    <glyph glyph-name="wcircumflex" unicode="&#x175;" horiz-adv-x="1212" 
d="M268 0l-266 1062h153l189 -841l184 841h152l174 -819l199 819h144l-273 -1062h-153l-139 636l-33 181l-176 -817h-155zM623 1364l-92 -170h-169l177 280h158l184 -280h-167z" />
    <glyph glyph-name="Ycircumflex" unicode="&#x176;" horiz-adv-x="1120" 
d="M468 0v621l-463 845h194l236 -442q70 -131 123 -248q53 115 131 259l233 431h185l-480 -845v-621h-159zM547 1737l-92 -170h-169l177 280h158l184 -280h-167z" />
    <glyph glyph-name="ycircumflex" unicode="&#x177;" horiz-adv-x="840" 
d="M178 -256q83 0 122 78q7 14 58 176l-331 1064h159l182 -615q34 -115 63 -246q25 124 60 242l186 619h148l-331 -1080q-64 -210 -102 -280q-70 -132 -193 -133q-42 0 -95 22l-16 169q49 -16 90 -16zM442 1364l-92 -170h-169l177 280h158l184 -280h-167z" />
    <glyph glyph-name="Ydieresis" unicode="&#x178;" horiz-adv-x="1120" 
d="M468 0v621l-463 845h194l236 -442q70 -131 123 -248q53 115 131 259l233 431h185l-480 -845v-621h-159zM625 1642v205h154v-205h-154zM319 1642v205h154v-205h-154z" />
    <glyph glyph-name="Zacute" unicode="&#x179;" horiz-adv-x="1026" 
d="M36 0v180l616 939q64 98 125 174h-672v173h861v-173l-674 -1017l-73 -103h767v-173h-950zM438 1566l109 280h193l-180 -280h-122z" />
    <glyph glyph-name="zacute" unicode="&#x17a;" horiz-adv-x="840" 
d="M33 0v146l555 776q-95 -6 -167 -6h-355v146h712v-119l-472 -674l-91 -123q99 9 186 9h403v-155h-771zM282 1194l109 280h193l-180 -280h-122z" />
    <glyph glyph-name="Zdot" unicode="&#x17b;" horiz-adv-x="1026" 
d="M36 0v180l616 939q64 98 125 174h-672v173h861v-173l-674 -1017l-73 -103h767v-173h-950zM447 1565v224h183v-224h-183z" />
    <glyph glyph-name="zdot" unicode="&#x17c;" horiz-adv-x="840" 
d="M33 0v146l555 776q-95 -6 -167 -6h-355v146h712v-119l-472 -674l-91 -123q99 9 186 9h403v-155h-771zM315 1194v224h183v-224h-183z" />
    <glyph glyph-name="Zcaron" unicode="&#x17d;" horiz-adv-x="1026" 
d="M36 0v180l616 939q64 98 125 174h-672v173h861v-173l-674 -1017l-73 -103h767v-173h-950zM540 1677l91 170h167l-184 -280h-158l-177 280h169z" />
    <glyph glyph-name="zcaron" unicode="&#x17e;" horiz-adv-x="840" 
d="M33 0v146l555 776q-95 -6 -167 -6h-355v146h712v-119l-472 -674l-91 -123q99 9 186 9h403v-155h-771zM411 1304l91 170h167l-184 -280h-158l-177 280h169z" />
    <glyph glyph-name="longs" unicode="&#x17f;" horiz-adv-x="373" 
d="M112 0v1175q0 187 66.5 251.5t177.5 64.5q61 0 134 -18l-22 -157q-40 10 -96 10t-85 -35.5t-29 -130.5v-1160h-146z" />
    <glyph glyph-name="florin" unicode="&#x192;" 
d="M189 -272q43 0 67 28t37 124l145 1042h-164l19 140h165l20 133q20 135 47.5 188.5t74 81t111.5 27.5t176 -38l-29 -153q-84 24 -128 24t-67 -28t-38 -132l-16 -103h167l-20 -140h-168l-156 -1092q-22 -150 -72.5 -205.5t-134.5 -55.5t-190 26l28 155q83 -22 126 -22z" />
    <glyph glyph-name="Aringacute" unicode="&#x1fa;" horiz-adv-x="1120" 
d="M345 602h407l-125 406q-58 187 -85 304q-23 -141 -65 -280zM-2 0l462 1466h171l492 -1466h-182l-140 444h-502l-132 -444h-169zM477 1706q0 -47 26 -78t60 -31q35 0 61 31t26 78t-26 78t-60 31t-61 -31q-26 -31 -26 -78zM414 1705q0 79 44 131t104 52q58 0 102 -52
t45 -132q0 -80 -44 -130q-44 -52 -103 -52q-60 0 -104 52t-44 131zM478 1944l109 280h193l-180 -280h-122z" />
    <glyph glyph-name="aringacute" unicode="&#x1fb;" 
d="M215 270q0 -62 47 -108t128 -45q82 0 146 41q64 42 96 110t32 199v66q-82 -40 -208 -62q-126 -23 -163 -43t-57 -58t-21 -100zM58 279q0 92 38 163t104 111q66 41 223 63t241 58l1 46q0 109 -39 153q-56 64 -164 64q-108 -1 -159 -43t-75 -159l-145 24q31 171 125 249
t252 78q156 0 234 -52t98 -127q20 -76 21 -222v-240q-1 -251 9 -317t38 -128h-154q-23 55 -30 131q-149 -155 -320 -155q-136 0 -217 82t-81 221zM368 1379q0 -47 26 -78t60 -31t60 31t27 78q0 47 -26 78q-27 31 -61 31t-60 -31t-26 -78zM305 1378q1 79 45 131t102 52
t104 -52q44 -51 44 -131t-44 -132t-103 -51q-59 0 -103 52t-45 131zM382 1642l109 280h193l-180 -280h-122z" />
    <glyph glyph-name="AEacute" unicode="&#x1fc;" horiz-adv-x="1679" 
d="M802 595v698h-120l-277 -698h397zM1566 1466v-173h-605v-451h562v-172h-562v-497h627v-173h-786v423h-465l-164 -423h-172l578 1466h987zM902 1567l109 280h193l-180 -280h-122z" />
    <glyph glyph-name="aeacute" unicode="&#x1fd;" horiz-adv-x="1493" 
d="M209 286q-1 -76 45 -122t132 -46t158 57q71 57 92 146q12 50 11 212q-65 -35 -263 -73q-90 -18 -132 -58t-43 -116zM1032 937q-98 0 -165 -78t-75 -226h479q-12 160 -76 232q-65 72 -163 72zM457 1086q228 0 298 -143q108 143 279 143q231 0 334 -247q54 -129 54 -294
l-1 -60h-629q2 -148 30 -213q28 -64 90 -106t136 -42q76 0 136 58t81 167l154 -24q-41 -173 -141 -261t-243 -88q-200 0 -324 198q-164 -198 -362 -198q-133 0 -215 85t-81 218q0 89 41 163q40 74 110 113t214 62t227 52l1 41q0 129 -44 178t-152 49q-106 0 -156 -42
t-74 -162l-143 21q33 178 125 255t255 77zM552 1194l109 280h193l-180 -280h-122z" />
    <glyph glyph-name="Oslashacute" unicode="&#x1fe;" horiz-adv-x="1307" 
d="M669 141q161 0 279 151t119 437q0 206 -69 365l-610 -832q120 -121 281 -121zM660 1325q-178 1 -296 -149t-118 -446q0 -110 15 -188t58 -180l611 835q-78 76 -136 102t-134 26zM1232 734q0 -240 -78 -412t-210 -259q-132 -88 -289 -88q-101 -1 -185 33t-179 121
l-138 -188l-81 84l144 197q-82 153 -108 257t-26 248q0 243 78 417t208 260q129 86 292 87q104 -1 188 -35t181 -124l137 188l82 -84l-145 -198q73 -134 101 -244t28 -260zM521 1567l109 280h193l-180 -280h-122z" />
    <glyph glyph-name="oslashacute" unicode="&#x1ff;" horiz-adv-x="1026" 
d="M516 124q112 0 187 100t75 310q0 126 -39 236l-367 -583q63 -63 144 -63zM509 937q-93 0 -169 -101q-76 -102 -76 -278t43 -278l371 587q-75 70 -169 70zM518 1086q120 0 243 -87l81 128l79 -70l-88 -138q53 -89 75 -175t21 -213q0 -277 -116 -416t-299 -139
q-125 0 -225 80l-86 -135l-77 71l89 141q-102 142 -102 406q0 263 115 405t290 142zM393 1194l109 280h193l-180 -280h-122z" />
    <glyph glyph-name="uni0218" unicode="&#x218;" horiz-adv-x="1120" 
d="M275 1106q0 -92 52 -141t232 -99t271 -95t147 -137t56 -218t-59 -230q-121 -211 -405 -212q-223 0 -355 134t-138 363l150 16q12 -121 54 -189t122 -108q80 -41 200 -41q120 -1 198 69t79 191q-1 121 -115 183q-58 31 -238 84t-252 104q-152 108 -152 296q0 189 115 302
t310 113q135 0 235 -53t156 -152t59 -233l-153 -14q-24 281 -292 281q-135 0 -206 -60q-71 -62 -71 -154zM485 -305v184h151v-184q0 -161 -123 -227l-37 69q78 43 84 158h-75z" />
    <glyph glyph-name="uni0219" unicode="&#x219;" horiz-adv-x="840" 
d="M624 287q0 67 -38 97t-184 74t-203 82q-122 78 -122 227t87 234t241 85q97 0 171 -35t112 -94q39 -59 54 -169l-144 -24q-20 174 -189 174q-96 0 -143 -38t-47 -98t36 -87t194 -79t212 -86q114 -73 114 -230q-1 -157 -97 -251t-263 -94q-313 0 -363 342l146 28
q26 -221 225 -221q97 0 149 48t52 115zM335 -305v184h151v-184q0 -161 -123 -227l-37 69q78 43 84 158h-75z" />
    <glyph glyph-name="uni021A" unicode="&#x21a;" horiz-adv-x="1026" 
d="M438 0v1293h-396v173h953v-173h-398v-1293h-159zM440 -305v184h151v-184q0 -161 -123 -227l-37 69q78 43 84 158h-75z" />
    <glyph glyph-name="uni021B" unicode="&#x21b;" horiz-adv-x="467" 
d="M333 -14q-63 0 -110 30t-65 84q-18 53 -17 211v611h-108v140h108v263l147 108v-371h149v-140h-149v-621q0 -87 16 -117t54 -30t79 7l20 -159q-61 -16 -124 -16zM205 -305v184h151v-184q0 -161 -123 -227l-37 69q78 43 84 158h-75z" />
    <glyph glyph-name="circumflex" unicode="&#x2c6;" horiz-adv-x="559" 
d="M281 1364l-92 -170h-169l177 280h158l184 -280h-167z" />
    <glyph glyph-name="caron" unicode="&#x2c7;" horiz-adv-x="559" 
d="M294 1304l91 170h167l-184 -280h-158l-177 280h169z" />
    <glyph glyph-name="macron" unicode="&#x2c9;" horiz-adv-x="559" 
d="M24 1227v148h512v-148h-512z" />
    <glyph glyph-name="breve" unicode="&#x2d8;" horiz-adv-x="559" 
d="M279 1205q-100 0 -164.5 65t-77.5 194h101q23 -135 137 -135q64 0 99 32t47 103h101q-13 -129 -78 -194t-165 -65z" />
    <glyph glyph-name="dotaccent" unicode="&#x2d9;" horiz-adv-x="559" 
d="M188 1194v224h183v-224h-183z" />
    <glyph glyph-name="ring" unicode="&#x2da;" horiz-adv-x="559" 
d="M196 1335q0 -47 26 -78t60 -31t60.5 31t26.5 78t-26.5 78t-60.5 31t-60 -31t-26 -78zM133 1334q0 79 44.5 131t102.5 52t103 -51.5t45 -131.5t-44 -131.5t-103 -51.5t-103.5 52t-44.5 131z" />
    <glyph glyph-name="ogonek" unicode="&#x2db;" horiz-adv-x="559" 
d="M254 -138q0 -72 34 -113t90 -41t131 46v-119q-96 -60 -177 -60t-131.5 58t-50.5 154t34 237h101q-31 -90 -31 -162z" />
    <glyph glyph-name="tilde" unicode="&#x2dc;" horiz-adv-x="559" 
d="M163 1447q61 0 129 -42t95 -42q28 0 41.5 17.5t19.5 69.5h107q-3 -115 -48.5 -171.5t-104.5 -56.5t-129 46t-96 46t-44 -23.5t-18 -71.5h-109q0 107 48 167t109 61z" />
    <glyph glyph-name="hungarumlaut" unicode="&#x2dd;" horiz-adv-x="559" 
d="M332 1194l104 280h190l-170 -280h-124zM48 1194l99 280h192l-173 -280h-118z" />
    <glyph glyph-name="tonos" unicode="&#x384;" horiz-adv-x="559" 
d="M182 1194l109 280h193l-180 -280h-122z" />
    <glyph glyph-name="dieresistonos" unicode="&#x385;" horiz-adv-x="559" 
d="M-18 1198v191h141v-191h-141zM436 1198v191h142v-191h-142zM176 1198l109 277h151l-164 -277h-96z" />
    <glyph glyph-name="Alphatonos" unicode="&#x386;" horiz-adv-x="1120" 
d="M345 602h407l-125 406q-58 187 -85 304q-23 -141 -65 -280zM-2 0l462 1466h171l492 -1466h-182l-140 444h-502l-132 -444h-169zM14 1194l109 280h193l-180 -280h-122z" />
    <glyph glyph-name="anoteleia" unicode="&#x387;" horiz-adv-x="682" 
d="M348 637v205h168v-205h-168z" />
    <glyph glyph-name="Epsilontonos" unicode="&#x388;" horiz-adv-x="1365" 
d="M377 0v1466h869v-173h-710v-449h665v-172h-665v-499h738v-173h-897zM30 1194l109 280h193l-180 -280h-122z" />
    <glyph glyph-name="Etatonos" unicode="&#x389;" horiz-adv-x="1469" 
d="M397 0v1466h159v-602h625v602h159v-1466h-159v691h-625v-691h-159zM34 1194l109 280h193l-180 -280h-122z" />
    <glyph glyph-name="Iotatonos" unicode="&#x38a;" horiz-adv-x="711" 
d="M392 0v1466h159v-1466h-159zM34 1194l109 280h193l-180 -280h-122z" />
    <glyph glyph-name="Omicrontonos" unicode="&#x38c;" horiz-adv-x="1437" 
d="M365 732q-1 -292 119 -442t293 -149q173 0 291 151t119 444q0 188 -54 320q-55 132 -149 200t-206 69q-180 0 -296 -150q-116 -151 -117 -443zM201 714q0 374 165 576t411 202q159 0 290 -90t207 -262t77 -408q0 -326 -148 -531q-163 -226 -428 -226t-427 232
q-147 210 -147 507zM30 1194l109 280h193l-180 -280h-122z" />
    <glyph glyph-name="Upsilontonos" unicode="&#x38e;" horiz-adv-x="1480" 
d="M836 0v621l-463 845h194l236 -442q70 -131 123 -248q53 115 131 259l233 431h185l-480 -845v-621h-159zM34 1194l109 280h193l-180 -280h-122z" />
    <glyph glyph-name="Omegatonos" unicode="&#x38f;" horiz-adv-x="1392" 
d="M204 0v172h262q-248 254 -248 621q0 310 148 504t395 194q245 -1 387 -205t142 -493q0 -365 -250 -621h262v-172h-469v162q293 167 293 600q0 250 -105 406t-267 157q-162 0 -268 -154q-104 -154 -104 -399q0 -438 289 -610v-162h-467zM26 1194l109 280h193l-180 -280
h-122z" />
    <glyph glyph-name="iotadieresistonos" unicode="&#x390;" horiz-adv-x="467" 
d="M166 0v1062h147v-1062h-147zM-66 1198v191h141v-191h-141zM388 1198v191h142v-191h-142zM128 1198l109 277h151l-164 -277h-96z" />
    <glyph glyph-name="Alpha" unicode="&#x391;" horiz-adv-x="1120" 
d="M345 602h407l-125 406q-58 187 -85 304q-23 -141 -65 -280zM-2 0l462 1466h171l492 -1466h-182l-140 444h-502l-132 -444h-169z" />
    <glyph glyph-name="Beta" unicode="&#x392;" horiz-adv-x="1120" 
d="M283 173h299q98 0 156 22q58 21 94 81t35 146q0 86 -34 144q-33 58 -91 84t-181 27h-278v-504zM283 850h260q103 0 155 18t86 66q34 50 33 132t-31 134t-80 73q-50 20 -182 20h-241v-443zM124 0v1466h451q137 0 217 -42t131 -133q51 -90 51 -195q0 -213 -168 -316
q106 -38 166 -130t60 -224q0 -134 -54 -234t-146 -146q-91 -46 -250 -46h-458z" />
    <glyph glyph-name="Gamma" unicode="&#x393;" horiz-adv-x="897" 
d="M132 1467h729v-174h-570v-1293h-159v1467z" />
    <glyph glyph-name="Delta" unicode="&#x394;" horiz-adv-x="1145" 
d="M489 1032l-258 -860h668l-260 836q-54 177 -84 305q-21 -133 -66 -281zM1135 0h-1125l463 1466h170z" />
    <glyph glyph-name="Epsilon" unicode="&#x395;" horiz-adv-x="1120" 
d="M133 0v1466h869v-173h-710v-449h665v-172h-665v-499h738v-173h-897z" />
    <glyph glyph-name="Zeta" unicode="&#x396;" horiz-adv-x="1026" 
d="M36 0v180l616 939q64 98 125 174h-672v173h861v-173l-674 -1017l-73 -103h767v-173h-950z" />
    <glyph glyph-name="Eta" unicode="&#x397;" horiz-adv-x="1212" 
d="M129 0v1466h159v-602h625v602h159v-1466h-159v691h-625v-691h-159z" />
    <glyph glyph-name="Theta" unicode="&#x398;" horiz-adv-x="1229" 
d="M391 829h449v-167h-449v167zM616 1345q-174 0 -269.5 -156.5t-95.5 -456.5t94.5 -457t266.5 -157q368 0 368 627q0 283 -95 441.5t-269 158.5zM622 1503q306 0 416 -248.5t110 -488.5t-54 -419.5t-176.5 -283t-299.5 -103.5q-259 0 -397.5 210.5t-138.5 555.5t133.5 561
t406.5 216z" />
    <glyph glyph-name="Iota" unicode="&#x399;" horiz-adv-x="467" 
d="M160 0v1466h159v-1466h-159z" />
    <glyph glyph-name="Kappa" unicode="&#x39a;" horiz-adv-x="1120" 
d="M124 0v1466h159v-727l597 727h216l-505 -594l527 -872h-210l-428 742l-197 -234v-508h-159z" />
    <glyph glyph-name="Lambda" unicode="&#x39b;" horiz-adv-x="1120" 
d="M481 1466h162l467 -1466h-172l-313 1065q-35 112 -64 240q-30 -130 -63 -240l-326 -1065h-162z" />
    <glyph glyph-name="Mu" unicode="&#x39c;" horiz-adv-x="1399" 
d="M125 0v1466h239l285 -1038l57 -217q21 81 64 235l288 1020h214v-1466h-153v1227l-350 -1227h-143l-348 1248v-1248h-153z" />
    <glyph glyph-name="Nu" unicode="&#x39d;" horiz-adv-x="1212" 
d="M125 0v1466h163l632 -1151v1151h152v-1466h-163l-631 1152v-1152h-153z" />
    <glyph glyph-name="Xi" unicode="&#x39e;" horiz-adv-x="1092" 
d="M90 0v172h914v-172h-914zM188 647v172h715v-172h-715zM113 1294v172h868v-172h-868z" />
    <glyph glyph-name="Omicron" unicode="&#x39f;" horiz-adv-x="1307" 
d="M249 732q-1 -292 119 -442t293 -149q173 0 291 151t119 444q0 188 -54 320q-55 132 -149 200t-206 69q-180 0 -296 -150q-116 -151 -117 -443zM85 714q0 374 165 576t411 202q159 0 290 -90t207 -262t77 -408q0 -326 -148 -531q-163 -226 -428 -226t-427 232
q-147 210 -147 507z" />
    <glyph glyph-name="Pi" unicode="&#x3a0;" horiz-adv-x="1212" 
d="M295 0h-160v1466h944v-1466h-159v1294h-625v-1294z" />
    <glyph glyph-name="Rho" unicode="&#x3a1;" horiz-adv-x="1120" 
d="M289 769h311q147 1 215 67t68 200q1 87 -33 149t-82 85t-171 23h-308v-524zM130 0v1466h453q160 0 250 -33t152 -136t62 -253q0 -198 -101 -323t-349 -125h-308v-596h-159z" />
    <glyph glyph-name="Sigma" unicode="&#x3a3;" horiz-adv-x="1012" 
d="M80 1466h817v-172h-645l410 -532l-410 -590h680v-172h-852v201l393 561l-393 510v194z" />
    <glyph glyph-name="Tau" unicode="&#x3a4;" horiz-adv-x="1026" 
d="M438 0v1293h-396v173h953v-173h-398v-1293h-159z" />
    <glyph glyph-name="Upsilon" unicode="&#x3a5;" horiz-adv-x="1120" 
d="M468 0v621l-463 845h194l236 -442q70 -131 123 -248q53 115 131 259l233 431h185l-480 -845v-621h-159z" />
    <glyph glyph-name="Phi" unicode="&#x3a6;" horiz-adv-x="1357" 
d="M1116 722q0 425 -356 433v-866q356 8 356 433zM243 732q0 -418 358 -443v866q-358 -5 -358 -423zM601 1503h159v-194q527 -23 527 -587t-527 -585v-312h-159v312q-530 23 -530 587t530 585v194z" />
    <glyph glyph-name="Chi" unicode="&#x3a7;" horiz-adv-x="1120" 
d="M8 0l465 764l-410 702h189l219 -376q67 -116 96 -180q39 78 95 167l243 389h172l-422 -691l455 -775h-196l-303 523q-25 44 -52 98q-41 -80 -58 -110l-302 -511h-191z" />
    <glyph glyph-name="Psi" unicode="&#x3a8;" horiz-adv-x="1352" 
d="M78 1016v450h160v-413q0 -205 100 -318.5t258 -113.5v845h160v-845q356 0 356 452v393h160v-434q0 -275 -132 -427t-384 -152v-453h-160v453q-234 0 -376 155.5t-142 407.5z" />
    <glyph glyph-name="Ohm" unicode="&#x3a9;" horiz-adv-x="1274" 
d="M88 0v172h262q-248 254 -248 621q0 310 148.5 504t394.5 194t387.5 -204.5t141.5 -493.5q0 -365 -250 -621h262v-172h-469v162q293 167 293 600q0 250 -105 406.5t-267 156.5t-267 -154t-105 -399q0 -438 289 -610v-162h-467z" />
    <glyph glyph-name="Iotadieresis" unicode="&#x3aa;" horiz-adv-x="467" 
d="M160 0v1466h159v-1466h-159zM308 1642v205h154v-205h-154zM2 1642v205h154v-205h-154z" />
    <glyph glyph-name="Upsilondieresis" unicode="&#x3ab;" horiz-adv-x="1120" 
d="M468 0v621l-463 845h194l236 -442q70 -131 123 -248q53 115 131 259l233 431h185l-480 -845v-621h-159zM625 1642v205h154v-205h-154zM319 1642v205h154v-205h-154z" />
    <glyph glyph-name="alphatonos" unicode="&#x3ac;" horiz-adv-x="1013" 
d="M474 942q-122 0 -184 -114t-62 -304t66 -302t185 -112q252 0 252 422q1 202 -67 306t-190 104zM446 -28q-124 0 -216 75t-132 201q-42 126 -42 262q0 260 106 415t298 155t287 -197l36 180h160q-58 -259 -58 -537t69 -526h-165q-26 112 -38 192q-112 -220 -305 -220z
M364 1194l109 280h193l-180 -280h-122z" />
    <glyph glyph-name="epsilontonos" unicode="&#x3ad;" horiz-adv-x="729" 
d="M420 618h31v-145h-27q-221 0 -221 -176q-1 -75 45 -123t112 -49q111 0 213 131l107 -111q-72 -89 -147 -129t-198 -39q-123 0 -203 89t-81 223q0 186 144 260q-121 79 -121 221t78 228t210 87q168 0 287 -143l-106 -104q-101 92 -177 92t-114 -42t-37 -104
q0 -166 205 -166zM245 1194l109 280h193l-180 -280h-122z" />
    <glyph glyph-name="etatonos" unicode="&#x3ae;" 
d="M248 1061v-150q97 174 276 174q108 0 183 -59t95 -142t21 -231v-1061h-147v1053q0 185 -58 235t-133 50t-149 -68t-74 -282v-580h-147v1061h133zM358 1194l109 280h193l-180 -280h-122z" />
    <glyph glyph-name="iotatonos" unicode="&#x3af;" horiz-adv-x="467" 
d="M166 0v1062h147v-1062h-147zM129 1194l109 280h193l-180 -280h-122z" />
    <glyph glyph-name="upsilondieresistonos" unicode="&#x3b0;" 
d="M113 414v647h147v-655q0 -126 58 -204t148 -77q90 -1 150 79q58 80 58 220v637h147v-651q0 -199 -97 -316q-96 -117 -260 -117t-258 115t-93 322zM173 1198v191h141v-191h-141zM627 1198v191h142v-191h-142zM367 1198l109 277h151l-164 -277h-96z" />
    <glyph glyph-name="alpha" unicode="&#x3b1;" horiz-adv-x="1013" 
d="M474 942q-122 0 -184 -114t-62 -304t65.5 -302t185.5 -112q252 0 252 422q0 203 -67.5 306.5t-189.5 103.5zM446 -28q-124 0 -215.5 75t-133 201t-41.5 262q0 260 106 415t298 155t287 -197l36 180h160q-58 -259 -58 -537t69 -526h-165q-26 112 -38 192
q-112 -220 -305 -220z" />
    <glyph glyph-name="beta" unicode="&#x3b2;" horiz-adv-x="944" 
d="M428 733h-41v131q287 0 287 248q0 100 -58 165.5t-134 65.5t-130.5 -39.5t-74 -97.5t-19.5 -207v-452q0 -148 20 -230t85 -145t155 -63t153.5 82.5t63.5 223.5t-81 229.5t-226 88.5zM887 404q0 -174 -97 -301.5t-249 -127.5q-189 0 -283 160v-543h-147v1440
q0 218 100.5 338.5t258.5 120.5t251.5 -107.5t93.5 -241.5t-60 -222.5t-167 -114.5q144 -22 221.5 -124.5t77.5 -276.5z" />
    <glyph glyph-name="gamma" unicode="&#x3b3;" horiz-adv-x="840" 
d="M494 -408h-148v408l-326 1061h156l244 -836l248 836h151l-325 -1061v-408z" />
    <glyph glyph-name="delta" unicode="&#x3b4;" 
d="M468 909q-114 0 -185.5 -108.5t-71.5 -284.5t74.5 -283.5t186.5 -107.5t182.5 104.5t70.5 286.5t-71.5 287.5t-185.5 105.5zM143 1466h658v-145h-461q76 -92 210 -208.5t230.5 -224.5t96.5 -363q0 -254 -110.5 -401t-298.5 -147t-298.5 146.5t-110.5 386.5t99 385
t266 154q-96 85 -281 288v129z" />
    <glyph glyph-name="epsilon" unicode="&#x3b5;" horiz-adv-x="729" 
d="M420 618h31v-145h-27q-221 0 -221 -176q0 -75 45.5 -123.5t111.5 -48.5q111 0 213 131l107 -111q-72 -89 -147 -128.5t-198 -39.5t-203.5 89t-80.5 223q0 186 144 260q-121 79 -121 221t77.5 228.5t210.5 86.5q168 0 287 -143l-106 -104q-101 92 -177 92t-113.5 -42.5
t-37.5 -103.5q0 -166 205 -166z" />
    <glyph glyph-name="zeta" unicode="&#x3b6;" horiz-adv-x="737" 
d="M193 1321v145h534v-123q-243 -192 -380.5 -450.5t-137.5 -463.5t79 -232t163 -36t136 -33t88 -87t36 -141q0 -121 -78.5 -225.5t-241.5 -104.5l39 166q139 23 139 139q0 54 -33 87.5t-153.5 39.5t-185.5 51t-102.5 140t-37.5 227q0 221 129.5 470.5t345.5 430.5h-339z
" />
    <glyph glyph-name="eta" unicode="&#x3b7;" 
d="M248 1061v-150q97 174 276 174q108 0 183 -59t95.5 -142t20.5 -231v-1061h-147v1053q0 184 -57.5 234.5t-133.5 50.5t-149.5 -68t-73.5 -282v-580h-147v1061h133z" />
    <glyph glyph-name="theta" unicode="&#x3b8;" 
d="M467 125q227 0 240 537h-480q10 -331 79.5 -434t160.5 -103zM468 1343q-118 0 -175.5 -130.5t-65.5 -405.5h480q-8 277 -64.5 406.5t-174.5 129.5zM468 -23q-392 0 -392 757t392 757t392 -757t-392 -757z" />
    <glyph glyph-name="iota" unicode="&#x3b9;" horiz-adv-x="467" 
d="M166 0v1062h147v-1062h-147z" />
    <glyph glyph-name="kappa" unicode="&#x3ba;" horiz-adv-x="836" 
d="M109 0v1061h147v-416l352 416h197l-391 -440l424 -621h-189l-340 500l-53 -62v-438h-147z" />
    <glyph glyph-name="lambda" unicode="&#x3bb;" horiz-adv-x="840" 
d="M664 0l-244 795l-244 -795h-156l324 1042l-129 424h156l448 -1466h-155z" />
    <glyph glyph-name="mu" unicode="&#x3bc;" 
d="M686 0v125q-75 -152 -221 -152q-122 0 -205 133v-514h-147v1469h147v-449q0 -293 49 -383t157 -90q57 0 110 41t75.5 114t22.5 247v520h147v-1061h-135z" />
    <glyph glyph-name="nu" unicode="&#x3bd;" horiz-adv-x="840" 
d="M352 0l-331 1062h156l187 -636q32 -108 56 -214q19 84 54 202l194 648h152l-330 -1062h-138z" />
    <glyph glyph-name="xi" unicode="&#x3be;" horiz-adv-x="643" 
d="M467 983h141v-149q-193 0 -295 -125t-102 -283q0 -197 164 -244q202 -58 266 -107.5t64 -180.5t-86 -227.5t-244 -96.5l39 166q149 18 149 137q0 63 -39 87t-129 44q-210 46 -273 160t-63 258t69.5 265t197.5 192q-110 22 -167 100t-57 182q0 144 101 236t252 92h161
v-146h-143q-110 0 -169.5 -50t-59.5 -134q0 -176 223 -176z" />
    <glyph glyph-name="omicron" unicode="&#x3bf;" 
d="M204 530q0 -206 75 -306t183 -100t182 102t74 306t-75 304t-183 101q-108 0 -182 -101t-74 -306zM53 532q-1 274 115 414t292 140t292 -140q117 -140 117 -415t-115 -415q-116 -140 -292 -140t-292 140q-116 142 -117 416z" />
    <glyph glyph-name="pi" unicode="&#x3c0;" horiz-adv-x="1139" 
d="M766 915h-363v-915h-147v915h-229v146h1085v-146h-199v-915h-147v915z" />
    <glyph glyph-name="rho" unicode="&#x3c1;" horiz-adv-x="958" 
d="M748 527q0 194 -68 302.5t-182 108.5q-238 0 -238 -420q0 -189 62 -291t176 -102t182 104t68 298zM258 -408h-147v934q0 273 99.5 416t281.5 143t294.5 -150.5t112.5 -402.5t-106.5 -403.5t-272.5 -151.5t-262 123v-508z" />
    <glyph glyph-name="sigma1" unicode="&#x3c2;" horiz-adv-x="793" 
d="M438 -264q56 0 104 39.5t48 89.5t-25 79t-128 61q-376 116 -376 484q0 251 146 423.5t360 172.5q123 0 215 -32l-37 -152q-95 37 -182 37q-158 0 -259 -120.5t-101 -311.5q0 -243 273 -338q165 -58 215 -125.5t50 -153.5q0 -139 -87.5 -229t-229.5 -90q-65 0 -125 12
l37 166q46 -12 102 -12z" />
    <glyph glyph-name="sigma" unicode="&#x3c3;" horiz-adv-x="1117" 
d="M496 955q-271 0 -271 -442q0 -187 68.5 -296t197.5 -109t195.5 111t66.5 310t-65.5 312.5t-191.5 113.5zM1085 1064v-152h-279q117 -136 117 -386t-114 -402t-320 -152t-319.5 153t-113.5 408t117 401t295 146l237 -16h380z" />
    <glyph glyph-name="tau" unicode="&#x3c4;" horiz-adv-x="641" 
d="M614 915h-211v-915h-147v915h-229v146h587v-146z" />
    <glyph glyph-name="upsilon" unicode="&#x3c5;" 
d="M113 414v647h147v-655q0 -126 58 -203.5t148 -77.5t149 79.5t59 219.5v637h147v-651q0 -199 -96.5 -316t-260.5 -117t-257.5 115t-93.5 322z" />
    <glyph glyph-name="phi" unicode="&#x3c6;" horiz-adv-x="1090" 
d="M625 764v-625q115 27 184.5 151t69.5 294t-50.5 262t-119.5 92q-43 0 -63.5 -37t-20.5 -137zM477 -408v383q-187 20 -302.5 185t-115.5 395t102.5 380.5t248.5 147.5l-29 -155q-170 -70 -170 -363q0 -165 69 -280.5t197 -151.5v660q0 184 47.5 238t149.5 54
q178 0 267 -160t89 -363t-105 -367t-300 -220v-383h-148z" />
    <glyph glyph-name="chi" unicode="&#x3c7;" horiz-adv-x="877" 
d="M348 332l-311 729h162l239 -588l248 588h162l-320 -723l336 -746h-168l-258 613l-262 -613h-164z" />
    <glyph glyph-name="psi" unicode="&#x3c8;" horiz-adv-x="1223" 
d="M113 520v541h147v-549q0 -213 69 -295.5t208 -89.5v934h147v-934q140 8 209.5 92.5t69.5 294.5v547h147v-541q0 -189 -38.5 -300.5t-140.5 -175t-247 -69.5v-383h-147v383q-148 6 -250 73t-138 175.5t-36 296.5z" />
    <glyph glyph-name="omega" unicode="&#x3c9;" horiz-adv-x="1286" 
d="M571 463v332h148v-332q0 -167 48 -256.5t126 -89.5t131 103.5t53 266.5q0 251 -121 574h142q131 -277 131 -539t-87.5 -404.5t-232.5 -142.5q-185 0 -266 240q-83 -240 -264 -240q-145 0 -232.5 143t-87.5 405t129 538h144q-121 -329 -121 -574q0 -162 53.5 -266
t131.5 -104t126.5 89.5t48.5 256.5z" />
    <glyph glyph-name="iotadieresis" unicode="&#x3ca;" horiz-adv-x="467" 
d="M166 0v1062h147v-1062h-147zM310 1270v205h154v-205h-154zM4 1270v205h154v-205h-154z" />
    <glyph glyph-name="upsilondieresis" unicode="&#x3cb;" 
d="M113 414v647h147v-655q0 -126 58 -204t148 -77q90 -1 150 79q58 80 58 220v637h147v-651q0 -199 -97 -316q-96 -117 -260 -117t-258 115t-93 322zM541 1270v205h154v-205h-154zM235 1270v205h154v-205h-154z" />
    <glyph glyph-name="omicrontonos" unicode="&#x3cc;" 
d="M204 530q0 -206 75 -306t183 -100t182 102t74 306t-75 304t-183 101q-108 0 -182 -101t-74 -306zM53 532q-1 274 115 414t292 140t292 -140q117 -140 117 -415t-115 -415q-116 -140 -292 -140t-292 140q-116 142 -117 416zM353 1194l109 280h193l-180 -280h-122z" />
    <glyph glyph-name="upsilontonos" unicode="&#x3cd;" 
d="M113 414v647h147v-655q0 -126 58 -204t148 -77q90 -1 150 79q58 80 58 220v637h147v-651q0 -199 -97 -316q-96 -117 -260 -117t-258 115t-93 322zM340 1194l109 280h193l-180 -280h-122z" />
    <glyph glyph-name="omegatonos" unicode="&#x3ce;" horiz-adv-x="1286" 
d="M571 463v332h148v-332q0 -167 48 -257t126 -89q78 -1 131 103t53 267q0 251 -121 574h142q131 -277 131 -539q1 -262 -87 -404q-88 -143 -233 -143q-185 0 -266 240q-83 -240 -264 -240q-145 0 -233 143t-87 405q0 262 129 538h144q-121 -329 -121 -574q0 -162 53 -266
q54 -104 132 -104q78 -1 126 89t49 257zM520 1194l109 280h193l-180 -280h-122z" />
    <glyph glyph-name="afii10023" unicode="&#x401;" horiz-adv-x="1120" 
d="M133 0v1466h869v-173h-710v-449h665v-172h-665v-499h738v-173h-897zM644 1642v205h154v-205h-154zM338 1642v205h154v-205h-154z" />
    <glyph glyph-name="afii10051" unicode="&#x402;" horiz-adv-x="1453" 
d="M42 1466h960v-173h-401v-456q208 99 361 99q191 0 307.5 -141.5t116.5 -336.5t-99.5 -339t-275.5 -144q-90 0 -194 33l27 164q61 -37 129 -37q104 0 177.5 75.5t73.5 229.5t-77 244t-219 90t-327 -94v-680h-159v1293h-400v173z" />
    <glyph glyph-name="afii10052" unicode="&#x403;" horiz-adv-x="897" 
d="M132 1467h729v-174h-570v-1293h-159v1467zM368 1567l109 280h193l-180 -280h-122z" />
    <glyph glyph-name="afii10053" unicode="&#x404;" horiz-adv-x="1207" 
d="M693 843v-173h-446q9 -248 112.5 -390t264.5 -142q286 0 360 372l153 -49q-97 -486 -501 -486q-276 0 -415 223.5t-139 550.5q0 207 65.5 373.5t192 267.5t305.5 101t305 -111.5t172 -315.5l-156 -50q-70 307 -328 307q-158 0 -260 -122t-125 -356h440z" />
    <glyph glyph-name="afii10054" unicode="&#x405;" horiz-adv-x="1120" 
d="M275 1106q0 -92 52 -141t232 -99t271 -95t147 -137t56 -218t-59 -230q-121 -211 -405 -212q-223 0 -355 134t-138 363l150 16q12 -121 54 -189t122 -108q80 -41 200 -41q120 -1 198 69t79 191q-1 121 -115 183q-58 31 -238 84t-252 104q-152 108 -152 296q0 189 115 302
t310 113q135 0 235 -53t156 -152t59 -233l-153 -14q-24 281 -292 281q-135 0 -206 -60q-71 -62 -71 -154z" />
    <glyph glyph-name="afii10055" unicode="&#x406;" horiz-adv-x="467" 
d="M160 0v1466h159v-1466h-159z" />
    <glyph glyph-name="afii10056" unicode="&#x407;" horiz-adv-x="467" 
d="M160 0v1466h159v-1466h-159zM308 1642v205h154v-205h-154zM2 1642v205h154v-205h-154z" />
    <glyph glyph-name="afii10057" unicode="&#x408;" horiz-adv-x="840" 
d="M355 148q69 0 113 32t61 88q18 56 18 188v1010h159v-999q0 -270 -88 -381t-248 -111q-325 0 -325 441l143 24q6 -168 52 -230t115 -62z" />
    <glyph glyph-name="afii10058" unicode="&#x409;" horiz-adv-x="1775" 
d="M966 165h317q92 0 141 22.5t83 81.5t34 153t-39 154t-102 78.5t-221 18.5h-213v-508zM966 1466v-626h287q245 0 352.5 -105.5t107.5 -307.5q0 -131 -55 -238t-139.5 -148t-242.5 -41h-470v1293h-434v-755q0 -225 -17.5 -333.5t-75 -169t-127.5 -60.5t-142 25l27 171
q39 -20 67 -20q53 0 81 48t28 235v1032h753z" />
    <glyph glyph-name="afii10059" unicode="&#x40a;" horiz-adv-x="1696" 
d="M887 165h298q102 0 151.5 18t88 78t38.5 155t-36 155t-103.5 81t-243.5 21h-193v-508zM887 1466v-626h267q173 0 267 -34.5t153.5 -137t59.5 -238.5t-55 -241t-137 -147t-254 -42h-460v673h-435v-673h-159v1466h159v-626h435v626h159z" />
    <glyph glyph-name="afii10060" unicode="&#x40b;" horiz-adv-x="1434" 
d="M41 1466h962v-173h-401v-451q224 94 363 94t234 -72.5t127.5 -183.5t32.5 -294v-386h-159v379q0 206 -58 299.5t-194 93.5t-346 -92v-680h-160v1293h-401v173z" />
    <glyph glyph-name="afii10061" unicode="&#x40c;" horiz-adv-x="977" 
d="M132 1466h159v-642q109 0 153 51t106 226t96 237q75 131 256 131q29 0 59 -3v-169l-32 1l-36 1q-65 1 -103 -37t-94 -210t-98 -222t-103 -80q117 -39 230 -262l247 -488h-197l-201 398q-95 189 -152 239t-115 50q-7 0 -16 -1v-686h-159v1466zM393 1566l109 280h193
l-180 -280h-122z" />
    <glyph glyph-name="afii10062" unicode="&#x40e;" horiz-adv-x="1066" 
d="M335 -20q-80 0 -169 35v166q64 -45 129 -45t107 45t93 208l-487 1077h160l393 -898l342 898h159l-451 -1140q-87 -218 -141 -282t-135 -64zM547 1565q-101 0 -165 65t-77 194h101q23 -135 137 -135q64 0 99 32t47 103h101q-13 -129 -78 -194t-165 -65z" />
    <glyph glyph-name="afii10145" unicode="&#x40f;" horiz-adv-x="1207" 
d="M674 0v-407h-141v407h-402v1466h159v-1293h627v1293h159v-1466h-402z" />
    <glyph glyph-name="afii10017" unicode="&#x410;" horiz-adv-x="1120" 
d="M345 602h407l-125 406q-58 187 -85 304q-23 -141 -65 -280zM-2 0l462 1466h171l492 -1466h-182l-140 444h-502l-132 -444h-169z" />
    <glyph glyph-name="afii10018" unicode="&#x411;" horiz-adv-x="1102" 
d="M296 165h318q123 0 190.5 58.5t67.5 197.5q0 94 -38.5 154t-103 79.5t-221.5 19.5h-213v-509zM137 1466h780v-173h-621v-452h287q160 0 253 -37t150 -139t57 -235t-53 -238t-138 -148.5t-245 -43.5h-470v1466z" />
    <glyph glyph-name="afii10019" unicode="&#x412;" horiz-adv-x="1120" 
d="M283 173h299q98 0 156 22q58 21 94 81t35 146q0 86 -34 144q-33 58 -91 84t-181 27h-278v-504zM283 850h260q103 0 155 18t86 66q34 50 33 132t-31 134t-80 73q-50 20 -182 20h-241v-443zM124 0v1466h451q137 0 217 -42t131 -133q51 -90 51 -195q0 -213 -168 -316
q106 -38 166 -130t60 -224q0 -134 -54 -234t-146 -146q-91 -46 -250 -46h-458z" />
    <glyph glyph-name="afii10020" unicode="&#x413;" horiz-adv-x="897" 
d="M132 1467h729v-174h-570v-1293h-159v1467z" />
    <glyph glyph-name="afii10021" unicode="&#x414;" horiz-adv-x="1137" 
d="M811 1293h-419v-75q0 -185 -26.5 -507.5t-108.5 -537.5h554v1120zM239 1466h731v-1293h108v-515h-142v342h-794v-342h-142v515h93q146 266 146 1079v214z" />
    <glyph glyph-name="afii10022" unicode="&#x415;" horiz-adv-x="1120" 
d="M133 0v1466h869v-173h-710v-449h665v-172h-665v-499h738v-173h-897z" />
    <glyph glyph-name="afii10024" unicode="&#x416;" horiz-adv-x="1550" 
d="M857 1466v-642q118 2 160.5 51t106.5 232t105.5 246.5t96 88t186.5 24.5h21v-169l-31 1l-36 1q-74 0 -111 -46.5t-91 -210.5t-95.5 -213.5t-100.5 -78.5q118 -40 229 -262l248 -488h-198l-201 398q-91 182 -148 235t-141 53v-686h-163v686q-101 0 -156 -66t-134 -222
l-201 -398h-197l248 488q113 223 229 262q-64 32 -105 85t-95 218t-91 205.5t-111 40.5l-63 -2v169h20q135 0 188 -24.5t95 -89t106 -246.5t106.5 -231t160.5 -51v642h163z" />
    <glyph glyph-name="afii10025" unicode="&#x417;" horiz-adv-x="1014" 
d="M505 141q123 0 198.5 77t75.5 196t-77.5 190t-209.5 71h-76v169q110 0 166.5 15t103 77.5t46.5 149.5t-59 161t-157 74t-160.5 -50.5t-91 -139t-28.5 -149.5l-152 42q56 467 423 467q177 0 279.5 -120t102.5 -279q0 -202 -158 -318q92 -31 153.5 -126t61.5 -229
q0 -191 -121.5 -317.5t-316.5 -126.5q-342 0 -444 439l152 48q16 -105 91 -213t198 -108z" />
    <glyph glyph-name="afii10026" unicode="&#x418;" horiz-adv-x="1207" 
d="M132 1466h144v-1161l640 1161h160v-1466h-144v1158l-641 -1158h-159v1466z" />
    <glyph glyph-name="afii10027" unicode="&#x419;" horiz-adv-x="1207" 
d="M132 1466h144v-1161l640 1161h160v-1466h-144v1158l-641 -1158h-159v1466zM627 1565q-101 0 -165 65t-77 194h101q23 -135 137 -135q64 0 99 32t47 103h101q-13 -129 -78 -194t-165 -65z" />
    <glyph glyph-name="afii10028" unicode="&#x41a;" horiz-adv-x="977" 
d="M132 1466h159v-642q110 0 153.5 51t105.5 226t117 271.5t235 96.5q29 0 59 -3v-169l-32 1l-36 1q-65 0 -103 -37.5t-94 -209.5t-98 -222t-103 -80q117 -39 230 -262l247 -488h-197l-201 398q-95 189 -152 239t-115 50q-7 0 -16 -1v-686h-159v1466z" />
    <glyph glyph-name="afii10029" unicode="&#x41b;" horiz-adv-x="1102" 
d="M217 1466h753v-1466h-160v1293h-434v-755q0 -225 -17.5 -333.5t-75 -169t-127.5 -60.5t-142 25l27 171q39 -20 67 -20q53 0 81 48t28 235v1032z" />
    <glyph glyph-name="afii10030" unicode="&#x41c;" horiz-adv-x="1399" 
d="M125 0v1466h239l285 -1038l57 -217q21 81 64 235l288 1020h214v-1466h-153v1227l-350 -1227h-143l-348 1248v-1248h-153z" />
    <glyph glyph-name="afii10031" unicode="&#x41d;" horiz-adv-x="1212" 
d="M129 0v1466h159v-602h625v602h159v-1466h-159v691h-625v-691h-159z" />
    <glyph glyph-name="afii10032" unicode="&#x41e;" horiz-adv-x="1307" 
d="M249 732q-1 -292 119 -442t293 -149q173 0 291 151t119 444q0 188 -54 320q-55 132 -149 200t-206 69q-180 0 -296 -150q-116 -151 -117 -443zM85 714q0 374 165 576t411 202q159 0 290 -90t207 -262t77 -408q0 -326 -148 -531q-163 -226 -428 -226t-427 232
q-147 210 -147 507z" />
    <glyph glyph-name="afii10033" unicode="&#x41f;" horiz-adv-x="1212" 
d="M295 0h-160v1466h944v-1466h-159v1294h-625v-1294z" />
    <glyph glyph-name="afii10034" unicode="&#x420;" horiz-adv-x="1120" 
d="M289 769h311q147 1 215 67t68 200q1 87 -33 149t-82 85t-171 23h-308v-524zM130 0v1466h453q160 0 250 -33t152 -136t62 -253q0 -198 -101 -323t-349 -125h-308v-596h-159z" />
    <glyph glyph-name="afii10035" unicode="&#x421;" horiz-adv-x="1212" 
d="M646 -25q-178 -1 -296 81t-194 262t-76 424t76 410q76 168 204 254q130 86 296 85t291 -109t175 -318l-156 -45q-80 306 -324 306t-346 -253q-52 -130 -52 -329q0 -301 106 -451t282 -151q130 1 224 93t127 280l160 -49q-53 -247 -185 -369q-134 -122 -312 -121z" />
    <glyph glyph-name="afii10036" unicode="&#x422;" horiz-adv-x="1026" 
d="M438 0v1293h-396v173h953v-173h-398v-1293h-159z" />
    <glyph glyph-name="afii10037" unicode="&#x423;" horiz-adv-x="1066" 
d="M335 -20q-80 0 -169 35v166q64 -45 129 -45t107 45t93 208l-487 1077h160l393 -898l342 898h159l-451 -1140q-87 -218 -141.5 -282t-134.5 -64z" />
    <glyph glyph-name="afii10038" unicode="&#x424;" horiz-adv-x="1276" 
d="M231 740q0 -176 92 -276t241 -107v766q-149 -8 -241 -107.5t-92 -275.5zM1045 734q0 180 -88.5 280t-243.5 110v-768q147 11 239.5 104.5t92.5 273.5zM564 1466h149v-176q229 -15 362.5 -168t133.5 -382t-132 -382.5t-364 -168.5v-189h-149v189q-214 10 -355.5 158.5
t-141.5 392.5t141.5 392t355.5 158v176z" />
    <glyph glyph-name="afii10039" unicode="&#x425;" horiz-adv-x="1120" 
d="M8 0l465 764l-410 702h189l219 -376q67 -116 96 -180q39 78 95 167l243 389h172l-422 -691l455 -775h-196l-303 523q-25 44 -52 98q-41 -80 -58 -110l-302 -511h-191z" />
    <glyph glyph-name="afii10040" unicode="&#x426;" horiz-adv-x="1243" 
d="M131 1466h159v-1293h627v1293h159v-1293h110v-580h-141v407h-914v1466z" />
    <glyph glyph-name="afii10041" unicode="&#x427;" horiz-adv-x="1120" 
d="M988 0h-159v591q-214 -97 -356 -97t-237.5 69.5t-129.5 179t-34 292.5v431h159v-413q0 -215 62 -303t184 -88q166 0 352 91v713h159v-1466z" />
    <glyph glyph-name="afii10042" unicode="&#x428;" horiz-adv-x="1540" 
d="M132 1466h159v-1293h399v1293h160v-1293h399v1293h159v-1466h-1276v1466z" />
    <glyph glyph-name="afii10043" unicode="&#x429;" horiz-adv-x="1575" 
d="M132 1466h159v-1293h399v1293h160v-1293h399v1293h159v-1293h109v-580h-142v407h-1243v1466z" />
    <glyph glyph-name="afii10044" unicode="&#x42a;" horiz-adv-x="1330" 
d="M525 165h291q148 0 216.5 60.5t68.5 198.5q0 92 -40.5 152.5t-104 78.5t-219.5 18h-212v-508zM0 1466h525v-626h287q160 0 253 -37.5t150 -139.5t57 -254t-94.5 -280.5t-354.5 -128.5h-458v1293h-365v173z" />
    <glyph glyph-name="afii10045" unicode="&#x42b;" horiz-adv-x="1569" 
d="M294 165h291q149 1 217 61t68 200q0 92 -40 152t-104 77q-63 18 -219 18h-213v-508zM135 1466h159v-626h287q158 0 252 -37t151 -139t57 -254q-1 -154 -95 -282t-354 -128h-457v1466zM1264 0v1466h159v-1466h-159z" />
    <glyph glyph-name="afii10046" unicode="&#x42c;" horiz-adv-x="1102" 
d="M294 165h291q148 0 216.5 60.5t68.5 200.5q0 92 -40.5 151.5t-103.5 77.5t-219 18h-213v-508zM135 1466h159v-626h287q158 0 252 -37t151 -138.5t57 -254.5t-94.5 -281.5t-354.5 -128.5h-457v1466z" />
    <glyph glyph-name="afii10047" unicode="&#x42d;" horiz-adv-x="1207" 
d="M514 843h440q-24 240 -127 359t-258 119q-258 0 -328 -307l-155 50q45 204 171.5 315.5t311.5 111.5q261 0 408.5 -216.5t147.5 -532.5t-138.5 -541.5t-410.5 -225.5q-409 0 -506 486l153 49q47 -217 138.5 -294.5t221.5 -77.5q164 0 266.5 145t110.5 387h-446v173z" />
    <glyph glyph-name="afii10048" unicode="&#x42e;" horiz-adv-x="1696" 
d="M685 731q0 -283 105.5 -436.5t277.5 -153.5t276 154t104 438t-102 439t-276 155t-279.5 -156.5t-105.5 -439.5zM135 1466h159v-658h232q17 312 167.5 497.5t375.5 185.5t384 -195.5t159 -553.5t-153 -562.5t-393 -204.5t-376.5 187.5t-160.5 473.5h-235v-636h-159v1466z
" />
    <glyph glyph-name="afii10049" unicode="&#x42f;" horiz-adv-x="1212" 
d="M924 819v485h-380q-128 0 -193 -64t-65 -157q0 -94 34 -152t92 -85t170 -27h342zM1083 0h-159v651h-184q-80 1 -124 -21t-92 -84t-141 -241l-160 -305h-200l210 399q54 103 125 187q35 41 102 81q-166 28 -252 131t-86 249q0 145 51 241t131 137t246 41h533v-1466z" />
    <glyph glyph-name="afii10065" unicode="&#x430;" 
d="M215 270q0 -62 47 -108t128 -45q82 0 146 41q64 42 96 110t32 199v66q-82 -40 -208 -62q-126 -23 -163 -43t-57 -58t-21 -100zM58 279q0 92 38 163t104 111q66 41 223 63t241 58l1 46q0 109 -39 153q-56 64 -164 64q-108 -1 -159 -43t-75 -159l-145 24q31 171 125 249
t252 78q156 0 234 -52t98 -127q20 -76 21 -222v-240q-1 -251 9 -317t38 -128h-154q-23 55 -30 131q-149 -155 -320 -155q-136 0 -217 82t-81 221z" />
    <glyph glyph-name="afii10066" unicode="&#x431;" horiz-adv-x="962" 
d="M742 529q0 184 -68.5 284t-184.5 100t-182 -109t-66 -301t74.5 -287t180.5 -95t176 112t70 296zM558 1285q-158 0 -225.5 -41.5t-97.5 -138t-34 -245.5q111 202 292 202t292 -145t111 -381t-103 -398t-299 -162q-146 0 -233.5 79.5t-136.5 219.5t-49 469q0 430 116.5 576
t360.5 146q151 0 171.5 7t25.5 27h131q-9 -110 -40 -151.5t-77.5 -52.5t-204.5 -11z" />
    <glyph glyph-name="afii10067" unicode="&#x432;" horiz-adv-x="892" 
d="M258 148h195q125 0 173 38t48 122t-50.5 121.5t-185.5 37.5h-180v-319zM258 615h158q94 0 129.5 12t63.5 48.5t28 104.5t-49.5 100.5t-166.5 32.5h-163v-298zM111 1062h340q116 0 177.5 -22t110 -90.5t48.5 -169.5q0 -152 -104 -227q143 -64 143 -256q0 -123 -73 -210
t-249 -87h-393v1062z" />
    <glyph glyph-name="afii10068" unicode="&#x433;" horiz-adv-x="613" 
d="M112 1062h501v-149h-354v-913h-147v1062z" />
    <glyph glyph-name="afii10069" unicode="&#x434;" horiz-adv-x="979" 
d="M687 148v765h-337q-16 -518 -131 -765h468zM834 1062v-914h94v-449h-121v301h-685v-301h-122v449h78q153 254 150 914h606z" />
    <glyph glyph-name="afii10070" unicode="&#x435;" 
d="M470 938q-104 0 -174 -82t-77 -223h486q-10 138 -59 206q-72 99 -176 99zM472 -24q-186 0 -300 140t-114 411t116 415t288 144q173 0 286 -142t113 -411l-1 -48h-650q9 -179 83 -270t180 -91q166 0 231 218l152 -23q-38 -171 -138 -257t-246 -86z" />
    <glyph glyph-name="afii10072" unicode="&#x436;" horiz-adv-x="1123" 
d="M638 1062v-459q70 0 98 33t78 176t77.5 183.5t61.5 53.5t120 13h22v-149l-44 1q-44 0 -64.5 -15t-36.5 -66q-50 -161 -79 -207t-92 -81q96 -31 187 -216l162 -329h-162l-158 329q-49 101 -85.5 131.5t-84.5 30.5v-491h-151v491q-49 0 -85 -29.5t-86 -132.5l-158 -329
h-162l162 329q92 186 187 216q-61 34 -89.5 76t-81.5 212q-15 50 -35.5 65.5t-65.5 15.5l-44 -1v149h22q89 0 126 -16t62.5 -59t73.5 -183t76 -170.5t98 -30.5v459h151z" />
    <glyph glyph-name="afii10073" unicode="&#x437;" horiz-adv-x="769" 
d="M525 784q0 68 -39.5 111t-102.5 43q-125 0 -175 -179l-140 28q67 299 317 299q138 0 217.5 -92t79.5 -220t-103 -210q131 -87 131 -267q0 -143 -85 -232t-238 -89q-297 0 -346 323l138 36q19 -101 77 -157.5t133 -56.5t124 51.5t49 123.5t-31 116.5t-65.5 56.5t-113.5 12
l-48 -1v141q94 1 127.5 9t63.5 47t30 107z" />
    <glyph glyph-name="afii10074" unicode="&#x438;" horiz-adv-x="939" 
d="M111 1062h147v-810l410 810h159v-1062h-147v805l-410 -805h-159v1062z" />
    <glyph glyph-name="afii10075" unicode="&#x439;" 
d="M111 1062h147v-810l410 810h159v-1062h-147v805l-410 -805h-159v1062zM463 1205q-101 0 -165 65t-77 194h101q23 -135 137 -135q64 0 99 32t47 103h101q-13 -129 -78 -194t-165 -65z" />
    <glyph glyph-name="afii10076" unicode="&#x43a;" horiz-adv-x="734" 
d="M110 1062h147v-459q71 0 99.5 33.5t77.5 175.5t76.5 183t62 54t120.5 13h22v-149l-44 1q-47 0 -67 -17t-34 -64q-50 -161 -79 -207t-92 -81q95 -31 187 -216l162 -329h-162l-158 329q-48 100 -84.5 131t-86.5 31v-491h-147v1062z" />
    <glyph glyph-name="afii10077" unicode="&#x43b;" horiz-adv-x="979" 
d="M182 1062h686v-1062h-147v913h-391v-529q0 -181 -9.5 -243t-55 -105t-113.5 -43t-133 7v151q104 1 123 7t29.5 30.5t10.5 173.5v700z" />
    <glyph glyph-name="afii10078" unicode="&#x43c;" horiz-adv-x="1155" 
d="M115 1062h230l229 -850l253 850h213v-1062h-148v855l-257 -855h-132l-244 896v-896h-144v1062z" />
    <glyph glyph-name="afii10079" unicode="&#x43d;" horiz-adv-x="927" 
d="M111 1062h147v-442h410v442h147v-1062h-147v471h-410v-471h-147v1062z" />
    <glyph glyph-name="afii10080" unicode="&#x43e;" 
d="M204 530q0 -206 75 -306t183 -100t182 102t74 306t-75 304t-183 101q-108 0 -182 -101t-74 -306zM53 532q-1 274 115 414t292 140t292 -140q117 -140 117 -415t-115 -415q-116 -140 -292 -140t-292 140q-116 142 -117 416z" />
    <glyph glyph-name="afii10081" unicode="&#x43f;" horiz-adv-x="910" 
d="M112 1062h687v-1062h-147v913h-393v-913h-147v1062z" />
    <glyph glyph-name="afii10082" unicode="&#x440;" 
d="M241 524q0 -206 69 -302q69 -98 165 -98t167 101t71 311t-69 309q-69 100 -163 100q-94 1 -167 -107t-73 -314zM491 -24q-146 0 -236 134v-517h-147v1469h135v-138q94 162 251 162q103 0 186 -61q84 -61 134 -185t50 -300q0 -272 -114 -418t-259 -146z" />
    <glyph glyph-name="afii10083" unicode="&#x441;" horiz-adv-x="840" 
d="M457 -24q-171 0 -281 140t-111 417t111 415t287 138q135 0 227 -84t119 -252l-143 -27q-21 107 -73 161t-125 54q-108 0 -180 -96t-72 -310t68 -311t164 -97q199 0 231 265l145 -23q-26 -190 -126 -290t-241 -100z" />
    <glyph glyph-name="afii10084" unicode="&#x442;" horiz-adv-x="769" 
d="M31 1062h708v-149h-280v-913h-148v913h-280v149z" />
    <glyph glyph-name="afii10085" unicode="&#x443;" horiz-adv-x="840" 
d="M178 -256q83 0 122 78q7 14 58 176l-331 1064h159l182 -615q34 -115 63 -246q25 124 60 242l186 619h148l-331 -1080q-64 -210 -102 -280q-70 -132 -193 -133q-42 0 -95 22l-16 169q49 -16 90 -16z" />
    <glyph glyph-name="afii10086" unicode="&#x444;" horiz-adv-x="1382" 
d="M212 526q0 -212 64.5 -307t151.5 -95q191 0 191 407t-202 407q-86 0 -145.5 -100t-59.5 -312zM962 939q-197 -1 -197 -409t191 -408q92 0 154 105t62 309t-59 303.5t-151 99.5zM618 1466h148v-507q92 127 230 127t231.5 -153t93.5 -401t-98 -402t-243 -154
q-119 0 -214 116v-499h-148v499q-89 -116 -214 -116q-150 0 -246 158t-96 408q0 177 74 360.5t268 183.5q130 0 214 -127v507z" />
    <glyph glyph-name="afii10087" unicode="&#x445;" horiz-adv-x="840" 
d="M12 0l318 552l-294 510h184l134 -249q37 -69 61 -119q37 68 66 117l147 251h176l-301 -500l324 -562h-181l-226 419l-229 -419h-179z" />
    <glyph glyph-name="afii10088" unicode="&#x446;" horiz-adv-x="962" 
d="M113 1062h147v-914h409v914h148v-914h95v-555h-122v407h-677v1062z" />
    <glyph glyph-name="afii10089" unicode="&#x447;" horiz-adv-x="875" 
d="M56 1062h147v-201q0 -132 14 -192.5t63.5 -101t125.5 -40.5t210 54v481h147v-1062h-147v428q-136 -52 -260 -52t-212 101.5t-88 306.5v278z" />
    <glyph glyph-name="afii10090" unicode="&#x448;" horiz-adv-x="1347" 
d="M116 1062h147v-913h337v913h148v-913h336v913h147v-1062h-1115v1062z" />
    <glyph glyph-name="afii10091" unicode="&#x449;" horiz-adv-x="1382" 
d="M115 1062h147v-914h337v914h148v-914h336v914h147v-914h98v-555h-122v407h-1091v1062z" />
    <glyph glyph-name="afii10092" unicode="&#x44a;" horiz-adv-x="1049" 
d="M422 146h155q169 0 214.5 53t45.5 131t-52.5 122.5t-187.5 44.5h-175v-351zM0 1062h422v-415h188q172 0 276 -82.5t104 -226.5t-80 -241t-266 -97h-369v913h-275v149z" />
    <glyph glyph-name="afii10093" unicode="&#x44b;" horiz-adv-x="1249" 
d="M255 148h155q169 0 215 54t46 129q0 167 -241 167h-175v-350zM108 1062h147v-415h188q202 0 291 -95q89 -94 89 -226q-1 -132 -81 -229t-265 -97h-369v1062zM970 0v1062h147v-1062h-147z" />
    <glyph glyph-name="afii10094" unicode="&#x44c;" horiz-adv-x="875" 
d="M255 148h155q169 0 215 54t46 129q0 167 -241 167h-175v-350zM108 1062h147v-415h188q202 0 291 -94.5t89 -226.5t-80.5 -229t-265.5 -97h-369v1062z" />
    <glyph glyph-name="afii10095" unicode="&#x44d;" horiz-adv-x="857" 
d="M337 618h307q-12 135 -74.5 227t-163.5 92q-172 0 -207 -217l-144 28q16 146 108.5 242t238.5 96q183 0 288.5 -148.5t105.5 -404.5t-103 -406.5t-271 -150.5t-264 109t-118 280l145 23q33 -264 221 -264q211 0 238 346h-307v148z" />
    <glyph glyph-name="afii10096" unicode="&#x44e;" horiz-adv-x="1259" 
d="M816 933q-110 0 -169.5 -101.5t-59.5 -301.5t60 -303t159 -103t166.5 89t67.5 310q0 410 -224 410zM112 1062h147v-444h179q44 468 376 468q172 0 274.5 -146t102.5 -412t-101.5 -409t-273.5 -143t-267 132t-111 362h-179v-470h-147v1062z" />
    <glyph glyph-name="afii10097" unicode="&#x44f;" horiz-adv-x="910" 
d="M650 913h-210q-132 0 -170 -50.5t-38 -131.5t56.5 -125t198.5 -44h163v351zM797 1062v-1062h-147v414h-86q-75 0 -114 -24t-113 -158l-128 -232h-183l159 286q73 131 145 148q-126 22 -187 111t-61 221t82.5 214t228.5 82h404z" />
    <glyph glyph-name="afii10071" unicode="&#x451;" 
d="M470 938q-104 0 -174 -82t-77 -223h486q-10 138 -59 206q-72 99 -176 99zM472 -24q-186 0 -300 140t-114 411t116 415t288 144q173 0 286 -142t113 -411l-1 -48h-650q9 -179 83 -270t180 -91q166 0 231 218l152 -23q-38 -171 -138 -257t-246 -86zM544 1270v205h154v-205
h-154zM238 1270v205h154v-205h-154z" />
    <glyph glyph-name="afii10099" unicode="&#x452;" 
d="M114 1217h-110v119h110v130h147v-130h281v-119h-281v-278q99 147 251 147t231.5 -90t79.5 -323v-731q0 -233 -60.5 -303t-158.5 -70q-61 0 -115 19l27 153q44 -14 70 -14q52 0 71 41.5t19 177.5v727q0 258 -182 258q-99 0 -166 -77.5t-67 -272.5v-581h-147v1217z" />
    <glyph glyph-name="afii10100" unicode="&#x453;" horiz-adv-x="613" 
d="M112 1062h501v-149h-354v-913h-147v1062zM319 1194l109 280h193l-180 -280h-122z" />
    <glyph glyph-name="afii10101" unicode="&#x454;" horiz-adv-x="857" 
d="M521 618v-148h-307q26 -346 238 -346q186 0 221 264l145 -23q-23 -174 -119.5 -281.5t-264.5 -107.5t-270 152.5t-102 411.5t109 402.5t285 143.5q145 0 237.5 -95t109.5 -243l-144 -28q-36 217 -208 217q-98 0 -160.5 -88t-76.5 -231h307z" />
    <glyph glyph-name="afii10102" unicode="&#x455;" horiz-adv-x="840" 
d="M624 287q0 67 -38 97t-184 74t-203 82q-122 78 -122 227t87 234t241 85q97 0 171 -35t112 -94q39 -59 54 -169l-144 -24q-20 174 -189 174q-96 0 -143 -38t-47 -98t36 -87t194 -79t212 -86q114 -73 114 -230q-1 -157 -97 -251t-263 -94q-313 0 -363 342l146 28
q26 -221 225 -221q97 0 149 48t52 115z" />
    <glyph glyph-name="afii10103" unicode="&#x456;" horiz-adv-x="373" 
d="M108 0v1062h147v-1062h-147zM108 1259v207h147v-207h-147z" />
    <glyph glyph-name="afii10104" unicode="&#x457;" horiz-adv-x="467" 
d="M166 0v1062h147v-1062h-147zM314 1270v205h154v-205h-154zM8 1270v205h154v-205h-154z" />
    <glyph glyph-name="afii10105" unicode="&#x458;" horiz-adv-x="373" 
d="M28 -273q36 0 58 37t21 182v1116h147v-1120q0 -217 -56 -295t-162 -78q-60 0 -116 19l28 153q44 -14 80 -14zM107 1257v209h147v-209h-147z" />
    <glyph glyph-name="afii10106" unicode="&#x459;" horiz-adv-x="1522" 
d="M896 148h155q138 0 199 40t61 130t-53.5 135t-186.5 45h-175v-350zM896 1062v-415h188q201 0 290.5 -95t89.5 -227t-80.5 -228.5t-266.5 -96.5h-368v913h-410v-529q0 -226 -39 -308t-170 -82q-23 0 -114 6v148q58 -11 100 -11t59 38.5t17 186.5v700h704z" />
    <glyph glyph-name="afii10107" unicode="&#x45a;" horiz-adv-x="1364" 
d="M738 141h155q169 0 215 50.5t46 114.5t-44.5 114.5t-196.5 50.5h-175v-330zM738 620h188q179 0 279.5 -81.5t100.5 -221.5t-84 -228.5t-262 -88.5h-369v471h-337v-471h-147v1062h147v-442h337v442h147v-442z" />
    <glyph glyph-name="afii10108" unicode="&#x45b;" 
d="M114 1336v130h147v-130h281v-119h-281v-278q99 147 251 147t231.5 -90t79.5 -323v-673h-147v673q0 258 -182 258q-99 0 -166 -77.5t-67 -272.5v-581h-147v1217h-110v119h110z" />
    <glyph glyph-name="afii10109" unicode="&#x45c;" horiz-adv-x="734" 
d="M110 1062h147v-459q71 -1 99 33t78 176q48 142 76 184q28 40 62 53t121 13h22v-149l-44 1q-47 0 -67 -17t-34 -64q-50 -161 -79 -207t-92 -81q95 -31 187 -216l162 -329h-162l-158 329q-48 100 -84 131t-87 31v-491h-147v1062zM272 1194l109 280h193l-180 -280h-122z" />
    <glyph glyph-name="afii10110" unicode="&#x45e;" horiz-adv-x="840" 
d="M178 -256q83 0 122 78q7 14 58 176l-331 1064h159l182 -615q34 -115 63 -246q25 124 60 242l186 619h148l-331 -1080q-64 -210 -102 -280q-70 -132 -193 -133q-42 0 -95 22l-16 169q49 -16 90 -16zM429 1205q-101 0 -165 65t-77 194h101q23 -135 137 -135q64 0 99 32
t47 103h101q-13 -129 -78 -194t-165 -65z" />
    <glyph glyph-name="afii10193" unicode="&#x45f;" horiz-adv-x="927" 
d="M524 0v-407h-122v407h-291v1062h147v-914h410v914h147v-1062h-291z" />
    <glyph glyph-name="afii10050" unicode="&#x490;" horiz-adv-x="831" 
d="M689 1466v341h142v-514h-540v-1293h-159v1466h557z" />
    <glyph glyph-name="afii10098" unicode="&#x491;" horiz-adv-x="553" 
d="M431 1062v301h122v-450h-293v-913h-147v1062h318z" />
    <glyph glyph-name="Wgrave" unicode="&#x1e80;" horiz-adv-x="1585" 
d="M342 0l-319 1466h163l183 -961q29 -148 51 -300l54 271l229 990h192l172 -742q63 -271 94 -519q23 143 59 319l189 942h160l-330 -1466h-153l-292 1289q-17 -96 -35 -172l-255 -1117h-162zM930 1567h-119l-189 280h198z" />
    <glyph glyph-name="wgrave" unicode="&#x1e81;" horiz-adv-x="1212" 
d="M268 0l-266 1062h153l189 -841l184 841h152l174 -819l199 819h144l-273 -1062h-153l-139 636l-33 181l-176 -817h-155zM708 1194h-119l-189 280h198z" />
    <glyph glyph-name="Wacute" unicode="&#x1e82;" horiz-adv-x="1585" 
d="M342 0l-319 1466h163l183 -961q29 -148 51 -300l54 271l229 990h192l172 -742q63 -271 94 -519q23 143 59 319l189 942h160l-330 -1466h-153l-292 1289q-17 -96 -35 -172l-255 -1117h-162zM669 1567l109 280h193l-180 -280h-122z" />
    <glyph glyph-name="wacute" unicode="&#x1e83;" horiz-adv-x="1212" 
d="M268 0l-266 1062h153l189 -841l184 841h152l174 -819l199 819h144l-273 -1062h-153l-139 636l-33 181l-176 -817h-155zM521 1194l109 280h193l-180 -280h-122z" />
    <glyph glyph-name="Wdieresis" unicode="&#x1e84;" horiz-adv-x="1585" 
d="M342 0l-319 1466h163l183 -961q29 -148 51 -300l54 271l229 990h192l172 -742q63 -271 94 -519q23 143 59 319l189 942h160l-330 -1466h-153l-292 1289q-17 -96 -35 -172l-255 -1117h-162zM864 1643v205h154v-205h-154zM558 1643v205h154v-205h-154z" />
    <glyph glyph-name="wdieresis" unicode="&#x1e85;" horiz-adv-x="1212" 
d="M268 0l-266 1062h153l189 -841l184 841h152l174 -819l199 819h144l-273 -1062h-153l-139 636l-33 181l-176 -817h-155zM670 1270v205h154v-205h-154zM364 1270v205h154v-205h-154z" />
    <glyph glyph-name="Ygrave" unicode="&#x1ef2;" horiz-adv-x="1120" 
d="M468 0v621l-463 845h194l236 -442q70 -131 123 -248q53 115 131 259l233 431h185l-480 -845v-621h-159zM686 1567h-119l-189 280h198z" />
    <glyph glyph-name="ygrave" unicode="&#x1ef3;" horiz-adv-x="840" 
d="M178 -256q83 0 122 78q7 14 58 176l-331 1064h159l182 -615q34 -115 63 -246q25 124 60 242l186 619h148l-331 -1080q-64 -210 -102 -280q-70 -132 -193 -133q-42 0 -95 22l-16 169q49 -16 90 -16zM546 1194h-119l-189 280h198z" />
    <glyph glyph-name="endash" unicode="&#x2013;" 
d="M-6 458v145h934v-145h-934z" />
    <glyph glyph-name="emdash" unicode="&#x2014;" horiz-adv-x="1679" 
d="M0 458v145h1679v-145h-1679z" />
    <glyph glyph-name="afii00208" unicode="&#x2015;" horiz-adv-x="1679" 
d="M1466 467h-1257v145h1257v-145z" />
    <glyph glyph-name="underscoredbl" unicode="&#x2017;" horiz-adv-x="1024" 
d="M1042 -442h-1059v84h1059v-84zM1042 -284h-1059v84h1059v-84z" />
    <glyph glyph-name="quoteleft" unicode="&#x2018;" horiz-adv-x="373" 
d="M260 1195v-209h-158v165q0 141 33.5 209t101.5 106l37 -71q-42 -21 -65 -64.5t-26 -135.5h77z" />
    <glyph glyph-name="quoteright" unicode="&#x2019;" horiz-adv-x="373" 
d="M98 1256v210h159v-165q0 -142 -34 -210t-102 -105l-36 70q86 44 90 200h-77z" />
    <glyph glyph-name="quotesinglbase" unicode="&#x201a;" horiz-adv-x="373" 
d="M98 0v209h159v-165q0 -141 -34 -209t-102 -106l-36 71q86 44 90 200h-77z" />
    <glyph glyph-name="quotereversed" unicode="&#x201b;" horiz-adv-x="373" 
d="M260 1257h-77q3 -92 26 -135.5t65 -64.5l-37 -71q-68 38 -101.5 106t-33.5 209v165h158v-209z" />
    <glyph glyph-name="quotedblleft" unicode="&#x201c;" horiz-adv-x="559" 
d="M226 1195v-209h-158v165q0 141 33.5 209t101.5 106l37 -71q-42 -21 -65 -64.5t-26 -135.5h77zM481 1195v-209h-159v165q0 141 34 209t101 106l37 -71q-42 -21 -65 -65t-26 -135h78z" />
    <glyph glyph-name="quotedblright" unicode="&#x201d;" horiz-adv-x="559" 
d="M325 1256v210h159v-165q0 -142 -33.5 -210t-101.5 -105l-37 70q86 44 91 200h-78zM71 1256v210h159v-165q0 -142 -34 -210t-102 -105l-36 70q86 44 90 200h-77z" />
    <glyph glyph-name="quotedblbase" unicode="&#x201e;" horiz-adv-x="559" 
d="M325 0v209h159v-165q0 -141 -33.5 -209t-101.5 -106l-37 71q86 44 91 200h-78zM71 0v209h159v-165q0 -141 -34 -209t-102 -106l-36 71q86 44 90 200h-77z" />
    <glyph glyph-name="dagger" unicode="&#x2020;" 
d="M385 -346v1212h-328v160h328v406h147v-406h330v-160h-330v-1212h-147z" />
    <glyph glyph-name="daggerdbl" unicode="&#x2021;" 
d="M387 -346v370h-330v161h330v725h-330v161h330v375h147v-375h331v-161h-331v-725h331v-161h-331v-370h-147z" />
    <glyph glyph-name="bullet" unicode="&#x2022;" horiz-adv-x="588" 
d="M92 718q0 109 62.5 181t145.5 72t145 -71.5t62 -181.5t-62.5 -182t-144.5 -72t-145 72.5t-63 181.5z" />
    <glyph glyph-name="ellipsis" unicode="&#x2026;" horiz-adv-x="1679" 
d="M1316 0v205h168v-205h-168zM756 0v205h168v-205h-168zM196 0v205h168v-205h-168z" />
    <glyph glyph-name="perthousand" unicode="&#x2030;" horiz-adv-x="1679" 
d="M1412 592q-112 0 -112 -264q0 -150 32 -204t88 -54q108 0 108 261q0 151 -32 206t-84 55zM1178 334q0 202 65 292t169 90t170.5 -91t66.5 -296t-64.5 -294t-168.5 -89t-171 93t-67 295zM858 592q-111 0 -111 -264q0 -150 31.5 -204t88.5 -54q108 0 108 261q0 151 -32 206
t-85 55zM625 334q0 202 65.5 292t169.5 90t170 -91t66 -296t-65 -294t-169 -89t-170.5 93t-66.5 295zM264 1355q-112 0 -112 -264q0 -150 32 -204t88 -54q108 0 108 205.5t-32 261t-84 55.5zM30 1096q0 202 65 292.5t169 90.5t170.5 -91t66.5 -296t-64.5 -294.5
t-168.5 -89.5t-171 93t-67 295zM262 -54l493 1545h108l-493 -1545h-108z" />
    <glyph glyph-name="minute" unicode="&#x2032;" horiz-adv-x="322" 
d="M71 1466h168v-245l-39 -274h-91l-38 274v245z" />
    <glyph glyph-name="second" unicode="&#x2033;" horiz-adv-x="596" 
d="M349 1466h168v-240l-40 -279h-89l-39 279v240zM76 1466h168v-240l-37 -279h-90l-41 279v240z" />
    <glyph glyph-name="guilsinglleft" unicode="&#x2039;" horiz-adv-x="559" 
d="M238 527l217 -455h-122l-258 455l258 457h122z" />
    <glyph glyph-name="guilsinglright" unicode="&#x203a;" horiz-adv-x="559" 
d="M320 530l-217 454h122l258 -454l-258 -458h-122z" />
    <glyph glyph-name="exclamdbl" unicode="&#x203c;" 
d="M595 0v205h169v-205h-169zM588 1466h183v-325l-42 -777h-96l-45 777v325zM159 0v205h169v-205h-169zM152 1466h183v-325l-42 -777h-96l-45 777v325z" />
    <glyph glyph-name="radicalex" unicode="&#x203e;" 
d="M-42 1869h1018v-74h-1018v74z" />
    <glyph glyph-name="fraction" unicode="&#x2044;" horiz-adv-x="281" 
d="M-373 -57l903 1548h128l-902 -1548h-129z" />
    <glyph glyph-name="fraction" unicode="&#x2215;" horiz-adv-x="281" 
d="M-373 -57l903 1548h128l-902 -1548h-129z" />
    <glyph glyph-name="nsuperior" unicode="&#x207f;" horiz-adv-x="612" 
d="M67 805v665h106v-69q69 83 157 83t137 -37.5t64.5 -91t15.5 -145.5v-405h-116v401q0 83 -24.5 120t-84.5 37q-139 0 -139 -196v-362h-116z" />
    <glyph glyph-name="franc" unicode="&#x20a3;" horiz-adv-x="1032" 
d="M138 268h-138v131h138v1067h811v-173h-652v-454h564v-173h-564v-267h291v-131h-291v-268h-159v268z" />
    <glyph glyph-name="afii08941" unicode="&#x20a4;" 
d="M208 517h-210v148h193l-28 134h-165v148h134q-14 72 -14 126q0 191 106 304.5t258 113.5t250.5 -97t121.5 -282l-147 -27q-13 123 -76 190.5t-147 67.5t-146 -69t-62 -157t15 -170h219v-148h-191l28 -134h163v-148h-146q0 -31 -34.5 -128.5t-111.5 -197.5q66 22 126 22
t172 -33t168 -33t153 56l48 -165q-123 -64 -197 -64q-34 0 -64 7t-135 46t-162 39q-132 0 -250 -94l-57 173q86 57 137 157.5t51 214.5z" />
    <glyph glyph-name="peseta" unicode="&#x20a7;" horiz-adv-x="1952" 
d="M1113 233q0 -82 74 -82q20 0 43 10q-33 83 -35 177l149 -1q5 -106 64.5 -158t136.5 -52t136 49.5t59 107.5t-33 94t-169 80t-194 80.5t-93.5 97.5t-35.5 143t26 139l-127 1v-655q-1 -30 -1 -31zM289 1295v-528h108q133 0 231.5 40t98.5 224q0 87 -34 151.5t-88 88.5
t-148 24h-168zM130 1466h379q172 0 271.5 -104t108.5 -298h76v310l149 -1v-309h262q66 28 152 28t205.5 -61t121.5 -268l-154 1q-10 170 -174 170q-72 0 -119 -35t-47 -91t47.5 -92t195.5 -79t216 -118.5t68 -218.5t-108 -234.5t-250 -91.5q-185 0 -284 157l-1 -131
q-45 -16 -94 -16t-96 25.5t-68.5 67t-21.5 131.5v711h-84q-24 -111 -80 -186.5t-136.5 -105t-244.5 -29.5h-131v-598h-159v1466z" />
    <glyph glyph-name="Euro" unicode="&#x20ac;" 
d="M635 1325q-137 0 -243 -104.5t-130 -284.5h559l-22 -135h-551v-131h528l-22 -135h-488q28 -190 127 -292t245 -102t236 99v-207q-100 -58 -231 -58q-445 0 -541 560h-125l23 135h86q-2 24 -2 61v70h-107l23 135h96q40 263 190.5 409t366.5 146q144 0 256 -82l-35 -184
q-102 100 -239 100z" />
    <glyph glyph-name="afii61248" unicode="&#x2105;" horiz-adv-x="1553" 
d="M1030 371q0 -130 43 -201t110 -71t109 72.5t42 202.5t-43 201.5t-110 71.5t-109 -73t-42 -203zM909 370q0 195 77 293.5t194 98.5t196 -96t79 -293t-78.5 -293.5t-194.5 -96.5t-194.5 96t-78.5 291zM232 -57l903 1548h128l-902 -1548h-129zM350 712q-109 0 -181 101
t-72 291t74.5 288.5t191.5 98.5q196 0 235 -242l-115 -24q-24 151 -118 151q-65 0 -106 -69t-41 -203t37.5 -205t105.5 -71q112 0 130 184l116 -19q-13 -132 -80.5 -206.5t-176.5 -74.5z" />
    <glyph glyph-name="afii61289" unicode="&#x2113;" horiz-adv-x="715" 
d="M519 1250q0 61 -22.5 91t-53.5 30q-42 0 -55.5 -50.5t-13.5 -194.5v-227q91 157 118 223.5t27 127.5zM404 -24q-199 0 -199 241v225l-79 -98l-98 78l177 235v455q0 222 60 300.5t169 78.5t167 -69.5t58 -165.5t-61 -230t-224 -361v-415q0 -83 13 -107.5t43 -24.5
q52 0 199 107v-162q-104 -87 -225 -87z" />
    <glyph glyph-name="afii61352" unicode="&#x2116;" horiz-adv-x="1802" 
d="M1156 266h559v-148h-559v148zM1284 772q0 -134 46 -198.5t108 -64.5t106 70t44 202t-48 194.5t-107 62.5t-104 -66t-45 -200zM1140 802q0 159 82 264.5t214 105.5t213.5 -104t81.5 -292t-82.5 -296t-216.5 -108q-95 0 -162 55t-98.5 135.5t-31.5 239.5zM131 1466h160
l588 -1136v1136h151v-1466h-159l-591 1131v-1131h-149v1466z" />
    <glyph glyph-name="trademark" unicode="&#x2122;" horiz-adv-x="1679" 
d="M806 651v815h164l169 -651l163 651h160v-815h-101v684l-173 -684h-100l-180 694v-694h-102zM402 651v694h-217v121h546v-121h-218v-694h-111z" />
    <glyph glyph-name="Ohm" unicode="&#x2126;" horiz-adv-x="1573" 
d="M150 822q0 176 79.5 340.5t231 252.5t347.5 88q336 0 516 -254q131 -186 131 -448q0 -312 -195 -520q-53 -58 -149 -121l364 6v-166h-575v177q80 39 138 89t133.5 177t75.5 334q0 138 -49.5 277.5t-150 212.5t-243.5 73q-191 0 -296 -120q-146 -169 -146 -440
q0 -217 91 -372.5t251 -227.5v-180h-577v168l369 -8q-108 67 -165 130q-181 200 -181 532z" />
    <glyph glyph-name="estimated" unicode="&#x212e;" horiz-adv-x="1229" 
d="M917 605v297q-123 121 -299 121t-297 -122v-296h596zM321 531v-371q120 -121 298 -121q254 0 395 246l72 -43q-117 -168 -231 -222t-236 -54q-232 0 -380.5 159t-148.5 407t148.5 406t371.5 158t375 -142.5t163 -422.5h-827z" />
    <glyph glyph-name="oneeighth" unicode="&#x215b;" horiz-adv-x="1401" 
d="M270 733v554q-84 -81 -184 -113v123q52 19 114 73t100 114h89v-751h-119zM203 -57l903 1548h128l-902 -1548h-129zM1136 319q-53 0 -83 -35t-30 -86q0 -127 117 -127q58 -1 88 37t30 90t-34 86t-88 35zM1136 622q-44 0 -67 -29q-24 -29 -24 -73t27 -70q27 -24 67 -24
q41 0 69 24t28 73q0 47 -28 73t-72 26zM929 536q1 79 49 136t155 57t163 -54t57 -141q0 -113 -111 -159q131 -40 131 -185q-1 -103 -65 -167t-171 -64t-169 65t-62 162q0 148 125 189q-102 47 -102 161z" />
    <glyph glyph-name="threeeighths" unicode="&#x215c;" horiz-adv-x="1401" 
d="M460 965q0 110 -129 110l-27 -2l-18 -1l18 110q60 -1 94 27q34 27 34 71t-26 68t-72 25t-72 -21t-45 -81l-117 23q34 110 86 150t156 40t161 -50t57 -123q0 -136 -113 -174q142 -43 142 -191q0 -99 -68 -165t-179 -66q-220 0 -256 214l120 15q17 -62 48 -87t82 -25
q52 0 88 38t36 95zM203 -57l903 1548h128l-902 -1548h-129zM1124 319q-53 0 -83 -35t-30 -86q0 -127 117 -127q58 -1 88 37t30 90t-34 86t-88 35zM1124 622q-44 0 -67 -29q-24 -29 -24 -73t27 -70q27 -24 67 -24q41 0 69 24t28 73q0 47 -28 73t-72 26zM917 536q1 79 49 136
t155 57t163 -54t57 -141q0 -113 -111 -159q131 -40 131 -185q-1 -103 -65 -167t-171 -64t-169 65t-62 162q0 148 125 189q-102 47 -102 161z" />
    <glyph glyph-name="fiveeighths" unicode="&#x215d;" horiz-adv-x="1401" 
d="M300 840q61 0 96 42t35 102q-1 60 -33 102t-84 42t-108 -63l-110 25l61 376h367v-120h-291l-27 -158q60 51 142 51t140 -74q60 -75 60 -187t-72 -188t-170 -75q-98 -1 -156 57q-60 58 -77 154l113 18q21 -104 114 -104zM203 -57l903 1548h128l-902 -1548h-129zM1112 315
q-53 0 -83 -35t-30 -86q0 -127 117 -127q58 -1 88 37t30 90t-34 86t-88 35zM1112 618q-44 0 -67 -29q-24 -29 -24 -73t27 -70q27 -24 67 -24q41 0 69 24t28 73q0 47 -28 73t-72 26zM905 532q1 79 49 136t155 57t163 -54t57 -141q0 -113 -111 -159q131 -40 131 -185
q-1 -103 -65 -167t-171 -64t-169 65t-62 162q0 148 125 189q-102 47 -102 161z" />
    <glyph glyph-name="seveneighths" unicode="&#x215e;" horiz-adv-x="1401" 
d="M94 1346v120h428v-80q-193 -289 -217 -653h-117q18 317 205 613h-299zM203 -57l903 1548h128l-902 -1548h-129zM1112 319q-53 0 -83 -35t-30 -86q0 -127 117 -127q58 -1 88 37t30 90t-34 86t-88 35zM1112 622q-44 0 -67 -29q-24 -29 -24 -73t27 -70q27 -24 67 -24
q41 0 69 24t28 73q0 47 -28 73t-72 26zM905 536q1 79 49 136t155 57t163 -54t57 -141q0 -113 -111 -159q131 -40 131 -185q-1 -103 -65 -167t-171 -64t-169 65t-62 162q0 148 125 189q-102 47 -102 161z" />
    <glyph glyph-name="arrowleft" unicode="&#x2190;" horiz-adv-x="2048" 
d="M1968 567v-101h-1595q104 -108 198 -309h-78q-129 145 -222 219t-192 122v45q177 75 413 333h76q-58 -118 -88 -166t-107 -143h1595z" />
    <glyph glyph-name="arrowup" unicode="&#x2191;" horiz-adv-x="1024" 
d="M563 -429h-101v1474q-96 -76 -144 -106t-165 -89v76q257 235 333 413h46q48 -99 122 -192t218 -222v-77q-201 94 -309 197v-1474z" />
    <glyph glyph-name="arrowright" unicode="&#x2192;" horiz-adv-x="2048" 
d="M79 466v101h1595q-76 97 -106 144t-89 165h76q235 -257 413 -333v-45q-99 -48 -192 -122t-222 -219h-77q94 201 197 309h-1595z" />
    <glyph glyph-name="arrowdown" unicode="&#x2193;" horiz-adv-x="1024" 
d="M462 1339h101v-1474q108 103 309 197v-77q-144 -129 -218 -222t-122 -192h-46q-76 178 -333 413v76q119 -59 166 -89t143 -106v1474z" />
    <glyph glyph-name="arrowboth" unicode="&#x2194;" horiz-adv-x="2048" 
d="M1968 540v-45q-94 -43 -185 -116t-221 -221h-80q69 172 194 311h-1305q125 -139 194 -311h-80q-130 148 -221 221t-185 116v45q94 44 185 116t221 222h80q-69 -172 -194 -311h1305q-125 139 -194 311h80q130 -150 221 -222t185 -116z" />
    <glyph glyph-name="arrowupdn" unicode="&#x2195;" horiz-adv-x="1024" 
d="M489 1463h45q44 -93 116 -185t221 -222v-80q-171 69 -311 195v-1306q140 126 311 194v-79q-149 -130 -221 -222t-116 -185h-45q-43 93 -116 185t-221 222v79q171 -68 311 -194v1306q-140 -126 -311 -195v80q148 130 221 222t116 185z" />
    <glyph glyph-name="arrowupdnbse" unicode="&#x21a8;" horiz-adv-x="1024" 
d="M154 -522h717v-98h-717v98zM489 1463h45q44 -93 116 -185t221 -222v-80q-171 69 -311 195v-1306q140 126 311 194v-79q-149 -130 -221 -222t-116 -185h-45q-43 93 -116 185t-221 222v79q171 -68 311 -194v1306q-140 -126 -311 -195v80q148 130 221 222t116 185z" />
    <glyph glyph-name="partialdiff" unicode="&#x2202;" horiz-adv-x="1012" 
d="M236 324q0 -104 51 -158t123 -54t156 55q240 156 288 629q-244 -14 -357.5 -68t-187 -177t-73.5 -227zM653 1363q-143 0 -227 -225l-135 60q70 157 168 225t183 68q161 0 246 -142q85 -143 85 -427t-86.5 -508.5t-233.5 -331.5t-287 -107t-225 91t-85 256q0 226 153 387
q197 207 649 215q-4 168 -24 256t-68 135.5t-113 47.5z" />
    <glyph glyph-name="increment" unicode="&#x2206;" horiz-adv-x="1253" 
d="M990 82l-399 967l-440 -967h839zM1226 0h-1200l628 1387z" />
    <glyph glyph-name="product" unicode="&#x220f;" horiz-adv-x="1686" 
d="M161 1491h1362v-1922h-191v1748h-978v-1748h-193v1922z" />
    <glyph glyph-name="summation" unicode="&#x2211;" horiz-adv-x="1460" 
d="M139 1491h1237v-164h-988l607 -775l-649 -822h1040v-161h-1264v187l620 788l-603 772v175z" />
    <glyph glyph-name="minus" unicode="&#x2212;" horiz-adv-x="981" 
d="M886 639h-794v168h794v-168z" />
    <glyph glyph-name="periodcentered" unicode="&#x2219;" horiz-adv-x="467" 
d="M155 619v205h168v-205h-168z" />
    <glyph glyph-name="radical" unicode="&#x221a;" horiz-adv-x="1124" 
d="M1050 1869h74l-312 -1947l-496 1021l-198 -91l-34 64l301 151l405 -823z" />
    <glyph glyph-name="infinity" unicode="&#x221e;" horiz-adv-x="1460" 
d="M393 873q-51 0 -89.5 -40.5t-38.5 -112.5t40 -114.5t97 -42.5q101 0 218 153q-80 100 -128 128.5t-99 28.5zM1030 499q66 0 117.5 56t51.5 160t-52.5 160t-116.5 56q-64 1 -114 -33t-158 -181q87 -135 159 -185q47 -33 113 -33zM1030 1044q97 0 188.5 -76t91.5 -245
q0 -118 -34 -185.5t-106 -108.5t-154 -41t-152 50t-175 182q-136 -171 -289 -171q-101 0 -173.5 76.5t-72.5 190.5t72.5 190.5t173.5 76.5q153 0 289 -171q105 132 175 182t166 50z" />
    <glyph glyph-name="orthogonal" unicode="&#x221f;" horiz-adv-x="2005" 
d="M362 1279h100v-1179h1181v-100h-1281v1279z" />
    <glyph glyph-name="intersection" unicode="&#x2229;" horiz-adv-x="1479" 
d="M302 0h-110v560q0 248 9 340t41 169q32 75 102 149t174 120t217 46q114 0 216 -44t177 -120t107 -160q32 -86 39 -174t7 -326v-560h-109v566q0 218 -8 305t-34 153t-80 122q-54 58 -140 95q-84 37 -166 37q-154 0 -258 -79t-133 -150t-40 -157t-11 -326v-566z" />
    <glyph glyph-name="integral" unicode="&#x222b;" horiz-adv-x="561" 
d="M208 -64q39 0 39 52t-9 129q-37 315 -37 831l17 531q16 277 94 330.5t126 53.5t85 -33.5t37 -77.5t-26.5 -72t-63.5 -28t-69 28t-60.5 28t-28.5 -53t23 -309t23 -418q0 -161 -16 -682q-8 -295 -90 -399q-54 -67 -134 -67q-52 0 -85 34t-33 83t25 76t65 27t69 -32t49 -32z
" />
    <glyph glyph-name="approxequal" unicode="&#x2248;" horiz-adv-x="1124" 
d="M797 378q-60 0 -114 14t-172.5 67t-190.5 53t-128.5 -27.5t-140.5 -108.5v205q106 120 278 120q111 0 247 -58t170.5 -67t84.5 -9t119.5 39t123.5 98v-212q-122 -114 -277 -114zM797 740q-60 0 -114 13t-173 67q-118 54 -190 54t-128.5 -27.5t-140.5 -108.5v205
q106 120 278 120q112 -1 248 -59q135 -58 169.5 -66.5t84.5 -8.5t119.5 39t123.5 98v-212q-122 -114 -277 -114z" />
    <glyph glyph-name="notequal" unicode="&#x2260;" horiz-adv-x="1124" 
d="M78 417v168h356l122 277h-478v168h551l196 444h134l-195 -444h282v-168h-356l-121 -277h477v-168h-551l-194 -445h-136l195 445h-282z" />
    <glyph glyph-name="equivalence" unicode="&#x2261;" horiz-adv-x="979" 
d="M887 194h-794v168h794v-168zM887 639h-794v168h794v-168zM887 1085h-794v167h794v-167z" />
    <glyph glyph-name="lessequal" unicode="&#x2264;" horiz-adv-x="1124" 
d="M1046 106h-968v167h968v-167zM77 762v168l971 410v-180l-770 -315l770 -319v-179z" />
    <glyph glyph-name="greaterequal" unicode="&#x2265;" horiz-adv-x="1124" 
d="M1046 106h-968v167h968v-167zM1048 762l-971 -415v179l769 319l-769 315v180l971 -410v-168z" />
    <glyph glyph-name="house" unicode="&#x2302;" horiz-adv-x="1229" 
d="M234 81h761v519l-381 427l-380 -427v-519zM153 0v634l461 519l462 -519v-634h-923z" />
    <glyph glyph-name="revlogicalnot" unicode="&#x2310;" horiz-adv-x="981" 
d="M92 424v606h794v-168h-654v-438h-140z" />
    <glyph glyph-name="integraltp" unicode="&#x2320;" horiz-adv-x="1237" 
d="M691 -515h-145v1811q0 219 90 330t202 111q66 -1 102 -33t36 -74t-26 -68t-58 -26q-34 0 -56 12t-46 50q-24 36 -44 36q-40 0 -47 -36q-8 -36 -8 -142v-1971z" />
    <glyph glyph-name="integralbt" unicode="&#x2321;" horiz-adv-x="1237" 
d="M546 1737h145v-1811q1 -219 -89 -330t-203 -111q-67 1 -103 33t-35 74q-1 42 25 68t60 26t56 -13q23 -13 46 -49t43 -36q40 0 48 40q7 32 7 138v1971z" />
    <glyph glyph-name="SF100000" unicode="&#x2500;" horiz-adv-x="1451" 
d="M1473 534h-1496v175h1496v-175z" />
    <glyph glyph-name="SF110000" unicode="&#x2502;" horiz-adv-x="1261" 
d="M448 -621v2485h175v-2485h-175z" />
    <glyph glyph-name="SF010000" unicode="&#x250c;" horiz-adv-x="1451" 
d="M1474 709v-175h-661v-1155h-175v1330h836z" />
    <glyph glyph-name="SF030000" unicode="&#x2510;" horiz-adv-x="1451" 
d="M637 534h-660v175h835v-1330h-175v1155z" />
    <glyph glyph-name="SF020000" unicode="&#x2514;" horiz-adv-x="1451" 
d="M638 534v1330h175v-1155h661v-175h-836z" />
    <glyph glyph-name="SF040000" unicode="&#x2518;" horiz-adv-x="1451" 
d="M812 534h-835v175h660v1155h175v-1330z" />
    <glyph glyph-name="SF080000" unicode="&#x251c;" horiz-adv-x="1451" 
d="M638 -621v2485h175v-1155h661v-175h-661v-1155h-175z" />
    <glyph glyph-name="SF090000" unicode="&#x2524;" horiz-adv-x="1451" 
d="M637 -621v1155h-660v175h660v1155h175v-2485h-175z" />
    <glyph glyph-name="SF060000" unicode="&#x252c;" horiz-adv-x="1451" 
d="M637 534h-660v175h1496v-175h-661v-1155h-175v1155z" />
    <glyph glyph-name="SF070000" unicode="&#x2534;" horiz-adv-x="1451" 
d="M1473 534h-1496v175h660v1155h175v-1155h661v-175z" />
    <glyph glyph-name="SF050000" unicode="&#x253c;" horiz-adv-x="1451" 
d="M637 534h-660v175h660v1155h175v-1155h661v-175h-661v-1155h-175v1155z" />
    <glyph glyph-name="SF430000" unicode="&#x2550;" horiz-adv-x="1451" 
d="M1496 344h-1496v175h1496v-175zM1496 724h-1496v175h1496v-175z" />
    <glyph glyph-name="SF240000" unicode="&#x2551;" horiz-adv-x="1451" 
d="M0 -621v2485h175v-2485h-175zM380 -621v2485h175v-2485h-175z" />
    <glyph glyph-name="SF510000" unicode="&#x2552;" horiz-adv-x="1451" 
d="M0 -621v1520h836v-175h-661v-205h661v-175h-661v-965h-175z" />
    <glyph glyph-name="SF520000" unicode="&#x2553;" horiz-adv-x="1451" 
d="M0 -621v1330h1026v-175h-471v-1155h-175v1140h-205v-1140h-175z" />
    <glyph glyph-name="SF390000" unicode="&#x2554;" horiz-adv-x="1451" 
d="M555 344v-965h-175v1140h645v-175h-470zM175 -621h-175v1520h1025v-175h-850v-1345z" />
    <glyph glyph-name="SF220000" unicode="&#x2555;" horiz-adv-x="1451" 
d="M660 344h-660v175h660v205h-660v175h835v-1520h-175v965z" />
    <glyph glyph-name="SF210000" unicode="&#x2556;" horiz-adv-x="1451" 
d="M0 534v175h1025v-1330h-175v1155h-205v-1155h-175l1 1155h-471z" />
    <glyph glyph-name="SF250000" unicode="&#x2557;" horiz-adv-x="1451" 
d="M470 344h-470v175h645v-1140h-175v965zM850 -621v1345h-850v175h1025v-1520h-175z" />
    <glyph glyph-name="SF500000" unicode="&#x2558;" horiz-adv-x="1451" 
d="M0 344v1520h175v-965h661v-175h-661v-205h661v-175h-836z" />
    <glyph glyph-name="SF490000" unicode="&#x2559;" horiz-adv-x="1451" 
d="M1026 534h-1026v1330h175v-1155h205v1155h175v-1155h471v-175z" />
    <glyph glyph-name="SF380000" unicode="&#x255a;" horiz-adv-x="1451" 
d="M555 899h470v-175h-645v1140h175v-965zM175 1864v-1345h850v-175h-1025v1520h175z" />
    <glyph glyph-name="SF280000" unicode="&#x255b;" horiz-adv-x="1451" 
d="M835 344h-835v175h660v205h-660v175h660v965h175v-1520z" />
    <glyph glyph-name="SF270000" unicode="&#x255c;" horiz-adv-x="1451" 
d="M1025 534h-1025v175h470v1155h175v-1155h205v1155h175v-1330z" />
    <glyph glyph-name="SF260000" unicode="&#x255d;" horiz-adv-x="1451" 
d="M470 899v965h175v-1140h-645v175h470zM850 1864h175v-1520h-1025v175h850v1345z" />
    <glyph glyph-name="SF360000" unicode="&#x255e;" horiz-adv-x="1451" 
d="M0 -621v2485h175v-965h661v-175h-661v-205h661v-175h-661v-965h-175z" />
    <glyph glyph-name="SF370000" unicode="&#x255f;" horiz-adv-x="1451" 
d="M0 -621v2485h175v-2485h-175zM380 -621v2485h175v-1155h471v-175h-471v-1155h-175z" />
    <glyph glyph-name="SF420000" unicode="&#x2560;" horiz-adv-x="1451" 
d="M380 -621v1140h646v-175h-471v-965h-175zM380 724v1140h175v-965h471v-175h-646zM0 -621v2485h175v-2485h-175z" />
    <glyph glyph-name="SF190000" unicode="&#x2561;" horiz-adv-x="1451" 
d="M660 344h-660v175h661l-1 205h-660v175h660v965h175v-2485h-175v965z" />
    <glyph glyph-name="SF200000" unicode="&#x2562;" horiz-adv-x="1451" 
d="M850 -621v2485h175v-2485h-175zM0 534v175h470v1155h175v-2485h-175l1 1155h-471z" />
    <glyph glyph-name="SF230000" unicode="&#x2563;" horiz-adv-x="1451" 
d="M470 344h-470v175h645v-1140h-175v965zM645 1864v-1140h-645v175h470v965h175zM850 -621v2485h175v-2485h-175z" />
    <glyph glyph-name="SF470000" unicode="&#x2564;" horiz-adv-x="1451" 
d="M660 344h-660v175h1496v-175h-661v-965h-175v965zM1496 724h-1496v175h1496v-175z" />
    <glyph glyph-name="SF480000" unicode="&#x2565;" horiz-adv-x="1451" 
d="M0 534v175h1496v-175h-471v-1155h-175v1140h-205v-1140h-175l1 1155h-471z" />
    <glyph glyph-name="SF410000" unicode="&#x2566;" horiz-adv-x="1451" 
d="M850 -621v1140h646v-175h-471v-965h-175zM470 344h-470v175h645v-1140h-175v965zM1496 724h-1496v175h1496v-175z" />
    <glyph glyph-name="SF450000" unicode="&#x2567;" horiz-adv-x="1451" 
d="M1496 344h-1496v175h1496v-175zM1496 724h-1496v175h660v965h175v-965h661v-175z" />
    <glyph glyph-name="SF460000" unicode="&#x2568;" horiz-adv-x="1451" 
d="M1496 534h-1496v175h470v1155h175v-1155h205v1155h175v-1155h471v-175z" />
    <glyph glyph-name="SF400000" unicode="&#x2569;" horiz-adv-x="1451" 
d="M1496 344h-1496v175h1496v-175zM1496 724h-646v1140h175v-965h471v-175zM645 724h-645v175h470v965h175v-1140z" />
    <glyph glyph-name="SF540000" unicode="&#x256a;" horiz-adv-x="1451" 
d="M660 344h-660v175h660v205h-660v175h660v965h175v-965h661v-175h-661v-205h661v-175h-661v-965h-175v965z" />
    <glyph glyph-name="SF530000" unicode="&#x256b;" horiz-adv-x="1451" 
d="M0 534v175h470v1155h175v-1155h205v1155h175v-1155h471v-175h-471v-1155h-175v1155h-205v-1155h-175l1 1155h-471z" />
    <glyph glyph-name="SF440000" unicode="&#x256c;" horiz-adv-x="1451" 
d="M1026 344v-965h-175v1140h645v-175h-470zM470 344h-470v175h645v-1140h-175v965zM470 899v965h175v-1140h-645v175h470zM1026 899h470v-175h-645v1140h175v-965z" />
    <glyph glyph-name="upblock" unicode="&#x2580;" horiz-adv-x="1451" 
d="M1496 621h-1496v1243h1496v-1243z" />
    <glyph glyph-name="dnblock" unicode="&#x2584;" horiz-adv-x="1451" 
d="M1496 -621h-1496v1242h1496v-1242z" />
    <glyph glyph-name="block" unicode="&#x2588;" horiz-adv-x="1451" 
d="M0 -621v2485h1496v-2485h-1496z" />
    <glyph glyph-name="lfblock" unicode="&#x258c;" horiz-adv-x="1451" 
d="M0 -621v2485h748v-2485h-748z" />
    <glyph glyph-name="rtblock" unicode="&#x2590;" horiz-adv-x="1451" 
d="M0 -621v2485h748v-2485h-748z" />
    <glyph glyph-name="ltshade" unicode="&#x2591;" horiz-adv-x="1451" 
d="M1348 -379h125v-125h-125v125zM850 -379h124v-125h-124v125zM351 -379h125v-125h-125v125zM102 -130h125v-125h-125v125zM600 -130h125v-125h-125v125zM1099 -130h125v-125h-125v125zM1348 119h125v-124h-125v124zM850 119h124v-124h-124v124zM351 119h125v-124h-125v124
zM1099 369h125v-125h-125v125zM600 369h125v-125h-125v125zM102 369h125v-125h-125v125zM351 618h125v-125h-125v125zM850 618h124v-125h-124v125zM1348 618h125v-125h-125v125zM1099 867h125v-125h-125v125zM600 867h125v-125h-125v125zM102 867h125v-125h-125v125z
M351 1116h125v-124h-125v124zM850 1116h124v-124h-124v124zM1348 1116h125v-124h-125v124zM102 1366h125v-125h-125v125zM600 1366h125v-125h-125v125zM1099 1366h125v-125h-125v125zM1348 1615h125v-125h-125v125zM850 1615h124v-125h-124v125zM351 1615h125v-125h-125v125
zM1099 1864h125v-125h-125v125zM600 1864h125v-125h-125v125zM102 1864h125v-125h-125v125z" />
    <glyph glyph-name="shade" unicode="&#x2592;" horiz-adv-x="1451" 
d="M1224 -379h125v-125h-125v125zM975 -379h125v-125h-125v125zM726 -379h124v-125h-124v125zM476 -379h125v-125h-125v125zM227 -379h125v-125h-125v125zM-22 -379h125v-125h-125v125zM103 -130h124v-125h-124v125zM352 -130h124v-125h-124v125zM601 -130h125v-125h-125
v125zM850 -130h125v-125h-125v125zM1100 -130h124v-125h-124v125zM1349 -130h124v-125h-124v125zM1224 119h125v-124h-125v124zM975 119h125v-124h-125v124zM726 119h124v-124h-124v124zM476 119h125v-124h-125v124zM227 119h125v-124h-125v124zM-22 119h125v-124h-125v124z
M103 369h124v-125h-124v125zM352 369h124v-125h-124v125zM601 369h125v-125h-125v125zM850 369h125v-125h-125v125zM1100 369h124v-125h-124v125zM1349 369h124v-125h-124v125zM227 618h125v-125h-125v125zM1224 618h125v-125h-125v125zM975 618h125v-125h-125v125zM726 618
h124v-125h-124v125zM476 618h125v-125h-125v125zM-22 618h125v-125h-125v125zM1349 867h124v-125h-124v125zM1100 867h124v-125h-124v125zM850 867h125v-125h-125v125zM601 867h125v-125h-125v125zM352 867h124v-125h-124v125zM103 867h124v-125h-124v125zM-22 1116h125
v-124h-125v124zM1224 1116h125v-124h-125v124zM975 1116h125v-124h-125v124zM726 1116h124v-124h-124v124zM476 1116h125v-124h-125v124zM227 1116h125v-124h-125v124zM1349 1366h124v-125h-124v125zM1100 1366h124v-125h-124v125zM850 1366h125v-125h-125v125zM601 1366
h125v-125h-125v125zM352 1366h124v-125h-124v125zM103 1366h124v-125h-124v125zM1224 1615h125v-125h-125v125zM975 1615h125v-125h-125v125zM726 1615h124v-125h-124v125zM476 1615h125v-125h-125v125zM227 1615h125v-125h-125v125zM-22 1615h125v-125h-125v125zM1349 1864
h124v-125h-124v125zM1100 1864h124v-125h-124v125zM850 1864h125v-125h-125v125zM601 1864h125v-125h-125v125zM352 1864h124v-125h-124v125zM103 1864h124v-125h-124v125z" />
    <glyph glyph-name="dkshade" unicode="&#x2593;" horiz-adv-x="1493" 
d="M1121 -379v-125h124v125h-124zM871 -379v-125h125v125h-125zM622 -379v-125h125v125h-125zM373 -379v-125h124v125h-124zM124 -379v-125h124v125h-124zM373 -255v125h-125v-125h125zM622 -255v125h-125v-125h125zM871 -255v125h-124v-125h124zM1121 -255v125h-125v-125
h125zM1370 -255v125h-125v-125h125zM1121 119v-124h124v124h-124zM871 119v-124h125v124h-125zM622 119v-124h125v124h-125zM373 119v-124h124v124h-124zM124 119v-124h124v124h-124zM373 244v125h-125v-125h125zM622 244v125h-125v-125h125zM871 244v125h-124v-125h124z
M1121 244v125h-125v-125h125zM1370 244v125h-125v-125h125zM1121 618v-125h124v125h-124zM871 618v-125h125v125h-125zM497 493v125h-124v-125h124zM622 618v-125h125v125h-125zM124 618v-125h124v125h-124zM1245 867v-125h125v125h-125zM996 867v-125h125v125h-125z
M747 867v-125h124v125h-124zM497 867v-125h125v125h-125zM373 867h-125v-125h125v125zM1121 1116v-124h124v124h-124zM871 1116v-124h125v124h-125zM622 1116v-124h125v124h-125zM373 1116v-124h124v124h-124zM124 1116v-124h124v124h-124zM373 1366h-125v-125h125v125z
M622 1366h-125v-125h125v125zM871 1366h-124v-125h124v125zM1121 1366h-125v-125h125v125zM1370 1366h-125v-125h125v125zM1121 1615v-125h124v125h-124zM871 1615v-125h125v125h-125zM622 1615v-125h125v125h-125zM373 1615v-125h124v125h-124zM124 1615v-125h124v125h-124
zM1494 1490v-374h-124v-124h124v-374h-124v-125h124v-374h-124v-124h124v-374h-124v-125h124v-124h-1495v373h125v125h-125v374h125v125h-125v373h125v125h-125v374h125v125h-125v373h125v125h124v-125h125v125h124v-125h125v125h125v-125h124v125h125v-125h125v125h124
v-125h125v125h124v-249h-124v-125h124z" />
    <glyph glyph-name="filledbox" unicode="&#x25a0;" horiz-adv-x="1237" 
d="M0 944h944v-944h-944v944z" />
    <glyph glyph-name="H22073" unicode="&#x25a1;" horiz-adv-x="1237" 
d="M222 868v-792h792v792h-792zM146 944h944v-944h-944v944z" />
    <glyph glyph-name="H18543" unicode="&#x25aa;" horiz-adv-x="726" 
d="M594 445h-463v463l463 1v-464z" />
    <glyph glyph-name="H18551" unicode="&#x25ab;" horiz-adv-x="726" 
d="M207 521h311v312l-311 -1v-311zM594 445h-463v463l463 1v-464z" />
    <glyph glyph-name="filledrect" unicode="&#x25ac;" horiz-adv-x="2048" 
d="M0 703h2047v-386h-2047v386z" />
    <glyph glyph-name="triagup" unicode="&#x25b2;" horiz-adv-x="2027" 
d="M0 0l710 1419l710 -1419h-1420z" />
    <glyph glyph-name="triagrt" unicode="&#x25ba;" horiz-adv-x="2027" 
d="M0 1417l1451 -724l-1451 -724v1448z" />
    <glyph glyph-name="triagdn" unicode="&#x25bc;" horiz-adv-x="2027" 
d="M1420 1388l-710 -1419l-710 1419h1420z" />
    <glyph glyph-name="triaglf" unicode="&#x25c4;" horiz-adv-x="2027" 
d="M1739 1417v-1448l-1451 724z" />
    <glyph glyph-name="lozenge" unicode="&#x25ca;" horiz-adv-x="1012" 
d="M495 1325l-340 -616l340 -615l359 615zM549 1422l418 -713l-418 -709h-111l-391 709l391 713h111z" />
    <glyph glyph-name="circle" unicode="&#x25cb;" horiz-adv-x="1237" 
d="M440 942q-92 0 -179 -47t-136 -135t-49 -182q0 -151 107 -258t258 -107t257 107t107 258q0 94 -49 182t-136 135q-88 47 -180 47zM440 1018q110 0 217 -57q106 -57 165 -163t59 -220q0 -183 -129 -312q-130 -129 -312 -129t-311 129t-129 312q0 114 59 220t165 163
t216 57z" />
    <glyph glyph-name="H18533" unicode="&#x25cf;" horiz-adv-x="1237" 
d="M618 1018q110 0 217 -57q106 -57 165 -163t59 -220q0 -183 -129 -312q-130 -129 -312 -129t-311 129t-129 312q0 114 59 220t165 163t216 57z" />
    <glyph glyph-name="invbullet" unicode="&#x25d8;" horiz-adv-x="1237" 
d="M490 692q-84 0 -143 -59t-59 -143t60 -142q60 -60 142 -60q84 0 143 60t59 142q0 84 -59 143t-143 59zM0 0v980h980v-980h-980z" />
    <glyph glyph-name="invcircle" unicode="&#x25d9;" horiz-adv-x="1237" 
d="M578 942q92 0 178 -47q88 -47 137 -135t49 -183q0 -151 -106 -257t-258 -107q-152 1 -258 107t-107 257q0 95 49 183q48 88 136 135t180 47zM578 1018q-112 0 -218 -57t-164 -163q-59 -106 -59 -221q0 -182 129 -311q130 -129 312 -129t311 129t129 311q0 115 -59 221
t-165 163q-104 57 -216 57zM0 0v1155h1155v-1155h-1155z" />
    <glyph glyph-name="openbullet" unicode="&#x25e6;" horiz-adv-x="726" 
d="M363 852q-73 0 -124 -52t-51 -124t52 -123t123 -51t123 51t52 123t-51 124t-124 52zM362 928q104 0 178 -74t74 -177t-74 -177t-177 -74t-177 74t-74 177t73 177t177 74z" />
    <glyph glyph-name="smileface" unicode="&#x263a;" horiz-adv-x="2091" 
d="M1046 205q153 0 231 144l63 -36q-103 -195 -294 -195t-294 195l62 36q79 -144 232 -144zM1290 731q34 1 58 -23t23 -58q1 -34 -23 -57q-24 -24 -58 -24t-57 24q-24 23 -24 57q-1 34 23 58t58 23zM802 731q34 1 56 -23q24 -24 24 -58t-24 -57q-24 -24 -56 -24
q-34 0 -58 24q-24 23 -24 57t24 58t58 23zM1046 1063q-138 -1 -268 -71t-204 -201t-73 -273q0 -142 72 -270q72 -130 202 -202t271 -72t271 72t202 202t72 270q1 142 -73 273t-204 201t-268 71zM1046 1156q160 0 313 -82t239 -236t86 -320t-84 -316q-84 -152 -237 -236
q-151 -84 -317 -85q-166 1 -318 85t-236 236t-84 316q0 166 86 320t238 236q154 82 314 82z" />
    <glyph glyph-name="invsmileface" unicode="&#x263b;" horiz-adv-x="2155" 
d="M1078 205q-153 0 -232 144l-62 -36q103 -195 294 -195t294 195l-63 36q-78 -144 -231 -144zM1322 731q-34 1 -58 -23t-23 -58q0 -34 24 -57q23 -24 57 -24t58 24q24 23 23 57q1 34 -23 58t-58 23zM834 731q-34 1 -58 -23t-24 -58t24 -57q24 -24 58 -24t56 24q24 23 24 57
t-24 58q-22 24 -56 23zM1078 1156q160 0 313 -82t239 -236t86 -320t-84 -316q-84 -152 -237 -236q-151 -84 -317 -85q-166 1 -318 85t-236 236t-84 316q0 166 86 320t238 236q154 82 314 82z" />
    <glyph glyph-name="sun" unicode="&#x263c;" horiz-adv-x="1877" 
d="M921 1211q-129 0 -252 -66q-123 -65 -191 -189t-69 -257t67 -255t190 -190t255 -68t255 68t190 190t68 255t-69 257t-192 189q-123 66 -252 66zM886 1621h76v-337q102 -6 182 -38t167 -103l290 284l52 -53l-286 -286q139 -181 143 -358h336v-69h-335q-19 -189 -143 -347
l285 -291l-57 -50l-283 282q-98 -73 -171 -101t-180 -40v-337h-76v337q-112 15 -188 46t-157 92l-294 -278l-51 51l285 286q-66 84 -100 166t-45 188h-336v69h336q9 106 42 186t102 163l-284 287l48 57l292 -282q102 71 180 101t170 38v337z" />
    <glyph glyph-name="female" unicode="&#x2640;" horiz-adv-x="1536" 
d="M768 1451q-118 -1 -232 -61q-112 -60 -175 -173t-63 -235q0 -194 138 -332t332 -138t332 138t137 332q0 122 -63 235q-64 113 -176 173t-230 61zM796 59h459v-59h-459v-439h-59v439h-460v59h460v402q-103 -1 -225 65t-196 192q-72 126 -72 263q0 138 70 263t193 194
q125 69 261 69q136 1 260 -69t194 -194q69 -124 69 -261q1 -209 -143 -361t-352 -161v-402z" />
    <glyph glyph-name="male" unicode="&#x2642;" horiz-adv-x="1536" 
d="M634 731q-118 -1 -230 -61t-176 -173q-63 -113 -63 -235q-1 -194 137 -332t332 -138t332 138t138 332q0 122 -63 235t-175 173q-114 60 -232 61zM1158 266q0 -140 -69 -264t-193 -194t-262 -70q-136 0 -260 70t-194 194q-69 124 -69 260q-1 217 153 370t373 153
q78 0 166 -27l360 771l-537 -265l-24 53l614 303l36 -16l163 -666l-57 -15l-142 581l-358 -768q148 -75 224 -202q76 -128 76 -268z" />
    <glyph glyph-name="spade" unicode="&#x2660;" horiz-adv-x="1088" 
d="M220 275q-90 0 -155 65q-65 64 -65 146t38 153t165 174t193 201t91 217q26 -108 80 -193q55 -84 193 -210t175 -194t37 -149q0 -82 -64 -146t-154 -64q-156 0 -255 190q1 -147 39 -233q77 -177 338 -195l7 -37h-792l7 37q184 -1 286 107t97 321q-90 -190 -261 -190z" />
    <glyph glyph-name="club" unicode="&#x2663;" horiz-adv-x="1344" 
d="M55 552q0 116 74 196t168 80q60 0 163 -51q-42 69 -54 105t-13 77q0 115 79 193t197 79q119 -1 199 -79t80 -178t-69 -197q84 41 106 47t56 6q99 0 173 -78t74 -197q0 -117 -80 -199t-194 -82q-62 0 -128 30t-110 75q-42 44 -94 132q7 -287 170 -395q77 -51 238 -82
l8 -34h-848l8 34q165 35 219 69q81 51 133 151t51 210l-1 47q-118 -238 -340 -238q-104 0 -184 81q-81 81 -81 198z" />
    <glyph glyph-name="heart" unicode="&#x2665;" horiz-adv-x="1216" 
d="M258 1230q207 0 289 -251q36 127 113 189t178 63q100 0 176 -74q76 -75 76 -171t-44 -193t-188 -281q-146 -184 -213 -302q-67 -119 -98 -234q-31 118 -89 222t-200 292q-143 190 -180 246q-78 119 -78 231q0 113 74 188t184 75z" />
    <glyph glyph-name="diamond" unicode="&#x2666;" horiz-adv-x="1045" 
d="M458 -24q-99 186 -458 628q102 114 240 300t217 327q89 -151 229 -337t232 -290q-74 -78 -226 -281t-234 -347z" />
    <glyph glyph-name="musicalnote" unicode="&#x266a;" horiz-adv-x="1024" 
d="M486 1363h38q172 0 239 -17q67 -16 119 -66q104 -99 105 -305v-103h-99v43q0 138 -113 188q-73 32 -162 32h-28v-835q0 -120 -32 -188t-110 -108q-79 -40 -179 -41t-164 61t-63 164q0 102 76 174t199 72q78 0 174 -46v975z" />
    <glyph glyph-name="musicalnotedbl" unicode="&#x266b;" horiz-adv-x="1536" 
d="M1330 411q0 -124 -32 -187t-106 -104q-76 -41 -178 -41q-102 1 -167 63t-65 162t77 172t199 72q40 0 70 -7t100 -36v724l-595 -185v-836q0 -120 -32 -188t-110 -108q-79 -40 -179 -40t-164 62t-63 163q0 101 76 173t199 72q78 0 174 -46v975l796 248v-1108z" />
    <glyph glyph-name="fi" unicode="&#xfb01;" horiz-adv-x="840" 
d="M578 0v1062h147v-1062h-147zM578 1259v207h147v-207h-147zM150 1165q0 326 233 326q81 0 150 -23l-24 -152q-43 9 -79 9q-76 0 -104 -36.5t-28 -157.5v-69h169v-139h-169v-923h-148v923h-131v139h131v103z" />
    <glyph glyph-name="fl" unicode="&#xfb02;" horiz-adv-x="840" 
d="M576 0v1466h147v-1466h-147zM149 1165q0 326 233 326q81 0 150 -23l-24 -152q-43 9 -79 9q-76 0 -104 -36.5t-28 -157.5v-69h169v-139h-169v-923h-148v923h-131v139h131v103z" />
    <glyph glyph-name="pi1" horiz-adv-x="1124" 
d="M0 1063h1124v-158h-162v-905h-189v905h-426v-905h-188v905h-159v158z" />
    <glyph glyph-name="commaaccent" horiz-adv-x="559" 
d="M205 -305v184h151v-184q0 -161 -123 -227l-37 69q78 43 84 158h-75z" />
    <glyph glyph-name="undercommaaccent" horiz-adv-x="682" 
d="M306 -221q0 65 -129 67l12 74q79 0 131 -8t87.5 -48t35.5 -108t-62.5 -122.5t-152.5 -54.5t-140 12l9 117q53 -4 101 -4t78 21t30 54z" />
    <glyph glyph-name="foursuperior" horiz-adv-x="559" 
d="M332 995v263l-188 -263h188zM332 733v154h-313v123l332 474h100v-489h85v-108h-85v-154h-119z" />
    <glyph glyph-name="fivesuperior" horiz-adv-x="559" 
d="M272 840q61 0 96 42t35 102t-32.5 102t-84.5 42t-108 -63l-110 25l61 376h367v-120h-291l-27 -158q60 51 142 51t141 -74.5t59 -186.5t-72 -187.5t-170 -75.5t-157 57.5t-76 153.5l113 18q21 -104 114 -104z" />
    <glyph glyph-name="sevensuperior" horiz-adv-x="559" 
d="M62 1346v120h428v-80q-193 -289 -217 -653h-117q18 317 205 613h-299z" />
    <glyph glyph-name="eightsuperior" horiz-adv-x="559" 
d="M276 1075q-53 0 -83 -35t-30 -86q0 -127 117 -127q58 0 88 37.5t30 89.5t-34.5 86.5t-87.5 34.5zM276 1378q-44 0 -67.5 -29t-23.5 -73t27 -69t67 -25t68.5 24.5t28.5 72.5t-28 73.5t-72 25.5zM69 1292q0 79 48.5 136t155.5 57t163.5 -54t56.5 -141q0 -113 -111 -159
q131 -40 131 -185q0 -103 -64.5 -167t-171.5 -64t-169 65t-62 162q0 148 125 189q-102 47 -102 161z" />
    <glyph glyph-name="glyph662" horiz-adv-x="373" 
d="M108 0v1062h147v-1062h-147zM108 1259v207h147v-207h-147zM102 1566l109 280h193l-180 -280h-122z" />
    </font>
</defs>
</svg>
